<?xml version="1.0" standalone="no"?>
<!DOCTYPE svg PUBLIC "-//W3C//DTD SVG 20010904//EN"
 "http://www.w3.org/TR/2001/REC-SVG-20010904/DTD/svg10.dtd">
<svg version="1.0" xmlns="http://www.w3.org/2000/svg"
 width="1256.000000pt" height="462.000000pt" viewBox="0 0 1256.000000 462.000000"
 preserveAspectRatio="xMidYMid meet">

<g transform="translate(0.000000,462.000000) scale(0.100000,-0.100000)"
fill="#FFFFFF" stroke="none">
<path d="M6490 4320 l0 -300 25 0 25 0 0 134 0 135 38 3 c32 3 37 6 37 28 0
22 -5 25 -37 28 l-38 3 0 105 0 104 56 0 c54 0 55 0 52 28 -3 27 -4 27 -80 30
l-78 3 0 -301z"/>
<path d="M6680 4320 l0 -301 28 3 27 3 0 295 0 295 -27 3 -28 3 0 -301z"/>
<path d="M6797 4614 c-4 -4 -7 -139 -7 -301 l0 -293 80 0 80 0 0 30 c0 29 -1
30 -50 30 l-50 0 -2 268 c-3 260 -4 267 -23 270 -12 2 -24 0 -28 -4z"/>
<path d="M6987 4613 c-4 -3 -7 -138 -7 -300 l0 -293 25 0 25 0 1 198 c1 108 3
189 6 180 2 -9 16 -97 31 -195 27 -175 27 -178 52 -178 24 0 25 3 51 180 15
99 29 189 31 200 2 11 4 -70 4 -180 l-1 -200 28 -3 27 -3 -2 298 -3 298 -36 3
-36 3 -11 -73 c-6 -40 -19 -134 -28 -208 -9 -74 -20 -138 -24 -143 -3 -4 -19
86 -34 200 -15 114 -29 210 -32 215 -6 10 -58 11 -67 1z"/>
<path d="M7668 4606 c-10 -7 -22 -25 -28 -40 -15 -41 -13 -474 3 -506 24 -48
122 -57 155 -13 7 10 12 50 12 105 0 87 0 88 -25 88 -24 0 -24 -2 -27 -82 -3
-75 -5 -83 -24 -86 -41 -6 -45 13 -42 254 l3 229 32 3 32 3 3 -73 c3 -67 5
-73 26 -76 21 -3 22 -1 22 76 0 102 -19 132 -83 132 -23 0 -50 -6 -59 -14z"/>
<path d="M7883 4596 l-28 -24 -3 -225 c-4 -302 4 -330 102 -329 31 1 46 7 64
27 22 26 22 31 22 276 l0 250 -25 24 c-33 34 -93 34 -132 1z m101 -58 c10 -38
7 -415 -4 -442 -10 -28 -38 -34 -58 -14 -13 13 -18 459 -5 471 3 4 19 7 34 7
19 0 28 -6 33 -22z"/>
<path d="M8090 4320 l0 -300 25 0 25 0 1 193 1 192 28 -185 c16 -102 29 -188
29 -192 1 -5 12 -8 25 -8 27 0 24 -12 58 225 l23 160 3 -192 2 -193 25 0 25 0
0 301 0 300 -37 -3 -38 -3 -29 -222 c-16 -123 -31 -222 -32 -220 -1 1 -14 90
-28 197 -37 269 -31 250 -72 250 l-34 0 0 -300z"/>
<path d="M8417 4613 c-4 -3 -7 -138 -7 -300 l0 -293 25 0 25 0 1 198 c1 108 3
189 6 180 2 -9 16 -97 31 -195 27 -175 27 -178 52 -178 24 0 25 3 51 180 15
99 29 189 31 200 2 11 4 -70 4 -180 l-1 -200 28 -3 27 -3 -2 298 -3 298 -36 3
-36 3 -11 -73 c-6 -40 -19 -134 -28 -208 -9 -74 -20 -138 -24 -143 -3 -4 -19
86 -34 200 -15 114 -29 210 -32 215 -6 10 -58 11 -67 1z"/>
<path d="M8740 4320 l0 -300 80 0 80 0 0 30 c0 29 -1 30 -50 30 l-50 0 0 110
0 110 35 0 c31 0 35 3 35 25 0 22 -4 25 -35 25 l-35 0 0 105 0 105 51 0 c49 0
50 1 47 28 -3 27 -4 27 -80 30 l-78 3 0 -301z"/>
<path d="M8948 4614 c-5 -4 -8 -139 -8 -301 l0 -293 30 0 30 0 0 135 c0 128 1
135 20 135 11 0 20 -3 20 -7 0 -5 9 -62 20 -128 11 -66 20 -123 20 -127 0 -5
14 -8 30 -8 17 0 30 5 30 13 0 6 -11 70 -25 140 -23 125 -23 129 -5 147 23 23
34 93 27 177 -7 89 -30 113 -118 120 -35 3 -67 2 -71 -3z m120 -66 c7 -7 12
-44 12 -98 0 -94 -7 -110 -52 -110 l-28 0 0 110 0 110 28 0 c15 0 33 -5 40
-12z"/>
<path d="M9203 4596 l-28 -24 -3 -229 c-4 -267 2 -301 57 -319 88 -28 131 19
131 144 l0 72 -30 0 -29 0 -3 -82 c-3 -75 -5 -83 -24 -86 -41 -6 -45 13 -42
254 l3 229 32 3 32 3 3 -73 c3 -70 4 -73 28 -73 22 0 25 5 28 40 5 61 -7 124
-29 146 -28 28 -90 25 -126 -5z"/>
<path d="M9407 4614 c-4 -4 -7 -139 -7 -301 l0 -293 30 0 30 0 -2 298 c-3 290
-3 297 -23 300 -12 2 -24 0 -28 -4z"/>
<path d="M9575 4598 c-7 -34 -75 -536 -75 -559 0 -14 7 -19 25 -19 22 0 25 5
31 50 l7 50 43 0 43 0 7 -50 c6 -47 8 -50 36 -50 29 0 30 2 24 33 -3 17 -19
140 -36 272 -40 314 -35 295 -71 295 -22 0 -30 -5 -34 -22z m49 -273 c22 -163
23 -155 -20 -155 -34 0 -36 2 -31 28 3 15 11 78 18 139 7 62 14 112 15 110 2
-1 10 -56 18 -122z"/>
<path d="M9755 4607 c-3 -7 -4 -140 -3 -297 l3 -285 80 0 c79 0 80 0 80 25 0
23 -4 25 -52 28 l-53 3 0 270 0 269 -25 0 c-14 0 -28 -6 -30 -13z"/>
<path d="M10280 4320 l0 -300 25 0 25 0 0 139 0 138 49 7 c75 10 91 35 91 147
0 48 -4 99 -10 114 -13 33 -64 55 -130 55 l-50 0 0 -300z m119 231 c19 -12 27
-125 12 -163 -9 -23 -17 -28 -46 -28 l-35 0 0 100 0 100 28 0 c15 0 34 -4 41
-9z"/>
<path d="M10510 4320 l0 -300 25 0 25 0 0 136 c0 135 0 135 23 132 20 -3 24
-13 42 -133 20 -129 20 -130 48 -133 34 -4 34 3 6 160 l-21 118 21 26 c18 23
21 41 21 120 0 51 -4 104 -10 119 -13 33 -64 55 -130 55 l-50 0 0 -300z m114
234 c13 -5 16 -23 16 -98 0 -100 -7 -116 -52 -116 l-28 0 0 110 c0 110 0 110
24 110 13 0 31 -3 40 -6z"/>
<path d="M10777 4608 c-32 -25 -37 -68 -37 -294 0 -181 3 -231 15 -254 18 -34
65 -51 110 -38 60 16 60 17 63 276 2 130 0 247 -3 259 -10 41 -41 63 -88 63
-24 0 -51 -6 -60 -12z m91 -287 c1 -138 -2 -239 -7 -244 -5 -5 -21 -7 -35 -3
l-26 6 0 234 c0 128 3 236 7 240 4 4 19 6 33 4 l25 -3 3 -234z"/>
<path d="M10980 4321 l0 -301 55 0 c60 0 109 19 119 45 3 9 6 124 6 255 0 234
0 239 -23 265 -19 23 -33 28 -90 32 l-67 6 0 -302z m120 220 c15 -29 13 -434
-2 -449 -7 -7 -25 -12 -40 -12 l-28 0 0 240 0 240 30 0 c19 0 33 -7 40 -19z"/>
<path d="M11210 4346 c0 -271 0 -275 23 -301 17 -20 32 -26 63 -27 57 -1 82
16 94 61 6 24 9 137 8 288 l-3 248 -27 3 -28 3 0 -264 c0 -280 -2 -294 -47
-285 -17 3 -18 24 -23 273 l-5 270 -27 3 -28 3 0 -275z"/>
<path d="M11478 4606 c-10 -7 -22 -25 -28 -40 -15 -41 -13 -474 3 -506 24 -48
122 -57 155 -13 7 10 12 50 12 105 0 87 0 88 -25 88 -24 0 -24 -2 -27 -82 -3
-75 -5 -83 -24 -86 -41 -6 -45 13 -42 254 l3 229 32 3 32 3 3 -73 c3 -67 5
-73 26 -76 21 -3 22 -1 22 76 0 102 -19 132 -83 132 -23 0 -50 -6 -59 -14z"/>
<path d="M11650 4590 c0 -28 3 -30 35 -30 l35 0 0 -270 0 -270 25 0 25 0 0
270 0 270 36 0 c33 0 35 2 32 28 l-3 27 -92 3 -93 3 0 -31z"/>
<path d="M11877 4614 c-4 -4 -7 -139 -7 -301 l0 -293 30 0 30 0 -2 298 c-3
290 -3 297 -23 300 -12 2 -24 0 -28 -4z"/>
<path d="M12005 4595 l-25 -24 0 -250 c0 -247 0 -250 23 -277 33 -38 98 -38
135 0 l27 26 4 206 c4 239 -1 287 -34 320 -34 34 -97 33 -130 -1z m99 -51 c12
-31 7 -449 -6 -462 -18 -18 -46 -14 -58 7 -11 21 -15 428 -4 455 4 9 18 16 34
16 16 0 30 -7 34 -16z"/>
<path d="M12217 4613 c-4 -3 -7 -138 -7 -300 l0 -293 25 0 25 0 1 208 c1 235
-4 238 64 -50 l37 -158 29 0 29 0 -2 298 -3 297 -22 3 -23 3 -2 -208 -3 -208
-39 185 c-47 224 -49 230 -79 230 -13 0 -27 -3 -30 -7z"/>
<path d="M7390 4320 c0 -18 7 -20 55 -20 48 0 55 2 55 20 0 18 -7 20 -55 20
-48 0 -55 -2 -55 -20z"/>
<path d="M10030 4320 c0 -18 7 -20 55 -20 48 0 55 2 55 20 0 18 -7 20 -55 20
-48 0 -55 -2 -55 -20z"/>
<path d="M11810 3684 c-135 -29 -254 -113 -312 -221 -15 -27 -37 -82 -49 -123
-21 -71 -23 -96 -27 -467 -4 -420 4 -566 38 -655 29 -78 126 -194 380 -453
322 -328 353 -371 371 -520 6 -49 9 -223 7 -412 -4 -284 -7 -334 -22 -375 -21
-56 -70 -103 -123 -117 -59 -17 -153 -13 -198 8 -49 22 -68 43 -97 106 -23 49
-23 58 -28 480 l-5 430 -163 3 -163 3 3 -468 c4 -405 7 -476 22 -528 58 -203
164 -312 351 -360 82 -21 307 -20 394 1 199 50 310 177 351 404 15 81 14 854
-1 950 -31 201 -74 264 -409 605 -237 240 -303 317 -339 395 -25 55 -26 55
-29 391 -3 209 0 361 7 404 19 123 86 186 206 193 113 7 176 -23 216 -105 24
-47 24 -53 29 -428 l5 -380 158 -3 157 -3 0 384 c0 451 -7 515 -70 644 -61
124 -145 186 -297 218 -86 18 -277 18 -363 -1z"/>
<path d="M2 3388 l3 -273 153 -3 152 -3 0 276 0 275 -155 0 -155 0 2 -272z"/>
<path d="M3220 3385 l0 -275 150 0 150 0 0 275 0 275 -150 0 -150 0 0 -275z"/>
<path d="M4560 3152 l0 -508 -52 51 c-96 92 -220 129 -363 107 -130 -20 -221
-85 -267 -190 -46 -103 -47 -137 -48 -1200 0 -1103 -1 -1092 61 -1219 60 -125
167 -186 329 -187 160 0 266 50 340 162 l35 54 5 -94 5 -93 128 -3 127 -3 0
1816 0 1815 -150 0 -150 0 0 -508z m-163 -667 c57 -17 113 -66 143 -125 20
-38 20 -60 20 -953 l0 -913 -28 -45 c-59 -92 -123 -124 -232 -117 -75 6 -112
25 -138 72 -16 28 -17 109 -20 976 -2 520 0 964 3 988 15 104 124 155 252 117z"/>
<path d="M6410 1845 l0 -1815 168 2 167 3 3 833 2 832 220 0 220 0 0 165 0
165 -220 0 -220 0 0 645 0 645 323 2 322 3 3 168 2 167 -495 0 -495 0 0 -1815z"/>
<path d="M7612 1848 l3 -1813 165 0 165 0 3 1813 2 1812 -170 0 -170 0 2
-1812z"/>
<path d="M8282 1848 l3 -1813 490 0 490 0 0 165 0 165 -322 3 -323 2 0 1645 0
1645 -170 0 -170 0 2 -1812z"/>
<path d="M9462 1848 l3 -1813 155 0 155 0 -1 1305 -2 1305 109 -740 c105 -717
160 -1093 234 -1605 19 -135 37 -251 40 -257 3 -10 42 -13 149 -13 143 0 146
0 151 23 2 12 16 101 29 197 14 96 46 312 70 480 25 168 97 658 161 1090 63
432 117 792 119 800 2 8 4 -570 3 -1285 l-2 -1300 155 0 155 0 3 1813 2 1812
-233 0 -233 0 -62 -457 c-81 -593 -252 -1859 -288 -2125 -15 -115 -31 -208
-34 -208 -3 0 -11 44 -18 98 -12 94 -136 1011 -287 2125 -41 301 -75 552 -75
557 0 6 -88 10 -230 10 l-230 0 2 -1812z"/>
<path d="M1200 2795 c-99 -28 -198 -100 -251 -183 -15 -24 -29 -39 -32 -35 -3
4 -5 43 -6 87 -1 43 -4 83 -7 87 -3 5 -63 9 -135 9 l-129 0 2 -1362 3 -1363
150 0 150 0 5 1161 5 1160 28 42 c31 48 112 99 173 108 47 7 121 -10 148 -34
54 -49 51 21 56 -1257 l5 -1180 150 0 150 0 0 1205 c0 882 -3 1220 -12 1260
-32 154 -99 249 -198 284 -71 25 -187 29 -255 11z"/>
<path d="M2301 2800 c-105 -16 -191 -59 -255 -130 -81 -90 -105 -184 -113
-445 -6 -216 6 -408 32 -491 30 -103 106 -192 391 -464 125 -120 205 -221 234
-298 18 -47 20 -77 20 -295 0 -213 -3 -247 -19 -282 -22 -49 -48 -73 -98 -91
-81 -28 -159 -11 -219 50 -25 24 -46 58 -53 81 -6 24 -11 134 -11 278 l0 238
-137 -3 -138 -3 -3 -220 c-4 -332 14 -448 87 -555 44 -66 101 -111 178 -141
78 -31 307 -39 402 -15 135 34 230 105 272 202 40 90 49 166 49 435 0 354 -19
447 -124 593 -48 67 -177 195 -299 296 -95 79 -208 206 -239 269 -21 43 -23
61 -26 268 -4 237 3 304 40 355 66 94 250 87 315 -11 38 -56 43 -97 43 -343
l0 -238 141 0 141 0 -5 303 c-5 324 -12 378 -61 475 -76 149 -286 219 -545
182z"/>
<path d="M5507 2800 c-72 -13 -171 -63 -219 -112 -56 -56 -94 -128 -118 -224
-19 -74 -20 -113 -20 -1063 0 -1067 0 -1059 54 -1174 41 -85 97 -141 183 -184
72 -36 80 -37 197 -41 141 -5 210 7 295 49 73 37 134 101 173 184 50 107 57
181 58 568 l0 348 -142 -3 -143 -3 -5 -350 -5 -350 -25 -44 c-37 -65 -69 -84
-145 -89 -82 -5 -106 1 -150 39 -63 55 -65 76 -65 576 l0 443 341 0 340 0 -4
523 c-3 463 -5 529 -21 581 -49 167 -142 267 -286 310 -65 20 -225 29 -293 16z
m177 -319 c42 -10 88 -49 114 -96 15 -26 17 -79 20 -412 l3 -383 -195 0 -196
0 0 358 c0 385 4 426 52 485 39 48 119 67 202 48z"/>
<path d="M2 1398 l3 -1363 150 0 150 0 3 1363 2 1362 -155 0 -155 0 2 -1362z"/>
<path d="M3220 1395 l0 -1365 150 0 150 0 0 1365 0 1365 -150 0 -150 0 0
-1365z"/>
</g>
</svg>
