<?xml version="1.0" encoding="UTF-8"?>
<!DOCTYPE svg PUBLIC "-//W3C//DTD SVG 1.1//EN" "http://www.w3.org/Graphics/SVG/1.1/DTD/svg11.dtd">
<svg xmlns="http://www.w3.org/2000/svg" version="1.1" width="1865px" height="1707px" style="shape-rendering:geometricPrecision; text-rendering:geometricPrecision; image-rendering:optimizeQuality; fill-rule:evenodd; clip-rule:evenodd" xmlns:xlink="http://www.w3.org/1999/xlink">
<g><path style="opacity:0.928" fill="#fff" d="M 890.5,-0.5 C 918.167,-0.5 945.833,-0.5 973.5,-0.5C 1199.91,14.1435 1392.08,102.144 1550,263.5C 1713.01,439.104 1791.34,647.437 1785,888.5C 1784.42,902.554 1783.25,916.554 1781.5,930.5C 1776.12,922.247 1771.12,913.747 1766.5,905C 1778.65,696.677 1722.15,509.511 1597,343.5C 1471.39,182.714 1308.56,79.547 1108.5,34C 884.826,-10.8355 676.159,26.4978 482.5,146C 303.165,263.09 183.665,424.923 124,631.5C 99.2784,721.213 90.4451,812.38 97.5,905C 92.8782,913.747 87.8782,922.247 82.5,930.5C 63.5576,690.52 131.058,478.854 285,295.5C 427.647,133.568 606.48,37.0676 821.5,6C 844.6,3.24898 867.6,1.08231 890.5,-0.5 Z M 897.5,155.5 C 919.526,155.738 941.526,156.571 963.5,158C 986,163.21 992.167,176.044 982,196.5C 976.663,201.085 970.496,203.918 963.5,205C 950.484,205.687 937.484,205.52 924.5,204.5C 924.804,213.221 924.471,221.888 923.5,230.5C 914.163,231.688 904.829,231.688 895.5,230.5C 896.086,205.498 896.753,180.498 897.5,155.5 Z M 830.5,159.5 C 840.744,158.79 850.744,159.957 860.5,163C 866.426,165.761 870.426,170.261 872.5,176.5C 861.683,179.355 850.683,180.855 839.5,181C 838.023,178.852 836.023,177.518 833.5,177C 828.109,176.308 822.775,176.641 817.5,178C 812.876,179.575 811.709,182.408 814,186.5C 815.734,187.249 817.567,187.749 819.5,188C 832.833,188.333 846.167,188.667 859.5,189C 874.778,190.726 881.611,199.226 880,214.5C 878.082,222.087 873.582,227.587 866.5,231C 844.84,240.667 822.507,243 799.5,238C 791.973,235.141 787.306,229.808 785.5,222C 797.105,219.817 808.772,218.484 820.5,218C 821.551,219.385 822.884,220.385 824.5,221C 832.156,222.447 839.322,221.28 846,217.5C 847.125,211.619 844.625,208.786 838.5,209C 830.32,208.36 822.153,208.527 814,209.5C 804.019,209.924 795.019,207.257 787,201.5C 778.07,186.168 781.57,174.668 797.5,167C 808.36,163.265 819.36,160.765 830.5,159.5 Z M 1031.5,165.5 C 1050.1,165.316 1067.43,169.816 1083.5,179C 1096.92,189.934 1101.09,203.768 1096,220.5C 1092.12,235.359 1082.62,244.193 1067.5,247C 1047.98,249.204 1029.65,245.537 1012.5,236C 1001.59,229.239 995.92,219.406 995.5,206.5C 996.344,182.674 1008.34,169.008 1031.5,165.5 Z M 1127.5,187.5 C 1149.18,195.894 1170.84,204.394 1192.5,213C 1209.7,222.482 1211.7,234.482 1198.5,249C 1194.77,251.133 1190.77,252.466 1186.5,253C 1189.65,255.795 1191.31,259.295 1191.5,263.5C 1189.3,271.447 1187.3,279.447 1185.5,287.5C 1186.43,288.768 1186.59,290.101 1186,291.5C 1176.68,287.28 1167.18,283.447 1157.5,280C 1156.98,279.439 1156.64,278.772 1156.5,278C 1159.37,271.418 1160.53,264.584 1160,257.5C 1152.51,253.175 1144.68,249.508 1136.5,246.5C 1133.08,253.687 1129.91,261.02 1127,268.5C 1117.98,265.052 1109.15,261.218 1100.5,257C 1109.64,233.883 1118.64,210.716 1127.5,187.5 Z M 663.5,204.5 C 665.284,205.574 666.451,207.24 667,209.5C 672.804,225.245 678.804,240.912 685,256.5C 699.333,250.833 713.667,245.167 728,239.5C 730.784,245.344 733.284,251.344 735.5,257.5C 712.417,267.217 689.084,276.05 665.5,284C 656.5,261 647.5,238 638.5,215C 646.892,211.465 655.226,207.965 663.5,204.5 Z M 1226.5,228.5 C 1251.23,242.033 1275.9,255.866 1300.5,270C 1297.33,275.167 1294.17,280.333 1291,285.5C 1283.75,281.46 1276.58,277.293 1269.5,273C 1268.5,272.333 1267.5,272.333 1266.5,273C 1257,289.167 1247.5,305.333 1238,321.5C 1229.92,316.541 1221.75,311.707 1213.5,307C 1223.23,291.041 1232.56,274.874 1241.5,258.5C 1241.17,257.833 1240.83,257.167 1240.5,256.5C 1233.17,252.167 1225.83,247.833 1218.5,243.5C 1221.45,238.605 1224.11,233.605 1226.5,228.5 Z M 579.5,244.5 C 588.852,260.027 597.852,275.86 606.5,292C 607.5,292.667 608.5,292.667 609.5,292C 621.936,285.032 634.436,278.199 647,271.5C 647.772,271.645 648.439,271.978 649,272.5C 651.452,277.907 654.286,283.074 657.5,288C 635.731,299.968 613.897,311.801 592,323.5C 579.339,302.185 567.172,280.518 555.5,258.5C 563.563,253.807 571.563,249.14 579.5,244.5 Z M 515.5,284.5 C 538.947,298.107 562.28,311.94 585.5,326C 578.015,332.241 570.348,338.241 562.5,344C 559.596,343.651 556.93,342.485 554.5,340.5C 545.205,346.802 536.539,353.802 528.5,361.5C 528.94,363.765 529.606,365.932 530.5,368C 522.333,374.167 514.167,380.333 506,386.5C 499.749,359.904 493.249,333.404 486.5,307C 496.597,299.964 506.264,292.464 515.5,284.5 Z M 1309.5,287.5 C 1320.59,287.142 1330.59,290.309 1339.5,297C 1352.33,305.833 1363.17,316.667 1372,329.5C 1375.57,337.023 1375.24,344.357 1371,351.5C 1362.98,344.644 1354.81,337.977 1346.5,331.5C 1345.58,322.402 1340.92,315.902 1332.5,312C 1325.91,309.756 1323.41,311.923 1325,318.5C 1334.33,328.5 1343.67,338.5 1353,348.5C 1363.47,362.798 1361.3,374.632 1346.5,384C 1341.59,385.492 1336.59,385.826 1331.5,385C 1313.24,377.743 1297.41,366.91 1284,352.5C 1279.21,346.249 1276.04,339.249 1274.5,331.5C 1275.15,327.195 1276.65,323.195 1279,319.5C 1288,326.5 1297,333.5 1306,340.5C 1305.21,343.191 1305.54,345.858 1307,348.5C 1311.02,354.207 1316.36,357.874 1323,359.5C 1324.71,359.561 1326.04,358.894 1327,357.5C 1327.75,354.697 1327.42,352.03 1326,349.5C 1317.77,341.359 1309.77,333.025 1302,324.5C 1290.5,309.208 1293,296.875 1309.5,287.5 Z M 1005.5,390.5 C 1065.54,407.389 1114.71,440.389 1153,489.5C 1166.07,506.092 1176.91,524.092 1185.5,543.5C 1164.88,509.026 1139.55,478.192 1109.5,451C 1078.67,424.414 1044.01,404.248 1005.5,390.5 Z M 1131.5,893.5 C 1083.17,862.168 1031.84,836.335 977.5,816C 957.756,808.863 938.089,801.53 918.5,794C 857.934,766.734 824.434,719.901 818,653.5C 817.163,636.473 817.497,619.473 819,602.5C 815.975,648.741 826.641,691.408 851,730.5C 869.425,755.634 892.925,774.467 921.5,787C 971.939,805.035 1020.94,826.368 1068.5,851C 1091.04,863.072 1112.04,877.239 1131.5,893.5 Z M 390.5,652.5 C 396.833,652.5 403.167,652.5 409.5,652.5C 409.5,698.167 409.5,743.833 409.5,789.5C 392.167,789.5 374.833,789.5 357.5,789.5C 372.427,744.791 383.427,699.124 390.5,652.5 Z M 1454.5,652.5 C 1460.83,652.5 1467.17,652.5 1473.5,652.5C 1480.57,699.124 1491.57,744.791 1506.5,789.5C 1489.17,789.5 1471.83,789.5 1454.5,789.5C 1454.5,743.833 1454.5,698.167 1454.5,652.5 Z"/></g>
<g><path style="opacity:0.984" fill="#fff" d="M 897.5,63.5 C 1116.17,57.6423 1306.17,127.476 1467.5,273C 1622.62,420.117 1706.46,600.951 1719,815.5C 1670.99,721.156 1630.99,623.489 1599,522.5C 1591.23,496.74 1584.39,470.74 1578.5,444.5C 1539.17,444.667 1499.83,444.5 1460.5,444C 1440.83,420.159 1418.5,399.326 1393.5,381.5C 1393.17,381.667 1392.83,381.833 1392.5,382C 1412.18,400.915 1429.84,421.415 1445.5,443.5C 1366.83,444.833 1288.17,444.833 1209.5,443.5C 1138.83,354.61 1046.33,309.276 932,307.5C 818.065,309.762 725.899,355.262 655.5,444C 576.498,444.833 497.498,444.667 418.5,443.5C 434.156,421.415 451.823,400.915 471.5,382C 471.167,381.833 470.833,381.667 470.5,381.5C 445.502,399.326 423.169,420.159 403.5,444C 364.168,444.5 324.835,444.667 285.5,444.5C 270.998,506.509 252.164,567.176 229,626.5C 204.553,691.063 176.553,754.063 145,815.5C 157.544,600.948 241.378,420.115 396.5,273C 538.278,144.31 705.278,74.4767 897.5,63.5 Z M 897.5,155.5 C 896.753,180.498 896.086,205.498 895.5,230.5C 904.829,231.688 914.163,231.688 923.5,230.5C 924.471,221.888 924.804,213.221 924.5,204.5C 937.484,205.52 950.484,205.687 963.5,205C 970.496,203.918 976.663,201.085 982,196.5C 992.167,176.044 986,163.21 963.5,158C 941.526,156.571 919.526,155.738 897.5,155.5 Z M 830.5,159.5 C 819.36,160.765 808.36,163.265 797.5,167C 781.57,174.668 778.07,186.168 787,201.5C 795.019,207.257 804.019,209.924 814,209.5C 822.153,208.527 830.32,208.36 838.5,209C 844.625,208.786 847.125,211.619 846,217.5C 839.322,221.28 832.156,222.447 824.5,221C 822.884,220.385 821.551,219.385 820.5,218C 808.772,218.484 797.105,219.817 785.5,222C 787.306,229.808 791.973,235.141 799.5,238C 822.507,243 844.84,240.667 866.5,231C 873.582,227.587 878.082,222.087 880,214.5C 881.611,199.226 874.778,190.726 859.5,189C 846.167,188.667 832.833,188.333 819.5,188C 817.567,187.749 815.734,187.249 814,186.5C 811.709,182.408 812.876,179.575 817.5,178C 822.775,176.641 828.109,176.308 833.5,177C 836.023,177.518 838.023,178.852 839.5,181C 850.683,180.855 861.683,179.355 872.5,176.5C 870.426,170.261 866.426,165.761 860.5,163C 850.744,159.957 840.744,158.79 830.5,159.5 Z M 1031.5,165.5 C 1008.34,169.008 996.344,182.674 995.5,206.5C 995.92,219.406 1001.59,229.239 1012.5,236C 1029.65,245.537 1047.98,249.204 1067.5,247C 1082.62,244.193 1092.12,235.359 1096,220.5C 1101.09,203.768 1096.92,189.934 1083.5,179C 1067.43,169.816 1050.1,165.316 1031.5,165.5 Z M 1127.5,187.5 C 1118.64,210.716 1109.64,233.883 1100.5,257C 1109.15,261.218 1117.98,265.052 1127,268.5C 1129.91,261.02 1133.08,253.687 1136.5,246.5C 1144.68,249.508 1152.51,253.175 1160,257.5C 1160.53,264.584 1159.37,271.418 1156.5,278C 1156.64,278.772 1156.98,279.439 1157.5,280C 1167.18,283.447 1176.68,287.28 1186,291.5C 1186.59,290.101 1186.43,288.768 1185.5,287.5C 1187.3,279.447 1189.3,271.447 1191.5,263.5C 1191.31,259.295 1189.65,255.795 1186.5,253C 1190.77,252.466 1194.77,251.133 1198.5,249C 1211.7,234.482 1209.7,222.482 1192.5,213C 1170.84,204.394 1149.18,195.894 1127.5,187.5 Z M 663.5,204.5 C 655.226,207.965 646.892,211.465 638.5,215C 647.5,238 656.5,261 665.5,284C 689.084,276.05 712.417,267.217 735.5,257.5C 733.284,251.344 730.784,245.344 728,239.5C 713.667,245.167 699.333,250.833 685,256.5C 678.804,240.912 672.804,225.245 667,209.5C 666.451,207.24 665.284,205.574 663.5,204.5 Z M 1226.5,228.5 C 1224.11,233.605 1221.45,238.605 1218.5,243.5C 1225.83,247.833 1233.17,252.167 1240.5,256.5C 1240.83,257.167 1241.17,257.833 1241.5,258.5C 1232.56,274.874 1223.23,291.041 1213.5,307C 1221.75,311.707 1229.92,316.541 1238,321.5C 1247.5,305.333 1257,289.167 1266.5,273C 1267.5,272.333 1268.5,272.333 1269.5,273C 1276.58,277.293 1283.75,281.46 1291,285.5C 1294.17,280.333 1297.33,275.167 1300.5,270C 1275.9,255.866 1251.23,242.033 1226.5,228.5 Z M 579.5,244.5 C 571.563,249.14 563.563,253.807 555.5,258.5C 567.172,280.518 579.339,302.185 592,323.5C 613.897,311.801 635.731,299.968 657.5,288C 654.286,283.074 651.452,277.907 649,272.5C 648.439,271.978 647.772,271.645 647,271.5C 634.436,278.199 621.936,285.032 609.5,292C 608.5,292.667 607.5,292.667 606.5,292C 597.852,275.86 588.852,260.027 579.5,244.5 Z M 515.5,284.5 C 506.264,292.464 496.597,299.964 486.5,307C 493.249,333.404 499.749,359.904 506,386.5C 514.167,380.333 522.333,374.167 530.5,368C 529.606,365.932 528.94,363.765 528.5,361.5C 536.539,353.802 545.205,346.802 554.5,340.5C 556.93,342.485 559.596,343.651 562.5,344C 570.348,338.241 578.015,332.241 585.5,326C 562.28,311.94 538.947,298.107 515.5,284.5 Z M 1309.5,287.5 C 1293,296.875 1290.5,309.208 1302,324.5C 1309.77,333.025 1317.77,341.359 1326,349.5C 1327.42,352.03 1327.75,354.697 1327,357.5C 1326.04,358.894 1324.71,359.561 1323,359.5C 1316.36,357.874 1311.02,354.207 1307,348.5C 1305.54,345.858 1305.21,343.191 1306,340.5C 1297,333.5 1288,326.5 1279,319.5C 1276.65,323.195 1275.15,327.195 1274.5,331.5C 1276.04,339.249 1279.21,346.249 1284,352.5C 1297.41,366.91 1313.24,377.743 1331.5,385C 1336.59,385.826 1341.59,385.492 1346.5,384C 1361.3,374.632 1363.47,362.798 1353,348.5C 1343.67,338.5 1334.33,328.5 1325,318.5C 1323.41,311.923 1325.91,309.756 1332.5,312C 1340.92,315.902 1345.58,322.402 1346.5,331.5C 1354.81,337.977 1362.98,344.644 1371,351.5C 1375.24,344.357 1375.57,337.023 1372,329.5C 1363.17,316.667 1352.33,305.833 1339.5,297C 1330.59,290.309 1320.59,287.142 1309.5,287.5 Z M 1005.5,390.5 C 1065.54,407.389 1114.71,440.389 1153,489.5C 1166.07,506.092 1176.91,524.092 1185.5,543.5C 1164.88,509.026 1139.55,478.192 1109.5,451C 1078.67,424.414 1044.01,404.248 1005.5,390.5 Z M 390.5,652.5 C 383.427,699.124 372.427,744.791 357.5,789.5C 374.833,789.5 392.167,789.5 409.5,789.5C 409.5,743.833 409.5,698.167 409.5,652.5C 403.167,652.5 396.833,652.5 390.5,652.5 Z M 1454.5,652.5 C 1454.5,698.167 1454.5,743.833 1454.5,789.5C 1471.83,789.5 1489.17,789.5 1506.5,789.5C 1491.57,744.791 1480.57,699.124 1473.5,652.5C 1467.17,652.5 1460.83,652.5 1454.5,652.5 Z"/></g>
<g><path style="opacity:0.909" fill="#fff" d="M 925.5,171.5 C 933.853,171.617 942.187,172.117 950.5,173C 955.738,176.274 956.904,180.774 954,186.5C 953.097,187.701 951.931,188.535 950.5,189C 942.173,189.5 933.84,189.666 925.5,189.5C 925.5,183.5 925.5,177.5 925.5,171.5 Z"/></g>
<g><path style="opacity:0.944" fill="#fff" d="M 1040.5,185.5 C 1064.55,185.407 1072.39,196.74 1064,219.5C 1060.34,225.334 1055.01,228.334 1048,228.5C 1028.35,225.871 1022.01,215.205 1029,196.5C 1031.44,191.226 1035.27,187.56 1040.5,185.5 Z"/></g>
<g><path style="opacity:0.885" fill="#fff" d="M 1147.5,215.5 C 1156.31,217.658 1164.64,220.992 1172.5,225.5C 1174.97,228.674 1175.14,232.007 1173,235.5C 1170.42,237.347 1167.59,237.847 1164.5,237C 1156.89,234.577 1149.56,231.577 1142.5,228C 1144.59,223.996 1146.25,219.829 1147.5,215.5 Z"/></g>
<g><path style="opacity:0.844" fill="#fff" d="M 514.5,313.5 C 522.86,318.678 530.86,324.345 538.5,330.5C 533.724,335.157 528.391,338.657 522.5,341C 519.125,332.042 516.459,322.876 514.5,313.5 Z"/></g>
<g><path style="opacity:0.989" fill="#fff" d="M 906.5,355.5 C 1018.51,349.604 1108.67,390.604 1177,478.5C 1210.83,525.66 1229.83,578.327 1234,636.5C 1234.67,719.167 1234.67,801.833 1234,884.5C 1224.96,849.569 1207.13,820.069 1180.5,796C 1154.72,773.93 1126.39,755.596 1095.5,741C 1084.23,736.023 1073.06,730.856 1062,725.5C 1063.62,691.216 1062.96,656.882 1060,622.5C 1058.16,596.806 1051.49,572.472 1040,549.5C 1009.43,501.64 966.934,486.473 912.5,504C 881.319,518.866 862.486,543.366 856,577.5C 848.24,618.489 853.24,657.822 871,695.5C 884.5,719.667 903.333,738.5 927.5,752C 962.753,766.529 998.087,780.862 1033.5,795C 1075.74,812.434 1114.4,835.434 1149.5,864C 1202.81,912.133 1230.64,972.299 1233,1044.5C 1233.14,1149.06 1191.64,1232.56 1108.5,1295C 1027.76,1349.73 940.095,1364.4 845.5,1339C 739.459,1304.29 670.626,1233.46 639,1126.5C 634.16,1107.79 631.16,1088.79 630,1069.5C 629.333,987.5 629.333,905.5 630,823.5C 636.612,848.061 647.946,870.061 664,889.5C 684.564,912.071 708.064,930.904 734.5,946C 755.823,958.161 777.823,968.994 800.5,978.5C 800.833,979.167 801.167,979.833 801.5,980.5C 798.944,1017.22 799.777,1053.89 804,1090.5C 806.286,1121.04 816.619,1148.38 835,1172.5C 862.822,1203 896.989,1213.84 937.5,1205C 975.377,1193.29 998.377,1167.96 1006.5,1129C 1015.65,1083.71 1009.15,1040.88 987,1000.5C 968.606,972.46 943.44,952.96 911.5,942C 866.768,925.866 823.101,907.199 780.5,886C 743.198,866.259 710.698,840.425 683,808.5C 643.175,755.561 625.842,695.894 631,629.5C 643.006,524.247 694.506,445.08 785.5,392C 823.476,371.595 863.809,359.429 906.5,355.5 Z M 1005.5,390.5 C 1065.54,407.389 1114.71,440.389 1153,489.5C 1166.07,506.092 1176.91,524.092 1185.5,543.5C 1164.88,509.026 1139.55,478.192 1109.5,451C 1078.67,424.414 1044.01,404.248 1005.5,390.5 Z M 1131.5,893.5 C 1112.04,877.239 1091.04,863.072 1068.5,851C 1020.94,826.368 971.939,805.035 921.5,787C 892.925,774.467 869.425,755.634 851,730.5C 826.641,691.408 815.975,648.741 819,602.5C 817.497,619.473 817.163,636.473 818,653.5C 824.434,719.901 857.934,766.734 918.5,794C 938.089,801.53 957.756,808.863 977.5,816C 1031.84,836.335 1083.17,862.168 1131.5,893.5 Z M 1031.5,1033.5 C 1049.41,1078.26 1049.91,1123.26 1033,1168.5C 1013.88,1211.93 980.717,1236.77 933.5,1243C 868.672,1246.35 821.838,1219.18 793,1161.5C 788.518,1151.56 785.352,1141.22 783.5,1130.5C 791.988,1160.15 807.321,1185.65 829.5,1207C 860.895,1231.77 896.561,1241.44 936.5,1236C 982.731,1228.44 1013.9,1202.61 1030,1158.5C 1039.79,1128.46 1042.46,1097.8 1038,1066.5C 1036.28,1055.39 1034.11,1044.39 1031.5,1033.5 Z"/></g>
<g><path style="opacity:0.991" fill="#fff" d="M -0.5,1143.5 C -0.5,1142.5 -0.5,1141.5 -0.5,1140.5C 135.236,960.396 238.069,762.063 308,545.5C 313.554,528.01 318.387,510.343 322.5,492.5C 424.834,492.333 527.167,492.5 629.5,493C 602.563,538.48 587.73,587.647 585,640.5C 584.333,791.167 584.333,941.833 585,1092.5C 587.778,1146 602.944,1195.66 630.5,1241.5C 569.549,1226.27 516.716,1196.61 472,1152.5C 435.634,1113.75 414.967,1067.75 410,1014.5C 409.5,977.502 409.333,940.502 409.5,903.5C 373.827,903.167 338.16,903.5 302.5,904.5C 230.664,1020.99 129.664,1100.65 -0.5,1143.5 Z M 554.5,570.5 C 550.579,584.94 547.745,599.607 546,614.5C 545.667,728.833 545.333,843.167 545,957.5C 542.418,847.156 539.585,736.822 536.5,626.5C 537.586,606.122 543.586,587.455 554.5,570.5 Z M 390.5,652.5 C 383.427,699.124 372.427,744.791 357.5,789.5C 374.833,789.5 392.167,789.5 409.5,789.5C 409.5,743.833 409.5,698.167 409.5,652.5C 403.167,652.5 396.833,652.5 390.5,652.5 Z"/></g>
<g><path style="opacity:0.991" fill="#fff" d="M 1864.5,1140.5 C 1864.5,1141.5 1864.5,1142.5 1864.5,1143.5C 1734.34,1100.65 1633.34,1020.99 1561.5,904.5C 1525.84,903.5 1490.17,903.167 1454.5,903.5C 1478.85,1065.08 1415.51,1174.91 1264.5,1233C 1254.73,1236.37 1244.9,1239.53 1235,1242.5C 1234.5,1242.17 1234,1241.83 1233.5,1241.5C 1261.06,1195.66 1276.22,1146 1279,1092.5C 1279.67,941.833 1279.67,791.167 1279,640.5C 1276.27,587.647 1261.44,538.48 1234.5,493C 1336.83,492.5 1439.17,492.333 1541.5,492.5C 1555.42,545.428 1572.25,597.428 1592,648.5C 1655.96,814.131 1739.29,968.464 1842,1111.5C 1849.04,1121.6 1856.54,1131.26 1864.5,1140.5 Z M 1309.5,570.5 C 1320.41,587.455 1326.41,606.122 1327.5,626.5C 1324.41,736.822 1321.58,847.156 1319,957.5C 1318.67,843.167 1318.33,728.833 1318,614.5C 1316.25,599.607 1313.42,584.94 1309.5,570.5 Z M 1454.5,652.5 C 1454.5,698.167 1454.5,743.833 1454.5,789.5C 1471.83,789.5 1489.17,789.5 1506.5,789.5C 1491.57,744.791 1480.57,699.124 1473.5,652.5C 1467.17,652.5 1460.83,652.5 1454.5,652.5 Z"/></g>
<g><path style="opacity:0.981" fill="#fff" d="M 942.5,544.5 C 972.86,542.601 993.36,555.934 1004,584.5C 1012.2,613.062 1016.03,642.229 1015.5,672C 1015.3,683.994 1014.47,695.827 1013,707.5C 996.009,700.28 978.843,693.446 961.5,687C 937.585,678.142 919.419,662.642 907,640.5C 896.8,613.55 898.8,587.55 913,562.5C 920.471,552.51 930.304,546.51 942.5,544.5 Z"/></g>
<g><path style="opacity:0.985" fill="#fff" d="M 1333.5,1368.5 C 1381.91,1339.14 1424.74,1302.81 1462,1259.5C 1521.75,1189.02 1563.41,1108.69 1587,1018.5C 1615.57,1049.92 1646.74,1078.25 1680.5,1103.5C 1611.29,1301.2 1484.95,1450.37 1301.5,1551C 1126.83,1641.08 943.492,1664.75 751.5,1622C 560.304,1574.55 406.804,1471.72 291,1313.5C 244.947,1249.07 209.114,1179.07 183.5,1103.5C 217.261,1078.25 248.428,1049.92 277,1018.5C 311.673,1149.39 381.84,1256.56 487.5,1340C 501.204,1350.51 515.537,1360.01 530.5,1368.5C 410.078,1271.76 332.078,1147.76 296.5,996.5C 307.276,981.795 317.943,966.962 328.5,952C 339.495,951.5 350.495,951.333 361.5,951.5C 351.738,1059.47 388.404,1147.64 471.5,1216C 513.145,1248.32 559.479,1271.99 610.5,1287C 640.5,1295.33 670.5,1303.67 700.5,1312C 784.401,1383.15 881.067,1410.49 990.5,1394C 1054.4,1382.21 1110.74,1355.21 1159.5,1313C 1190.83,1304.33 1222.17,1295.67 1253.5,1287C 1317.88,1268.36 1373.88,1235.86 1421.5,1189.5C 1469.07,1141.35 1495.9,1083.35 1502,1015.5C 1502.5,994.169 1502.67,972.836 1502.5,951.5C 1513.51,951.333 1524.51,951.5 1535.5,952C 1546.06,966.962 1556.72,981.795 1567.5,996.5C 1531.92,1147.76 1453.92,1271.76 1333.5,1368.5 Z M 1031.5,1033.5 C 1049.41,1078.26 1049.91,1123.26 1033,1168.5C 1013.88,1211.93 980.717,1236.77 933.5,1243C 868.672,1246.35 821.838,1219.18 793,1161.5C 788.518,1151.56 785.352,1141.22 783.5,1130.5C 791.988,1160.15 807.321,1185.65 829.5,1207C 860.895,1231.77 896.561,1241.44 936.5,1236C 982.731,1228.44 1013.9,1202.61 1030,1158.5C 1039.79,1128.46 1042.46,1097.8 1038,1066.5C 1036.28,1055.39 1034.11,1044.39 1031.5,1033.5 Z M 1293.5,1361.5 C 1294.16,1363.13 1294.49,1364.97 1294.5,1367C 1293.59,1386.85 1292.59,1406.68 1291.5,1426.5C 1294.64,1433.45 1298.31,1440.12 1302.5,1446.5C 1294.25,1451.88 1285.75,1456.88 1277,1461.5C 1273.17,1455 1269.33,1448.5 1265.5,1442C 1246.5,1431.67 1227.5,1421.33 1208.5,1411C 1218.25,1405.04 1228.08,1399.21 1238,1393.5C 1247.59,1400.38 1257.09,1407.38 1266.5,1414.5C 1266.83,1413.17 1267.17,1411.83 1267.5,1410.5C 1266.33,1399.82 1265.5,1389.15 1265,1378.5C 1274.67,1372.97 1284.17,1367.3 1293.5,1361.5 Z M 600.5,1362.5 C 602.308,1362.49 603.975,1362.99 605.5,1364C 615.326,1370.34 624.993,1376.84 634.5,1383.5C 629.442,1410.85 624.275,1438.18 619,1465.5C 610.918,1460.21 602.751,1455.04 594.5,1450C 592.403,1447.16 592.403,1444.16 594.5,1441C 584.923,1434.42 575.089,1428.26 565,1422.5C 562.76,1423.04 560.927,1424.2 559.5,1426C 558.5,1426.67 557.5,1426.67 556.5,1426C 548.336,1420.42 540.003,1415.08 531.5,1410C 554.679,1394.3 577.679,1378.47 600.5,1362.5 Z M 530.5,1368.5 C 532.027,1368.43 533.027,1369.09 533.5,1370.5C 531.973,1370.57 530.973,1369.91 530.5,1368.5 Z M 1333.5,1368.5 C 1333.03,1369.91 1332.03,1370.57 1330.5,1370.5C 1330.97,1369.09 1331.97,1368.43 1333.5,1368.5 Z M 676.5,1410.5 C 697.235,1411.13 715.901,1417.63 732.5,1430C 741.472,1437.28 746.472,1446.61 747.5,1458C 747.729,1462.12 746.896,1465.96 745,1469.5C 735.347,1464.95 725.514,1460.78 715.5,1457C 715.376,1439.88 706.71,1432.22 689.5,1434C 680.961,1437.19 675.794,1443.36 674,1452.5C 672.316,1467.67 679.149,1476.33 694.5,1478.5C 699.978,1477.76 704.645,1475.43 708.5,1471.5C 719.074,1475.52 729.407,1480.02 739.5,1485C 727.505,1500.11 712.172,1504.77 693.5,1499C 680.44,1495.47 668.44,1489.8 657.5,1482C 640.727,1466.91 637.894,1449.41 649,1429.5C 655.361,1418.95 664.528,1412.62 676.5,1410.5 Z M 1188.5,1419.5 C 1189.75,1419.58 1190.58,1420.24 1191,1421.5C 1198.73,1445.54 1206.57,1469.54 1214.5,1493.5C 1206.1,1496.8 1197.6,1499.8 1189,1502.5C 1182.52,1482.73 1175.85,1463.06 1169,1443.5C 1169.16,1465.16 1169.16,1486.83 1169,1508.5C 1162.17,1510.75 1155.33,1513.09 1148.5,1515.5C 1135.6,1498.05 1122.93,1480.38 1110.5,1462.5C 1110.17,1462.83 1109.83,1463.17 1109.5,1463.5C 1116.44,1482.99 1122.78,1502.66 1128.5,1522.5C 1119.78,1524.46 1111.28,1527.13 1103,1530.5C 1095.03,1505.59 1086.86,1480.75 1078.5,1456C 1092.75,1451.36 1106.91,1446.53 1121,1441.5C 1129.84,1455.84 1139.17,1469.84 1149,1483.5C 1149.29,1466.5 1149.12,1449.5 1148.5,1432.5C 1162.18,1428.94 1175.51,1424.61 1188.5,1419.5 Z M 839.5,1538.5 C 829.446,1536.65 819.446,1534.49 809.5,1532C 808.556,1529.28 808.223,1526.45 808.5,1523.5C 797.846,1521.17 787.179,1518.84 776.5,1516.5C 775.5,1516.67 774.5,1516.83 773.5,1517C 772.33,1519.33 770.663,1521.17 768.5,1522.5C 758.648,1520.45 748.982,1517.95 739.5,1515C 755.782,1492.38 772.448,1470.05 789.5,1448C 802.244,1449.85 814.911,1452.35 827.5,1455.5C 831.609,1483.15 835.609,1510.82 839.5,1538.5 Z M 1053.5,1458.5 C 1055.5,1458.5 1057.5,1458.5 1059.5,1458.5C 1060.39,1464.47 1061.05,1470.47 1061.5,1476.5C 1043.86,1478.65 1026.19,1480.65 1008.5,1482.5C 1009.05,1485.81 1009.38,1489.14 1009.5,1492.5C 1023.86,1491.29 1038.19,1490.13 1052.5,1489C 1053.71,1494.73 1054.38,1500.56 1054.5,1506.5C 1040.16,1508.22 1025.83,1510.06 1011.5,1512C 1012.29,1515.08 1012.79,1518.24 1013,1521.5C 1014.57,1522.12 1016.24,1522.46 1018,1522.5C 1034.37,1520.72 1050.7,1518.72 1067,1516.5C 1067.77,1516.64 1068.44,1516.98 1069,1517.5C 1069.65,1523.55 1070.49,1529.55 1071.5,1535.5C 1042.89,1539.33 1014.22,1542.66 985.5,1545.5C 982.76,1519.51 980.093,1493.51 977.5,1467.5C 1003.01,1464.81 1028.34,1461.81 1053.5,1458.5 Z M 863.5,1463.5 C 885.234,1464.11 906.9,1465.61 928.5,1468C 955.364,1474.55 965.864,1491.39 960,1518.5C 954.63,1533.79 943.797,1542.29 927.5,1544C 904.779,1544.52 882.112,1543.68 859.5,1541.5C 860.638,1515.49 861.971,1489.49 863.5,1463.5 Z"/></g>
<g><path style="opacity:0.981" fill="#fff" d="M 849.5,997.5 C 874.037,1005.93 898.037,1015.77 921.5,1027C 958.723,1050.32 970.89,1083.15 958,1125.5C 947.039,1154.9 926.206,1165.73 895.5,1158C 881.99,1153.49 871.824,1144.99 865,1132.5C 856.745,1116.48 851.745,1099.48 850,1081.5C 847.014,1053.52 846.847,1025.52 849.5,997.5 Z"/></g>
<g><path style="opacity:0.925" fill="#fff" d="M 973.5,1706.5 C 945.833,1706.5 918.167,1706.5 890.5,1706.5C 641.256,1689.63 436.09,1586.63 275,1397.5C 211.684,1320.42 162.851,1234.59 128.5,1140C 132.92,1136.12 137.92,1133.29 143.5,1131.5C 213.869,1325.02 337.536,1474.19 514.5,1579C 682.112,1673.79 861.445,1708.12 1052.5,1682C 1249.93,1650.72 1416.1,1562.22 1551,1416.5C 1626.35,1333.21 1682.85,1238.21 1720.5,1131.5C 1726.08,1133.29 1731.08,1136.12 1735.5,1140C 1661.33,1339.82 1531.99,1492.82 1347.5,1599C 1231.02,1663.45 1106.36,1699.28 973.5,1706.5 Z M 1293.5,1361.5 C 1284.17,1367.3 1274.67,1372.97 1265,1378.5C 1265.5,1389.15 1266.33,1399.82 1267.5,1410.5C 1267.17,1411.83 1266.83,1413.17 1266.5,1414.5C 1257.09,1407.38 1247.59,1400.38 1238,1393.5C 1228.08,1399.21 1218.25,1405.04 1208.5,1411C 1227.5,1421.33 1246.5,1431.67 1265.5,1442C 1269.33,1448.5 1273.17,1455 1277,1461.5C 1285.75,1456.88 1294.25,1451.88 1302.5,1446.5C 1298.31,1440.12 1294.64,1433.45 1291.5,1426.5C 1292.59,1406.68 1293.59,1386.85 1294.5,1367C 1294.49,1364.97 1294.16,1363.13 1293.5,1361.5 Z M 600.5,1362.5 C 577.679,1378.47 554.679,1394.3 531.5,1410C 540.003,1415.08 548.336,1420.42 556.5,1426C 557.5,1426.67 558.5,1426.67 559.5,1426C 560.927,1424.2 562.76,1423.04 565,1422.5C 575.089,1428.26 584.923,1434.42 594.5,1441C 592.403,1444.16 592.403,1447.16 594.5,1450C 602.751,1455.04 610.918,1460.21 619,1465.5C 624.275,1438.18 629.442,1410.85 634.5,1383.5C 624.993,1376.84 615.326,1370.34 605.5,1364C 603.975,1362.99 602.308,1362.49 600.5,1362.5 Z M 530.5,1368.5 C 532.027,1368.43 533.027,1369.09 533.5,1370.5C 531.973,1370.57 530.973,1369.91 530.5,1368.5 Z M 1333.5,1368.5 C 1333.03,1369.91 1332.03,1370.57 1330.5,1370.5C 1330.97,1369.09 1331.97,1368.43 1333.5,1368.5 Z M 676.5,1410.5 C 664.528,1412.62 655.361,1418.95 649,1429.5C 637.894,1449.41 640.727,1466.91 657.5,1482C 668.44,1489.8 680.44,1495.47 693.5,1499C 712.172,1504.77 727.505,1500.11 739.5,1485C 729.407,1480.02 719.074,1475.52 708.5,1471.5C 704.645,1475.43 699.978,1477.76 694.5,1478.5C 679.149,1476.33 672.316,1467.67 674,1452.5C 675.794,1443.36 680.961,1437.19 689.5,1434C 706.71,1432.22 715.376,1439.88 715.5,1457C 725.514,1460.78 735.347,1464.95 745,1469.5C 746.896,1465.96 747.729,1462.12 747.5,1458C 746.472,1446.61 741.472,1437.28 732.5,1430C 715.901,1417.63 697.235,1411.13 676.5,1410.5 Z M 1188.5,1419.5 C 1175.51,1424.61 1162.18,1428.94 1148.5,1432.5C 1149.12,1449.5 1149.29,1466.5 1149,1483.5C 1139.17,1469.84 1129.84,1455.84 1121,1441.5C 1106.91,1446.53 1092.75,1451.36 1078.5,1456C 1086.86,1480.75 1095.03,1505.59 1103,1530.5C 1111.28,1527.13 1119.78,1524.46 1128.5,1522.5C 1122.78,1502.66 1116.44,1482.99 1109.5,1463.5C 1109.83,1463.17 1110.17,1462.83 1110.5,1462.5C 1122.93,1480.38 1135.6,1498.05 1148.5,1515.5C 1155.33,1513.09 1162.17,1510.75 1169,1508.5C 1169.16,1486.83 1169.16,1465.16 1169,1443.5C 1175.85,1463.06 1182.52,1482.73 1189,1502.5C 1197.6,1499.8 1206.1,1496.8 1214.5,1493.5C 1206.57,1469.54 1198.73,1445.54 1191,1421.5C 1190.58,1420.24 1189.75,1419.58 1188.5,1419.5 Z M 839.5,1538.5 C 835.609,1510.82 831.609,1483.15 827.5,1455.5C 814.911,1452.35 802.244,1449.85 789.5,1448C 772.448,1470.05 755.782,1492.38 739.5,1515C 748.982,1517.95 758.648,1520.45 768.5,1522.5C 770.663,1521.17 772.33,1519.33 773.5,1517C 774.5,1516.83 775.5,1516.67 776.5,1516.5C 787.179,1518.84 797.846,1521.17 808.5,1523.5C 808.223,1526.45 808.556,1529.28 809.5,1532C 819.446,1534.49 829.446,1536.65 839.5,1538.5 Z M 1053.5,1458.5 C 1028.34,1461.81 1003.01,1464.81 977.5,1467.5C 980.093,1493.51 982.76,1519.51 985.5,1545.5C 1014.22,1542.66 1042.89,1539.33 1071.5,1535.5C 1070.49,1529.55 1069.65,1523.55 1069,1517.5C 1068.44,1516.98 1067.77,1516.64 1067,1516.5C 1050.7,1518.72 1034.37,1520.72 1018,1522.5C 1016.24,1522.46 1014.57,1522.12 1013,1521.5C 1012.79,1518.24 1012.29,1515.08 1011.5,1512C 1025.83,1510.06 1040.16,1508.22 1054.5,1506.5C 1054.38,1500.56 1053.71,1494.73 1052.5,1489C 1038.19,1490.13 1023.86,1491.29 1009.5,1492.5C 1009.38,1489.14 1009.05,1485.81 1008.5,1482.5C 1026.19,1480.65 1043.86,1478.65 1061.5,1476.5C 1061.05,1470.47 1060.39,1464.47 1059.5,1458.5C 1057.5,1458.5 1055.5,1458.5 1053.5,1458.5 Z M 863.5,1463.5 C 861.971,1489.49 860.638,1515.49 859.5,1541.5C 882.112,1543.68 904.779,1544.52 927.5,1544C 943.797,1542.29 954.63,1533.79 960,1518.5C 965.864,1491.39 955.364,1474.55 928.5,1468C 906.9,1465.61 885.234,1464.11 863.5,1463.5 Z"/></g>
<g><path style="opacity:0.849" fill="#fff" d="M 603.5,1391.5 C 604.497,1391.47 605.164,1391.97 605.5,1393C 603.334,1401.83 601.167,1410.66 599,1419.5C 598.586,1419.96 598.086,1420.29 597.5,1420.5C 591.742,1417.56 586.409,1414.06 581.5,1410C 588.621,1403.6 595.954,1397.44 603.5,1391.5 Z"/></g>
<g><path style="opacity:0.859" fill="#fff" d="M 801.5,1473.5 C 802.222,1473.92 802.722,1474.58 803,1475.5C 804.164,1484.81 804.998,1494.14 805.5,1503.5C 798.547,1502.76 791.881,1501.1 785.5,1498.5C 791.093,1490.31 796.427,1481.97 801.5,1473.5 Z"/></g>
<g><path style="opacity:0.95" fill="#fff" d="M 892.5,1483.5 C 899.494,1484 906.494,1484.5 913.5,1485C 924.947,1486.24 930.281,1492.58 929.5,1504C 930.461,1514.78 925.794,1521.45 915.5,1524C 907.16,1524.39 898.827,1524.22 890.5,1523.5C 890.659,1510.13 891.325,1496.8 892.5,1483.5 Z"/></g>
</svg>
