<?xml version="1.0" encoding="UTF-8"?>
<!DOCTYPE svg PUBLIC "-//W3C//DTD SVG 1.1//EN" "http://www.w3.org/Graphics/SVG/1.1/DTD/svg11.dtd">
<svg xmlns="http://www.w3.org/2000/svg" version="1.1" width="3508px" height="1535px" style="shape-rendering:geometricPrecision; text-rendering:geometricPrecision; image-rendering:optimizeQuality; fill-rule:evenodd; clip-rule:evenodd" xmlns:xlink="http://www.w3.org/1999/xlink">
<g><path style="opacity:0.982" fill="#c6c6c6" d="M 2485.5,684.5 C 2547.97,635.187 2576.47,570.52 2571,490.5C 2567.95,453.845 2556.45,420.178 2536.5,389.5C 2542.35,388.833 2548.35,388.167 2554.5,387.5C 2554.38,386.893 2554.04,386.56 2553.5,386.5C 2515.15,332.969 2462.82,303.135 2396.5,297C 2357.47,293.51 2319.8,299.01 2283.5,313.5C 2322.24,286.536 2365.41,273.536 2413,274.5C 2492.19,274.255 2553.86,306.589 2598,371.5C 2601.39,376.952 2604.23,382.619 2606.5,388.5C 2600.16,388.334 2593.82,388.5 2587.5,389C 2609.9,434.615 2616.4,482.448 2607,532.5C 2592.08,603.892 2551.58,654.558 2485.5,684.5 Z"/></g>
<g><path style="opacity:0.977" fill="#c6c6c6" d="M 3018.5,380.5 C 3018.5,380.167 3018.5,379.833 3018.5,379.5C 3025.83,372.004 3032.99,364.338 3040,356.5C 3040.67,355.833 3040.67,355.167 3040,354.5C 3003.5,320.842 2960.33,301.676 2910.5,297C 2871.13,293.411 2833.13,298.911 2796.5,313.5C 2828.8,290.897 2864.8,278.064 2904.5,275C 2964.7,269.3 3018.7,284.634 3066.5,321C 3071.47,324.966 3076.13,329.299 3080.5,334C 3063.87,352.302 3046.87,370.302 3029.5,388C 3028.5,388.667 3027.5,388.667 3026.5,388C 3023.57,385.715 3020.9,383.215 3018.5,380.5 Z"/></g>
<g><path style="opacity:0.986" fill="#c6c6c6" d="M 828.5,697.5 C 827.833,697.167 827.167,696.833 826.5,696.5C 783.106,594.046 739.44,491.713 695.5,389.5C 701.679,388.833 708.012,388.167 714.5,387.5C 714.376,386.893 714.043,386.56 713.5,386.5C 702.012,358.2 690.012,330.2 677.5,302.5C 668.682,301.507 659.682,301.173 650.5,301.5C 653.01,294.137 656.01,286.971 659.5,280C 678.5,279.333 697.5,279.333 716.5,280C 732.325,315.982 747.659,352.148 762.5,388.5C 756.158,388.334 749.825,388.5 743.5,389C 787.629,491.427 831.629,593.927 875.5,696.5C 859.848,697.499 844.181,697.833 828.5,697.5 Z"/></g>
<g><path style="opacity:0.99" fill="#c6c6c6" d="M 1024.5,526.5 C 1024.5,527.167 1024.5,527.833 1024.5,528.5C 1011.53,542.974 998.698,557.64 986,572.5C 985.5,511.168 985.333,449.834 985.5,388.5C 992.09,388.811 998.59,388.478 1005,387.5C 1005.83,358.997 1005.66,330.664 1004.5,302.5C 991.01,301.504 977.344,301.171 963.5,301.5C 963.5,294.167 963.5,286.833 963.5,279.5C 990.5,279.5 1017.5,279.5 1044.5,279.5C 1044.5,315.833 1044.5,352.167 1044.5,388.5C 1037.83,388.5 1031.17,388.5 1024.5,388.5C 1024.5,434.5 1024.5,480.5 1024.5,526.5 Z"/></g>
<g><path style="opacity:0.986" fill="#c6c6c6" d="M 1274.5,697.5 C 1274.5,594.5 1274.5,491.5 1274.5,388.5C 1280.83,388.5 1287.17,388.5 1293.5,388.5C 1293.5,359.833 1293.5,331.167 1293.5,302.5C 1281.68,301.505 1269.68,301.172 1257.5,301.5C 1263.37,294.272 1269.37,287.105 1275.5,280C 1294.5,279.5 1313.5,279.333 1332.5,279.5C 1332.5,315.833 1332.5,352.167 1332.5,388.5C 1326.17,388.5 1319.83,388.5 1313.5,388.5C 1313.5,491.5 1313.5,594.5 1313.5,697.5C 1300.5,697.5 1287.5,697.5 1274.5,697.5 Z"/></g>
<g><path style="opacity:0.986" fill="#c6c6c6" d="M 1748.5,697.5 C 1747.83,696.833 1747.17,696.167 1746.5,695.5C 1702.64,593.249 1658.97,490.915 1615.5,388.5C 1621.87,388.83 1628.2,388.496 1634.5,387.5C 1634.38,386.893 1634.04,386.56 1633.5,386.5C 1622.01,358.2 1610.01,330.2 1597.5,302.5C 1588.68,301.507 1579.68,301.173 1570.5,301.5C 1573.36,294.282 1576.36,287.115 1579.5,280C 1598.74,279.174 1617.91,279.341 1637,280.5C 1652.5,316.35 1668,352.184 1683.5,388C 1676.83,388.333 1670.17,388.667 1663.5,389C 1707.99,491.647 1751.99,594.481 1795.5,697.5C 1779.83,697.5 1764.17,697.5 1748.5,697.5 Z"/></g>
<g><path style="opacity:0.986" fill="#c6c6c6" d="M 2092.5,697.5 C 2092.5,680.833 2092.5,664.167 2092.5,647.5C 2033.93,647.831 1975.43,647.498 1917,646.5C 1916.5,560.501 1916.33,474.501 1916.5,388.5C 1923.17,388.5 1929.83,388.5 1936.5,388.5C 1936.5,359.833 1936.5,331.167 1936.5,302.5C 1922.68,301.504 1908.68,301.171 1894.5,301.5C 1894.5,294.167 1894.5,286.833 1894.5,279.5C 1921.5,279.5 1948.5,279.5 1975.5,279.5C 1975.5,315.833 1975.5,352.167 1975.5,388.5C 1969.17,388.5 1962.83,388.5 1956.5,388.5C 1956.5,467.5 1956.5,546.5 1956.5,625.5C 2014.83,625.5 2073.17,625.5 2131.5,625.5C 2131.5,649.5 2131.5,673.5 2131.5,697.5C 2118.5,697.5 2105.5,697.5 2092.5,697.5 Z"/></g>
<g><path style="opacity:0.999" fill="#fefefe" d="M 2553.5,386.5 C 2547.65,387.167 2541.65,387.833 2535.5,388.5C 2535.62,389.107 2535.96,389.44 2536.5,389.5C 2556.45,420.178 2567.95,453.845 2571,490.5C 2576.47,570.52 2547.97,635.187 2485.5,684.5C 2484.71,685.401 2483.71,686.068 2482.5,686.5C 2418.42,710.524 2355.08,708.691 2292.5,681C 2225.05,645.482 2186.55,589.649 2177,513.5C 2172.23,469.595 2179.73,427.928 2199.5,388.5C 2206.14,387.669 2212.81,387.169 2219.5,387C 2232.22,363.606 2248.55,342.939 2268.5,325C 2273.27,321.96 2277.6,318.46 2281.5,314.5C 2282.17,314.167 2282.83,313.833 2283.5,313.5C 2319.8,299.01 2357.47,293.51 2396.5,297C 2462.82,303.135 2515.15,332.969 2553.5,386.5 Z M 2439.5,622.5 C 2438.83,622.833 2438.17,623.167 2437.5,623.5C 2383.53,639.812 2336.37,628.479 2296,589.5C 2260.05,547.803 2249.05,500.136 2263,446.5C 2269.47,424.549 2280.3,405.216 2295.5,388.5C 2297.83,388.5 2300.17,388.5 2302.5,388.5C 2306.85,388.666 2311.18,388.499 2315.5,388C 2320.36,383.968 2325.03,379.801 2329.5,375.5C 2330.49,375.672 2331.16,375.338 2331.5,374.5C 2370.64,362.705 2407.97,366.872 2443.5,387C 2437.8,387.17 2432.14,387.67 2426.5,388.5C 2468.57,417.956 2490.24,458.623 2491.5,510.5C 2490.29,555.579 2472.95,592.912 2439.5,622.5 Z"/></g>
<g><path style="opacity:0.999" fill="#fefefe" d="M 3018.5,379.5 C 2969.35,341.643 2916.69,336.143 2860.5,363C 2853.91,366.45 2847.91,370.616 2842.5,375.5C 2842.17,375.5 2841.83,375.5 2841.5,375.5C 2832.24,378.798 2823.57,383.132 2815.5,388.5C 2812.83,388.5 2810.17,388.5 2807.5,388.5C 2802.37,388.112 2797.37,388.612 2792.5,390C 2745.82,424.223 2725.32,470.39 2731,528.5C 2739.16,583.971 2768.99,622.471 2820.5,644C 2871.72,661.019 2919.06,653.852 2962.5,622.5C 2962.5,621.833 2962.83,621.5 2963.5,621.5C 2977.92,616.375 2991.09,609.041 3003,599.5C 3003.5,569.502 3003.67,539.502 3003.5,509.5C 2967.83,509.5 2932.17,509.5 2896.5,509.5C 2896.5,492.833 2896.5,476.167 2896.5,459.5C 2946.17,459.5 2995.83,459.5 3045.5,459.5C 3045.67,521.501 3045.5,583.501 3045,645.5C 3032.9,659.435 3019.73,672.102 3005.5,683.5C 3004.71,684.401 3003.71,685.068 3002.5,685.5C 2949.44,705.607 2895.44,708.441 2840.5,694C 2755.76,666.255 2705.59,608.422 2690,520.5C 2683.78,474.247 2690.95,430.247 2711.5,388.5C 2718.14,387.669 2724.81,387.169 2731.5,387C 2747.34,358.325 2768.34,334.158 2794.5,314.5C 2795.17,314.167 2795.83,313.833 2796.5,313.5C 2833.13,298.911 2871.13,293.411 2910.5,297C 2960.33,301.676 3003.5,320.842 3040,354.5C 3040.67,355.167 3040.67,355.833 3040,356.5C 3032.99,364.338 3025.83,372.004 3018.5,379.5 Z"/></g>
<g><path style="opacity:0.981" fill="#ededed" d="M 650.5,301.5 C 659.682,301.173 668.682,301.507 677.5,302.5C 668.143,302.168 658.81,302.502 649.5,303.5C 637.667,331.167 625.833,358.833 614,386.5C 607.222,387.15 600.389,387.817 593.5,388.5C 549.5,491.167 505.5,593.833 461.5,696.5C 479.898,697.819 498.231,697.819 516.5,696.5C 516.5,696.833 516.5,697.167 516.5,697.5C 513.406,704.28 510.406,711.113 507.5,718C 479.161,718.833 450.827,718.667 422.5,717.5C 469.695,607.915 516.695,498.249 563.5,388.5C 570.389,387.817 577.222,387.15 584,386.5C 596,358.5 608,330.5 620,302.5C 630.084,301.514 640.251,301.181 650.5,301.5 Z"/></g>
<g><path style="opacity:0.982" fill="#ededed" d="M 963.5,301.5 C 977.344,301.171 991.01,301.504 1004.5,302.5C 990.833,302.5 977.167,302.5 963.5,302.5C 963.5,330.833 963.5,359.167 963.5,387.5C 956.833,387.5 950.167,387.5 943.5,387.5C 943.5,490.833 943.5,594.167 943.5,697.5C 955.913,697.813 968.247,697.479 980.5,696.5C 980.5,696.833 980.5,697.167 980.5,697.5C 974.856,704.147 969.189,710.814 963.5,717.5C 943.845,718.5 924.178,718.833 904.5,718.5C 904.5,608.167 904.5,497.833 904.5,387.5C 911.167,387.5 917.833,387.5 924.5,387.5C 924.5,358.833 924.5,330.167 924.5,301.5C 937.5,301.5 950.5,301.5 963.5,301.5 Z"/></g>
<g><path style="opacity:0.963" fill="#ededed" d="M 1257.5,301.5 C 1269.68,301.172 1281.68,301.505 1293.5,302.5C 1281.16,302.333 1268.83,302.5 1256.5,303C 1232.5,331 1208.5,359 1184.5,387C 1177.51,387.5 1170.51,387.666 1163.5,387.5C 1187.62,358.872 1211.96,330.372 1236.5,302C 1243.49,301.5 1250.49,301.334 1257.5,301.5 Z"/></g>
<g><path style="opacity:0.981" fill="#ededed" d="M 1570.5,301.5 C 1579.68,301.173 1588.68,301.507 1597.5,302.5C 1588.14,302.168 1578.81,302.502 1569.5,303.5C 1557.67,331.167 1545.83,358.833 1534,386.5C 1527.22,387.15 1520.39,387.817 1513.5,388.5C 1469.5,491.167 1425.5,593.833 1381.5,696.5C 1399.9,697.819 1418.23,697.819 1436.5,696.5C 1436.5,696.833 1436.5,697.167 1436.5,697.5C 1433.79,704.446 1430.79,711.279 1427.5,718C 1399.16,718.833 1370.83,718.667 1342.5,717.5C 1390.07,607.7 1437.07,497.7 1483.5,387.5C 1490.42,387.812 1497.26,387.479 1504,386.5C 1516.04,358.26 1528.2,330.093 1540.5,302C 1550.49,301.5 1560.49,301.334 1570.5,301.5 Z"/></g>
<g><path style="opacity:0.997" fill="#ededed" d="M 1894.5,301.5 C 1908.68,301.171 1922.68,301.504 1936.5,302.5C 1922.5,302.5 1908.5,302.5 1894.5,302.5C 1894.5,330.833 1894.5,359.167 1894.5,387.5C 1888.17,387.5 1881.83,387.5 1875.5,387.5C 1875.5,490.833 1875.5,594.167 1875.5,697.5C 1947.83,697.5 2020.17,697.5 2092.5,697.5C 2092.5,704.5 2092.5,711.5 2092.5,718.5C 2007.17,718.5 1921.83,718.5 1836.5,718.5C 1836.5,608.167 1836.5,497.833 1836.5,387.5C 1842.83,387.5 1849.17,387.5 1855.5,387.5C 1855.5,358.833 1855.5,330.167 1855.5,301.5C 1868.5,301.5 1881.5,301.5 1894.5,301.5 Z"/></g>
<g><path style="opacity:0.999" fill="#fefefe" d="M 677.5,302.5 C 690.012,330.2 702.012,358.2 713.5,386.5C 707.321,387.167 700.988,387.833 694.5,388.5C 694.624,389.107 694.957,389.44 695.5,389.5C 739.44,491.713 783.106,594.046 826.5,696.5C 814.66,697.825 802.66,697.825 790.5,696.5C 750,601.5 709.5,506.5 669,411.5C 661.075,429.679 652.908,447.679 644.5,465.5C 639.681,454.526 634.848,443.526 630,432.5C 591.877,520.367 554.044,608.367 516.5,696.5C 498.231,697.819 479.898,697.819 461.5,696.5C 505.5,593.833 549.5,491.167 593.5,388.5C 600.389,387.817 607.222,387.15 614,386.5C 625.833,358.833 637.667,331.167 649.5,303.5C 658.81,302.502 668.143,302.168 677.5,302.5 Z"/></g>
<g><path style="opacity:0.999" fill="#fefefe" d="M 1004.5,302.5 C 1005.66,330.664 1005.83,358.997 1005,387.5C 998.59,388.478 992.09,388.811 985.5,388.5C 985.333,449.834 985.5,511.168 986,572.5C 998.698,557.64 1011.53,542.974 1024.5,528.5C 1024.33,535.841 1024.5,543.174 1025,550.5C 1071.4,496.275 1117.57,441.941 1163.5,387.5C 1170.51,387.666 1177.51,387.5 1184.5,387C 1208.5,359 1232.5,331 1256.5,303C 1268.83,302.5 1281.16,302.333 1293.5,302.5C 1293.5,331.167 1293.5,359.833 1293.5,388.5C 1287.17,388.5 1280.83,388.5 1274.5,388.5C 1273.5,491.332 1273.17,594.332 1273.5,697.5C 1259.83,697.5 1246.17,697.5 1232.5,697.5C 1232.67,607.166 1232.5,516.833 1232,426.5C 1219.67,441.167 1207.33,455.833 1195,470.5C 1194.83,462.812 1194.33,455.145 1193.5,447.5C 1192.89,447.624 1192.56,447.957 1192.5,448.5C 1122.21,531.461 1051.54,614.128 980.5,696.5C 968.247,697.479 955.913,697.813 943.5,697.5C 943.5,594.167 943.5,490.833 943.5,387.5C 950.167,387.5 956.833,387.5 963.5,387.5C 963.5,359.167 963.5,330.833 963.5,302.5C 977.167,302.5 990.833,302.5 1004.5,302.5 Z"/></g>
<g><path style="opacity:0.999" fill="#fefefe" d="M 1597.5,302.5 C 1610.01,330.2 1622.01,358.2 1633.5,386.5C 1627.5,387.167 1621.5,387.833 1615.5,388.5C 1658.97,490.915 1702.64,593.249 1746.5,695.5C 1734.88,697.479 1722.88,698.146 1710.5,697.5C 1670.29,602.083 1629.79,506.75 1589,411.5C 1581.06,429.709 1572.89,447.709 1564.5,465.5C 1559.96,454.371 1555.12,443.371 1550,432.5C 1511.88,520.405 1474.05,608.405 1436.5,696.5C 1418.23,697.819 1399.9,697.819 1381.5,696.5C 1425.5,593.833 1469.5,491.167 1513.5,388.5C 1520.39,387.817 1527.22,387.15 1534,386.5C 1545.83,358.833 1557.67,331.167 1569.5,303.5C 1578.81,302.502 1588.14,302.168 1597.5,302.5 Z"/></g>
<g><path style="opacity:0.998" fill="#fefefe" d="M 1936.5,302.5 C 1936.5,331.167 1936.5,359.833 1936.5,388.5C 1929.83,388.5 1923.17,388.5 1916.5,388.5C 1916.33,474.501 1916.5,560.501 1917,646.5C 1975.43,647.498 2033.93,647.831 2092.5,647.5C 2092.5,664.167 2092.5,680.833 2092.5,697.5C 2020.17,697.5 1947.83,697.5 1875.5,697.5C 1875.5,594.167 1875.5,490.833 1875.5,387.5C 1881.83,387.5 1888.17,387.5 1894.5,387.5C 1894.5,359.167 1894.5,330.833 1894.5,302.5C 1908.5,302.5 1922.5,302.5 1936.5,302.5 Z"/></g>
<g><path style="opacity:0.983" fill="#ededed" d="M 2281.5,314.5 C 2277.6,318.46 2273.27,321.96 2268.5,325C 2248.55,342.939 2232.22,363.606 2219.5,387C 2212.81,387.169 2206.14,387.669 2199.5,388.5C 2179.73,427.928 2172.23,469.595 2177,513.5C 2186.55,589.649 2225.05,645.482 2292.5,681C 2355.08,708.691 2418.42,710.524 2482.5,686.5C 2437.12,716.511 2387.12,729.011 2332.5,724C 2249.82,715.606 2190.66,674.106 2155,599.5C 2133.01,544.742 2131.34,489.408 2150,433.5C 2155.87,417.251 2163.71,402.084 2173.5,388C 2180.17,387.667 2186.83,387.333 2193.5,387C 2215.78,354.211 2245.12,330.044 2281.5,314.5 Z"/></g>
<g><path style="opacity:0.982" fill="#ededed" d="M 2794.5,314.5 C 2768.34,334.158 2747.34,358.325 2731.5,387C 2724.81,387.169 2718.14,387.669 2711.5,388.5C 2690.95,430.247 2683.78,474.247 2690,520.5C 2705.59,608.422 2755.76,666.255 2840.5,694C 2895.44,708.441 2949.44,705.607 3002.5,685.5C 2955.87,716.157 2904.54,728.99 2848.5,724C 2771.01,717.04 2712.85,680.207 2674,613.5C 2648.55,562.418 2642.55,509.085 2656,453.5C 2662.2,429.939 2672.03,408.105 2685.5,388C 2692.17,387.667 2698.83,387.333 2705.5,387C 2728.43,354.571 2758.1,330.404 2794.5,314.5 Z"/></g>
<g><path style="opacity:0.984" fill="#ededed" d="M 2439.5,622.5 C 2472.95,592.912 2490.29,555.579 2491.5,510.5C 2490.24,458.623 2468.57,417.956 2426.5,388.5C 2432.14,387.67 2437.8,387.17 2443.5,387C 2407.97,366.872 2370.64,362.705 2331.5,374.5C 2350.7,359.078 2372.7,349.912 2397.5,347C 2441.22,342.904 2478.56,356.238 2509.5,387C 2503.47,387.17 2497.47,387.67 2491.5,388.5C 2527.88,431.361 2538.38,480.027 2523,534.5C 2509.3,577.367 2481.46,606.7 2439.5,622.5 Z"/></g>
<g><path style="opacity:0.975" fill="#ededed" d="M 3018.5,379.5 C 3018.5,379.833 3018.5,380.167 3018.5,380.5C 3016.13,383.874 3013.13,386.541 3009.5,388.5C 3008.83,387.167 3008.17,387.167 3007.5,388.5C 3001.82,388.334 2996.16,388.501 2990.5,389C 2984.02,396.65 2977.02,403.817 2969.5,410.5C 2960.26,402.427 2950.6,394.927 2940.5,388C 2946.17,387.667 2951.83,387.333 2957.5,387C 2920.87,366.4 2882.54,362.566 2842.5,375.5C 2847.91,370.616 2853.91,366.45 2860.5,363C 2916.69,336.143 2969.35,341.643 3018.5,379.5 Z"/></g>
<g><path style="opacity:0.879" fill="#c7c7c7" d="M 2329.5,375.5 C 2325.03,379.801 2320.36,383.968 2315.5,388C 2311.18,388.499 2306.85,388.666 2302.5,388.5C 2310.8,382.851 2319.8,378.517 2329.5,375.5 Z"/></g>
<g><path style="opacity:0.885" fill="#c7c7c7" d="M 2841.5,375.5 C 2837.06,379.436 2832.73,383.602 2828.5,388C 2824.18,388.499 2819.85,388.666 2815.5,388.5C 2823.57,383.132 2832.24,378.798 2841.5,375.5 Z"/></g>
<g><path style="opacity:0.878" fill="#efefef" d="M 713.5,386.5 C 714.043,386.56 714.376,386.893 714.5,387.5C 708.012,388.167 701.679,388.833 695.5,389.5C 694.957,389.44 694.624,389.107 694.5,388.5C 700.988,387.833 707.321,387.167 713.5,386.5 Z"/></g>
<g><path style="opacity:0.966" fill="#ededed" d="M 1163.5,387.5 C 1117.57,441.941 1071.4,496.275 1025,550.5C 1024.5,543.174 1024.33,535.841 1024.5,528.5C 1024.5,527.833 1024.5,527.167 1024.5,526.5C 1064.27,480.498 1103.93,434.331 1143.5,388C 1150.16,387.5 1156.83,387.334 1163.5,387.5 Z"/></g>
<g><path style="opacity:0.878" fill="#efefef" d="M 1633.5,386.5 C 1634.04,386.56 1634.38,386.893 1634.5,387.5C 1628.2,388.496 1621.87,388.83 1615.5,388.5C 1621.5,387.833 1627.5,387.167 1633.5,386.5 Z"/></g>
<g><path style="opacity:0.88" fill="#efefef" d="M 2553.5,386.5 C 2554.04,386.56 2554.38,386.893 2554.5,387.5C 2548.35,388.167 2542.35,388.833 2536.5,389.5C 2535.96,389.44 2535.62,389.107 2535.5,388.5C 2541.65,387.833 2547.65,387.167 2553.5,386.5 Z"/></g>
<g><path style="opacity:0.985" fill="#c6c6c6" d="M 2295.5,388.5 C 2280.3,405.216 2269.47,424.549 2263,446.5C 2249.05,500.136 2260.05,547.803 2296,589.5C 2336.37,628.479 2383.53,639.812 2437.5,623.5C 2421.88,636.809 2403.88,645.642 2383.5,650C 2322.58,660.156 2274.74,639.989 2240,589.5C 2212.56,541.207 2210.56,491.873 2234,441.5C 2244.88,420.618 2260.04,403.451 2279.5,390C 2284.71,388.603 2290.04,388.103 2295.5,388.5 Z"/></g>
<g><path style="opacity:0.985" fill="#c6c6c6" d="M 2807.5,388.5 C 2769.26,434.258 2759.76,485.591 2779,542.5C 2804.37,599.534 2848.37,628.868 2911,630.5C 2928.64,630.809 2945.81,628.143 2962.5,622.5C 2919.06,653.852 2871.72,661.019 2820.5,644C 2768.99,622.471 2739.16,583.971 2731,528.5C 2725.32,470.39 2745.82,424.223 2792.5,390C 2797.37,388.612 2802.37,388.112 2807.5,388.5 Z"/></g>
<g><path style="opacity:0.094" fill="#cacaca" d="M 3009.5,388.5 C 3008.83,389.833 3008.17,389.833 3007.5,388.5C 3008.17,387.167 3008.83,387.167 3009.5,388.5 Z"/></g>
<g><path style="opacity:0.99" fill="#ededed" d="M 826.5,696.5 C 827.167,696.833 827.833,697.167 828.5,697.5C 831.451,704.4 834.118,711.4 836.5,718.5C 808.159,718.833 779.825,718.5 751.5,717.5C 716.057,634.294 680.391,551.294 644.5,468.5C 644.5,467.5 644.5,466.5 644.5,465.5C 652.908,447.679 661.075,429.679 669,411.5C 709.5,506.5 750,601.5 790.5,696.5C 802.66,697.825 814.66,697.825 826.5,696.5 Z"/></g>
<g><path style="opacity:0.99" fill="#ededed" d="M 1746.5,695.5 C 1747.17,696.167 1747.83,696.833 1748.5,697.5C 1751.08,704.503 1754.08,711.336 1757.5,718C 1728.83,718.833 1700.16,718.667 1671.5,717.5C 1636.06,634.294 1600.39,551.294 1564.5,468.5C 1564.5,467.5 1564.5,466.5 1564.5,465.5C 1572.89,447.709 1581.06,429.709 1589,411.5C 1629.79,506.75 1670.29,602.083 1710.5,697.5C 1722.88,698.146 1734.88,697.479 1746.5,695.5 Z"/></g>
<g><path style="opacity:0.994" fill="#ededed" d="M 1274.5,388.5 C 1274.5,491.5 1274.5,594.5 1274.5,697.5C 1274.5,704.5 1274.5,711.5 1274.5,718.5C 1247.5,718.5 1220.5,718.5 1193.5,718.5C 1193.5,636.5 1193.5,554.5 1193.5,472.5C 1193.83,464.316 1193.49,456.316 1192.5,448.5C 1192.56,447.957 1192.89,447.624 1193.5,447.5C 1194.33,455.145 1194.83,462.812 1195,470.5C 1207.33,455.833 1219.67,441.167 1232,426.5C 1232.5,516.833 1232.67,607.166 1232.5,697.5C 1246.17,697.5 1259.83,697.5 1273.5,697.5C 1273.17,594.332 1273.5,491.332 1274.5,388.5 Z"/></g>
<g><path style="opacity:0.981" fill="#c6c6c6" d="M 644.5,465.5 C 644.5,466.5 644.5,467.5 644.5,468.5C 611.646,544.389 578.979,620.389 546.5,696.5C 536.522,697.499 526.522,697.832 516.5,697.5C 516.5,697.167 516.5,696.833 516.5,696.5C 554.044,608.367 591.877,520.367 630,432.5C 634.848,443.526 639.681,454.526 644.5,465.5 Z"/></g>
<g><path style="opacity:0.981" fill="#c6c6c6" d="M 1564.5,465.5 C 1564.5,466.5 1564.5,467.5 1564.5,468.5C 1531.85,544.474 1499.18,620.474 1466.5,696.5C 1456.52,697.499 1446.52,697.832 1436.5,697.5C 1436.5,697.167 1436.5,696.833 1436.5,696.5C 1474.05,608.405 1511.88,520.405 1550,432.5C 1555.12,443.371 1559.96,454.371 1564.5,465.5 Z"/></g>
<g><path style="opacity:0.98" fill="#c6c6c6" d="M 3005.5,683.5 C 3019.73,672.102 3032.9,659.435 3045,645.5C 3045.5,583.501 3045.67,521.501 3045.5,459.5C 2995.83,459.5 2946.17,459.5 2896.5,459.5C 2896.5,452.167 2896.5,444.833 2896.5,437.5C 2959.17,437.5 3021.83,437.5 3084.5,437.5C 3084.67,499.834 3084.5,562.168 3084,624.5C 3062.82,650.837 3036.65,670.504 3005.5,683.5 Z"/></g>
<g><path style="opacity:0.966" fill="#c6c6c6" d="M 1192.5,448.5 C 1193.49,456.316 1193.83,464.316 1193.5,472.5C 1129.74,547.436 1065.74,622.269 1001.5,697C 994.508,697.5 987.508,697.666 980.5,697.5C 980.5,697.167 980.5,696.833 980.5,696.5C 1051.54,614.128 1122.21,531.461 1192.5,448.5 Z"/></g>
<g><path style="opacity:0.992" fill="#ededed" d="M 2896.5,459.5 C 2896.5,476.167 2896.5,492.833 2896.5,509.5C 2932.17,509.5 2967.83,509.5 3003.5,509.5C 3003.67,539.502 3003.5,569.502 3003,599.5C 2991.09,609.041 2977.92,616.375 2963.5,621.5C 2964.49,591.574 2964.83,561.574 2964.5,531.5C 2928.83,531.5 2893.17,531.5 2857.5,531.5C 2857.5,507.5 2857.5,483.5 2857.5,459.5C 2870.5,459.5 2883.5,459.5 2896.5,459.5 Z"/></g>
<g><path style="opacity:0.974" fill="#c6c6c6" d="M 1594.5,898.5 C 1594.5,898.167 1594.5,897.833 1594.5,897.5C 1600.28,888.548 1606.28,879.714 1612.5,871C 1569.71,839.3 1521.71,826.633 1468.5,833C 1456.9,834.9 1445.57,837.733 1434.5,841.5C 1463.09,819.584 1495.59,808.917 1532,809.5C 1574.84,809.245 1613.67,821.411 1648.5,846C 1649.9,847.062 1650.9,848.395 1651.5,850C 1637.85,869.656 1624.18,889.323 1610.5,909C 1609.83,909.667 1609.17,909.667 1608.5,909C 1604.24,904.898 1599.57,901.398 1594.5,898.5 Z"/></g>
<g><path style="opacity:0.983" fill="#c6c6c6" d="M 2247.5,1190.5 C 2297.76,1128.72 2312.59,1059.05 2292,981.5C 2262.39,895.081 2202.22,845.581 2111.5,833C 2071.19,828.58 2032.19,833.747 1994.5,848.5C 2027.97,825.064 2065.3,812.231 2106.5,810C 2177.69,805.275 2237.86,828.442 2287,879.5C 2331.39,933.056 2348.06,994.39 2337,1063.5C 2327.91,1114.54 2303.74,1156.71 2264.5,1190C 2258.84,1190.5 2253.18,1190.67 2247.5,1190.5 Z"/></g>
<g><path style="opacity:0.988" fill="#c6c6c6" d="M 932.5,1060.5 C 932.5,1061.5 932.5,1062.5 932.5,1063.5C 924.517,1082.43 916.517,1101.43 908.5,1120.5C 870.239,1026.38 832.572,932.046 795.5,837.5C 783.5,837.5 771.5,837.5 759.5,837.5C 758.833,837.5 758.5,837.167 758.5,836.5C 755.849,829.859 753.182,823.192 750.5,816.5C 778.5,815.167 806.5,815.167 834.5,816.5C 866.998,898.013 899.664,979.346 932.5,1060.5 Z"/></g>
<g><path style="opacity:0.981" fill="#c6c6c6" d="M 919.5,1232.5 C 919.5,1232.17 919.5,1231.83 919.5,1231.5C 925.022,1217.62 930.689,1203.79 936.5,1190C 945.926,1190.13 955.092,1189.29 964,1187.5C 1010.98,1070.9 1058.14,954.403 1105.5,838C 1087.84,837.5 1070.17,837.333 1052.5,837.5C 1052.5,837.167 1052.5,836.833 1052.5,836.5C 1055.15,829.859 1057.82,823.192 1060.5,816.5C 1088.49,815.5 1116.49,815.167 1144.5,815.5C 1094.63,940.248 1044.46,1064.91 994,1189.5C 984.893,1190.15 975.726,1190.82 966.5,1191.5C 961.122,1205.14 955.455,1218.64 949.5,1232C 939.506,1232.5 929.506,1232.67 919.5,1232.5 Z"/></g>
<g><path style="opacity:0.996" fill="#c6c6c6" d="M 1234.5,1232.5 C 1234.5,1218.5 1234.5,1204.5 1234.5,1190.5C 1243.5,1190.5 1252.5,1190.5 1261.5,1190.5C 1261.83,1072.67 1261.5,954.999 1260.5,837.5C 1246.68,836.504 1232.68,836.171 1218.5,836.5C 1218.5,829.5 1218.5,822.5 1218.5,815.5C 1245.5,815.5 1272.5,815.5 1299.5,815.5C 1299.5,940.5 1299.5,1065.5 1299.5,1190.5C 1290.83,1190.5 1282.17,1190.5 1273.5,1190.5C 1273.5,1204.5 1273.5,1218.5 1273.5,1232.5C 1260.5,1232.5 1247.5,1232.5 1234.5,1232.5 Z"/></g>
<g><path style="opacity:0.98" fill="#c6c6c6" d="M 1753.5,1232.5 C 1753.5,1218.17 1753.5,1203.83 1753.5,1189.5C 1762.17,1189.5 1770.83,1189.5 1779.5,1189.5C 1779.5,1072.17 1779.5,954.833 1779.5,837.5C 1765.83,837.5 1752.17,837.5 1738.5,837.5C 1737.83,837.5 1737.5,837.167 1737.5,836.5C 1737.5,829.5 1737.5,822.5 1737.5,815.5C 1764.83,815.5 1792.17,815.5 1819.5,815.5C 1819.5,940.5 1819.5,1065.5 1819.5,1190.5C 1810.5,1190.5 1801.5,1190.5 1792.5,1190.5C 1792.5,1204.5 1792.5,1218.5 1792.5,1232.5C 1779.5,1232.5 1766.5,1232.5 1753.5,1232.5 Z"/></g>
<g><path style="opacity:0.992" fill="#c6c6c6" d="M 2506.5,1061.5 C 2506.44,1062.61 2506.11,1063.61 2505.5,1064.5C 2492.78,1078.91 2480.28,1093.58 2468,1108.5C 2467.5,1018.17 2467.33,927.834 2467.5,837.5C 2453.5,837.5 2439.5,837.5 2425.5,837.5C 2425.5,837.167 2425.5,836.833 2425.5,836.5C 2425.5,829.5 2425.5,822.5 2425.5,815.5C 2452.5,815.5 2479.5,815.5 2506.5,815.5C 2506.5,897.5 2506.5,979.5 2506.5,1061.5 Z"/></g>
<g><path style="opacity:0.98" fill="#c6c6c6" d="M 2729.5,1232.5 C 2729.5,1218.17 2729.5,1203.83 2729.5,1189.5C 2738.17,1189.5 2746.83,1189.5 2755.5,1189.5C 2755.5,1072.17 2755.5,954.833 2755.5,837.5C 2743.5,837.5 2731.5,837.5 2719.5,837.5C 2719.5,837.167 2719.5,836.833 2719.5,836.5C 2725.26,829.564 2731.26,822.73 2737.5,816C 2756.83,815.5 2776.16,815.333 2795.5,815.5C 2795.5,940.5 2795.5,1065.5 2795.5,1190.5C 2786.5,1190.5 2777.5,1190.5 2768.5,1190.5C 2768.5,1204.5 2768.5,1218.5 2768.5,1232.5C 2755.5,1232.5 2742.5,1232.5 2729.5,1232.5 Z"/></g>
<g><path style="opacity:0.999" fill="#fefefe" d="M 1594.5,897.5 C 1564.44,880.228 1533.1,877.394 1500.5,889C 1495.9,891.27 1491.57,893.937 1487.5,897C 1484.88,899.106 1482.88,901.606 1481.5,904.5C 1467.09,906.625 1454.59,912.625 1444,922.5C 1429.65,942.654 1431.81,960.82 1450.5,977C 1454.9,980.394 1459.56,983.394 1464.5,986C 1487.92,996.585 1511.59,1006.58 1535.5,1016C 1561.56,1026.4 1584.06,1041.9 1603,1062.5C 1623.81,1090.53 1631.14,1121.86 1625,1156.5C 1622.46,1168.3 1618.62,1179.63 1613.5,1190.5C 1612.5,1190.5 1611.5,1190.5 1610.5,1190.5C 1602.68,1189.34 1594.68,1189.18 1586.5,1190C 1577.82,1204.51 1567.16,1217.34 1554.5,1228.5C 1553.83,1228.83 1553.17,1229.17 1552.5,1229.5C 1505.49,1243.72 1459.49,1240.89 1414.5,1221C 1396,1212.93 1379,1202.59 1363.5,1190C 1371.83,1189.67 1380.17,1189.33 1388.5,1189C 1383.5,1184.67 1378.5,1180.33 1373.5,1176C 1381.2,1168.64 1388.53,1160.97 1395.5,1153C 1396.09,1152.54 1396.76,1152.37 1397.5,1152.5C 1425.13,1177.88 1457.8,1189.71 1495.5,1188C 1511.54,1186.06 1525.04,1179.23 1536,1167.5C 1536.46,1166.91 1536.63,1166.24 1536.5,1165.5C 1566.12,1161.21 1582.45,1144.21 1585.5,1114.5C 1584.51,1098.69 1577.84,1085.86 1565.5,1076C 1560,1072.08 1554.34,1068.42 1548.5,1065C 1523.4,1053.78 1498.06,1043.12 1472.5,1033C 1447.47,1022.58 1426.64,1006.75 1410,985.5C 1387.03,947.086 1386.7,908.419 1409,869.5C 1415.98,859.69 1423.81,850.69 1432.5,842.5C 1432.84,841.662 1433.51,841.328 1434.5,841.5C 1445.57,837.733 1456.9,834.9 1468.5,833C 1521.71,826.633 1569.71,839.3 1612.5,871C 1606.28,879.714 1600.28,888.548 1594.5,897.5 Z"/></g>
<g><path style="opacity:0.999" fill="#fefefe" d="M 2247.5,1190.5 C 2243.83,1190.5 2240.17,1190.5 2236.5,1190.5C 2231.35,1189.35 2226.02,1189.18 2220.5,1190C 2210.16,1201.51 2198.83,1211.68 2186.5,1220.5C 2185.71,1221.4 2184.71,1222.07 2183.5,1222.5C 2133.31,1240.89 2082.31,1243.39 2030.5,1230C 2002.26,1221.88 1976.92,1208.55 1954.5,1190C 1962.83,1189.67 1971.17,1189.33 1979.5,1189C 1936.71,1151.6 1912.21,1104.43 1906,1047.5C 1899.56,966.573 1927.72,900.906 1990.5,850.5C 1991.51,849.326 1992.85,848.66 1994.5,848.5C 2032.19,833.747 2071.19,828.58 2111.5,833C 2202.22,845.581 2262.39,895.081 2292,981.5C 2312.59,1059.05 2297.76,1128.72 2247.5,1190.5 Z M 2168.5,1158.5 C 2167.51,1158.33 2166.84,1158.66 2166.5,1159.5C 2107.23,1176.24 2057.39,1161.57 2017,1115.5C 1985.05,1070.92 1978.05,1022.59 1996,970.5C 2005,947.02 2019.16,927.353 2038.5,911.5C 2039.17,911.167 2039.83,910.833 2040.5,910.5C 2097.86,894.047 2146.7,907.714 2187,951.5C 2221.11,996.933 2228.78,1046.6 2210,1100.5C 2200.57,1123.08 2186.73,1142.41 2168.5,1158.5 Z"/></g>
<g><path style="opacity:0.985" fill="#ededed" d="M 758.5,836.5 C 758.5,837.167 758.833,837.5 759.5,837.5C 806.538,954.78 853.871,1071.95 901.5,1189C 892.84,1189.5 884.173,1189.67 875.5,1189.5C 880.833,1203.83 886.167,1218.17 891.5,1232.5C 900.917,1232.81 910.25,1232.47 919.5,1231.5C 919.5,1231.83 919.5,1232.17 919.5,1232.5C 916.633,1239.77 913.966,1247.1 911.5,1254.5C 892.164,1254.67 872.83,1254.5 853.5,1254C 844.704,1232.91 836.037,1211.74 827.5,1190.5C 836.167,1189.83 844.833,1189.17 853.5,1188.5C 806.167,1071.5 758.833,954.5 711.5,837.5C 727.152,836.501 742.819,836.167 758.5,836.5 Z"/></g>
<g><path style="opacity:0.981" fill="#ededed" d="M 1052.5,836.5 C 1052.5,836.833 1052.5,837.167 1052.5,837.5C 1017.82,924.705 982.654,1011.71 947,1098.5C 942.239,1086.69 937.405,1075.03 932.5,1063.5C 932.5,1062.5 932.5,1061.5 932.5,1060.5C 962.318,986.192 992.151,911.859 1022,837.5C 1032.08,836.514 1042.25,836.181 1052.5,836.5 Z"/></g>
<g><path style="opacity:0.98" fill="#ececec" d="M 1218.5,836.5 C 1232.68,836.171 1246.68,836.504 1260.5,837.5C 1246.5,837.5 1232.5,837.5 1218.5,837.5C 1218.5,954.833 1218.5,1072.17 1218.5,1189.5C 1209.5,1189.5 1200.5,1189.5 1191.5,1189.5C 1191.5,1203.83 1191.5,1218.17 1191.5,1232.5C 1205.83,1232.5 1220.17,1232.5 1234.5,1232.5C 1234.5,1239.83 1234.5,1247.17 1234.5,1254.5C 1207.5,1254.5 1180.5,1254.5 1153.5,1254.5C 1153.5,1232.83 1153.5,1211.17 1153.5,1189.5C 1162.17,1189.5 1170.83,1189.5 1179.5,1189.5C 1179.5,1071.83 1179.5,954.167 1179.5,836.5C 1192.5,836.5 1205.5,836.5 1218.5,836.5 Z"/></g>
<g><path style="opacity:0.994" fill="#ededed" d="M 1737.5,836.5 C 1737.5,837.167 1737.83,837.5 1738.5,837.5C 1738.5,954.833 1738.5,1072.17 1738.5,1189.5C 1729.5,1189.5 1720.5,1189.5 1711.5,1189.5C 1711.5,1203.83 1711.5,1218.17 1711.5,1232.5C 1725.17,1232.5 1738.83,1232.5 1752.5,1232.5C 1752.17,1217.99 1752.5,1203.66 1753.5,1189.5C 1753.5,1203.83 1753.5,1218.17 1753.5,1232.5C 1753.5,1239.83 1753.5,1247.17 1753.5,1254.5C 1726.5,1254.5 1699.5,1254.5 1672.5,1254.5C 1672.5,1232.83 1672.5,1211.17 1672.5,1189.5C 1681.5,1189.5 1690.5,1189.5 1699.5,1189.5C 1699.5,1071.83 1699.5,954.167 1699.5,836.5C 1712.17,836.5 1724.83,836.5 1737.5,836.5 Z"/></g>
<g><path style="opacity:0.982" fill="#ecedec" d="M 2425.5,836.5 C 2425.5,836.833 2425.5,837.167 2425.5,837.5C 2425.5,954.833 2425.5,1072.17 2425.5,1189.5C 2416.5,1189.5 2407.5,1189.5 2398.5,1189.5C 2398.5,1203.83 2398.5,1218.17 2398.5,1232.5C 2410.83,1232.5 2423.17,1232.5 2435.5,1232.5C 2430.09,1240.09 2424.09,1247.25 2417.5,1254C 2398.17,1254.5 2378.84,1254.67 2359.5,1254.5C 2359.5,1232.83 2359.5,1211.17 2359.5,1189.5C 2368.5,1189.5 2377.5,1189.5 2386.5,1189.5C 2386.5,1071.83 2386.5,954.167 2386.5,836.5C 2399.5,836.5 2412.5,836.5 2425.5,836.5 Z"/></g>
<g><path style="opacity:0.964" fill="#ededed" d="M 2719.5,836.5 C 2719.5,836.833 2719.5,837.167 2719.5,837.5C 2648.53,919.975 2577.7,1002.64 2507,1085.5C 2506.83,1078.32 2506.33,1071.32 2505.5,1064.5C 2506.11,1063.61 2506.44,1062.61 2506.5,1061.5C 2570.82,987.172 2634.82,912.506 2698.5,837.5C 2705.47,836.503 2712.47,836.17 2719.5,836.5 Z"/></g>
<g><path style="opacity:0.999" fill="#fefefe" d="M 759.5,837.5 C 771.5,837.5 783.5,837.5 795.5,837.5C 832.572,932.046 870.239,1026.38 908.5,1120.5C 916.517,1101.43 924.517,1082.43 932.5,1063.5C 937.405,1075.03 942.239,1086.69 947,1098.5C 982.654,1011.71 1017.82,924.705 1052.5,837.5C 1070.17,837.333 1087.84,837.5 1105.5,838C 1058.14,954.403 1010.98,1070.9 964,1187.5C 955.092,1189.29 945.926,1190.13 936.5,1190C 930.689,1203.79 925.022,1217.62 919.5,1231.5C 910.25,1232.47 900.917,1232.81 891.5,1232.5C 886.167,1218.17 880.833,1203.83 875.5,1189.5C 884.173,1189.67 892.84,1189.5 901.5,1189C 853.871,1071.95 806.538,954.78 759.5,837.5 Z"/></g>
<g><path style="opacity:0.997" fill="#fefefe" d="M 1260.5,837.5 C 1261.5,954.999 1261.83,1072.67 1261.5,1190.5C 1252.5,1190.5 1243.5,1190.5 1234.5,1190.5C 1234.5,1204.5 1234.5,1218.5 1234.5,1232.5C 1220.17,1232.5 1205.83,1232.5 1191.5,1232.5C 1191.5,1218.17 1191.5,1203.83 1191.5,1189.5C 1200.5,1189.5 1209.5,1189.5 1218.5,1189.5C 1218.5,1072.17 1218.5,954.833 1218.5,837.5C 1232.5,837.5 1246.5,837.5 1260.5,837.5 Z"/></g>
<g><path style="opacity:1" fill="#fefefe" d="M 1738.5,837.5 C 1752.17,837.5 1765.83,837.5 1779.5,837.5C 1779.5,954.833 1779.5,1072.17 1779.5,1189.5C 1770.83,1189.5 1762.17,1189.5 1753.5,1189.5C 1752.5,1203.66 1752.17,1217.99 1752.5,1232.5C 1738.83,1232.5 1725.17,1232.5 1711.5,1232.5C 1711.5,1218.17 1711.5,1203.83 1711.5,1189.5C 1720.5,1189.5 1729.5,1189.5 1738.5,1189.5C 1738.5,1072.17 1738.5,954.833 1738.5,837.5 Z"/></g>
<g><path style="opacity:0.999" fill="#fefefe" d="M 2425.5,837.5 C 2439.5,837.5 2453.5,837.5 2467.5,837.5C 2467.33,927.834 2467.5,1018.17 2468,1108.5C 2480.28,1093.58 2492.78,1078.91 2505.5,1064.5C 2506.33,1071.32 2506.83,1078.32 2507,1085.5C 2577.7,1002.64 2648.53,919.975 2719.5,837.5C 2731.5,837.5 2743.5,837.5 2755.5,837.5C 2755.5,954.833 2755.5,1072.17 2755.5,1189.5C 2746.83,1189.5 2738.17,1189.5 2729.5,1189.5C 2728.5,1203.66 2728.17,1217.99 2728.5,1232.5C 2714.83,1232.5 2701.17,1232.5 2687.5,1232.5C 2687.5,1218.17 2687.5,1203.83 2687.5,1189.5C 2696.5,1189.5 2705.5,1189.5 2714.5,1189.5C 2714.67,1113.83 2714.5,1038.17 2714,962.5C 2701.3,977.36 2688.47,992.026 2675.5,1006.5C 2675.67,998.826 2675.5,991.159 2675,983.5C 2615.96,1052.37 2557.12,1121.37 2498.5,1190.5C 2496.17,1190.5 2493.83,1190.5 2491.5,1190.5C 2485.01,1189.35 2478.35,1189.18 2471.5,1190C 2459.29,1204.04 2447.29,1218.21 2435.5,1232.5C 2423.17,1232.5 2410.83,1232.5 2398.5,1232.5C 2398.5,1218.17 2398.5,1203.83 2398.5,1189.5C 2407.5,1189.5 2416.5,1189.5 2425.5,1189.5C 2425.5,1072.17 2425.5,954.833 2425.5,837.5 Z"/></g>
<g><path style="opacity:0.985" fill="#ededed" d="M 1432.5,842.5 C 1423.81,850.69 1415.98,859.69 1409,869.5C 1386.7,908.419 1387.03,947.086 1410,985.5C 1426.64,1006.75 1447.47,1022.58 1472.5,1033C 1498.06,1043.12 1523.4,1053.78 1548.5,1065C 1554.34,1068.42 1560,1072.08 1565.5,1076C 1577.84,1085.86 1584.51,1098.69 1585.5,1114.5C 1582.45,1144.21 1566.12,1161.21 1536.5,1165.5C 1550.43,1144.04 1549.26,1123.37 1533,1103.5C 1521.76,1093.79 1509.26,1085.96 1495.5,1080C 1467.92,1069.71 1440.92,1058.04 1414.5,1045C 1361.69,1014.85 1343.52,970.352 1360,911.5C 1373.97,877.697 1398.13,854.697 1432.5,842.5 Z"/></g>
<g><path style="opacity:0.982" fill="#ededed" d="M 1990.5,850.5 C 1927.72,900.906 1899.56,966.573 1906,1047.5C 1912.21,1104.43 1936.71,1151.6 1979.5,1189C 1971.17,1189.33 1962.83,1189.67 1954.5,1190C 1976.92,1208.55 2002.26,1221.88 2030.5,1230C 2082.31,1243.39 2133.31,1240.89 2183.5,1222.5C 2150.15,1245.23 2113.15,1257.73 2072.5,1260C 2002.23,1264.48 1942.73,1241.64 1894,1191.5C 1893.83,1191.17 1893.67,1190.83 1893.5,1190.5C 1901.81,1189.67 1910.15,1189.17 1918.5,1189C 1869.86,1128.84 1855.03,1061 1874,985.5C 1890.41,928.775 1924.24,885.942 1975.5,857C 1980.29,854.271 1985.29,852.104 1990.5,850.5 Z"/></g>
<g><path style="opacity:0.977" fill="#ededed" d="M 1594.5,897.5 C 1594.5,897.833 1594.5,898.167 1594.5,898.5C 1586.89,909.284 1579.06,919.951 1571,930.5C 1544.89,909.344 1515.06,900.678 1481.5,904.5C 1482.88,901.606 1484.88,899.106 1487.5,897C 1491.57,893.937 1495.9,891.27 1500.5,889C 1533.1,877.394 1564.44,880.228 1594.5,897.5 Z"/></g>
<g><path style="opacity:0.986" fill="#ededed" d="M 2168.5,1158.5 C 2186.73,1142.41 2200.57,1123.08 2210,1100.5C 2228.78,1046.6 2221.11,996.933 2187,951.5C 2146.7,907.714 2097.86,894.047 2040.5,910.5C 2064.28,891.348 2091.61,881.681 2122.5,881.5C 2188.48,885.565 2231.98,918.898 2253,981.5C 2266.04,1031.65 2257.04,1077.32 2226,1118.5C 2210.32,1136.92 2191.15,1150.25 2168.5,1158.5 Z"/></g>
<g><path style="opacity:0.986" fill="#c6c6c6" d="M 1481.5,904.5 C 1469.56,923.427 1472.23,940.26 1489.5,955C 1495.84,959.503 1502.5,963.503 1509.5,967C 1530.39,975.943 1551.39,984.61 1572.5,993C 1596.77,1002.71 1618.27,1016.54 1637,1034.5C 1660.86,1062.09 1670.19,1094.09 1665,1130.5C 1661.62,1153.1 1652.45,1172.93 1637.5,1190C 1629.51,1190.5 1621.51,1190.67 1613.5,1190.5C 1618.62,1179.63 1622.46,1168.3 1625,1156.5C 1631.14,1121.86 1623.81,1090.53 1603,1062.5C 1584.06,1041.9 1561.56,1026.4 1535.5,1016C 1511.59,1006.58 1487.92,996.585 1464.5,986C 1459.56,983.394 1454.9,980.394 1450.5,977C 1431.81,960.82 1429.65,942.654 1444,922.5C 1454.59,912.625 1467.09,906.625 1481.5,904.5 Z"/></g>
<g><path style="opacity:0.985" fill="#c6c6c6" d="M 2038.5,911.5 C 2019.16,927.353 2005,947.02 1996,970.5C 1978.05,1022.59 1985.05,1070.92 2017,1115.5C 2057.39,1161.57 2107.23,1176.24 2166.5,1159.5C 2142.42,1178.86 2114.75,1188.53 2083.5,1188.5C 2017.3,1184.8 1973.8,1151.47 1953,1088.5C 1938.24,1031.37 1951.07,981.539 1991.5,939C 2005.05,926.226 2020.71,917.059 2038.5,911.5 Z"/></g>
<g><path style="opacity:0.994" fill="#ededed" d="M 2729.5,1189.5 C 2729.5,1203.83 2729.5,1218.17 2729.5,1232.5C 2729.5,1239.83 2729.5,1247.17 2729.5,1254.5C 2702.5,1254.5 2675.5,1254.5 2648.5,1254.5C 2648.5,1232.83 2648.5,1211.17 2648.5,1189.5C 2657.5,1189.5 2666.5,1189.5 2675.5,1189.5C 2675.5,1129.17 2675.5,1068.83 2675.5,1008.5C 2675.5,1007.83 2675.5,1007.17 2675.5,1006.5C 2688.47,992.026 2701.3,977.36 2714,962.5C 2714.5,1038.17 2714.67,1113.83 2714.5,1189.5C 2705.5,1189.5 2696.5,1189.5 2687.5,1189.5C 2687.5,1203.83 2687.5,1218.17 2687.5,1232.5C 2701.17,1232.5 2714.83,1232.5 2728.5,1232.5C 2728.17,1217.99 2728.5,1203.66 2729.5,1189.5 Z"/></g>
<g><path style="opacity:0.966" fill="#c6c6c6" d="M 2675.5,1006.5 C 2675.5,1007.17 2675.5,1007.83 2675.5,1008.5C 2623.36,1068.81 2571.36,1129.31 2519.5,1190C 2512.51,1190.5 2505.51,1190.67 2498.5,1190.5C 2557.12,1121.37 2615.96,1052.37 2675,983.5C 2675.5,991.159 2675.67,998.826 2675.5,1006.5 Z"/></g>
<g><path style="opacity:0.979" fill="#c6c6c6" d="M 1536.5,1165.5 C 1536.63,1166.24 1536.46,1166.91 1536,1167.5C 1525.04,1179.23 1511.54,1186.06 1495.5,1188C 1457.8,1189.71 1425.13,1177.88 1397.5,1152.5C 1397.17,1151.83 1396.83,1151.17 1396.5,1150.5C 1406.84,1140.83 1416.84,1130.83 1426.5,1120.5C 1452.63,1149.15 1485.13,1164.48 1524,1166.5C 1528.2,1166.39 1532.37,1166.06 1536.5,1165.5 Z"/></g>
<g><path style="opacity:0.976" fill="#ededed" d="M 1396.5,1150.5 C 1396.83,1151.17 1397.17,1151.83 1397.5,1152.5C 1396.76,1152.37 1396.09,1152.54 1395.5,1153C 1388.53,1160.97 1381.2,1168.64 1373.5,1176C 1378.5,1180.33 1383.5,1184.67 1388.5,1189C 1380.17,1189.33 1371.83,1189.67 1363.5,1190C 1379,1202.59 1396,1212.93 1414.5,1221C 1459.49,1240.89 1505.49,1243.72 1552.5,1229.5C 1517.37,1255.24 1478.04,1265.07 1434.5,1259C 1385.63,1252.06 1343.63,1231.56 1308.5,1197.5C 1309.93,1194.57 1311.93,1192.07 1314.5,1190C 1323.83,1189.67 1333.17,1189.33 1342.5,1189C 1357.17,1173.67 1371.83,1158.33 1386.5,1143C 1387.64,1142.25 1388.64,1142.42 1389.5,1143.5C 1391.52,1146.19 1393.85,1148.52 1396.5,1150.5 Z"/></g>
<g><path style="opacity:0.935" fill="#c6c6c6" d="M 1610.5,1190.5 C 1594.92,1207.63 1576.26,1220.3 1554.5,1228.5C 1567.16,1217.34 1577.82,1204.51 1586.5,1190C 1594.68,1189.18 1602.68,1189.34 1610.5,1190.5 Z"/></g>
<g><path style="opacity:0.906" fill="#c7c7c7" d="M 2236.5,1190.5 C 2221.8,1203.53 2205.13,1213.53 2186.5,1220.5C 2198.83,1211.68 2210.16,1201.51 2220.5,1190C 2226.02,1189.18 2231.35,1189.35 2236.5,1190.5 Z"/></g>
<g><path style="opacity:0.969" fill="#c6c6c6" d="M 2491.5,1190.5 C 2480.07,1204.44 2468.4,1218.27 2456.5,1232C 2449.51,1232.5 2442.51,1232.67 2435.5,1232.5C 2447.29,1218.21 2459.29,1204.04 2471.5,1190C 2478.35,1189.18 2485.01,1189.35 2491.5,1190.5 Z"/></g>
</svg>
