<svg width="2663" height="988" viewBox="0 0 2663 988" fill="none" xmlns="http://www.w3.org/2000/svg">
<path opacity="0.982" fill-rule="evenodd" clip-rule="evenodd" d="M2063.5 411.5C2125.97 362.187 2154.47 297.52 2149 217.5C2145.95 180.845 2134.45 147.178 2114.5 116.5C2120.35 115.833 2126.35 115.167 2132.5 114.5C2132.38 113.893 2132.04 113.56 2131.5 113.5C2093.15 59.9691 2040.82 30.1351 1974.5 24.0001C1935.47 20.5101 1897.8 26.0101 1861.5 40.5001C1900.24 13.5361 1943.41 0.536107 1991 1.50011C2070.19 1.25511 2131.86 33.5891 2176 98.5001C2179.39 103.952 2182.23 109.619 2184.5 115.5C2178.16 115.334 2171.82 115.5 2165.5 116C2187.9 161.615 2194.4 209.448 2185 259.5C2170.08 330.892 2129.58 381.558 2063.5 411.5Z" fill="#C6C6C6"/>
<path opacity="0.977" fill-rule="evenodd" clip-rule="evenodd" d="M2596.5 107.5C2596.5 107.167 2596.5 106.833 2596.5 106.5C2603.83 99.0043 2610.99 91.3383 2618 83.5003C2618.67 82.8333 2618.67 82.1673 2618 81.5003C2581.5 47.8423 2538.33 28.6763 2488.5 24.0003C2449.13 20.4113 2411.13 25.9113 2374.5 40.5003C2406.8 17.8973 2442.8 5.06428 2482.5 2.00028C2542.7 -3.69972 2596.7 11.6343 2644.5 48.0003C2649.47 51.9663 2654.13 56.2993 2658.5 61.0003C2641.87 79.3023 2624.87 97.3023 2607.5 115C2606.5 115.667 2605.5 115.667 2604.5 115C2601.57 112.715 2598.9 110.215 2596.5 107.5Z" fill="#C6C6C6"/>
<path opacity="0.986" fill-rule="evenodd" clip-rule="evenodd" d="M406.5 424.5C405.833 424.167 405.167 423.833 404.5 423.5C361.106 321.046 317.44 218.713 273.5 116.5C279.679 115.833 286.012 115.167 292.5 114.5C292.376 113.893 292.043 113.56 291.5 113.5C280.012 85.2003 268.012 57.2003 255.5 29.5002C246.682 28.5072 237.682 28.1732 228.5 28.5002C231.01 21.1372 234.01 13.9713 237.5 7.00025C256.5 6.33325 275.5 6.33325 294.5 7.00025C310.325 42.9822 325.659 79.1483 340.5 115.5C334.158 115.334 327.825 115.5 321.5 116C365.629 218.427 409.629 320.927 453.5 423.5C437.848 424.499 422.181 424.833 406.5 424.5Z" fill="#C6C6C6"/>
<path opacity="0.99" fill-rule="evenodd" clip-rule="evenodd" d="M602.5 253.5C602.5 254.167 602.5 254.833 602.5 255.5C589.53 269.974 576.698 284.64 564 299.5C563.5 238.168 563.333 176.834 563.5 115.5C570.09 115.811 576.59 115.478 583 114.5C583.83 85.997 583.66 57.664 582.5 29.5C569.01 28.504 555.344 28.171 541.5 28.5C541.5 21.167 541.5 13.833 541.5 6.5C568.5 6.5 595.5 6.5 622.5 6.5C622.5 42.833 622.5 79.167 622.5 115.5C615.83 115.5 609.17 115.5 602.5 115.5C602.5 161.5 602.5 207.5 602.5 253.5Z" fill="#C6C6C6"/>
<path opacity="0.986" fill-rule="evenodd" clip-rule="evenodd" d="M852.5 424.5C852.5 321.5 852.5 218.5 852.5 115.5C858.83 115.5 865.17 115.5 871.5 115.5C871.5 86.8331 871.5 58.1671 871.5 29.5001C859.68 28.5051 847.68 28.1721 835.5 28.5001C841.37 21.2721 847.37 14.1051 853.5 7.00014C872.5 6.50014 891.5 6.33314 910.5 6.50014C910.5 42.8331 910.5 79.1671 910.5 115.5C904.17 115.5 897.83 115.5 891.5 115.5C891.5 218.5 891.5 321.5 891.5 424.5C878.5 424.5 865.5 424.5 852.5 424.5Z" fill="#C6C6C6"/>
<path opacity="0.986" fill-rule="evenodd" clip-rule="evenodd" d="M1326.5 424.5C1325.83 423.833 1325.17 423.167 1324.5 422.5C1280.64 320.249 1236.97 217.915 1193.5 115.5C1199.87 115.83 1206.2 115.496 1212.5 114.5C1212.38 113.893 1212.04 113.56 1211.5 113.5C1200.01 85.1998 1188.01 57.1998 1175.5 29.4998C1166.68 28.5068 1157.68 28.1728 1148.5 28.4998C1151.36 21.2818 1154.36 14.1148 1157.5 6.99976C1176.74 6.17376 1195.91 6.34076 1215 7.49976C1230.5 43.3498 1246 79.1838 1261.5 115C1254.83 115.333 1248.17 115.667 1241.5 116C1285.99 218.647 1329.99 321.481 1373.5 424.5C1357.83 424.5 1342.17 424.5 1326.5 424.5Z" fill="#C6C6C6"/>
<path opacity="0.986" fill-rule="evenodd" clip-rule="evenodd" d="M1670.5 424.5C1670.5 407.833 1670.5 391.167 1670.5 374.5C1611.93 374.831 1553.43 374.498 1495 373.5C1494.5 287.501 1494.33 201.501 1494.5 115.5C1501.17 115.5 1507.83 115.5 1514.5 115.5C1514.5 86.833 1514.5 58.167 1514.5 29.5C1500.68 28.504 1486.68 28.171 1472.5 28.5C1472.5 21.167 1472.5 13.833 1472.5 6.5C1499.5 6.5 1526.5 6.5 1553.5 6.5C1553.5 42.833 1553.5 79.167 1553.5 115.5C1547.17 115.5 1540.83 115.5 1534.5 115.5C1534.5 194.5 1534.5 273.5 1534.5 352.5C1592.83 352.5 1651.17 352.5 1709.5 352.5C1709.5 376.5 1709.5 400.5 1709.5 424.5C1696.5 424.5 1683.5 424.5 1670.5 424.5Z" fill="#C6C6C6"/>
<path opacity="0.999" fill-rule="evenodd" clip-rule="evenodd" d="M2131.5 113.5C2125.65 114.167 2119.65 114.833 2113.5 115.5C2113.62 116.107 2113.96 116.44 2114.5 116.5C2134.45 147.178 2145.95 180.845 2149 217.5C2154.47 297.52 2125.97 362.187 2063.5 411.5C2062.71 412.401 2061.71 413.068 2060.5 413.5C1996.42 437.524 1933.08 435.691 1870.5 408C1803.05 372.482 1764.55 316.649 1755 240.5C1750.23 196.595 1757.73 154.928 1777.5 115.5C1784.14 114.669 1790.81 114.169 1797.5 114C1810.22 90.6055 1826.55 69.9385 1846.5 51.9995C1851.27 48.9595 1855.6 45.4595 1859.5 41.4995C1860.17 41.1665 1860.83 40.8325 1861.5 40.4995C1897.8 26.0095 1935.47 20.5095 1974.5 23.9995C2040.82 30.1345 2093.15 59.9685 2131.5 113.5ZM2017.5 349.5C2016.83 349.833 2016.17 350.167 2015.5 350.5C1961.53 366.812 1914.37 355.479 1874 316.5C1838.05 274.803 1827.05 227.136 1841 173.5C1847.47 151.549 1858.3 132.216 1873.5 115.5C1875.83 115.5 1878.17 115.5 1880.5 115.5C1884.85 115.666 1889.18 115.499 1893.5 115C1898.36 110.968 1903.03 106.801 1907.5 102.5C1908.49 102.672 1909.16 102.338 1909.5 101.5C1948.64 89.7045 1985.97 93.8715 2021.5 114C2015.8 114.17 2010.14 114.67 2004.5 115.5C2046.57 144.956 2068.24 185.623 2069.5 237.5C2068.29 282.579 2050.95 319.912 2017.5 349.5Z" fill="#FEFEFE"/>
<path opacity="0.999" fill-rule="evenodd" clip-rule="evenodd" d="M2596.5 106.5C2547.35 68.6434 2494.69 63.1434 2438.5 90.0004C2431.91 93.4504 2425.91 97.6164 2420.5 102.5C2420.17 102.5 2419.83 102.5 2419.5 102.5C2410.24 105.798 2401.57 110.132 2393.5 115.5C2390.83 115.5 2388.17 115.5 2385.5 115.5C2380.37 115.112 2375.37 115.612 2370.5 117C2323.82 151.223 2303.32 197.39 2309 255.5C2317.16 310.971 2346.99 349.471 2398.5 371C2449.72 388.019 2497.06 380.852 2540.5 349.5C2540.5 348.833 2540.83 348.5 2541.5 348.5C2555.92 343.375 2569.09 336.041 2581 326.5C2581.5 296.502 2581.67 266.502 2581.5 236.5C2545.83 236.5 2510.17 236.5 2474.5 236.5C2474.5 219.833 2474.5 203.167 2474.5 186.5C2524.17 186.5 2573.83 186.5 2623.5 186.5C2623.67 248.501 2623.5 310.501 2623 372.5C2610.9 386.435 2597.73 399.102 2583.5 410.5C2582.71 411.401 2581.71 412.068 2580.5 412.5C2527.44 432.607 2473.44 435.441 2418.5 421C2333.76 393.255 2283.59 335.422 2268 247.5C2261.78 201.247 2268.95 157.247 2289.5 115.5C2296.14 114.669 2302.81 114.169 2309.5 114C2325.34 85.3254 2346.34 61.1584 2372.5 41.5004C2373.17 41.1674 2373.83 40.8334 2374.5 40.5004C2411.13 25.9114 2449.13 20.4114 2488.5 24.0004C2538.33 28.6764 2581.5 47.8424 2618 81.5004C2618.67 82.1674 2618.67 82.8334 2618 83.5004C2610.99 91.3384 2603.83 99.0044 2596.5 106.5Z" fill="#FEFEFE"/>
<path opacity="0.981" fill-rule="evenodd" clip-rule="evenodd" d="M228.5 28.5003C237.682 28.1733 246.682 28.5073 255.5 29.5003C246.143 29.1683 236.81 29.5023 227.5 30.5003C215.667 58.1673 203.833 85.8333 192 113.5C185.222 114.15 178.389 114.817 171.5 115.5C127.5 218.167 83.5 320.833 39.5 423.5C57.898 424.819 76.231 424.819 94.5 423.5C94.5 423.833 94.5 424.167 94.5 424.5C91.406 431.28 88.406 438.113 85.5 445C57.161 445.833 28.827 445.667 0.5 444.5C47.695 334.915 94.695 225.249 141.5 115.5C148.389 114.817 155.222 114.15 162 113.5C174 85.5003 186 57.5003 198 29.5003C208.084 28.5143 218.251 28.1813 228.5 28.5003Z" fill="#EDEDED"/>
<path opacity="0.982" fill-rule="evenodd" clip-rule="evenodd" d="M541.5 28.4996C555.344 28.1706 569.01 28.5036 582.5 29.4996C568.833 29.4996 555.167 29.4996 541.5 29.4996C541.5 57.8326 541.5 86.1666 541.5 114.5C534.833 114.5 528.167 114.5 521.5 114.5C521.5 217.833 521.5 321.167 521.5 424.5C533.913 424.813 546.247 424.479 558.5 423.5C558.5 423.833 558.5 424.167 558.5 424.5C552.856 431.147 547.189 437.814 541.5 444.5C521.845 445.5 502.178 445.833 482.5 445.5C482.5 335.167 482.5 224.833 482.5 114.5C489.167 114.5 495.833 114.5 502.5 114.5C502.5 85.8326 502.5 57.1666 502.5 28.4996C515.5 28.4996 528.5 28.4996 541.5 28.4996Z" fill="#EDEDED"/>
<path opacity="0.963" fill-rule="evenodd" clip-rule="evenodd" d="M835.5 28.5C847.68 28.172 859.68 28.505 871.5 29.5C859.16 29.333 846.83 29.5 834.5 30C810.5 58 786.5 86 762.5 114C755.51 114.5 748.51 114.666 741.5 114.5C765.62 85.872 789.96 57.372 814.5 29C821.49 28.5 828.49 28.334 835.5 28.5Z" fill="#EDEDED"/>
<path opacity="0.981" fill-rule="evenodd" clip-rule="evenodd" d="M1148.5 28.5003C1157.68 28.1733 1166.68 28.5073 1175.5 29.5003C1166.14 29.1683 1156.81 29.5023 1147.5 30.5003C1135.67 58.1673 1123.83 85.8333 1112 113.5C1105.22 114.15 1098.39 114.817 1091.5 115.5C1047.5 218.167 1003.5 320.833 959.5 423.5C977.9 424.819 996.23 424.819 1014.5 423.5C1014.5 423.833 1014.5 424.167 1014.5 424.5C1011.79 431.446 1008.79 438.279 1005.5 445C977.16 445.833 948.83 445.667 920.5 444.5C968.07 334.7 1015.07 224.7 1061.5 114.5C1068.42 114.812 1075.26 114.479 1082 113.5C1094.04 85.2603 1106.2 57.0933 1118.5 29.0003C1128.49 28.5003 1138.49 28.3343 1148.5 28.5003Z" fill="#EDEDED"/>
<path opacity="0.997" fill-rule="evenodd" clip-rule="evenodd" d="M1472.5 28.4996C1486.68 28.1706 1500.68 28.5036 1514.5 29.4996C1500.5 29.4996 1486.5 29.4996 1472.5 29.4996C1472.5 57.8326 1472.5 86.1666 1472.5 114.5C1466.17 114.5 1459.83 114.5 1453.5 114.5C1453.5 217.833 1453.5 321.167 1453.5 424.5C1525.83 424.5 1598.17 424.5 1670.5 424.5C1670.5 431.5 1670.5 438.5 1670.5 445.5C1585.17 445.5 1499.83 445.5 1414.5 445.5C1414.5 335.167 1414.5 224.833 1414.5 114.5C1420.83 114.5 1427.17 114.5 1433.5 114.5C1433.5 85.8326 1433.5 57.1666 1433.5 28.4996C1446.5 28.4996 1459.5 28.4996 1472.5 28.4996Z" fill="#EDEDED"/>
<path opacity="0.999" fill-rule="evenodd" clip-rule="evenodd" d="M255.5 29.5001C268.012 57.2001 280.012 85.2001 291.5 113.5C285.321 114.167 278.988 114.833 272.5 115.5C272.624 116.107 272.957 116.44 273.5 116.5C317.44 218.713 361.106 321.046 404.5 423.5C392.66 424.825 380.66 424.825 368.5 423.5C328 328.5 287.5 233.5 247 138.5C239.075 156.679 230.908 174.679 222.5 192.5C217.681 181.526 212.848 170.526 208 159.5C169.877 247.367 132.044 335.367 94.5 423.5C76.231 424.819 57.898 424.819 39.5 423.5C83.5 320.833 127.5 218.167 171.5 115.5C178.389 114.817 185.222 114.15 192 113.5C203.833 85.8331 215.667 58.1671 227.5 30.5001C236.81 29.5021 246.143 29.1681 255.5 29.5001Z" fill="#FEFEFE"/>
<path opacity="0.999" fill-rule="evenodd" clip-rule="evenodd" d="M582.5 29.5001C583.66 57.6641 583.83 85.9971 583 114.5C576.59 115.478 570.09 115.811 563.5 115.5C563.333 176.834 563.5 238.168 564 299.5C576.698 284.64 589.53 269.974 602.5 255.5C602.33 262.841 602.5 270.174 603 277.5C649.4 223.275 695.57 168.941 741.5 114.5C748.51 114.666 755.51 114.5 762.5 114C786.5 86.0001 810.5 58.0001 834.5 30.0001C846.83 29.5001 859.16 29.3331 871.5 29.5001C871.5 58.1671 871.5 86.8331 871.5 115.5C865.17 115.5 858.83 115.5 852.5 115.5C851.5 218.332 851.17 321.332 851.5 424.5C837.83 424.5 824.17 424.5 810.5 424.5C810.67 334.166 810.5 243.833 810 153.5C797.67 168.167 785.33 182.833 773 197.5C772.83 189.812 772.33 182.145 771.5 174.5C770.89 174.624 770.56 174.957 770.5 175.5C700.21 258.461 629.54 341.128 558.5 423.5C546.247 424.479 533.913 424.813 521.5 424.5C521.5 321.167 521.5 217.833 521.5 114.5C528.167 114.5 534.833 114.5 541.5 114.5C541.5 86.1671 541.5 57.8331 541.5 29.5001C555.167 29.5001 568.833 29.5001 582.5 29.5001Z" fill="#FEFEFE"/>
<path opacity="0.999" fill-rule="evenodd" clip-rule="evenodd" d="M1175.5 29.5001C1188.01 57.2001 1200.01 85.2001 1211.5 113.5C1205.5 114.167 1199.5 114.833 1193.5 115.5C1236.97 217.915 1280.64 320.249 1324.5 422.5C1312.88 424.479 1300.88 425.146 1288.5 424.5C1248.29 329.083 1207.79 233.75 1167 138.5C1159.06 156.709 1150.89 174.709 1142.5 192.5C1137.96 181.371 1133.12 170.371 1128 159.5C1089.88 247.405 1052.05 335.405 1014.5 423.5C996.23 424.819 977.9 424.819 959.5 423.5C1003.5 320.833 1047.5 218.167 1091.5 115.5C1098.39 114.817 1105.22 114.15 1112 113.5C1123.83 85.8331 1135.67 58.1671 1147.5 30.5001C1156.81 29.5021 1166.14 29.1681 1175.5 29.5001Z" fill="#FEFEFE"/>
<path opacity="0.998" fill-rule="evenodd" clip-rule="evenodd" d="M1514.5 29.5C1514.5 58.167 1514.5 86.833 1514.5 115.5C1507.83 115.5 1501.17 115.5 1494.5 115.5C1494.33 201.501 1494.5 287.501 1495 373.5C1553.43 374.498 1611.93 374.831 1670.5 374.5C1670.5 391.167 1670.5 407.833 1670.5 424.5C1598.17 424.5 1525.83 424.5 1453.5 424.5C1453.5 321.167 1453.5 217.833 1453.5 114.5C1459.83 114.5 1466.17 114.5 1472.5 114.5C1472.5 86.167 1472.5 57.833 1472.5 29.5C1486.5 29.5 1500.5 29.5 1514.5 29.5Z" fill="#FEFEFE"/>
<path opacity="0.983" fill-rule="evenodd" clip-rule="evenodd" d="M1859.5 41.5C1855.6 45.46 1851.27 48.96 1846.5 52C1826.55 69.939 1810.22 90.606 1797.5 114C1790.81 114.169 1784.14 114.669 1777.5 115.5C1757.73 154.928 1750.23 196.595 1755 240.5C1764.55 316.649 1803.05 372.482 1870.5 408C1933.08 435.691 1996.42 437.524 2060.5 413.5C2015.12 443.511 1965.12 456.011 1910.5 451C1827.82 442.606 1768.66 401.106 1733 326.5C1711.01 271.742 1709.34 216.408 1728 160.5C1733.87 144.251 1741.71 129.084 1751.5 115C1758.17 114.667 1764.83 114.333 1771.5 114C1793.78 81.211 1823.12 57.044 1859.5 41.5Z" fill="#EDEDED"/>
<path opacity="0.982" fill-rule="evenodd" clip-rule="evenodd" d="M2372.5 41.5C2346.34 61.158 2325.34 85.325 2309.5 114C2302.81 114.169 2296.14 114.669 2289.5 115.5C2268.95 157.247 2261.78 201.247 2268 247.5C2283.59 335.422 2333.76 393.255 2418.5 421C2473.44 435.441 2527.44 432.607 2580.5 412.5C2533.87 443.157 2482.54 455.99 2426.5 451C2349.01 444.04 2290.85 407.207 2252 340.5C2226.55 289.418 2220.55 236.085 2234 180.5C2240.2 156.939 2250.03 135.105 2263.5 115C2270.17 114.667 2276.83 114.333 2283.5 114C2306.43 81.571 2336.1 57.404 2372.5 41.5Z" fill="#EDEDED"/>
<path opacity="0.984" fill-rule="evenodd" clip-rule="evenodd" d="M2017.5 349.5C2050.95 319.912 2068.29 282.579 2069.5 237.5C2068.24 185.623 2046.57 144.956 2004.5 115.5C2010.14 114.67 2015.8 114.17 2021.5 114C1985.97 93.8722 1948.64 89.7052 1909.5 101.5C1928.7 86.0782 1950.7 76.9122 1975.5 74.0002C2019.22 69.9042 2056.56 83.2382 2087.5 114C2081.47 114.17 2075.47 114.67 2069.5 115.5C2105.88 158.361 2116.38 207.027 2101 261.5C2087.3 304.367 2059.46 333.7 2017.5 349.5Z" fill="#EDEDED"/>
<path opacity="0.975" fill-rule="evenodd" clip-rule="evenodd" d="M2596.5 106.5C2596.5 106.833 2596.5 107.167 2596.5 107.5C2594.13 110.874 2591.13 113.541 2587.5 115.5C2586.83 114.167 2586.17 114.167 2585.5 115.5C2579.82 115.334 2574.16 115.501 2568.5 116C2562.02 123.65 2555.02 130.817 2547.5 137.5C2538.26 129.427 2528.6 121.927 2518.5 115C2524.17 114.667 2529.83 114.333 2535.5 114C2498.87 93.4002 2460.54 89.5662 2420.5 102.5C2425.91 97.6162 2431.91 93.4502 2438.5 90.0002C2494.69 63.1432 2547.35 68.6432 2596.5 106.5Z" fill="#EDEDED"/>
<path opacity="0.879" fill-rule="evenodd" clip-rule="evenodd" d="M1907.5 102.5C1903.03 106.801 1898.36 110.968 1893.5 115C1889.18 115.499 1884.85 115.666 1880.5 115.5C1888.8 109.851 1897.8 105.517 1907.5 102.5Z" fill="#C7C7C7"/>
<path opacity="0.885" fill-rule="evenodd" clip-rule="evenodd" d="M2419.5 102.5C2415.06 106.436 2410.73 110.602 2406.5 115C2402.18 115.499 2397.85 115.666 2393.5 115.5C2401.57 110.132 2410.24 105.798 2419.5 102.5Z" fill="#C7C7C7"/>
<path opacity="0.878" fill-rule="evenodd" clip-rule="evenodd" d="M291.5 113.5C292.043 113.56 292.376 113.893 292.5 114.5C286.012 115.167 279.679 115.833 273.5 116.5C272.957 116.44 272.624 116.107 272.5 115.5C278.988 114.833 285.321 114.167 291.5 113.5Z" fill="#EFEFEF"/>
<path opacity="0.966" fill-rule="evenodd" clip-rule="evenodd" d="M741.499 114.5C695.569 168.941 649.399 223.275 602.999 277.5C602.499 270.174 602.329 262.841 602.499 255.5C602.499 254.833 602.499 254.167 602.499 253.5C642.269 207.498 681.929 161.331 721.499 115C728.159 114.5 734.829 114.334 741.499 114.5Z" fill="#EDEDED"/>
<path opacity="0.878" fill-rule="evenodd" clip-rule="evenodd" d="M1211.5 113.5C1212.04 113.56 1212.38 113.893 1212.5 114.5C1206.2 115.496 1199.87 115.83 1193.5 115.5C1199.5 114.833 1205.5 114.167 1211.5 113.5Z" fill="#EFEFEF"/>
<path opacity="0.88" fill-rule="evenodd" clip-rule="evenodd" d="M2131.5 113.5C2132.04 113.56 2132.38 113.893 2132.5 114.5C2126.35 115.167 2120.35 115.833 2114.5 116.5C2113.96 116.44 2113.62 116.107 2113.5 115.5C2119.65 114.833 2125.65 114.167 2131.5 113.5Z" fill="#EFEFEF"/>
<path opacity="0.985" fill-rule="evenodd" clip-rule="evenodd" d="M1873.5 115.5C1858.3 132.216 1847.47 151.549 1841 173.5C1827.05 227.136 1838.05 274.803 1874 316.5C1914.37 355.479 1961.53 366.812 2015.5 350.5C1999.88 363.809 1981.88 372.642 1961.5 377C1900.58 387.156 1852.74 366.989 1818 316.5C1790.56 268.207 1788.56 218.873 1812 168.5C1822.88 147.618 1838.04 130.451 1857.5 117C1862.71 115.603 1868.04 115.103 1873.5 115.5Z" fill="#C6C6C6"/>
<path opacity="0.985" fill-rule="evenodd" clip-rule="evenodd" d="M2385.5 115.5C2347.26 161.258 2337.76 212.591 2357 269.5C2382.37 326.534 2426.37 355.868 2489 357.5C2506.64 357.809 2523.81 355.143 2540.5 349.5C2497.06 380.852 2449.72 388.019 2398.5 371C2346.99 349.471 2317.16 310.971 2309 255.5C2303.32 197.39 2323.82 151.223 2370.5 117C2375.37 115.612 2380.37 115.112 2385.5 115.5Z" fill="#C6C6C6"/>
<path opacity="0.094" fill-rule="evenodd" clip-rule="evenodd" d="M2587.5 115.5C2586.83 116.833 2586.17 116.833 2585.5 115.5C2586.17 114.167 2586.83 114.167 2587.5 115.5Z" fill="#CACACA"/>
<path opacity="0.99" fill-rule="evenodd" clip-rule="evenodd" d="M404.5 423.5C405.167 423.833 405.833 424.167 406.5 424.5C409.451 431.4 412.118 438.4 414.5 445.5C386.159 445.833 357.825 445.5 329.5 444.5C294.057 361.294 258.391 278.294 222.5 195.5C222.5 194.5 222.5 193.5 222.5 192.5C230.908 174.679 239.075 156.679 247 138.5C287.5 233.5 328 328.5 368.5 423.5C380.66 424.825 392.66 424.825 404.5 423.5Z" fill="#EDEDED"/>
<path opacity="0.99" fill-rule="evenodd" clip-rule="evenodd" d="M1324.5 422.5C1325.17 423.167 1325.83 423.833 1326.5 424.5C1329.08 431.503 1332.08 438.336 1335.5 445C1306.83 445.833 1278.16 445.667 1249.5 444.5C1214.06 361.294 1178.39 278.294 1142.5 195.5C1142.5 194.5 1142.5 193.5 1142.5 192.5C1150.89 174.709 1159.06 156.709 1167 138.5C1207.79 233.75 1248.29 329.083 1288.5 424.5C1300.88 425.146 1312.88 424.479 1324.5 422.5Z" fill="#EDEDED"/>
<path opacity="0.994" fill-rule="evenodd" clip-rule="evenodd" d="M852.5 115.5C852.5 218.5 852.5 321.5 852.5 424.5C852.5 431.5 852.5 438.5 852.5 445.5C825.5 445.5 798.5 445.5 771.5 445.5C771.5 363.5 771.5 281.5 771.5 199.5C771.83 191.316 771.49 183.316 770.5 175.5C770.56 174.957 770.89 174.624 771.5 174.5C772.33 182.145 772.83 189.812 773 197.5C785.33 182.833 797.67 168.167 810 153.5C810.5 243.833 810.67 334.166 810.5 424.5C824.17 424.5 837.83 424.5 851.5 424.5C851.17 321.332 851.5 218.332 852.5 115.5Z" fill="#EDEDED"/>
<path opacity="0.981" fill-rule="evenodd" clip-rule="evenodd" d="M222.5 192.5C222.5 193.5 222.5 194.5 222.5 195.5C189.646 271.389 156.979 347.389 124.5 423.5C114.522 424.499 104.522 424.832 94.5 424.5C94.5 424.167 94.5 423.833 94.5 423.5C132.044 335.367 169.877 247.367 208 159.5C212.848 170.526 217.681 181.526 222.5 192.5Z" fill="#C6C6C6"/>
<path opacity="0.981" fill-rule="evenodd" clip-rule="evenodd" d="M1142.5 192.5C1142.5 193.5 1142.5 194.5 1142.5 195.5C1109.85 271.474 1077.18 347.474 1044.5 423.5C1034.52 424.499 1024.52 424.832 1014.5 424.5C1014.5 424.167 1014.5 423.833 1014.5 423.5C1052.05 335.405 1089.88 247.405 1128 159.5C1133.12 170.371 1137.96 181.371 1142.5 192.5Z" fill="#C6C6C6"/>
<path opacity="0.98" fill-rule="evenodd" clip-rule="evenodd" d="M2583.5 410.5C2597.73 399.102 2610.9 386.435 2623 372.5C2623.5 310.501 2623.67 248.501 2623.5 186.5C2573.83 186.5 2524.17 186.5 2474.5 186.5C2474.5 179.167 2474.5 171.833 2474.5 164.5C2537.17 164.5 2599.83 164.5 2662.5 164.5C2662.67 226.834 2662.5 289.168 2662 351.5C2640.82 377.837 2614.65 397.504 2583.5 410.5Z" fill="#C6C6C6"/>
<path opacity="0.966" fill-rule="evenodd" clip-rule="evenodd" d="M770.5 175.5C771.49 183.316 771.83 191.316 771.5 199.5C707.74 274.436 643.74 349.269 579.5 424C572.508 424.5 565.508 424.666 558.5 424.5C558.5 424.167 558.5 423.833 558.5 423.5C629.54 341.128 700.21 258.461 770.5 175.5Z" fill="#C6C6C6"/>
<path opacity="0.992" fill-rule="evenodd" clip-rule="evenodd" d="M2474.5 186.5C2474.5 203.167 2474.5 219.833 2474.5 236.5C2510.17 236.5 2545.83 236.5 2581.5 236.5C2581.67 266.502 2581.5 296.502 2581 326.5C2569.09 336.041 2555.92 343.375 2541.5 348.5C2542.49 318.574 2542.83 288.574 2542.5 258.5C2506.83 258.5 2471.17 258.5 2435.5 258.5C2435.5 234.5 2435.5 210.5 2435.5 186.5C2448.5 186.5 2461.5 186.5 2474.5 186.5Z" fill="#EDEDED"/>
<path opacity="0.974" fill-rule="evenodd" clip-rule="evenodd" d="M1172.5 625.5C1172.5 625.167 1172.5 624.833 1172.5 624.5C1178.28 615.548 1184.28 606.714 1190.5 598C1147.71 566.3 1099.71 553.633 1046.5 560C1034.9 561.9 1023.57 564.733 1012.5 568.5C1041.09 546.584 1073.59 535.917 1110 536.5C1152.84 536.245 1191.67 548.411 1226.5 573C1227.9 574.062 1228.9 575.395 1229.5 577C1215.85 596.656 1202.18 616.323 1188.5 636C1187.83 636.667 1187.17 636.667 1186.5 636C1182.24 631.898 1177.57 628.398 1172.5 625.5Z" fill="#C6C6C6"/>
<path opacity="0.983" fill-rule="evenodd" clip-rule="evenodd" d="M1825.5 917.5C1875.76 855.72 1890.59 786.05 1870 708.5C1840.39 622.081 1780.22 572.581 1689.5 560C1649.19 555.58 1610.19 560.747 1572.5 575.5C1605.97 552.064 1643.3 539.231 1684.5 537C1755.69 532.275 1815.86 555.442 1865 606.5C1909.39 660.056 1926.06 721.39 1915 790.5C1905.91 841.54 1881.74 883.71 1842.5 917C1836.84 917.5 1831.18 917.67 1825.5 917.5Z" fill="#C6C6C6"/>
<path opacity="0.988" fill-rule="evenodd" clip-rule="evenodd" d="M510.5 787.5C510.5 788.5 510.5 789.5 510.5 790.5C502.517 809.43 494.517 828.43 486.5 847.5C448.239 753.38 410.572 659.046 373.5 564.5C361.5 564.5 349.5 564.5 337.5 564.5C336.833 564.5 336.5 564.167 336.5 563.5C333.849 556.859 331.182 550.192 328.5 543.5C356.5 542.167 384.5 542.167 412.5 543.5C444.998 625.013 477.664 706.346 510.5 787.5Z" fill="#C6C6C6"/>
<path opacity="0.981" fill-rule="evenodd" clip-rule="evenodd" d="M497.5 959.5C497.5 959.17 497.5 958.83 497.5 958.5C503.022 944.62 508.689 930.79 514.5 917C523.926 917.13 533.092 916.29 542 914.5C588.98 797.9 636.14 681.403 683.5 565C665.84 564.5 648.17 564.333 630.5 564.5C630.5 564.167 630.5 563.833 630.5 563.5C633.15 556.859 635.82 550.192 638.5 543.5C666.49 542.5 694.49 542.167 722.5 542.5C672.63 667.248 622.46 791.91 572 916.5C562.893 917.15 553.726 917.82 544.5 918.5C539.122 932.14 533.455 945.64 527.5 959C517.506 959.5 507.506 959.67 497.5 959.5Z" fill="#C6C6C6"/>
<path opacity="0.996" fill-rule="evenodd" clip-rule="evenodd" d="M812.5 959.5C812.5 945.5 812.5 931.5 812.5 917.5C821.5 917.5 830.5 917.5 839.5 917.5C839.83 799.67 839.5 681.999 838.5 564.5C824.68 563.504 810.68 563.171 796.5 563.5C796.5 556.5 796.5 549.5 796.5 542.5C823.5 542.5 850.5 542.5 877.5 542.5C877.5 667.5 877.5 792.5 877.5 917.5C868.83 917.5 860.17 917.5 851.5 917.5C851.5 931.5 851.5 945.5 851.5 959.5C838.5 959.5 825.5 959.5 812.5 959.5Z" fill="#C6C6C6"/>
<path opacity="0.98" fill-rule="evenodd" clip-rule="evenodd" d="M1331.5 959.5C1331.5 945.17 1331.5 930.83 1331.5 916.5C1340.17 916.5 1348.83 916.5 1357.5 916.5C1357.5 799.17 1357.5 681.833 1357.5 564.5C1343.83 564.5 1330.17 564.5 1316.5 564.5C1315.83 564.5 1315.5 564.167 1315.5 563.5C1315.5 556.5 1315.5 549.5 1315.5 542.5C1342.83 542.5 1370.17 542.5 1397.5 542.5C1397.5 667.5 1397.5 792.5 1397.5 917.5C1388.5 917.5 1379.5 917.5 1370.5 917.5C1370.5 931.5 1370.5 945.5 1370.5 959.5C1357.5 959.5 1344.5 959.5 1331.5 959.5Z" fill="#C6C6C6"/>
<path opacity="0.992" fill-rule="evenodd" clip-rule="evenodd" d="M2084.5 788.5C2084.44 789.61 2084.11 790.61 2083.5 791.5C2070.78 805.91 2058.28 820.58 2046 835.5C2045.5 745.17 2045.33 654.834 2045.5 564.5C2031.5 564.5 2017.5 564.5 2003.5 564.5C2003.5 564.167 2003.5 563.833 2003.5 563.5C2003.5 556.5 2003.5 549.5 2003.5 542.5C2030.5 542.5 2057.5 542.5 2084.5 542.5C2084.5 624.5 2084.5 706.5 2084.5 788.5Z" fill="#C6C6C6"/>
<path opacity="0.98" fill-rule="evenodd" clip-rule="evenodd" d="M2307.5 959.5C2307.5 945.17 2307.5 930.83 2307.5 916.5C2316.17 916.5 2324.83 916.5 2333.5 916.5C2333.5 799.17 2333.5 681.833 2333.5 564.5C2321.5 564.5 2309.5 564.5 2297.5 564.5C2297.5 564.167 2297.5 563.833 2297.5 563.5C2303.26 556.564 2309.26 549.73 2315.5 543C2334.83 542.5 2354.16 542.333 2373.5 542.5C2373.5 667.5 2373.5 792.5 2373.5 917.5C2364.5 917.5 2355.5 917.5 2346.5 917.5C2346.5 931.5 2346.5 945.5 2346.5 959.5C2333.5 959.5 2320.5 959.5 2307.5 959.5Z" fill="#C6C6C6"/>
<path opacity="0.999" fill-rule="evenodd" clip-rule="evenodd" d="M1172.5 624.5C1142.44 607.228 1111.1 604.394 1078.5 616C1073.9 618.27 1069.57 620.937 1065.5 624C1062.88 626.106 1060.88 628.606 1059.5 631.5C1045.09 633.625 1032.59 639.625 1022 649.5C1007.65 669.654 1009.81 687.82 1028.5 704C1032.9 707.394 1037.56 710.394 1042.5 713C1065.92 723.585 1089.59 733.58 1113.5 743C1139.56 753.4 1162.06 768.9 1181 789.5C1201.81 817.53 1209.14 848.86 1203 883.5C1200.46 895.3 1196.62 906.63 1191.5 917.5C1190.5 917.5 1189.5 917.5 1188.5 917.5C1180.68 916.34 1172.68 916.18 1164.5 917C1155.82 931.51 1145.16 944.34 1132.5 955.5C1131.83 955.83 1131.17 956.17 1130.5 956.5C1083.49 970.72 1037.49 967.89 992.5 948C974 939.93 957 929.59 941.5 917C949.83 916.67 958.17 916.33 966.5 916C961.5 911.67 956.5 907.33 951.5 903C959.2 895.64 966.53 887.97 973.5 880C974.09 879.54 974.76 879.37 975.5 879.5C1003.13 904.88 1035.8 916.71 1073.5 915C1089.54 913.06 1103.04 906.23 1114 894.5C1114.46 893.91 1114.63 893.24 1114.5 892.5C1144.12 888.21 1160.45 871.21 1163.5 841.5C1162.51 825.69 1155.84 812.86 1143.5 803C1138 799.08 1132.34 795.42 1126.5 792C1101.4 780.78 1076.06 770.12 1050.5 760C1025.47 749.58 1004.64 733.75 988 712.5C965.03 674.086 964.7 635.419 987 596.5C993.98 586.69 1001.81 577.69 1010.5 569.5C1010.84 568.662 1011.51 568.328 1012.5 568.5C1023.57 564.733 1034.9 561.9 1046.5 560C1099.71 553.633 1147.71 566.3 1190.5 598C1184.28 606.714 1178.28 615.548 1172.5 624.5Z" fill="#FEFEFE"/>
<path opacity="0.999" fill-rule="evenodd" clip-rule="evenodd" d="M1825.5 917.5C1821.83 917.5 1818.17 917.5 1814.5 917.5C1809.35 916.35 1804.02 916.18 1798.5 917C1788.16 928.51 1776.83 938.68 1764.5 947.5C1763.71 948.4 1762.71 949.07 1761.5 949.5C1711.31 967.89 1660.31 970.39 1608.5 957C1580.26 948.88 1554.92 935.55 1532.5 917C1540.83 916.67 1549.17 916.33 1557.5 916C1514.71 878.6 1490.21 831.43 1484 774.5C1477.56 693.573 1505.72 627.906 1568.5 577.5C1569.51 576.326 1570.85 575.66 1572.5 575.5C1610.19 560.747 1649.19 555.58 1689.5 560C1780.22 572.581 1840.39 622.081 1870 708.5C1890.59 786.05 1875.76 855.72 1825.5 917.5ZM1746.5 885.5C1745.51 885.33 1744.84 885.66 1744.5 886.5C1685.23 903.24 1635.39 888.57 1595 842.5C1563.05 797.92 1556.05 749.59 1574 697.5C1583 674.02 1597.16 654.353 1616.5 638.5C1617.17 638.167 1617.83 637.833 1618.5 637.5C1675.86 621.047 1724.7 634.714 1765 678.5C1799.11 723.933 1806.78 773.6 1788 827.5C1778.57 850.08 1764.73 869.41 1746.5 885.5Z" fill="#FEFEFE"/>
<path opacity="0.985" fill-rule="evenodd" clip-rule="evenodd" d="M336.5 563.5C336.5 564.167 336.833 564.5 337.5 564.5C384.538 681.78 431.871 798.95 479.5 916C470.84 916.5 462.173 916.67 453.5 916.5C458.833 930.83 464.167 945.17 469.5 959.5C478.917 959.81 488.25 959.47 497.5 958.5C497.5 958.83 497.5 959.17 497.5 959.5C494.633 966.77 491.966 974.1 489.5 981.5C470.164 981.67 450.83 981.5 431.5 981C422.704 959.91 414.037 938.74 405.5 917.5C414.167 916.83 422.833 916.17 431.5 915.5C384.167 798.5 336.833 681.5 289.5 564.5C305.152 563.501 320.819 563.167 336.5 563.5Z" fill="#EDEDED"/>
<path opacity="0.981" fill-rule="evenodd" clip-rule="evenodd" d="M630.5 563.5C630.5 563.833 630.5 564.167 630.5 564.5C595.82 651.705 560.654 738.71 525 825.5C520.239 813.69 515.405 802.03 510.5 790.5C510.5 789.5 510.5 788.5 510.5 787.5C540.318 713.192 570.151 638.859 600 564.5C610.08 563.514 620.25 563.181 630.5 563.5Z" fill="#EDEDED"/>
<path opacity="0.98" fill-rule="evenodd" clip-rule="evenodd" d="M796.5 563.5C810.68 563.171 824.68 563.504 838.5 564.5C824.5 564.5 810.5 564.5 796.5 564.5C796.5 681.833 796.5 799.17 796.5 916.5C787.5 916.5 778.5 916.5 769.5 916.5C769.5 930.83 769.5 945.17 769.5 959.5C783.83 959.5 798.17 959.5 812.5 959.5C812.5 966.83 812.5 974.17 812.5 981.5C785.5 981.5 758.5 981.5 731.5 981.5C731.5 959.83 731.5 938.17 731.5 916.5C740.17 916.5 748.83 916.5 757.5 916.5C757.5 798.83 757.5 681.167 757.5 563.5C770.5 563.5 783.5 563.5 796.5 563.5Z" fill="#ECECEC"/>
<path opacity="0.994" fill-rule="evenodd" clip-rule="evenodd" d="M1315.5 563.5C1315.5 564.167 1315.83 564.5 1316.5 564.5C1316.5 681.833 1316.5 799.17 1316.5 916.5C1307.5 916.5 1298.5 916.5 1289.5 916.5C1289.5 930.83 1289.5 945.17 1289.5 959.5C1303.17 959.5 1316.83 959.5 1330.5 959.5C1330.17 944.99 1330.5 930.66 1331.5 916.5C1331.5 930.83 1331.5 945.17 1331.5 959.5C1331.5 966.83 1331.5 974.17 1331.5 981.5C1304.5 981.5 1277.5 981.5 1250.5 981.5C1250.5 959.83 1250.5 938.17 1250.5 916.5C1259.5 916.5 1268.5 916.5 1277.5 916.5C1277.5 798.83 1277.5 681.167 1277.5 563.5C1290.17 563.5 1302.83 563.5 1315.5 563.5Z" fill="#EDEDED"/>
<path opacity="0.982" fill-rule="evenodd" clip-rule="evenodd" d="M2003.5 563.5C2003.5 563.833 2003.5 564.167 2003.5 564.5C2003.5 681.833 2003.5 799.17 2003.5 916.5C1994.5 916.5 1985.5 916.5 1976.5 916.5C1976.5 930.83 1976.5 945.17 1976.5 959.5C1988.83 959.5 2001.17 959.5 2013.5 959.5C2008.09 967.09 2002.09 974.25 1995.5 981C1976.17 981.5 1956.84 981.67 1937.5 981.5C1937.5 959.83 1937.5 938.17 1937.5 916.5C1946.5 916.5 1955.5 916.5 1964.5 916.5C1964.5 798.83 1964.5 681.167 1964.5 563.5C1977.5 563.5 1990.5 563.5 2003.5 563.5Z" fill="#ECEDEC"/>
<path opacity="0.964" fill-rule="evenodd" clip-rule="evenodd" d="M2297.5 563.5C2297.5 563.833 2297.5 564.167 2297.5 564.5C2226.53 646.975 2155.7 729.64 2085 812.5C2084.83 805.32 2084.33 798.32 2083.5 791.5C2084.11 790.61 2084.44 789.61 2084.5 788.5C2148.82 714.172 2212.82 639.506 2276.5 564.5C2283.47 563.503 2290.47 563.17 2297.5 563.5Z" fill="#EDEDED"/>
<path opacity="0.999" fill-rule="evenodd" clip-rule="evenodd" d="M337.5 564.5C349.5 564.5 361.5 564.5 373.5 564.5C410.572 659.046 448.239 753.38 486.5 847.5C494.517 828.43 502.517 809.43 510.5 790.5C515.405 802.03 520.239 813.69 525 825.5C560.654 738.71 595.82 651.705 630.5 564.5C648.17 564.333 665.84 564.5 683.5 565C636.14 681.403 588.98 797.9 542 914.5C533.092 916.29 523.926 917.13 514.5 917C508.689 930.79 503.022 944.62 497.5 958.5C488.25 959.47 478.917 959.81 469.5 959.5C464.167 945.17 458.833 930.83 453.5 916.5C462.173 916.67 470.84 916.5 479.5 916C431.871 798.95 384.538 681.78 337.5 564.5Z" fill="#FEFEFE"/>
<path opacity="0.997" fill-rule="evenodd" clip-rule="evenodd" d="M838.5 564.5C839.5 681.999 839.83 799.67 839.5 917.5C830.5 917.5 821.5 917.5 812.5 917.5C812.5 931.5 812.5 945.5 812.5 959.5C798.17 959.5 783.83 959.5 769.5 959.5C769.5 945.17 769.5 930.83 769.5 916.5C778.5 916.5 787.5 916.5 796.5 916.5C796.5 799.17 796.5 681.833 796.5 564.5C810.5 564.5 824.5 564.5 838.5 564.5Z" fill="#FEFEFE"/>
<path fill-rule="evenodd" clip-rule="evenodd" d="M1316.5 564.5C1330.17 564.5 1343.83 564.5 1357.5 564.5C1357.5 681.833 1357.5 799.17 1357.5 916.5C1348.83 916.5 1340.17 916.5 1331.5 916.5C1330.5 930.66 1330.17 944.99 1330.5 959.5C1316.83 959.5 1303.17 959.5 1289.5 959.5C1289.5 945.17 1289.5 930.83 1289.5 916.5C1298.5 916.5 1307.5 916.5 1316.5 916.5C1316.5 799.17 1316.5 681.833 1316.5 564.5Z" fill="#FEFEFE"/>
<path opacity="0.999" fill-rule="evenodd" clip-rule="evenodd" d="M2003.5 564.5C2017.5 564.5 2031.5 564.5 2045.5 564.5C2045.33 654.834 2045.5 745.17 2046 835.5C2058.28 820.58 2070.78 805.91 2083.5 791.5C2084.33 798.32 2084.83 805.32 2085 812.5C2155.7 729.64 2226.53 646.975 2297.5 564.5C2309.5 564.5 2321.5 564.5 2333.5 564.5C2333.5 681.833 2333.5 799.17 2333.5 916.5C2324.83 916.5 2316.17 916.5 2307.5 916.5C2306.5 930.66 2306.17 944.99 2306.5 959.5C2292.83 959.5 2279.17 959.5 2265.5 959.5C2265.5 945.17 2265.5 930.83 2265.5 916.5C2274.5 916.5 2283.5 916.5 2292.5 916.5C2292.67 840.83 2292.5 765.17 2292 689.5C2279.3 704.36 2266.47 719.026 2253.5 733.5C2253.67 725.826 2253.5 718.159 2253 710.5C2193.96 779.37 2135.12 848.37 2076.5 917.5C2074.17 917.5 2071.83 917.5 2069.5 917.5C2063.01 916.35 2056.35 916.18 2049.5 917C2037.29 931.04 2025.29 945.21 2013.5 959.5C2001.17 959.5 1988.83 959.5 1976.5 959.5C1976.5 945.17 1976.5 930.83 1976.5 916.5C1985.5 916.5 1994.5 916.5 2003.5 916.5C2003.5 799.17 2003.5 681.833 2003.5 564.5Z" fill="#FEFEFE"/>
<path opacity="0.985" fill-rule="evenodd" clip-rule="evenodd" d="M1010.5 569.5C1001.81 577.69 993.98 586.69 987 596.5C964.7 635.419 965.03 674.086 988 712.5C1004.64 733.75 1025.47 749.58 1050.5 760C1076.06 770.12 1101.4 780.78 1126.5 792C1132.34 795.42 1138 799.08 1143.5 803C1155.84 812.86 1162.51 825.69 1163.5 841.5C1160.45 871.21 1144.12 888.21 1114.5 892.5C1128.43 871.04 1127.26 850.37 1111 830.5C1099.76 820.79 1087.26 812.96 1073.5 807C1045.92 796.71 1018.92 785.04 992.5 772C939.69 741.85 921.52 697.352 938 638.5C951.97 604.697 976.13 581.697 1010.5 569.5Z" fill="#EDEDED"/>
<path opacity="0.982" fill-rule="evenodd" clip-rule="evenodd" d="M1568.5 577.5C1505.72 627.906 1477.56 693.573 1484 774.5C1490.21 831.43 1514.71 878.6 1557.5 916C1549.17 916.33 1540.83 916.67 1532.5 917C1554.92 935.55 1580.26 948.88 1608.5 957C1660.31 970.39 1711.31 967.89 1761.5 949.5C1728.15 972.23 1691.15 984.73 1650.5 987C1580.23 991.48 1520.73 968.64 1472 918.5C1471.83 918.17 1471.67 917.83 1471.5 917.5C1479.81 916.67 1488.15 916.17 1496.5 916C1447.86 855.84 1433.03 788 1452 712.5C1468.41 655.775 1502.24 612.942 1553.5 584C1558.29 581.271 1563.29 579.104 1568.5 577.5Z" fill="#EDEDED"/>
<path opacity="0.977" fill-rule="evenodd" clip-rule="evenodd" d="M1172.5 624.5C1172.5 624.833 1172.5 625.167 1172.5 625.5C1164.89 636.284 1157.06 646.951 1149 657.5C1122.89 636.344 1093.06 627.678 1059.5 631.5C1060.88 628.606 1062.88 626.106 1065.5 624C1069.57 620.937 1073.9 618.27 1078.5 616C1111.1 604.394 1142.44 607.228 1172.5 624.5Z" fill="#EDEDED"/>
<path opacity="0.986" fill-rule="evenodd" clip-rule="evenodd" d="M1746.5 885.5C1764.73 869.41 1778.57 850.08 1788 827.5C1806.78 773.6 1799.11 723.933 1765 678.5C1724.7 634.714 1675.86 621.047 1618.5 637.5C1642.28 618.348 1669.61 608.681 1700.5 608.5C1766.48 612.565 1809.98 645.898 1831 708.5C1844.04 758.65 1835.04 804.32 1804 845.5C1788.32 863.92 1769.15 877.25 1746.5 885.5Z" fill="#EDEDED"/>
<path opacity="0.986" fill-rule="evenodd" clip-rule="evenodd" d="M1059.5 631.5C1047.56 650.427 1050.23 667.26 1067.5 682C1073.84 686.503 1080.5 690.503 1087.5 694C1108.39 702.943 1129.39 711.61 1150.5 720C1174.77 729.71 1196.27 743.54 1215 761.5C1238.86 789.09 1248.19 821.09 1243 857.5C1239.62 880.1 1230.45 899.93 1215.5 917C1207.51 917.5 1199.51 917.67 1191.5 917.5C1196.62 906.63 1200.46 895.3 1203 883.5C1209.14 848.86 1201.81 817.53 1181 789.5C1162.06 768.9 1139.56 753.4 1113.5 743C1089.59 733.58 1065.92 723.585 1042.5 713C1037.56 710.394 1032.9 707.394 1028.5 704C1009.81 687.82 1007.65 669.654 1022 649.5C1032.59 639.625 1045.09 633.625 1059.5 631.5Z" fill="#C6C6C6"/>
<path opacity="0.985" fill-rule="evenodd" clip-rule="evenodd" d="M1616.5 638.5C1597.16 654.353 1583 674.02 1574 697.5C1556.05 749.59 1563.05 797.92 1595 842.5C1635.39 888.57 1685.23 903.24 1744.5 886.5C1720.42 905.86 1692.75 915.53 1661.5 915.5C1595.3 911.8 1551.8 878.47 1531 815.5C1516.24 758.37 1529.07 708.539 1569.5 666C1583.05 653.226 1598.71 644.059 1616.5 638.5Z" fill="#C6C6C6"/>
<path opacity="0.994" fill-rule="evenodd" clip-rule="evenodd" d="M2307.5 916.5C2307.5 930.83 2307.5 945.17 2307.5 959.5C2307.5 966.83 2307.5 974.17 2307.5 981.5C2280.5 981.5 2253.5 981.5 2226.5 981.5C2226.5 959.83 2226.5 938.17 2226.5 916.5C2235.5 916.5 2244.5 916.5 2253.5 916.5C2253.5 856.17 2253.5 795.83 2253.5 735.5C2253.5 734.83 2253.5 734.17 2253.5 733.5C2266.47 719.026 2279.3 704.36 2292 689.5C2292.5 765.17 2292.67 840.83 2292.5 916.5C2283.5 916.5 2274.5 916.5 2265.5 916.5C2265.5 930.83 2265.5 945.17 2265.5 959.5C2279.17 959.5 2292.83 959.5 2306.5 959.5C2306.17 944.99 2306.5 930.66 2307.5 916.5Z" fill="#EDEDED"/>
<path opacity="0.966" fill-rule="evenodd" clip-rule="evenodd" d="M2253.5 733.5C2253.5 734.17 2253.5 734.83 2253.5 735.5C2201.36 795.81 2149.36 856.31 2097.5 917C2090.51 917.5 2083.51 917.67 2076.5 917.5C2135.12 848.37 2193.96 779.37 2253 710.5C2253.5 718.159 2253.67 725.826 2253.5 733.5Z" fill="#C6C6C6"/>
<path opacity="0.979" fill-rule="evenodd" clip-rule="evenodd" d="M1114.5 892.5C1114.63 893.24 1114.46 893.91 1114 894.5C1103.04 906.23 1089.54 913.06 1073.5 915C1035.8 916.71 1003.13 904.88 975.5 879.5C975.17 878.83 974.83 878.17 974.5 877.5C984.84 867.83 994.84 857.83 1004.5 847.5C1030.63 876.15 1063.13 891.48 1102 893.5C1106.2 893.39 1110.37 893.06 1114.5 892.5Z" fill="#C6C6C6"/>
<path opacity="0.976" fill-rule="evenodd" clip-rule="evenodd" d="M974.5 877.5C974.83 878.17 975.17 878.83 975.5 879.5C974.76 879.37 974.09 879.54 973.5 880C966.53 887.97 959.2 895.64 951.5 903C956.5 907.33 961.5 911.67 966.5 916C958.17 916.33 949.83 916.67 941.5 917C957 929.59 974 939.93 992.5 948C1037.49 967.89 1083.49 970.72 1130.5 956.5C1095.37 982.24 1056.04 992.07 1012.5 986C963.63 979.06 921.63 958.56 886.5 924.5C887.93 921.57 889.93 919.07 892.5 917C901.83 916.67 911.17 916.33 920.5 916C935.17 900.67 949.83 885.33 964.5 870C965.64 869.25 966.64 869.42 967.5 870.5C969.52 873.19 971.85 875.52 974.5 877.5Z" fill="#EDEDED"/>
<path opacity="0.935" fill-rule="evenodd" clip-rule="evenodd" d="M1188.5 917.499C1172.92 934.629 1154.26 947.299 1132.5 955.499C1145.16 944.339 1155.82 931.509 1164.5 916.999C1172.68 916.179 1180.68 916.339 1188.5 917.499Z" fill="#C6C6C6"/>
<path opacity="0.906" fill-rule="evenodd" clip-rule="evenodd" d="M1814.5 917.5C1799.8 930.53 1783.13 940.53 1764.5 947.5C1776.83 938.68 1788.16 928.51 1798.5 917C1804.02 916.18 1809.35 916.35 1814.5 917.5Z" fill="#C7C7C7"/>
<path opacity="0.969" fill-rule="evenodd" clip-rule="evenodd" d="M2069.5 917.5C2058.07 931.44 2046.4 945.27 2034.5 959C2027.51 959.5 2020.51 959.67 2013.5 959.5C2025.29 945.21 2037.29 931.04 2049.5 917C2056.35 916.18 2063.01 916.35 2069.5 917.5Z" fill="#C6C6C6"/>
</svg>
