<?xml version="1.0" encoding="UTF-8"?>
<!DOCTYPE svg PUBLIC "-//W3C//DTD SVG 1.1//EN" "http://www.w3.org/Graphics/SVG/1.1/DTD/svg11.dtd">
<svg xmlns="http://www.w3.org/2000/svg" version="1.1" width="263px" height="83px" style="shape-rendering:geometricPrecision; text-rendering:geometricPrecision; image-rendering:optimizeQuality; fill-rule:evenodd; clip-rule:evenodd" xmlns:xlink="http://www.w3.org/1999/xlink">
<g><path style="opacity:0.594" fill="#fefffe" d="M 38.5,-0.5 C 40.5,-0.5 42.5,-0.5 44.5,-0.5C 53.199,3.59592 62.0323,7.59592 71,11.5C 75.1709,21.3504 79.3376,31.1837 83.5,41C 79.3376,50.8163 75.1709,60.6496 71,70.5C 62.0323,74.4041 53.199,78.4041 44.5,82.5C 42.5,82.5 40.5,82.5 38.5,82.5C 29.7235,78.3992 20.7235,74.5659 11.5,71C 7.57726,61.708 3.57726,52.5413 -0.5,43.5C -0.5,41.8333 -0.5,40.1667 -0.5,38.5C 3.60076,29.7235 7.43409,20.7235 11,11.5C 20.292,7.57726 29.4587,3.57726 38.5,-0.5 Z M 39.5,18.5 C 37.5739,20.2927 35.2406,21.2927 32.5,21.5C 34.4261,19.7073 36.7594,18.7073 39.5,18.5 Z M 42.5,18.5 C 44.5529,18.4021 46.2196,19.0687 47.5,20.5C 45.4471,20.5979 43.7804,19.9313 42.5,18.5 Z M 61.5,19.5 C 62.0768,18.2267 62.7435,18.2267 63.5,19.5C 63.0302,20.463 62.3635,20.463 61.5,19.5 Z M 47.5,20.5 C 50.2406,20.7073 52.5739,21.7073 54.5,23.5C 51.7594,23.2927 49.4261,22.2927 47.5,20.5 Z M 23.5,21.5 C 23.1667,22.5 22.5,23.1667 21.5,23.5C 21.5,22.1667 22.1667,21.5 23.5,21.5 Z M 32.5,21.5 C 31.2196,22.9313 29.5529,23.5979 27.5,23.5C 28.7804,22.0687 30.4471,21.4021 32.5,21.5 Z M 38.5,21.5 C 44.0492,22.349 49.3826,24.0157 54.5,26.5C 56.9616,31.2569 59.2949,36.0902 61.5,41C 59.3712,45.4258 57.3712,49.9258 55.5,54.5C 50.7431,56.9616 45.9098,59.2949 41,61.5C 36.106,59.2595 31.2727,56.9262 26.5,54.5C 24.5343,50.1022 22.8677,45.6022 21.5,41C 22.8155,35.8877 24.8155,31.0544 27.5,26.5C 31.3761,25.058 35.0428,23.3913 38.5,21.5 Z M 27.5,23.5 C 25.8333,24.5 24.5,25.8333 23.5,27.5C 23.1667,24.5 24.5,23.1667 27.5,23.5 Z M 54.5,23.5 C 58.0091,23.8079 59.6757,25.8079 59.5,29.5C 58.2993,27.0905 56.6326,25.0905 54.5,23.5 Z M 40.5,24.5 C 44.141,25.9847 47.8076,27.4847 51.5,29C 53.8772,32.7896 55.8772,36.7896 57.5,41C 55.871,44.4268 54.371,47.9268 53,51.5C 49.2104,53.8772 45.2104,55.8772 41,57.5C 37.5732,55.871 34.0732,54.371 30.5,53C 28.2442,49.155 26.2442,45.155 24.5,41C 26.1906,37.5991 27.6906,34.0991 29,30.5C 32.8159,28.3431 36.6493,26.3431 40.5,24.5 Z M 23.5,27.5 C 23.5979,29.5529 22.9313,31.2196 21.5,32.5C 21.4021,30.4471 22.0687,28.7804 23.5,27.5 Z M 39.5,28.5 C 52.0815,30.9963 55.5815,37.9963 50,49.5C 47.251,51.374 44.251,52.7073 41,53.5C 38.1667,52.3333 35.3333,51.1667 32.5,50C 30.9765,47.1005 29.6431,44.1005 28.5,41C 29.6667,38.1667 30.8333,35.3333 32,32.5C 34.6327,31.2475 37.1327,29.9142 39.5,28.5 Z M 59.5,29.5 C 60.9313,30.7804 61.5979,32.4471 61.5,34.5C 60.0687,33.2196 59.4021,31.5529 59.5,29.5 Z M 21.5,32.5 C 21.2927,35.2406 20.2927,37.5739 18.5,39.5C 18.7073,36.7594 19.7073,34.4261 21.5,32.5 Z M 38.5,32.5 C 48.0792,32.9979 51.0792,37.6646 47.5,46.5C 40.0367,51.4362 35.0367,49.6028 32.5,41C 32.9358,36.9296 34.9358,34.0963 38.5,32.5 Z M 61.5,34.5 C 65.5,38.8333 65.5,43.1667 61.5,47.5C 61.7239,45.2133 62.3906,43.0466 63.5,41C 62.3906,38.9534 61.7239,36.7867 61.5,34.5 Z M 40.5,35.5 C 48.3016,39.0613 48.4682,42.7279 41,46.5C 33.9331,42.9882 33.7665,39.3216 40.5,35.5 Z M 18.5,42.5 C 20.2927,44.4261 21.2927,46.7594 21.5,49.5C 19.7073,47.5739 18.7073,45.2406 18.5,42.5 Z M 61.5,47.5 C 61.5979,49.5529 60.9313,51.2196 59.5,52.5C 59.4021,50.4471 60.0687,48.7804 61.5,47.5 Z M 21.5,49.5 C 22.9313,50.7804 23.5979,52.4471 23.5,54.5C 22.0687,53.2196 21.4021,51.5529 21.5,49.5 Z M 64.5,49.5 C 64.5979,51.5529 63.9313,53.2196 62.5,54.5C 62.4021,52.4471 63.0687,50.7804 64.5,49.5 Z M 59.5,52.5 C 59.5,57.1667 57.1667,59.5 52.5,59.5C 53.6002,58.4415 54.9336,57.6082 56.5,57C 57.3994,55.3484 58.3994,53.8484 59.5,52.5 Z M 23.5,54.5 C 24.5,56.1667 25.8333,57.5 27.5,58.5C 24.5,58.8333 23.1667,57.5 23.5,54.5 Z M 21.5,58.5 C 22.5,58.8333 23.1667,59.5 23.5,60.5C 22.1667,60.5 21.5,59.8333 21.5,58.5 Z M 27.5,58.5 C 29.5529,58.4021 31.2196,59.0687 32.5,60.5C 30.4471,60.5979 28.7804,59.9313 27.5,58.5 Z M 52.5,59.5 C 51.2196,60.9313 49.5529,61.5979 47.5,61.5C 48.7804,60.0687 50.4471,59.4021 52.5,59.5 Z M 34.5,61.5 C 36.5529,61.4021 38.2196,62.0687 39.5,63.5C 37.4471,63.5979 35.7804,62.9313 34.5,61.5 Z M 47.5,61.5 C 46.2196,62.9313 44.5529,63.5979 42.5,63.5C 43.7804,62.0687 45.4471,61.4021 47.5,61.5 Z M 62.5,61.5 C 63.7733,62.0768 63.7733,62.7435 62.5,63.5C 61.537,63.0302 61.537,62.3635 62.5,61.5 Z"/></g>
<g><path style="opacity:0.742" fill="#fefffe" d="M 188.5,13.5 C 189.833,13.5 191.167,13.5 192.5,13.5C 192.5,20.8333 192.5,28.1667 192.5,35.5C 188.986,35.2361 185.319,35.0694 181.5,35C 176.191,30.3785 176.191,25.7118 181.5,21C 183.81,20.5034 186.143,20.3367 188.5,20.5C 188.5,18.1667 188.5,15.8333 188.5,13.5 Z M 183.5,24.5 C 188.068,24.0826 189.568,26.0826 188,30.5C 186.333,33.1667 184.667,33.1667 183,30.5C 182.322,28.4024 182.489,26.4024 183.5,24.5 Z"/></g>
<g><path style="opacity:0.754" fill="#fefffe" d="M 99.5,14.5 C 103.902,14.2281 108.235,14.5614 112.5,15.5C 114.633,18.128 114.966,20.9613 113.5,24C 116.695,28.5095 116.028,32.1762 111.5,35C 107.514,35.4988 103.514,35.6655 99.5,35.5C 99.5,28.5 99.5,21.5 99.5,14.5 Z M 103.5,18.5 C 105.527,18.3379 107.527,18.5045 109.5,19C 110.833,20 110.833,21 109.5,22C 107.527,22.4955 105.527,22.6621 103.5,22.5C 103.5,21.1667 103.5,19.8333 103.5,18.5 Z M 103.5,26.5 C 106.665,25.9635 109.331,26.7969 111.5,29C 109.347,31.1651 106.681,31.9984 103.5,31.5C 103.5,29.8333 103.5,28.1667 103.5,26.5 Z"/></g>
<g><path style="opacity:0.466" fill="#fefffe" d="M 39.5,18.5 C 40.5,18.5 41.5,18.5 42.5,18.5C 43.7804,19.9313 45.4471,20.5979 47.5,20.5C 49.4261,22.2927 51.7594,23.2927 54.5,23.5C 56.6326,25.0905 58.2993,27.0905 59.5,29.5C 59.4021,31.5529 60.0687,33.2196 61.5,34.5C 61.7239,36.7867 62.3906,38.9534 63.5,41C 62.3906,43.0466 61.7239,45.2133 61.5,47.5C 60.0687,48.7804 59.4021,50.4471 59.5,52.5C 58.3994,53.8484 57.3994,55.3484 56.5,57C 54.9336,57.6082 53.6002,58.4415 52.5,59.5C 50.4471,59.4021 48.7804,60.0687 47.5,61.5C 45.4471,61.4021 43.7804,62.0687 42.5,63.5C 41.5,63.5 40.5,63.5 39.5,63.5C 38.2196,62.0687 36.5529,61.4021 34.5,61.5C 34.1583,60.6618 33.4916,60.3284 32.5,60.5C 31.2196,59.0687 29.5529,58.4021 27.5,58.5C 25.8333,57.5 24.5,56.1667 23.5,54.5C 23.5979,52.4471 22.9313,50.7804 21.5,49.5C 21.2927,46.7594 20.2927,44.4261 18.5,42.5C 18.5,41.5 18.5,40.5 18.5,39.5C 20.2927,37.5739 21.2927,35.2406 21.5,32.5C 22.9313,31.2196 23.5979,29.5529 23.5,27.5C 24.5,25.8333 25.8333,24.5 27.5,23.5C 29.5529,23.5979 31.2196,22.9313 32.5,21.5C 35.2406,21.2927 37.5739,20.2927 39.5,18.5 Z M 38.5,21.5 C 35.0428,23.3913 31.3761,25.058 27.5,26.5C 24.8155,31.0544 22.8155,35.8877 21.5,41C 22.8677,45.6022 24.5343,50.1022 26.5,54.5C 31.2727,56.9262 36.106,59.2595 41,61.5C 45.9098,59.2949 50.7431,56.9616 55.5,54.5C 57.3712,49.9258 59.3712,45.4258 61.5,41C 59.2949,36.0902 56.9616,31.2569 54.5,26.5C 49.3826,24.0157 44.0492,22.349 38.5,21.5 Z M 40.5,24.5 C 36.6493,26.3431 32.8159,28.3431 29,30.5C 27.6906,34.0991 26.1906,37.5991 24.5,41C 26.2442,45.155 28.2442,49.155 30.5,53C 34.0732,54.371 37.5732,55.871 41,57.5C 45.2104,55.8772 49.2104,53.8772 53,51.5C 54.371,47.9268 55.871,44.4268 57.5,41C 55.8772,36.7896 53.8772,32.7896 51.5,29C 47.8076,27.4847 44.141,25.9847 40.5,24.5 Z M 39.5,28.5 C 37.1327,29.9142 34.6327,31.2475 32,32.5C 30.8333,35.3333 29.6667,38.1667 28.5,41C 29.6431,44.1005 30.9765,47.1005 32.5,50C 35.3333,51.1667 38.1667,52.3333 41,53.5C 44.251,52.7073 47.251,51.374 50,49.5C 55.5815,37.9963 52.0815,30.9963 39.5,28.5 Z M 38.5,32.5 C 34.9358,34.0963 32.9358,36.9296 32.5,41C 35.0367,49.6028 40.0367,51.4362 47.5,46.5C 51.0792,37.6646 48.0792,32.9979 38.5,32.5 Z M 40.5,35.5 C 33.7665,39.3216 33.9331,42.9882 41,46.5C 48.4682,42.7279 48.3016,39.0613 40.5,35.5 Z"/></g>
<g><path style="opacity:0.712" fill="#fefffe" d="M 120.5,20.5 C 127.798,19.135 131.465,22.135 131.5,29.5C 128.102,29.1796 124.768,29.513 121.5,30.5C 122.242,31.2868 123.075,31.9535 124,32.5C 126.243,30.718 128.743,30.218 131.5,31C 128.66,35.5422 124.66,36.7088 119.5,34.5C 115.363,29.516 115.697,24.8493 120.5,20.5 Z M 122.5,24.5 C 123.978,24.238 125.311,24.5713 126.5,25.5C 124.926,26.6309 123.259,26.7975 121.5,26C 122.056,25.6174 122.389,25.1174 122.5,24.5 Z"/></g>
<g><path style="opacity:0.685" fill="#fefffe" d="M 130.5,20.5 C 132.288,20.2148 133.955,20.5481 135.5,21.5C 137.468,29.4649 139.468,29.4649 141.5,21.5C 142.689,20.5713 144.022,20.238 145.5,20.5C 143.629,27.7765 140.962,34.7765 137.5,41.5C 135.926,42.6309 134.259,42.7975 132.5,42C 133.562,39.2095 134.895,36.5428 136.5,34C 134.207,29.6179 132.207,25.1179 130.5,20.5 Z"/></g>
<g><path style="opacity:0.706" fill="#fefffe" d="M 149.5,20.5 C 158.889,19.3872 162.389,23.3872 160,32.5C 155.998,36.1225 151.665,36.4558 147,33.5C 144.458,28.4379 145.292,24.1046 149.5,20.5 Z M 151.5,24.5 C 156.068,24.0826 157.568,26.0826 156,30.5C 152.851,33.0269 150.685,32.1935 149.5,28C 149.978,26.6974 150.645,25.5307 151.5,24.5 Z"/></g>
<g><path style="opacity:0.71" fill="#fefffe" d="M 162.5,20.5 C 165.262,21.3527 167.929,21.3527 170.5,20.5C 172.374,20.3898 173.874,21.0564 175,22.5C 176.367,26.6996 176.867,31.0329 176.5,35.5C 175.167,35.5 173.833,35.5 172.5,35.5C 172.665,32.4816 172.498,29.4816 172,26.5C 170.333,23.8333 168.667,23.8333 167,26.5C 166.502,29.4816 166.335,32.4816 166.5,35.5C 165.167,35.5 163.833,35.5 162.5,35.5C 162.5,30.5 162.5,25.5 162.5,20.5 Z"/></g>
<g><path style="opacity:0.405" fill="#fefffe" d="M 39.5,22.5 C 45.2791,23.6424 50.4458,25.9758 55,29.5C 56.5,33.3333 58,37.1667 59.5,41C 57.9246,46.1509 55.5913,50.8175 52.5,55C 48.6667,56.5 44.8333,58 41,59.5C 36.7935,57.9312 32.6268,56.2645 28.5,54.5C 26.093,50.1855 24.093,45.6855 22.5,41C 24.6689,36.6573 26.3355,32.1573 27.5,27.5C 31.7868,26.3517 35.7868,24.685 39.5,22.5 Z M 40.5,24.5 C 36.6493,26.3431 32.8159,28.3431 29,30.5C 27.6906,34.0991 26.1906,37.5991 24.5,41C 26.2442,45.155 28.2442,49.155 30.5,53C 34.0732,54.371 37.5732,55.871 41,57.5C 45.2104,55.8772 49.2104,53.8772 53,51.5C 54.371,47.9268 55.871,44.4268 57.5,41C 55.8772,36.7896 53.8772,32.7896 51.5,29C 47.8076,27.4847 44.141,25.9847 40.5,24.5 Z M 39.5,28.5 C 37.1327,29.9142 34.6327,31.2475 32,32.5C 30.8333,35.3333 29.6667,38.1667 28.5,41C 29.6431,44.1005 30.9765,47.1005 32.5,50C 35.3333,51.1667 38.1667,52.3333 41,53.5C 44.251,52.7073 47.251,51.374 50,49.5C 55.5815,37.9963 52.0815,30.9963 39.5,28.5 Z M 38.5,32.5 C 34.9358,34.0963 32.9358,36.9296 32.5,41C 35.0367,49.6028 40.0367,51.4362 47.5,46.5C 51.0792,37.6646 48.0792,32.9979 38.5,32.5 Z M 40.5,35.5 C 33.7665,39.3216 33.9331,42.9882 41,46.5C 48.4682,42.7279 48.3016,39.0613 40.5,35.5 Z"/></g>
<g><path style="opacity:0.349" fill="#fefffe" d="M 39.5,26.5 C 43.4372,27.0351 47.1039,28.3685 50.5,30.5C 52.8325,33.6657 54.4992,37.1657 55.5,41C 51.5801,54.1309 43.5801,57.6309 31.5,51.5C 29.3582,48.2495 27.6916,44.7495 26.5,41C 27.7358,37.7926 29.0692,34.6259 30.5,31.5C 33.4791,29.6333 36.4791,27.9667 39.5,26.5 Z M 39.5,28.5 C 37.1327,29.9142 34.6327,31.2475 32,32.5C 30.8333,35.3333 29.6667,38.1667 28.5,41C 29.6431,44.1005 30.9765,47.1005 32.5,50C 35.3333,51.1667 38.1667,52.3333 41,53.5C 44.251,52.7073 47.251,51.374 50,49.5C 55.5815,37.9963 52.0815,30.9963 39.5,28.5 Z M 38.5,32.5 C 34.9358,34.0963 32.9358,36.9296 32.5,41C 35.0367,49.6028 40.0367,51.4362 47.5,46.5C 51.0792,37.6646 48.0792,32.9979 38.5,32.5 Z M 40.5,35.5 C 33.7665,39.3216 33.9331,42.9882 41,46.5C 48.4682,42.7279 48.3016,39.0613 40.5,35.5 Z"/></g>
<g><path style="opacity:0.255" fill="#fefffe" d="M 39.5,30.5 C 49.986,32.1418 53.1527,37.8085 49,47.5C 44.534,51.8835 39.7007,52.3835 34.5,49C 30.1165,44.534 29.6165,39.7007 33,34.5C 35.0129,32.7518 37.1795,31.4185 39.5,30.5 Z M 38.5,32.5 C 34.9358,34.0963 32.9358,36.9296 32.5,41C 35.0367,49.6028 40.0367,51.4362 47.5,46.5C 51.0792,37.6646 48.0792,32.9979 38.5,32.5 Z M 40.5,35.5 C 33.7665,39.3216 33.9331,42.9882 41,46.5C 48.4682,42.7279 48.3016,39.0613 40.5,35.5 Z"/></g>
<g><path style="opacity:0.149" fill="#fefffe" d="M 39.5,34.5 C 46.5629,35.1513 48.7296,38.818 46,45.5C 40.341,48.7241 36.5077,47.2241 34.5,41C 35.1214,37.8774 36.7881,35.7107 39.5,34.5 Z M 40.5,35.5 C 33.7665,39.3216 33.9331,42.9882 41,46.5C 48.4682,42.7279 48.3016,39.0613 40.5,35.5 Z"/></g>
<g><path style="opacity:0.747" fill="#fefffe" d="M 158.5,45.5 C 159.833,45.5 161.167,45.5 162.5,45.5C 162.336,48.1873 162.503,50.854 163,53.5C 166.206,51.8756 168.872,52.5422 171,55.5C 171.499,59.4862 171.666,63.4862 171.5,67.5C 170.167,67.5 168.833,67.5 167.5,67.5C 167.665,64.1501 167.498,60.8168 167,57.5C 165.667,56.1667 164.333,56.1667 163,57.5C 162.502,60.8168 162.335,64.1501 162.5,67.5C 161.167,67.5 159.833,67.5 158.5,67.5C 158.5,60.1667 158.5,52.8333 158.5,45.5 Z"/></g>
<g><path style="opacity:0.748" fill="#fefffe" d="M 199.5,45.5 C 200.833,45.5 202.167,45.5 203.5,45.5C 203.5,52.8333 203.5,60.1667 203.5,67.5C 199.655,67.2886 195.655,67.1219 191.5,67C 187.5,62.6667 187.5,58.3333 191.5,54C 193.955,52.3695 196.455,52.2028 199,53.5C 199.497,50.854 199.664,48.1873 199.5,45.5 Z M 194.5,56.5 C 199.068,56.0826 200.568,58.0826 199,62.5C 195.86,65.0321 193.693,64.1987 192.5,60C 193.305,58.8873 193.972,57.7206 194.5,56.5 Z"/></g>
<g><path style="opacity:0.73" fill="#fefffe" d="M 222.5,45.5 C 223.833,45.5 225.167,45.5 226.5,45.5C 226.5,52.8333 226.5,60.1667 226.5,67.5C 225.167,67.5 223.833,67.5 222.5,67.5C 222.5,60.1667 222.5,52.8333 222.5,45.5 Z"/></g>
<g><path style="opacity:0.75" fill="#fefffe" d="M 115.5,55.5 C 112.628,59.4681 108.628,61.1347 103.5,60.5C 103.5,62.8333 103.5,65.1667 103.5,67.5C 102.167,67.5 100.833,67.5 99.5,67.5C 99.5,60.5 99.5,53.5 99.5,46.5C 104.297,46.1211 108.964,46.6211 113.5,48C 114.867,50.3015 115.534,52.8015 115.5,55.5 Z M 103.5,50.5 C 105.527,50.3379 107.527,50.5045 109.5,51C 110.991,53.0217 110.658,54.6883 108.5,56C 106.866,56.4935 105.199,56.6602 103.5,56.5C 103.5,54.5 103.5,52.5 103.5,50.5 Z"/></g>
<g><path style="opacity:0.601" fill="#fefffe" d="M 228.5,46.5 C 231.95,45.7564 233.616,47.0897 233.5,50.5C 231.833,50.5 230.167,50.5 228.5,50.5C 228.5,49.1667 228.5,47.8333 228.5,46.5 Z"/></g>
<g><path style="opacity:0.688" fill="#fefffe" d="M 127.5,55.5 C 127.5,56.5 127.5,57.5 127.5,58.5C 123.757,58.4592 123.59,59.1259 127,60.5C 127.896,63.025 127.396,65.1917 125.5,67C 122.833,67.6667 120.167,67.6667 117.5,67C 115.963,65.8904 115.297,64.3904 115.5,62.5C 117.827,62.2471 119.827,62.9137 121.5,64.5C 122.308,64.1924 122.975,63.6924 123.5,63C 121.541,62.0691 119.541,61.2357 117.5,60.5C 116.05,59.1502 115.383,57.4835 115.5,55.5C 119.5,51.5 123.5,51.5 127.5,55.5 Z M 120.5,56.5 C 122.983,56.73 123.483,57.3966 122,58.5C 120.97,58.1639 120.47,57.4972 120.5,56.5 Z"/></g>
<g><path style="opacity:0.689" fill="#fefffe" d="M 127.5,55.5 C 127.5,54.5 127.5,53.5 127.5,52.5C 129.144,52.2865 130.644,52.6198 132,53.5C 133.197,56.0891 134.197,58.7558 135,61.5C 135.803,58.7558 136.803,56.0891 138,53.5C 139.356,52.6198 140.856,52.2865 142.5,52.5C 139.833,59.8333 137.167,67.1667 134.5,74.5C 132.712,74.7852 131.045,74.4519 129.5,73.5C 133.29,67.0514 132.623,61.0514 127.5,55.5 Z"/></g>
<g><path style="opacity:0.697" fill="#fefffe" d="M 146.5,52.5 C 151.254,51.5432 154.587,53.2098 156.5,57.5C 154.449,60.215 152.783,60.0483 151.5,57C 148.433,55.8358 146.767,56.8358 146.5,60C 146.439,61.7106 147.106,63.044 148.5,64C 150.832,62.5958 153.499,61.7624 156.5,61.5C 156.607,63.9032 155.607,65.7365 153.5,67C 144.667,68.8333 141.167,65.3333 143,56.5C 143.69,54.6498 144.856,53.3164 146.5,52.5 Z"/></g>
<g><path style="opacity:0.739" fill="#fefffe" d="M 177.5,52.5 C 184.633,51.3875 187.966,54.3875 187.5,61.5C 184.15,61.335 180.817,61.5017 177.5,62C 179.829,64.7374 182.496,64.9041 185.5,62.5C 187.711,64.0522 187.378,65.5522 184.5,67C 175.667,68.8333 172.167,65.3333 174,56.5C 174.69,54.6498 175.856,53.3164 177.5,52.5 Z M 178.5,56.5 C 180.429,56.2308 182.095,56.7308 183.5,58C 181.5,58.6667 179.5,58.6667 177.5,58C 178.056,57.6174 178.389,57.1174 178.5,56.5 Z"/></g>
<g><path style="opacity:0.73" fill="#fefffe" d="M 210.5,52.5 C 217.017,52.0183 220.35,55.0183 220.5,61.5C 217.102,61.1796 213.768,61.513 210.5,62.5C 212.093,64.6603 213.76,64.827 215.5,63C 221.478,61.6634 222.145,62.9968 217.5,67C 207.294,69.131 203.794,65.2976 207,55.5C 208.145,54.3636 209.312,53.3636 210.5,52.5 Z M 211.5,56.5 C 212.978,56.238 214.311,56.5713 215.5,57.5C 213.926,58.6309 212.259,58.7975 210.5,58C 211.056,57.6174 211.389,57.1174 211.5,56.5 Z"/></g>
<g><path style="opacity:0.706" fill="#fefffe" d="M 228.5,52.5 C 229.833,52.5 231.167,52.5 232.5,52.5C 232.5,57.5 232.5,62.5 232.5,67.5C 231.167,67.5 229.833,67.5 228.5,67.5C 228.5,62.5 228.5,57.5 228.5,52.5 Z"/></g>
<g><path style="opacity:0.69" fill="#fefffe" d="M 239.5,52.5 C 244.155,51.9929 247.488,53.8263 249.5,58C 247.125,60.1532 245.125,59.8198 243.5,57C 240.678,56.3013 239.012,57.4679 238.5,60.5C 239.167,62.5 240.5,63.8333 242.5,64.5C 246.964,61.0932 251.631,61.0932 256.5,64.5C 256.833,64.1667 257.167,63.8333 257.5,63.5C 255.711,62.1228 253.711,61.1228 251.5,60.5C 249.786,57.2299 250.452,54.7299 253.5,53C 258.553,51.6763 261.22,53.5097 261.5,58.5C 257.757,58.4592 257.59,59.1259 261,60.5C 261.758,62.7695 261.591,64.9361 260.5,67C 257.833,67.6667 255.167,67.6667 252.5,67C 251.23,66.1004 250.23,64.9337 249.5,63.5C 245.705,68.0395 241.205,68.7061 236,65.5C 233.325,60.011 234.492,55.6776 239.5,52.5 Z M 254.5,57.5 C 255.386,56.2241 256.386,56.2241 257.5,57.5C 256.575,58.5624 255.575,58.5624 254.5,57.5 Z"/></g>
</svg>
