<svg width="175" height="62" viewBox="0 0 175 62" fill="none" xmlns="http://www.w3.org/2000/svg">
<path fill-rule="evenodd" clip-rule="evenodd" d="M8.49992 0.5C9.11732 0.6107 9.61732 0.944 9.99992 1.5C10.1709 6.5329 10.6709 11.5329 11.4999 16.5C19.1483 11.1714 26.815 11.1714 34.4999 16.5C40.5522 22.326 42.5522 29.326 40.4999 37.5C32.1089 50.556 21.6089 52.556 8.99992 43.5C7.13942 41.112 5.80602 38.446 4.99992 35.5C4.50002 23.838 4.33342 12.1714 4.49992 0.5C5.83322 0.5 7.16662 0.5 8.49992 0.5Z" fill="white"/>
<path fill-rule="evenodd" clip-rule="evenodd" d="M20.4998 18.5C32.5419 19.702 36.7086 26.035 32.9998 37.5C26.6692 45.102 20.0026 45.435 12.9998 38.5C8.52059 29.136 11.0206 22.47 20.4998 18.5Z" fill="black"/>
<path fill-rule="evenodd" clip-rule="evenodd" d="M129.5 49.5003C126.494 57.1773 120.828 61.1773 112.5 61.5003C112.5 59.5003 112.5 57.5003 112.5 55.5003C118.889 54.9413 122.389 51.6083 123 45.5003C112.472 51.9963 103.472 50.3303 96 40.5003C94.539 37.3213 93.705 33.9883 93.5 30.5003C94.401 22.9523 98.068 17.2859 104.5 13.5003C116.87 10.2685 125.37 14.6018 130 26.5003C130.731 34.2023 130.564 41.8693 129.5 49.5003Z" fill="white"/>
<path fill-rule="evenodd" clip-rule="evenodd" d="M143.5 44.4999C141.308 41.4499 139.642 38.1169 138.5 34.4999C138.335 31.1499 138.502 27.8169 139 24.4999C145.904 11.8838 155.571 9.21706 168 16.4999C168.49 15.2067 168.657 13.8733 168.5 12.4999C170.467 12.2605 172.301 12.5938 174 13.4999C174.667 25.1669 174.667 36.8329 174 48.4999C172.301 49.4059 170.467 49.7389 168.5 49.4999C168.657 48.1269 168.49 46.7929 168 45.4999C159.547 51.0949 151.38 50.7619 143.5 44.4999Z" fill="white"/>
<path fill-rule="evenodd" clip-rule="evenodd" d="M55.4998 14.4997C55.4998 19.8327 55.4998 25.1667 55.4998 30.4997C55.1414 34.9497 56.8081 38.4497 60.4998 40.9997C68.7882 45.0137 74.9549 42.8477 78.9998 34.4997C79.4998 27.1737 79.6658 19.8407 79.4998 12.4997C81.4668 12.2603 83.3008 12.5936 84.9998 13.4997C85.9048 21.9107 85.5718 30.2447 83.9998 38.4997C82.9388 41.5617 81.1058 44.0617 78.4998 45.9997C64.0565 52.6947 54.2231 48.5277 48.9998 33.4997C48.5002 26.5077 48.3335 19.5077 48.4998 12.4997C51.1878 12.1655 53.5212 12.8322 55.4998 14.4997Z" fill="white"/>
<path fill-rule="evenodd" clip-rule="evenodd" d="M153.5 18.5C165.893 19.298 170.393 25.632 167 37.5C158.287 46.158 150.954 45.158 145 34.5C143.907 27.016 146.741 21.683 153.5 18.5Z" fill="black"/>
<path fill-rule="evenodd" clip-rule="evenodd" d="M109.5 18.5C123.651 20.455 127.317 27.622 120.5 40C109.615 46.057 102.615 43.057 99.5 31C100.143 24.538 103.476 20.371 109.5 18.5Z" fill="black"/>
<path fill-rule="evenodd" clip-rule="evenodd" d="M6.5 46.4996C6.8333 47.1666 7.1667 47.8326 7.5 48.4996C7.719 49.6746 7.3857 50.6746 6.5 51.4996C3.7328 53.1156 1.7328 52.4486 0.5 49.4996C1.7118 47.0766 3.7118 46.0766 6.5 46.4996Z" fill="white"/>
</svg>
