<?xml version="1.0" standalone="no"?>
<!DOCTYPE svg PUBLIC "-//W3C//DTD SVG 20010904//EN"
 "http://www.w3.org/TR/2001/REC-SVG-20010904/DTD/svg10.dtd">
<svg version="1.0" xmlns="http://www.w3.org/2000/svg"
 width="2560.000000pt" height="376.000000pt" viewBox="0 0 2560.000000 376.000000"
 preserveAspectRatio="xMidYMid meet">

<g transform="translate(0.000000,376.000000) scale(0.100000,-0.100000)"
fill="#fff" stroke="none">
<path d="M1935 3719 c-1217 -53 -1558 -158 -1736 -534 -108 -230 -177 -669
-186 -1200 -9 -531 41 -986 143 -1295 145 -437 417 -559 1394 -625 264 -17
672 -35 818 -35 l102 0 0 234 0 234 -62 6 c-35 3 -137 10 -228 16 -438 29
-652 91 -762 219 -132 154 -193 514 -193 1141 0 418 24 683 80 898 71 270 194
371 520 426 99 17 345 41 528 51 l117 7 0 234 0 234 -172 -2 c-95 0 -258 -5
-363 -9z"/>
<path d="M3020 3496 l0 -233 118 -7 c64 -4 191 -14 282 -22 644 -58 754 -162
825 -779 38 -339 39 -792 0 -1143 -62 -562 -171 -696 -623 -761 -122 -18 -205
-25 -519 -47 l-83 -6 0 -234 0 -234 98 0 c244 0 928 38 1187 66 596 64 838
177 978 459 179 361 252 1258 161 1995 -22 180 -69 409 -110 530 -123 369
-359 509 -982 580 -290 33 -930 70 -1214 70 l-118 0 0 -234z"/>
<path d="M6820 3263 c23 -32 87 -122 143 -200 l101 -143 262 0 262 0 134 187
c73 102 137 192 141 200 7 11 -29 13 -202 13 l-210 0 -62 -101 -62 -100 -61
100 -61 101 -213 0 -213 0 41 -57z"/>
<path d="M22040 2997 c-113 -26 -154 -82 -154 -212 -1 -98 24 -150 88 -186 35
-20 58 -24 158 -27 107 -4 121 -2 171 21 71 32 98 75 105 165 8 119 -28 194
-110 227 -55 21 -188 28 -258 12z"/>
<path d="M13415 2779 c-60 -116 -111 -215 -113 -220 -2 -5 75 -9 175 -9 l178
0 170 202 c94 111 176 210 183 220 13 17 4 18 -235 18 l-248 0 -110 -211z"/>
<path d="M11220 1965 l0 -975 225 0 225 0 0 975 0 975 -225 0 -225 0 0 -975z"/>
<path d="M17850 1965 l0 -975 220 0 220 0 0 975 0 975 -220 0 -220 0 0 -975z"/>
<path d="M7165 2816 c-380 -63 -637 -289 -735 -648 -28 -104 -41 -263 -30
-384 38 -434 286 -722 700 -811 118 -25 417 -25 544 0 69 14 244 63 253 71 3
3 -36 338 -40 343 -3 2 -56 -6 -118 -17 -492 -94 -767 18 -844 342 -20 84 -20
276 0 352 48 184 168 307 350 362 96 29 284 25 463 -10 79 -16 145 -26 148
-23 3 2 11 65 19 138 8 74 17 151 20 171 l5 37 -66 21 c-37 11 -110 29 -163
40 -124 27 -391 35 -506 16z"/>
<path d="M15225 2758 c-2 -13 -14 -90 -26 -173 -11 -82 -22 -151 -23 -152 -1
-1 -49 -8 -106 -15 l-105 -13 -3 -147 -3 -147 108 -3 108 -3 5 -420 c6 -455 5
-449 65 -551 79 -135 252 -199 472 -174 94 10 238 42 251 55 6 5 -23 304 -30
310 -2 1 -36 -2 -77 -7 -133 -16 -220 18 -235 93 -3 18 -6 179 -6 360 l0 329
165 0 165 0 0 165 0 165 -165 0 -165 0 0 175 0 175 -195 0 c-194 0 -195 0
-200 -22z"/>
<path d="M8585 2450 c-254 -55 -441 -221 -526 -468 -33 -95 -33 -101 -34 -267
0 -196 11 -250 76 -383 171 -348 621 -469 1187 -316 55 14 105 30 112 34 11 7
10 37 -4 161 -10 85 -18 155 -20 156 -1 1 -58 -8 -127 -22 -327 -64 -537 -50
-666 45 -42 31 -99 109 -105 145 -3 20 3 20 494 23 l497 2 8 48 c14 83 8 291
-10 362 -62 237 -234 414 -462 476 -96 26 -310 28 -420 4z m335 -338 c46 -23
59 -36 82 -82 15 -30 30 -76 34 -102 l6 -48 -281 0 c-192 0 -281 3 -281 11 0
25 56 121 92 158 95 100 227 124 348 63z"/>
<path d="M10160 2463 c-136 -16 -280 -76 -355 -148 -27 -26 -60 -74 -78 -113
-31 -64 -32 -73 -32 -187 1 -149 20 -207 101 -294 89 -96 193 -142 471 -205
84 -19 163 -40 175 -47 99 -51 89 -148 -18 -178 -99 -28 -381 -6 -588 44 -55
14 -100 24 -101 22 -1 -1 -7 -54 -14 -117 -7 -63 -15 -130 -18 -148 -5 -30 -2
-33 33 -48 122 -51 383 -94 572 -94 139 0 220 12 324 46 140 46 236 124 287
234 24 50 26 66 26 175 -1 150 -20 207 -102 295 -77 84 -174 130 -368 177
-227 54 -281 71 -314 99 -54 45 -39 112 32 145 81 36 319 21 552 -35 55 -14
101 -23 102 -22 1 1 11 68 21 149 l19 148 -36 15 c-60 25 -210 63 -316 79 -91
14 -288 18 -375 8z"/>
<path d="M13342 2458 c-131 -16 -351 -82 -419 -126 -9 -6 -7 -42 6 -155 10
-81 21 -150 23 -153 3 -2 44 6 91 20 192 56 418 80 529 57 109 -23 168 -86
168 -179 l0 -54 -32 6 c-153 31 -362 32 -488 1 -209 -51 -352 -186 -391 -366
-6 -29 -9 -94 -7 -145 6 -117 42 -199 121 -278 101 -101 218 -142 387 -133
131 6 236 39 337 106 72 49 83 51 83 22 0 -9 5 -33 11 -53 l10 -38 209 0 210
0 0 503 c0 531 -4 596 -46 686 -67 149 -219 247 -434 281 -77 12 -266 11 -368
-2z m293 -858 c113 -17 105 -8 105 -115 l0 -93 -37 -30 c-145 -114 -349 -118
-409 -7 -26 50 -16 136 22 176 66 70 163 91 319 69z"/>
<path d="M16675 2450 c-280 -60 -479 -256 -546 -535 -18 -78 -20 -110 -16
-240 6 -168 19 -230 75 -345 52 -109 176 -230 292 -288 142 -69 233 -87 450
-86 161 0 201 4 310 27 193 41 260 64 260 88 0 27 -31 293 -35 297 -1 1 -58
-9 -126 -22 -372 -76 -616 -42 -724 100 -23 30 -55 94 -55 109 0 3 225 5 499
5 l500 0 8 58 c13 93 8 270 -11 347 -58 238 -231 419 -461 481 -96 26 -310 28
-420 4z m314 -326 c74 -31 122 -100 136 -196 l7 -48 -281 0 c-186 0 -281 3
-281 10 0 22 31 84 65 130 82 112 231 155 354 104z"/>
<path d="M19145 2450 c-182 -39 -351 -151 -443 -293 -94 -144 -127 -280 -119
-491 6 -158 20 -223 75 -336 44 -89 166 -219 252 -268 230 -129 568 -146 938
-46 55 14 105 30 112 34 10 6 10 37 -3 161 -9 83 -18 154 -20 155 -2 2 -59 -7
-128 -21 -327 -64 -537 -50 -666 45 -42 31 -99 109 -105 145 -3 20 3 20 494
23 l497 2 8 48 c4 26 8 103 7 172 -1 215 -59 365 -194 501 -81 82 -172 134
-285 165 -96 26 -310 28 -420 4z m334 -338 c64 -32 106 -96 117 -179 l7 -53
-282 0 c-186 0 -281 3 -281 10 0 6 13 36 29 68 85 168 255 232 410 154z"/>
<path d="M24715 2456 c-291 -57 -487 -234 -567 -513 -30 -104 -33 -361 -5
-463 55 -200 174 -348 347 -434 125 -61 225 -86 380 -93 183 -8 384 19 573 77
65 20 67 22 67 53 0 41 -28 278 -34 284 -2 2 -32 -3 -67 -11 -279 -63 -515
-65 -656 -5 -54 23 -129 92 -154 141 -37 73 -74 68 475 68 l494 0 7 23 c3 12
9 78 12 147 16 359 -148 611 -462 710 -90 28 -304 37 -410 16z m303 -338 c68
-32 122 -122 122 -204 l0 -34 -281 0 -280 0 7 23 c23 74 88 159 152 199 82 51
194 57 280 16z"/>
<path d="M11959 2091 c-139 -186 -252 -343 -251 -347 1 -5 120 -177 264 -381
l263 -372 268 -1 268 0 -20 28 c-10 15 -137 187 -280 382 -143 195 -260 363
-258 372 1 9 112 157 247 329 135 172 247 316 248 321 2 4 -109 8 -246 8
l-251 0 -252 -339z"/>
<path d="M20122 2418 c3 -7 126 -331 274 -721 l269 -707 274 2 274 3 272 715
271 715 -229 3 c-127 1 -232 1 -234 -1 -3 -4 -343 -978 -343 -985 0 -2 -4 -1
-8 2 -5 3 -85 226 -178 495 l-169 491 -239 0 c-186 0 -237 -3 -234 -12z"/>
<path d="M21920 1710 l0 -720 225 0 225 0 0 720 0 720 -225 0 -225 0 0 -720z"/>
<path d="M22700 2270 l0 -160 335 0 c221 0 335 -3 335 -10 0 -6 -157 -186
-350 -401 l-350 -390 0 -159 0 -160 650 0 650 0 0 165 0 165 -361 0 c-207 0
-359 4 -357 9 2 5 157 181 346 392 l342 383 0 163 0 163 -620 0 -620 0 0 -160z"/>
</g>
</svg>
