<?xml version="1.0" encoding="UTF-8"?>
<!DOCTYPE svg PUBLIC "-//W3C//DTD SVG 1.1//EN" "http://www.w3.org/Graphics/SVG/1.1/DTD/svg11.dtd">
<svg xmlns="http://www.w3.org/2000/svg" version="1.1" width="903px" height="274px" style="shape-rendering:geometricPrecision; text-rendering:geometricPrecision; image-rendering:optimizeQuality; fill-rule:evenodd; clip-rule:evenodd" xmlns:xlink="http://www.w3.org/1999/xlink">
<g><path style="opacity:0.949" fill="#fff" d="M 159.5,38.5 C 166.771,38.0357 169.604,41.3691 168,48.5C 167.5,50.3333 166.333,51.5 164.5,52C 135.894,59.8179 107.227,67.3179 78.5,74.5C 78.6667,120.168 78.5,165.835 78,211.5C 74,215.5 70,215.5 66,211.5C 65.3333,162.833 65.3333,114.167 66,65.5C 66.9025,64.2986 68.0692,63.4652 69.5,63C 99.7048,55.1181 129.705,46.9514 159.5,38.5 Z"/></g>
<g><path style="opacity:0.917" fill="#fff" d="M 184.5,59.5 C 187.518,59.3354 190.518,59.502 193.5,60C 194.701,60.9025 195.535,62.0692 196,63.5C 196.99,111.917 196.657,160.25 195,208.5C 193.829,209.893 192.329,210.727 190.5,211C 161.833,218.667 133.167,226.333 104.5,234C 101.5,234.667 98.5,234.667 95.5,234C 94.2986,233.097 93.4652,231.931 93,230.5C 92.0099,182.083 92.3432,133.75 94,85.5C 95.1711,84.1068 96.6711,83.2735 98.5,83C 127.372,75.4515 156.038,67.6182 184.5,59.5 Z M 178.5,75.5 C 179.833,75.5 181.167,75.5 182.5,75.5C 182.667,116.501 182.5,157.501 182,198.5C 156.944,205.556 131.778,212.222 106.5,218.5C 106.333,177.499 106.5,136.499 107,95.5C 130.989,89.0471 154.822,82.3804 178.5,75.5 Z"/></g>
<g><path style="opacity:0.802" fill="#fff" d="M 433.5,62.5 C 436.518,62.3354 439.518,62.502 442.5,63C 445.704,65.8688 448.537,69.0354 451,72.5C 453.482,69.0507 456.315,65.884 459.5,63C 462.882,62.1764 466.216,62.343 469.5,63.5C 464.976,68.8564 460.643,74.3564 456.5,80C 452.789,80.8253 449.122,80.6586 445.5,79.5C 440.632,74.3227 436.632,68.6561 433.5,62.5 Z"/></g>
<g><path style="opacity:0.804" fill="#fff" d="M 774.5,62.5 C 778.846,62.3343 783.179,62.501 787.5,63C 783.889,68.944 779.889,74.6107 775.5,80C 772.446,80.8214 769.446,80.6548 766.5,79.5C 769.454,73.9278 772.12,68.2611 774.5,62.5 Z"/></g>
<g><path style="opacity:0.914" fill="#fff" d="M 267.5,67.5 C 277.506,67.3335 287.506,67.5002 297.5,68C 307.492,68.9921 314.325,74.1588 318,83.5C 319.98,97.5082 319.98,111.508 318,125.5C 314.674,133.493 308.841,138.659 300.5,141C 289.505,141.5 278.505,141.667 267.5,141.5C 267.5,116.833 267.5,92.1667 267.5,67.5 Z M 279.5,78.5 C 284.844,78.334 290.177,78.5006 295.5,79C 302,80.1667 305.833,84 307,90.5C 307.903,101.226 307.569,111.893 306,122.5C 304.108,126.058 301.275,128.558 297.5,130C 291.509,130.499 285.509,130.666 279.5,130.5C 279.5,113.167 279.5,95.8333 279.5,78.5 Z"/></g>
<g><path style="opacity:0.895" fill="#fff" d="M 550.5,67.5 C 554.555,67.1758 558.555,67.5091 562.5,68.5C 567.901,85.2034 573.401,101.87 579,118.5C 584.681,101.626 589.848,84.6258 594.5,67.5C 598.833,67.5 603.167,67.5 607.5,67.5C 599.774,91.8457 591.941,116.179 584,140.5C 580.606,141.456 577.106,141.789 573.5,141.5C 565.427,116.949 557.76,92.2821 550.5,67.5 Z"/></g>
<g><path style="opacity:0.932" fill="#fff" d="M 665.5,67.5 C 669.167,67.5 672.833,67.5 676.5,67.5C 676.333,87.5028 676.5,107.503 677,127.5C 677.465,128.931 678.299,130.097 679.5,131C 681.81,131.497 684.143,131.663 686.5,131.5C 686.5,134.833 686.5,138.167 686.5,141.5C 677.178,143.749 670.345,140.749 666,132.5C 665.5,110.836 665.333,89.1692 665.5,67.5 Z"/></g>
<g><path style="opacity:0.881" fill="#fff" d="M 326.5,88.5 C 330.555,88.1758 334.555,88.5091 338.5,89.5C 342.235,100.538 346.068,111.538 350,122.5C 354.525,111.424 358.359,100.091 361.5,88.5C 365.846,88.3343 370.179,88.501 374.5,89C 367.866,106.404 361.532,123.904 355.5,141.5C 351.894,141.789 348.394,141.456 345,140.5C 338.724,123.169 332.557,105.836 326.5,88.5 Z"/></g>
<g><path style="opacity:0.894" fill="#fff" d="M 394.5,88.5 C 415.573,87.2414 425.239,97.2414 423.5,118.5C 412.167,118.5 400.833,118.5 389.5,118.5C 390.15,128.655 395.483,133.155 405.5,132C 409.207,131.064 412.374,129.231 415,126.5C 417.5,129 420,131.5 422.5,134C 410.929,143.951 398.596,144.951 385.5,137C 381.87,133.238 379.703,128.738 379,123.5C 377.484,114.043 378.817,105.043 383,96.5C 386.15,92.6893 389.983,90.0226 394.5,88.5 Z M 399.5,97.5 C 407.659,97.9921 411.659,102.325 411.5,110.5C 404.137,110.831 396.803,110.497 389.5,109.5C 390.367,103.31 393.7,99.3103 399.5,97.5 Z"/></g>
<g><path style="opacity:0.915" fill="#fff" d="M 436.5,88.5 C 440.167,88.5 443.833,88.5 447.5,88.5C 447.343,89.8734 447.51,91.2068 448,92.5C 453.926,88.7014 460.426,87.5347 467.5,89C 470.076,89.7822 472.076,91.2822 473.5,93.5C 471.35,96.1506 469.017,98.6506 466.5,101C 463.617,100.255 460.617,99.4212 457.5,98.5C 452.253,99.2457 449.086,102.246 448,107.5C 447.5,118.828 447.333,130.162 447.5,141.5C 443.833,141.5 440.167,141.5 436.5,141.5C 436.5,123.833 436.5,106.167 436.5,88.5 Z"/></g>
<g><path style="opacity:0.894" fill="#fff" d="M 491.5,88.5 C 512.566,87.235 522.233,97.235 520.5,118.5C 509.167,118.5 497.833,118.5 486.5,118.5C 487.15,128.655 492.483,133.155 502.5,132C 506.207,131.064 509.374,129.231 512,126.5C 514.5,129 517,131.5 519.5,134C 507.929,143.951 495.596,144.951 482.5,137C 478.87,133.238 476.703,128.738 476,123.5C 474.484,114.043 475.817,105.043 480,96.5C 483.15,92.6893 486.983,90.0226 491.5,88.5 Z M 496.5,97.5 C 504.659,97.9921 508.659,102.325 508.5,110.5C 501.167,110.5 493.833,110.5 486.5,110.5C 486.9,103.782 490.233,99.4484 496.5,97.5 Z"/></g>
<g><path style="opacity:0.89" fill="#fff" d="M 619.5,88.5 C 625.509,88.3338 631.509,88.5005 637.5,89C 644.333,90.5 648.5,94.6667 650,101.5C 650.5,114.829 650.667,128.163 650.5,141.5C 646.833,141.5 643.167,141.5 639.5,141.5C 639.719,140.325 639.386,139.325 638.5,138.5C 630.835,143.219 622.835,143.719 614.5,140C 607.977,134.996 605.81,128.496 608,120.5C 610.007,115.162 613.841,111.996 619.5,111C 625.825,110.5 632.158,110.334 638.5,110.5C 639.729,105.258 638.063,101.425 633.5,99C 626.991,97.2409 621.491,98.7409 617,103.5C 614.667,101.5 612.333,99.5 610,97.5C 611.631,93.039 614.798,90.039 619.5,88.5 Z M 624.5,118.5 C 629.167,118.5 633.833,118.5 638.5,118.5C 639.852,129.846 634.852,134.346 623.5,132C 618.46,129.804 617.293,126.304 620,121.5C 621.409,120.219 622.909,119.219 624.5,118.5 Z"/></g>
<g><path style="opacity:0.905" fill="#fff" d="M 697.5,88.5 C 701.167,88.5 704.833,88.5 708.5,88.5C 708.343,89.8734 708.51,91.2068 709,92.5C 717.344,87.3738 725.844,87.2071 734.5,92C 737.667,95.155 739.501,98.9883 740,103.5C 740.5,116.162 740.667,128.829 740.5,141.5C 736.5,141.5 732.5,141.5 728.5,141.5C 728.667,129.162 728.5,116.829 728,104.5C 724.608,98.5333 719.774,97.0333 713.5,100C 711.19,101.637 709.69,103.804 709,106.5C 708.5,118.162 708.333,129.829 708.5,141.5C 704.833,141.5 701.167,141.5 697.5,141.5C 697.5,123.833 697.5,106.167 697.5,88.5 Z"/></g>
<g><path style="opacity:0.881" fill="#fff" d="M 747.5,88.5 C 751.767,88.203 755.934,88.5363 760,89.5C 763.813,100.61 767.813,111.61 772,122.5C 775.667,111.5 779.333,100.5 783,89.5C 787.118,88.2023 791.285,88.2023 795.5,89.5C 787.295,112.283 778.795,134.95 770,157.5C 765.039,161.926 759.206,163.593 752.5,162.5C 752.5,159.167 752.5,155.833 752.5,152.5C 755.545,152.658 758.379,151.991 761,150.5C 762.993,146.688 764.493,142.688 765.5,138.5C 759.489,121.817 753.489,105.151 747.5,88.5 Z"/></g>
<g><path style="opacity:0.911" fill="#fff" d="M 158.5,96.5 C 162.684,95.7036 165.85,97.037 168,100.5C 168.667,129.5 168.667,158.5 168,187.5C 166.786,189.049 165.286,190.215 163.5,191C 153.124,193.511 142.791,196.177 132.5,199C 129.5,199.667 126.5,199.667 123.5,199C 119.609,195.162 119.609,191.329 123.5,187.5C 133.667,184.418 143.833,181.418 154,178.5C 154.333,152.833 154.667,127.167 155,101.5C 155.997,99.6769 157.164,98.0103 158.5,96.5 Z"/></g>
<g><path style="opacity:0.879" fill="#fff" d="M 428.5,167.5 C 430.5,167.5 432.5,167.5 434.5,167.5C 434.5,180.5 434.5,193.5 434.5,206.5C 431.921,206.917 429.754,206.25 428,204.5C 427.5,205 427,205.5 426.5,206C 423.167,206.667 419.833,206.667 416.5,206C 414.185,204.891 412.685,203.057 412,200.5C 411.333,195.167 411.333,189.833 412,184.5C 412.685,181.943 414.185,180.109 416.5,179C 419.833,178.333 423.167,178.333 426.5,179C 427,179.5 427.5,180 428,180.5C 428.499,176.179 428.666,171.846 428.5,167.5 Z M 421.5,183.5 C 423.484,183.383 425.15,184.05 426.5,185.5C 429.041,190.187 429.041,194.854 426.5,199.5C 424.044,202.08 421.544,202.08 419,199.5C 417.48,195.625 417.146,191.625 418,187.5C 418.69,185.65 419.856,184.316 421.5,183.5 Z"/></g>
<g><path style="opacity:0.907" fill="#fff" d="M 644.5,167.5 C 646.5,167.5 648.5,167.5 650.5,167.5C 650.333,178.505 650.5,189.505 651,200.5C 652.356,201.38 653.856,201.714 655.5,201.5C 655.5,203.167 655.5,204.833 655.5,206.5C 652.813,206.664 650.146,206.497 647.5,206C 646.299,205.097 645.465,203.931 645,202.5C 644.5,190.838 644.333,179.171 644.5,167.5 Z"/></g>
<g><path style="opacity:0.857" fill="#fff" d="M 265.5,178.5 C 267.833,178.5 270.167,178.5 272.5,178.5C 273.891,184.509 275.391,190.509 277,196.5C 279.143,190.572 280.977,184.572 282.5,178.5C 284.5,178.5 286.5,178.5 288.5,178.5C 289.827,184.314 291.66,189.981 294,195.5C 295.66,189.858 297.16,184.191 298.5,178.5C 300.924,178.192 303.257,178.526 305.5,179.5C 302.424,188.394 299.757,197.394 297.5,206.5C 295.208,206.756 293.041,206.423 291,205.5C 289.47,200.042 287.637,194.708 285.5,189.5C 283.173,194.648 281.339,199.981 280,205.5C 277.959,206.423 275.792,206.756 273.5,206.5C 271.036,197.109 268.37,187.776 265.5,178.5 Z"/></g>
<g><path style="opacity:0.857" fill="#fff" d="M 307.5,178.5 C 309.833,178.5 312.167,178.5 314.5,178.5C 315.891,184.509 317.391,190.509 319,196.5C 321.143,190.572 322.977,184.572 324.5,178.5C 326.5,178.5 328.5,178.5 330.5,178.5C 331.827,184.314 333.66,189.981 336,195.5C 337.66,189.858 339.16,184.191 340.5,178.5C 342.924,178.192 345.257,178.526 347.5,179.5C 344.424,188.394 341.757,197.394 339.5,206.5C 337.208,206.756 335.041,206.423 333,205.5C 331.47,200.042 329.637,194.708 327.5,189.5C 325.173,194.648 323.339,199.981 322,205.5C 319.959,206.423 317.792,206.756 315.5,206.5C 313.036,197.109 310.37,187.776 307.5,178.5 Z"/></g>
<g><path style="opacity:0.857" fill="#fff" d="M 350.5,178.5 C 352.833,178.5 355.167,178.5 357.5,178.5C 358.891,184.509 360.391,190.509 362,196.5C 364.143,190.572 365.977,184.572 367.5,178.5C 369.5,178.5 371.5,178.5 373.5,178.5C 374.827,184.314 376.66,189.981 379,195.5C 380.66,189.858 382.16,184.191 383.5,178.5C 385.924,178.192 388.257,178.526 390.5,179.5C 387.424,188.394 384.757,197.394 382.5,206.5C 380.208,206.756 378.041,206.423 376,205.5C 374.47,200.042 372.637,194.708 370.5,189.5C 368.173,194.648 366.339,199.981 365,205.5C 362.959,206.423 360.792,206.756 358.5,206.5C 356.036,197.109 353.37,187.776 350.5,178.5 Z"/></g>
<g><path style="opacity:0.854" fill="#fff" d="M 440.5,178.5 C 442.924,178.192 445.257,178.526 447.5,179.5C 449.487,185.113 451.32,190.78 453,196.5C 455.455,190.677 457.288,184.677 458.5,178.5C 460.833,178.5 463.167,178.5 465.5,178.5C 462.5,187.833 459.5,197.167 456.5,206.5C 454.208,206.756 452.041,206.423 450,205.5C 446.727,196.514 443.561,187.514 440.5,178.5 Z"/></g>
<g><path style="opacity:0.844" fill="#fff" d="M 478.5,178.5 C 490.5,177.167 495.833,182.5 494.5,194.5C 488.833,194.5 483.167,194.5 477.5,194.5C 477.974,200.076 480.974,202.243 486.5,201C 487.966,200.365 489.3,199.531 490.5,198.5C 495.627,201.315 495.293,203.815 489.5,206C 474.661,207.892 468.828,201.392 472,186.5C 473.277,183.062 475.443,180.395 478.5,178.5 Z M 480.5,183.5 C 484.703,182.702 487.37,184.369 488.5,188.5C 484.893,189.489 481.226,189.823 477.5,189.5C 477.615,187.053 478.615,185.053 480.5,183.5 Z"/></g>
<g><path style="opacity:0.876" fill="#fff" d="M 504.5,178.5 C 507.079,178.083 509.246,178.75 511,180.5C 515.691,177.673 520.191,177.839 524.5,181C 523.257,182.154 522.257,183.488 521.5,185C 519.415,185.529 517.582,185.029 516,183.5C 513.347,184.153 511.68,185.82 511,188.5C 510.501,194.491 510.334,200.491 510.5,206.5C 508.5,206.5 506.5,206.5 504.5,206.5C 504.5,197.167 504.5,187.833 504.5,178.5 Z"/></g>
<g><path style="opacity:0.844" fill="#fff" d="M 534.5,178.5 C 546.5,177.167 551.833,182.5 550.5,194.5C 544.833,194.5 539.167,194.5 533.5,194.5C 533.974,200.076 536.974,202.243 542.5,201C 543.966,200.365 545.3,199.531 546.5,198.5C 551.627,201.315 551.293,203.815 545.5,206C 530.661,207.892 524.828,201.392 528,186.5C 529.277,183.062 531.443,180.395 534.5,178.5 Z M 536.5,183.5 C 540.703,182.702 543.37,184.369 544.5,188.5C 540.893,189.489 537.226,189.823 533.5,189.5C 533.615,187.053 534.615,185.053 536.5,183.5 Z"/></g>
<g><path style="opacity:0.854" fill="#fff" d="M 581.5,178.5 C 583.924,178.192 586.257,178.526 588.5,179.5C 590.487,185.113 592.32,190.78 594,196.5C 596.455,190.677 598.288,184.677 599.5,178.5C 601.833,178.5 604.167,178.5 606.5,178.5C 603.5,187.833 600.5,197.167 597.5,206.5C 595.208,206.756 593.041,206.423 591,205.5C 587.727,196.514 584.561,187.514 581.5,178.5 Z"/></g>
<g><path style="opacity:0.864" fill="#fff" d="M 616.5,178.5 C 620.514,178.334 624.514,178.501 628.5,179C 630.286,179.785 631.786,180.951 633,182.5C 634.435,190.389 634.935,198.389 634.5,206.5C 631.921,206.917 629.754,206.25 628,204.5C 627.5,205 627,205.5 626.5,206C 622.833,206.667 619.167,206.667 615.5,206C 613.667,205.5 612.5,204.333 612,202.5C 610.773,198.409 611.606,194.909 614.5,192C 619.036,190.621 623.703,190.121 628.5,190.5C 628.146,184.644 625.146,182.477 619.5,184C 618.069,184.465 616.903,185.299 616,186.5C 611.349,183.485 611.515,180.818 616.5,178.5 Z M 620.5,194.5 C 623.167,194.5 625.833,194.5 628.5,194.5C 627.934,201.062 624.601,203.062 618.5,200.5C 617.021,197.743 617.687,195.743 620.5,194.5 Z"/></g>
<g><path style="opacity:0.893" fill="#fff" d="M 664.5,178.5 C 667.079,178.083 669.246,178.75 671,180.5C 676.599,177.306 681.599,177.972 686,182.5C 687.435,190.389 687.935,198.389 687.5,206.5C 685.5,206.5 683.5,206.5 681.5,206.5C 681.884,199.411 681.384,192.411 680,185.5C 675.667,182.5 672.667,183.5 671,188.5C 670.501,194.491 670.334,200.491 670.5,206.5C 668.5,206.5 666.5,206.5 664.5,206.5C 664.5,197.167 664.5,187.833 664.5,178.5 Z"/></g>
<g><path style="opacity:0.852" fill="#fff" d="M 693.5,178.5 C 695.924,178.192 698.257,178.526 700.5,179.5C 702.432,184.796 704.265,190.129 706,195.5C 708.6,190.109 710.433,184.442 711.5,178.5C 713.833,178.5 716.167,178.5 718.5,178.5C 714.633,190.575 710.467,202.575 706,214.5C 703.454,217.186 700.287,218.186 696.5,217.5C 696.5,215.833 696.5,214.167 696.5,212.5C 700.674,211.929 702.674,209.429 702.5,205C 699.595,196.119 696.595,187.286 693.5,178.5 Z"/></g>
<g><path style="opacity:0.852" fill="#fff" d="M 745.5,178.5 C 751.026,177.711 756.026,178.878 760.5,182C 759,183.5 757.5,185 756,186.5C 751.54,182.313 747.873,182.98 745,188.5C 742.996,194.821 744.996,199.154 751,201.5C 752.982,201.01 754.649,200.01 756,198.5C 757.5,200 759,201.5 760.5,203C 753.189,208.084 746.356,207.584 740,201.5C 738,195.5 738,189.5 740,183.5C 741.73,181.598 743.563,179.931 745.5,178.5 Z"/></g>
<g><path style="opacity:0.919" fill="#fff" d="M 767.5,178.5 C 774.167,178.5 780.833,178.5 787.5,178.5C 787.702,180.989 787.202,183.323 786,185.5C 782.167,190.667 778.333,195.833 774.5,201C 778.821,201.499 783.154,201.666 787.5,201.5C 787.5,203.167 787.5,204.833 787.5,206.5C 780.5,206.5 773.5,206.5 766.5,206.5C 766.298,204.011 766.798,201.677 768,199.5C 771.833,194.333 775.667,189.167 779.5,184C 775.514,183.501 771.514,183.334 767.5,183.5C 767.5,181.833 767.5,180.167 767.5,178.5 Z"/></g>
<g><path style="opacity:0.925" fill="#fff" d="M 559.5,189.5 C 565.167,189.5 570.833,189.5 576.5,189.5C 576.5,191.167 576.5,192.833 576.5,194.5C 570.833,194.5 565.167,194.5 559.5,194.5C 559.5,192.833 559.5,191.167 559.5,189.5 Z"/></g>
<g><path style="opacity:0.854" fill="#fff" d="M 394.5,199.5 C 396.833,199.5 399.167,199.5 401.5,199.5C 401.5,201.833 401.5,204.167 401.5,206.5C 399.167,206.5 396.833,206.5 394.5,206.5C 394.5,204.167 394.5,201.833 394.5,199.5 Z"/></g>
<g><path style="opacity:0.854" fill="#fff" d="M 722.5,199.5 C 724.833,199.5 727.167,199.5 729.5,199.5C 729.5,201.833 729.5,204.167 729.5,206.5C 727.167,206.5 724.833,206.5 722.5,206.5C 722.5,204.167 722.5,201.833 722.5,199.5 Z"/></g>
</svg>
