<svg width="253" height="69" viewBox="0 0 253 69" fill="none" xmlns="http://www.w3.org/2000/svg">
<path fill-rule="evenodd" clip-rule="evenodd" d="M15.5 1.50006C17.8568 1.33676 20.1902 1.50346 22.5 2.00006C23.6091 3.81306 22.9424 4.64636 20.5 4.50006C20.1667 8.50006 19.8333 8.50006 19.5 4.50006C16.4017 4.41256 16.0684 4.91256 18.5 6.00006C15.9818 8.94506 13.9818 8.44506 12.5 4.50006C12.5 3.50006 12.5 2.50006 12.5 1.50006C13.5 1.50006 14.5 1.50006 15.5 1.50006Z" fill="#F7F7F7"/>
<path fill-rule="evenodd" clip-rule="evenodd" d="M30.5004 5.5C33.0073 5.6322 33.674 6.6322 32.5004 8.5C31.0759 10.0311 30.4092 9.6977 30.5004 7.5C30.5004 6.8333 30.5004 6.1667 30.5004 5.5Z" fill="#FEFEFE"/>
<path fill-rule="evenodd" clip-rule="evenodd" d="M30.5 5.49995C31.2506 4.42645 32.2506 4.25985 33.5 4.99995C34.7287 6.52915 36.2287 7.69585 38 8.49995C38.4017 9.87205 38.9017 11.2053 39.5 12.4999C38.4756 13.8517 37.4756 15.185 36.5 16.4999C34.2263 14.8553 34.2263 13.3553 36.5 11.9999C35.1667 10.9999 35.1667 9.99995 36.5 8.99995C35.5 8.33325 34.5 8.33325 33.5 8.99995C34.6956 9.65425 34.6956 10.1542 33.5 10.4999C32.7025 10.043 32.3691 9.37635 32.5 8.49995C33.6736 6.63215 33.0069 5.63215 30.5 5.49995Z" fill="#F3F3F3"/>
<path fill-rule="evenodd" clip-rule="evenodd" d="M13.4997 19.5C12.2499 19.5774 11.4166 20.244 10.9997 21.5C10.1946 19.0989 9.36135 19.2656 8.49965 22C10.3004 22.3173 10.6337 22.984 9.49965 24C7.77215 23.4742 6.10555 23.6409 4.49965 24.5C3.56905 22.3543 3.90235 20.1877 5.49965 18C0.63335 16.1994 -0.86665 13.0328 0.99965 8.5C1.67045 7.7476 2.50375 7.4142 3.49965 7.5C3.63955 9.1238 2.97295 10.2904 1.49965 11C3.06535 11.765 4.39875 11.5983 5.49965 10.5C6.79075 9.4583 6.79075 8.2917 5.49965 7C6.02495 6.3076 6.69155 5.8076 7.49965 5.5C8.19585 8.5564 9.02925 11.5564 9.99965 14.5C13.8674 13.7373 14.3674 14.904 11.4997 18C12.4154 18.2784 13.0822 18.7784 13.4997 19.5Z" fill="white"/>
<path fill-rule="evenodd" clip-rule="evenodd" d="M3.5 7.5C4.9063 7.9731 5.573 8.9731 5.5 10.5C4.3991 11.5983 3.0657 11.765 1.5 11C2.9733 10.2904 3.6399 9.1238 3.5 7.5Z" fill="#E5E5E5"/>
<path fill-rule="evenodd" clip-rule="evenodd" d="M97.5 10.5C98.5 10.5 99.5 10.5 100.5 10.5C100.337 12.8568 100.503 15.1902 101 17.5C104.394 15.7253 107.06 16.392 109 19.5C110.808 24.7553 109.141 28.0886 104 29.5C102.089 28.5931 100.256 28.5931 98.5 29.5C97.504 23.2015 97.17 16.8682 97.5 10.5Z" fill="white"/>
<path fill-rule="evenodd" clip-rule="evenodd" d="M186.5 10.5C192.909 11.0743 193.076 12.4077 187 14.5C186.833 14.8333 186.667 15.1667 186.5 15.5C190.335 16.9965 190.335 17.9965 186.5 18.5C186.5 22.1667 186.5 25.8333 186.5 29.5C185.5 29.5 184.5 29.5 183.5 29.5C183.997 25.2408 183.331 21.2408 181.5 17.5C182.989 15.0053 184.656 12.6719 186.5 10.5Z" fill="white"/>
<path fill-rule="evenodd" clip-rule="evenodd" d="M229.5 11.5C231.453 17.0738 232.12 23.0738 231.5 29.5C228.597 29.0927 225.597 28.9261 222.5 29C219.901 24.9326 219.901 20.9326 222.5 17C224.769 16.2419 226.936 16.4086 229 17.5C229.495 15.5273 229.662 13.5273 229.5 11.5Z" fill="white"/>
<path fill-rule="evenodd" clip-rule="evenodd" d="M229.5 11.4998C230.209 10.5958 231.209 10.2625 232.5 10.4998C232.823 17.0219 232.49 23.3552 231.5 29.4998C232.12 23.0736 231.453 17.0736 229.5 11.4998Z" fill="white"/>
<path fill-rule="evenodd" clip-rule="evenodd" d="M235.5 11.5C236.5 11.5 237.5 11.5 238.5 11.5C238.5 12.5 238.5 13.5 238.5 14.5C237.5 14.5 236.5 14.5 235.5 14.5C235.5 13.5 235.5 12.5 235.5 11.5Z" fill="white"/>
<path fill-rule="evenodd" clip-rule="evenodd" d="M71.5 14.5002C69.1667 14.5002 66.8333 14.5002 64.5 14.5002C64.5 16.1669 64.5 17.8335 64.5 19.5002C72.5 20.1669 72.5 20.8335 64.5 21.5002C64.2155 23.4149 64.5489 25.0815 65.5 26.5002C67.5 26.5002 69.5 26.5002 71.5 26.5002C71.5 27.5002 71.5 28.5002 71.5 29.5002C68.1667 29.5002 64.8333 29.5002 61.5 29.5002C61.5 23.8335 61.5 18.1669 61.5 12.5002C65.3293 11.9312 68.6627 12.5979 71.5 14.5002Z" fill="white"/>
<path fill-rule="evenodd" clip-rule="evenodd" d="M198.5 12.5C199.5 12.5 200.5 12.5 201.5 12.5C201.5 18.1667 201.5 23.8333 201.5 29.5C200.5 29.5 199.5 29.5 198.5 29.5C198.5 23.8333 198.5 18.1667 198.5 12.5Z" fill="white"/>
<path fill-rule="evenodd" clip-rule="evenodd" d="M30.5 7.49978C30.4088 9.69748 31.0755 10.0309 32.5 8.49978C32.3691 9.37618 32.7025 10.0429 33.5 10.4998C34.6956 10.1541 34.6956 9.65408 33.5 8.99978C34.5 8.33308 35.5 8.33308 36.5 8.99978C35.1667 9.99978 35.1667 10.9998 36.5 11.9998C34.2263 13.3552 34.2263 14.8552 36.5 16.4998C36.1667 17.4998 35.5 18.1665 34.5 18.4998C34.5169 16.8851 33.5169 15.3851 31.5 13.9998C32.9561 13.5772 33.4561 12.7439 33 11.4998C31.8525 12.4579 30.8525 12.1245 30 10.4998C28.8456 12.9572 27.5123 12.9572 26 10.4998C25.5172 11.4478 25.3505 12.4478 25.5 13.4998C25.5 13.8331 25.5 14.1665 25.5 14.4998C24.1619 16.1126 22.4952 16.6126 20.5 15.9998C23.2589 15.1655 24.2589 13.6655 23.5 11.4998C24.7358 8.37848 27.0692 7.04518 30.5 7.49978Z" fill="#EFEFEF"/>
<path fill-rule="evenodd" clip-rule="evenodd" d="M23.5 11.5C24.2589 13.6657 23.2589 15.1657 20.5 16C22.4952 16.6128 24.1619 16.1128 25.5 14.5C25.4142 15.4959 25.7476 16.3292 26.5 17C23.7095 17.0778 21.0428 17.9111 18.5 19.5C18.6107 18.8826 18.944 18.3826 19.5 18C18.2506 17.2599 17.2506 17.4265 16.5 18.5C15.7326 17.828 15.0659 16.9947 14.5 16C16.1261 16.1953 17.7928 16.1953 19.5 16C14.1204 13.0033 14.287 12.17 20 13.5C21.6991 13.6134 22.8658 12.9468 23.5 11.5Z" fill="white"/>
<path fill-rule="evenodd" clip-rule="evenodd" d="M74.5 16.5C80.469 16.7687 86.469 16.9353 92.5 17C93.464 21.0659 93.797 25.2325 93.5 29.5C92.5 29.5 91.5 29.5 90.5 29.5C90.665 26.1501 90.498 22.8168 90 19.5C88.667 18.1667 87.333 18.1667 86 19.5C85.502 22.8168 85.335 26.1501 85.5 29.5C84.5 29.5 83.5 29.5 82.5 29.5C82.665 26.1501 82.498 22.8168 82 19.5C80.667 18.1667 79.333 18.1667 78 19.5C77.502 22.8168 77.335 26.1501 77.5 29.5C76.5 29.5 75.5 29.5 74.5 29.5C74.5 25.1667 74.5 20.8333 74.5 16.5Z" fill="white"/>
<path fill-rule="evenodd" clip-rule="evenodd" d="M113.5 16.4996C116.448 16.2225 119.281 16.5558 122 17.4996C122.827 21.5407 122.66 25.5407 121.5 29.4996C118.547 29.4698 115.547 29.1365 112.5 28.4996C111.515 26.9013 111.349 25.2346 112 23.4996C114.243 22.0288 116.743 21.0288 119.5 20.4996C118.034 18.3428 116.2 18.0095 114 19.4996C113.517 18.5516 113.351 17.5516 113.5 16.4996Z" fill="white"/>
<path fill-rule="evenodd" clip-rule="evenodd" d="M126.5 16.5C129.167 16.5 131.833 16.5 134.5 16.5C134.719 17.675 134.386 18.675 133.5 19.5C131.802 18.3192 130.135 18.3192 128.5 19.5C130.427 21.1019 132.594 22.4353 135 23.5C135.825 25.7008 135.325 27.5341 133.5 29C130.854 29.4974 128.187 29.6641 125.5 29.5C125.471 26.2268 126.804 25.5602 129.5 27.5C130.737 27.4435 131.737 26.9435 132.5 26C129.006 24.7666 126.673 22.4333 125.5 19C125.743 18.0979 126.077 17.2646 126.5 16.5Z" fill="white"/>
<path fill-rule="evenodd" clip-rule="evenodd" d="M138.5 16.4996C141.247 16.1862 143.914 16.5196 146.5 17.4996C138.856 18.2952 138.522 20.1286 145.5 22.9996C146.935 25.2668 146.602 27.2668 144.5 28.9996C142.19 29.4962 139.857 29.6629 137.5 29.4996C137.351 28.4476 137.517 27.4476 138 26.4996C139.699 27.4057 141.533 27.739 143.5 27.4996C143.072 24.7531 141.406 23.0864 138.5 22.4996C137.306 20.484 137.306 18.484 138.5 16.4996Z" fill="white"/>
<path fill-rule="evenodd" clip-rule="evenodd" d="M148.5 16.4997C149.675 16.2807 150.675 16.614 151.5 17.4997C153.468 25.4646 155.468 25.4646 157.5 17.4997C158.5 16.1664 159.5 16.1664 160.5 17.4997C158.492 23.7149 155.825 29.5482 152.5 34.9997C151.207 35.4897 149.873 35.6564 148.5 35.4997C148.5 34.4997 148.5 33.4997 148.5 32.4997C151.243 32.9225 152.576 31.7558 152.5 28.9997C151.06 24.8477 149.727 20.681 148.5 16.4997Z" fill="white"/>
<path fill-rule="evenodd" clip-rule="evenodd" d="M170.5 16.4996C180.818 16.322 183.151 20.4886 177.5 28.9996C169.668 29.8205 166.835 26.3205 169 18.4996C169.717 17.9554 170.217 17.2887 170.5 16.4996Z" fill="white"/>
<path fill-rule="evenodd" clip-rule="evenodd" d="M205.5 16.5C208.684 16.8331 212.018 16.9998 215.5 17C216 17.5 216.5 18 217 18.5C217.499 22.1516 217.665 25.8183 217.5 29.5C216.5 29.5 215.5 29.5 214.5 29.5C214.665 26.1501 214.498 22.8168 214 19.5C212.062 18.1398 210.396 18.4732 209 20.5C208.502 23.4816 208.335 26.4816 208.5 29.5C207.5 29.5 206.5 29.5 205.5 29.5C205.5 25.1667 205.5 20.8333 205.5 16.5Z" fill="white"/>
<path fill-rule="evenodd" clip-rule="evenodd" d="M235.5 16.5C236.5 16.5 237.5 16.5 238.5 16.5C238.5 20.8333 238.5 25.1667 238.5 29.5C237.5 29.5 236.5 29.5 235.5 29.5C235.5 25.1667 235.5 20.8333 235.5 16.5Z" fill="white"/>
<path fill-rule="evenodd" clip-rule="evenodd" d="M243.5 16.4996C246.448 16.2225 249.281 16.5558 252 17.4996C252.827 21.5407 252.66 25.5407 251.5 29.4996C248.547 29.4698 245.547 29.1365 242.5 28.4996C241.515 26.9013 241.349 25.2346 242 23.4996C244.243 22.0288 246.743 21.0288 249.5 20.4996C248.034 18.3428 246.2 18.0095 244 19.4996C243.517 18.5516 243.351 17.5516 243.5 16.4996Z" fill="white"/>
<path fill-rule="evenodd" clip-rule="evenodd" d="M16.5 18.4999C17.2506 17.4264 18.2506 17.2598 19.5 17.9999C18.944 18.3825 18.6107 18.8825 18.5 19.4999C17.8333 19.1666 17.1667 18.8332 16.5 18.4999Z" fill="#F6F6F6"/>
<path fill-rule="evenodd" clip-rule="evenodd" d="M71.4996 14.5C69.735 15.4614 67.735 15.7947 65.4996 15.5C65.4996 16.5 65.4996 17.5 65.4996 18.5C67.4996 18.5 69.4996 18.5 71.4996 18.5C71.4996 19.8333 71.4996 21.1667 71.4996 22.5C69.4996 22.5 67.4996 22.5 65.4996 22.5C65.4996 23.8333 65.4996 25.1667 65.4996 26.5C64.5485 25.0813 64.2151 23.4147 64.4996 21.5C72.4996 20.8333 72.4996 20.1667 64.4996 19.5C64.4996 17.8333 64.4996 16.1667 64.4996 14.5C66.8329 14.5 69.1663 14.5 71.4996 14.5Z" fill="white"/>
<path fill-rule="evenodd" clip-rule="evenodd" d="M15.5 1.49982C18.3035 0.362017 21.3035 0.195317 24.5 0.999817C25.8613 2.58412 26.528 4.41742 26.5 6.49982C27.9587 6.56722 29.2921 6.23392 30.5 5.49982C30.5 6.16652 30.5 6.83312 30.5 7.49982C27.0692 7.04522 24.7358 8.37852 23.5 11.4998C22.8658 12.9466 21.6991 13.6132 20 13.4998C14.287 12.1698 14.1204 13.0031 19.5 15.9998C17.7928 16.1951 16.1261 16.1951 14.5 15.9998C15.0659 16.9945 15.7326 17.8278 16.5 18.4998C16.649 22.0005 15.649 22.3339 13.5 19.4998C13.0825 18.7782 12.4158 18.2782 11.5 17.9998C14.3677 14.9038 13.8677 13.7371 10 14.4998C9.0296 11.5562 8.1962 8.55622 7.5 5.49982C6.6919 5.80742 6.0253 6.30742 5.5 6.99982C6.7911 8.29152 6.7911 9.45812 5.5 10.4998C5.573 8.97292 4.9063 7.97292 3.5 7.49982C3.9528 6.54142 4.6195 5.70812 5.5 4.99982C8.0285 5.10472 10.3618 4.93812 12.5 4.49982C13.9818 8.44482 15.9818 8.94482 18.5 5.99982C16.0684 4.91232 16.4017 4.41232 19.5 4.49982C19.8333 8.49982 20.1667 8.49982 20.5 4.49982C22.9424 4.64612 23.6091 3.81282 22.5 1.99982C20.1902 1.50322 17.8568 1.33652 15.5 1.49982Z" fill="#EDEDED"/>
<path fill-rule="evenodd" clip-rule="evenodd" d="M34.5 18.5C34.8016 21.0593 34.4682 23.3926 33.5 25.5C32.1196 26.7065 30.9529 26.3731 30 24.5C29.4926 25.9961 29.9926 27.1627 31.5 28C30.5289 29.041 29.5289 29.8743 28.5 30.5C26.5262 29.085 25.1929 27.585 24.5 26C25.624 25.7508 26.624 25.2508 27.5 24.5C26.4647 22.8716 26.4647 21.205 27.5 19.5C28.7072 18.8112 30.0406 18.6446 31.5 19C29.9963 17.5093 29.1629 15.676 29 13.5C28.6667 14.8333 28.3333 16.1667 28 17.5C27.7996 15.6803 26.9663 14.347 25.5 13.5C25.3505 12.448 25.5172 11.448 26 10.5C27.5123 12.9574 28.8456 12.9574 30 10.5C30.8525 12.1247 31.8525 12.4581 33 11.5C33.4561 12.7441 32.9561 13.5774 31.5 14C33.5169 15.3853 34.5169 16.8853 34.5 18.5Z" fill="#F0F0F0"/>
<path fill-rule="evenodd" clip-rule="evenodd" d="M101.5 18.5C105.976 18.8222 107.476 21.1556 106 25.5C102.481 28.2803 100.647 27.2803 100.5 22.5C100.623 21.0755 100.957 19.7421 101.5 18.5Z" fill="white"/>
<path fill-rule="evenodd" clip-rule="evenodd" d="M172.5 18.5C176.976 18.8222 178.476 21.1556 177 25.5C173.481 28.2803 171.647 27.2803 171.5 22.5C171.623 21.0755 171.957 19.7421 172.5 18.5Z" fill="white"/>
<path fill-rule="evenodd" clip-rule="evenodd" d="M224.5 18.5C228.976 18.8222 230.476 21.1556 229 25.5C227.604 27.5268 225.938 27.8602 224 26.5C223.278 23.7395 223.445 21.0728 224.5 18.5Z" fill="white"/>
<path fill-rule="evenodd" clip-rule="evenodd" d="M25.5 13.5C26.9663 14.347 27.7996 15.6803 28 17.5C28.3333 16.1667 28.6667 14.8333 29 13.5C29.1629 15.676 29.9963 17.5093 31.5 19C30.0406 18.6446 28.7072 18.8112 27.5 19.5C24.589 20.267 23.9223 21.767 25.5 24C22.809 24.5095 20.309 25.3428 18 26.5C16.984 25.3659 16.3173 25.6992 16 27.5C15.2496 26.8742 14.4162 26.3742 13.5 26C14.8491 25.2276 15.6824 24.0609 16 22.5C16.3333 23.1667 16.6667 23.8333 17 24.5C17.3519 22.7525 17.8519 21.0858 18.5 19.5C21.0428 17.9111 23.7095 17.0778 26.5 17C25.7476 16.3292 25.4142 15.4959 25.5 14.5C25.5 14.1667 25.5 13.8333 25.5 13.5Z" fill="white"/>
<path fill-rule="evenodd" clip-rule="evenodd" d="M115.5 23.5C116.833 23.5 118.167 23.5 119.5 23.5C119.114 27.7376 117.448 28.4043 114.5 25.5C114.863 24.8165 115.196 24.1499 115.5 23.5Z" fill="white"/>
<path fill-rule="evenodd" clip-rule="evenodd" d="M245.5 23.5C246.833 23.5 248.167 23.5 249.5 23.5C249.114 27.7376 247.448 28.4043 244.5 25.5C244.863 24.8165 245.196 24.1499 245.5 23.5Z" fill="white"/>
<path fill-rule="evenodd" clip-rule="evenodd" d="M33.5 25.5C33.0075 27.8185 32.0075 29.8185 30.5 31.5C29.8333 31.5 29.1667 31.5 28.5 31.5C28.5 31.1667 28.5 30.8333 28.5 30.5C29.5289 29.8743 30.5289 29.041 31.5 28C29.9926 27.1627 29.4926 25.9961 30 24.5C30.9529 26.3731 32.1196 26.7065 33.5 25.5Z" fill="white"/>
<path fill-rule="evenodd" clip-rule="evenodd" d="M16.5 18.5C17.1667 18.8333 17.8333 19.1667 18.5 19.5C17.8519 21.0858 17.3519 22.7525 17 24.5C16.6667 23.8333 16.3333 23.1667 16 22.5C15.6824 24.0609 14.8491 25.2276 13.5 26C14.4162 26.3742 15.2496 26.8742 16 27.5C16.3173 25.6992 16.984 25.3659 18 26.5C20.309 25.3428 22.809 24.5095 25.5 24C23.9223 21.767 24.589 20.267 27.5 19.5C26.4647 21.205 26.4647 22.8716 27.5 24.5C26.624 25.2508 25.624 25.7508 24.5 26C25.1929 27.585 26.5262 29.085 28.5 30.5C26.6766 31.5015 24.6766 31.5015 22.5 30.5C21.1667 30.8333 19.8333 31.1667 18.5 31.5C17.3285 30.6554 15.9952 29.9887 14.5 29.5C13.8333 29.5 13.1667 29.5 12.5 29.5C11.221 28.2848 10.221 28.6182 9.5 30.5C8.8333 30.5 8.1667 30.5 7.5 30.5C5.9752 28.7837 4.9752 26.7837 4.5 24.5C6.1059 23.6409 7.7725 23.4742 9.5 24C10.6341 22.984 10.3008 22.3173 8.5 22C9.3617 19.2656 10.195 19.0989 11 21.5C11.4169 20.244 12.2502 19.5774 13.5 19.5C15.649 22.3341 16.649 22.0007 16.5 18.5Z" fill="white"/>
<path fill-rule="evenodd" clip-rule="evenodd" d="M12.5 29.5004C12.9369 34.412 12.1036 39.0787 10 43.5004C9.5983 42.1283 9.0983 40.795 8.5 39.5004C9.4066 36.5792 9.7399 33.5792 9.5 30.5004C10.221 28.6186 11.221 28.2852 12.5 29.5004Z" fill="#F2F2F2"/>
<path fill-rule="evenodd" clip-rule="evenodd" d="M14.5 29.5C15.9952 29.9887 17.3285 30.6554 18.5 31.5C15.1488 32.7266 14.4821 34.8932 16.5 38C16.4907 39.4038 15.9907 40.5704 15 41.5C14.7931 37.9106 14.2931 34.4106 13.5 31C14.056 30.6174 14.3893 30.1174 14.5 29.5Z" fill="#F1F1F1"/>
<path fill-rule="evenodd" clip-rule="evenodd" d="M28.5 30.5C28.5 30.8333 28.5 31.1667 28.5 31.5C28.5 35.1667 28.5 38.8333 28.5 42.5C24.6442 33.8614 23.3109 33.8614 24.5 42.5C23.8485 41.9094 23.1818 41.2427 22.5 40.5C21.1408 41.6243 20.1408 42.9577 19.5 44.5C18.8333 43.8333 18.1667 43.1667 17.5 42.5C18.093 39.1996 18.7597 35.8663 19.5 32.5C20.1235 34.9661 20.9568 37.2994 22 39.5C22.498 36.5184 22.6646 33.5184 22.5 30.5C24.6766 31.5015 26.6766 31.5015 28.5 30.5Z" fill="#E6E6E6"/>
<path fill-rule="evenodd" clip-rule="evenodd" d="M12.5 29.5C13.1667 29.5 13.8333 29.5 14.5 29.5C14.3893 30.1174 14.056 30.6174 13.5 31C14.2931 34.4106 14.7931 37.9106 15 41.5C15.9907 40.5704 16.4907 39.4038 16.5 38C14.4821 34.8932 15.1488 32.7266 18.5 31.5C19.8333 31.1667 21.1667 30.8333 22.5 30.5C22.6646 33.5184 22.498 36.5184 22 39.5C20.9568 37.2994 20.1235 34.9661 19.5 32.5C18.7597 35.8663 18.093 39.1996 17.5 42.5C17.631 43.2389 17.4643 43.9056 17 44.5C15.6976 45.0848 14.531 45.7515 13.5 46.5C11.2341 46.1412 9.4007 46.8078 8 48.5C7.7216 47.5842 7.2216 46.9175 6.5 46.5C7.4427 44.9988 7.1094 43.6654 5.5 42.5C8.5837 38.9652 9.2504 34.9652 7.5 30.5C8.1667 30.5 8.8333 30.5 9.5 30.5C9.7399 33.5788 9.4066 36.5788 8.5 39.5C9.0983 40.7946 9.5983 42.1279 10 43.5C12.1036 39.0783 12.9369 34.4116 12.5 29.5Z" fill="#D9D9D9"/>
<path fill-rule="evenodd" clip-rule="evenodd" d="M60.5 41.4998C63.6021 41.1538 66.4355 41.8205 69 43.4998C69.8334 47.836 68.0001 49.836 63.5 49.4998C63.5 51.1665 63.5 52.8331 63.5 54.4998C62.5 54.4998 61.5 54.4998 60.5 54.4998C60.5 50.1665 60.5 45.8331 60.5 41.4998Z" fill="white"/>
<path fill-rule="evenodd" clip-rule="evenodd" d="M129.5 41.5C136.569 41.7433 136.903 42.5766 130.5 44C126.946 49.6558 128.613 52.8224 135.5 53.5C127.858 55.3552 125.024 52.3552 127 44.5C128.045 43.6266 128.878 42.6266 129.5 41.5Z" fill="white"/>
<path fill-rule="evenodd" clip-rule="evenodd" d="M179.5 41.5002C181.92 41.2926 184.253 41.626 186.5 42.5002C187.91 44.9494 187.576 47.1161 185.5 49.0002C186.5 50.6669 187.5 52.3335 188.5 54.0002C187.833 54.6669 187.167 54.6669 186.5 54.0002C185.274 52.3653 183.941 50.8653 182.5 49.5002C181.833 51.1669 181.167 52.8335 180.5 54.5002C179.508 50.2174 179.174 45.8841 179.5 41.5002Z" fill="white"/>
<path fill-rule="evenodd" clip-rule="evenodd" d="M221.5 40.5C223.117 41.5893 223.95 43.256 224 45.5C227.771 44.2505 229.604 45.7505 229.5 50C229.441 51.4357 229.108 52.769 228.5 54C226.19 54.4966 223.857 54.6633 221.5 54.5C221.5 49.8333 221.5 45.1667 221.5 40.5Z" fill="white"/>
<path fill-rule="evenodd" clip-rule="evenodd" d="M231.5 40.5C232.5 40.5 233.5 40.5 234.5 40.5C234.5 45.1667 234.5 49.8333 234.5 54.5C233.5 54.5 232.5 54.5 231.5 54.5C231.5 49.8333 231.5 45.1667 231.5 40.5Z" fill="white"/>
<path fill-rule="evenodd" clip-rule="evenodd" d="M63.5 43.5C64.5 43.5 65.5 43.5 66.5 43.5C66.5 44.8333 66.5 46.1667 66.5 47.5C65.5 47.5 64.5 47.5 63.5 47.5C63.5 46.1667 63.5 44.8333 63.5 43.5Z" fill="white"/>
<path fill-rule="evenodd" clip-rule="evenodd" d="M181.5 43.4998C183.346 43.222 184.68 43.8886 185.5 45.4998C184.68 47.111 183.346 47.7776 181.5 47.4998C181.5 46.1665 181.5 44.8331 181.5 43.4998Z" fill="white"/>
<path fill-rule="evenodd" clip-rule="evenodd" d="M242.5 44.5C244.288 44.2148 245.955 44.5481 247.5 45.5C246.311 46.4287 244.978 46.762 243.5 46.5C243.5 48.5 243.5 50.5 243.5 52.5C244.978 52.238 246.311 52.5713 247.5 53.5C245.051 54.9097 242.884 54.5763 241 52.5C240.282 49.5929 240.782 46.9262 242.5 44.5Z" fill="white"/>
<path fill-rule="evenodd" clip-rule="evenodd" d="M28.5 31.5C29.1667 31.5 29.8333 31.5 30.5 31.5C30.1796 34.8984 30.513 38.2317 31.5 41.5C33.2882 42.2826 34.2882 43.6159 34.5 45.5C32.5976 46.5109 30.5976 46.6776 28.5 46C29.1667 45.6667 29.8333 45.3333 30.5 45C29.244 44.5831 28.5774 43.7498 28.5 42.5C28.5 38.8333 28.5 35.1667 28.5 31.5Z" fill="#EDEDED"/>
<path fill-rule="evenodd" clip-rule="evenodd" d="M70.4996 44.5C72.458 44.908 74.458 45.2413 76.4996 45.5C73.3007 47.5713 71.634 50.5713 71.4996 54.5C70.5126 51.2317 70.1792 47.8984 70.4996 44.5Z" fill="white"/>
<path fill-rule="evenodd" clip-rule="evenodd" d="M78.5001 44.5C85.3201 44.6011 87.3201 47.9345 84.5001 54.5C82.3981 54.5207 80.2321 54.1874 78.0001 53.5C76.9481 49.7072 78.4481 47.7072 82.5001 47.5C80.6681 46.9432 79.3351 45.9432 78.5001 44.5Z" fill="white"/>
<path fill-rule="evenodd" clip-rule="evenodd" d="M88.5 44.5004C90.924 44.1928 93.257 44.5262 95.5 45.5004C95.041 49.1249 93.041 51.2916 89.5 52.0004C92.008 52.1154 94.008 53.1154 95.5 55.0004C95.241 56.2617 94.574 57.2617 93.5 58.0004C91.231 58.7585 89.064 58.5918 87 57.5004C88.195 53.1693 88.695 48.836 88.5 44.5004Z" fill="white"/>
<path fill-rule="evenodd" clip-rule="evenodd" d="M97.5 44.5C99.369 46.6353 100.036 49.3019 99.5 52.5C100.822 52.67 101.989 52.3366 103 51.5C103.186 49.0995 103.686 46.7662 104.5 44.5C105.833 47.8333 105.833 51.1667 104.5 54.5C102.398 54.5207 100.232 54.1874 98 53.5C97.502 50.5184 97.335 47.5184 97.5 44.5Z" fill="white"/>
<path fill-rule="evenodd" clip-rule="evenodd" d="M109.5 44.5C114.5 43.5 116.5 45.5 115.5 50.5C108.951 50.9071 108.951 51.9071 115.5 53.5C107.415 54.9418 105.415 51.9418 109.5 44.5Z" fill="white"/>
<path fill-rule="evenodd" clip-rule="evenodd" d="M147.5 44.4996C151.833 44.1663 153.833 46.1663 153.5 50.4996C145.788 50.4883 145.788 51.4883 153.5 53.4996C145.414 54.8525 143.414 51.8525 147.5 44.4996Z" fill="white"/>
<path fill-rule="evenodd" clip-rule="evenodd" d="M163.5 40.5C164.5 40.5 165.5 40.5 166.5 40.5C166.5 41.8333 166.5 43.1667 166.5 44.5C168.722 44.178 170.556 44.8446 172 46.5C172.497 49.146 172.664 51.8127 172.5 54.5C171.5 54.5 170.5 54.5 169.5 54.5C169.5 51.8333 169.5 49.1667 169.5 46.5C168.178 46.33 167.011 46.6634 166 47.5C165.814 49.9005 165.314 52.2338 164.5 54.5C163.507 49.8804 163.173 45.2137 163.5 40.5Z" fill="white"/>
<path fill-rule="evenodd" clip-rule="evenodd" d="M191.5 44.4996C195.833 44.1663 197.833 46.1663 197.5 50.4996C189.788 50.4883 189.788 51.4883 197.5 53.4996C189.414 54.8525 187.414 51.8525 191.5 44.4996Z" fill="white"/>
<path fill-rule="evenodd" clip-rule="evenodd" d="M210.5 44.5C212.369 46.6353 213.036 49.3019 212.5 52.5C213.822 52.67 214.989 52.3366 216 51.5C216.186 49.0995 216.686 46.7662 217.5 44.5C218.833 47.8333 218.833 51.1667 217.5 54.5C215.398 54.5207 213.232 54.1874 211 53.5C210.502 50.5184 210.335 47.5184 210.5 44.5Z" fill="white"/>
<path fill-rule="evenodd" clip-rule="evenodd" d="M236.5 44.5C237.5 44.5 238.5 44.5 239.5 44.5C239.5 47.8333 239.5 51.1667 239.5 54.5C238.5 54.5 237.5 54.5 236.5 54.5C236.5 51.1667 236.5 47.8333 236.5 44.5Z" fill="white"/>
<path fill-rule="evenodd" clip-rule="evenodd" d="M89.5 46.5C90.5 46.5 91.5 46.5 92.5 46.5C92.5 47.5 92.5 48.5 92.5 49.5C91.5 49.5 90.5 49.5 89.5 49.5C89.5 48.5 89.5 47.5 89.5 46.5Z" fill="white"/>
<path fill-rule="evenodd" clip-rule="evenodd" d="M110.5 46.4997C111.675 46.2807 112.675 46.614 113.5 47.4997C111.948 48.7976 110.948 48.4643 110.5 46.4997Z" fill="white"/>
<path fill-rule="evenodd" clip-rule="evenodd" d="M157.5 44.5C163.882 44.7718 164.048 45.7718 158 47.5C156.948 51.2928 158.448 53.2928 162.5 53.5C156.534 55.0308 154.368 52.6975 156 46.5C156.717 45.9558 157.217 45.2891 157.5 44.5Z" fill="white"/>
<path fill-rule="evenodd" clip-rule="evenodd" d="M199.5 44.5C201.681 44.9141 204.015 45.0808 206.5 45C209.167 48 209.167 51 206.5 54C204.888 54.7203 203.388 54.5536 202 53.5C201.798 55.2556 201.298 56.9223 200.5 58.5C199.507 53.8804 199.173 49.2137 199.5 44.5Z" fill="white"/>
<path fill-rule="evenodd" clip-rule="evenodd" d="M5.50014 42.5C7.10954 43.6654 7.44284 44.9988 6.50014 46.5C5.66194 46.8417 5.32854 47.5084 5.50014 48.5C4.30664 48.9704 3.64004 49.9704 3.50014 51.5C3.57244 54.7406 5.23914 56.5739 8.50014 57C10.1342 57.4935 11.8009 57.6602 13.5001 57.5C11.6265 58.2852 9.62654 58.9518 7.50014 59.5C6.25064 58.2225 4.75064 57.2225 3.00014 56.5C1.26514 51.4271 2.09844 46.7605 5.50014 42.5Z" fill="white"/>
<path fill-rule="evenodd" clip-rule="evenodd" d="M148.5 46.5001C149.756 46.4615 150.756 46.9615 151.5 48.0001C150.167 48.6668 148.833 48.6668 147.5 48.0001C148.056 47.6175 148.389 47.1175 148.5 46.5001Z" fill="white"/>
<path fill-rule="evenodd" clip-rule="evenodd" d="M192.5 46.5001C193.756 46.4615 194.756 46.9615 195.5 48.0001C194.167 48.6668 192.833 48.6668 191.5 48.0001C192.056 47.6175 192.389 47.1175 192.5 46.5001Z" fill="white"/>
<path fill-rule="evenodd" clip-rule="evenodd" d="M202.5 46.5C203.5 46.5 204.5 46.5 205.5 46.5C205.5 48.5 205.5 50.5 205.5 52.5C204.5 52.5 203.5 52.5 202.5 52.5C202.5 50.5 202.5 48.5 202.5 46.5Z" fill="white"/>
<path fill-rule="evenodd" clip-rule="evenodd" d="M224.5 46.5005C225.496 46.4147 226.329 46.7481 227 47.5005C227.494 49.1346 227.66 50.8013 227.5 52.5005C223.556 52.1161 222.556 50.1161 224.5 46.5005Z" fill="white"/>
<path fill-rule="evenodd" clip-rule="evenodd" d="M24.5 42.5C25.7736 43.1894 25.7736 44.0228 24.5 45C25.5 45.3333 26.5 45.6667 27.5 46C27.1667 46.3333 26.8333 46.6667 26.5 47C28.4727 47.4955 30.4727 47.6621 32.5 47.5C32.5 48.8333 32.5 50.1667 32.5 51.5C33.1577 50.6016 33.8243 49.6016 34.5 48.5C35.7059 50.4841 35.7059 52.4841 34.5 54.5C31.5279 56.2236 28.5279 57.0569 25.5 57C26.1667 57.6667 26.8333 58.3333 27.5 59C23.8333 59.6667 20.1667 59.6667 16.5 59C17.9494 57.883 19.6161 57.2163 21.5 57C19.9419 56.79 18.6085 56.29 17.5 55.5C23.845 55.458 25.5117 52.7913 22.5 47.5C20.9291 46.6906 19.2624 46.3573 17.5 46.5C18.1667 45.8333 18.8333 45.1667 19.5 44.5C20.1408 42.9577 21.1408 41.6243 22.5 40.5C23.1818 41.2427 23.8485 41.9094 24.5 42.5Z" fill="#E4E4E4"/>
<path fill-rule="evenodd" clip-rule="evenodd" d="M6.49979 46.5004C7.22139 46.9179 7.72139 47.5846 7.99979 48.5004C9.40049 46.8082 11.2339 46.1416 13.4998 46.5004C12.9388 48.9273 13.2722 51.4273 14.4998 54.0004C13.6475 55.7288 12.6475 55.8954 11.4998 54.5004C10.4688 53.7519 9.30219 53.0852 7.99979 52.5004C7.66649 52.8337 7.33309 53.1671 6.99979 53.5004C6.64789 51.7529 6.14789 50.0862 5.49979 48.5004C5.32819 47.5088 5.66159 46.8421 6.49979 46.5004Z" fill="#E5E5E5"/>
<path fill-rule="evenodd" clip-rule="evenodd" d="M137.5 44.5004C139.924 44.1928 142.257 44.5262 144.5 45.5004C143.167 47.5004 141.833 49.5004 140.5 51.5004C141.833 52.1671 143.167 52.8337 144.5 53.5004C142.257 54.4746 139.924 54.808 137.5 54.5004C138.126 51.6855 139.46 49.1855 141.5 47.0004C139.563 46.8788 138.23 46.0454 137.5 44.5004Z" fill="white"/>
<path fill-rule="evenodd" clip-rule="evenodd" d="M117.5 52.5C119.97 53.3603 120.137 54.6936 118 56.5C117.51 55.2068 117.343 53.8734 117.5 52.5Z" fill="white"/>
<path fill-rule="evenodd" clip-rule="evenodd" d="M88.5 54.5C90.288 54.2148 91.955 54.5481 93.5 55.5C92.667 55.8333 91.833 56.1667 91 56.5C89.624 56.3158 88.791 55.6491 88.5 54.5Z" fill="white"/>
<path fill-rule="evenodd" clip-rule="evenodd" d="M5.5 48.5C6.1481 50.0858 6.6481 51.7525 7 53.5C7.3333 53.1667 7.6667 52.8333 8 52.5C9.3024 53.0848 10.469 53.7515 11.5 54.5C12.5893 56.1171 14.256 56.9504 16.5 57C15.552 57.4828 14.552 57.6495 13.5 57.5C11.8008 57.6602 10.1341 57.4935 8.5 57C5.239 56.5739 3.5723 54.7406 3.5 51.5C3.6399 49.9704 4.3065 48.9704 5.5 48.5Z" fill="#DBDBDB"/>
<path fill-rule="evenodd" clip-rule="evenodd" d="M28.5 42.5004C28.5774 43.7502 29.244 44.5835 30.5 45.0004C29.8333 45.3337 29.1667 45.6671 28.5 46.0004C30.5976 46.678 32.5976 46.5113 34.5 45.5004C38.1894 50.8473 37.1894 55.514 31.5 59.5004C23.3716 60.8159 15.3716 60.8159 7.5 59.5004C9.6264 58.9522 11.6264 58.2856 13.5 57.5004C14.552 57.6499 15.552 57.4832 16.5 57.0004C14.256 56.9508 12.5893 56.1175 11.5 54.5004C12.6477 55.8954 13.6477 55.7288 14.5 54.0004C13.2724 51.4273 12.939 48.9273 13.5 46.5004C14.531 45.7519 15.6976 45.0852 17 44.5004C17.4643 43.906 17.631 43.2393 17.5 42.5004C18.1667 43.1671 18.8333 43.8337 19.5 44.5004C18.8333 45.1671 18.1667 45.8337 17.5 46.5004C14.8333 49.5004 14.8333 52.5004 17.5 55.5004C18.6085 56.2904 19.9419 56.7904 21.5 57.0004C19.6161 57.2167 17.9494 57.8834 16.5 59.0004C20.1667 59.6671 23.8333 59.6671 27.5 59.0004C26.8333 58.3337 26.1667 57.6671 25.5 57.0004C28.5279 57.0573 31.5279 56.224 34.5 54.5004C35.7059 52.4845 35.7059 50.4845 34.5 48.5004C33.8243 49.602 33.1577 50.602 32.5 51.5004C32.5 50.1671 32.5 48.8337 32.5 47.5004C30.4727 47.6625 28.4727 47.4959 26.5 47.0004C26.8333 46.6671 27.1667 46.3337 27.5 46.0004C26.5 45.6671 25.5 45.3337 24.5 45.0004C25.7736 44.0232 25.7736 43.1898 24.5 42.5004C23.3109 33.8618 24.6442 33.8618 28.5 42.5004Z" fill="#EEEEEE"/>
<path fill-rule="evenodd" clip-rule="evenodd" d="M32.5 51.5C32.741 54.999 31.9076 55.3323 30 52.5C29.0164 54.7947 28.1831 54.4614 27.5 51.5C27.8333 50.5 28.5 49.8333 29.5 49.5C30.2652 50.6119 31.2652 51.2786 32.5 51.5Z" fill="#E1E1E1"/>
<path fill-rule="evenodd" clip-rule="evenodd" d="M17.5 46.4999C19.2624 46.3572 20.9291 46.6905 22.5 47.4999C25.5117 52.7912 23.845 55.4579 17.5 55.4999C14.8333 52.4999 14.8333 49.4999 17.5 46.4999Z" fill="#EEEEEE"/>
<path fill-rule="evenodd" clip-rule="evenodd" d="M14.5 61.5C16.4786 63.1675 18.812 63.8342 21.5 63.5C21.6602 65.1992 21.4935 66.8659 21 68.5C20.0754 67.9535 19.2421 67.2868 18.5 66.5C19.1667 66.1667 19.8333 65.8333 20.5 65.5C19.675 64.6143 18.675 64.281 17.5 64.5C17.3178 69.7937 16.8178 69.7937 16 64.5C15.3333 68.5 14.6667 68.5 14 64.5C13.1871 67.7661 11.3538 68.2661 8.5 66C9.5 65.6667 10.5 65.3333 11.5 65C9.5273 64.5045 7.5273 64.3379 5.5 64.5C5.6495 65.552 5.4828 66.552 5 67.5C4.6905 66.2341 4.1905 65.0674 3.5 64C7.6327 64.0936 11.2994 63.2603 14.5 61.5Z" fill="white"/>
<path fill-rule="evenodd" clip-rule="evenodd" d="M31.5 61.5C34.1391 62.7058 34.9724 64.7058 34 67.5C32.8525 66.5419 31.8525 66.8753 31 68.5C29.2087 66.4873 27.8753 66.4873 27 68.5C26.6667 67.8333 26.3333 67.1667 26 66.5C25.2825 67.4506 24.4491 67.6172 23.5 67C24.3279 66.0853 25.3279 65.4186 26.5 65C25.5 64.6667 24.5 64.3333 23.5 64C26.6752 64.0533 29.3419 63.22 31.5 61.5Z" fill="white"/>
</svg>
