<?xml version="1.0" encoding="UTF-8"?>
<svg version="1.1" xmlns="http://www.w3.org/2000/svg" width="771" height="920">
<path d="M0 0 C9.34119769 0.86825235 18.27966207 2.65387656 27.375 4.9375 C28.88900391 5.31672607 28.88900391 5.31672607 30.43359375 5.70361328 C36.38522962 7.23170951 42.19453772 8.98671857 48 11 C46.7706815 14.6879555 45.42987206 15.45601314 42.375 17.8125 C18.49944032 36.86942459 -1.45376209 60.10385284 -19 85 C-19.40250977 85.56944336 -19.80501953 86.13888672 -20.21972656 86.72558594 C-58.41799756 141.2276161 -80.00975729 205.29659261 -88 271 C-88.11182617 271.87414551 -88.22365234 272.74829102 -88.33886719 273.64892578 C-95.22082135 328.08583451 -89.79602959 385.52615 -74 438 C-73.76893555 438.76924805 -73.53787109 439.53849609 -73.29980469 440.33105469 C-71.37841417 446.67796558 -69.36069594 452.9842902 -67.1875 459.25 C-66 463 -66 463 -66 467 C-69.0202423 467.64870339 -72.04113979 468.29404156 -75.0625 468.9375 C-75.91005859 469.11990234 -76.75761719 469.30230469 -77.63085938 469.49023438 C-78.46552734 469.66748047 -79.30019531 469.84472656 -80.16015625 470.02734375 C-81.29916382 470.27085571 -81.29916382 470.27085571 -82.46118164 470.51928711 C-88.17710833 471.60156999 -93.64493332 472.12180526 -99.46484375 472.09765625 C-100.48210289 472.09553383 -100.48210289 472.09553383 -101.51991272 472.09336853 C-103.65915578 472.08782745 -105.79828925 472.07528653 -107.9375 472.0625 C-109.39908702 472.05747736 -110.86067569 472.0529158 -112.32226562 472.04882812 C-115.88154526 472.03787745 -119.44076191 472.02065445 -123 472 C-133.30828669 421.55463976 -133.30828669 421.55463976 -138.21096802 397.12240601 C-138.55749292 395.39637338 -138.90466784 393.67047107 -139.25265503 391.94473267 C-141.53590354 380.61507496 -143.71068099 369.26639547 -145.84720802 357.90829468 C-149.3140001 339.48218656 -152.91986464 321.086545 -156.60717773 302.70336914 C-157.40852882 298.7080938 -158.20633779 294.71212021 -159.00327969 290.71596336 C-162.65406483 272.41785041 -166.4119569 254.14985545 -170.37129211 235.91567993 C-171.20117645 232.06702912 -172.00885918 228.21385918 -172.81634521 224.36045837 C-182.28783132 179.29982537 -192.75023432 129.8933805 -216.05566406 89.84985352 C-217 88 -217 88 -217 86 C-217.66 86 -218.32 86 -219 86 C-217.6351307 76.79747213 -204.87318723 69.38970752 -198 64 C-197.38092773 63.50983398 -196.76185547 63.01966797 -196.12402344 62.51464844 C-184.79060798 53.563732 -173.04447426 44.3442685 -160 38 C-160.03480469 38.82242188 -160.06960938 39.64484375 -160.10546875 40.4921875 C-160.35996265 50.98703127 -159.07343795 60.76909039 -152 69 C-141.61280033 77.72797521 -127.97785879 78.56040754 -115 78 C-110.59716604 77.60688983 -106.33015808 76.88380116 -102 76 C-101.31196289 75.85997559 -100.62392578 75.71995117 -99.91503906 75.57568359 C-74.77349332 70.24983481 -53.55630187 57.52730177 -35 40 C-33.71189298 38.91243658 -32.42030466 37.82898087 -31.125 36.75 C-19.00756541 26.14724473 -9.17296654 13.14791871 0 0 Z " fill="#7C97CC" transform="translate(446,217)"/>
<path d="M0 0 C3.94569555 3.46715582 6.20308436 7.45136691 8.6875 12 C9.11957764 12.78673096 9.55165527 13.57346191 9.99682617 14.3840332 C24.2457922 40.76475335 32.34620651 68.29238322 36 98 C36.09571289 98.72566162 36.19142578 99.45132324 36.29003906 100.19897461 C37.26956026 108.49945132 37.24363935 116.84114306 37.25 125.1875 C37.25067474 125.9854599 37.25134949 126.7834198 37.25204468 127.6055603 C37.23419364 140.94495796 36.43988667 153.86047131 34 167 C33.83902832 167.90862793 33.67805664 168.81725586 33.51220703 169.75341797 C25.43144015 214.34900464 5.0698864 255.18983313 -25 289 C-26.20856432 290.39563334 -27.41692613 291.7914421 -28.625 293.1875 C-29.17414063 293.80753906 -29.72328125 294.42757813 -30.2890625 295.06640625 C-31.50370218 296.43911548 -32.70557398 297.82316965 -33.8984375 299.21484375 C-43.77992029 310.54732494 -55.0803648 320.8487962 -67 330 C-67.91628174 330.70842041 -67.91628174 330.70842041 -68.85107422 331.43115234 C-84.51827787 343.44759836 -102.86166445 356.30546458 -122 362 C-122.99 361.67 -123.98 361.34 -125 361 C-136.95037561 287.73799329 -140.26752201 212.9426261 -119 141 C-118.67563965 139.89011719 -118.67563965 139.89011719 -118.34472656 138.7578125 C-104.91900728 93.54374292 -76.01272541 51.90167052 -38 24 C-36.91792826 23.18755393 -35.83589674 22.37505428 -34.75390625 21.5625 C-27.6725592 16.31841868 -20.29561887 11.58667332 -12.8125 6.9375 C-11.89073975 6.36467285 -10.96897949 5.7918457 -10.01928711 5.20166016 C-3.38739431 1.12913144 -3.38739431 1.12913144 0 0 Z " fill="#C9C9C9" transform="translate(558,283)"/>
<path d="M0 0 C3.89634975 1.29878325 5.14387262 3.58623019 7.3125 6.875 C7.73764893 7.51703369 8.16279785 8.15906738 8.60083008 8.82055664 C18.65327578 24.48881407 27.0941334 41.71431399 34 59 C34.3491748 59.86157715 34.69834961 60.7231543 35.05810547 61.61083984 C62.41696139 129.48251408 79.62175086 201.69638981 95.13916016 273.05126953 C95.95155401 276.78504492 96.77726184 280.51579176 97.60546875 284.24609375 C98.07053213 286.351514 98.53539275 288.45697905 99 290.5625 C99.20794189 291.49658691 99.41588379 292.43067383 99.63012695 293.39306641 C99.81406006 294.23401855 99.99799316 295.0749707 100.1875 295.94140625 C100.34605469 296.66013916 100.50460937 297.37887207 100.66796875 298.11938477 C101 300 101 300 101 303 C73.54812664 297.19519859 44.75483266 278.76754641 26 258 C26 257.34 26 256.68 26 256 C25.34 256 24.68 256 24 256 C-14.9418964 214.23037254 -28.37937004 157.60548262 -27.140625 101.99267578 C-26.54742401 85.15029895 -23.84984949 68.38985924 -20 52 C-19.83306641 51.27506348 -19.66613281 50.55012695 -19.49414062 49.80322266 C-17.14690841 39.86345863 -13.76480543 30.42583659 -10 20.9375 C-9.58476074 19.89053955 -9.16952148 18.8435791 -8.74169922 17.76489258 C-6.22502016 11.58304604 -3.40322569 5.74294335 0 0 Z " fill="#C06060" transform="translate(167,372)"/>
<path d="M0 0 C22.88218394 6.83444768 44.71526814 17.29124968 66 28 C66.80743652 28.40460449 67.61487305 28.80920898 68.44677734 29.22607422 C83.75213788 37.0064927 97.250199 47.70859549 104 64 C106.16356737 71.21189124 105.3579028 77.69365887 102.38671875 84.48046875 C96.28526636 95.56620619 86.55388727 101.55255121 74.796875 105.23828125 C70.4345267 106.42635097 66.4471256 107.12544249 61.91796875 107.09765625 C60.98662109 107.09443359 60.05527344 107.09121094 59.09570312 107.08789062 C58.13599609 107.07951172 57.17628906 107.07113281 56.1875 107.0625 C55.20845703 107.05798828 54.22941406 107.05347656 53.22070312 107.04882812 C50.81373889 107.03708684 48.40690143 107.02066419 46 107 C45.91959473 107.74459473 45.83918945 108.48918945 45.75634766 109.25634766 C41.71076012 146.57847976 41.71076012 146.57847976 40 150 C34.56701132 148.48221269 30.15240456 145.9029368 25.375 143 C23.88348793 142.10304257 22.39132174 141.20717176 20.8984375 140.3125 C20.24536621 139.91675781 19.59229492 139.52101562 18.91943359 139.11328125 C16.98233566 137.98975459 15.01278433 136.98037202 13 136 C13.60274783 122.99603621 14.2541652 109.99656806 15 97 C14.46705322 96.83201904 13.93410645 96.66403809 13.38500977 96.4909668 C7.42783089 94.56540752 1.68878571 92.27988634 -4.0625 89.8125 C-4.92810547 89.44447266 -5.79371094 89.07644531 -6.68554688 88.69726562 C-8.79170883 87.80127408 -10.89647192 86.90215345 -13 86 C-13.32871094 86.96292969 -13.32871094 86.96292969 -13.6640625 87.9453125 C-15.51241338 92.17165866 -17.93638502 95.96679863 -20.375 99.875 C-23.67851059 105.20124836 -26.92629622 110.53725632 -30 116 C-36.57772186 115.33756276 -42.6457395 113.4097775 -48.9375 111.4375 C-50.00291016 111.10814453 -51.06832031 110.77878906 -52.16601562 110.43945312 C-54.77884238 109.631 -57.39006622 108.81773465 -60 108 C-59.37892054 103.99046487 -58.10306884 100.81995941 -56.296875 97.1953125 C-55.73532715 96.06617432 -55.1737793 94.93703613 -54.59521484 93.77368164 C-53.98078755 92.55712879 -53.36569966 91.34090939 -52.75 90.125 C-52.43798645 89.5046286 -52.1259729 88.8842572 -51.80450439 88.24508667 C-46.07033599 76.85508749 -39.93847892 65.72242917 -33.54833984 54.68652344 C-32.04248494 52.0737156 -30.55855273 49.44978904 -29.08203125 46.8203125 C-23.41890057 36.75836465 -17.53598641 26.8417864 -11.5 17 C-10.81703857 15.88326904 -10.13407715 14.76653809 -9.43041992 13.6159668 C-8.78306885 12.56707275 -8.13571777 11.51817871 -7.46875 10.4375 C-6.89576172 9.50808594 -6.32277344 8.57867187 -5.73242188 7.62109375 C-3.96324304 4.94438801 -2.04165261 2.47323964 0 0 Z M23 32 C21.84516259 33.52029956 20.73741662 35.07638436 19.6484375 36.64453125 C18.96136719 37.63259766 18.27429688 38.62066406 17.56640625 39.63867188 C16.48166016 41.2097168 16.48166016 41.2097168 15.375 42.8125 C14.67503906 43.81732422 13.97507812 44.82214844 13.25390625 45.85742188 C8.66936896 52.47055312 4.26647007 59.1775219 0 66 C2.60762983 69.10708549 5.58293385 70.3139571 9.27734375 71.8828125 C10.18898033 72.27241653 10.18898033 72.27241653 11.11903381 72.66989136 C12.40106526 73.21612669 13.68458773 73.75887409 14.96948242 74.29833984 C16.93036518 75.12200304 18.88634743 75.95649962 20.84179688 76.79296875 C30.24040877 80.78537281 38.88519279 84.23609402 49.125 80.9375 C54.93754401 78.43798817 59.46821575 74.24980812 63 69.0625 C64.60511179 64.14684514 65.05692669 60.4412934 63.00390625 55.69921875 C57.04673457 45.65809368 45.66248092 41.71657167 35.4375 37.125 C34.34630859 36.62742187 33.25511719 36.12984375 32.13085938 35.6171875 C27.72698978 33.20805091 27.72698978 33.20805091 23 32 Z " fill="#FFFFFF" transform="translate(542,28)"/>
<path d="M0 0 C0.99515625 0.50144531 1.9903125 1.00289062 3.015625 1.51953125 C10.89521594 5.75842114 17.05785991 11.19718249 23.38867188 17.41943359 C24.96834793 18.9689522 26.56773598 20.49540041 28.171875 22.01953125 C43.32740659 36.5790454 55.43470816 53.8459638 56.4375 75.5 C56.04152416 85.96290001 52.87936513 94.35438693 45.46875 101.7890625 C28.21584902 117.24023648 8.46976657 119.97746678 -13.94873047 119.1953125 C-20.31948388 118.78751904 -26.01522959 117.2286674 -32 115 C-33.85238281 114.36384766 -33.85238281 114.36384766 -35.7421875 113.71484375 C-49.1560746 108.91265845 -60.08364081 101.38608496 -70.31640625 91.5703125 C-72.59618411 89.3867698 -74.91539724 87.30203038 -77.3125 85.25 C-78.5436535 84.16892513 -79.77292136 83.08569784 -81 82 C-81.59296875 81.48566406 -82.1859375 80.97132813 -82.796875 80.44140625 C-92.33674891 71.64023939 -97.82521152 59.82571501 -98.45166016 46.95263672 C-98.80753856 30.73680346 -92.33654017 19.08960323 -81.53515625 7.3125 C-58.72479691 -15.18914771 -26.97172959 -14.13619838 0 0 Z M-57.5625 37 C-62.30140997 43.45851443 -66.36447314 50.75973765 -66 59 C-64.1868107 69.84096338 -56.05645134 76.46665505 -47.84765625 83.015625 C-38.32094829 89.65426374 -27.41280132 91.22429285 -16.07421875 89.57421875 C-3.48229881 86.85569829 8.78256353 80.25005993 16.625 69.84375 C20.38269496 63.78019677 21.6398382 57.79058345 20.6953125 50.71875 C18.87764153 43.64726295 13.9965471 39.07238003 9 34 C8.43152344 33.34773438 7.86304688 32.69546875 7.27734375 32.0234375 C-0.1053761 23.78816769 -11.25223947 19.25892815 -22.1875 18.625 C-36.15871117 19.08032249 -48.71285441 26.47875469 -57.5625 37 Z " fill="#FFFFFF" transform="translate(715,133)"/>
<path d="M0 0 C86.31908719 1.40533531 86.31908719 1.40533531 110.4375 23.6875 C115.76253732 29.35171167 118.73841415 34.9521001 119.14453125 42.7890625 C118.46834716 55.76448692 112.05218842 65.31526398 102.9375 74.125 C87.53573034 87.14131039 64.75236495 91.47820332 44.97692871 89.83154297 C39.26827985 89.29418503 33.57205414 88.64699776 27.875 88 C26.1380763 87.80679236 24.40109745 87.61407985 22.6640625 87.421875 C18.44205053 86.9536255 14.2208425 86.47867193 10 86 C9.89768066 86.56960449 9.79536133 87.13920898 9.68994141 87.72607422 C8.3197759 94.98116557 6.40416081 102.02999921 4.375 109.125 C3.26125 113.04375 2.1475 116.9625 1 121 C-9.23 121 -19.46 121 -30 121 C-13.94736842 27.89473684 -13.94736842 27.89473684 0 0 Z M30 24 C28.30545182 29.03410749 26.61489461 34.06953104 24.92797852 39.10620117 C24.35387177 40.8184806 23.7786872 42.53039905 23.20239258 44.24194336 C22.37295626 46.70592027 21.54743885 49.17118076 20.72265625 51.63671875 C20.46533218 52.39836838 20.20800812 53.16001801 19.94288635 53.94474792 C18.72088762 57.60997554 17.63764711 61.17742121 17 65 C21.00137896 65.43196052 25.00324865 65.85902396 29.00561523 66.28173828 C30.36447937 66.42593111 31.72320722 66.57141485 33.08178711 66.71826172 C35.04503813 66.93023227 37.00884511 67.13703304 38.97265625 67.34375 C40.15093994 67.46943359 41.32922363 67.59511719 42.54321289 67.72460938 C52.71194309 68.53471798 61.15797282 67.29592281 69.2421875 60.75 C73.97908588 56.03415451 77.09144722 50.42379254 77.3125 43.6875 C77.22919121 39.01463428 76.21125076 36.53237584 73 33 C66.59179545 27.59771059 59.60809985 26.7065267 51.5 25.6875 C50.31535156 25.51927734 49.13070312 25.35105469 47.91015625 25.17773438 C41.86951919 24.35278673 36.0898179 23.92606637 30 24 Z " fill="#FFFFFF" transform="translate(391,0)"/>
<path d="M0 0 C3.89634975 1.29878325 5.14387262 3.58623019 7.3125 6.875 C7.73764893 7.51703369 8.16279785 8.15906738 8.60083008 8.82055664 C18.65098546 24.48524426 27.10690446 41.7124941 34 59 C34.35980957 59.89348145 34.71961914 60.78696289 35.09033203 61.70751953 C40.07466361 74.15510852 44.70692874 86.71857368 49.00424194 99.41864014 C49.45796213 100.75927194 49.91434337 102.09900623 50.3734436 103.43780518 C51.01258545 105.30810897 51.63748179 107.18326263 52.26171875 109.05859375 C52.62225342 110.13423584 52.98278809 111.20987793 53.35424805 112.31811523 C54 115 54 115 53 118 C52.34 118 51.68 118 51 118 C49.40930255 119.46947329 47.87694717 121.00242794 46.375 122.5625 C43.36405316 125.64236694 40.36936865 128.61585286 37.0625 131.375 C16.59086931 149.10343218 -1.20225487 175.34959144 -7 202 C-7.15341717 204.79230249 -7.15341717 204.79230249 -7 207 C-9.10077571 204.89922429 -9.70984879 203.57472806 -10.76953125 200.84375 C-11.09856445 199.99586914 -11.42759766 199.14798828 -11.76660156 198.27441406 C-29.52139452 151.17696608 -31.49470716 100.93610332 -20 52 C-19.83306641 51.27506348 -19.66613281 50.55012695 -19.49414062 49.80322266 C-17.14690841 39.86345863 -13.76480543 30.42583659 -10 20.9375 C-9.58476074 19.89053955 -9.16952148 18.8435791 -8.74169922 17.76489258 C-6.22502016 11.58304604 -3.40322569 5.74294335 0 0 Z " fill="#B34949" transform="translate(167,372)"/>
<path d="M0 0 C0.84145956 3.08117427 1.67173062 6.16525621 2.5 9.25 C2.85771484 10.55904297 2.85771484 10.55904297 3.22265625 11.89453125 C3.44824219 12.73886719 3.67382812 13.58320312 3.90625 14.453125 C4.11572266 15.22817383 4.32519531 16.00322266 4.54101562 16.80175781 C5 19 5 19 5 23 C2.92309719 24.75551347 0.94896216 26.20890772 -1.3125 27.6875 C-2.6114242 28.5751337 -3.9082786 29.46580326 -5.203125 30.359375 C-5.84958984 30.80345703 -6.49605469 31.24753906 -7.16210938 31.70507812 C-11.65171969 34.8683211 -15.80657685 38.4603268 -20 42 C-21.07271952 42.89737114 -22.1456446 43.7944966 -23.21875 44.69140625 C-44.82328831 61.56807612 -44.82328831 61.56807612 -55 86 C-55.4087155 93.49311759 -55.15772765 99.7907898 -53 107 C-52.22398438 106.21874756 -51.44796875 105.43749512 -50.6484375 104.63256836 C-47.73618447 101.70205392 -44.82049089 98.7749825 -41.90380859 95.84887695 C-40.6480018 94.58807785 -39.39309836 93.32637824 -38.13916016 92.0637207 C-25.10261631 78.93888154 -25.10261631 78.93888154 -18 73 C-16.94322744 72.08814621 -15.88720725 71.17541957 -14.83203125 70.26171875 C4.1620866 54.06880327 4.1620866 54.06880327 13 49 C20 65.70050761 20 65.70050761 20 72 C17.97826163 73.79440647 15.97830434 75.39663212 13.8125 77 C12.51673031 77.98892457 11.22249315 78.97985997 9.9296875 79.97265625 C9.2706543 80.47684082 8.61162109 80.98102539 7.93261719 81.50048828 C-10.82188597 96.05204947 -27.31884139 113.18627319 -44 130 C-43.47841309 130.97678711 -42.95682617 131.95357422 -42.41943359 132.95996094 C-41.80664551 134.10754883 -41.19385742 135.25513672 -40.5625 136.4375 C-40.17529785 137.16227539 -39.7880957 137.88705078 -39.38916016 138.63378906 C-37.48453322 142.20283587 -35.58932244 145.77644023 -33.7109375 149.359375 C-29.33426728 157.69812302 -24.84222345 165.91924769 -20 174 C-21.40550847 175.87401129 -22.8112079 177.74787552 -24.21777344 179.62109375 C-25.39624774 181.1941148 -26.57143874 182.76960154 -27.74316406 184.34765625 C-29.52466233 186.7413905 -31.32352355 189.12127626 -33.125 191.5 C-33.73214844 192.32242188 -34.33929688 193.14484375 -34.96484375 193.9921875 C-35.55652344 194.76820313 -36.14820313 195.54421875 -36.7578125 196.34375 C-37.2852002 197.04693359 -37.81258789 197.75011719 -38.35595703 198.47460938 C-40 200 -40 200 -44 200 C-45.99194336 197.67114258 -45.99194336 197.67114258 -48.08984375 194.39453125 C-48.66150772 193.51404366 -48.66150772 193.51404366 -49.24472046 192.61576843 C-50.48978367 190.69003173 -51.71391407 188.75194087 -52.9375 186.8125 C-53.7903005 185.48115588 -54.64406627 184.1504296 -55.4987793 182.8203125 C-57.62485891 179.5030627 -59.73280057 176.17471425 -61.83508301 172.84234619 C-63.52272329 170.17329967 -65.22762352 167.51533297 -66.9296875 164.85546875 C-77.41499381 148.34481572 -85.62719126 133.01940968 -85.5 112.9375 C-85.49355469 111.85476807 -85.48710938 110.77203613 -85.48046875 109.65649414 C-85.1117132 93.19713888 -80.11218208 79.17346462 -72 65 C-71.42121094 63.98164063 -70.84242187 62.96328125 -70.24609375 61.9140625 C-66.22053349 55.24526894 -61.38482629 49.6067815 -56 44 C-55.42507812 43.38511719 -54.85015625 42.77023438 -54.2578125 42.13671875 C-50.14165555 37.85315829 -45.6191016 34.15142581 -40.9921875 30.43359375 C-38.47226322 28.3840992 -36.00753619 26.28621533 -33.55493164 24.15722656 C-25.39558299 17.10090808 -16.72803177 10.7706791 -7.99194336 4.45117188 C-6.59630017 3.43441699 -5.22359144 2.38577694 -3.86938477 1.31445312 C-2 0 -2 0 0 0 Z " fill="#FFFFFF" transform="translate(85,92)"/>
<path d="M0 0 C3.37279672 1.21153733 4.48622811 2.81497081 6.62890625 5.671875 C10.0973936 10.12723645 13.69483117 14.31326471 17.56640625 18.421875 C22.00626383 23.15902272 26.15794601 28.04321441 30.22265625 33.109375 C32.89848796 36.32037305 35.70998901 39.37216637 38.56640625 42.421875 C43.00224054 47.15787853 47.15403246 52.03662333 51.21484375 57.1015625 C53.93161174 60.35987893 56.79190291 63.45188945 59.69140625 66.546875 C63.17512776 70.28812007 66.62977435 74.03483143 69.87890625 77.984375 C70.70841797 78.99177734 70.70841797 78.99177734 71.5546875 80.01953125 C72.56640625 81.921875 72.56640625 81.921875 72.31176758 83.86328125 C71.45138309 86.23955443 70.57560924 87.14937444 68.65234375 88.76171875 C68.05550781 89.26767578 67.45867187 89.77363281 66.84375 90.29492188 C66.21597656 90.81119141 65.58820313 91.32746094 64.94140625 91.859375 C64.33683594 92.37177734 63.73226562 92.88417969 63.109375 93.41210938 C61.28328525 94.94423372 59.43091859 96.43684345 57.56640625 97.921875 C56.95700195 98.42605957 56.34759766 98.93024414 55.71972656 99.44970703 C53.1892722 101.4349822 51.24387726 102.84751843 48.00390625 103.203125 C44.12980074 101.16673621 42.08222486 97.93125547 39.56640625 94.421875 C39.00896729 93.67172119 38.45152832 92.92156738 37.87719727 92.14868164 C36.0942213 89.74883841 34.32881694 87.33685268 32.56640625 84.921875 C30.22758164 81.72267672 27.8712389 78.53751231 25.50390625 75.359375 C24.96830078 74.61558594 24.43269531 73.87179687 23.88085938 73.10546875 C23.37361328 72.42484375 22.86636719 71.74421875 22.34375 71.04296875 C21.90281006 70.4389624 21.46187012 69.83495605 21.00756836 69.21264648 C19.39225213 67.47709432 19.39225213 67.47709432 15.56640625 67.921875 C13.29237284 69.41495746 11.20016048 70.93575863 9.06640625 72.609375 C-4.37740354 82.79926905 -18.64437676 91.81718821 -33.43359375 99.921875 C-31.82210927 105.84041799 -28.81357192 110.79215559 -25.74609375 116.046875 C-25.20952148 116.97959229 -24.67294922 117.91230957 -24.12011719 118.87329102 C-21.8206199 122.86206637 -19.50543424 126.83657472 -17.0859375 130.75390625 C-16.45816406 131.77871094 -15.83039063 132.80351563 -15.18359375 133.859375 C-14.6421875 134.71402344 -14.10078125 135.56867188 -13.54296875 136.44921875 C-12.20606978 139.42899708 -12.3548104 141.68870634 -12.43359375 144.921875 C-16.15389674 146.93869671 -19.88615884 148.9322996 -23.62109375 150.921875 C-24.67619141 151.49421875 -25.73128906 152.0665625 -26.81835938 152.65625 C-28.35073242 153.46835937 -28.35073242 153.46835937 -29.9140625 154.296875 C-30.85145264 154.79960938 -31.78884277 155.30234375 -32.75463867 155.8203125 C-35.5494425 156.96951098 -37.44584079 157.1493328 -40.43359375 156.921875 C-46.40216117 145.04056948 -52.28785057 133.12017468 -58.12109375 121.171875 C-58.55568909 120.28223053 -58.99028442 119.39258606 -59.43804932 118.47598267 C-65.52984159 105.99636431 -71.52182061 93.478926 -77.29956055 80.85058594 C-77.76402588 79.83641602 -78.22849121 78.82224609 -78.70703125 77.77734375 C-79.14756836 76.81489746 -79.58810547 75.85245117 -80.04199219 74.86083984 C-82.0196128 70.68424389 -84.1592541 66.59410964 -86.31884766 62.5090332 C-87.43359375 59.921875 -87.43359375 59.921875 -87.43359375 55.921875 C-84.36084529 54.21454454 -81.27393587 52.53461852 -78.18359375 50.859375 C-77.31089844 50.37404297 -76.43820312 49.88871094 -75.5390625 49.38867188 C-74.69472656 48.93427734 -73.85039063 48.47988281 -72.98046875 48.01171875 C-72.20541992 47.58753662 -71.43037109 47.16335449 -70.63183594 46.72631836 C-68.43359375 45.921875 -68.43359375 45.921875 -66.31811523 46.03320312 C-63.7623549 47.23840686 -63.08886803 48.5852389 -61.734375 51.05078125 C-61.25129883 51.91421143 -60.76822266 52.7776416 -60.27050781 53.66723633 C-59.76745117 54.59689209 -59.26439453 55.52654785 -58.74609375 56.484375 C-58.22370117 57.42498779 -57.70130859 58.36560059 -57.16308594 59.3347168 C-56.09459282 61.25999275 -55.03128531 63.18815561 -53.97314453 65.11914062 C-52.13413565 68.46703501 -50.25971202 71.79394859 -48.37963867 75.11889648 C-46.72311138 78.0488432 -45.07839087 80.98533065 -43.43359375 83.921875 C-35.02427377 80.00536252 -27.26240657 75.42135353 -19.59692383 70.21826172 C-17.87339979 69.0484402 -16.14348344 67.88863249 -14.41210938 66.73046875 C-7.29903621 61.95508395 -0.32383786 57.01409682 6.56640625 51.921875 C2.51769012 45.6569317 -1.80958271 39.71006146 -6.43359375 33.859375 C-8.20001115 31.61278518 -9.96442935 29.36493909 -11.71875 27.10888672 C-12.87585484 25.63318268 -14.05090656 24.17139995 -15.2421875 22.72314453 C-16.07943359 21.67876221 -16.07943359 21.67876221 -16.93359375 20.61328125 C-17.43890625 19.99783447 -17.94421875 19.3823877 -18.46484375 18.74829102 C-19.43359375 16.921875 -19.43359375 16.921875 -19.26708984 14.86157227 C-17.82723634 11.51077084 -14.83499475 9.53474994 -12.05859375 7.296875 C-11.46820312 6.80703125 -10.8778125 6.3171875 -10.26953125 5.8125 C-3.09766535 -0.09944351 -3.09766535 -0.09944351 0 0 Z " fill="#FFFFFF" transform="translate(632.43359375,713.078125)"/>
<path d="M0 0 C1.77977989 0.00866306 3.55957368 0.01480389 5.33937073 0.01853943 C10.00338265 0.03570112 14.66628067 0.08974518 19.32989502 0.15081787 C23.15127842 0.19458817 26.97257233 0.21199854 30.79415798 0.22808933 C35.34200317 0.24764123 39.88974422 0.27821416 44.4375 0.3125 C45.30854307 0.3189258 46.17958614 0.3253516 47.07702446 0.33197212 C49.52598734 0.35285216 51.97473354 0.38113986 54.42358398 0.41235352 C55.15547943 0.41818451 55.88737488 0.4240155 56.64144897 0.43002319 C61.63855693 0.50574443 61.63855693 0.50574443 62.75390625 1.62109375 C63.74684671 6.91677623 64.14684723 12.23549096 63.75390625 17.62109375 C59.48475477 21.89024523 43.03824848 19.73593927 37.0625 19.796875 C36.02163239 19.80886932 34.98076477 19.82086365 33.90835571 19.83322144 C29.56217818 19.88195626 25.21630453 19.92945046 20.86987305 19.94702148 C17.66279173 19.96245498 14.45679511 20.00256567 11.25 20.046875 C10.26978378 20.04496658 9.28956757 20.04305817 8.27964783 20.04109192 C3.95920671 20.11892208 1.42125378 20.22165217 -2.34643555 22.47680664 C-4.78852351 25.23337502 -5.09266699 27.10648276 -5.49609375 30.74609375 C-5.625 31.80054688 -5.75390625 32.855 -5.88671875 33.94140625 C-6.0053125 35.15570312 -6.12390625 36.37 -6.24609375 37.62109375 C-6.41985587 39.36445964 -6.59402943 41.10778456 -6.76855469 42.85107422 C-6.90290924 44.19345657 -6.90290924 44.19345657 -7.03997803 45.56295776 C-7.10799622 46.24214264 -7.1760144 46.92132751 -7.24609375 47.62109375 C17.10958618 47.72909015 41.41926294 47.75856589 65.75390625 46.62109375 C66.94072351 50.18154552 66.85080457 53.05917712 66.81640625 56.80859375 C66.80738281 58.08089844 66.79835938 59.35320313 66.7890625 60.6640625 C66.77746094 61.63988281 66.76585937 62.61570312 66.75390625 63.62109375 C54.03580458 66.4894764 40.28556306 65.78155244 27.31665039 65.75146484 C24.55935219 65.74607997 21.80221534 65.75145985 19.04492188 65.7578125 C9.56249597 65.76100191 0.19619342 65.5794024 -9.24609375 64.62109375 C-9.36291187 68.16247993 -9.43354875 71.70336615 -9.49609375 75.24609375 C-9.52960938 76.24511719 -9.563125 77.24414062 -9.59765625 78.2734375 C-9.67890435 84.40766879 -9.36684204 87.96319019 -5.24609375 92.62109375 C0.05725622 96.46145062 7.84539245 95.771118 14.15234375 95.75390625 C14.94557037 95.75486298 15.738797 95.7558197 16.55606079 95.75680542 C18.23187337 95.75748298 19.90768863 95.75565839 21.58349609 95.75146484 C24.08697786 95.74618222 26.59027428 95.75138699 29.09375 95.7578125 C38.45378461 95.76133846 47.74611976 95.48426721 57.08422852 94.84155273 C61.97864018 94.54751683 66.8531332 94.52583034 71.75390625 94.62109375 C72.96683908 100.23090809 73.08502009 105.90451073 72.75390625 111.62109375 C66.25426579 118.12073421 36.04528616 114.80539908 26.46200562 114.81253052 C-22.53543258 114.72985443 -22.53543258 114.72985443 -34.13671875 103.84765625 C-40.83946827 96.39654149 -40.69748287 89.33334394 -40.24609375 79.62109375 C-39.80079572 74.58054231 -39.15182474 69.5814505 -38.453125 64.5703125 C-38.26302785 63.17702665 -38.0732302 61.78369991 -37.88371277 60.39033508 C-37.48770581 57.49777207 -37.08407368 54.60639477 -36.67553711 51.71557617 C-36.15671215 48.03569781 -35.66373492 44.35285341 -35.17711353 40.66859722 C-34.79424574 37.80039915 -34.39449751 34.93473486 -33.99011803 32.06949806 C-33.80127718 30.712913 -33.61824397 29.35550468 -33.44150734 27.99728966 C-32.15724874 18.20390308 -30.31875375 10.16517711 -23.07397461 3.09741211 C-16.49018417 -1.34366965 -7.61331587 -0.1276633 0 0 Z " fill="#FFFFFF" transform="translate(353.24609375,805.37890625)"/>
<path d="M0 0 C5.09163813 0.57013677 9.23767847 2.32646802 13.8125 4.5 C36.43739288 14.85772984 60.64955837 22.64648385 85.00195312 27.7590332 C89.79528069 28.79528069 89.79528069 28.79528069 92 31 C92.046875 32.953125 92.046875 32.953125 91.75 35.25 C91.66234375 35.99765625 91.5746875 36.7453125 91.484375 37.515625 C90.34971302 43.33534288 89.30584537 46.3302755 84.20581055 49.77661133 C83.53976807 50.20095459 82.87372559 50.62529785 82.1875 51.0625 C81.47956299 51.52873779 80.77162598 51.99497559 80.04223633 52.4753418 C77.70630463 54.00210938 75.353938 55.50117378 73 57 C72.21625 57.50982422 71.4325 58.01964844 70.625 58.54492188 C47.04939121 73.8728948 21.49187416 87.41685248 -5 97 C-5 97.66 -5 98.32 -5 99 C20.20983118 108.55481618 45.76841668 116.45348211 72.26708984 121.5703125 C74 122 74 122 75 123 C75.45306858 129.34296013 74.23291392 134.09761215 72 140 C62.88363494 139.40721173 54.2610737 137.35358954 45.4375 135.125 C44.65365936 134.92814606 43.86981873 134.73129211 43.06222534 134.5284729 C-35.27444808 114.72555192 -35.27444808 114.72555192 -52 98 C-51.85280298 92.99530145 -49.23469753 88.66980324 -46 85 C-44.06054687 83.91845703 -44.06054687 83.91845703 -41.78125 83.0703125 C-40.44622437 82.57277466 -40.44622437 82.57277466 -39.08422852 82.06518555 C-34.29582554 80.41143725 -29.48156498 78.84417998 -24.65795898 77.29711914 C16.94585067 64.13421641 16.94585067 64.13421641 54 42 C54.33 41.01 54.66 40.02 55 39 C54.4332959 38.90855713 53.8665918 38.81711426 53.28271484 38.72290039 C45.77559407 37.37982839 38.78400896 35.03129391 31.625 32.4375 C30.40433838 31.99857422 29.18367676 31.55964844 27.92602539 31.10742188 C3.0081026 22.00540173 3.0081026 22.00540173 -6 16 C-5.59683075 9.68368172 -3.28767869 5.35006016 0 0 Z " fill="#FFFFFF" transform="translate(210,770)"/>
<path d="M0 0 C-0.30681865 3.27139242 -0.62143282 6.54198921 -0.9375 9.8125 C-1.02451172 10.74126953 -1.11152344 11.67003906 -1.20117188 12.62695312 C-1.33168945 13.9659668 -1.33168945 13.9659668 -1.46484375 15.33203125 C-1.58267212 16.56530151 -1.58267212 16.56530151 -1.70288086 17.82348633 C-2 20 -2 20 -3 23 C-5.73706055 23.91967773 -5.73706055 23.91967773 -9.38671875 24.68359375 C-10.04017776 24.82523453 -10.69363678 24.96687531 -11.36689758 25.11280823 C-13.47131933 25.566888 -15.57894287 26.00306639 -17.6875 26.4375 C-20.42202678 27.01283281 -23.15480701 27.59597561 -25.88671875 28.18359375 C-26.55879364 28.32727386 -27.23086853 28.47095398 -27.92330933 28.61898804 C-34.70939037 30.09903699 -41.35090622 31.99711947 -48 34 C-48.23896614 55.33967631 -48.00945853 76.61519999 -47.0625 97.9375 C-47.01893372 98.92420685 -46.97536743 99.9109137 -46.93048096 100.92752075 C-46.40641943 112.62696885 -45.76528478 124.31389459 -45 136 C-54.24 139.96 -63.48 143.92 -73 148 C-75.317924 145.682076 -75.34661278 144.95897231 -75.73022461 141.80200195 C-75.84060562 140.92562073 -75.95098663 140.0492395 -76.06471252 139.14630127 C-76.17613083 138.18665466 -76.28754913 137.22700806 -76.40234375 136.23828125 C-76.52475937 135.23617615 -76.64717499 134.23407104 -76.77330017 133.20159912 C-77.17166053 129.90637004 -77.55555909 126.60967 -77.9375 123.3125 C-78.06972961 122.19285858 -78.20195923 121.07321716 -78.3381958 119.91964722 C-80.13679295 104.65611635 -81.71010007 89.38777147 -82.875 74.0625 C-82.96695145 72.8664061 -82.96695145 72.8664061 -83.0607605 71.64614868 C-83.70706051 63.0929371 -84.18793745 54.58363698 -84 46 C-98.7321546 52.19003847 -113.43219955 58.43131479 -128 65 C-129.77541538 57.36399015 -130.53430878 49.8187104 -131 42 C-95.80214746 22.55010152 -40.81261905 -0.85667682 0 0 Z " fill="#FFFFFF" transform="translate(287,8)"/>
<path d="M0 0 C2.45541027 1.84491904 4.78595597 3.82323065 7.125 5.8125 C21.54275806 17.77401206 37.17468532 27.98529487 53.11914062 37.7800293 C55.15286091 39.09914927 57.07633146 40.52602368 59 42 C58.42176904 46.06225548 57.10882263 48.84762346 54.9375 52.3125 C54.38964844 53.19550781 53.84179688 54.07851563 53.27734375 54.98828125 C52.85582031 55.65214844 52.43429688 56.31601562 52 57 C47.67892259 56.47944961 44.74345145 55.54954501 41.09375 53.19140625 C40.19180908 52.61406738 39.28986816 52.03672852 38.3605957 51.44189453 C36.94460083 50.51159424 36.94460083 50.51159424 35.5 49.5625 C34.52184326 48.92940918 33.54368652 48.29631836 32.53588867 47.64404297 C23.79790785 41.95221835 15.16015919 36.09600185 6.98828125 29.609375 C1.4019829 25.04696944 1.4019829 25.04696944 -5.375 23.1875 C-9.91682833 24.205496 -11.06523488 25.40491273 -14 29 C-15.24752521 30.37724575 -16.49779317 31.75200944 -17.75 33.125 C-22.31449575 38.29752426 -26.65608871 43.64226274 -31 49 C-32.54122015 50.87536704 -34.0828821 52.75037111 -35.625 54.625 C-44.65733966 64.52131255 -44.65733966 64.52131255 -48.328125 76.734375 C-47.61405983 81.66482501 -45.48065049 84.86527944 -41.61328125 87.8671875 C-40.18973457 88.88400656 -38.75530713 89.88570038 -37.3125 90.875 C-36.53229492 91.42381836 -35.75208984 91.97263672 -34.94824219 92.53808594 C-22.9706549 100.90419969 -10.86777239 109.22796839 1.60546875 116.83984375 C2.26579102 117.2462207 2.92611328 117.65259766 3.60644531 118.07128906 C5.28987834 119.09750984 6.98617888 120.10254372 8.68359375 121.10546875 C11 123 11 123 12.03125 125.375 C11.98967273 128.86749049 10.82905989 130.82016386 9.0625 133.8125 C8.49660156 134.78832031 7.93070312 135.76414062 7.34765625 136.76953125 C6.90292969 137.50558594 6.45820313 138.24164062 6 139 C-0.81767787 138.68548026 -5.29163858 135.77307124 -10.9375 132.125 C-12.328479 131.2431604 -12.328479 131.2431604 -13.74755859 130.34350586 C-21.97291553 125.09585566 -30.0661175 119.67826234 -38 114 C-38.76586426 113.4519873 -39.53172852 112.90397461 -40.32080078 112.33935547 C-75.76543541 86.85307695 -75.76543541 86.85307695 -78 74 C-78.24751906 71.10295078 -78.3385906 68.21933902 -78.375 65.3125 C-78.38893799 64.58764404 -78.40287598 63.86278809 -78.41723633 63.1159668 C-78.34557006 55.0046482 -74.66901187 50.21671933 -69.25 44.5625 C-68.44429565 43.70555542 -68.44429565 43.70555542 -67.62231445 42.83129883 C-64.33690392 39.35160847 -60.98313345 35.94851883 -57.56640625 32.59765625 C-55.83855808 30.83533729 -54.23320827 28.99696908 -52.625 27.125 C-49.32844771 23.29626887 -45.78972197 19.77008153 -42.19140625 16.2265625 C-40.17322719 14.17600623 -38.29686983 12.06897169 -36.4375 9.875 C-26.95760457 -1.07176147 -13.9801316 -8.3845262 0 0 Z " fill="#FFFFFF" transform="translate(128,715)"/>
<path d="M0 0 C1.6171875 2.58203125 1.6171875 2.58203125 2.875 5.8125 C3.30554688 6.87082031 3.73609375 7.92914062 4.1796875 9.01953125 C5.02374306 12.08626647 5.20261553 13.13590936 4 16 C2.19116211 17.13745117 2.19116211 17.13745117 -0.22265625 18.04296875 C-1.59695801 18.56358887 -1.59695801 18.56358887 -2.99902344 19.09472656 C-4.0099707 19.4553418 -5.02091797 19.81595703 -6.0625 20.1875 C-7.10567383 20.57260742 -8.14884766 20.95771484 -9.22363281 21.35449219 C-15.61122269 23.64466326 -22.0306677 25.62549346 -28.57421875 27.41015625 C-29.65516563 27.70583748 -29.65516563 27.70583748 -30.75794983 28.00749207 C-34.32593981 28.9765841 -37.89890918 29.91584206 -41.48461914 30.81713867 C-42.80751402 31.1643238 -44.13035202 31.51172573 -45.453125 31.859375 C-46.62004883 32.15295898 -47.78697266 32.44654297 -48.98925781 32.74902344 C-52.66052312 34.27445025 -54.04054456 35.54659511 -56 39 C-56.79174073 45.2313382 -55.04889454 51.34633027 -53.69921875 57.41015625 C-53.34365654 59.03865761 -53.34365654 59.03865761 -52.98091125 60.70005798 C-52.47927137 62.987769 -51.97392037 65.27466903 -51.46508789 67.56079102 C-50.68987795 71.05179141 -49.93111547 74.54608907 -49.17382812 78.04101562 C-48.68327884 80.2684468 -48.1917744 82.49566788 -47.69921875 84.72265625 C-47.47409103 85.76341812 -47.24896332 86.80417999 -47.01701355 87.8764801 C-44.97983118 97.29310944 -44.97983118 97.29310944 -38.875 104.4375 C-30.70978535 108.50536487 -19.62885026 103.40522264 -11.5 101 C-10.82712952 100.80391144 -10.15425903 100.60782288 -9.46099854 100.40579224 C1.27188833 97.27413821 11.79760636 93.74090483 22.24414062 89.74414062 C23.19740234 89.38384766 24.15066406 89.02355469 25.1328125 88.65234375 C25.95668457 88.33257568 26.78055664 88.01280762 27.62939453 87.68334961 C30.19204245 86.94464193 32.34676344 86.87521469 35 87 C35.87042243 88.88842514 36.72075474 90.78611902 37.5625 92.6875 C38.03816406 93.74324219 38.51382813 94.79898438 39.00390625 95.88671875 C40.09741478 99.30446893 40.21503676 100.66345994 39 104 C36.72875977 105.35864258 36.72875977 105.35864258 33.69140625 106.39453125 C32.00204956 106.98572754 32.00204956 106.98572754 30.27856445 107.58886719 C29.05226318 107.99266602 27.82596191 108.39646484 26.5625 108.8125 C25.2875808 109.24647844 24.01308981 109.68171675 22.73901367 110.11816406 C18.83657449 111.44501725 14.91968983 112.72520457 11 114 C9.85466797 114.37624512 8.70933594 114.75249023 7.52929688 115.14013672 C-45.64837462 132.48513597 -45.64837462 132.48513597 -60.5 126 C-66.9710415 122.20365565 -71.48527153 117.05166552 -74 110 C-74.4360767 107.91600145 -74.81257163 105.81908401 -75.14501953 103.71606445 C-75.44510422 101.84305412 -75.44510422 101.84305412 -75.75125122 99.9322052 C-75.96212444 98.57595202 -76.17263576 97.21964253 -76.3828125 95.86328125 C-76.60385882 94.45944101 -76.82520783 93.0556484 -77.04684448 91.65190125 C-77.50965165 88.7113299 -77.96799298 85.7701046 -78.42333984 82.82836914 C-79.00359957 79.08271565 -79.59605807 75.33911305 -80.19211006 71.5959444 C-80.65224998 68.69605434 -81.10516017 65.79506852 -81.55605698 62.89372826 C-81.77139274 61.51445134 -81.98904251 60.13553341 -82.2091713 58.75701332 C-84.35540761 45.27343831 -85.56135706 35.01323386 -78.1875 23.0625 C-73.76067535 18.88863676 -67.71433484 17.52773256 -61.93359375 16.08984375 C-60.56066991 15.74119922 -59.18787244 15.39205676 -57.81518555 15.04248047 C-56.74414078 14.77247223 -56.74414078 14.77247223 -55.65145874 14.49700928 C-41.65662548 10.96025003 -27.97021246 6.88831396 -14.38256836 2.01147461 C-12.63665405 1.39864624 -12.63665405 1.39864624 -10.85546875 0.7734375 C-9.84121826 0.40653809 -8.82696777 0.03963867 -7.78198242 -0.33837891 C-4.72611135 -1.06513719 -2.95877163 -1.02223863 0 0 Z " fill="#FFFFFF" transform="translate(524,781)"/>
<path d="M0 0 C0.66 0.33 1.32 0.66 2 1 C2.64739716 3.9747832 3.16914953 6.8968441 3.62890625 9.90234375 C3.9399187 11.82385506 4.25121077 13.74532112 4.56274414 15.66674805 C4.72517609 16.68811859 4.88760803 17.70948914 5.05496216 18.7618103 C7.80876766 35.99250923 10.86737864 53.13306319 14.5625 70.1875 C14.84299194 71.48340057 14.84299194 71.48340057 15.12915039 72.80548096 C17.82361688 85.18154678 20.73462561 97.49817571 23.96899414 109.74487305 C24.23832764 110.77394775 24.50766113 111.80302246 24.78515625 112.86328125 C25.02113525 113.74282471 25.25711426 114.62236816 25.50024414 115.52856445 C26.02504753 118.12386719 26.22470616 120.36075462 26 123 C24.0859375 124.88671875 24.0859375 124.88671875 21.375 126.6875 C20.38628906 127.36167969 19.39757812 128.03585938 18.37890625 128.73046875 C17.56897217 129.2706665 17.56897217 129.2706665 16.74267578 129.82177734 C13.55112858 131.9795816 10.4395204 134.25022693 7.3125 136.5 C6.10073856 137.36525336 4.88853885 138.22989344 3.67578125 139.09375 C2.79277344 139.7228125 1.90976563 140.351875 1 141 C-1.54207509 138.45792491 -2.05766371 136.29984607 -3.1796875 132.87890625 C-3.38829407 132.24482346 -3.59690063 131.61074066 -3.81182861 130.95744324 C-4.50792824 128.8284124 -5.19259633 126.6959582 -5.875 124.5625 C-6.23365143 123.44748108 -6.23365143 123.44748108 -6.59954834 122.30993652 C-15.2313801 95.39252238 -22.70411891 68.12157427 -29.25 40.625 C-29.44499084 39.81059448 -29.63998169 38.99618896 -29.84088135 38.15710449 C-30.38569463 35.86941398 -30.92147675 33.57984429 -31.453125 31.2890625 C-31.69121384 30.28587479 -31.69121384 30.28587479 -31.93411255 29.26242065 C-32.72778909 25.77716988 -33.1690527 22.57486696 -33 19 C-29.42548451 16.9368208 -25.85085438 14.87384036 -22.27612305 12.81103516 C-21.06287623 12.11089299 -19.84965944 11.41069878 -18.63647461 10.71044922 C-18.04938721 10.37158691 -17.4622998 10.03272461 -16.85742188 9.68359375 C-15.98786362 9.18152405 -15.98786362 9.18152405 -15.10073853 8.66931152 C-13.40410801 7.69091338 -11.70573247 6.71554328 -10.00732422 5.74023438 C-8.21853987 4.70512682 -6.43620184 3.65853314 -4.66845703 2.58789062 C-3.14447121 1.66962693 -1.57745869 0.82302192 0 0 Z " fill="#FFFFFF" transform="translate(137,59)"/>
<path d="M0 0 C-1.85758197 11.61499057 -11.39751338 20.58379158 -19 29 C-19.73089844 29.82757813 -20.46179688 30.65515625 -21.21484375 31.5078125 C-34.64075884 45.88719949 -54.17009179 56.90504588 -73.953125 58.2734375 C-82.6072632 58.55847499 -89.79401222 58.46043795 -97 53 C-101.44130048 48.44766701 -103.28804959 44.53645698 -103.3125 38.1875 C-103.17684542 32.87759198 -103.05321344 29.40021937 -100 25 C-92.70494684 20.32569984 -84.16518297 17.7583517 -76 15.0625 C-75.34992981 14.84689423 -74.69985962 14.63128845 -74.03009033 14.40914917 C-50.56889441 6.66746179 -24.88677556 0 0 0 Z " fill="#4163AE" transform="translate(416,215)"/>
<path d="M0 0 C1.09828125 0.00902344 2.1965625 0.01804688 3.328125 0.02734375 C4.12734375 0.03894531 4.9265625 0.05054688 5.75 0.0625 C5.29088358 5.48007376 4.45797465 10.59898263 3.20703125 15.89453125 C2.93479736 17.05315674 2.66256348 18.21178223 2.38208008 19.40551758 C2.17349365 20.28232178 1.96490723 21.15912598 1.75 22.0625 C-3.88734216 22.75849184 -9.52496309 23.45216671 -15.1628418 24.14379883 C-17.07632946 24.37885638 -18.98974271 24.61452065 -20.90307617 24.85083008 C-41.3047504 27.36975253 -41.3047504 27.36975253 -50.25 28.0625 C-50.11149295 24.60383208 -49.96295273 21.14566725 -49.8125 17.6875 C-49.77318359 16.70265625 -49.73386719 15.7178125 -49.69335938 14.703125 C-49.65146484 13.76210937 -49.60957031 12.82109375 -49.56640625 11.8515625 C-49.52974854 10.98225098 -49.49309082 10.11293945 -49.45532227 9.21728516 C-49.25 7.0625 -49.25 7.0625 -48.25 5.0625 C-45.66479492 4.48413086 -45.66479492 4.48413086 -42.23046875 4.02734375 C-40.97943359 3.85783203 -39.72839844 3.68832031 -38.43945312 3.51367188 C-37.45150757 3.38690063 -37.45150757 3.38690063 -36.44360352 3.25756836 C-34.48268105 3.0058009 -32.523529 2.74036399 -30.56445312 2.47460938 C-20.40818699 1.12423471 -10.25876087 -0.11150827 0 0 Z " fill="#FFFFFF" transform="translate(349.25,62.9375)"/>
<path d="M0 0 C1.40184709 2.6265668 2.36987077 5.03306418 3.02148438 7.93554688 C3.28185486 9.07824036 3.28185486 9.07824036 3.54748535 10.24401855 C3.72775269 11.06067993 3.90802002 11.87734131 4.09375 12.71875 C4.38203674 13.99933289 4.38203674 13.99933289 4.67614746 15.30578613 C5.0820156 17.11410382 5.48531548 18.9229996 5.88623047 20.73242188 C6.49195429 23.46372072 7.10660878 26.19288843 7.72265625 28.921875 C9.73927946 37.91399049 11.66205044 46.87761662 13 56 C-1.67291393 52.70867807 -15.31453301 45.9595087 -28 38 C-27.01 37.505 -27.01 37.505 -26 37 C-24.08984375 37.70703125 -24.08984375 37.70703125 -21.9375 38.8125 C-21.22464844 39.16957031 -20.51179687 39.52664063 -19.77734375 39.89453125 C-18 41 -18 41 -17 43 C-15.2914614 43.73541505 -15.2914614 43.73541505 -13.1875 44.3125 C-8.28354952 45.8479222 -3.61329974 47.78866236 1.10546875 49.81640625 C4.03506861 51.0143398 6.98760479 52.03157072 10 53 C8.98242043 46.05361792 7.65152285 39.21581258 6.0546875 32.3828125 C5.87899231 31.63086609 5.70329712 30.87891968 5.52227783 30.10418701 C4.78955671 26.98386974 4.05138822 23.86488856 3.30810547 20.74707031 C2.75955974 18.43946089 2.21918511 16.13005138 1.6796875 13.8203125 C1.42661331 12.77485764 1.42661331 12.77485764 1.16842651 11.70828247 C0.24347431 7.72746707 -0.17072974 4.08401417 0 0 Z " fill="#C78383" transform="translate(255,619)"/>
<path d="M0 0 C-7.65391312 6.54795778 -21.38069362 4.10862454 -31 4 C-31 3.67 -31 3.34 -31 3 C-30.35450195 2.94465088 -29.70900391 2.88930176 -29.04394531 2.83227539 C-26.11233145 2.57901389 -23.18117319 2.32080964 -20.25 2.0625 C-19.23421875 1.97548828 -18.2184375 1.88847656 -17.171875 1.79882812 C-16.1921875 1.71181641 -15.2125 1.62480469 -14.203125 1.53515625 C-13.30239258 1.456604 -12.40166016 1.37805176 -11.47363281 1.29711914 C-0.54790153 -0.01521949 -0.54790153 -0.01521949 0 0 Z " fill="#3F62AD" transform="translate(349,293)"/>
<path d="M0 0 C0 1.65 0 3.3 0 5 C-1.79008467 5.22151549 -3.58218162 5.42682213 -5.375 5.625 C-6.37273437 5.74101562 -7.37046875 5.85703125 -8.3984375 5.9765625 C-9.25695312 5.98429687 -10.11546875 5.99203125 -11 6 C-11.66 5.34 -12.32 4.68 -13 4 C-11.02144235 3.33152803 -9.04213695 2.66526889 -7.0625 2 C-5.96035156 1.62875 -4.85820312 1.2575 -3.72265625 0.875 C-1 0 -1 0 0 0 Z " fill="#BECFEA" transform="translate(374,406)"/>
<path d="M0 0 C0.99 0.33 1.98 0.66 3 1 C0.78770401 3.54414039 -0.65126671 4.54746847 -4 5 C-6.67286275 5.07182357 -9.32490846 5.04458486 -12 5 C-11.34 4.01 -10.68 3.02 -10 2 C-7.6171875 1.70703125 -7.6171875 1.70703125 -4.875 1.8125 C-3.96492188 1.83957031 -3.05484375 1.86664063 -2.1171875 1.89453125 C-1.41851562 1.92933594 -0.71984375 1.96414063 0 2 C0 1.34 0 0.68 0 0 Z " fill="#C9D8EF" transform="translate(401,329)"/>
<path d="M0 0 C0.99 0.33 1.98 0.66 3 1 C2 3 2 3 0.63671875 4.23828125 C-1.58700959 6.63184088 -2.76750185 9.25283716 -4.1875 12.1875 C-4.71730469 13.27417969 -5.24710938 14.36085938 -5.79296875 15.48046875 C-6.19128906 16.31191406 -6.58960938 17.14335937 -7 18 C-7.33 17.34 -7.66 16.68 -8 16 C-7.37915039 14.30419922 -7.37915039 14.30419922 -6.34765625 12.3046875 C-5.98349609 11.58925781 -5.61933594 10.87382812 -5.24414062 10.13671875 C-4.85419922 9.39035156 -4.46425781 8.64398438 -4.0625 7.875 C-3.67642578 7.12089844 -3.29035156 6.36679687 -2.89257812 5.58984375 C-1.93547868 3.72290903 -0.96863894 1.86097372 0 0 Z " fill="#985F5F" transform="translate(167,372)"/>
</svg>
