<svg width="1158" height="257" viewBox="0 0 1158 257" fill="none" xmlns="http://www.w3.org/2000/svg">
    <path
        d="M131.861 1.16713C122.308 2.56582 111.358 5.3632 101.922 8.85992L94 11.7739V16.7858C94 23.4296 94.8155 25.2945 98.7763 27.276C106.814 31.4721 120.328 27.8588 132.793 18.068C136.52 15.154 143.859 6.41222 146.888 1.28369C147.82 -0.348113 142.928 -0.46467 131.861 1.16713Z"
        fill="white" />
    <path
        d="M161.138 6.05479C150.762 19.6781 137.587 30.6233 123.947 36.911C114.387 41.2192 98.6477 43.7808 92.1188 41.9178C85.2403 40.0548 79.6441 34.4657 77.8953 27.5959C77.1958 24.5685 76.2631 22.1233 75.9134 22.1233C75.0973 22.1233 64.2548 30.1575 54.5781 37.9589L47 44.1301L51.8966 54.3767C62.7391 76.6164 73.1153 119.349 93.1681 224.726C95.733 238.466 98.1813 250.925 98.4145 252.438C98.9974 254.651 99.8135 255 105.06 255C111.822 255 124.53 253.021 126.862 251.623C128.027 250.808 127.561 248.247 124.763 239.747C118.118 219.137 115.319 199.925 115.319 174.658C115.319 118.418 132.574 68.6986 165.568 29.4589C169.998 24.2192 176.994 17 181.191 13.274C185.388 9.54794 188.419 6.17123 187.953 5.70547C186.787 4.65753 170.348 -6.25849e-06 167.667 -6.25849e-06C166.617 -6.25849e-06 163.586 2.79451 161.138 6.05479Z"
        fill="white" />
    <path
        d="M864.668 57.6666C838.668 60.8666 821.734 76.8666 816.001 103.667C813.334 116.067 813.468 136.6 816.134 145.533C818.668 154.467 826.534 163.133 835.334 166.867C850.001 173.133 873.734 173.267 890.401 167C912.001 158.867 924.668 134.867 924.668 101.8C924.668 73.6666 913.334 60.7333 885.734 57.6666C879.601 56.8666 874.401 56.4666 874.001 56.4666C873.601 56.5999 869.468 57.1333 864.668 57.6666ZM889.601 79.7999C891.601 81.2666 894.668 85.1333 896.401 88.4666C899.201 93.7999 899.468 95.6666 898.934 108.333C897.734 137.4 886.401 152.2 865.334 152.333C855.201 152.333 846.534 148.333 842.801 141.8C839.468 136.067 838.401 120.467 840.668 109.4C843.734 93.1333 849.734 83.6666 860.001 78.7333C867.468 75.2666 884.134 75.7999 889.601 79.7999Z"
        fill="white" />
    <path
        d="M350 60.467C329.2 63.9337 316.533 75.8003 311.467 96.6003C310 102.6 302 162.467 302 167.267C302 169.4 303.333 169.667 313.2 169.667C322.8 169.667 324.533 169.267 325.2 167.267C325.467 166.067 326.933 155.8 328.133 144.6L330.533 124.334H363.467H396.533L397.333 119.667C397.733 117.134 398.267 112.867 398.667 110.334L399.467 105.667L366.4 105.4L333.333 105L333.733 101.667C334.667 95.0003 339.6 86.867 345.067 83.267C350.4 79.667 350.8 79.667 375.867 79.267C389.867 79.0003 401.733 78.467 402.133 77.9337C402.667 77.4003 403.467 73.0003 404 67.9337L404.933 59.0003L381.067 59.1337C368 59.267 354 59.8003 350 60.467Z"
        fill="white" />
    <path
        d="M416.001 63.267C415.067 69.267 403.334 165.134 403.334 167.667C403.334 169.267 405.601 169.667 415.334 169.667C422.001 169.667 427.334 169.534 427.334 169.267C427.334 169.134 430.267 144.734 434.001 115C437.601 85.267 440.667 60.6003 440.667 59.9337C440.667 59.4003 435.334 59.0003 428.667 59.0003H416.801L416.001 63.267Z"
        fill="white" />
    <path
        d="M448.001 60.5998C447.734 61.5331 447.201 66.0665 446.667 70.5998L445.867 78.9998H463.334H480.667V82.4665C480.667 85.9331 472.001 156.866 470.667 165.4L469.867 169.8L482.267 169.4L494.667 169L500.134 124.333C503.201 99.7998 505.867 79.5331 505.867 79.2665C506.001 79.1331 513.734 78.9998 523.201 78.9998C532.801 78.9998 540.801 78.5998 541.067 77.9331C541.467 77.3998 542.134 72.9998 542.667 67.9331L543.601 58.9998H496.134C459.201 58.9998 448.401 59.3998 448.001 60.5998Z"
        fill="white" />
    <path
        d="M606.8 60.6003C606.4 61.5337 603.334 85.1337 600 113C596.667 140.867 593.6 165 593.334 166.6C592.667 169.667 592.934 169.667 604.534 169.667H616.267L617.067 164.6C617.467 161.934 618.534 153.267 619.467 145.534L621.067 131.267L645.867 130.734C668.267 130.2 671.334 129.934 677.734 127.134C687.467 122.734 695.6 113.4 698.534 103.267C703.867 84.3337 698.667 68.867 684.8 62.6003C679.2 59.9337 675.867 59.667 643.067 59.267C614 58.867 607.2 59.1337 606.8 60.6003ZM669.6 82.467C672.8 84.867 673.334 86.3337 673.734 92.6003C674 98.467 673.6 100.6 671.2 103.534C666.267 109.8 661.334 111 641.334 111C624.667 111 623.2 110.867 623.867 108.6C624.134 107.4 625.2 100.2 626 92.6003L627.6 78.867L646.8 79.267C663.6 79.667 666.267 79.9337 669.6 82.467Z"
        fill="white" />
    <path
        d="M716.667 59.6665C716.667 60.0665 713.734 84.7331 710.001 114.466C706.401 144.2 703.334 168.866 703.334 169.133C703.334 169.533 708.534 169.533 714.934 169.4L726.667 169L729.334 147.666L732.001 126.333L745.467 125.933L758.801 125.533L768.267 147.266L777.734 169L791.201 169.4L804.534 169.8L794.534 148.733C782.134 123 782.267 123.533 786.267 122.6C792.401 121 800.534 113.8 804.134 106.733C806.934 101.266 807.867 97.2665 808.267 88.9998C809.067 74.8665 805.867 67.9331 796.001 62.9998C789.467 59.6665 788.934 59.6665 753.067 59.2665C733.067 58.9998 716.667 59.1331 716.667 59.6665ZM781.867 82.1998C787.467 87.2665 784.534 100.733 777.067 104.2C773.201 106.066 739.867 107.933 736.267 106.6C734.667 106.066 734.667 104.066 736.134 92.7331C737.067 85.5331 737.867 79.3998 738.001 79.2665C738.001 78.9998 747.201 78.9998 758.534 79.2665C776.401 79.6665 779.467 79.9331 781.867 82.1998Z"
        fill="white" />
    <path
        d="M1000 60.4669C996.4 61.0003 989.466 63.5336 984.8 65.9336C969.6 73.6669 961.2 87.1336 957.066 111C952.266 138.2 958.8 156.6 976.4 165.267C983.866 169 984.4 169 1012.13 169.4L1040.27 169.934L1041.07 162.734C1042.93 148.2 1045.33 149.667 1018.53 149.667C992.4 149.667 987.6 148.467 983.866 141.4C977.2 128.467 982.533 97.4003 993.333 86.2003C1000.13 79.0003 1006.53 77.6669 1032 77.6669H1051.2L1051.87 73.2669C1052.27 71.0003 1052.93 66.7336 1053.33 63.9336L1054.13 59.0003L1030.4 59.1336C1017.33 59.2669 1003.73 59.8003 1000 60.4669Z"
        fill="white" />
    <path
        d="M1064.27 59.9337C1063.87 60.6003 1063.2 65.0003 1062.67 69.9337L1061.73 79.0003H1092.93H1124L1088.4 114.6L1052.8 150.334L1051.87 159.934L1050.93 169.667H1097.07C1122.4 169.667 1143.47 169.267 1143.73 168.6C1144.13 168.067 1144.8 163.667 1145.33 158.734L1146.27 149.667L1115.73 149.4L1085.33 149L1120.27 113.534L1155.33 78.2003L1156.13 68.6003L1157.07 59.0003H1110.93C1085.6 59.0003 1064.53 59.4003 1064.27 59.9337Z"
        fill="white" />
    <path
        d="M12.5086 86.4906C4.98028 101.151 0 124.305 0 144.318C0 184.576 14.5934 214.712 43.896 234.608C51.656 239.961 65.9019 246.942 66.8284 245.895C68.5658 244.149 56.7521 194.001 47.4864 163.633C36.136 126.516 23.1641 93.8209 16.5623 85.9088L14.2459 83L12.5086 86.4906Z"
        fill="white" />
    <path
        d="M169.052 243.938C188.216 232.95 210.676 210.548 225.226 188.042C254.494 142.768 259.916 98.2191 241.276 54.4422C236.401 42.7555 225.382 24.4998 223.573 25.0008C220.342 25.6946 197.23 90.7192 185.619 131.638C171.458 181.669 162.343 227.912 164.05 241.632L164.552 246.595L169.052 243.938Z"
        fill="white" />
    <path
        d="M536.134 119.934C535.867 121.267 535.201 125.8 534.667 129.934L533.867 137.667H559.734H585.601L586.534 131.534C586.934 128.067 587.334 123.534 587.334 121.534V117.667H562.134C539.201 117.667 536.801 117.934 536.134 119.934Z"
        fill="white" />
    <path
        d="M924 157.267C923.467 161.534 922.8 166.067 922.534 167.267C921.867 169.4 923.067 169.667 933.867 169.667H945.867L946.667 161.934C947.2 157.8 947.6 153.4 947.734 152.334C948 150.734 945.734 150.2 936.4 149.934L924.934 149.534L924 157.267Z"
        fill="white" />
</svg>