<svg width="697" height="166" viewBox="0 0 697 166" fill="none" xmlns="http://www.w3.org/2000/svg">
    <path
        d="M369.187 48.7503C370.191 48.7296 371.195 48.709 372.228 48.6878C382.71 48.6332 392.21 51.2847 399.832 58.8089C404 63.5039 404 63.5039 404 66.0003C404.559 65.504 405.119 65.0077 405.695 64.4964C417.893 54.1619 430.749 48.5912 446.812 48.6878C448.275 48.6962 448.275 48.6962 449.766 48.7048C461.848 48.9091 469.855 51.237 478.684 59.594C488.29 69.7515 487.582 81.8089 487.496 94.9026C487.496 96.8317 487.498 98.7608 487.5 100.69C487.502 104.713 487.489 108.737 487.467 112.76C487.438 117.921 487.441 123.081 487.454 128.242C487.461 132.216 487.453 136.191 487.44 140.165C487.436 142.069 487.436 143.973 487.439 145.877C487.442 148.529 487.426 151.18 487.404 153.832C487.411 155.013 487.411 155.013 487.418 156.217C487.345 161.491 487.345 161.491 485.654 163.988C483.041 165.588 480.72 165.371 477.687 165.364C476.447 165.363 475.207 165.362 473.93 165.362C471.984 165.337 471.984 165.337 470 165.313C468.703 165.316 467.406 165.319 466.07 165.323C456.4 165.267 456.4 165.267 453 163C452.621 159.953 452.621 159.953 452.615 155.984C452.61 155.261 452.604 154.539 452.599 153.795C452.589 152.224 452.586 150.653 452.589 149.082C452.594 146.594 452.58 144.106 452.561 141.617C452.524 136.328 452.51 131.039 452.5 125.75C452.488 119.635 452.466 113.52 452.42 107.405C452.406 104.958 452.411 102.511 452.415 100.064C452.406 98.5539 452.396 97.0442 452.385 95.5344C452.383 94.2214 452.381 92.9084 452.379 91.5556C451.969 87.7132 450.994 85.2875 449 82.0003C444.012 78.1396 435.969 79.5213 430 80.0003C426.043 80.874 422.578 82.1048 419 84.0003C418.273 84.2922 417.546 84.5841 416.797 84.8848C413.922 86.3086 412.107 87.5612 410 90.0003C408.676 95.3893 408.884 100.726 409.008 106.231C409.01 107.829 409.007 109.428 409.001 111.026C408.993 115.223 409.036 119.418 409.093 123.614C409.176 130.34 409.183 137.066 409.186 143.792C409.195 146.141 409.227 148.488 409.261 150.837C409.271 152.273 409.281 153.709 409.29 155.146C409.314 157.027 409.314 157.027 409.338 158.946C409 162 409 162 407.661 163.905C405.06 165.62 402.767 165.372 399.687 165.364C398.447 165.363 397.207 165.362 395.93 165.362C393.984 165.337 393.984 165.337 392 165.313C390.703 165.316 389.406 165.319 388.07 165.323C378.4 165.267 378.4 165.267 375 163C374.621 159.953 374.621 159.953 374.615 155.984C374.61 155.261 374.604 154.539 374.599 153.795C374.589 152.224 374.586 150.653 374.589 149.082C374.594 146.594 374.58 144.106 374.561 141.617C374.524 136.328 374.51 131.039 374.5 125.75C374.488 119.635 374.466 113.52 374.42 107.405C374.406 104.958 374.411 102.511 374.415 100.064C374.406 98.5539 374.396 97.0442 374.385 95.5344C374.383 94.2214 374.381 92.9084 374.379 91.5556C373.969 87.7131 372.994 85.2873 371 82.0003C366.061 78.2051 357.936 79.2643 352 80.0003C347.401 81.1982 343.203 82.7841 339 85.0003C337.8 85.5251 336.599 86.05 335.362 86.5908C332.558 88.6431 332.048 89.7542 331.368 93.2153C331.14 97.5362 331.136 101.809 331.203 106.133C331.201 107.733 331.196 109.333 331.187 110.933C331.172 115.137 331.196 119.341 331.231 123.545C331.281 130.281 331.279 137.017 331.264 143.753C331.266 146.106 331.288 148.458 331.313 150.811C331.316 152.251 331.319 153.69 331.321 155.13C331.331 156.387 331.341 157.644 331.352 158.94C331 162 331 162 329.659 163.905C327.062 165.619 324.764 165.39 321.687 165.399C320.447 165.403 319.207 165.406 317.93 165.41C315.984 165.393 315.984 165.393 314 165.375C312.703 165.387 311.406 165.398 310.07 165.41C308.83 165.407 307.59 165.403 306.312 165.399C305.174 165.395 304.036 165.392 302.863 165.388C299.611 164.948 298.947 164.544 297 162C296.625 159.934 296.625 159.934 296.626 157.515C296.615 156.137 296.615 156.137 296.604 154.732C296.612 153.727 296.62 152.721 296.628 151.686C296.624 150.625 296.62 149.565 296.617 148.472C296.608 144.959 296.622 141.447 296.637 137.934C296.637 135.499 296.637 133.064 296.635 130.63C296.635 125.524 296.646 120.419 296.664 115.314C296.686 108.757 296.687 102.201 296.68 95.6446C296.677 90.6167 296.684 85.5889 296.693 80.561C296.697 78.1428 296.698 75.7246 296.697 73.3064C296.696 69.9327 296.709 66.5592 296.725 63.1856C296.722 61.6746 296.722 61.6746 296.718 60.1331C296.725 59.2175 296.732 58.3019 296.739 57.3586C296.741 56.5606 296.743 55.7625 296.745 54.9403C297 53.0003 297 53.0003 299 51.0003C301.857 50.7415 301.857 50.7415 305.469 50.7346C306.762 50.7321 308.055 50.7295 309.387 50.7268C310.061 50.731 310.736 50.7352 311.431 50.7395C313.492 50.7502 315.552 50.7396 317.613 50.7268C318.906 50.7294 320.199 50.732 321.531 50.7346C322.723 50.7369 323.915 50.7391 325.143 50.7415C328 51.0003 328 51.0003 330 53.0003C330.414 55.1643 330.414 55.1643 330.625 57.6253C330.7 58.4425 330.775 59.2598 330.852 60.1018C330.901 60.7283 330.95 61.3548 331 62.0003C331.739 61.4692 332.477 60.9381 333.238 60.3909C344.958 52.2301 355.08 48.8214 369.187 48.7503Z"
        fill="#fff" />
    <path
        d="M8.39571 0.619187C9.29437 0.610727 10.193 0.602268 11.1189 0.593552C12.5941 0.602661 12.5941 0.602661 14.0991 0.611954C15.1367 0.606697 16.1744 0.60144 17.2435 0.596024C20.6819 0.582794 24.1199 0.591573 27.5583 0.6017C29.9434 0.59968 32.3285 0.596769 34.7136 0.593003C39.7164 0.588575 44.7189 0.595024 49.7217 0.609024C56.139 0.626107 62.5561 0.616283 68.9734 0.598307C73.9002 0.587473 78.8268 0.590914 83.7536 0.59869C86.1199 0.600694 88.4862 0.598228 90.8525 0.591252C94.1589 0.583645 97.4646 0.595232 100.771 0.611954C101.752 0.605881 102.734 0.599809 103.745 0.593552C104.646 0.602011 105.548 0.610471 106.477 0.619187C107.258 0.620318 108.04 0.621449 108.845 0.622614C111.585 1.1026 112.976 2.12051 115 4.00014C115.517 6.38857 115.517 6.38857 115.531 9.18373C115.539 10.6987 115.539 10.6987 115.547 12.2443C115.531 13.2981 115.516 14.3519 115.5 15.4376C115.523 17.0125 115.523 17.0125 115.547 18.6193C115.541 19.6305 115.536 20.6418 115.531 21.6837C115.526 22.6073 115.522 23.5308 115.517 24.4823C114.821 27.8713 113.733 28.8923 111 31.0001C108.408 31.3748 106.247 31.5084 103.661 31.4542C102.929 31.4548 102.197 31.4554 101.442 31.456C99.0287 31.4532 96.6163 31.4221 94.2029 31.3908C92.5271 31.3833 90.8513 31.3776 89.1754 31.3736C84.7694 31.3584 80.3638 31.3191 75.9579 31.2748C70.6691 31.2266 65.3802 31.2083 60.0912 31.185C52.0604 31.1462 44.0307 31.0696 35.9997 31.0001C35.9997 45.8501 35.9997 60.7001 35.9997 76.0001C43.2198 75.9653 43.2198 75.9653 50.5857 75.9298C53.6299 75.9196 56.6742 75.91 59.7185 75.9025C64.5535 75.8905 69.3884 75.8763 74.2234 75.8493C78.1202 75.8276 82.0169 75.8156 85.9138 75.8104C87.4026 75.8067 88.8914 75.7994 90.3801 75.7887C92.4609 75.7742 94.5414 75.7722 96.6223 75.7731C97.8081 75.7686 98.9939 75.7642 100.216 75.7596C103 76.0001 103 76.0001 105 78.0001C105.483 81.9385 105.37 85.9105 105.375 89.8751C105.411 91.5284 105.411 91.5284 105.449 93.215C105.453 94.2759 105.457 95.3368 105.461 96.4298C105.469 97.4016 105.477 98.3734 105.486 99.3746C104.846 102.83 103.743 103.838 101 106C98.089 106.481 98.089 106.481 94.6706 106.454C93.3896 106.454 92.1086 106.454 90.7887 106.453C89.3955 106.433 88.0023 106.412 86.6091 106.391C85.1799 106.383 83.7507 106.378 82.3216 106.374C78.5665 106.358 74.812 106.319 71.0571 106.275C67.223 106.234 63.3887 106.216 59.5544 106.195C52.0359 106.153 44.5179 106.084 36.9997 106C37.0042 106.668 37.0086 107.335 37.0132 108.023C37.0574 114.966 37.0876 121.909 37.1096 128.852C37.1197 131.444 37.1333 134.035 37.1506 136.627C37.1748 140.35 37.1862 144.074 37.195 147.797C37.2054 148.958 37.2157 150.118 37.2263 151.314C37.2265 152.935 37.2265 152.935 37.2268 154.589C37.2312 155.539 37.2357 156.49 37.2402 157.469C36.9862 160.142 36.448 161.752 34.9997 164C30.7778 166.111 25.2678 165.227 20.6235 165.24C18.5734 165.25 16.5242 165.281 14.4743 165.313C13.1846 165.318 11.8949 165.323 10.5661 165.328C9.37963 165.338 8.19313 165.347 6.97067 165.357C3.99973 165 3.99973 165 2.33785 163.874C0.380541 161.133 0.622045 159.009 0.618776 155.661C0.614096 155.016 0.609417 154.37 0.604595 153.705C0.592611 151.537 0.602114 149.371 0.611544 147.203C0.607479 145.651 0.602138 144.099 0.595614 142.547C0.581916 138.328 0.587248 134.109 0.596751 129.89C0.604335 125.479 0.597305 121.068 0.592592 116.657C0.587131 109.249 0.594336 101.842 0.608614 94.4337C0.624941 85.8637 0.619653 77.2938 0.603135 68.7238C0.58953 61.3717 0.587595 54.0197 0.595451 46.6676C0.600133 42.2739 0.600737 37.8803 0.590841 33.4866C0.582189 29.3563 0.588162 25.2263 0.605524 21.096C0.609498 19.5782 0.608339 18.0605 0.601736 16.5427C0.593566 14.4745 0.603785 12.4072 0.618776 10.339C0.619907 9.18052 0.621039 8.02204 0.622204 6.82845C0.999727 4.00014 0.999727 4.00014 2.24879 2.12777C4.45177 0.709014 5.78158 0.622972 8.39571 0.619187Z"
        fill="#fff" />
    <path
        d="M683.438 55.6873C690.768 61.8579 695.305 70.39 696.179 79.9567C696.478 85.631 696.446 91.3115 696.434 96.992C696.438 98.829 696.444 100.666 696.45 102.503C696.459 106.334 696.456 110.165 696.446 113.996C696.435 118.905 696.455 123.814 696.484 128.724C696.502 132.509 696.502 136.294 696.496 140.079C696.496 141.889 696.502 143.7 696.515 145.511C696.53 148.036 696.519 150.56 696.502 153.085C696.512 153.831 696.521 154.577 696.531 155.346C696.482 158.787 696.245 160.673 694.155 163.462C691.215 165.56 689.182 165.517 685.59 165.531C683.735 165.539 683.735 165.539 681.842 165.547C680.554 165.531 679.265 165.516 677.938 165.5C676.645 165.515 675.353 165.531 674.022 165.547C672.786 165.542 671.55 165.536 670.277 165.531C669.146 165.527 668.014 165.522 666.848 165.517C664 165 664 165 662.346 163.415C660.505 160.111 660.621 157.607 660.615 153.832C660.61 153.118 660.605 152.403 660.599 151.667C660.589 150.12 660.586 148.573 660.589 147.025C660.594 144.574 660.58 142.124 660.561 139.673C660.524 134.47 660.511 129.266 660.5 124.062C660.488 118.035 660.466 112.007 660.42 105.98C660.407 103.569 660.411 101.158 660.416 98.7462C660.406 97.2631 660.396 95.78 660.385 94.2969C660.383 93.0055 660.381 91.7141 660.379 90.3835C659.974 86.7678 659.159 84.8915 657 81.9998C651.922 78.2788 644.009 79.2531 638 79.9998C633.409 81.2076 629.225 82.8419 625 84.9998C624 85.3414 624 85.3414 622.979 85.6898C620.353 86.827 618.867 87.8065 617 89.9998C615.801 95.2676 616.002 100.512 616.106 105.879C616.106 107.454 616.102 109.029 616.094 110.604C616.083 114.744 616.116 118.883 616.162 123.023C616.229 129.652 616.231 136.281 616.225 142.91C616.231 145.224 616.257 147.536 616.287 149.85C616.294 151.269 616.3 152.688 616.306 154.107C616.325 155.963 616.325 155.963 616.345 157.857C615.972 161.255 615.445 162.647 613 165C608.87 165.745 604.741 165.616 600.548 165.576C598.506 165.562 596.468 165.596 594.426 165.635C593.141 165.633 591.856 165.631 590.531 165.629C589.351 165.629 588.171 165.63 586.955 165.631C584 165 584 165 582.34 163.094C580.421 158.661 580.582 154.64 580.612 149.857C580.607 148.839 580.601 147.82 580.596 146.771C580.583 143.408 580.592 140.046 580.602 136.683C580.6 134.346 580.597 132.009 580.593 129.671C580.589 124.775 580.595 119.878 580.609 114.982C580.626 108.701 580.616 102.421 580.598 96.1402C580.587 91.3147 580.591 86.4893 580.599 81.6637C580.601 79.3477 580.598 77.0316 580.591 74.7155C580.584 71.4812 580.595 68.2475 580.612 65.0132C580.603 63.5739 580.603 63.5739 580.594 62.1054C580.602 61.2236 580.61 60.3419 580.619 59.4334C580.62 58.6693 580.621 57.9051 580.623 57.1179C581.109 54.3897 582.11 53.0028 584 50.9998C586.863 50.4981 586.863 50.4981 590.313 50.5037C591.553 50.5031 592.793 50.5024 594.07 50.5018C595.367 50.5218 596.664 50.5417 598 50.5623C599.297 50.5552 600.594 50.5481 601.93 50.5408C611.475 50.6053 611.475 50.6053 613.863 52.3992C615.94 55.3224 615.713 58.4929 616 61.9998C616.69 61.5409 617.379 61.082 618.09 60.6092C636.94 48.3014 663.252 42.1419 683.438 55.6873Z"
        fill="#fff" />
    <path
        d="M217.531 16.5386C218.816 16.5425 220.101 16.5463 221.426 16.5503C222.094 16.5627 222.763 16.5751 223.452 16.5879C225.493 16.6244 227.532 16.6289 229.574 16.6284C239.579 16.7188 239.579 16.7188 243 18.9995C243.267 21.4829 243.349 23.7143 243.293 26.1948C243.289 26.9023 243.284 27.6097 243.28 28.3386C243.263 30.601 243.226 32.8624 243.187 35.1245C243.172 36.6571 243.159 38.1896 243.146 39.7222C243.113 43.4816 243.061 47.2404 243 50.9995C243.923 50.9838 244.847 50.9681 245.798 50.9519C249.225 50.9008 252.652 50.8632 256.08 50.8347C257.563 50.8197 259.046 50.7992 260.529 50.7732C262.661 50.7368 264.793 50.7198 266.926 50.7066C268.85 50.683 268.85 50.683 270.814 50.659C274 50.9995 274 50.9995 275.921 52.2327C277.298 54.4887 277.359 55.9258 277.328 58.562C277.323 59.4412 277.318 60.3203 277.312 61.2261C277.292 62.1413 277.271 63.0566 277.25 63.9995C277.245 64.9148 277.24 65.83 277.234 66.773C277.155 73.5343 277.155 73.5343 276 76.9995C273.026 78.4863 270.337 78.1107 267.023 78.0972C265.995 78.0951 265.995 78.0951 264.947 78.0929C262.756 78.0873 260.566 78.0747 258.375 78.062C256.89 78.057 255.406 78.0525 253.922 78.0484C250.281 78.0373 246.64 78.0201 243 77.9995C243.067 84.5836 243.157 91.167 243.262 97.7505C243.296 99.989 243.324 102.228 243.346 104.466C243.38 107.689 243.432 110.91 243.488 114.132C243.495 115.129 243.501 116.127 243.508 117.154C243.62 122.502 243.982 126.388 247 131C250.423 134.101 253.53 135.093 258.09 135.246C259.266 135.295 259.266 135.295 260.467 135.345C262.11 135.406 263.753 135.464 265.396 135.517C266.182 135.551 266.968 135.585 267.777 135.621C268.848 135.658 268.848 135.658 269.941 135.697C272.318 136.046 273.955 136.748 276 138C277.876 141.752 277.271 146.245 277.312 150.375C277.356 151.813 277.356 151.813 277.4 153.281C277.413 154.669 277.413 154.669 277.426 156.085C277.44 156.932 277.455 157.778 277.47 158.649C276.818 161.911 275.664 163.045 273 165C270.198 165.501 270.198 165.501 266.976 165.496C265.797 165.499 264.617 165.502 263.402 165.505C261.532 165.471 261.532 165.471 259.625 165.437C258.357 165.423 257.088 165.409 255.782 165.395C242.109 165.125 229.123 163.679 218.187 154.687C209.436 143.935 207.514 132.932 207.707 119.234C207.711 118.074 207.715 116.915 207.72 115.721C207.736 112.063 207.774 108.407 207.812 104.75C207.827 102.251 207.841 99.7521 207.853 97.2534C207.886 91.1686 207.936 85.0841 208 78.9995C206.952 79.0227 205.904 79.0459 204.824 79.0698C203.445 79.0886 202.066 79.1068 200.687 79.1245C199.997 79.1413 199.307 79.1581 198.596 79.1753C194.829 79.2117 193.216 79.1433 190 76.9995C188.66 72.9813 188.776 69.27 188.75 65.062C188.729 64.2506 188.709 63.4391 188.687 62.6031C188.665 59.2565 188.744 56.6335 190.004 53.5113C193.089 51.175 196.45 51.0629 200.187 50.7495C200.937 50.6722 201.687 50.5948 202.459 50.5152C204.304 50.3271 206.152 50.1611 208 49.9995C207.984 49.142 207.968 48.2844 207.952 47.4009C207.901 44.2103 207.863 41.02 207.835 37.8291C207.82 36.4498 207.8 35.0706 207.774 33.6914C207.737 31.7058 207.722 29.7198 207.707 27.7339C207.691 26.5399 207.675 25.3459 207.659 24.1157C208.392 17.4096 211.151 16.4942 217.531 16.5386Z"
        fill="#fff" />
    <path
        d="M530.098 50.6774C531.181 50.6806 531.181 50.6806 532.286 50.6839C534.492 50.6871 536.696 50.6636 538.902 50.6383C540.299 50.636 541.697 50.6353 543.094 50.6363C544.369 50.6334 545.645 50.6304 546.959 50.6273C548.464 50.8116 548.464 50.8116 550 50.9996C552.086 54.1284 552.252 54.8371 552.267 58.3956C552.276 59.2943 552.284 60.1929 552.293 61.1188C552.292 62.1023 552.291 63.0857 552.29 64.099C552.297 65.1366 552.304 66.1743 552.311 67.2434C552.33 70.6817 552.334 74.1198 552.336 77.5582C552.342 79.9433 552.349 82.3284 552.356 84.7135C552.368 89.7162 552.372 94.7188 552.371 99.7215C552.37 106.139 552.398 112.556 552.432 118.973C552.454 123.9 552.458 128.827 552.457 133.753C552.46 136.12 552.469 138.486 552.484 140.852C552.504 144.159 552.498 147.464 552.486 150.771C552.497 151.752 552.508 152.734 552.52 153.745C552.458 160.352 552.458 160.352 550.156 163.607C547.205 165.513 545.089 165.517 541.59 165.531C539.735 165.539 539.735 165.539 537.842 165.546C536.553 165.531 535.265 165.516 533.937 165.5C532.645 165.515 531.353 165.531 530.021 165.546C528.786 165.541 527.55 165.536 526.277 165.531C524.579 165.524 524.579 165.524 522.847 165.517C520 165 520 165 518.345 163.253C516.828 160.711 516.625 159.365 516.626 156.432C516.619 155.521 516.612 154.609 516.604 153.67C516.612 152.678 516.62 151.686 516.628 150.663C516.624 149.612 516.62 148.562 516.617 147.479C516.608 144.004 516.622 140.529 516.637 137.054C516.637 134.643 516.637 132.233 516.635 129.822C516.635 124.769 516.646 119.717 516.664 114.665C516.686 108.177 516.687 101.689 516.68 95.201C516.677 90.2237 516.684 85.2465 516.693 80.2693C516.697 77.8762 516.698 75.4831 516.697 73.09C516.696 69.7523 516.709 66.4149 516.725 63.0773C516.723 62.0808 516.72 61.0844 516.718 60.0578C516.725 59.1521 516.732 58.2465 516.739 57.3133C516.741 56.5239 516.743 55.7345 516.745 54.9212C517.561 48.7635 525.42 50.696 530.098 50.6774Z"
        fill="#fff" />
    <path
        d="M143.687 50.734C144.346 50.7321 145.004 50.7302 145.682 50.7282C147.074 50.7268 148.466 50.7305 149.858 50.7389C151.992 50.7496 154.124 50.739 156.258 50.7262C157.609 50.7275 158.961 50.7301 160.312 50.734C162.163 50.7374 162.163 50.7374 164.051 50.7408C167 50.9996 167 50.9996 169 52.9996C169.254 54.958 169.254 54.958 169.261 57.4027C169.268 58.3281 169.275 59.2535 169.282 60.207C169.28 61.2252 169.277 62.2435 169.275 63.2926C169.28 64.3626 169.285 65.4325 169.29 66.5349C169.304 70.0857 169.303 73.6363 169.301 77.1871C169.305 79.6457 169.309 82.1043 169.314 84.5629C169.321 89.7212 169.321 94.8794 169.316 100.038C169.31 106.663 169.327 113.287 169.35 119.912C169.365 124.991 169.366 130.069 169.362 135.148C169.363 137.591 169.368 140.034 169.378 142.478C169.391 145.888 169.384 149.297 169.372 152.707C169.384 154.234 169.384 154.234 169.395 155.792C169.388 156.718 169.381 157.643 169.374 158.597C169.374 159.403 169.375 160.21 169.375 161.041C169.189 162.011 169.189 162.011 169 163C163.928 166.381 157.955 165.369 152 165.375C150.703 165.399 149.406 165.424 148.07 165.449C146.83 165.453 145.59 165.457 144.312 165.461C143.174 165.469 142.036 165.477 140.863 165.485C138 165 138 165 136.344 163.255C134.829 160.712 134.625 159.365 134.626 156.432C134.619 155.521 134.612 154.609 134.604 153.67C134.612 152.678 134.62 151.686 134.628 150.663C134.624 149.612 134.62 148.562 134.617 147.479C134.608 144.004 134.622 140.529 134.637 137.054C134.637 134.643 134.637 132.233 134.635 129.822C134.635 124.769 134.646 119.717 134.664 114.665C134.686 108.177 134.687 101.689 134.68 95.201C134.677 90.2237 134.684 85.2465 134.693 80.2693C134.697 77.8762 134.698 75.4831 134.697 73.09C134.696 69.7523 134.709 66.4149 134.725 63.0773C134.723 62.0809 134.72 61.0845 134.718 60.0579C134.725 59.1522 134.732 58.2465 134.739 57.3133C134.741 56.5239 134.743 55.7345 134.745 54.9212C135.414 49.8742 139.614 50.7415 143.687 50.734Z"
        fill="#fff" />
    <path
        d="M533.938 0.56242C535.87 0.53245 535.87 0.53245 537.842 0.501873C539.079 0.502518 540.316 0.503163 541.59 0.503827C542.723 0.501974 543.856 0.500121 545.023 0.498211C548.677 1.11408 549.856 2.00815 552 4.99992C552.486 7.31828 552.486 7.31828 552.461 9.84367C552.457 10.7602 552.453 11.6767 552.449 12.621C552.412 14.0461 552.412 14.0461 552.375 15.4999C552.374 16.45 552.372 17.4 552.371 18.3788C552.27 26.3819 552.27 26.3819 550 29.9999C545.556 32.2217 539.505 31.2298 534.625 31.2499C533.38 31.2705 532.135 31.2912 530.852 31.3124C529.655 31.3176 528.459 31.3227 527.227 31.328C526.129 31.3374 525.032 31.3467 523.901 31.3564C520.599 30.9506 519.227 30.4681 517 27.9999C516.498 25.5038 516.498 25.5038 516.504 22.5624C516.503 21.5028 516.503 20.4432 516.502 19.3515C516.522 18.2455 516.542 17.1395 516.562 15.9999C516.555 14.8939 516.548 13.7879 516.541 12.6484C516.604 4.63187 516.604 4.63187 518.135 2.18718C522.524 -0.606562 528.912 0.53485 533.938 0.56242Z"
        fill="#fff" />
    <path
        d="M144.312 0.636311C145.553 0.636955 146.793 0.6376 148.07 0.638264C150.016 0.662434 150.016 0.662434 152 0.687092C153.297 0.683869 154.594 0.680647 155.93 0.677327C165.6 0.732611 165.6 0.732611 169 2.99959C169.388 5.58162 169.388 5.58162 169.398 8.81209C169.404 10.5485 169.404 10.5485 169.41 12.3199C169.399 13.5342 169.387 14.7485 169.375 15.9996C169.387 17.2139 169.398 18.4282 169.41 19.6793C169.406 20.8369 169.402 21.9944 169.398 23.1871C169.395 24.2531 169.392 25.3192 169.388 26.4176C169.26 27.2696 169.132 28.1217 169 28.9996C163.931 32.3788 157.951 31.3269 152 31.3121C150.703 31.3282 149.406 31.3443 148.07 31.3609C146.83 31.3616 145.59 31.3622 144.312 31.3629C142.605 31.3673 142.605 31.3673 140.863 31.3719C138 30.9996 138 30.9996 136.13 29.8167C134.576 27.3179 134.612 25.4957 134.602 22.5621C134.598 21.5025 134.594 20.4429 134.59 19.3512C134.601 18.2451 134.613 17.1391 134.625 15.9996C134.613 14.8936 134.602 13.7876 134.59 12.648C134.594 11.5884 134.598 10.5288 134.602 9.43709C134.605 8.46643 134.608 7.49576 134.612 6.49569C135 3.99959 135 3.99959 136.13 2.18245C138.877 0.444835 141.082 0.627852 144.312 0.636311Z"
        fill="#fff" />
    <path
        d="M519 51C521.125 51.375 521.125 51.375 523 52C522.34 52.66 521.68 53.32 521 54C520.01 54 519.02 54 518 54C518 88.98 518 123.96 518 160C518.66 160 519.32 160 520 160C519.67 160.99 519.34 161.98 519 163C516.573 160.573 516.749 159.994 516.746 156.673C516.737 155.31 516.737 155.31 516.729 153.92C516.733 152.92 516.737 151.92 516.741 150.891C516.737 149.84 516.734 148.79 516.73 147.707C516.722 144.222 516.727 140.736 516.734 137.25C516.733 134.836 516.731 132.423 516.728 130.009C516.725 124.945 516.73 119.881 516.739 114.816C516.75 108.313 516.744 101.809 516.732 95.305C516.725 90.3192 516.727 85.3334 516.732 80.3475C516.733 77.9489 516.732 75.5502 516.727 73.1515C516.722 69.804 516.73 66.4568 516.741 63.1094C516.737 62.1098 516.733 61.1103 516.729 60.0804C516.734 59.1719 516.74 58.2633 516.746 57.3271C516.747 56.5352 516.747 55.7432 516.748 54.9272C517 53 517 53 519 51Z"
        fill="#fff" />
    <path
        d="M217.531 16.5039C219.459 16.5029 219.459 16.5029 221.426 16.502C222.429 16.5175 222.429 16.5175 223.452 16.5334C225.493 16.5624 227.532 16.5541 229.574 16.541C239.507 16.6058 239.507 16.6058 241.908 18.5271C242.268 19.0132 242.629 19.4992 243 20C239.956 20.0823 237.928 19.9761 235 19C233.374 18.8528 231.744 18.7528 230.113 18.6836C229.175 18.6417 228.238 18.5998 227.271 18.5566C226.295 18.5173 225.319 18.478 224.312 18.4375C223.324 18.3943 222.336 18.3511 221.318 18.3066C218.879 18.2006 216.44 18.0985 214 18C214 18.66 214 19.32 214 20C212.02 20.99 212.02 20.99 210 22C209.67 31.57 209.34 41.14 209 51C207.68 50.67 206.36 50.34 205 50C205.99 50 206.98 50 208 50C207.984 49.1425 207.969 48.2849 207.952 47.4014C207.901 44.2108 207.864 41.0204 207.835 37.8296C207.82 36.4503 207.8 35.071 207.774 33.6919C207.737 31.7063 207.722 29.7203 207.707 27.7344C207.691 26.5404 207.676 25.3464 207.659 24.1162C208.392 17.4168 211.157 16.4939 217.531 16.5039Z"
        fill="#fff" />
    <path
        d="M322 51C324.875 50.875 324.875 50.875 328 51C328.66 51.66 329.32 52.32 330 53C329.756 55.5256 329.176 56.7853 327.562 58.75C326 60 326 60 324 60C323.34 57.03 322.68 54.06 322 51Z"
        fill="#fff" />
    <path
        d="M220 150C220.66 150 221.32 150 222 150C222 150.66 222 151.32 222 152C222.66 152.33 223.32 152.66 224 153C224 153.66 224 154.32 224 155C225.292 156.373 226.624 157.71 228 159C227.01 159.495 227.01 159.495 226 160C223.03 158.02 220.06 156.04 217 154C217.99 152.68 218.98 151.36 220 150Z"
        fill="#fff" />
    <path
        d="M98 76C100.375 75.875 100.375 75.875 103 76C103.66 76.66 104.32 77.32 105 78C104.625 80.125 104.625 80.125 104 82C102.333 82 100.667 82 99 82C98.67 80.02 98.34 78.04 98 76Z"
        fill="#fff" />
    <path
        d="M387 51C390.3 52.65 393.6 54.3 397 56C394 58 394 58 391.812 57.625C391.214 57.4188 390.616 57.2125 390 57C390 56.34 390 55.68 390 55C389.01 55 388.02 55 387 55C387 53.68 387 52.36 387 51Z"
        fill="#fff
        " />
    <path
        d="M397 57C398.98 58.65 400.96 60.3 403 62C401.68 63.32 400.36 64.64 399 66C398 63 398 63 398 61C396.542 59.3749 396.542 59.3749 395 58C395.66 57.67 396.32 57.34 397 57Z"
        fill="#fff" />
    <path
        d="M469 53C473.037 54.7942 475.645 56.2055 478 60C477.01 60 476.02 60 475 60C475 59.34 475 58.68 475 58C474.072 58.3094 474.072 58.3094 473.125 58.625C472.424 58.7488 471.723 58.8725 471 59C470.34 58.34 469.68 57.68 469 57C469 55.68 469 54.36 469 53Z"
        fill="#fff" />
    <path
        d="M426 52C426.66 52.33 427.32 52.66 428 53C427.312 54.9375 427.312 54.9375 426 57C423.375 57.75 423.375 57.75 421 58C421 56.68 421 55.36 421 54C423.375 52.9375 423.375 52.9375 426 52Z"
        fill="#fff" />
    <path
        d="M212 142C215 143 215 143 216 145C216.04 147 216.043 149 216 151C213.276 148.647 212.186 146.375 211 143C211.33 142.67 211.66 142.34 212 142Z"
        fill="#fff" />
    <path
        d="M659 77C659.99 77 660.98 77 662 77C662.33 78.65 662.66 80.3 663 82C661.02 82.99 661.02 82.99 659 84C658.34 83.01 657.68 82.02 657 81C658 79 658 79 659 78C659 77.67 659 77.34 659 77Z"
        fill="#fff" />
    <path
        d="M103 92C103.33 92 103.66 92 104 92C104.249 93.6012 104.474 95.2062 104.688 96.8125C104.879 98.1525 104.879 98.1525 105.074 99.5195C105 102 105 102 103.52 103.824C102.767 104.406 102.767 104.406 102 105C100.872 101.617 101.182 100.232 101.938 96.8125C102.132 95.9114 102.327 95.0104 102.527 94.082C102.761 93.0514 102.761 93.0514 103 92Z"
        fill="#fff" />
    <path
        d="M407 158C407.66 158 408.32 158 409 158C408.67 159.98 408.34 161.96 408 164C406.68 164.33 405.36 164.66 404 165C404 164.01 404 163.02 404 162C404.99 162 405.98 162 407 162C407 160.68 407 159.36 407 158Z"
        fill="#fff" />
</svg>