<?xml version="1.0" encoding="UTF-8"?>
<svg version="1.1" xmlns="http://www.w3.org/2000/svg" width="957" height="383">
<path d="M0 0 C315.81 0 631.62 0 957 0 C957 126.39 957 252.78 957 383 C641.19 383 325.38 383 0 383 C0 256.61 0 130.22 0 0 Z " fill="#FEFEFE" transform="translate(0,0)"/>
<path d="M0 0 C1.00353516 -0.020625 2.00707031 -0.04125 3.04101562 -0.0625 C13.52252261 -0.11705566 23.0228694 2.53443717 30.64453125 10.05859375 C34.8125 14.75365925 34.8125 14.75365925 34.8125 17.25 C35.37195313 16.75371094 35.93140625 16.25742188 36.5078125 15.74609375 C48.70523773 5.41161932 61.56114179 -0.15902104 77.625 -0.0625 C79.08703857 -0.05404053 79.08703857 -0.05404053 80.57861328 -0.04541016 C92.6600874 0.15881225 100.66798888 2.48675049 109.49609375 10.84375 C119.10261397 21.00126764 118.39445237 33.05867864 118.30859375 46.15234375 C118.30874891 48.08142654 118.31024063 50.01050964 118.31300354 51.93959045 C118.314382 55.96320536 118.30191442 59.98646137 118.27905273 64.01000977 C118.25053552 69.17070596 118.25344898 74.33081253 118.26614285 79.49155331 C118.27308692 83.46605998 118.26532756 87.44042972 118.25288582 91.4149189 C118.24836835 93.31874632 118.2480371 95.2225884 118.25195122 97.12641716 C118.25485436 99.77851619 118.23840473 102.42979204 118.21655273 105.08178711 C118.22330521 106.26231407 118.22330521 106.26231407 118.23019409 107.46669006 C118.15781955 112.74028077 118.15781955 112.74028077 116.46620178 115.23724365 C113.8532982 116.83743222 111.53205852 116.62122195 108.5 116.61328125 C107.25992188 116.61263672 106.01984375 116.61199219 104.7421875 116.61132812 C102.79699219 116.5871582 102.79699219 116.5871582 100.8125 116.5625 C99.51570312 116.56572266 98.21890625 116.56894531 96.8828125 116.57226562 C87.212971 116.51698067 87.212971 116.51698067 83.8125 114.25 C83.43395996 111.20257568 83.43395996 111.20257568 83.42773438 107.23339844 C83.4223616 106.51122635 83.41698883 105.78905426 83.41145325 105.04499817 C83.40165761 103.47410511 83.39873649 101.90315783 83.40180969 100.33223724 C83.40627868 97.84340037 83.39231238 95.35527809 83.37341309 92.86651611 C83.33656572 87.57768928 83.32292002 82.28893629 83.3125 77 C83.30041718 70.88484531 83.27879491 64.77003653 83.23249817 58.65503693 C83.2189483 56.20769091 83.2230963 53.76078422 83.22790527 51.31341553 C83.21855977 49.80366463 83.20838972 48.29391853 83.19726562 46.78417969 C83.19521118 45.47116882 83.19315674 44.15815796 83.19104004 42.80535889 C82.78194187 38.96298909 81.80611827 36.53720555 79.8125 33.25 C74.82483539 29.38930211 66.7814738 30.77104523 60.8125 31.25 C56.85588186 32.12373249 53.39053122 33.3545557 49.8125 35.25 C49.08544861 35.5419072 48.35839722 35.83381439 47.60931396 36.13456726 C44.73491733 37.55833705 42.91937881 38.81093286 40.8125 41.25 C39.48857809 46.63904141 39.69661946 51.97524518 39.8203125 57.48046875 C39.82227838 59.07896478 39.81984117 60.67747175 39.8132019 62.2759552 C39.80558776 66.47270136 39.84898492 70.6672759 39.90582275 74.86358643 C39.98859767 81.5894069 39.99513115 88.31564978 39.99886703 95.04189491 C40.00770927 97.39054857 40.03914532 99.73807664 40.07400513 102.08647156 C40.08383859 103.52273236 40.09321218 104.95899641 40.10205078 106.39526367 C40.12611496 108.27673347 40.12611496 108.27673347 40.15066528 110.19621277 C39.8125 113.25 39.8125 113.25 38.47335815 115.15515137 C35.87243905 116.86969437 33.57930797 116.62134569 30.5 116.61328125 C29.25992188 116.61263672 28.01984375 116.61199219 26.7421875 116.61132812 C24.79699219 116.5871582 24.79699219 116.5871582 22.8125 116.5625 C21.51570312 116.56572266 20.21890625 116.56894531 18.8828125 116.57226562 C9.212971 116.51698067 9.212971 116.51698067 5.8125 114.25 C5.43395996 111.20257568 5.43395996 111.20257568 5.42773438 107.23339844 C5.4223616 106.51122635 5.41698883 105.78905426 5.41145325 105.04499817 C5.40165761 103.47410511 5.39873649 101.90315783 5.40180969 100.33223724 C5.40627868 97.84340037 5.39231238 95.35527809 5.37341309 92.86651611 C5.33656572 87.57768928 5.32292002 82.28893629 5.3125 77 C5.30041718 70.88484531 5.27879491 64.77003653 5.23249817 58.65503693 C5.2189483 56.20769091 5.2230963 53.76078422 5.22790527 51.31341553 C5.21855977 49.80366463 5.20838972 48.29391853 5.19726562 46.78417969 C5.19521118 45.47116882 5.19315674 44.15815796 5.19104004 42.80535889 C4.78193028 38.96288019 3.80679166 36.53699615 1.8125 33.25 C-3.12676233 29.45479844 -11.25175371 30.51403146 -17.1875 31.25 C-21.78630118 32.44796543 -25.98493784 34.03380511 -30.1875 36.25 C-31.38793945 36.77489014 -32.58837891 37.29978027 -33.82519531 37.84057617 C-36.62907381 39.89284281 -37.13910751 41.00389933 -37.81970215 44.46507263 C-38.04783274 48.78596107 -38.051634 53.05868726 -37.984375 57.3828125 C-37.98614305 58.98274479 -37.99142339 60.58267672 -38.00006104 62.18258667 C-38.01530385 66.38714865 -37.99148565 70.59050796 -37.95684814 74.79492188 C-37.90633463 81.5309071 -37.90799222 88.26684334 -37.92325592 95.00295639 C-37.92189061 97.35591717 -37.89953016 99.70800581 -37.87469482 102.06082153 C-37.87125146 103.50034453 -37.86839178 104.93986907 -37.86621094 106.37939453 C-37.85620056 107.63672394 -37.84619019 108.89405334 -37.83587646 110.18948364 C-38.1875 113.25 -38.1875 113.25 -39.52862549 115.15515137 C-42.12555629 116.86911232 -44.42352663 116.6392917 -47.5 116.6484375 C-48.74007813 116.65230469 -49.98015625 116.65617187 -51.2578125 116.66015625 C-53.20300781 116.64275391 -53.20300781 116.64275391 -55.1875 116.625 C-56.48429687 116.63660156 -57.78109375 116.64820313 -59.1171875 116.66015625 C-60.35726563 116.65628906 -61.59734375 116.65242188 -62.875 116.6484375 C-64.01324219 116.64505371 -65.15148437 116.64166992 -66.32421875 116.63818359 C-69.57653635 116.19725718 -70.24002651 115.79375299 -72.1875 113.25 C-72.56223011 111.18414974 -72.56223011 111.18414974 -72.5617218 108.76463318 C-72.57224327 107.38706848 -72.57224327 107.38706848 -72.58297729 105.98167419 C-72.57533356 104.97637161 -72.56768982 103.97106903 -72.55981445 102.93530273 C-72.56346512 101.87493805 -72.56711578 100.81457336 -72.57087708 99.72207642 C-72.57899831 96.20908711 -72.56535993 92.69655675 -72.55078125 89.18359375 C-72.55026287 86.74886577 -72.5507797 84.31413736 -72.55229187 81.87940979 C-72.55220208 76.77411663 -72.54175756 71.66898116 -72.52368164 66.5637207 C-72.50098236 60.00719051 -72.50045184 53.45089062 -72.50719929 46.89433193 C-72.51053436 41.86645954 -72.50391808 36.83864004 -72.49407005 31.81077766 C-72.4902107 29.39256123 -72.48907286 26.97433892 -72.4906559 24.55611992 C-72.49102514 21.18239932 -72.47844615 17.80897848 -72.4621582 14.43530273 C-72.46587433 12.92431252 -72.46587433 12.92431252 -72.46966553 11.38279724 C-72.46258072 10.4672406 -72.45549591 9.55168396 -72.44819641 8.60838318 C-72.44614354 7.81031974 -72.44409067 7.0122563 -72.44197559 6.19000912 C-72.1875 4.25 -72.1875 4.25 -70.1875 2.25 C-67.33007812 1.99121094 -67.33007812 1.99121094 -63.71875 1.984375 C-62.42582031 1.98179687 -61.13289063 1.97921875 -59.80078125 1.9765625 C-59.12611816 1.98075195 -58.45145508 1.98494141 -57.75634766 1.98925781 C-55.69533843 1.9999593 -53.63520081 1.98936057 -51.57421875 1.9765625 C-50.28128906 1.97914063 -48.98835938 1.98171875 -47.65625 1.984375 C-46.46451172 1.98663086 -45.27277344 1.98888672 -44.04492188 1.99121094 C-41.1875 2.25 -41.1875 2.25 -39.1875 4.25 C-38.7734375 6.4140625 -38.7734375 6.4140625 -38.5625 8.875 C-38.48773438 9.69226563 -38.41296875 10.50953125 -38.3359375 11.3515625 C-38.28695312 11.97804687 -38.23796875 12.60453125 -38.1875 13.25 C-37.44886719 12.71890625 -36.71023438 12.1878125 -35.94921875 11.640625 C-24.22924829 3.47983235 -14.10778325 0.07111674 0 0 Z " fill="#4A0605" transform="translate(495.1875,156.75)"/>
<path d="M0 0 C0.89865784 -0.00845947 1.79731567 -0.01691895 2.72320557 -0.02563477 C4.19839409 -0.01652573 4.19839409 -0.01652573 5.7033844 -0.00723267 C6.74102936 -0.01248962 7.77867432 -0.01774658 8.84776306 -0.02316284 C12.28619838 -0.0363929 15.72417268 -0.02761324 19.16261292 -0.01748657 C21.54771005 -0.01950659 23.93280659 -0.02241742 26.31790161 -0.02618408 C31.32064179 -0.03061165 36.32322145 -0.02416289 41.32594299 -0.01016235 C47.7433346 0.00692032 54.16034957 -0.0029034 60.57772732 -0.02087975 C65.50446415 -0.03171369 70.43111152 -0.02827282 75.35785103 -0.02049637 C77.72417813 -0.01849281 80.09051331 -0.02095906 82.45683098 -0.02793503 C85.763193 -0.03554185 89.06894303 -0.02395502 92.3752594 -0.00723267 C93.35669418 -0.01330536 94.33812897 -0.01937805 95.3493042 -0.02563477 C96.25078186 -0.01717529 97.15225952 -0.00871582 98.08105469 0 C98.86252585 0.00113108 99.64399702 0.00226215 100.44914913 0.00342751 C103.18885971 0.48341233 104.58078132 1.50132822 106.60401917 3.38095093 C107.12159729 5.76937866 107.12159729 5.76937866 107.13526917 8.56454468 C107.14300354 10.07951538 107.14300354 10.07951538 107.15089417 11.62509155 C107.13542542 12.67890015 107.11995667 13.73270874 107.10401917 14.81845093 C107.12722229 16.39336304 107.12722229 16.39336304 107.15089417 18.00009155 C107.14573792 19.01136108 107.14058167 20.02263062 107.13526917 21.06454468 C107.13075745 21.98807739 107.12624573 22.91161011 107.12159729 23.86312866 C106.42494057 27.25210073 105.33745377 28.27311619 102.60401917 30.38095093 C100.01180532 30.75558622 97.85092114 30.88918686 95.26515198 30.83505249 C94.53305008 30.8356366 93.80094818 30.8362207 93.04666138 30.83682251 C90.63300231 30.83404145 88.22058678 30.80295053 85.80714417 30.77157593 C84.13134943 30.76411356 82.45554596 30.75842061 80.77973938 30.75442505 C76.37365027 30.73916822 71.9680904 30.69988633 67.56221008 30.65560913 C62.27342668 30.60745451 56.98446611 30.58912261 51.69552612 30.5657959 C43.66465596 30.52703494 35.63494654 30.45038258 27.60401917 30.38095093 C27.60401917 45.23095093 27.60401917 60.08095093 27.60401917 75.38095093 C34.82405823 75.34614624 34.82405823 75.34614624 42.18995667 75.31063843 C45.23423287 75.30042274 48.27848802 75.29079506 51.32276917 75.28329468 C56.15777459 75.27132607 60.99270448 75.25714763 65.82765198 75.23007202 C69.72446649 75.20838581 73.62120003 75.19639126 77.51807022 75.19119644 C79.00687053 75.18749307 80.49566627 75.18026155 81.98443222 75.16949081 C84.06524583 75.15503173 86.14572223 75.1529706 88.22657776 75.15390015 C89.41238434 75.14945892 90.59819092 75.1450177 91.81993103 75.14044189 C94.60401917 75.38095093 94.60401917 75.38095093 96.60401917 77.38095093 C97.08748203 81.31934506 96.97441442 85.29126671 96.97901917 89.25595093 C97.01575745 90.90917358 97.01575745 90.90917358 97.05323792 92.59579468 C97.0571051 93.65669312 97.06097229 94.71759155 97.06495667 95.81063843 C97.07317444 96.78243042 97.08139221 97.75422241 97.08985901 98.75546265 C96.45049602 102.21059311 95.34724308 103.21870165 92.60401917 105.38095093 C89.6933136 105.86196899 89.6933136 105.86196899 86.2749176 105.83505249 C84.9938916 105.83475037 83.7128656 105.83444824 82.39302063 105.83413696 C80.99980546 105.81371188 79.60659666 105.79284792 78.21339417 105.77157593 C76.78422335 105.76411224 75.35504227 105.75841991 73.92585754 105.75442505 C70.17074654 105.73917843 66.41625791 105.69990609 62.66139221 105.65560913 C58.82724934 105.6146348 54.99300554 105.59640949 51.15870667 105.57626343 C43.64019427 105.53340996 36.12219404 105.4651716 28.60401917 105.38095093 C28.60846039 106.04858459 28.61290161 106.71621826 28.61747742 107.40408325 C28.66169195 114.34687156 28.69187784 121.28961993 28.71388245 128.23251343 C28.72394585 130.82432683 28.73759781 133.41612886 28.75489807 136.00790405 C28.77913111 139.73123987 28.79049891 143.4544257 28.79933167 147.17782593 C28.80965424 148.33836487 28.81997681 149.49890381 28.83061218 150.6946106 C28.83083878 152.31583832 28.83083878 152.31583832 28.83106995 153.96981812 C28.83551117 154.92023987 28.83995239 155.87066162 28.8445282 156.84988403 C28.59049444 159.52328227 28.05227799 161.13282543 26.60401917 163.38095093 C22.38209829 165.49191136 16.87209153 164.60783484 12.22779846 164.6211853 C10.17766353 164.63089813 8.12852842 164.66192537 6.07862854 164.69345093 C4.78892151 164.69860718 3.49921448 164.70376343 2.17042542 164.70907593 C0.98392395 164.71842163 -0.20257751 164.72776733 -1.42503357 164.73739624 C-4.39598083 164.38095093 -4.39598083 164.38095093 -6.05785561 163.25485229 C-8.01516664 160.51384739 -7.77366339 158.38964979 -7.77693176 155.04208374 C-7.78161173 154.39643589 -7.78629171 153.75078804 -7.7911135 153.0855751 C-7.80309692 150.91820087 -7.79359378 148.75145505 -7.78416443 146.58407593 C-7.78822867 145.03186676 -7.79356971 143.47966049 -7.8000946 141.92745972 C-7.8137917 137.70849031 -7.80845975 133.48974055 -7.79895735 129.27076721 C-7.79137311 124.85989786 -7.79840291 120.44904757 -7.80311584 116.03817749 C-7.80857701 108.63026546 -7.80137234 101.2224431 -7.78709412 93.81454468 C-7.77076689 85.24449096 -7.77605514 76.67465134 -7.79257333 68.10460281 C-7.80617794 60.75252065 -7.80811289 53.40050301 -7.80025733 46.04841232 C-7.79557515 41.65470621 -7.79497085 37.2611008 -7.80486679 32.86740112 C-7.81351931 28.73710587 -7.80754616 24.60708721 -7.79018402 20.4768219 C-7.78620997 18.95905517 -7.78736889 17.44126526 -7.79397202 15.92350769 C-7.8021418 13.85529464 -7.79192277 11.78797394 -7.77693176 9.71981812 C-7.77580069 8.56133362 -7.77466961 7.40284912 -7.77350426 6.20925903 C-7.39598083 3.38095093 -7.39598083 3.38095093 -6.1469202 1.50858116 C-3.94393507 0.08982693 -2.61413221 0.00378544 0 0 Z " fill="#4B0807" transform="translate(134.39598083496094,108.61904907226563)"/>
<path d="M0 0 C7.33046242 6.17057912 11.86733345 14.70264296 12.74126244 24.26937866 C13.04009869 29.94372076 13.00848198 35.62418236 12.99609375 41.3046875 C13.00066087 43.14169507 13.00596801 44.97870093 13.01197815 46.81570435 C13.02087153 50.6467386 13.01852547 54.47756391 13.00854492 58.30859375 C12.99700018 63.21817406 13.01736951 68.12704097 13.04646206 73.03652763 C13.06478946 76.82148811 13.06453956 80.60627598 13.05882454 84.39126968 C13.05867122 86.20218031 13.06472441 88.01310256 13.07711601 89.82397079 C13.09197662 92.34909137 13.08139009 94.87287097 13.06420898 97.39794922 C13.07387695 98.14396896 13.08354492 98.88998871 13.09350586 99.65861511 C13.04441497 103.10012999 12.80709857 104.98611642 10.7171936 107.77481079 C7.77703227 109.87304617 5.74397724 109.82944783 2.15234375 109.84375 C0.29706055 109.85148437 0.29706055 109.85148437 -1.59570312 109.859375 C-2.88412109 109.84390625 -4.17253906 109.8284375 -5.5 109.8125 C-6.79228516 109.82796875 -8.08457031 109.8434375 -9.41601562 109.859375 C-10.65158203 109.85421875 -11.88714844 109.8490625 -13.16015625 109.84375 C-14.29203369 109.83923828 -15.42391113 109.83472656 -16.59008789 109.83007812 C-19.4375 109.3125 -19.4375 109.3125 -21.09141541 107.72813416 C-22.93254195 104.42411584 -22.81625599 101.92013814 -22.82226562 98.14477539 C-22.8276384 97.43045853 -22.83301117 96.71614166 -22.83854675 95.98017883 C-22.84831268 94.43278263 -22.85127247 92.88533174 -22.84819031 91.33790779 C-22.84370763 88.88698881 -22.85772463 86.43679012 -22.87658691 83.98594666 C-22.9133521 78.78230948 -22.92707549 73.57874794 -22.9375 68.375 C-22.94958388 62.34736394 -22.97114833 56.32007901 -23.01750183 50.29260063 C-23.03106132 47.8812108 -23.02690317 45.47026608 -23.02209473 43.05885315 C-23.03143735 41.57576941 -23.04160667 40.09269056 -23.05273438 38.60961914 C-23.05478882 37.31818497 -23.05684326 36.02675079 -23.05895996 34.69618225 C-23.46345352 31.0805075 -24.27911248 29.20417679 -26.4375 26.3125 C-31.51574587 22.59146907 -39.42829068 23.56577605 -45.4375 24.3125 C-50.02913625 25.52029997 -54.21218702 27.15455327 -58.4375 29.3125 C-59.43792328 29.65405121 -59.43792328 29.65405121 -60.45855713 30.00250244 C-63.0849288 31.13964511 -64.57091552 32.1192102 -66.4375 34.3125 C-67.63620967 39.58030466 -67.43552114 44.82489606 -67.33203125 50.19140625 C-67.33193259 51.76651968 -67.33579109 53.34163788 -67.34342957 54.91673279 C-67.3548624 59.05699739 -67.3212352 63.19558845 -67.2755127 67.33557129 C-67.20891439 73.96449268 -67.20643787 80.59357188 -67.21219444 87.22276115 C-67.20709733 89.53641089 -67.18020984 91.8490442 -67.15034485 94.16249084 C-67.14370448 95.58171343 -67.13758808 97.00093859 -67.13208008 98.42016602 C-67.11254021 100.27618187 -67.11254021 100.27618187 -67.09260559 102.16969299 C-67.46545557 105.56724166 -67.99243111 106.9599637 -70.4375 109.3125 C-74.56793977 110.05812218 -78.69708238 109.92882613 -82.88916016 109.88891602 C-84.93166732 109.87503963 -86.96959835 109.90912045 -89.01171875 109.94726562 C-90.29691406 109.94533203 -91.58210937 109.94339844 -92.90625 109.94140625 C-94.08638672 109.94213135 -95.26652344 109.94285645 -96.48242188 109.94360352 C-99.4375 109.3125 -99.4375 109.3125 -101.09793091 107.40698242 C-103.01711355 102.97355902 -102.85601628 98.95265952 -102.82568359 94.16967773 C-102.83094055 93.15124786 -102.83619751 92.13281799 -102.84161377 91.08352661 C-102.85480572 87.72089249 -102.84607892 84.3587326 -102.8359375 80.99609375 C-102.8379583 78.65869557 -102.84086979 76.321298 -102.84463501 73.98390198 C-102.84905715 69.08727002 -102.84263008 64.19080231 -102.82861328 59.29418945 C-102.8115122 53.01361505 -102.8213694 46.73342498 -102.83933067 40.45286465 C-102.85016328 35.62735591 -102.8467247 30.80193854 -102.8389473 25.97642708 C-102.83694434 23.66033953 -102.83940789 21.34424372 -102.84638596 19.02816582 C-102.85399266 15.79386236 -102.84240704 12.56018451 -102.82568359 9.32592773 C-102.83479263 7.88654091 -102.83479263 7.88654091 -102.84408569 6.41807556 C-102.83562622 5.53631653 -102.82716675 4.6545575 -102.81845093 3.74607849 C-102.81731985 2.98195365 -102.81618877 2.21782881 -102.81502342 1.43054867 C-102.32874868 -1.29763591 -101.32729683 -2.6845394 -99.4375 -4.6875 C-96.57421875 -5.18920898 -96.57421875 -5.18920898 -93.125 -5.18359375 C-91.88492188 -5.18423828 -90.64484375 -5.18488281 -89.3671875 -5.18554688 C-88.07039062 -5.16556641 -86.77359375 -5.14558594 -85.4375 -5.125 C-84.14070312 -5.13208984 -82.84390625 -5.13917969 -81.5078125 -5.14648438 C-71.9625452 -5.08198933 -71.9625452 -5.08198933 -69.57495117 -3.28808594 C-67.49759327 -0.36489247 -67.72495349 2.8055674 -67.4375 6.3125 C-66.74785156 5.85359375 -66.05820312 5.3946875 -65.34765625 4.921875 C-46.498079 -7.38594225 -20.18599585 -13.54536918 0 0 Z " fill="#4B0807" transform="translate(809.4375,163.6875)"/>
<path d="M0 0 C1.28519531 0.00386719 2.57039063 0.00773437 3.89453125 0.01171875 C4.56307129 0.02412598 5.23161133 0.0365332 5.92041016 0.04931641 C7.96177126 0.08581273 10.00131554 0.09033583 12.04296875 0.08984375 C22.04757801 0.18015617 22.04757801 0.18015617 25.46875 2.4609375 C25.73602014 4.94434653 25.81741334 7.17565818 25.76171875 9.65625 C25.75747391 10.36369354 25.75322906 11.07113708 25.74885559 11.80001831 C25.73204547 14.06237655 25.69439128 16.32384798 25.65625 18.5859375 C25.64120607 20.11847673 25.62751716 21.6510299 25.61523438 23.18359375 C25.58213462 26.94305068 25.53033825 30.70184368 25.46875 34.4609375 C26.39212158 34.44522705 27.31549316 34.4295166 28.2668457 34.41333008 C31.69414889 34.36218918 35.12104642 34.32458215 38.54858398 34.29614258 C40.03172199 34.28105982 41.51481544 34.26059061 42.99780273 34.23461914 C45.13015745 34.19821134 47.26192235 34.18120677 49.39453125 34.16796875 C51.31906128 34.14440308 51.31906128 34.14440308 53.2824707 34.12036133 C56.46875 34.4609375 56.46875 34.4609375 58.39038086 35.6940918 C59.76729228 37.95008183 59.82755365 39.38718926 59.796875 42.0234375 C59.79171875 42.90257812 59.7865625 43.78171875 59.78125 44.6875 C59.760625 45.60273438 59.74 46.51796875 59.71875 47.4609375 C59.71359375 48.37617188 59.7084375 49.29140625 59.703125 50.234375 C59.62381269 56.99574943 59.62381269 56.99574943 58.46875 60.4609375 C55.49515551 61.94773475 52.80575821 61.57206355 49.4921875 61.55859375 C48.46431625 61.55647133 48.46431625 61.55647133 47.41567993 61.55430603 C45.22499239 61.54870425 43.0344067 61.53615156 40.84375 61.5234375 C39.35937648 61.51842272 37.87500135 61.51385978 36.390625 61.50976562 C32.74996685 61.49873427 29.10936836 61.48146849 25.46875 61.4609375 C25.53586337 68.04496045 25.62571458 74.62839489 25.73120117 81.21191406 C25.76440666 83.45044961 25.79245216 85.68906799 25.81518555 87.92773438 C25.84881145 91.15009789 25.90113272 94.37170524 25.95703125 97.59375 C25.96342117 98.59084991 25.9698111 99.58794983 25.97639465 100.61526489 C26.08895251 105.96346661 26.45099034 109.84989324 29.46875 114.4609375 C32.89156642 117.56286488 35.99893274 118.55399483 40.55859375 118.70703125 C41.73518555 118.75633789 41.73518555 118.75633789 42.93554688 118.80664062 C44.57864079 118.86768838 46.22187794 118.92499885 47.86523438 118.97851562 C48.65091797 119.01267578 49.43660156 119.04683594 50.24609375 119.08203125 C51.31718384 119.11961548 51.31718384 119.11961548 52.40991211 119.15795898 C54.78692021 119.50775942 56.42417399 120.20899202 58.46875 121.4609375 C60.34506321 125.21356393 59.73995023 129.70596099 59.78125 133.8359375 C59.82475586 135.27453125 59.82475586 135.27453125 59.86914062 136.7421875 C59.88170898 138.13050781 59.88170898 138.13050781 59.89453125 139.546875 C59.90911377 140.3929834 59.92369629 141.2390918 59.9387207 142.11083984 C59.28638853 145.37283958 58.13323064 146.50624682 55.46875 148.4609375 C52.66650391 148.96264648 52.66650391 148.96264648 49.4453125 148.95703125 C48.26565918 148.96001221 47.08600586 148.96299316 45.87060547 148.96606445 C44.00106201 148.93258911 44.00106201 148.93258911 42.09375 148.8984375 C40.82547363 148.88449951 39.55719727 148.87056152 38.25048828 148.85620117 C24.57833932 148.58634456 11.59201839 147.14006928 0.65625 138.1484375 C-8.09535594 127.39646448 -10.0174928 116.39306859 -9.82421875 102.6953125 C-9.81997391 101.53590149 -9.81572906 100.37649048 -9.81135559 99.1819458 C-9.79473228 95.52469399 -9.757111 91.86801919 -9.71875 88.2109375 C-9.70368203 85.71224761 -9.68999736 83.21354898 -9.67773438 80.71484375 C-9.64488255 74.63001567 -9.59484937 68.54551783 -9.53125 62.4609375 C-10.57925781 62.48414063 -11.62726563 62.50734375 -12.70703125 62.53125 C-14.08593037 62.55001053 -15.4648372 62.56821043 -16.84375 62.5859375 C-17.53404297 62.60269531 -18.22433594 62.61945313 -18.93554688 62.63671875 C-22.70260396 62.67311544 -24.31556704 62.60472614 -27.53125 60.4609375 C-28.87067281 56.44266906 -28.75463825 52.73142063 -28.78125 48.5234375 C-28.801875 47.71197266 -28.8225 46.90050781 -28.84375 46.06445312 C-28.86571253 42.71791325 -28.78702109 40.09489152 -27.52734375 36.97265625 C-24.44250245 34.63638701 -21.08159618 34.52432897 -17.34375 34.2109375 C-16.59416016 34.13359375 -15.84457031 34.05625 -15.07226562 33.9765625 C-13.22683903 33.78849355 -11.3791813 33.62255174 -9.53125 33.4609375 C-9.54696045 32.60338867 -9.5626709 31.74583984 -9.57885742 30.86230469 C-9.63007423 27.67173503 -9.66764312 24.48137535 -9.69604492 21.29052734 C-9.71110422 19.91122532 -9.73155613 18.53197097 -9.75756836 17.15283203 C-9.79407415 15.16720347 -9.80939853 13.18122132 -9.82421875 11.1953125 C-9.8399292 10.00131836 -9.85563965 8.80732422 -9.87182617 7.57714844 C-9.13890389 0.87104088 -6.38005752 -0.04442694 0 0 Z " fill="#4B0807" transform="translate(343.53125,124.5390625)"/>
<path d="M0 0 C1.0830542 0.00326294 1.0830542 0.00326294 2.18798828 0.0065918 C4.39405609 0.00975375 6.59878544 -0.01371013 8.8046875 -0.0390625 C10.20182122 -0.04133526 11.59895856 -0.0420391 12.99609375 -0.04101562 C14.27162109 -0.04399658 15.54714844 -0.04697754 16.86132812 -0.05004883 C18.36663086 0.13424683 18.36663086 0.13424683 19.90234375 0.32226562 C21.98818901 3.45103352 22.15449989 4.15979008 22.16976929 7.71824646 C22.17829926 8.6169043 22.18682922 9.51556213 22.19561768 10.44145203 C22.1947113 11.42491104 22.19380493 12.40837006 22.19287109 13.42163086 C22.19958832 14.45927582 22.20630554 15.49692078 22.21322632 16.56600952 C22.2322618 20.00434119 22.23613321 23.44247826 22.23828125 26.88085938 C22.24470486 29.26595644 22.25143288 31.65105269 22.25845337 34.03614807 C22.27043972 39.03884712 22.27413275 44.04147705 22.27294922 49.04418945 C22.27274585 55.46163316 22.30006078 61.8786349 22.33449364 68.29597378 C22.35670504 73.22270249 22.36078854 78.14932383 22.35972977 83.07609749 C22.36209393 85.44243965 22.37096297 87.80878441 22.3863945 90.17507744 C22.40593933 93.48153742 22.40026143 96.78703109 22.38818359 100.09350586 C22.39942261 101.07494064 22.41066162 102.05637543 22.42224121 103.06755066 C22.36076016 109.6742915 22.36076016 109.6742915 20.05802917 112.92921448 C17.10776561 114.83573943 14.99103494 114.83958293 11.4921875 114.85351562 C9.6369043 114.86125 9.6369043 114.86125 7.74414062 114.86914062 C6.45572266 114.85367188 5.16730469 114.83820313 3.83984375 114.82226562 C2.54755859 114.83773437 1.25527344 114.85320312 -0.07617188 114.86914062 C-1.31173828 114.86398437 -2.54730469 114.85882813 -3.8203125 114.85351562 C-5.51812866 114.84674805 -5.51812866 114.84674805 -7.25024414 114.83984375 C-10.09765625 114.32226562 -10.09765625 114.32226562 -11.75223064 112.57539558 C-13.26985081 110.03389835 -13.47250068 108.68749695 -13.47187805 105.75460815 C-13.47889236 104.84327118 -13.48590668 103.9319342 -13.49313354 102.99298096 C-13.48548981 102.00062439 -13.47784607 101.00826782 -13.4699707 99.98583984 C-13.47362137 98.9350827 -13.47727203 97.88432556 -13.48103333 96.80172729 C-13.48914322 93.32663848 -13.47552647 89.85201522 -13.4609375 86.37695312 C-13.46041903 83.96607463 -13.46093623 81.5551957 -13.46244812 79.14431763 C-13.46235838 74.09207854 -13.45192398 69.03999897 -13.43383789 63.98779297 C-13.41112651 57.49967202 -13.41061087 51.01178374 -13.41735554 44.52363396 C-13.42069037 39.54637571 -13.414075 34.56917089 -13.4042263 29.59192276 C-13.40036745 27.19882613 -13.39922891 24.80572357 -13.40081215 22.41262436 C-13.40118138 19.07493423 -13.38860324 15.73754712 -13.37231445 12.39990234 C-13.37479187 11.40349731 -13.37726929 10.40709229 -13.37982178 9.38049316 C-13.37273697 8.47479584 -13.36565216 7.56909851 -13.35835266 6.63595581 C-13.35629979 5.84656553 -13.35424692 5.05717525 -13.35213184 4.24386406 C-12.53667292 -1.91383681 -4.67796742 0.01867245 0 0 Z " fill="#4B0808" transform="translate(656.09765625,158.677734375)"/>
<path d="M0 0 C0.65830811 -0.00191345 1.31661621 -0.0038269 1.99487305 -0.00579834 C3.3868854 -0.0071595 4.77891047 -0.00346783 6.17089844 0.00488281 C8.30432589 0.015584 10.43691131 0.00498594 12.5703125 -0.0078125 C13.92187686 -0.00649089 15.2734407 -0.00392847 16.625 0 C18.47544922 0.00338379 18.47544922 0.00338379 20.36328125 0.00683594 C23.3125 0.265625 23.3125 0.265625 25.3125 2.265625 C25.56697559 4.2240448 25.56697559 4.2240448 25.57319641 6.66870117 C25.58028122 7.59411713 25.58736603 8.51953308 25.59466553 9.47299194 C25.59218811 10.49124054 25.58971069 11.50948914 25.5871582 12.55859375 C25.59226913 13.62856598 25.59738007 14.69853821 25.60264587 15.80093384 C25.61659121 19.35172049 25.61558152 22.90231415 25.61328125 26.453125 C25.61716517 28.91170322 25.6214992 31.37028076 25.62626648 33.82885742 C25.63373913 38.98716404 25.63342963 44.14540222 25.62817383 49.30371094 C25.62237476 55.92869223 25.63931598 62.55339436 25.6625185 69.17832947 C25.67721694 74.25681203 25.67813291 79.33522674 25.67500877 84.41372681 C25.67552384 86.85707147 25.68079613 89.30041975 25.69082069 91.7437439 C25.7030938 95.15356849 25.69644849 98.56284115 25.68481445 101.97265625 C25.69628006 103.50002914 25.69628006 103.50002914 25.70797729 105.05825806 C25.70096298 105.98367401 25.69394867 106.90908997 25.6867218 107.86254883 C25.68688954 108.66928543 25.68705729 109.47602203 25.68723011 110.3072052 C25.50173871 111.276623 25.50173871 111.276623 25.3125 112.265625 C20.24082808 115.64673961 14.26790394 114.63470512 8.3125 114.640625 C7.01570313 114.66511719 5.71890625 114.68960938 4.3828125 114.71484375 C3.14273437 114.71871094 1.90265625 114.72257812 0.625 114.7265625 C-0.51324219 114.73478027 -1.65148437 114.74299805 -2.82421875 114.75146484 C-5.6875 114.265625 -5.6875 114.265625 -7.34306622 112.5207386 C-8.85878475 109.97831701 -9.0623444 108.63069598 -9.0617218 105.69796753 C-9.06873611 104.78663055 -9.07575043 103.87529358 -9.08297729 102.93634033 C-9.07533356 101.94398376 -9.06768982 100.9516272 -9.05981445 99.92919922 C-9.06346512 98.87844208 -9.06711578 97.82768494 -9.07087708 96.74508667 C-9.07898697 93.26999785 -9.06537022 89.7953746 -9.05078125 86.3203125 C-9.05026278 83.909434 -9.05077998 81.49855508 -9.05229187 79.087677 C-9.05220213 74.03543791 -9.04176773 68.98335835 -9.02368164 63.93115234 C-9.00097026 57.44303139 -9.00045462 50.95514311 -9.00719929 44.46699333 C-9.01053412 39.48973508 -9.00391875 34.51253026 -8.99407005 29.53528214 C-8.9902112 27.14218551 -8.98907266 24.74908295 -8.9906559 22.35598373 C-8.99102513 19.01829361 -8.97844699 15.6809065 -8.9621582 12.34326172 C-8.96463562 11.34685669 -8.96711304 10.35045166 -8.96966553 9.32385254 C-8.96258072 8.41815521 -8.95549591 7.51245789 -8.94819641 6.57931519 C-8.94614354 5.78992491 -8.94409067 5.00053463 -8.94197559 4.18722343 C-8.2736081 -0.85975929 -4.07362899 0.00744916 0 0 Z " fill="#490605" transform="translate(269.6875,158.734375)"/>
<path d="M0 0 C1.93262695 -0.0299707 1.93262695 -0.0299707 3.90429688 -0.06054688 C5.14115234 -0.05990234 6.37800781 -0.05925781 7.65234375 -0.05859375 C8.78534912 -0.06044678 9.91835449 -0.0622998 11.08569336 -0.06420898 C14.73982453 0.55165582 15.9182674 1.44573447 18.0625 4.4375 C18.54833984 6.75585937 18.54833984 6.75585937 18.5234375 9.28125 C18.51957031 10.19777344 18.51570312 11.11429688 18.51171875 12.05859375 C18.47498047 13.48365234 18.47498047 13.48365234 18.4375 14.9375 C18.43621094 15.88753906 18.43492187 16.83757812 18.43359375 17.81640625 C18.33228888 25.81949065 18.33228888 25.81949065 16.0625 29.4375 C11.6188844 31.6593078 5.56709175 30.66741938 0.6875 30.6875 C-0.55773437 30.708125 -1.80296875 30.72875 -3.0859375 30.75 C-4.2821875 30.75515625 -5.4784375 30.7603125 -6.7109375 30.765625 C-7.80841309 30.7749707 -8.90588867 30.78431641 -10.03662109 30.79394531 C-13.33855724 30.38822012 -14.7101336 29.90565382 -16.9375 27.4375 C-17.43920898 24.94140625 -17.43920898 24.94140625 -17.43359375 22 C-17.43423828 20.94039062 -17.43488281 19.88078125 -17.43554688 18.7890625 C-17.41556641 17.68304688 -17.39558594 16.57703125 -17.375 15.4375 C-17.38208984 14.33148438 -17.38917969 13.22546875 -17.39648438 12.0859375 C-17.33309362 4.06944549 -17.33309362 4.06944549 -15.80273438 1.62475586 C-11.41364147 -1.1689822 -5.02529345 -0.02757019 0 0 Z " fill="#4D0C0B" transform="translate(659.9375,108.5625)"/>
<path d="M0 0 C1.24007813 0.00064453 2.48015625 0.00128906 3.7578125 0.00195312 C5.70300781 0.02612305 5.70300781 0.02612305 7.6875 0.05078125 C8.98429687 0.04755859 10.28109375 0.04433594 11.6171875 0.04101562 C21.287029 0.09630058 21.287029 0.09630058 24.6875 2.36328125 C25.07568359 4.9453125 25.07568359 4.9453125 25.0859375 8.17578125 C25.09173828 9.91214844 25.09173828 9.91214844 25.09765625 11.68359375 C25.08605469 12.89789063 25.07445312 14.1121875 25.0625 15.36328125 C25.07410156 16.57757813 25.08570313 17.791875 25.09765625 19.04296875 C25.09378906 20.20054687 25.08992188 21.358125 25.0859375 22.55078125 C25.08255371 23.61683594 25.07916992 24.68289062 25.07568359 25.78125 C24.94758301 26.63332031 24.81948242 27.48539063 24.6875 28.36328125 C19.61863716 31.74252314 13.63868586 30.69057048 7.6875 30.67578125 C6.39070313 30.69189453 5.09390625 30.70800781 3.7578125 30.72460938 C2.51773437 30.72525391 1.27765625 30.72589844 0 30.7265625 C-1.70736328 30.73103394 -1.70736328 30.73103394 -3.44921875 30.7355957 C-6.3125 30.36328125 -6.3125 30.36328125 -8.18212891 29.18041992 C-9.73655495 26.68158774 -9.70071067 24.85942061 -9.7109375 21.92578125 C-9.71480469 20.86617187 -9.71867187 19.8065625 -9.72265625 18.71484375 C-9.71105469 17.60882813 -9.69945312 16.5028125 -9.6875 15.36328125 C-9.69910156 14.25726563 -9.71070313 13.15125 -9.72265625 12.01171875 C-9.71878906 10.95210937 -9.71492188 9.8925 -9.7109375 8.80078125 C-9.70755371 7.83011719 -9.70416992 6.85945313 -9.70068359 5.859375 C-9.3125 3.36328125 -9.3125 3.36328125 -8.18212891 1.54614258 C-5.43565179 -0.19147581 -3.23000586 -0.0084591 0 0 Z " fill="#4C0A09" transform="translate(270.3125,108.63671875)"/>
<path d="M0 0 C2.125 0.375 2.125 0.375 4 1 C3.34 1.66 2.68 2.32 2 3 C1.01 3 0.02 3 -1 3 C-1 37.98 -1 72.96 -1 109 C-0.34 109 0.32 109 1 109 C0.67 109.99 0.34 110.98 0 112 C-2.42698353 109.57301647 -2.25080561 108.99359537 -2.25396729 105.67285156 C-2.26242676 104.30997009 -2.26242676 104.30997009 -2.27105713 102.91955566 C-2.26700867 101.92000854 -2.26296021 100.92046143 -2.25878906 99.890625 C-2.2622937 98.84015991 -2.26579834 97.78969482 -2.26940918 96.70739746 C-2.27823979 93.22153185 -2.27237259 89.73586781 -2.265625 86.25 C-2.26697127 83.83626262 -2.26891147 81.42252551 -2.27142334 79.00878906 C-2.27437641 73.94463525 -2.27007106 68.88055189 -2.26074219 63.81640625 C-2.24934761 57.31254469 -2.2559061 50.80884818 -2.26788712 44.30499268 C-2.27510076 39.31916044 -2.27282006 34.33336758 -2.26763153 29.34753418 C-2.26629366 26.94885234 -2.26794752 24.55016697 -2.27259064 22.15148926 C-2.2776477 18.80402095 -2.26995706 15.45682307 -2.25878906 12.109375 C-2.26283752 11.10982788 -2.26688599 10.11028076 -2.27105713 9.08044434 C-2.26541748 8.17185669 -2.25977783 7.26326904 -2.25396729 6.32714844 C-2.25321323 5.53516052 -2.25245918 4.74317261 -2.25168228 3.92718506 C-2 2 -2 2 0 0 Z " fill="#4C1316" transform="translate(645,159)"/>
<path d="M0 0 C1.92779297 -0.0009668 1.92779297 -0.0009668 3.89453125 -0.00195312 C4.89734131 0.01363647 4.89734131 0.01363647 5.92041016 0.02954102 C7.96208974 0.05849928 10.00117216 0.0501505 12.04296875 0.03710938 C21.97614274 0.10186929 21.97614274 0.10186929 24.37695312 2.02319336 C24.73724609 2.50925049 25.09753906 2.99530762 25.46875 3.49609375 C22.42488276 3.57836043 20.39699652 3.47217592 17.46875 2.49609375 C15.84307921 2.34894176 14.21288143 2.24887508 12.58203125 2.1796875 C11.64423828 2.13779297 10.70644531 2.09589844 9.74023438 2.05273438 C8.76376953 2.01341797 7.78730469 1.97410156 6.78125 1.93359375 C5.79318359 1.89041016 4.80511719 1.84722656 3.78710938 1.80273438 C1.34779454 1.69667721 -1.09162113 1.59461661 -3.53125 1.49609375 C-3.53125 2.15609375 -3.53125 2.81609375 -3.53125 3.49609375 C-5.51125 4.48609375 -5.51125 4.48609375 -7.53125 5.49609375 C-7.86125 15.06609375 -8.19125 24.63609375 -8.53125 34.49609375 C-9.85125 34.16609375 -11.17125 33.83609375 -12.53125 33.49609375 C-11.54125 33.49609375 -10.55125 33.49609375 -9.53125 33.49609375 C-9.54696045 32.63854492 -9.5626709 31.78099609 -9.57885742 30.89746094 C-9.63007423 27.70689128 -9.66764312 24.5165316 -9.69604492 21.32568359 C-9.71110422 19.94638157 -9.73155613 18.56712722 -9.75756836 17.18798828 C-9.79407415 15.20235972 -9.80939853 13.21637757 -9.82421875 11.23046875 C-9.8399292 10.03647461 -9.85563965 8.84248047 -9.87182617 7.61230469 C-9.13963529 0.9128893 -6.37458527 -0.01000925 0 0 Z " fill="#724344" transform="translate(343.53125,124.50390625)"/>
<path d="M0 0 C2.875 -0.125 2.875 -0.125 6 0 C6.66 0.66 7.32 1.32 8 2 C7.75558954 4.52557477 7.17639341 5.7852602 5.5625 7.75 C4 9 4 9 2 9 C1.34 6.03 0.68 3.06 0 0 Z " fill="#4E1111" transform="translate(448,159)"/>
<path d="M0 0 C0.66 0 1.32 0 2 0 C2 0.66 2 1.32 2 2 C2.66 2.33 3.32 2.66 4 3 C4 3.66 4 4.32 4 5 C5.29233607 6.37310707 6.62437146 7.71034824 8 9 C7.01 9.495 7.01 9.495 6 10 C3.03 8.02 0.06 6.04 -3 4 C-2.01 2.68 -1.02 1.36 0 0 Z " fill="#54181A" transform="translate(346,258)"/>
<path d="M0 0 C2.375 -0.125 2.375 -0.125 5 0 C5.66 0.66 6.32 1.32 7 2 C6.625 4.125 6.625 4.125 6 6 C4.33333333 6 2.66666667 6 1 6 C0.67 4.02 0.34 2.04 0 0 Z " fill="#501312" transform="translate(224,184)"/>
<path d="M0 0 C3.3 1.65 6.6 3.3 10 5 C7 7 7 7 4.8125 6.625 C4.214375 6.41875 3.61625 6.2125 3 6 C3 5.34 3 4.68 3 4 C2.01 4 1.02 4 0 4 C0 2.68 0 1.36 0 0 Z " fill="#4F100F" transform="translate(513,159)"/>
<path d="M0 0 C1.98 1.65 3.96 3.3 6 5 C4.68 6.32 3.36 7.64 2 9 C1 6 1 6 1 4 C-0.45833358 2.37485532 -0.45833358 2.37485532 -2 1 C-1.34 0.67 -0.68 0.34 0 0 Z " fill="#4C0F10" transform="translate(523,165)"/>
<path d="M0 0 C4.0369867 1.79421631 6.64480474 3.20551875 9 7 C8.01 7 7.02 7 6 7 C6 6.34 6 5.68 6 5 C5.071875 5.309375 5.071875 5.309375 4.125 5.625 C3.42375 5.74875 2.7225 5.8725 2 6 C1.34 5.34 0.68 4.68 0 4 C0 2.68 0 1.36 0 0 Z " fill="#4C1213" transform="translate(595,161)"/>
<path d="M0 0 C0.66 0.33 1.32 0.66 2 1 C1.3125 2.9375 1.3125 2.9375 0 5 C-2.625 5.75 -2.625 5.75 -5 6 C-5 4.68 -5 3.36 -5 2 C-2.625 0.9375 -2.625 0.9375 0 0 Z " fill="#551414" transform="translate(552,160)"/>
<path d="M0 0 C3 1 3 1 4 3 C4.039992 4.99960012 4.04346799 7.00047242 4 9 C1.27573689 6.64722731 0.1858237 4.37503669 -1 1 C-0.67 0.67 -0.34 0.34 0 0 Z " fill="#4D0F12" transform="translate(338,250)"/>
<path d="M0 0 C0.99 0 1.98 0 3 0 C3.33 1.65 3.66 3.3 4 5 C2.02 5.99 2.02 5.99 0 7 C-0.66 6.01 -1.32 5.02 -2 4 C-1 2 -1 2 0 1 C0 0.67 0 0.34 0 0 Z " fill="#521313" transform="translate(785,185)"/>
<path d="M0 0 C0.33 0 0.66 0 1 0 C1.2493357 1.60115576 1.47378648 3.20620159 1.6875 4.8125 C1.87892578 6.15248047 1.87892578 6.15248047 2.07421875 7.51953125 C2 10 2 10 0.51953125 11.82421875 C-0.23263672 12.40623047 -0.23263672 12.40623047 -1 13 C-2.12758089 9.61725734 -1.81750262 8.23221777 -1.0625 4.8125 C-0.86785156 3.91144531 -0.67320312 3.01039063 -0.47265625 2.08203125 C-0.23869141 1.05142578 -0.23869141 1.05142578 0 0 Z " fill="#530D0C" transform="translate(229,200)"/>
<path d="M0 0 C0.66 0 1.32 0 2 0 C1.67 1.98 1.34 3.96 1 6 C-0.32 6.33 -1.64 6.66 -3 7 C-3 6.01 -3 5.02 -3 4 C-2.01 4 -1.02 4 0 4 C0 2.68 0 1.36 0 0 Z " fill="#511316" transform="translate(533,266)"/>
</svg>
