<?xml version="1.0" encoding="UTF-8"?>
<!DOCTYPE svg PUBLIC "-//W3C//DTD SVG 1.1//EN" "http://www.w3.org/Graphics/SVG/1.1/DTD/svg11.dtd">
<svg xmlns="http://www.w3.org/2000/svg" version="1.1" width="717px" height="144px"
    style="shape-rendering:geometricPrecision; text-rendering:geometricPrecision; image-rendering:optimizeQuality; fill-rule:evenodd; clip-rule:evenodd"
    xmlns:xlink="http://www.w3.org/1999/xlink">
    <g>
        <path style="opacity:1" fill="#fdfdfd"
            d="M 56.5,2.5 C 82.1473,-0.730749 103.814,6.93592 121.5,25.5C 146.246,16.0289 166.746,21.6956 183,42.5C 194.007,62.7428 192.673,82.0762 179,100.5C 162.806,116.573 143.972,120.573 122.5,112.5C 102.581,135.152 77.9139,142.652 48.5,135C 18.151,123.975 2.48431,102.308 1.5,70C 3.38932,34.0349 21.7227,11.5349 56.5,2.5 Z M 119.5,27.5 C 126.629,34.7458 131.462,43.4124 134,53.5C 138.949,74.594 134.783,93.594 121.5,110.5C 99.9525,97.7126 92.1192,79.046 98,54.5C 102.053,42.955 109.219,33.955 119.5,27.5 Z" />
    </g>
    <g>
        <path style="opacity:1" fill="#fcfcfc"
            d="M 358.5,18.5 C 371.043,17.8383 383.043,20.0049 394.5,25C 404.791,31.7319 410.958,41.2319 413,53.5C 415.679,78.7938 409.346,101.46 394,121.5C 377.8,135.596 358.967,140.762 337.5,137C 317.736,134.719 305.903,123.886 302,104.5C 299.529,83.6589 303.195,63.9923 313,45.5C 323.85,29.1605 339.017,20.1605 358.5,18.5 Z M 359.5,43.5 C 369.427,42.3758 375.26,46.7092 377,56.5C 377.205,71.8082 374.205,86.4748 368,100.5C 363.256,110.124 355.756,113.624 345.5,111C 341.51,109.01 339.01,105.843 338,101.5C 336.701,85.0263 339.701,69.3596 347,54.5C 350.124,49.5362 354.291,45.8696 359.5,43.5 Z" />
    </g>
    <g>
        <path style="opacity:1" fill="#fcfcfc"
            d="M 288.5,20.5 C 296.672,20.0343 304.672,20.5343 312.5,22C 310.106,29.404 307.94,36.904 306,44.5C 293.909,45.3228 281.742,45.8228 269.5,46C 267.445,53.0553 265.778,60.222 264.5,67.5C 276.144,66.6388 287.81,66.3054 299.5,66.5C 297.672,74.9959 295.005,83.1626 291.5,91C 280.505,91.4998 269.505,91.6665 258.5,91.5C 255.864,106.186 252.53,120.686 248.5,135C 236.838,135.5 225.171,135.667 213.5,135.5C 222.639,97.9446 231.305,60.2779 239.5,22.5C 255.995,21.8333 272.328,21.1667 288.5,20.5 Z" />
    </g>
    <g>
        <path style="opacity:1" fill="#fcfcfc"
            d="M 485.5,83.5 C 485.34,85.1992 485.506,86.8659 486,88.5C 486.717,87.9558 487.217,87.2891 487.5,86.5C 497.086,64.8261 507.086,43.3261 517.5,22C 532.833,21.4048 548.166,20.9048 563.5,20.5C 557.593,58.5171 551.593,96.5171 545.5,134.5C 534.803,135.188 524.136,135.855 513.5,136.5C 512.5,136.167 511.833,135.5 511.5,134.5C 516.833,107.832 522.167,81.1655 527.5,54.5C 528.529,50.6358 528.196,50.6358 526.5,54.5C 513.845,81.1449 501.178,107.812 488.5,134.5C 478.94,135.817 469.44,135.817 460,134.5C 458.697,106.832 457.364,79.1652 456,51.5C 449.152,79.2252 442.152,106.892 435,134.5C 425.864,135.179 416.697,135.846 407.5,136.5C 406.359,134.579 406.192,132.579 407,130.5C 417.14,94.5805 426.973,58.5805 436.5,22.5C 448.989,21.6383 461.489,20.9716 474,20.5C 477.086,20.522 480.086,20.8553 483,21.5C 484.033,42.1614 484.866,62.8281 485.5,83.5 Z" />
    </g>
    <g>
        <path style="opacity:1" fill="#fcfcfc"
            d="M 635.5,20.5 C 642.755,20.1868 649.921,20.5201 657,21.5C 655.799,29.3022 653.799,36.9688 651,44.5C 638.909,45.3228 626.742,45.8228 614.5,46C 612.446,52.3841 610.779,58.8841 609.5,65.5C 621.15,64.5007 632.817,64.334 644.5,65C 644.957,65.414 645.291,65.914 645.5,66.5C 643.26,73.7197 640.927,80.8863 638.5,88C 627.152,88.1675 615.819,88.6675 604.5,89.5C 602.518,96.0956 600.851,102.762 599.5,109.5C 613.526,109.532 627.526,109.366 641.5,109C 640.001,117.646 637.668,126.313 634.5,135C 609.457,135.176 584.457,135.676 559.5,136.5C 558.5,136.167 557.833,135.5 557.5,134.5C 567.587,97.1526 576.254,59.4859 583.5,21.5C 601.008,21.83 618.341,21.4967 635.5,20.5 Z" />
    </g>
    <g>
        <path style="opacity:1" fill="#fcfcfc"
            d="M 695.5,20.5 C 700.167,20.5 704.833,20.5 709.5,20.5C 700.691,58.4047 692.191,96.4047 684,134.5C 672.197,135.176 660.363,135.843 648.5,136.5C 647.5,136.167 646.833,135.5 646.5,134.5C 656.272,97.0794 664.939,59.4127 672.5,21.5C 680.352,21.8254 688.018,21.492 695.5,20.5 Z" />
    </g>
    <g>
        <path style="opacity:0.89" fill="#b5b5b5"
            d="M 527.5,54.5 C 527.167,54.5 526.833,54.5 526.5,54.5C 528.196,50.6358 528.529,50.6358 527.5,54.5 Z" />
    </g>
    <g>
        <path style="opacity:0.675" fill="#9e9e9e"
            d="M 485.5,83.5 C 486.167,84.5 486.833,85.5 487.5,86.5C 487.217,87.2891 486.717,87.9558 486,88.5C 485.506,86.8659 485.34,85.1992 485.5,83.5 Z" />
    </g>
</svg>