<?xml version="1.0" encoding="UTF-8"?>
<svg version="1.1" xmlns="http://www.w3.org/2000/svg" width="715" height="452">
<path d="M0 0 C235.95 0 471.9 0 715 0 C715 149.16 715 298.32 715 452 C479.05 452 243.1 452 0 452 C0 302.84 0 153.68 0 0 Z " fill="#000000" transform="translate(0,0)"/>
<path d="M0 0 C2.203125 1.76171875 2.203125 1.76171875 3.203125 4.76171875 C2.765625 6.94921875 2.765625 6.94921875 2.203125 8.76171875 C3.523125 8.10171875 4.843125 7.44171875 6.203125 6.76171875 C4.99017896 10.48719586 3.67500302 14.13149859 2.203125 17.76171875 C2.80640625 17.31699219 3.4096875 16.87226562 4.03125 16.4140625 C4.83046875 15.84816406 5.6296875 15.28226563 6.453125 14.69921875 C7.63648438 13.84650391 7.63648438 13.84650391 8.84375 12.9765625 C11.203125 11.76171875 11.203125 11.76171875 13.203125 11.79296875 C16.01622571 13.15556441 17.79746915 15.07346044 19.953125 17.32421875 C20.75234375 18.15050781 21.5515625 18.97679687 22.375 19.828125 C22.97828125 20.46621094 23.5815625 21.10429688 24.203125 21.76171875 C22.67414924 25.37864648 20.52496867 27.68207095 17.75341797 30.43847656 C16.83261444 31.35912903 15.91181091 32.27978149 14.96310425 33.22833252 C13.95728035 34.22394405 12.9513472 35.21944523 11.9453125 36.21484375 C10.91640351 37.24002068 9.88793663 38.2656415 8.8598938 39.29168701 C6.15830919 41.98565039 3.45077159 44.67355243 0.74194336 47.36022949 C-2.02331989 50.10500179 -4.78290133 52.85547347 -7.54296875 55.60546875 C-12.95539774 60.99647448 -18.37412938 66.38108839 -23.796875 71.76171875 C-24.45815903 71.35002945 -25.11944305 70.93834015 -25.80076599 70.51417542 C-26.68176468 69.97397263 -27.56276337 69.43376984 -28.47045898 68.87719727 C-29.33799301 68.34175797 -30.20552704 67.80631866 -31.09934998 67.25465393 C-39.93071836 62.36696598 -49.36330985 62.2676363 -59.234375 62.32421875 C-60.46736328 62.30423828 -61.70035156 62.28425781 -62.97070312 62.26367188 C-72.64086675 62.26878026 -82.40652493 63.26820764 -89.796875 70.07421875 C-90.291875 70.60660156 -90.786875 71.13898438 -91.296875 71.6875 C-92.796875 72.76171875 -92.796875 72.76171875 -94.75 72.65625 C-97.2901695 71.54613776 -98.65561608 70.1608347 -100.546875 68.13671875 C-103.11112952 65.4736581 -105.67900825 62.91970797 -108.484375 60.51171875 C-112.07641121 57.41877172 -115.56966686 54.23220655 -119.046875 51.01171875 C-119.87699097 50.24335693 -119.87699097 50.24335693 -120.72387695 49.45947266 C-121.85349265 48.41356241 -122.98296788 47.36750044 -124.11230469 46.32128906 C-134.30753675 36.87651571 -134.30753675 36.87651571 -144.796875 27.76171875 C-143.89034086 23.76783723 -143.04083143 21.46501577 -139.796875 18.76171875 C-136.0500327 18.63214495 -132.48328728 19.11977454 -128.796875 19.76171875 C-130.446875 18.11171875 -132.096875 16.46171875 -133.796875 14.76171875 C-128.83496913 2.98050908 -113.17664533 -4.38539351 -102.234375 -9.42578125 C-68.37407984 -23.05203013 -30.86990618 -19.51136378 0 0 Z " fill="#FCFCFC" transform="translate(406.796875,61.23828125)"/>
<path d="M0 0 C2.45701661 5.30484498 4.85346433 10.61772169 7.08984375 16.01953125 C12.52299761 31.96027558 12.52299761 31.96027558 23 44 C22.95875 43.071875 22.9175 42.14375 22.875 41.1875 C23 38 23 38 25 35 C26.9375 35.375 26.9375 35.375 29 36 C30.28365387 38.56730774 30.13275635 40.44652997 30.125 43.3125 C30.12886719 44.72982422 30.12886719 44.72982422 30.1328125 46.17578125 C30.00518007 48.88984743 29.56125648 51.34782627 29 54 C30.81392526 53.99861731 30.81392526 53.99861731 32.66449547 53.99720669 C61.34656253 53.97556616 90.02862948 53.95906817 118.71070286 53.94893467 C122.23812484 53.94768391 125.7655468 53.94638959 129.29296875 53.94506836 C130.34637353 53.94467489 130.34637353 53.94467489 131.42105921 53.94427348 C142.80403057 53.93991778 154.18699691 53.93203077 165.56996529 53.9228472 C177.24300283 53.9135079 188.91603744 53.90801869 200.58907855 53.90591151 C207.14855673 53.90460447 213.70802349 53.90151902 220.26749802 53.89426994 C226.4348181 53.88750913 232.60212199 53.88538317 238.76944542 53.88689232 C241.03908692 53.88661602 243.30872893 53.88461126 245.57836723 53.88079453 C248.66492579 53.87585634 251.75142234 53.8770022 254.83798218 53.87974548 C255.74652934 53.87683264 256.65507651 53.8739198 257.59115541 53.87091869 C263.77175758 53.88587879 263.77175758 53.88587879 266 55 C266 55.66 266 56.32 266 57 C266.680625 57.2475 267.36125 57.495 268.0625 57.75 C270.97747732 58.99041588 273.58401333 60.46188256 276.30859375 62.0625 C278.10072244 63.10507804 278.10072244 63.10507804 280.5625 64 C283.69854702 65.28658339 286.28560562 66.97998558 289 69 C289 69.66 289 70.32 289 71 C287.68 71.33 286.36 71.66 285 72 C285 72.66 285 73.32 285 74 C283.845 74.4125 282.69 74.825 281.5 75.25 C277.75470962 76.64034758 274.27202182 78.32935126 270.76171875 80.23046875 C269 81 269 81 266 81 C265.67 81.99 265.34 82.98 265 84 C263.02090602 84.02686553 261.04171029 84.04633375 259.0625 84.0625 C257.96035156 84.07410156 256.85820312 84.08570313 255.72265625 84.09765625 C253 84 253 84 252 83 C251.76712992 81.31816052 251.58735834 79.6287584 251.4375 77.9375 C251.31181641 76.55884766 251.31181641 76.55884766 251.18359375 75.15234375 C251.12300781 74.44207031 251.06242187 73.73179687 251 73 C248.70366176 76.44450737 248.45983515 78.93812283 248 83 C239.26231177 83.23474386 230.74516741 82.48649556 222.0625 81.5625 C211.95461711 80.51791269 201.87375626 79.63512688 191.71313477 79.29125977 C186.18474119 79.09237059 186.18474119 79.09237059 184 78 C182.5658056 77.83585178 181.12528678 77.72520603 179.68408203 77.64282227 C178.78779083 77.58929092 177.89149963 77.53575958 176.9680481 77.48060608 C175.99117035 77.42642014 175.0142926 77.37223419 174.0078125 77.31640625 C172.48509232 77.22576149 172.48509232 77.22576149 170.93161011 77.13328552 C167.66296821 76.93888006 164.39404186 76.75005219 161.125 76.5625 C148.32375676 75.82736564 135.55699893 75.04211097 122.80329895 73.69970703 C115.9814394 72.98211664 109.15956043 72.47779138 102.3125 72.0625 C99.74991422 71.89978279 97.18741902 71.73563494 94.625 71.5703125 C93.61503716 71.50525764 93.61503716 71.50525764 92.58467102 71.43888855 C86.92915541 71.07031893 81.27697084 70.66135272 75.625 70.2421875 C74.73080856 70.17593674 73.83661713 70.10968597 72.91532898 70.04142761 C69.35752698 69.77717416 65.79979081 69.5121397 62.24234009 69.24319458 C50.16786764 68.33051844 38.09472329 67.58805055 26 67 C25.97470215 67.68594238 25.9494043 68.37188477 25.92333984 69.07861328 C25.64587967 75.13995697 24.52362763 80.63488224 20 85 C18.68 85 17.36 85 16 85 C15.875 78.25 15.875 78.25 17 76 C15.865625 75.896875 14.73125 75.79375 13.5625 75.6875 C8.80059354 75.1575581 4.09369643 74.38294283 -0.625 73.5625 C-1.69899048 73.37917114 -1.69899048 73.37917114 -2.79467773 73.19213867 C-14.56228698 71.10593309 -14.56228698 71.10593309 -18.4375 68.125 C-20.89660182 63.20679637 -20.89235989 58.38341706 -20 53 C-18.57987572 50.63630321 -16.91882934 49.01723084 -15 47 C-15.1825534 42.58220767 -17.04252949 40.39231241 -20 37.25 C-20.81339844 36.38246094 -21.62679687 35.51492188 -22.46484375 34.62109375 C-23.30144531 33.75613281 -24.13804687 32.89117187 -25 32 C-25.76441406 31.20722656 -26.52882812 30.41445313 -27.31640625 29.59765625 C-30.77904851 26.07479412 -34.29787147 22.6984637 -38.0625 19.5 C-42.48150279 15.72117468 -46.23377422 11.41730204 -50 7 C-49.67 6.01 -49.34 5.02 -49 4 C-32.773594 0.303727 -16.58725874 -0.0897471 0 0 Z " fill="#F9F9F9" transform="translate(226,287)"/>
<path d="M0 0 C4.79321746 4.1975021 8.67771758 9.31437852 9.8125 15.6875 C10.53830758 28.93770819 9.69269754 45.98572348 0.8125 56.6875 C-1.125 56.3125 -1.125 56.3125 -3.1875 55.6875 C-4.60716132 52.84817735 -4.46428988 50.83982924 -4.1875 47.6875 C-2.65625 44.984375 -2.65625 44.984375 -0.6875 42.4375 C1.9615424 39.38424999 1.9615424 39.38424999 2.8125 35.6875 C1.9875 35.1925 1.1625 34.6975 0.3125 34.1875 C-0.5125 33.6925 -1.3375 33.1975 -2.1875 32.6875 C-2.1875 32.0275 -2.1875 31.3675 -2.1875 30.6875 C-5.1575 30.3575 -8.1275 30.0275 -11.1875 29.6875 C-11.1875 31.9975 -11.1875 34.3075 -11.1875 36.6875 C-8.8775 37.6775 -6.5675 38.6675 -4.1875 39.6875 C-4.52306248 43.26683308 -5.64641797 45.52782054 -7.625 48.4375 C-9.54217576 51.34594277 -10.54315756 53.63205392 -11.125 57.0625 C-11.97893569 61.86277925 -14.18643694 65.30992336 -16.7890625 69.37890625 C-18.40231972 72.04213255 -19.39602188 74.67988315 -20.1875 77.6875 C-22.5625 77.4375 -22.5625 77.4375 -25.1875 76.6875 C-26.5 74.625 -26.5 74.625 -27.1875 72.6875 C-27.8475 72.6875 -28.5075 72.6875 -29.1875 72.6875 C-29.1875 69.6875 -29.1875 69.6875 -27.6875 68 C-27.1925 67.566875 -26.6975 67.13375 -26.1875 66.6875 C-29.6525 67.1825 -29.6525 67.1825 -33.1875 67.6875 C-35.52659307 64.1788604 -35.60041057 62.81660567 -35.1875 58.6875 C-34.1875 57.02083333 -33.1875 55.35416667 -32.1875 53.6875 C-31.89318612 50.08215502 -32.26363292 47.15200154 -33.1875 43.6875 C-37.75602381 42.84969861 -41.64814822 42.59386079 -46.1875 43.6875 C-50.50256856 47.11666681 -53.27414003 52.08994614 -56.1875 56.6875 C-58.1875 58.6875 -58.1875 58.6875 -61.3125 59.125 C-68.76159061 58.28397364 -73.65534211 53.5472366 -78.83984375 48.43359375 C-80.31880641 46.51737256 -80.77859409 45.05294308 -81.1875 42.6875 C-79.40121169 41.01472165 -77.6089925 39.34925557 -75.8125 37.6875 C-75.30460937 37.21054688 -74.79671875 36.73359375 -74.2734375 36.2421875 C-70.4140625 32.6875 -70.4140625 32.6875 -68.1875 32.6875 C-68.21070313 31.7696875 -68.23390625 30.851875 -68.2578125 29.90625 C-68.42218407 18.72898308 -67.88062794 11.20993302 -60.1875 2.6875 C-45.07061707 -12.67208518 -17.05036681 -12.30788068 0 0 Z " fill="#FAFAFA" transform="translate(377.1875,139.3125)"/>
<path d="M0 0 C0 0.66 0 1.32 0 2 C0.5775 2.20625 1.155 2.4125 1.75 2.625 C4.94852922 4.57965675 6.18104104 6.7296243 8 10 C8.41724643 12.80274497 8.6224338 15.09137137 8.5625 17.875 C8.54823975 18.93618042 8.54823975 18.93618042 8.53369141 20.01879883 C8.25619206 26.97633305 6.25611616 30.70126452 1.5078125 35.51171875 C-4.85834351 41.26764737 -11.08604009 41.43404707 -19.3125 41.265625 C-24.60946012 40.88406431 -28.28452895 39.35773553 -33 37 C-32.67 35.68 -32.34 34.36 -32 33 C-33.65 33 -35.3 33 -37 33 C-39.77919862 25.07597536 -41.9805412 17.71233334 -38.3125 9.75 C-30.29341286 -4.38153817 -14.03514391 -7.01757196 0 0 Z " fill="#070707" transform="translate(482,231)"/>
<path d="M0 0 C4.57149757 -0.07457894 9.14263509 -0.12880276 13.71459961 -0.16479492 C15.2673968 -0.17981105 16.82015209 -0.20023028 18.37280273 -0.22631836 C20.61452624 -0.26302073 22.85568539 -0.27979787 25.09765625 -0.29296875 C25.78336197 -0.30845261 26.46906769 -0.32393646 27.17555237 -0.33988953 C32.86080796 -0.34184094 37.5775892 0.88223316 41.92578125 4.68359375 C42.61220703 5.55177734 42.61220703 5.55177734 43.3125 6.4375 C43.78300781 7.01371094 44.25351562 7.58992187 44.73828125 8.18359375 C48.88299693 14.15044449 48.68849919 19.88550837 48 27 C46.43173178 32.39992894 43.77073472 35.96407791 39 39 C37.94296875 39.6909375 36.8859375 40.381875 35.796875 41.09375 C29.47105566 44.22634424 22.37522145 43.42115394 15.5 43.25 C14.09117126 43.22990166 12.68231479 43.21165678 11.2734375 43.1953125 C7.84824336 43.14839203 4.42448476 43.08274777 1 43 C1 42.34 1 41.68 1 41 C2.32 41 3.64 41 5 41 C4.95875 39.88625 4.9175 38.7725 4.875 37.625 C5 34 5 34 7 32 C8.32 32 9.64 32 11 32 C10.67 31.34 10.34 30.68 10 30 C8.68 29.67 7.36 29.34 6 29 C5.67 20.42 5.34 11.84 5 3 C3.35 2.67 1.7 2.34 0 2 C0 1.34 0 0.68 0 0 Z " fill="#090909" transform="translate(286,229)"/>
<path d="M0 0 C0.66 0 1.32 0 2 0 C4.35944385 5.25331593 6.65953247 10.52720792 8.91015625 15.828125 C9.68262695 17.64570313 9.68262695 17.64570313 10.47070312 19.5 C11.27106776 21.38402238 12.07030566 23.26848896 12.86645508 25.15429688 C13.64846859 27.00534076 14.43550581 28.85425973 15.22265625 30.703125 C15.68422119 31.79270508 16.14578613 32.88228516 16.62133789 34.00488281 C19.4283748 40.24349145 19.4283748 40.24349145 25 44 C20.05 44 15.1 44 10 44 C9.54427083 42.07942708 9.08854167 40.15885417 8.6328125 38.23828125 C7.93432656 35.76771061 6.9535127 33.38378175 6 31 C1.38 31 -3.24 31 -8 31 C-8.495 32.258125 -8.99 33.51625 -9.5 34.8125 C-9.7784375 35.52019531 -10.056875 36.22789062 -10.34375 36.95703125 C-11.1529162 39.11841216 -11.1529162 39.11841216 -11 42 C-10.34 42.66 -9.68 43.32 -9 44 C-11.89740622 44.13539281 -14.78845621 44.23426829 -17.6875 44.3125 C-18.50412109 44.35439453 -19.32074219 44.39628906 -20.16210938 44.43945312 C-24.40391146 44.52531956 -26.35353786 44.4979019 -29.8046875 41.83984375 C-30.52914063 40.90269531 -31.25359375 39.96554687 -32 39 C-32.74121094 38.05640625 -33.48242188 37.1128125 -34.24609375 36.140625 C-35.71110434 34.20816896 -37.16941779 32.27061806 -38.62109375 30.328125 C-41.17733893 27.38211677 -41.17733893 27.38211677 -47 27 C-46.67 32.28 -46.34 37.56 -46 43 C-44.68 43.33 -43.36 43.66 -42 44 C-47.61 44 -53.22 44 -59 44 C-58.01 43.34 -57.02 42.68 -56 42 C-55.26656572 38.93443402 -55.26656572 38.93443402 -55 36 C-53.515 35.505 -53.515 35.505 -52 35 C-52.99 34.34 -53.98 33.68 -55 33 C-55.43237305 30.11083984 -55.43237305 30.11083984 -55.51171875 26.4609375 C-55.54716797 25.15898437 -55.58261719 23.85703125 -55.61914062 22.515625 C-55.64224231 21.13542191 -55.66502464 19.75521343 -55.6875 18.375 C-55.72066445 16.98694648 -55.7551533 15.59892393 -55.79101562 14.2109375 C-55.87374115 10.80737293 -55.94281257 7.4040741 -56 4 C-57.32 3.67 -58.64 3.34 -60 3 C-60 2.34 -60 1.68 -60 1 C-56.12525543 0.88331786 -52.25096604 0.81258769 -48.375 0.75 C-46.73337891 0.69972656 -46.73337891 0.69972656 -45.05859375 0.6484375 C-38.69296657 0.57127838 -34.81670573 0.67936695 -30 5 C-27.65141908 7.34858092 -27.65647479 7.9757732 -27.5625 11.1875 C-27.65703868 16.49885516 -29.50756385 19.09179764 -33 23 C-33.66 23 -34.32 23 -35 23 C-32.65637833 27.26113031 -29.82402275 30.6872121 -26.5625 34.25 C-26.08490234 34.79140625 -25.60730469 35.3328125 -25.11523438 35.890625 C-21.71683271 39.65179012 -21.71683271 39.65179012 -17 41 C-16.4121875 39.14375 -16.4121875 39.14375 -15.8125 37.25 C-13.86118823 31.36792078 -11.43753821 25.69401218 -9 20 C-7.68 20 -6.36 20 -5 20 C-5.33 21.98 -5.66 23.96 -6 26 C-2.7 26 0.6 26 4 26 C3.71125 25.22914063 3.4225 24.45828125 3.125 23.6640625 C2.75375 22.66117187 2.3825 21.65828125 2 20.625 C1.62875 19.62726563 1.2575 18.62953125 0.875 17.6015625 C0 15 0 15 0 13 C-0.66 13 -1.32 13 -2 13 C-2.33 14.98 -2.66 16.96 -3 19 C-4.32 18.67 -5.64 18.34 -7 18 C-6.44380331 13.3110507 -5.11817327 9.80075733 -2.9375 5.625 C-2.38964844 4.56539063 -1.84179688 3.50578125 -1.27734375 2.4140625 C-0.85582031 1.61742187 -0.43429687 0.82078125 0 0 Z " fill="#E6E6E6" transform="translate(336,284)"/>
<path d="M0 0 C3 1 3 1 4.36279297 3.50927734 C4.81799316 4.6070752 5.27319336 5.70487305 5.7421875 6.8359375 C6.25136719 8.04636719 6.76054687 9.25679687 7.28515625 10.50390625 C7.81552798 11.79409669 8.34547373 13.08446233 8.875 14.375 C9.39609734 15.62673474 9.91822244 16.87804215 10.44140625 18.12890625 C10.82610077 19.04944794 10.82610077 19.04944794 11.21856689 19.98858643 C11.98704997 21.82366945 12.75865159 23.6574455 13.53027344 25.49121094 C14.47767687 27.75301861 15.40928187 30.02154093 16.32128906 32.29785156 C16.7334668 33.28495117 17.14564453 34.27205078 17.5703125 35.2890625 C17.92109863 36.1548291 18.27188477 37.0205957 18.63330078 37.91259766 C20.3780618 40.57742558 22.00331919 41.09956254 25 42 C25 42.66 25 43.32 25 44 C20.05 44 15.1 44 10 44 C9.505 40.535 9.505 40.535 9 37 C8.3530635 35.3255761 7.69040574 33.65697379 7 32 C7 31.01 7 30.02 7 29 C2.05 29 -2.9 29 -8 29 C-8.99 32.96 -9.98 36.92 -11 41 C-10.01 41 -9.02 41 -8 41 C-8 41.99 -8 42.98 -8 44 C-22.19 44 -36.38 44 -51 44 C-51 43.34 -51 42.68 -51 42 C-49.515 41.505 -49.515 41.505 -48 41 C-47.67 28.46 -47.34 15.92 -47 3 C-48.65 3 -50.3 3 -52 3 C-52 2.34 -52 1.68 -52 1 C-46.06 1 -40.12 1 -34 1 C-37 3 -37 3 -39 3 C-39.02688151 4.64574566 -39.04634123 6.29161413 -39.0625 7.9375 C-39.07410156 8.85402344 -39.08570313 9.77054688 -39.09765625 10.71484375 C-39.25949049 12.96593327 -39.25949049 12.96593327 -38 14 C-37.91262355 15.85369611 -37.89301847 17.71067541 -37.90234375 19.56640625 C-37.90556641 20.69111328 -37.90878906 21.81582031 -37.91210938 22.97460938 C-37.92048828 24.15861328 -37.92886719 25.34261719 -37.9375 26.5625 C-37.94201172 27.75037109 -37.94652344 28.93824219 -37.95117188 30.16210938 C-37.96300325 33.10812226 -37.97948713 36.05403681 -38 39 C-35.91781638 39.10832169 -33.83400871 39.18573541 -31.75 39.25 C-30.58984375 39.29640625 -29.4296875 39.3428125 -28.234375 39.390625 C-24.42333987 38.93035506 -23.34488245 37.94851556 -21 35 C-21 37.31 -21 39.62 -21 42 C-20.01 42 -19.02 42 -18 42 C-16.83605314 39.10692055 -15.69205159 36.20753493 -14.5625 33.30078125 C-14.04176046 31.97131742 -13.5209253 30.64189105 -13 29.3125 C-12.73960937 28.63638672 -12.47921875 27.96027344 -12.2109375 27.26367188 C-11.07110503 24.37091524 -10.22281814 22.22281814 -8 20 C-7.66436178 18.33379597 -7.33156198 16.66701996 -7 15 C-6.04246116 12.55174729 -5.05709678 10.15339928 -4 7.75 C-3.72671875 7.11320313 -3.4534375 6.47640625 -3.171875 5.8203125 C-1.14074248 1.14074248 -1.14074248 1.14074248 0 0 Z " fill="#FAFAFA" transform="translate(260,228)"/>
<path d="M0 0 C1.81152344 0.10620117 1.81152344 0.10620117 4 1 C5.55566406 3.7121582 5.55566406 3.7121582 7.015625 7.30078125 C7.27631775 7.93356491 7.5370105 8.56634857 7.80560303 9.2183075 C8.35388773 10.55787748 8.89475005 11.90050592 9.42871094 13.24584961 C10.24535705 15.30081671 11.08530738 17.34496656 11.9296875 19.38867188 C16 29.39809975 16 29.39809975 16 34 C15.01 34 14.02 34 13 34 C13 34.66 13 35.32 13 36 C13.763125 35.9175 14.52625 35.835 15.3125 35.75 C18 36 18 36 19.8125 37.875 C21 40 21 40 21 42 C22.65 42 24.3 42 26 42 C26 42.66 26 43.32 26 44 C21.05 44 16.1 44 11 44 C9.68 39.38 8.36 34.76 7 30 C0.07 29.505 0.07 29.505 -7 29 C-7.99 33.29 -8.98 37.58 -10 42 C-9.01 42 -8.02 42 -7 42 C-7 42.66 -7 43.32 -7 44 C-17.89 44 -28.78 44 -40 44 C-40 43.34 -40 42.68 -40 42 C-38.515 41.505 -38.515 41.505 -37 41 C-36.67 34.73 -36.34 28.46 -36 22 C-34.35 21.34 -32.7 20.68 -31 20 C-30.67 19.34 -30.34 18.68 -30 18 C-31.98 17.67 -33.96 17.34 -36 17 C-36.03738281 16.01257813 -36.07476562 15.02515625 -36.11328125 14.0078125 C-36.17902344 12.72648438 -36.24476563 11.44515625 -36.3125 10.125 C-36.37050781 8.84882813 -36.42851562 7.57265625 -36.48828125 6.2578125 C-36.65714844 5.18273437 -36.82601563 4.10765625 -37 3 C-37.99 2.34 -38.98 1.68 -40 1 C-34.72 1 -29.44 1 -24 1 C-25.485 2.485 -25.485 2.485 -27 4 C-27.26163168 6.87082157 -27.34888634 9.51986493 -27.29296875 12.38671875 C-27.28872391 13.20372757 -27.28447906 14.02073639 -27.28010559 14.86250305 C-27.26331691 17.47117107 -27.22566519 20.07906562 -27.1875 22.6875 C-27.17245337 24.45636905 -27.15876492 26.22525021 -27.14648438 27.99414062 C-27.11341286 32.32972496 -27.0616299 36.66473136 -27 41 C-24.03 41 -21.06 41 -18 41 C-13.3617797 32.09811285 -9.40498188 23.03868474 -5.625 13.75 C-5.07463929 12.40737962 -4.52386012 11.06493069 -3.97265625 9.72265625 C-2.64362931 6.48372415 -1.32020442 3.24253991 0 0 Z " fill="#DDDDDD" transform="translate(379,228)"/>
<path d="M0 0 C4.20796686 -0.14570522 8.41528166 -0.23421087 12.625 -0.3125 C13.81480469 -0.35439453 15.00460937 -0.39628906 16.23046875 -0.43945312 C26.12704766 -0.5776735 26.12704766 -0.5776735 29.796875 2.2109375 C32.77212693 5.97747984 32.74455737 7.9349141 32.46875 12.5546875 C31.76244031 16.23926973 30.45870287 18.17972318 28 21 C27.34 21.33 26.68 21.66 26 22 C27.00313062 24.23775292 27.84476835 25.8507388 29.625 27.5625 C31 29 31 29 31 32 C29.02 32.66 27.04 33.32 25 34 C24.63648438 33.43410156 24.27296875 32.86820312 23.8984375 32.28515625 C23.39570312 31.55167969 22.89296875 30.81820313 22.375 30.0625 C21.88773438 29.33160156 21.40046875 28.60070312 20.8984375 27.84765625 C18.70900326 25.36550789 18.70900326 25.36550789 13 25 C13.33 29.95 13.66 34.9 14 40 C15.65 40.33 17.3 40.66 19 41 C19 41.66 19 42.32 19 43 C13.06 43 7.12 43 1 43 C1 42.34 1 41.68 1 41 C2.32 41 3.64 41 5 41 C5 28.46 5 15.92 5 3 C3.35 2.67 1.7 2.34 0 2 C0 1.34 0 0.68 0 0 Z " fill="#E2E2E2" transform="translate(494,229)"/>
<path d="M0 0 C4.57149757 -0.07457894 9.14263509 -0.12880276 13.71459961 -0.16479492 C15.2673968 -0.17981105 16.82015209 -0.20023028 18.37280273 -0.22631836 C20.61452624 -0.26302073 22.85568539 -0.27979787 25.09765625 -0.29296875 C25.78336197 -0.30845261 26.46906769 -0.32393646 27.17555237 -0.33988953 C32.86080796 -0.34184094 37.5775892 0.88223316 41.92578125 4.68359375 C42.61220703 5.55177734 42.61220703 5.55177734 43.3125 6.4375 C43.78300781 7.01371094 44.25351562 7.58992187 44.73828125 8.18359375 C48.88299693 14.15044449 48.68849919 19.88550837 48 27 C46.43173178 32.39992894 43.77073472 35.96407791 39 39 C37.94296875 39.6909375 36.8859375 40.381875 35.796875 41.09375 C29.47105566 44.22634424 22.37522145 43.42115394 15.5 43.25 C14.09117126 43.22990166 12.68231479 43.21165678 11.2734375 43.1953125 C7.84824336 43.14839203 4.42448476 43.08274777 1 43 C1 42.34 1 41.68 1 41 C2.32 41 3.64 41 5 41 C4.979375 39.865625 4.95875 38.73125 4.9375 37.5625 C5 34 5 34 6 33 C8.33297433 32.95907063 10.66705225 32.95758277 13 33 C13.28875 33.804375 13.5775 34.60875 13.875 35.4375 C14.73262568 38.1326468 14.73262568 38.1326468 17 39 C26.49326487 39.53955271 26.49326487 39.53955271 34.8125 35.75 C39.29696677 30.11238464 39.67582044 25.02853256 39 18 C38.3424115 14.83205542 37.62455207 11.81265731 36 9 C34.13350561 7.79067091 34.13350561 7.79067091 32 7 C30.80375 6.46375 29.6075 5.9275 28.375 5.375 C23.17434115 3.50028901 23.17434115 3.50028901 14 4 C13.67 12.25 13.34 20.5 13 29 C10.69 29 8.38 29 6 29 C5.67 20.42 5.34 11.84 5 3 C3.35 2.67 1.7 2.34 0 2 C0 1.34 0 0.68 0 0 Z " fill="#E4E4E4" transform="translate(286,229)"/>
<path d="M0 0 C0 0.66 0 1.32 0 2 C0.5775 2.20625 1.155 2.4125 1.75 2.625 C4.94852922 4.57965675 6.18104104 6.7296243 8 10 C8.41724643 12.80274497 8.6224338 15.09137137 8.5625 17.875 C8.54823975 18.93618042 8.54823975 18.93618042 8.53369141 20.01879883 C8.25619206 26.97633305 6.25611616 30.70126452 1.5078125 35.51171875 C-4.85834351 41.26764737 -11.08604009 41.43404707 -19.3125 41.265625 C-24.60946012 40.88406431 -28.28452895 39.35773553 -33 37 C-32.3125 35.0625 -32.3125 35.0625 -31 33 C-28.6875 31.9375 -28.6875 31.9375 -26 32 C-25.278125 32.78375 -24.55625 33.5675 -23.8125 34.375 C-20.3147027 37.63961081 -18.09887311 37.90317394 -13.43359375 38.125 C-9.85806269 37.94134511 -7.85113788 37.17229552 -5 35 C-0.60939462 29.68505664 -0.44578152 24.94733606 -0.6796875 18.1640625 C-1.24728204 12.55733597 -2.35217175 8.56744639 -6.5625 4.5625 C-10.14074822 2.26875114 -12.07045 1.84120129 -16.3125 1.8125 C-17.72982422 1.79123047 -17.72982422 1.79123047 -19.17578125 1.76953125 C-22.30768631 2.02510856 -24.27953731 2.40964576 -27 4 C-30.05480899 8.50916371 -30.35827845 12.19730296 -30.25 17.5625 C-30.23453125 18.84253906 -30.2190625 20.12257812 -30.203125 21.44140625 C-30.0333264 24.41614714 -29.68796246 27.10944807 -29 30 C-32 32 -32 32 -34.5 32.125 C-37 31 -37 31 -38.8125 27.5 C-40.73049901 21.32712962 -41.06315076 15.69856181 -38.3125 9.75 C-30.29341286 -4.38153817 -14.03514391 -7.01757196 0 0 Z " fill="#F2F2F2" transform="translate(482,231)"/>
<path d="M0 0 C0 0.99 0 1.98 0 3 C-1.09699219 3.07476562 -2.19398438 3.14953125 -3.32421875 3.2265625 C-4.77877599 3.35794186 -6.2331971 3.49083455 -7.6875 3.625 C-8.7693457 3.69267578 -8.7693457 3.69267578 -9.87304688 3.76171875 C-13.87906411 4.16414971 -16.25063666 4.74096737 -18.95703125 7.8359375 C-21.17280833 11.21881791 -21.17280833 11.21881791 -22 15 C-22.09023438 15.81855469 -22.18046875 16.63710938 -22.2734375 17.48046875 C-22.53502501 24.45278202 -21.38534924 29.46061148 -17 35 C-11.7032611 39.50325855 -5.93481664 39.11784488 0.73046875 39.23046875 C3.28150458 39.15018615 3.28150458 39.15018615 6 37 C7.19232613 34.94996045 7.19232613 34.94996045 8 33 C8.33 33 8.66 33 9 33 C9.25 40.625 9.25 40.625 7 44 C5.17163086 44.38818359 5.17163086 44.38818359 2.96484375 44.3984375 C1.74958008 44.40423828 1.74958008 44.40423828 0.50976562 44.41015625 C-0.33908203 44.39855469 -1.18792969 44.38695312 -2.0625 44.375 C-2.88427734 44.38660156 -3.70605469 44.39820313 -4.55273438 44.41015625 C-12.11412159 44.37446127 -19.92157043 42.97575552 -25.6484375 37.6328125 C-30.30280575 32.00990519 -32.89941711 25.78553558 -32.484375 18.453125 C-31.36918418 12.80522312 -28.39371349 8.02101959 -24.25 4.0625 C-16.75505713 -0.69390605 -8.63721928 -0.26306252 0 0 Z " fill="#ECECEC" transform="translate(388,285)"/>
<path d="M0 0 C1.36067544 0.00502513 2.72135267 0.00958624 4.08203125 0.01367188 C7.38806725 0.02539541 10.69401001 0.04180573 14 0.0625 C13.67 2.7025 13.34 5.3425 13 8.0625 C12.34 8.0625 11.68 8.0625 11 8.0625 C10.505 6.5775 10.505 6.5775 10 5.0625 C4.555 4.5675 4.555 4.5675 -1 4.0625 C-1 9.0125 -1 13.9625 -1 19.0625 C5.435 18.5675 5.435 18.5675 12 18.0625 C12 20.7025 12 23.3425 12 26.0625 C11.41798828 25.34126953 11.41798828 25.34126953 10.82421875 24.60546875 C8.45911353 22.60500502 6.87308547 22.57373932 3.8125 22.375 C2.91144531 22.30925781 2.01039063 22.24351562 1.08203125 22.17578125 C0.39496094 22.13839844 -0.29210937 22.10101563 -1 22.0625 C-1 24.7025 -1 27.3425 -1 30.0625 C-3.64 30.0625 -6.28 30.0625 -9 30.0625 C-9.33 21.1525 -9.66 12.2425 -10 3.0625 C-11.65 2.7325 -13.3 2.4025 -15 2.0625 C-15.33 5.3625 -15.66 8.6625 -16 12.0625 C-16.66 12.0625 -17.32 12.0625 -18 12.0625 C-18.268125 11.299375 -18.53625 10.53625 -18.8125 9.75 C-19.80853525 7.05842628 -19.80853525 7.05842628 -21.625 5.4375 C-22.07875 4.98375 -22.5325 4.53 -23 4.0625 C-23 3.0725 -23 2.0825 -23 1.0625 C-15.34125934 -0.17813784 -7.74288354 -0.04929358 0 0 Z " fill="#F4F4F4" transform="translate(413,284.9375)"/>
<path d="M0 0 C0.66 0 1.32 0 2 0 C4.35944385 5.25331593 6.65953247 10.52720792 8.91015625 15.828125 C9.42513672 17.03984375 9.94011719 18.2515625 10.47070312 19.5 C11.27106776 21.38402238 12.07030566 23.26848896 12.86645508 25.15429688 C13.64846859 27.00534076 14.43550581 28.85425973 15.22265625 30.703125 C15.68422119 31.79270508 16.14578613 32.88228516 16.62133789 34.00488281 C19.4283748 40.24349145 19.4283748 40.24349145 25 44 C20.05 44 15.1 44 10 44 C9.71125 42.824375 9.4225 41.64875 9.125 40.4375 C8.16686279 36.5981073 7.10794489 32.7986682 6 29 C1.71 29 -2.58 29 -7 29 C-6.67 28.34 -6.34 27.68 -6 27 C-2.7 27 0.6 27 4 27 C3.71125 26.15695312 3.4225 25.31390625 3.125 24.4453125 C2.75375 23.34960938 2.3825 22.25390625 2 21.125 C1.62875 20.03445313 1.2575 18.94390625 0.875 17.8203125 C0 15 0 15 0 13 C-0.66 13 -1.32 13 -2 13 C-2.33 14.98 -2.66 16.96 -3 19 C-4.32 18.67 -5.64 18.34 -7 18 C-6.44380331 13.3110507 -5.11817327 9.80075733 -2.9375 5.625 C-2.38964844 4.56539063 -1.84179688 3.50578125 -1.27734375 2.4140625 C-0.85582031 1.61742187 -0.43429687 0.82078125 0 0 Z " fill="#EBEBEB" transform="translate(336,284)"/>
<path d="M0 0 C3 1 3 1 4.36279297 3.50927734 C4.81799316 4.6070752 5.27319336 5.70487305 5.7421875 6.8359375 C6.25136719 8.04636719 6.76054687 9.25679687 7.28515625 10.50390625 C7.81552798 11.79409669 8.34547373 13.08446233 8.875 14.375 C9.39609734 15.62673474 9.91822244 16.87804215 10.44140625 18.12890625 C10.82610077 19.04944794 10.82610077 19.04944794 11.21856689 19.98858643 C11.98704997 21.82366945 12.75865159 23.6574455 13.53027344 25.49121094 C14.47767687 27.75301861 15.40928187 30.02154093 16.32128906 32.29785156 C16.93955566 33.77850098 16.93955566 33.77850098 17.5703125 35.2890625 C17.92109863 36.1548291 18.27188477 37.0205957 18.63330078 37.91259766 C20.3780618 40.57742558 22.00331919 41.09956254 25 42 C25 42.66 25 43.32 25 44 C20.05 44 15.1 44 10 44 C9.67 41.69 9.34 39.38 9 37 C8.29840831 34.61615473 8.29840831 34.61615473 7.4375 32.5625 C6.963125 31.386875 6.48875 30.21125 6 29 C3.36 28.67 0.72 28.34 -2 28 C-2 27.67 -2 27.34 -2 27 C0.31 27 2.62 27 5 27 C3.35 22.71 1.7 18.42 0 14 C-0.66 15.32 -1.32 16.64 -2 18 C-2.99 18.66 -3.98 19.32 -5 20 C-5.33 19.67 -5.66 19.34 -6 19 C-5.76491154 11.59471354 -3.62494571 6.40719187 0 0 Z " fill="#EAEAEA" transform="translate(260,228)"/>
<path d="M0 0 C0 3.96 0 7.92 0 12 C-0.66 12 -1.32 12 -2 12 C-2.3403125 10.8553125 -2.3403125 10.8553125 -2.6875 9.6875 C-4.29892715 6.38791107 -5.72309327 5.56043177 -9 4 C-13.92046065 2.52071439 -18.92643897 2.22000261 -24 3 C-27.48851671 4.97865258 -30.19766046 7.39532092 -32 11 C-32.08342159 12.44848582 -32.10732861 13.90070869 -32.09765625 15.3515625 C-32.09443359 16.20234375 -32.09121094 17.053125 -32.08789062 17.9296875 C-32.07951172 18.81914062 -32.07113281 19.70859375 -32.0625 20.625 C-32.05798828 21.5221875 -32.05347656 22.419375 -32.04882812 23.34375 C-32.03702591 25.56256648 -32.02056155 27.78125018 -32 30 C-35.96 30.495 -35.96 30.495 -40 31 C-43.15773701 25.74134925 -42.7771667 19.91895709 -42 14 C-39.61197045 7.98602852 -35.59797678 4.15878607 -30.125 0.875 C-21.11404885 -2.83539165 -9.42339619 -1.50774339 0 0 Z " fill="#EAEAEA" transform="translate(203,229)"/>
<path d="M0 0 C4.95 0 9.9 0 15 0 C15 0.66 15 1.32 15 2 C12.69 2 10.38 2 8 2 C8 8.6 8 15.2 8 22 C8.99 22.33 9.98 22.66 11 23 C10.01 23.33 9.02 23.66 8 24 C8.33 29.61 8.66 35.22 9 41 C10.32 41.33 11.64 41.66 13 42 C7.39 42 1.78 42 -4 42 C-3.01 41.34 -2.02 40.68 -1 40 C-0.26656572 36.93443402 -0.26656572 36.93443402 0 34 C1.485 33.505 1.485 33.505 3 33 C2.01 32.34 1.02 31.68 0 31 C-0.34057617 27.92724609 -0.34057617 27.92724609 -0.29296875 24.0234375 C-0.28872391 23.33819 -0.28447906 22.6529425 -0.28010559 21.94692993 C-0.26329753 19.75588871 -0.22564405 17.56576368 -0.1875 15.375 C-0.17245579 13.89063827 -0.15876693 12.40626215 -0.14648438 10.921875 C-0.11593687 7.28061214 -0.057227 3.64133277 0 0 Z " fill="#F3F3F3" transform="translate(281,286)"/>
<path d="M0 0 C4.95 0 9.9 0 15 0 C15 0.33 15 0.66 15 1 C12.69 1 10.38 1 8 1 C8.08064635 4.2926882 8.19350279 7.58349221 8.3125 10.875 C8.33505859 11.81214844 8.35761719 12.74929687 8.38085938 13.71484375 C8.41630859 14.61074219 8.45175781 15.50664062 8.48828125 16.4296875 C8.51446533 17.25710449 8.54064941 18.08452148 8.56762695 18.93701172 C8.83096637 21.39327932 8.83096637 21.39327932 12 23 C10.68 23 9.36 23 8 23 C8.33 28.28 8.66 33.56 9 39 C10.65 39.33 12.3 39.66 14 40 C14 40.66 14 41.32 14 42 C8.06 42 2.12 42 -4 42 C-4 41.34 -4 40.68 -4 40 C-2.68 40 -1.36 40 0 40 C0 26.8 0 13.6 0 0 Z " fill="#F2F2F2" transform="translate(499,230)"/>
<path d="M0 0 C4.28028477 4.89175402 5.75041681 10.75208407 7 17 C2.38 17 -2.24 17 -7 17 C-7.99 20.96 -8.98 24.92 -10 29 C-9.01 29 -8.02 29 -7 29 C-7 29.99 -7 30.98 -7 32 C-21.19 32 -35.38 32 -50 32 C-50 31.34 -50 30.68 -50 30 C-48.68 29.67 -47.36 29.34 -46 29 C-46 29.66 -46 30.32 -46 31 C-38.74 31 -31.48 31 -24 31 C-24 30.34 -24 29.68 -24 29 C-27.96 29 -31.92 29 -36 29 C-36.33 28.34 -36.66 27.68 -37 27 C-36.10796875 27.04640625 -35.2159375 27.0928125 -34.296875 27.140625 C-33.12640625 27.17671875 -31.9559375 27.2128125 -30.75 27.25 C-29.58984375 27.29640625 -28.4296875 27.3428125 -27.234375 27.390625 C-23.42333987 26.93035506 -22.34488245 25.94851556 -20 23 C-20 25.31 -20 27.62 -20 30 C-19.01 30 -18.02 30 -17 30 C-15.83605314 27.10692055 -14.69205159 24.20753493 -13.5625 21.30078125 C-13.04176046 19.97131742 -12.5209253 18.64189105 -12 17.3125 C-11.73960937 16.63638672 -11.47921875 15.96027344 -11.2109375 15.26367188 C-10.07110503 12.37091524 -9.22281814 10.22281814 -7 8 C-6.35232207 5.42938689 -6.35232207 5.42938689 -6 3 C-5.01 4.32 -4.02 5.64 -3 7 C-2.01 4.69 -1.02 2.38 0 0 Z " fill="#E9E9E9" transform="translate(259,240)"/>
<path d="M0 0 C-3.2830098 1.6415049 -6.42545033 0.51888624 -10 0 C-9.67 0.66 -9.34 1.32 -9 2 C-9.88042969 1.97679687 -10.76085937 1.95359375 -11.66796875 1.9296875 C-12.82941406 1.91164062 -13.99085938 1.89359375 -15.1875 1.875 C-16.33605469 1.85179687 -17.48460937 1.82859375 -18.66796875 1.8046875 C-22.06078652 2.0035631 -24.09619484 2.24467737 -27 4 C-30.05480899 8.50916371 -30.35827845 12.19730296 -30.25 17.5625 C-30.23453125 18.84253906 -30.2190625 20.12257812 -30.203125 21.44140625 C-30.0333264 24.41614714 -29.68796246 27.10944807 -29 30 C-32 32 -32 32 -34.5 32.125 C-37 31 -37 31 -38.8125 27.5 C-40.73049901 21.32712962 -41.06315076 15.69856181 -38.3125 9.75 C-30.29341286 -4.38153817 -14.03514391 -7.01757196 0 0 Z " fill="#DEDEDE" transform="translate(482,231)"/>
<path d="M0 0 C5.28 0 10.56 0 16 0 C14.515 1.485 14.515 1.485 13 3 C12.73827246 6.01296236 12.65139887 8.81480568 12.70703125 11.82421875 C12.71127609 12.68561966 12.71552094 13.54702057 12.71989441 14.43452454 C12.73668752 17.18583431 12.77434044 19.93641162 12.8125 22.6875 C12.82754604 24.5527238 12.84123459 26.41795907 12.85351562 28.28320312 C12.88659307 32.85575098 12.9383794 37.4277513 13 42 C10.03 42 7.06 42 4 42 C4 35.07 4 28.14 4 21 C5.65 20.34 7.3 19.68 9 19 C9.33 18.34 9.66 17.68 10 17 C8.02 16.67 6.04 16.34 4 16 C3.96261719 15.01257813 3.92523438 14.02515625 3.88671875 13.0078125 C3.82097656 11.72648438 3.75523437 10.44515625 3.6875 9.125 C3.62949219 7.84882813 3.57148438 6.57265625 3.51171875 5.2578125 C3.34285156 4.18273437 3.17398437 3.10765625 3 2 C2.01 1.34 1.02 0.68 0 0 Z " fill="#E5E5E5" transform="translate(339,229)"/>
<path d="M0 0 C5.94 0 11.88 0 18 0 C18 0.66 18 1.32 18 2 C16.68 2.33 15.36 2.66 14 3 C13.67 8.61 13.34 14.22 13 20 C12.34 20 11.68 20 11 20 C11 20.66 11 21.32 11 22 C1.71011935 24.2367868 -9.4162786 24.3728392 -18 20 C-18.99 19.505 -19.98 19.01 -21 18.5 C-21.66 18.005 -22.32 17.51 -23 17 C-23 16.01 -23 15.02 -23 14 C-20 12 -20 12 -17.5625 12.125 C-15 13 -15 13 -13.35546875 15.0078125 C-10.06065355 17.79447212 -6.88207977 17.66969456 -2.75 17.75 C-1.63238281 17.79447266 -1.63238281 17.79447266 -0.4921875 17.83984375 C1.33796672 17.9102343 3.16898769 17.95741832 5 18 C5.33 13.05 5.66 8.1 6 3 C3.03 2.505 3.03 2.505 0 2 C0 1.34 0 0.68 0 0 Z " fill="#E7E7E7" transform="translate(190,250)"/>
<path d="M0 0 C2.64 0 5.28 0 8 0 C8.33 9.9 8.66 19.8 9 30 C10.65 30 12.3 30 14 30 C14 30.66 14 31.32 14 32 C8.06 32 2.12 32 -4 32 C-4 31.34 -4 30.68 -4 30 C-3.01 29.67 -2.02 29.34 -1 29 C-0.67 19.43 -0.34 9.86 0 0 Z " fill="#E8E8E8" transform="translate(415,240)"/>
<path d="M0 0 C6.6 0 13.2 0 20 0 C20 0.33 20 0.66 20 1 C16.37 1 12.74 1 9 1 C8.67 9.91 8.34 18.82 8 28 C5.69 28 3.38 28 1 28 C0.67 18.76 0.34 9.52 0 0 Z " fill="#FBFBFB" transform="translate(291,230)"/>
<path d="M0 0 C6.96153846 0 6.96153846 0 11 3 C12.21977329 5.43954658 12.20153813 7.15305849 12.25 9.875 C12.28867187 11.17050781 12.28867187 11.17050781 12.328125 12.4921875 C11.90711929 15.70987396 11.53507296 16.91969204 9 19 C6.03 19 3.06 19 0 19 C0 12.73 0 6.46 0 0 Z " fill="#0C0C0C" transform="translate(507,232)"/>
<path d="M0 0 C13.2 0 26.4 0 40 0 C40 2.64 40 5.28 40 8 C39.34 8 38.68 8 38 8 C37.505 6.515 37.505 6.515 37 5 C32.71 4.34 28.42 3.68 24 3 C24 4.98 24 6.96 24 9 C21.36 9 18.72 9 16 9 C16 7.35 16 5.7 16 4 C13.89521396 4.11409682 11.79115423 4.24165361 9.6875 4.375 C7.92986328 4.47941406 7.92986328 4.47941406 6.13671875 4.5859375 C2.84300113 4.78613747 2.84300113 4.78613747 0 7 C0 4.69 0 2.38 0 0 Z " fill="#FAFAFA" transform="translate(399,229)"/>
<path d="M0 0 C6.16163774 0 6.90836217 0.02526611 11 4 C12.72872565 7.45745131 12.34301711 11.21336017 12 15 C11.0625 17.5625 11.0625 17.5625 9 19 C6.03 19 3.06 19 0 19 C0 12.73 0 6.46 0 0 Z " fill="#0B0B0B" transform="translate(289,288)"/>
<path d="M0 0 C5.94 0 11.88 0 18 0 C15 2 15 2 13 2 C12.97311849 3.64574566 12.95365877 5.29161413 12.9375 6.9375 C12.92589844 7.85402344 12.91429687 8.77054688 12.90234375 9.71484375 C12.74050951 11.96593327 12.74050951 11.96593327 14 13 C14.08713831 14.70772358 14.10700007 16.41898649 14.09765625 18.12890625 C14.09443359 19.16337891 14.09121094 20.19785156 14.08789062 21.26367188 C14.07951172 22.35228516 14.07113281 23.44089844 14.0625 24.5625 C14.05798828 25.65498047 14.05347656 26.74746094 14.04882812 27.87304688 C14.03699826 30.58208495 14.02051543 33.29101599 14 36 C13.67 36 13.34 36 13 36 C13 28.74 13 21.48 13 14 C10.69 14 8.38 14 6 14 C6 22.25 6 30.5 6 39 C5.67 39 5.34 39 5 39 C5 26.79 5 14.58 5 2 C3.35 2 1.7 2 0 2 C0 1.34 0 0.68 0 0 Z " fill="#E9E9E9" transform="translate(208,229)"/>
<path d="M0 0 C1.32 0 2.64 0 4 0 C3.67 1.98 3.34 3.96 3 6 C6.3 6 9.6 6 13 6 C13 6.33 13 6.66 13 7 C9.7 7.33 6.4 7.66 3 8 C6.96 8.33 10.92 8.66 15 9 C15 9.33 15 9.66 15 10 C10.38 10.33 5.76 10.66 1 11 C0.505 12.258125 0.01 13.51625 -0.5 14.8125 C-0.7784375 15.52019531 -1.056875 16.22789062 -1.34375 16.95703125 C-2.1529162 19.11841216 -2.1529162 19.11841216 -2 22 C-1.34 22.66 -0.68 23.32 0 24 C-5.94 24 -11.88 24 -18 24 C-18 23.67 -18 23.34 -18 23 C-15.69 23 -13.38 23 -11 23 C-11 22.34 -11 21.68 -11 21 C-10.01 21 -9.02 21 -8 21 C-7.608125 19.7625 -7.21625 18.525 -6.8125 17.25 C-4.86118823 11.36792078 -2.43753821 5.69401218 0 0 Z " fill="#D8D8D8" transform="translate(327,304)"/>
<path d="M0 0 C0.06058594 1.00160156 0.12117188 2.00320312 0.18359375 3.03515625 C0.26808405 4.37761331 0.35272768 5.72006072 0.4375 7.0625 C0.51871094 8.37347656 0.59992188 9.68445313 0.68359375 11.03515625 C0.97898249 14.73663238 1.43265388 18.33370448 2 22 C-0.97 22 -3.94 22 -7 22 C-7 15.07 -7 8.14 -7 1 C-4 0 -4 0 0 0 Z " fill="#F2F2F2" transform="translate(350,249)"/>
<path d="M0 0 C0.66 2.31 1.32 4.62 2 7 C8.73881911 7.67277818 8.73881911 7.67277818 14.625 5 C15.07875 4.34 15.5325 3.68 16 3 C16.04241723 5.33294775 16.04092937 7.66702567 16 10 C15 11 15 11 12.40795898 11.11352539 C11.28204346 11.10828857 10.15612793 11.10305176 8.99609375 11.09765625 C7.78115234 11.09443359 6.56621094 11.09121094 5.31445312 11.08789062 C4.03505859 11.07951172 2.75566406 11.07113281 1.4375 11.0625 C0.15423828 11.05798828 -1.12902344 11.05347656 -2.45117188 11.04882812 C-5.63416022 11.03699545 -8.81705762 11.02051068 -12 11 C-11.01 10.67 -10.02 10.34 -9 10 C-8.67 7.03 -8.34 4.06 -8 1 C-4 0 -4 0 0 0 Z " fill="#F4F4F4" transform="translate(412,317)"/>
<path d="M0 0 C6.75 -0.125 6.75 -0.125 9 1 C9 1.66 9 2.32 9 3 C11.475 3.99 11.475 3.99 14 5 C14 9.0384474 13.72510122 10.00426355 11.6875 13.25 C11.25824219 13.95640625 10.82898438 14.6628125 10.38671875 15.390625 C9.70029297 16.18726563 9.70029297 16.18726563 9 17 C8.01 17 7.02 17 6 17 C5.01 17.66 4.02 18.32 3 19 C3.309375 18.443125 3.61875 17.88625 3.9375 17.3125 C5.05761821 14.87459567 5.56037364 12.63775814 6 10 C3.69 9.01 1.38 8.02 -1 7 C-0.67 4.69 -0.34 2.38 0 0 Z " fill="#161616" transform="translate(366,169)"/>
<path d="M0 0 C1.36067544 0.00502513 2.72135267 0.00958624 4.08203125 0.01367188 C7.38806725 0.02539541 10.69401001 0.04180573 14 0.0625 C13.67 2.7025 13.34 5.3425 13 8.0625 C12.34 8.0625 11.68 8.0625 11 8.0625 C10.505 6.5775 10.505 6.5775 10 5.0625 C4.555 4.5675 4.555 4.5675 -1 4.0625 C-1 3.7325 -1 3.4025 -1 3.0625 C-7.93 2.5675 -7.93 2.5675 -15 2.0625 C-15.33 5.3625 -15.66 8.6625 -16 12.0625 C-16.66 12.0625 -17.32 12.0625 -18 12.0625 C-18.268125 11.299375 -18.53625 10.53625 -18.8125 9.75 C-19.80853525 7.05842628 -19.80853525 7.05842628 -21.625 5.4375 C-22.07875 4.98375 -22.5325 4.53 -23 4.0625 C-23 3.0725 -23 2.0825 -23 1.0625 C-15.34125934 -0.17813784 -7.74288354 -0.04929358 0 0 Z " fill="#AFAFAF" transform="translate(413,284.9375)"/>
<path d="M0 0 C0.33 0 0.66 0 1 0 C1 8.91 1 17.82 1 27 C3.31 27.33 5.62 27.66 8 28 C8.33 31.3 8.66 34.6 9 38 C10.32 38.33 11.64 38.66 13 39 C7.39 39 1.78 39 -4 39 C-3.01 38.34 -2.02 37.68 -1 37 C-0.26656572 33.93443402 -0.26656572 33.93443402 0 31 C0.99 30.67 1.98 30.34 3 30 C2.01 29.34 1.02 28.68 0 28 C-0.34057617 25.20263672 -0.34057617 25.20263672 -0.29296875 21.6796875 C-0.28330078 20.42285156 -0.27363281 19.16601562 -0.26367188 17.87109375 C-0.23853516 16.55238281 -0.21339844 15.23367188 -0.1875 13.875 C-0.17245483 12.53517097 -0.15876613 11.19532596 -0.14648438 9.85546875 C-0.11102872 6.56991158 -0.06160849 3.28515418 0 0 Z " fill="#E5E5E5" transform="translate(281,289)"/>
<path d="M0 0 C2.5625 0.875 2.5625 0.875 4.26953125 2.8515625 C7.35481997 5.57418525 9.76231946 5.67497994 13.8125 6.125 C15.07578125 6.27453125 16.3390625 6.4240625 17.640625 6.578125 C18.60484375 6.67609375 19.5690625 6.7740625 20.5625 6.875 C20.5625 7.205 20.5625 7.535 20.5625 7.875 C17.2625 7.875 13.9625 7.875 10.5625 7.875 C10.5625 8.535 10.5625 9.195 10.5625 9.875 C14.8525 9.875 19.1425 9.875 23.5625 9.875 C23.5625 10.205 23.5625 10.535 23.5625 10.875 C6.54590302 11.43258267 6.54590302 11.43258267 -0.4375 7.875 C-1.4275 7.38 -2.4175 6.885 -3.4375 6.375 C-4.0975 5.88 -4.7575 5.385 -5.4375 4.875 C-5.4375 3.885 -5.4375 2.895 -5.4375 1.875 C-2.4375 -0.125 -2.4375 -0.125 0 0 Z " fill="#C5C5C5" transform="translate(172.4375,262.125)"/>
<path d="M0 0 C0 3.96 0 7.92 0 12 C-0.66 12 -1.32 12 -2 12 C-2.3403125 10.8553125 -2.3403125 10.8553125 -2.6875 9.6875 C-4.32744974 6.32950767 -5.68390183 5.65804908 -9 4 C-15.90456519 2.34679425 -22.91636752 1.72221049 -30 2 C-23.77379903 -4.22620097 -8.107593 -1.29721488 0 0 Z " fill="#D3D3D3" transform="translate(203,229)"/>
<path d="M0 0 C0.33 0 0.66 0 1 0 C1 2.31 1 4.62 1 7 C3.97 7 6.94 7 10 7 C10.33 6.01 10.66 5.02 11 4 C11 4.66 11 5.32 11 6 C11.99 6 12.98 6 14 6 C14 6.99 14 7.98 14 9 C-0.19 9 -14.38 9 -29 9 C-29 8.34 -29 7.68 -29 7 C-27.68 6.67 -26.36 6.34 -25 6 C-25 6.66 -25 7.32 -25 8 C-17.74 8 -10.48 8 -3 8 C-3 7.34 -3 6.68 -3 6 C-6.96 6 -10.92 6 -15 6 C-15.33 5.34 -15.66 4.68 -16 4 C-15.09636719 4.04640625 -14.19273437 4.0928125 -13.26171875 4.140625 C-11.49248047 4.19476563 -11.49248047 4.19476563 -9.6875 4.25 C-8.51574219 4.29640625 -7.34398437 4.3428125 -6.13671875 4.390625 C-2.90370088 4.33117551 -2.90370088 4.33117551 -1.14453125 1.984375 C-0.76683594 1.32953125 -0.38914063 0.6746875 0 0 Z " fill="#B0B0B0" transform="translate(238,263)"/>
<path d="M0 0 C13.2 0 26.4 0 40 0 C40 2.64 40 5.28 40 8 C39.34 7.67 38.68 7.34 38 7 C38.33 5.02 38.66 3.04 39 1 C29.76 1.33 20.52 1.66 11 2 C13.97 2.495 13.97 2.495 17 3 C17 4.65 17 6.3 17 8 C17.99 8.33 18.98 8.66 20 9 C18.68 9 17.36 9 16 9 C16 7.35 16 5.7 16 4 C13.89521396 4.11409682 11.79115423 4.24165361 9.6875 4.375 C7.92986328 4.47941406 7.92986328 4.47941406 6.13671875 4.5859375 C2.84300113 4.78613747 2.84300113 4.78613747 0 7 C0 4.69 0 2.38 0 0 Z " fill="#BEBEBE" transform="translate(399,229)"/>
<path d="M0 0 C1.134375 0.020625 2.26875 0.04125 3.4375 0.0625 C4.4275 2.3725 5.4175 4.6825 6.4375 7.0625 C13.3675 7.5575 13.3675 7.5575 20.4375 8.0625 C20.4375 8.3925 20.4375 8.7225 20.4375 9.0625 C12.1875 9.0625 3.9375 9.0625 -4.5625 9.0625 C-4.5625 0.08004386 -4.5625 0.08004386 0 0 Z " fill="#F0F0F0" transform="translate(295.5625,261.9375)"/>
<path d="M0 0 C0.61875 0.639375 1.2375 1.27875 1.875 1.9375 C4.41000991 4.39795079 6.62826436 5.08043573 10 6 C10 6.66 10 7.32 10 8 C-1.51239296 8.7585032 -1.51239296 8.7585032 -4.9765625 6.9921875 C-6.3125 5.6875 -6.3125 5.6875 -8 3 C-8 2.01 -8 1.02 -8 0 C-4.95161632 -0.97983761 -2.99581086 -1.21704816 0 0 Z " fill="#D2D2D2" transform="translate(530,264)"/>
<path d="M0 0 C0.66 0 1.32 0 2 0 C2.67305018 1.60149886 3.33822227 3.20631029 4 4.8125 C4.37125 5.70582031 4.7425 6.59914063 5.125 7.51953125 C6 10 6 10 6 13 C2.7 13 -0.6 13 -4 13 C-3.67 11.02 -3.34 9.04 -3 7 C-4.32 6.67 -5.64 6.34 -7 6 C-6.34 5.34 -5.68 4.68 -5 4 C-3.68 4.66 -2.36 5.32 -1 6 C-0.67 4.02 -0.34 2.04 0 0 Z " fill="#222222" transform="translate(334,297)"/>
<path d="M0 0 C2.5625 0.3125 2.5625 0.3125 4.4375 1.4375 C5.5625 3.3125 5.5625 3.3125 5.375 6.4375 C5.106875 7.38625 4.83875 8.335 4.5625 9.3125 C1.77386993 10.70681504 -0.35828868 10.56910094 -3.4375 10.3125 C-5.4375 7.3125 -5.4375 7.3125 -5.1875 4.75 C-4.19253762 1.51637226 -3.41216263 0.43745675 0 0 Z " fill="#B0B0B0" transform="translate(436.4375,282.6875)"/>
<path d="M0 0 C3.44165927 4.22385456 5 7.50060584 5 13 C1.7 13 -1.6 13 -5 13 C-4.39254603 8.14036821 -2.27241033 4.2594482 0 0 Z " fill="#181818" transform="translate(379,241)"/>
<path d="M0 0 C0.33 0 0.66 0 1 0 C1.25 7.625 1.25 7.625 -1 11 C-2.97119141 11.34057617 -2.97119141 11.34057617 -5.3515625 11.29296875 C-6.20234375 11.28330078 -7.053125 11.27363281 -7.9296875 11.26367188 C-8.81914062 11.23853516 -9.70859375 11.21339844 -10.625 11.1875 C-11.5221875 11.17396484 -12.419375 11.16042969 -13.34375 11.14648438 C-15.56309789 11.11106925 -17.78125188 11.06168461 -20 11 C-20 10.67 -20 10.34 -20 10 C-16.7 9.67 -13.4 9.34 -10 9 C-14.455 8.01 -14.455 8.01 -19 7 C-14.86009768 5.96502442 -11.55549341 6.00167318 -7.33984375 6.16015625 C-4.7257147 6.17578901 -4.7257147 6.17578901 -2 4 C-0.80767387 1.94996045 -0.80767387 1.94996045 0 0 Z " fill="#C3C3C3" transform="translate(396,318)"/>
<path d="M0 0 C2.64 0 5.28 0 8 0 C8.66 1.65 9.32 3.3 10 5 C11.65 5 13.3 5 15 5 C15 5.66 15 6.32 15 7 C10.05 7 5.1 7 0 7 C0 4.69 0 2.38 0 0 Z " fill="#D7D7D7" transform="translate(390,265)"/>
<path d="M0 0 C0.33 0 0.66 0 1 0 C1 2.97 1 5.94 1 9 C4.465 8.505 4.465 8.505 8 8 C9.27861615 10.55723229 9.11336609 12.36737102 9.09765625 15.2265625 C9.09443359 16.2578125 9.09121094 17.2890625 9.08789062 18.3515625 C9.07951172 19.43179688 9.07113281 20.51203125 9.0625 21.625 C9.05798828 22.71296875 9.05347656 23.8009375 9.04882812 24.921875 C9.03701776 27.61463789 9.02054778 30.30729188 9 33 C8.67 33 8.34 33 8 33 C8 25.74 8 18.48 8 11 C5.69 11 3.38 11 1 11 C1 19.25 1 27.5 1 36 C0.67 36 0.34 36 0 36 C0 24.12 0 12.24 0 0 Z " fill="#7B7B7B" transform="translate(213,232)"/>
<path d="M0 0 C2.57075841 3.01447835 3.52207066 5.35979771 4.1875 9.25 C4.34605469 10.14203125 4.50460937 11.0340625 4.66796875 11.953125 C4.77753906 12.62859375 4.88710938 13.3040625 5 14 C2.03 14 -0.94 14 -4 14 C-3.21824485 9.15311808 -1.60155722 4.6233633 0 0 Z " fill="#121212" transform="translate(259,240)"/>
<path d="M0 0 C4.39743992 0.35654918 6.05086077 1.86059373 9 5 C11.13309192 6.23512079 11.13309192 6.23512079 13 7 C12.34 7 11.68 7 11 7 C11 7.66 11 8.32 11 9 C5.72250715 8.46148032 1.74354436 7.22656164 -3 5 C-1.125 1.125 -1.125 1.125 0 0 Z " fill="#E2E2E2" transform="translate(452,263)"/>
<path d="M0 0 C5.94 0 11.88 0 18 0 C18.495 1.485 18.495 1.485 19 3 C15.52217417 4.15927528 12.81196743 4.11313066 9.14453125 4.09765625 C8.15207649 4.09553383 8.15207649 4.09553383 7.13957214 4.09336853 C5.03050172 4.08777996 2.92153823 4.07522965 0.8125 4.0625 C-0.61913909 4.05748352 -2.05077985 4.05292087 -3.48242188 4.04882812 C-6.98831588 4.0378143 -10.4941475 4.02055755 -14 4 C-14 3.34 -14 2.68 -14 2 C-9.05 2 -4.1 2 1 2 C0.67 1.34 0.34 0.68 0 0 Z " fill="#AFAFAF" transform="translate(301,268)"/>
<path d="M0 0 C0.33 0 0.66 0 1 0 C1.04241723 2.33294775 1.04092937 4.66702567 1 7 C0 8 0 8 -2.59204102 8.11352539 C-3.71795654 8.10828857 -4.84387207 8.10305176 -6.00390625 8.09765625 C-7.21884766 8.09443359 -8.43378906 8.09121094 -9.68554688 8.08789062 C-10.96494141 8.07951172 -12.24433594 8.07113281 -13.5625 8.0625 C-14.84576172 8.05798828 -16.12902344 8.05347656 -17.45117188 8.04882812 C-20.63416022 8.03699545 -23.81705762 8.02051068 -27 8 C-26.01 7.67 -25.02 7.34 -24 7 C-23.67 6.01 -23.34 5.02 -23 4 C-23 4.99 -23 5.98 -23 7 C-19.7 6.67 -16.4 6.34 -13 6 C-13 5.67 -13 5.34 -13 5 C-11.96939453 4.96132813 -11.96939453 4.96132813 -10.91796875 4.921875 C-10.01691406 4.86515625 -9.11585938 4.8084375 -8.1875 4.75 C-7.29417969 4.70359375 -6.40085937 4.6571875 -5.48046875 4.609375 C-2.36313564 3.84354198 -1.67871312 2.64781249 0 0 Z " fill="#D3D3D3" transform="translate(427,320)"/>
<path d="M0 0 C2.31 0 4.62 0 7 0 C7 3.63 7 7.26 7 11 C6.34 11 5.68 11 5 11 C4.731875 10.236875 4.46375 9.47375 4.1875 8.6875 C3.19146475 5.99592628 3.19146475 5.99592628 1.375 4.375 C0.92125 3.92125 0.4675 3.4675 0 3 C0 2.01 0 1.02 0 0 Z " fill="#E4E4E4" transform="translate(390,286)"/>
<path d="M0 0 C0.33 0 0.66 0 1 0 C1 8.91 1 17.82 1 27 C3.31 27.33 5.62 27.66 8 28 C8 28.99 8 29.98 8 31 C3.53745281 31.36182815 3.53745281 31.36182815 1.3503418 29.8894043 C-0.62978933 27.11879595 -0.33878708 24.95731465 -0.29296875 21.58203125 C-0.28330078 20.32841797 -0.27363281 19.07480469 -0.26367188 17.78320312 C-0.23853516 16.47287109 -0.21339844 15.16253906 -0.1875 13.8125 C-0.17244967 12.47722837 -0.15876187 11.14194063 -0.14648438 9.80664062 C-0.11107694 6.53735424 -0.0616889 3.26887907 0 0 Z " fill="#838383" transform="translate(281,289)"/>
<path d="M0 0 C3.3 0 6.6 0 10 0 C10 0.33 10 0.66 10 1 C7.03 1 4.06 1 1 1 C1 5.95 1 10.9 1 16 C0.67 16 0.34 16 0 16 C0 14.02 0 12.04 0 10 C-2.64 10.33 -5.28 10.66 -8 11 C-8 10.01 -8 9.02 -8 8 C-5.36 8 -2.72 8 0 8 C0 5.36 0 2.72 0 0 Z " fill="#2B2B2B" transform="translate(412,307)"/>
<path d="M0 0 C1.50559539 1.96382007 2.89131683 3.78263366 4 6 C3.0625 8.625 3.0625 8.625 2 11 C4.97 11 7.94 11 11 11 C11.33 10.34 11.66 9.68 12 9 C12 9.99 12 10.98 12 12 C8.37 12 4.74 12 1 12 C1 10.68 1 9.36 1 8 C-0.32 8.33 -1.64 8.66 -3 9 C-2.690625 8.443125 -2.38125 7.88625 -2.0625 7.3125 C-0.94238179 4.87459567 -0.43962636 2.63775814 0 0 Z " fill="#A9A9A9" transform="translate(253,243)"/>
<path d="M0 0 C0.71220703 -0.00386719 1.42441406 -0.00773437 2.15820312 -0.01171875 C5.96030929 -0.00468433 9.49237007 0.210292 13.1875 1.125 C13.1875 1.455 13.1875 1.785 13.1875 2.125 C11.5375 2.125 9.8875 2.125 8.1875 2.125 C8.5175 3.445 8.8475 4.765 9.1875 6.125 C8.5275 6.125 7.8675 6.125 7.1875 6.125 C6.8575 4.475 6.5275 2.825 6.1875 1.125 C-0.17809573 1.61626929 -6.50514693 2.12155747 -12.8125 3.125 C-8.30292435 0.11861623 -5.30464999 -0.02834185 0 0 Z " fill="#6C6C6C" transform="translate(381.8125,283.875)"/>
<path d="M0 0 C0 2.64 0 5.28 0 8 C-0.38800781 7.51917969 -0.77601563 7.03835938 -1.17578125 6.54296875 C-3.54088647 4.54250502 -5.12691453 4.51123932 -8.1875 4.3125 C-9.08855469 4.24675781 -9.98960937 4.18101562 -10.91796875 4.11328125 C-11.60503906 4.07589844 -12.29210937 4.03851563 -13 4 C-13 3.01 -13 2.02 -13 1 C-11.02087544 0.83283412 -9.04169915 0.66628044 -7.0625 0.5 C-5.40927734 0.36078125 -5.40927734 0.36078125 -3.72265625 0.21875 C-1 0 -1 0 0 0 Z " fill="#E1E1E1" transform="translate(425,303)"/>
<path d="M0 0 C1.2375 0.1546875 1.2375 0.1546875 2.5 0.3125 C4.5 3.3125 4.5 3.3125 4.125 5.5 C3.91875 6.098125 3.7125 6.69625 3.5 7.3125 C2.84 7.3125 2.18 7.3125 1.5 7.3125 C-0.125 5.3125 -0.125 5.3125 -1.5 3.3125 C-2.16 4.6325 -2.82 5.9525 -3.5 7.3125 C-4.125 4.9375 -4.125 4.9375 -4.5 2.3125 C-2.5 0.3125 -2.5 0.3125 0 0 Z " fill="#747474" transform="translate(436.5,282.6875)"/>
<path d="M0 0 C0 1.98 0 3.96 0 6 C-0.61875 5.525625 -1.2375 5.05125 -1.875 4.5625 C-6.16105676 2.41947162 -10.26600709 2.26657436 -15 2 C-15 1.67 -15 1.34 -15 1 C-9.91913204 0.15318867 -5.15171623 -0.09038099 0 0 Z " fill="#F2F2F2" transform="translate(438,230)"/>
<path d="M0 0 C0.33 0.66 0.66 1.32 1 2 C1.99 2 2.98 2 4 2 C4 2.99 4 3.98 4 5 C-0.95 5 -5.9 5 -11 5 C-10.34 3.68 -9.68 2.36 -9 1 C-9 1.66 -9 2.32 -9 3 C-6.03 3 -3.06 3 0 3 C0 2.01 0 1.02 0 0 Z " fill="#848484" transform="translate(248,267)"/>
<path d="M0 0 C0.99 0 1.98 0 3 0 C3 0.66 3 1.32 3 2 C3.99 2.33 4.98 2.66 6 3 C0.25 7 0.25 7 -2 7 C-1.125 2.25 -1.125 2.25 0 0 Z " fill="#2F2F2F" transform="translate(411,72)"/>
<path d="M0 0 C2.64 0 5.28 0 8 0 C7.34 1.32 6.68 2.64 6 4 C4.02 4 2.04 4 0 4 C0.66 3.34 1.32 2.68 2 2 C1.34 1.34 0.68 0.68 0 0 Z " fill="#B2B2B2" transform="translate(289,307)"/>
<path d="M0 0 C0.66 0.33 1.32 0.66 2 1 C-0.97 3.97 -3.94 6.94 -7 10 C-7.33 9.34 -7.66 8.68 -8 8 C-3.375 2.25 -3.375 2.25 0 0 Z " fill="#CECECE" transform="translate(367,287)"/>
<path d="M0 0 C0.99 0.33 1.98 0.66 3 1 C3 1.99 3 2.98 3 4 C3.66 4.33 4.32 4.66 5 5 C3.02 5.99 3.02 5.99 1 7 C1 6.01 1 5.02 1 4 C0.01 4.33 -0.98 4.66 -2 5 C-2 3.68 -2 2.36 -2 1 C-1.34 0.67 -0.68 0.34 0 0 Z " fill="#292929" transform="translate(411,65)"/>
<path d="M0 0 C1.32 0.33 2.64 0.66 4 1 C3.67 1.66 3.34 2.32 3 3 C2.01 3.33 1.02 3.66 0 4 C-0.33 6.31 -0.66 8.62 -1 11 C-1.99 10.67 -2.98 10.34 -4 10 C-3.34 9.67 -2.68 9.34 -2 9 C-2.04125 8.071875 -2.0825 7.14375 -2.125 6.1875 C-2 3 -2 3 0 0 Z " fill="#C9C9C9" transform="translate(251,322)"/>
<path d="M0 0 C0.33 0.99 0.66 1.98 1 3 C1.99 3.33 2.98 3.66 4 4 C2.865625 4.12375 1.73125 4.2475 0.5625 4.375 C-1.2009375 4.684375 -1.2009375 4.684375 -3 5 C-3.33 5.66 -3.66 6.32 -4 7 C-4 6.34 -4 5.68 -4 5 C-4.66 4.67 -5.32 4.34 -6 4 C-4.02 3.34 -2.04 2.68 0 2 C0 1.34 0 0.68 0 0 Z " fill="#464646" transform="translate(525,259)"/>
<path d="M0 0 C0.33 0 0.66 0 1 0 C1 2.31 1 4.62 1 7 C-0.65 7 -2.3 7 -4 7 C-2.68 4.69 -1.36 2.38 0 0 Z " fill="#DADADA" transform="translate(427,320)"/>
<path d="M0 0 C2 3 2 3 2 7 C0 8.75 0 8.75 -2 10 C-1.54177532 6.53058454 -1.10868317 3.32604951 0 0 Z " fill="#464646" transform="translate(476,357)"/>
<path d="M0 0 C1.50559539 1.96382007 2.89131683 3.78263366 4 6 C3.34 6.66 2.68 7.32 2 8 C0.68 7.34 -0.64 6.68 -2 6 C-1.34 4.02 -0.68 2.04 0 0 Z " fill="#727272" transform="translate(253,243)"/>
<path d="M0 0 C0.66 1.32 1.32 2.64 2 4 C-1.78187881 5.83691257 -3.94568308 6.15837626 -8 5 C-7.67 4.34 -7.34 3.68 -7 3 C-5 2.66666667 -3 2.33333333 -1 2 C-0.67 1.34 -0.34 0.68 0 0 Z " fill="#3E3E3E" transform="translate(453,259)"/>
<path d="M0 0 C2.64 0 5.28 0 8 0 C8 0.66 8 1.32 8 2 C5.36 2.33 2.72 2.66 0 3 C0 2.01 0 1.02 0 0 Z " fill="#636363" transform="translate(404,315)"/>
<path d="M0 0 C1.67542976 0.28604898 3.34385343 0.61781233 5 1 C4.01 2.485 4.01 2.485 3 4 C2.67 3.34 2.34 2.68 2 2 C1.34 3.32 0.68 4.64 0 6 C-0.38218767 4.34385343 -0.71395102 2.67542976 -1 1 C-0.67 0.67 -0.34 0.34 0 0 Z " fill="#8E8E8E" transform="translate(433,284)"/>
</svg>
