<svg width="595" height="160" viewBox="0 0 595 160" fill="none" xmlns="http://www.w3.org/2000/svg">
    <path
        d="M144.797 18.2381C147 19.9998 147 19.9998 148 22.9998C147.562 25.1873 147.562 25.1873 147 26.9998C148.32 26.3398 149.64 25.6798 151 24.9998C149.787 28.7253 148.472 32.3696 147 35.9998C147.603 35.5551 148.207 35.1103 148.828 34.6521C149.627 34.0862 150.427 33.5203 151.25 32.9373C152.433 32.0846 152.433 32.0846 153.641 31.2146C156 29.9998 156 29.9998 158 30.031C160.813 31.3936 162.594 33.3115 164.75 35.5623C165.549 36.3886 166.348 37.2149 167.172 38.0662C167.775 38.7043 168.378 39.3424 169 39.9998C167.471 43.6167 165.322 45.9201 162.55 48.6765C161.629 49.5972 160.709 50.5178 159.76 51.4664C158.754 52.462 157.748 53.4575 156.742 54.4529C155.713 55.4781 154.685 56.5037 153.657 57.5297C150.955 60.2237 148.248 62.9116 145.539 65.5983C142.774 68.3431 140.014 71.0935 137.254 73.8435C131.841 79.2345 126.423 84.6191 121 89.9998C120.339 89.5881 119.677 89.1764 118.996 88.7522C118.115 88.212 117.234 87.6718 116.326 87.1153C115.459 86.5798 114.591 86.0444 113.698 85.4927C104.866 80.605 95.4336 80.5057 85.5625 80.5623C84.3295 80.5423 83.0965 80.5223 81.8262 80.5017C72.156 80.5068 62.3903 81.5063 55 88.3123C54.505 88.8447 54.01 89.377 53.5 89.9256C52 90.9998 52 90.9998 50.0469 90.8943C47.5067 89.7842 46.1413 88.3989 44.25 86.3748C41.6857 83.7117 39.1179 81.1578 36.3125 78.7498C32.7205 75.6568 29.2272 72.4703 25.75 69.2498C24.9199 68.4814 24.9199 68.4814 24.073 67.6975C22.9434 66.6516 21.8139 65.6056 20.6846 64.5593C10.4893 55.1146 10.4893 55.1146 0 45.9998C0.906534 42.0059 1.75604 39.7031 5 36.9998C8.74684 36.8702 12.3136 37.3578 16 37.9998C14.35 36.3498 12.7 34.6998 11 32.9998C15.9619 21.2186 31.6202 13.8527 42.5625 8.81228C76.4228 -4.81397 113.927 -1.2733 144.797 18.2381Z"
        fill="#FCFCFC" />
    <path
        d="M280.543 60.8321C283 66.137 285.396 71.4499 287.633 76.8517C293.066 92.7924 293.066 92.7924 303.543 104.832C303.502 103.904 303.46 102.976 303.418 102.02C303.543 98.8321 303.543 98.8321 305.543 95.8321C307.48 96.2071 307.48 96.2071 309.543 96.8321C310.827 99.3994 310.676 101.279 310.668 104.145C310.672 105.562 310.672 105.562 310.676 107.008C310.548 109.722 310.104 112.18 309.543 114.832C311.357 114.831 311.357 114.831 313.207 114.829C341.89 114.808 370.572 114.791 399.254 114.781C402.781 114.78 406.309 114.779 409.836 114.777C410.889 114.777 410.889 114.777 411.964 114.776C423.347 114.772 434.73 114.764 446.113 114.755C457.786 114.746 469.459 114.74 481.132 114.738C487.692 114.737 494.251 114.734 500.81 114.726C506.978 114.72 513.145 114.718 519.312 114.719C521.582 114.719 523.852 114.717 526.121 114.713C529.208 114.708 532.294 114.709 535.381 114.712C536.289 114.709 537.198 114.706 538.134 114.703C544.315 114.718 544.315 114.718 546.543 115.832C546.543 116.492 546.543 117.152 546.543 117.832C547.224 118.08 547.904 118.327 548.605 118.582C551.52 119.823 554.127 121.294 556.852 122.895C558.644 123.937 558.644 123.937 561.105 124.832C564.242 126.119 566.829 127.812 569.543 129.832C569.543 130.492 569.543 131.152 569.543 131.832C568.223 132.162 566.903 132.492 565.543 132.832C565.543 133.492 565.543 134.152 565.543 134.832C564.388 135.245 563.233 135.657 562.043 136.082C558.298 137.472 554.815 139.161 551.305 141.063C549.543 141.832 549.543 141.832 546.543 141.832C546.213 142.822 545.883 143.812 545.543 144.832C543.564 144.859 541.585 144.878 539.605 144.895C538.503 144.906 537.401 144.918 536.266 144.93C533.543 144.832 533.543 144.832 532.543 143.832C532.31 142.15 532.13 140.461 531.98 138.77C531.855 137.391 531.855 137.391 531.727 135.984C531.666 135.274 531.605 134.564 531.543 133.832C529.247 137.277 529.003 139.77 528.543 143.832C519.805 144.067 511.288 143.319 502.605 142.395C492.498 141.35 482.417 140.467 472.256 140.123C466.728 139.925 466.728 139.925 464.543 138.832C463.109 138.668 461.668 138.557 460.227 138.475C459.331 138.421 458.434 138.368 457.511 138.313C456.534 138.259 455.557 138.204 454.551 138.149C453.028 138.058 453.028 138.058 451.475 137.965C448.206 137.771 444.937 137.582 441.668 137.395C428.867 136.66 416.1 135.874 403.346 134.532C396.524 133.814 389.703 133.31 382.855 132.895C380.293 132.732 377.73 132.568 375.168 132.402C374.158 132.337 374.158 132.337 373.128 132.271C367.472 131.902 361.82 131.493 356.168 131.074C355.274 131.008 354.38 130.942 353.458 130.874C349.9 130.609 346.343 130.344 342.785 130.075C330.711 129.163 318.638 128.42 306.543 127.832C306.518 128.518 306.492 129.204 306.466 129.911C306.189 135.972 305.067 141.467 300.543 145.832C299.223 145.832 297.903 145.832 296.543 145.832C296.418 139.082 296.418 139.082 297.543 136.832C296.409 136.729 295.274 136.626 294.105 136.52C289.344 135.99 284.637 135.215 279.918 134.395C278.844 134.211 278.844 134.211 277.748 134.024C265.981 131.938 265.981 131.938 262.105 128.957C259.646 124.039 259.651 119.216 260.543 113.832C261.963 111.468 263.624 109.849 265.543 107.832C265.36 103.414 263.5 101.224 260.543 98.0821C259.73 97.2146 258.916 96.3471 258.078 95.4532C257.242 94.5883 256.405 93.7233 255.543 92.8321C254.779 92.0394 254.014 91.2466 253.227 90.4298C249.764 86.9069 246.245 83.5306 242.48 80.3321C238.061 76.5533 234.309 72.2494 230.543 67.8321C230.873 66.8421 231.203 65.8521 231.543 64.8321C247.769 61.1359 263.956 60.7424 280.543 60.8321Z"
        fill="#F9F9F9" />
    <path
        d="M110.188 82.0499C114.981 86.2474 118.865 91.3643 120 97.7374C120.726 110.988 119.88 128.036 111 138.737C109.062 138.362 109.062 138.362 107 137.737C105.58 134.898 105.723 132.89 106 129.737C107.531 127.034 107.531 127.034 109.5 124.487C112.149 121.434 112.149 121.434 113 117.737C112.175 117.242 111.35 116.747 110.5 116.237C109.675 115.742 108.85 115.247 108 114.737C108 114.077 108 113.417 108 112.737C105.03 112.407 102.06 112.077 99 111.737C99 114.047 99 116.357 99 118.737C101.31 119.727 103.62 120.717 106 121.737C105.664 125.317 104.541 127.578 102.562 130.487C100.645 133.396 99.6443 135.682 99.0625 139.112C98.2086 143.913 96.0011 147.36 93.3984 151.429C91.7852 154.092 90.7915 156.73 90 159.737C87.625 159.487 87.625 159.487 85 158.737C83.6875 156.675 83.6875 156.675 83 154.737C82.34 154.737 81.68 154.737 81 154.737C81 151.737 81 151.737 82.5 150.05C82.995 149.617 83.49 149.184 84 148.737C80.535 149.232 80.535 149.232 77 149.737C74.6609 146.229 74.5871 144.866 75 140.737C76 139.071 77 137.404 78 135.737C78.2943 132.132 77.9239 129.202 77 125.737C72.4315 124.9 68.5394 124.644 64 125.737C59.6849 129.167 56.9134 134.14 54 138.737C52 140.737 52 140.737 48.875 141.175C41.4259 140.334 36.5322 135.597 31.3477 130.483C29.8687 128.567 29.4089 127.103 29 124.737C30.7863 123.065 32.5785 121.399 34.375 119.737C34.8829 119.26 35.3908 118.783 35.9141 118.292C39.7734 114.737 39.7734 114.737 42 114.737C41.9768 113.82 41.9536 112.902 41.9297 111.956C41.7653 100.779 42.3069 93.2598 50 84.7374C65.1169 69.3778 93.1371 69.742 110.188 82.0499Z"
        fill="#FAFAFA" />
    <path
        d="M536.543 4.83171C536.543 5.49171 536.543 6.15171 536.543 6.83171C537.12 7.03796 537.698 7.24421 538.293 7.45671C541.491 9.41137 542.724 11.5613 544.543 14.8317C544.96 17.6345 545.165 19.9231 545.105 22.7067C545.091 23.7679 545.091 23.7679 545.076 24.8505C544.799 31.808 542.799 35.533 538.051 40.3434C531.684 46.0994 525.457 46.2658 517.23 46.0973C511.933 45.7158 508.258 44.1894 503.543 41.8317C503.873 40.5117 504.203 39.1917 504.543 37.8317C502.893 37.8317 501.243 37.8317 499.543 37.8317C496.764 29.9077 494.562 22.544 498.23 14.5817C506.249 0.450171 522.508 -2.18586 536.543 4.83171Z"
        fill="#070707" />
    <path
        d="M340.543 2.83208C345.114 2.7575 349.686 2.70328 354.258 2.66728C355.81 2.65227 357.363 2.63185 358.916 2.60576C361.157 2.56906 363.399 2.55228 365.641 2.53911C366.326 2.52363 367.012 2.50814 367.719 2.49219C373.404 2.49024 378.121 3.71431 382.469 7.51567C383.155 8.38386 383.155 8.38386 383.855 9.26958C384.326 9.84579 384.796 10.422 385.281 11.0157C389.426 16.9825 389.231 22.7176 388.543 29.8321C386.975 35.232 384.314 38.7962 379.543 41.8321C378.486 42.523 377.429 43.214 376.34 43.9258C370.014 47.0584 362.918 46.2532 356.043 46.0821C354.634 46.062 353.225 46.0437 351.816 46.0274C348.391 45.9805 344.967 45.9148 341.543 45.8321C341.543 45.1721 341.543 44.5121 341.543 43.8321C342.863 43.8321 344.183 43.8321 345.543 43.8321C345.502 42.7183 345.46 41.6046 345.418 40.4571C345.543 36.8321 345.543 36.8321 347.543 34.8321C348.863 34.8321 350.183 34.8321 351.543 34.8321C351.213 34.1721 350.883 33.5121 350.543 32.8321C349.223 32.5021 347.903 32.1721 346.543 31.8321C346.213 23.2521 345.883 14.6721 345.543 5.83208C343.893 5.50208 342.243 5.17208 340.543 4.83208C340.543 4.17208 340.543 3.51208 340.543 2.83208Z"
        fill="#090909" />
    <path
        d="M390.543 57.832C391.203 57.832 391.863 57.832 392.543 57.832C394.902 63.0853 397.203 68.3592 399.453 73.6602C400.226 75.4777 400.226 75.4777 401.014 77.332C401.814 79.2161 402.613 81.1005 403.409 82.9863C404.191 84.8374 404.978 86.6863 405.766 88.5352C406.227 89.6247 406.689 90.7143 407.164 91.8369C409.971 98.0755 409.971 98.0755 415.543 101.832C410.593 101.832 405.643 101.832 400.543 101.832C400.087 99.9115 399.632 97.9909 399.176 96.0703C398.477 93.5997 397.496 91.2158 396.543 88.832C391.923 88.832 387.303 88.832 382.543 88.832C382.048 90.0902 381.553 91.3483 381.043 92.6445C380.765 93.3522 380.486 94.0599 380.199 94.7891C379.39 96.9504 379.39 96.9504 379.543 99.832C380.203 100.492 380.863 101.152 381.543 101.832C378.646 101.967 375.755 102.066 372.855 102.145C372.039 102.186 371.222 102.228 370.381 102.271C366.139 102.357 364.189 102.33 360.738 99.6719C360.014 98.7347 359.289 97.7976 358.543 96.832C357.802 95.8884 357.061 94.9448 356.297 93.9727C354.832 92.0402 353.374 90.1026 351.922 88.1602C349.366 85.2141 349.366 85.2141 343.543 84.832C343.873 90.112 344.203 95.392 344.543 100.832C345.863 101.162 347.183 101.492 348.543 101.832C342.933 101.832 337.323 101.832 331.543 101.832C332.533 101.172 333.523 100.512 334.543 99.832C335.276 96.7665 335.276 96.7665 335.543 93.832C337.028 93.337 337.028 93.337 338.543 92.832C337.553 92.172 336.563 91.512 335.543 90.832C335.111 87.9429 335.111 87.9429 335.031 84.293C334.996 82.991 334.96 81.6891 334.924 80.3477C334.901 78.9675 334.878 77.5872 334.855 76.207C334.822 74.819 334.788 73.431 334.752 72.043C334.669 68.6394 334.6 65.2361 334.543 61.832C333.223 61.502 331.903 61.172 330.543 60.832C330.543 60.172 330.543 59.512 330.543 58.832C334.418 58.7153 338.292 58.6446 342.168 58.582C343.81 58.5318 343.81 58.5318 345.484 58.4805C351.85 58.4033 355.726 58.5114 360.543 62.832C362.892 65.1806 362.886 65.8078 362.98 69.0195C362.886 74.3309 361.035 76.9238 357.543 80.832C356.883 80.832 356.223 80.832 355.543 80.832C357.887 85.0932 360.719 88.5192 363.98 92.082C364.458 92.6234 364.936 93.1648 365.428 93.7227C368.826 97.4838 368.826 97.4838 373.543 98.832C374.131 96.9758 374.131 96.9758 374.73 95.082C376.682 89.2 379.105 83.526 381.543 77.832C382.863 77.832 384.183 77.832 385.543 77.832C385.213 79.812 384.883 81.792 384.543 83.832C387.843 83.832 391.143 83.832 394.543 83.832C394.254 83.0612 393.965 82.2903 393.668 81.4961C393.297 80.4932 392.925 79.4903 392.543 78.457C392.172 77.4593 391.8 76.4616 391.418 75.4336C390.543 72.832 390.543 72.832 390.543 70.832C389.883 70.832 389.223 70.832 388.543 70.832C388.213 72.812 387.883 74.792 387.543 76.832C386.223 76.502 384.903 76.172 383.543 75.832C384.099 71.1431 385.425 67.6328 387.605 63.457C388.153 62.3974 388.701 61.3378 389.266 60.2461C389.687 59.4495 390.109 58.6528 390.543 57.832Z"
        fill="#E6E6E6" />
    <path
        d="M314.543 1.83203C317.543 2.83203 317.543 2.83203 318.906 5.34131C319.361 6.43911 319.816 7.5369 320.285 8.66797C320.794 9.8784 321.304 11.0888 321.828 12.3359C322.358 13.6261 322.888 14.9165 323.418 16.207C323.939 17.4588 324.461 18.7101 324.984 19.9609C325.369 20.8815 325.369 20.8815 325.762 21.8206C326.53 23.6557 327.302 25.4895 328.073 27.3232C329.021 29.585 329.952 31.8536 330.864 34.1299C331.276 35.117 331.689 36.1041 332.113 37.1211C332.464 37.9869 332.815 38.8526 333.176 39.7446C334.921 42.4095 336.546 42.9316 339.543 43.832C339.543 44.492 339.543 45.152 339.543 45.832C334.593 45.832 329.643 45.832 324.543 45.832C324.048 42.367 324.048 42.367 323.543 38.832C322.896 37.1576 322.233 35.489 321.543 33.832C321.543 32.842 321.543 31.852 321.543 30.832C316.593 30.832 311.643 30.832 306.543 30.832C305.553 34.792 304.563 38.752 303.543 42.832C304.533 42.832 305.523 42.832 306.543 42.832C306.543 43.822 306.543 44.812 306.543 45.832C292.353 45.832 278.163 45.832 263.543 45.832C263.543 45.172 263.543 44.512 263.543 43.832C265.028 43.337 265.028 43.337 266.543 42.832C266.873 30.292 267.203 17.752 267.543 4.83203C265.893 4.83203 264.243 4.83203 262.543 4.83203C262.543 4.17203 262.543 3.51203 262.543 2.83203C268.483 2.83203 274.423 2.83203 280.543 2.83203C277.543 4.83203 277.543 4.83203 275.543 4.83203C275.516 6.47778 275.497 8.12365 275.48 9.76953C275.469 10.6861 275.457 11.6026 275.445 12.5469C275.283 14.798 275.283 14.798 276.543 15.832C276.63 17.6857 276.65 19.5427 276.641 21.3984C276.637 22.5231 276.634 23.6479 276.631 24.8066C276.622 25.9906 276.614 27.1746 276.605 28.3945C276.601 29.5824 276.596 30.7703 276.592 31.9941C276.58 34.9402 276.563 37.8861 276.543 40.832C278.625 40.9404 280.709 41.0178 282.793 41.082C283.953 41.1284 285.113 41.1748 286.309 41.2227C290.12 40.7624 291.198 39.7805 293.543 36.832C293.543 39.142 293.543 41.452 293.543 43.832C294.533 43.832 295.523 43.832 296.543 43.832C297.707 40.939 298.851 38.0396 299.98 35.1328C300.501 33.8033 301.022 32.4739 301.543 31.1445C301.803 30.4684 302.064 29.7923 302.332 29.0957C303.472 26.2029 304.32 24.0548 306.543 21.832C306.879 20.1658 307.211 18.4991 307.543 16.832C308.501 14.3838 309.486 11.9854 310.543 9.58203C310.816 8.94523 311.09 8.30844 311.371 7.65234C313.402 2.97277 313.402 2.97277 314.543 1.83203Z"
        fill="#FAFAFA" />
    <path
        d="M433.543 1.83203C435.354 1.93823 435.354 1.93823 437.543 2.83203C439.099 5.54419 439.099 5.54419 440.559 9.13281C440.819 9.7656 441.08 10.3984 441.349 11.0503C441.897 12.3899 442.438 13.7325 442.972 15.0779C443.788 17.1328 444.628 19.177 445.473 21.2207C449.543 31.2301 449.543 31.2301 449.543 35.832C448.553 35.832 447.563 35.832 446.543 35.832C446.543 36.492 446.543 37.152 446.543 37.832C447.306 37.7495 448.069 37.667 448.855 37.582C451.543 37.832 451.543 37.832 453.355 39.707C454.543 41.832 454.543 41.832 454.543 43.832C456.193 43.832 457.843 43.832 459.543 43.832C459.543 44.492 459.543 45.152 459.543 45.832C454.593 45.832 449.643 45.832 444.543 45.832C443.223 41.212 441.903 36.592 440.543 31.832C433.613 31.337 433.613 31.337 426.543 30.832C425.553 35.122 424.563 39.412 423.543 43.832C424.533 43.832 425.523 43.832 426.543 43.832C426.543 44.492 426.543 45.152 426.543 45.832C415.653 45.832 404.763 45.832 393.543 45.832C393.543 45.172 393.543 44.512 393.543 43.832C395.028 43.337 395.028 43.337 396.543 42.832C396.873 36.562 397.203 30.292 397.543 23.832C399.193 23.172 400.843 22.512 402.543 21.832C402.873 21.172 403.203 20.512 403.543 19.832C401.563 19.502 399.583 19.172 397.543 18.832C397.506 17.8446 397.468 16.8572 397.43 15.8398C397.364 14.5585 397.298 13.2772 397.23 11.957C397.172 10.6809 397.114 9.40469 397.055 8.08984C396.886 7.01477 396.717 5.93969 396.543 4.83203C395.553 4.17203 394.563 3.51203 393.543 2.83203C398.823 2.83203 404.103 2.83203 409.543 2.83203C408.058 4.31703 408.058 4.31703 406.543 5.83203C406.281 8.70285 406.194 11.3519 406.25 14.2188C406.254 15.0358 406.258 15.8528 406.263 16.6945C406.28 19.3032 406.317 21.9111 406.355 24.5195C406.371 26.2884 406.384 28.0573 406.396 29.8262C406.43 34.1618 406.481 38.4968 406.543 42.832C409.513 42.832 412.483 42.832 415.543 42.832C420.181 33.9301 424.138 24.8707 427.918 15.582C428.468 14.2394 429.019 12.897 429.57 11.5547C430.899 8.31576 432.223 5.07457 433.543 1.83203Z"
        fill="#DDDDDD" />
    <path
        d="M548.543 2.83189C552.751 2.68618 556.958 2.59768 561.168 2.51939C562.358 2.47749 563.548 2.4356 564.773 2.39243C574.67 2.25421 574.67 2.25421 578.34 5.04283C581.315 8.80937 581.288 10.7668 581.012 15.3866C580.305 19.0712 579.002 21.0116 576.543 23.8319C575.883 24.1619 575.223 24.4919 574.543 24.8319C575.546 27.0696 576.388 28.6826 578.168 30.3944C579.543 31.8319 579.543 31.8319 579.543 34.8319C577.563 35.4919 575.583 36.1519 573.543 36.8319C573.179 36.266 572.816 35.7001 572.441 35.117C571.939 34.3836 571.436 33.6501 570.918 32.8944C570.431 32.1635 569.943 31.4326 569.441 30.6795C567.252 28.1974 567.252 28.1974 561.543 27.8319C561.873 32.7819 562.203 37.7319 562.543 42.8319C564.193 43.1619 565.843 43.4919 567.543 43.8319C567.543 44.4919 567.543 45.1519 567.543 45.8319C561.603 45.8319 555.663 45.8319 549.543 45.8319C549.543 45.1719 549.543 44.5119 549.543 43.8319C550.863 43.8319 552.183 43.8319 553.543 43.8319C553.543 31.2919 553.543 18.7519 553.543 5.83189C551.893 5.50189 550.243 5.17189 548.543 4.83189C548.543 4.17189 548.543 3.51189 548.543 2.83189Z"
        fill="#E2E2E2" />
    <path
        d="M340.543 2.83208C345.114 2.7575 349.686 2.70328 354.258 2.66728C355.81 2.65227 357.363 2.63185 358.916 2.60576C361.157 2.56906 363.399 2.55228 365.641 2.53911C366.326 2.52363 367.012 2.50814 367.719 2.49219C373.404 2.49024 378.121 3.71431 382.469 7.51567C383.155 8.38386 383.155 8.38386 383.855 9.26958C384.326 9.84579 384.796 10.422 385.281 11.0157C389.426 16.9825 389.231 22.7176 388.543 29.8321C386.975 35.232 384.314 38.7962 379.543 41.8321C378.486 42.523 377.429 43.214 376.34 43.9258C370.014 47.0584 362.918 46.2532 356.043 46.0821C354.634 46.062 353.225 46.0437 351.816 46.0274C348.391 45.9805 344.967 45.9148 341.543 45.8321C341.543 45.1721 341.543 44.5121 341.543 43.8321C342.863 43.8321 344.183 43.8321 345.543 43.8321C345.522 42.6977 345.502 41.5633 345.48 40.3946C345.543 36.8321 345.543 36.8321 346.543 35.8321C348.876 35.7912 351.21 35.7897 353.543 35.8321C353.832 36.6365 354.12 37.4408 354.418 38.2696C355.276 40.9647 355.276 40.9647 357.543 41.8321C367.036 42.3716 367.036 42.3716 375.355 38.5821C379.84 32.9445 380.219 27.8606 379.543 20.8321C378.885 17.6641 378.168 14.6447 376.543 11.8321C374.676 10.6227 374.676 10.6228 372.543 9.83208C371.347 9.29583 370.15 8.75958 368.918 8.20708C363.717 6.33237 363.717 6.33237 354.543 6.83208C354.213 15.0821 353.883 23.3321 353.543 31.8321C351.233 31.8321 348.923 31.8321 346.543 31.8321C346.213 23.2521 345.883 14.6721 345.543 5.83208C343.893 5.50208 342.243 5.17208 340.543 4.83208C340.543 4.17208 340.543 3.51208 340.543 2.83208Z"
        fill="#E4E4E4" />
    <path
        d="M536.542 4.83171C536.542 5.49171 536.542 6.15171 536.542 6.83171C537.12 7.03796 537.697 7.24421 538.292 7.45671C541.491 9.41137 542.723 11.5613 544.542 14.8317C544.96 17.6345 545.165 19.9231 545.105 22.7067C545.091 23.7679 545.091 23.7679 545.076 24.8505C544.799 31.808 542.798 35.533 538.05 40.3434C531.684 46.0994 525.456 46.2658 517.23 46.0973C511.933 45.7158 508.258 44.1894 503.542 41.8317C504.23 39.8942 504.23 39.8942 505.542 37.8317C507.855 36.7692 507.855 36.7692 510.542 36.8317C511.264 37.6155 511.986 38.3992 512.73 39.2067C516.228 42.4713 518.443 42.7349 523.109 42.9567C526.684 42.7731 528.691 42.004 531.542 39.8317C535.933 34.5168 536.097 29.779 535.863 22.9958C535.295 17.389 534.19 13.3992 529.98 9.39421C526.402 7.10046 524.472 6.67291 520.23 6.64421C518.812 6.62294 518.812 6.62294 517.367 6.60124C514.235 6.85682 512.263 7.24135 509.542 8.83171C506.488 13.3409 506.184 17.029 506.292 22.3942C506.308 23.6742 506.323 24.9543 506.339 26.2731C506.509 29.2479 506.854 31.9412 507.542 34.8317C504.542 36.8317 504.542 36.8317 502.042 36.9567C499.542 35.8317 499.542 35.8317 497.73 32.3317C495.812 26.1588 495.479 20.5303 498.23 14.5817C506.249 0.450171 522.507 -2.18586 536.542 4.83171Z"
        fill="#F2F2F2" />
    <path
        d="M442.543 58.8317C442.543 59.8217 442.543 60.8117 442.543 61.8317C441.446 61.9065 440.349 61.9812 439.219 62.0583C437.764 62.1896 436.31 62.3225 434.856 62.4567C433.774 62.5244 433.774 62.5244 432.67 62.5934C428.664 62.9959 426.293 63.5727 423.586 66.6676C421.37 70.0505 421.37 70.0505 420.543 73.8317C420.453 74.6503 420.363 75.4688 420.27 76.3122C420.008 83.2845 421.158 88.2923 425.543 93.8317C430.84 98.335 436.608 97.9495 443.274 98.0622C445.825 97.9819 445.825 97.9819 448.543 95.8317C449.736 93.7817 449.736 93.7817 450.543 91.8317C450.873 91.8317 451.203 91.8317 451.543 91.8317C451.793 99.4567 451.793 99.4567 449.543 102.832C447.715 103.22 447.715 103.22 445.508 103.23C444.293 103.236 444.293 103.236 443.053 103.242C442.204 103.23 441.355 103.219 440.481 103.207C439.659 103.218 438.837 103.23 437.99 103.242C430.429 103.206 422.622 101.807 416.895 96.4645C412.24 90.8416 409.644 84.6172 410.059 77.2848C411.174 71.6369 414.15 66.8527 418.293 62.8942C425.788 58.1378 433.906 58.5686 442.543 58.8317Z"
        fill="#ECECEC" />
    <path
        d="M467.543 58.7695C468.904 58.7745 470.264 58.7791 471.625 58.7832C474.931 58.7949 478.237 58.8113 481.543 58.832C481.213 61.472 480.883 64.112 480.543 66.832C479.883 66.832 479.223 66.832 478.543 66.832C478.048 65.347 478.048 65.347 477.543 63.832C472.098 63.337 472.098 63.337 466.543 62.832C466.543 67.782 466.543 72.732 466.543 77.832C472.978 77.337 472.978 77.337 479.543 76.832C479.543 79.472 479.543 82.112 479.543 84.832C478.961 84.1108 478.961 84.1108 478.367 83.375C476.002 81.3745 474.416 81.3432 471.355 81.1445C470.454 81.0787 469.553 81.013 468.625 80.9453C467.938 80.9079 467.251 80.8705 466.543 80.832C466.543 83.472 466.543 86.112 466.543 88.832C463.903 88.832 461.263 88.832 458.543 88.832C458.213 79.922 457.883 71.012 457.543 61.832C455.893 61.502 454.243 61.172 452.543 60.832C452.213 64.132 451.883 67.432 451.543 70.832C450.883 70.832 450.223 70.832 449.543 70.832C449.275 70.0689 449.007 69.3057 448.73 68.5195C447.734 65.8279 447.734 65.8279 445.918 64.207C445.464 63.7532 445.01 63.2995 444.543 62.832C444.543 61.842 444.543 60.852 444.543 59.832C452.202 58.5913 459.8 58.7202 467.543 58.7695Z"
        fill="#F4F4F4" />
    <path
        d="M390.543 57.832C391.203 57.832 391.863 57.832 392.543 57.832C394.902 63.0853 397.203 68.3592 399.453 73.6602C399.968 74.8719 400.483 76.0836 401.014 77.332C401.814 79.2161 402.613 81.1005 403.409 82.9863C404.191 84.8374 404.978 86.6863 405.766 88.5352C406.227 89.6247 406.689 90.7143 407.164 91.8369C409.971 98.0755 409.971 98.0755 415.543 101.832C410.593 101.832 405.643 101.832 400.543 101.832C400.254 100.656 399.965 99.4808 399.668 98.2695C398.71 94.4301 397.651 90.6307 396.543 86.832C392.253 86.832 387.963 86.832 383.543 86.832C383.873 86.172 384.203 85.512 384.543 84.832C387.843 84.832 391.143 84.832 394.543 84.832C394.254 83.989 393.965 83.1459 393.668 82.2773C393.297 81.1816 392.925 80.0859 392.543 78.957C392.172 77.8665 391.8 76.7759 391.418 75.6523C390.543 72.832 390.543 72.832 390.543 70.832C389.883 70.832 389.223 70.832 388.543 70.832C388.213 72.812 387.883 74.792 387.543 76.832C386.223 76.502 384.903 76.172 383.543 75.832C384.099 71.1431 385.425 67.6328 387.605 63.457C388.153 62.3974 388.701 61.3378 389.266 60.2461C389.687 59.4495 390.109 58.6528 390.543 57.832Z"
        fill="#EBEBEB" />
    <path
        d="M314.543 1.83203C317.543 2.83203 317.543 2.83203 318.906 5.34131C319.361 6.43911 319.816 7.5369 320.285 8.66797C320.794 9.8784 321.304 11.0888 321.828 12.3359C322.358 13.6261 322.888 14.9165 323.418 16.207C323.939 17.4588 324.461 18.7101 324.984 19.9609C325.369 20.8815 325.369 20.8815 325.762 21.8206C326.53 23.6557 327.302 25.4895 328.073 27.3232C329.021 29.585 329.952 31.8536 330.864 34.1299C331.483 35.6105 331.483 35.6105 332.113 37.1211C332.464 37.9869 332.815 38.8526 333.176 39.7446C334.921 42.4095 336.546 42.9316 339.543 43.832C339.543 44.492 339.543 45.152 339.543 45.832C334.593 45.832 329.643 45.832 324.543 45.832C324.213 43.522 323.883 41.212 323.543 38.832C322.841 36.4482 322.841 36.4482 321.98 34.3945C321.506 33.2189 321.032 32.0433 320.543 30.832C317.903 30.502 315.263 30.172 312.543 29.832C312.543 29.502 312.543 29.172 312.543 28.832C314.853 28.832 317.163 28.832 319.543 28.832C317.893 24.542 316.243 20.252 314.543 15.832C313.883 17.152 313.223 18.472 312.543 19.832C311.553 20.492 310.563 21.152 309.543 21.832C309.213 21.502 308.883 21.172 308.543 20.832C308.778 13.4267 310.918 8.23922 314.543 1.83203Z"
        fill="#EAEAEA" />
    <path
        d="M257.542 2.8325C257.542 6.7925 257.542 10.7525 257.542 14.8325C256.882 14.8325 256.222 14.8325 255.542 14.8325C255.202 13.6878 255.202 13.6878 254.854 12.52C253.243 9.22042 251.819 8.39294 248.542 6.8325C243.622 5.35322 238.616 5.05251 233.542 5.8325C230.053 7.81116 227.344 10.2278 225.542 13.8325C225.459 15.281 225.435 16.7332 225.444 18.1841C225.448 19.0348 225.451 19.8856 225.454 20.7622C225.462 21.6516 225.471 22.5411 225.48 23.4575C225.484 24.3547 225.489 25.2519 225.493 26.1763C225.505 28.3951 225.521 30.6138 225.542 32.8325C221.582 33.3275 221.582 33.3275 217.542 33.8325C214.384 28.5739 214.765 22.7515 215.542 16.8325C217.93 10.8185 221.944 6.99129 227.417 3.7075C236.428 -0.00288773 248.119 1.32476 257.542 2.8325Z"
        fill="#EAEAEA" />
    <path
        d="M335.543 59.832C340.493 59.832 345.443 59.832 350.543 59.832C350.543 60.492 350.543 61.152 350.543 61.832C348.233 61.832 345.923 61.832 343.543 61.832C343.543 68.432 343.543 75.032 343.543 81.832C344.533 82.162 345.523 82.492 346.543 82.832C345.553 83.162 344.563 83.492 343.543 83.832C343.873 89.442 344.203 95.052 344.543 100.832C345.863 101.162 347.183 101.492 348.543 101.832C342.933 101.832 337.323 101.832 331.543 101.832C332.533 101.172 333.523 100.512 334.543 99.832C335.276 96.7665 335.276 96.7665 335.543 93.832C337.028 93.337 337.028 93.337 338.543 92.832C337.553 92.172 336.563 91.512 335.543 90.832C335.202 87.7593 335.202 87.7593 335.25 83.8555C335.254 83.1702 335.258 82.485 335.263 81.779C335.28 79.5879 335.317 77.3978 335.355 75.207C335.371 73.7227 335.384 72.2383 335.396 70.7539C335.427 67.1126 335.486 63.4734 335.543 59.832Z"
        fill="#F3F3F3" />
    <path
        d="M553.543 3.83203C558.493 3.83203 563.443 3.83203 568.543 3.83203C568.543 4.16203 568.543 4.49203 568.543 4.83203C566.233 4.83203 563.923 4.83203 561.543 4.83203C561.624 8.12472 561.736 11.4155 561.855 14.707C561.878 15.6442 561.901 16.5813 561.924 17.5469C561.959 18.4428 561.995 19.3387 562.031 20.2617C562.057 21.0891 562.084 21.9166 562.111 22.769C562.374 25.2253 562.374 25.2253 565.543 26.832C564.223 26.832 562.903 26.832 561.543 26.832C561.873 32.112 562.203 37.392 562.543 42.832C564.193 43.162 565.843 43.492 567.543 43.832C567.543 44.492 567.543 45.152 567.543 45.832C561.603 45.832 555.663 45.832 549.543 45.832C549.543 45.172 549.543 44.512 549.543 43.832C550.863 43.832 552.183 43.832 553.543 43.832C553.543 30.632 553.543 17.432 553.543 3.83203Z"
        fill="#F2F2F2" />
    <path
        d="M313.543 13.832C317.823 18.7238 319.293 24.5841 320.543 30.832C315.923 30.832 311.303 30.832 306.543 30.832C305.553 34.792 304.563 38.752 303.543 42.832C304.533 42.832 305.523 42.832 306.543 42.832C306.543 43.822 306.543 44.812 306.543 45.832C292.353 45.832 278.163 45.832 263.543 45.832C263.543 45.172 263.543 44.512 263.543 43.832C264.863 43.502 266.183 43.172 267.543 42.832C267.543 43.492 267.543 44.152 267.543 44.832C274.803 44.832 282.063 44.832 289.543 44.832C289.543 44.172 289.543 43.512 289.543 42.832C285.583 42.832 281.623 42.832 277.543 42.832C277.213 42.172 276.883 41.512 276.543 40.832C277.435 40.8784 278.327 40.9248 279.246 40.9727C280.417 41.0087 281.587 41.0448 282.793 41.082C283.953 41.1284 285.113 41.1748 286.309 41.2227C290.12 40.7624 291.198 39.7805 293.543 36.832C293.543 39.142 293.543 41.452 293.543 43.832C294.533 43.832 295.523 43.832 296.543 43.832C297.707 40.939 298.851 38.0396 299.98 35.1328C300.501 33.8033 301.022 32.4739 301.543 31.1445C301.803 30.4684 302.064 29.7923 302.332 29.0957C303.472 26.2029 304.32 24.0548 306.543 21.832C307.191 19.2614 307.191 19.2614 307.543 16.832C308.533 18.152 309.523 19.472 310.543 20.832C311.533 18.522 312.523 16.212 313.543 13.832Z"
        fill="#E9E9E9" />
    <path
        d="M536.542 4.83171C533.259 6.47321 530.117 5.3506 526.542 4.83171C526.872 5.49171 527.202 6.15171 527.542 6.83171C526.662 6.80851 525.781 6.7853 524.874 6.7614C523.713 6.74335 522.551 6.7253 521.355 6.70671C520.206 6.68351 519.058 6.6603 517.874 6.6364C514.482 6.83527 512.446 7.07639 509.542 8.83171C506.488 13.3409 506.184 17.029 506.292 22.3942C506.308 23.6742 506.323 24.9543 506.339 26.2731C506.509 29.2479 506.854 31.9412 507.542 34.8317C504.542 36.8317 504.542 36.8317 502.042 36.9567C499.542 35.8317 499.542 35.8317 497.73 32.3317C495.812 26.1588 495.479 20.5303 498.23 14.5817C506.249 0.450171 522.507 -2.18586 536.542 4.83171Z"
        fill="#DEDEDE" />
    <path
        d="M393.543 2.83203C398.823 2.83203 404.103 2.83203 409.543 2.83203C408.058 4.31703 408.058 4.31703 406.543 5.83203C406.281 8.84499 406.194 11.6468 406.25 14.6562C406.254 15.5177 406.258 16.3791 406.263 17.2666C406.28 20.0179 406.317 22.7684 406.355 25.5195C406.371 27.3848 406.384 29.25 406.396 31.1152C406.43 35.6878 406.481 40.2598 406.543 44.832C403.573 44.832 400.603 44.832 397.543 44.832C397.543 37.902 397.543 30.972 397.543 23.832C399.193 23.172 400.843 22.512 402.543 21.832C402.873 21.172 403.203 20.512 403.543 19.832C401.563 19.502 399.583 19.172 397.543 18.832C397.506 17.8446 397.468 16.8572 397.43 15.8398C397.364 14.5585 397.298 13.2772 397.23 11.957C397.172 10.6809 397.114 9.40469 397.055 8.08984C396.886 7.01477 396.717 5.93969 396.543 4.83203C395.553 4.17203 394.563 3.51203 393.543 2.83203Z"
        fill="#E5E5E5" />
    <path
        d="M244.543 23.832C250.483 23.832 256.423 23.832 262.543 23.832C262.543 24.492 262.543 25.152 262.543 25.832C261.223 26.162 259.903 26.492 258.543 26.832C258.213 32.442 257.883 38.052 257.543 43.832C256.883 43.832 256.223 43.832 255.543 43.832C255.543 44.492 255.543 45.152 255.543 45.832C246.253 48.0688 235.127 48.2049 226.543 43.832C225.553 43.337 224.563 42.842 223.543 42.332C222.883 41.837 222.223 41.342 221.543 40.832C221.543 39.842 221.543 38.852 221.543 37.832C224.543 35.832 224.543 35.832 226.98 35.957C229.543 36.832 229.543 36.832 231.188 38.8398C234.482 41.6265 237.661 41.5017 241.793 41.582C242.911 41.6265 242.911 41.6265 244.051 41.6719C245.881 41.7423 247.712 41.7894 249.543 41.832C249.873 36.882 250.203 31.932 250.543 26.832C247.573 26.337 247.573 26.337 244.543 25.832C244.543 25.172 244.543 24.512 244.543 23.832Z"
        fill="#E7E7E7" />
    <path
        d="M469.543 13.832C472.183 13.832 474.823 13.832 477.543 13.832C477.873 23.732 478.203 33.632 478.543 43.832C480.193 43.832 481.843 43.832 483.543 43.832C483.543 44.492 483.543 45.152 483.543 45.832C477.603 45.832 471.663 45.832 465.543 45.832C465.543 45.172 465.543 44.512 465.543 43.832C466.533 43.502 467.523 43.172 468.543 42.832C468.873 33.262 469.203 23.692 469.543 13.832Z"
        fill="#E8E8E8" />
    <path
        d="M345.543 3.83203C352.143 3.83203 358.743 3.83203 365.543 3.83203C365.543 4.16203 365.543 4.49203 365.543 4.83203C361.913 4.83203 358.283 4.83203 354.543 4.83203C354.213 13.742 353.883 22.652 353.543 31.832C351.233 31.832 348.923 31.832 346.543 31.832C346.213 22.592 345.883 13.352 345.543 3.83203Z"
        fill="#FBFBFB" />
    <path
        d="M561.543 5.83203C568.505 5.83203 568.505 5.83203 572.543 8.83203C573.763 11.2716 573.745 12.9851 573.793 15.707C573.832 17.0025 573.832 17.0025 573.871 18.3242C573.45 21.5419 573.078 22.7517 570.543 24.832C567.573 24.832 564.603 24.832 561.543 24.832C561.543 18.562 561.543 12.292 561.543 5.83203Z"
        fill="#0C0C0C" />
    <path
        d="M453.543 2.83203C466.743 2.83203 479.943 2.83203 493.543 2.83203C493.543 5.47203 493.543 8.11203 493.543 10.832C492.883 10.832 492.223 10.832 491.543 10.832C491.048 9.34703 491.048 9.34703 490.543 7.83203C486.253 7.17203 481.963 6.51203 477.543 5.83203C477.543 7.81203 477.543 9.79203 477.543 11.832C474.903 11.832 472.263 11.832 469.543 11.832C469.543 10.182 469.543 8.53203 469.543 6.83203C467.438 6.94613 465.334 7.07368 463.23 7.20703C461.473 7.31145 461.473 7.31145 459.68 7.41797C456.386 7.61817 456.386 7.61817 453.543 9.83203C453.543 7.52203 453.543 5.21203 453.543 2.83203Z"
        fill="#FAFAFA" />
    <path
        d="M343.543 61.832C349.705 61.832 350.451 61.8573 354.543 65.832C356.272 69.2895 355.886 73.0454 355.543 76.832C354.605 79.3945 354.605 79.3945 352.543 80.832C349.573 80.832 346.603 80.832 343.543 80.832C343.543 74.562 343.543 68.292 343.543 61.832Z"
        fill="#0B0B0B" />
    <path
        d="M262.543 2.83203C268.483 2.83203 274.423 2.83203 280.543 2.83203C277.543 4.83203 277.543 4.83203 275.543 4.83203C275.516 6.47778 275.497 8.12365 275.48 9.76953C275.469 10.6861 275.457 11.6026 275.445 12.5469C275.283 14.798 275.283 14.798 276.543 15.832C276.63 17.5398 276.65 19.251 276.641 20.9609C276.637 21.9954 276.634 23.0299 276.631 24.0957C276.622 25.1843 276.614 26.2729 276.605 27.3945C276.601 28.487 276.596 29.5795 276.592 30.7051C276.58 33.4141 276.563 36.123 276.543 38.832C276.213 38.832 275.883 38.832 275.543 38.832C275.543 31.572 275.543 24.312 275.543 16.832C273.233 16.832 270.923 16.832 268.543 16.832C268.543 25.082 268.543 33.332 268.543 41.832C268.213 41.832 267.883 41.832 267.543 41.832C267.543 29.622 267.543 17.412 267.543 4.83203C265.893 4.83203 264.243 4.83203 262.543 4.83203C262.543 4.17203 262.543 3.51203 262.543 2.83203Z"
        fill="#E9E9E9" />
    <path
        d="M381.543 77.832C382.863 77.832 384.183 77.832 385.543 77.832C385.213 79.812 384.883 81.792 384.543 83.832C387.843 83.832 391.143 83.832 394.543 83.832C394.543 84.162 394.543 84.492 394.543 84.832C391.243 85.162 387.943 85.492 384.543 85.832C388.503 86.162 392.463 86.492 396.543 86.832C396.543 87.162 396.543 87.492 396.543 87.832C391.923 88.162 387.303 88.492 382.543 88.832C382.048 90.0902 381.553 91.3483 381.043 92.6445C380.765 93.3522 380.486 94.0599 380.199 94.7891C379.39 96.9504 379.39 96.9504 379.543 99.832C380.203 100.492 380.863 101.152 381.543 101.832C375.603 101.832 369.663 101.832 363.543 101.832C363.543 101.502 363.543 101.172 363.543 100.832C365.853 100.832 368.163 100.832 370.543 100.832C370.543 100.172 370.543 99.512 370.543 98.832C371.533 98.832 372.523 98.832 373.543 98.832C373.935 97.5945 374.327 96.357 374.73 95.082C376.682 89.2 379.105 83.526 381.543 77.832Z"
        fill="#D8D8D8" />
    <path
        d="M404.543 22.832C404.604 23.8336 404.664 24.8352 404.727 25.8672C404.811 27.2096 404.896 28.5521 404.98 29.8945C405.062 31.2055 405.143 32.5165 405.227 33.8672C405.522 37.5687 405.976 41.1657 406.543 44.832C403.573 44.832 400.603 44.832 397.543 44.832C397.543 37.902 397.543 30.972 397.543 23.832C400.543 22.832 400.543 22.832 404.543 22.832Z"
        fill="#F2F2F2" />
    <path
        d="M466.543 90.832C467.203 93.142 467.863 95.452 468.543 97.832C475.282 98.5048 475.282 98.5048 481.168 95.832C481.622 95.172 482.075 94.512 482.543 93.832C482.585 96.165 482.584 98.4991 482.543 100.832C481.543 101.832 481.543 101.832 478.951 101.946C477.825 101.94 476.699 101.935 475.539 101.93C474.324 101.926 473.109 101.923 471.857 101.92C470.578 101.912 469.299 101.903 467.98 101.895C466.697 101.89 465.414 101.886 464.092 101.881C460.909 101.869 457.726 101.853 454.543 101.832C455.533 101.502 456.523 101.172 457.543 100.832C457.873 97.862 458.203 94.892 458.543 91.832C462.543 90.832 462.543 90.832 466.543 90.832Z"
        fill="#F4F4F4" />
    <path
        d="M104 126C110.75 125.875 110.75 125.875 113 127C113 127.66 113 128.32 113 129C115.475 129.99 115.475 129.99 118 131C118 135.038 117.725 136.004 115.688 139.25C115.258 139.956 114.829 140.663 114.387 141.391C113.7 142.187 113.7 142.187 113 143C112.01 143 111.02 143 110 143C109.01 143.66 108.02 144.32 107 145C107.309 144.443 107.619 143.886 107.938 143.312C109.058 140.875 109.56 138.638 110 136C107.69 135.01 105.38 134.02 103 133C103.33 130.69 103.66 128.38 104 126Z"
        fill="#161616" />
    <path
        d="M467.543 58.7695C468.904 58.7745 470.264 58.7791 471.625 58.7832C474.931 58.7949 478.237 58.8113 481.543 58.832C481.213 61.472 480.883 64.112 480.543 66.832C479.883 66.832 479.223 66.832 478.543 66.832C478.048 65.347 478.048 65.347 477.543 63.832C472.098 63.337 472.098 63.337 466.543 62.832C466.543 62.502 466.543 62.172 466.543 61.832C459.613 61.337 459.613 61.337 452.543 60.832C452.213 64.132 451.883 67.432 451.543 70.832C450.883 70.832 450.223 70.832 449.543 70.832C449.275 70.0689 449.007 69.3057 448.73 68.5195C447.734 65.8279 447.734 65.8279 445.918 64.207C445.464 63.7532 445.01 63.2995 444.543 62.832C444.543 61.842 444.543 60.852 444.543 59.832C452.202 58.5913 459.8 58.7202 467.543 58.7695Z"
        fill="#AFAFAF" />
    <path
        d="M335.543 62.832C335.873 62.832 336.203 62.832 336.543 62.832C336.543 71.742 336.543 80.652 336.543 89.832C338.853 90.162 341.163 90.492 343.543 90.832C343.873 94.132 344.203 97.432 344.543 100.832C345.863 101.162 347.183 101.492 348.543 101.832C342.933 101.832 337.323 101.832 331.543 101.832C332.533 101.172 333.523 100.512 334.543 99.832C335.276 96.7665 335.276 96.7665 335.543 93.832C336.533 93.502 337.523 93.172 338.543 92.832C337.553 92.172 336.563 91.512 335.543 90.832C335.202 88.0347 335.202 88.0347 335.25 84.5117C335.26 83.2549 335.269 81.998 335.279 80.7031C335.304 79.3844 335.33 78.0657 335.355 76.707C335.371 75.3672 335.384 74.0274 335.396 72.6875C335.432 69.4019 335.481 66.1172 335.543 62.832Z"
        fill="#E5E5E5" />
    <path
        d="M226.98 35.9571C229.543 36.8321 229.543 36.8321 231.25 38.8087C234.335 41.5313 236.743 41.6321 240.793 42.0821C242.056 42.2316 243.32 42.3812 244.621 42.5352C245.585 42.6332 246.55 42.7312 247.543 42.8321C247.543 43.1621 247.543 43.4921 247.543 43.8321C244.243 43.8321 240.943 43.8321 237.543 43.8321C237.543 44.4921 237.543 45.1521 237.543 45.8321C241.833 45.8321 246.123 45.8321 250.543 45.8321C250.543 46.1621 250.543 46.4921 250.543 46.8321C233.526 47.3897 233.526 47.3897 226.543 43.8321C225.553 43.3371 224.563 42.8421 223.543 42.3321C222.883 41.8371 222.223 41.3421 221.543 40.8321C221.543 39.8421 221.543 38.8521 221.543 37.8321C224.543 35.8321 224.543 35.8321 226.98 35.9571Z"
        fill="#C5C5C5" />
    <path
        d="M257.543 2.83174C257.543 6.79174 257.543 10.7517 257.543 14.8317C256.883 14.8317 256.223 14.8317 255.543 14.8317C255.203 13.687 255.203 13.687 254.855 12.5192C253.216 9.16125 251.859 8.48979 248.543 6.83174C241.638 5.17853 234.627 4.55395 227.543 4.83174C233.769 -1.39446 249.435 1.53452 257.543 2.83174Z"
        fill="#D3D3D3" />
    <path
        d="M292.543 36.832C292.873 36.832 293.203 36.832 293.543 36.832C293.543 39.142 293.543 41.452 293.543 43.832C296.513 43.832 299.483 43.832 302.543 43.832C302.873 42.842 303.203 41.852 303.543 40.832C303.543 41.492 303.543 42.152 303.543 42.832C304.533 42.832 305.523 42.832 306.543 42.832C306.543 43.822 306.543 44.812 306.543 45.832C292.353 45.832 278.163 45.832 263.543 45.832C263.543 45.172 263.543 44.512 263.543 43.832C264.863 43.502 266.183 43.172 267.543 42.832C267.543 43.492 267.543 44.152 267.543 44.832C274.803 44.832 282.063 44.832 289.543 44.832C289.543 44.172 289.543 43.512 289.543 42.832C285.583 42.832 281.623 42.832 277.543 42.832C277.213 42.172 276.883 41.512 276.543 40.832C277.447 40.8784 278.35 40.9248 279.281 40.9727C281.05 41.0268 281.05 41.0268 282.855 41.082C284.027 41.1284 285.199 41.1748 286.406 41.2227C289.639 41.1632 289.639 41.1632 291.398 38.8164C291.776 38.1616 292.154 37.5067 292.543 36.832Z"
        fill="#B0B0B0" />
    <path
        d="M453.543 2.83203C466.743 2.83203 479.943 2.83203 493.543 2.83203C493.543 5.47203 493.543 8.11203 493.543 10.832C492.883 10.502 492.223 10.172 491.543 9.83203C491.873 7.85203 492.203 5.87203 492.543 3.83203C483.303 4.16203 474.063 4.49203 464.543 4.83203C467.513 5.32703 467.513 5.32703 470.543 5.83203C470.543 7.48203 470.543 9.13203 470.543 10.832C471.533 11.162 472.523 11.492 473.543 11.832C472.223 11.832 470.903 11.832 469.543 11.832C469.543 10.182 469.543 8.53203 469.543 6.83203C467.438 6.94613 465.334 7.07368 463.23 7.20703C461.473 7.31145 461.473 7.31145 459.68 7.41797C456.386 7.61817 456.386 7.61817 453.543 9.83203C453.543 7.52203 453.543 5.21203 453.543 2.83203Z"
        fill="#BEBEBE" />
    <path
        d="M350.105 35.7695C351.24 35.7902 352.374 35.8108 353.543 35.832C354.533 38.142 355.523 40.452 356.543 42.832C363.473 43.327 363.473 43.327 370.543 43.832C370.543 44.162 370.543 44.492 370.543 44.832C362.293 44.832 354.043 44.832 345.543 44.832C345.543 35.8496 345.543 35.8496 350.105 35.7695Z"
        fill="#F0F0F0" />
    <path
        d="M584.543 37.8321C585.162 38.4715 585.78 39.1108 586.418 39.7696C588.953 42.23 591.171 42.9125 594.543 43.8321C594.543 44.4921 594.543 45.1521 594.543 45.8321C583.031 46.5906 583.031 46.5906 579.566 44.8243C578.23 43.5196 578.23 43.5196 576.543 40.8321C576.543 39.8421 576.543 38.8521 576.543 37.8321C579.591 36.8522 581.547 36.615 584.543 37.8321Z"
        fill="#D2D2D2" />
    <path
        d="M388.543 70.832C389.203 70.832 389.863 70.832 390.543 70.832C391.216 72.4335 391.881 74.0383 392.543 75.6445C392.914 76.5379 393.285 77.4312 393.668 78.3516C394.543 80.832 394.543 80.832 394.543 83.832C391.243 83.832 387.943 83.832 384.543 83.832C384.873 81.852 385.203 79.872 385.543 77.832C384.223 77.502 382.903 77.172 381.543 76.832C382.203 76.172 382.863 75.512 383.543 74.832C384.863 75.492 386.183 76.152 387.543 76.832C387.873 74.852 388.203 72.872 388.543 70.832Z"
        fill="#222222" />
    <path
        d="M490.981 56.5195C493.543 56.832 493.543 56.832 495.418 57.957C496.543 59.832 496.543 59.832 496.356 62.957C496.088 63.9058 495.819 64.8545 495.543 65.832C492.755 67.2263 490.622 67.0886 487.543 66.832C485.543 63.832 485.543 63.832 485.793 61.2695C486.788 58.0359 487.569 56.957 490.981 56.5195Z"
        fill="#B0B0B0" />
    <path
        d="M433.543 14.832C436.985 19.0559 438.543 22.3326 438.543 27.832C435.243 27.832 431.943 27.832 428.543 27.832C429.15 22.9724 431.271 19.0915 433.543 14.832Z"
        fill="#181818" />
    <path
        d="M450.543 91.832C450.873 91.832 451.203 91.832 451.543 91.832C451.793 99.457 451.793 99.457 449.543 102.832C447.572 103.173 447.572 103.173 445.191 103.125C444.341 103.115 443.49 103.106 442.613 103.096C441.724 103.071 440.834 103.045 439.918 103.02C439.021 103.006 438.124 102.992 437.199 102.979C434.98 102.943 432.762 102.894 430.543 102.832C430.543 102.502 430.543 102.172 430.543 101.832C433.843 101.502 437.143 101.172 440.543 100.832C436.088 99.842 436.088 99.842 431.543 98.832C435.683 97.7971 438.987 97.8337 443.203 97.9922C445.817 98.0078 445.817 98.0078 448.543 95.832C449.735 93.782 449.735 93.782 450.543 91.832Z"
        fill="#C3C3C3" />
    <path
        d="M444.543 38.832C447.183 38.832 449.823 38.832 452.543 38.832C453.203 40.482 453.863 42.132 454.543 43.832C456.193 43.832 457.843 43.832 459.543 43.832C459.543 44.492 459.543 45.152 459.543 45.832C454.593 45.832 449.643 45.832 444.543 45.832C444.543 43.522 444.543 41.212 444.543 38.832Z"
        fill="#D7D7D7" />
    <path
        d="M267.543 5.83203C267.873 5.83203 268.203 5.83203 268.543 5.83203C268.543 8.80203 268.543 11.772 268.543 14.832C272.008 14.337 272.008 14.337 275.543 13.832C276.822 16.3893 276.656 18.1994 276.641 21.0586C276.637 22.0898 276.634 23.1211 276.631 24.1836C276.622 25.2638 276.614 26.3441 276.605 27.457C276.601 28.545 276.596 29.633 276.592 30.7539C276.58 33.4467 276.564 36.1393 276.543 38.832C276.213 38.832 275.883 38.832 275.543 38.832C275.543 31.572 275.543 24.312 275.543 16.832C273.233 16.832 270.923 16.832 268.543 16.832C268.543 25.082 268.543 33.332 268.543 41.832C268.213 41.832 267.883 41.832 267.543 41.832C267.543 29.952 267.543 18.072 267.543 5.83203Z"
        fill="#7B7B7B" />
    <path
        d="M313.543 13.832C316.114 16.8465 317.065 19.1918 317.73 23.082C317.889 23.9741 318.048 24.8661 318.211 25.7852C318.321 26.4606 318.43 27.1361 318.543 27.832C315.573 27.832 312.603 27.832 309.543 27.832C310.325 22.9851 311.941 18.4554 313.543 13.832Z"
        fill="#121212" />
    <path
        d="M506.543 36.832C510.94 37.1886 512.594 38.6926 515.543 41.832C517.676 43.0672 517.676 43.0672 519.543 43.832C518.883 43.832 518.223 43.832 517.543 43.832C517.543 44.492 517.543 45.152 517.543 45.832C512.265 45.2935 508.287 44.0586 503.543 41.832C505.418 37.957 505.418 37.957 506.543 36.832Z"
        fill="#E2E2E2" />
    <path
        d="M355.543 41.832C361.483 41.832 367.423 41.832 373.543 41.832C374.038 43.317 374.038 43.317 374.543 44.832C371.065 45.9913 368.355 45.9452 364.688 45.9297C363.695 45.9276 363.695 45.9276 362.683 45.9254C360.573 45.9198 358.465 45.9073 356.355 45.8945C354.924 45.8895 353.492 45.885 352.061 45.8809C348.555 45.8698 345.049 45.8526 341.543 45.832C341.543 45.172 341.543 44.512 341.543 43.832C346.493 43.832 351.443 43.832 356.543 43.832C356.213 43.172 355.883 42.512 355.543 41.832Z"
        fill="#AFAFAF" />
    <path
        d="M481.543 93.832C481.873 93.832 482.203 93.832 482.543 93.832C482.585 96.165 482.584 98.4991 482.543 100.832C481.543 101.832 481.543 101.832 478.951 101.946C477.825 101.94 476.699 101.935 475.539 101.93C474.324 101.926 473.109 101.923 471.857 101.92C470.578 101.912 469.299 101.903 467.98 101.895C466.697 101.89 465.414 101.886 464.092 101.881C460.909 101.869 457.726 101.853 454.543 101.832C455.533 101.502 456.523 101.172 457.543 100.832C457.873 99.842 458.203 98.852 458.543 97.832C458.543 98.822 458.543 99.812 458.543 100.832C461.843 100.502 465.143 100.172 468.543 99.832C468.543 99.502 468.543 99.172 468.543 98.832C469.574 98.7934 469.574 98.7934 470.625 98.7539C471.526 98.6972 472.427 98.6405 473.355 98.582C474.249 98.5356 475.142 98.4892 476.062 98.4414C479.18 97.6756 479.864 96.4798 481.543 93.832Z"
        fill="#D3D3D3" />
    <path
        d="M444.543 59.832C446.853 59.832 449.163 59.832 451.543 59.832C451.543 63.462 451.543 67.092 451.543 70.832C450.883 70.832 450.223 70.832 449.543 70.832C449.275 70.0689 449.007 69.3058 448.73 68.5195C447.734 65.828 447.734 65.828 445.918 64.207C445.464 63.7533 445.01 63.2995 444.543 62.832C444.543 61.842 444.543 60.852 444.543 59.832Z"
        fill="#E4E4E4" />
    <path
        d="M335.543 62.832C335.873 62.832 336.203 62.832 336.543 62.832C336.543 71.742 336.543 80.652 336.543 89.832C338.853 90.162 341.163 90.492 343.543 90.832C343.543 91.822 343.543 92.812 343.543 93.832C339.081 94.1939 339.081 94.1939 336.894 92.7214C334.913 89.9508 335.204 87.7893 335.25 84.4141C335.26 83.1604 335.27 81.9068 335.28 80.6152C335.305 79.3049 335.33 77.9946 335.356 76.6445C335.371 75.3093 335.384 73.974 335.397 72.6387C335.432 69.3694 335.482 66.1009 335.543 62.832Z"
        fill="#838383" />
    <path
        d="M466.543 80.832C469.843 80.832 473.143 80.832 476.543 80.832C476.543 81.162 476.543 81.492 476.543 81.832C473.573 81.832 470.603 81.832 467.543 81.832C467.543 86.782 467.543 91.732 467.543 96.832C467.213 96.832 466.883 96.832 466.543 96.832C466.543 94.852 466.543 92.872 466.543 90.832C463.903 91.162 461.263 91.492 458.543 91.832C458.543 90.842 458.543 89.852 458.543 88.832C461.183 88.832 463.823 88.832 466.543 88.832C466.543 86.192 466.543 83.552 466.543 80.832Z"
        fill="#2B2B2B" />
    <path
        d="M307.543 16.832C309.049 18.7959 310.434 20.6147 311.543 22.832C310.605 25.457 310.605 25.457 309.543 27.832C312.513 27.832 315.483 27.832 318.543 27.832C318.873 27.172 319.203 26.512 319.543 25.832C319.543 26.822 319.543 27.812 319.543 28.832C315.913 28.832 312.283 28.832 308.543 28.832C308.543 27.512 308.543 26.192 308.543 24.832C307.223 25.162 305.903 25.492 304.543 25.832C304.852 25.2752 305.162 24.7183 305.48 24.1445C306.601 21.7066 307.103 19.4698 307.543 16.832Z"
        fill="#A9A9A9" />
    <path
        d="M436.355 57.707C437.068 57.7032 437.78 57.6993 438.514 57.6953C442.316 57.7023 445.848 57.9173 449.543 58.832C449.543 59.162 449.543 59.492 449.543 59.832C447.893 59.832 446.243 59.832 444.543 59.832C444.873 61.152 445.203 62.472 445.543 63.832C444.883 63.832 444.223 63.832 443.543 63.832C443.213 62.182 442.883 60.532 442.543 58.832C436.177 59.3233 429.85 59.8286 423.543 60.832C428.053 57.8256 431.051 57.6787 436.355 57.707Z"
        fill="#6C6C6C" />
    <path
        d="M479.543 76.832C479.543 79.472 479.543 82.112 479.543 84.832C479.155 84.3512 478.767 83.8704 478.367 83.375C476.002 81.3745 474.416 81.3433 471.355 81.1445C470.454 81.0788 469.553 81.013 468.625 80.9453C467.938 80.9079 467.251 80.8705 466.543 80.832C466.543 79.842 466.543 78.852 466.543 77.832C468.522 77.6649 470.501 77.4983 472.48 77.332C474.134 77.1928 474.134 77.1928 475.82 77.0508C478.543 76.832 478.543 76.832 479.543 76.832Z"
        fill="#E1E1E1" />
    <path
        d="M491.043 56.5195C492.28 56.6742 492.28 56.6742 493.543 56.832C495.543 59.832 495.543 59.832 495.168 62.0195C494.962 62.6177 494.755 63.2158 494.543 63.832C493.883 63.832 493.223 63.832 492.543 63.832C490.918 61.832 490.918 61.832 489.543 59.832C488.883 61.152 488.223 62.472 487.543 63.832C486.918 61.457 486.918 61.457 486.543 58.832C488.543 56.832 488.543 56.832 491.043 56.5195Z"
        fill="#747474" />
    <path
        d="M492.543 3.83218C492.543 5.81218 492.543 7.79218 492.543 9.83218C491.924 9.35781 491.305 8.88343 490.668 8.39468C486.382 6.25165 482.277 6.09876 477.543 5.83218C477.543 5.50218 477.543 5.17218 477.543 4.83218C482.624 3.98537 487.391 3.7418 492.543 3.83218Z"
        fill="#F2F2F2" />
    <path
        d="M302.543 40.832C302.873 41.492 303.203 42.152 303.543 42.832C304.533 42.832 305.523 42.832 306.543 42.832C306.543 43.822 306.543 44.812 306.543 45.832C301.593 45.832 296.643 45.832 291.543 45.832C292.203 44.512 292.863 43.192 293.543 41.832C293.543 42.492 293.543 43.152 293.543 43.832C296.513 43.832 299.483 43.832 302.543 43.832C302.543 42.842 302.543 41.852 302.543 40.832Z"
        fill="#848484" />
    <path
        d="M149 29C149.99 29 150.98 29 152 29C152 29.66 152 30.32 152 31C152.99 31.33 153.98 31.66 155 32C149.25 36 149.25 36 147 36C147.875 31.25 147.875 31.25 149 29Z"
        fill="#2F2F2F" />
    <path
        d="M343.543 80.832C346.183 80.832 348.823 80.832 351.543 80.832C350.883 82.152 350.223 83.472 349.543 84.832C347.563 84.832 345.583 84.832 343.543 84.832C344.203 84.172 344.863 83.512 345.543 82.832C344.883 82.172 344.223 81.512 343.543 80.832Z"
        fill="#B2B2B2" />
    <path
        d="M421.543 60.832C422.203 61.162 422.863 61.492 423.543 61.832C420.573 64.802 417.603 67.772 414.543 70.832C414.213 70.172 413.883 69.512 413.543 68.832C418.168 63.082 418.168 63.082 421.543 60.832Z"
        fill="#CECECE" />
    <path
        d="M149 22C149.99 22.33 150.98 22.66 152 23C152 23.99 152 24.98 152 26C152.66 26.33 153.32 26.66 154 27C152.02 27.99 152.02 27.99 150 29C150 28.01 150 27.02 150 26C149.01 26.33 148.02 26.66 147 27C147 25.68 147 24.36 147 23C147.66 22.67 148.32 22.34 149 22Z"
        fill="#292929" />
    <path
        d="M305.543 95.832C306.863 96.162 308.183 96.492 309.543 96.832C309.213 97.492 308.883 98.152 308.543 98.832C307.553 99.162 306.563 99.492 305.543 99.832C305.213 102.142 304.883 104.452 304.543 106.832C303.553 106.502 302.563 106.172 301.543 105.832C302.203 105.502 302.863 105.172 303.543 104.832C303.502 103.904 303.46 102.976 303.418 102.02C303.543 98.832 303.543 98.832 305.543 95.832Z"
        fill="#C9C9C9" />
    <path
        d="M579.543 32.832C579.873 33.822 580.203 34.812 580.543 35.832C581.533 36.162 582.523 36.492 583.543 36.832C582.409 36.9558 581.274 37.0795 580.105 37.207C578.342 37.5164 578.342 37.5164 576.543 37.832C576.213 38.492 575.883 39.152 575.543 39.832C575.543 39.172 575.543 38.512 575.543 37.832C574.883 37.502 574.223 37.172 573.543 36.832C575.523 36.172 577.503 35.512 579.543 34.832C579.543 34.172 579.543 33.512 579.543 32.832Z"
        fill="#464646" />
    <path
        d="M481.543 93.832C481.873 93.832 482.203 93.832 482.543 93.832C482.543 96.142 482.543 98.452 482.543 100.832C480.893 100.832 479.243 100.832 477.543 100.832C478.863 98.522 480.183 96.212 481.543 93.832Z"
        fill="#DADADA" />
    <path
        d="M530.543 130.832C532.543 133.832 532.543 133.832 532.543 137.832C530.543 139.582 530.543 139.582 528.543 140.832C529.001 137.363 529.434 134.158 530.543 130.832Z"
        fill="#464646" />
    <path
        d="M307.543 16.832C309.049 18.7959 310.434 20.6147 311.543 22.832C310.883 23.492 310.223 24.152 309.543 24.832C308.223 24.172 306.903 23.512 305.543 22.832C306.203 20.852 306.863 18.872 307.543 16.832Z"
        fill="#727272" />
    <path
        d="M507.543 32.832C508.203 34.152 508.863 35.472 509.543 36.832C505.761 38.6689 503.597 38.9904 499.543 37.832C499.873 37.172 500.203 36.512 500.543 35.832C502.543 35.4987 504.543 35.1654 506.543 34.832C506.873 34.172 507.203 33.512 507.543 32.832Z"
        fill="#3E3E3E" />
    <path
        d="M458.543 88.832C461.183 88.832 463.823 88.832 466.543 88.832C466.543 89.492 466.543 90.152 466.543 90.832C463.903 91.162 461.263 91.492 458.543 91.832C458.543 90.842 458.543 89.852 458.543 88.832Z"
        fill="#636363" />
    <path
        d="M487.543 57.832C489.218 58.1181 490.887 58.4498 492.543 58.832C491.553 60.317 491.553 60.317 490.543 61.832C490.213 61.172 489.883 60.512 489.543 59.832C488.883 61.152 488.223 62.472 487.543 63.832C487.161 62.1759 486.829 60.5075 486.543 58.832C486.873 58.502 487.203 58.172 487.543 57.832Z"
        fill="#8E8E8E" />
</svg>