<?xml version="1.0" encoding="UTF-8"?>
<svg version="1.1" xmlns="http://www.w3.org/2000/svg" width="282" height="151">
<path d="M0 0 C2.07771656 -0.00972031 4.15444668 -0.04087031 6.23193359 -0.07226562 C28.28360972 -0.25151032 28.28360972 -0.25151032 36.21240234 7.24023438 C37.02490234 10.05273437 37.02490234 10.05273437 36.21240234 13.24023438 C32.16608459 18.03548497 26.31562051 22.49645776 20.21240234 24.24023438 C17.97802734 23.83398437 17.97802734 23.83398437 16.21240234 23.24023438 C16.76669922 22.86511719 17.32099609 22.49 17.89208984 22.10351562 C23.47572282 18.27586143 23.47572282 18.27586143 26.21240234 12.24023438 C21.60550716 6.92001349 13.49805539 5.91459013 6.75537109 5.36914062 C5.91619141 5.32660156 5.07701172 5.2840625 4.21240234 5.24023438 C3.23916016 5.18738281 2.26591797 5.13453125 1.26318359 5.08007812 C-28.01168929 4.31232205 -64.06189672 9.25243265 -88.78759766 26.24023438 C-90.98502332 28.7117372 -91.74772236 29.65539667 -91.97509766 32.99023438 C-91.91322266 33.73273437 -91.85134766 34.47523437 -91.78759766 35.24023438 C-87.21301614 36.8624264 -82.62199577 38.36958509 -77.91259766 39.55273438 C-77.19330078 39.73449219 -76.47400391 39.91625 -75.73291016 40.10351562 C-73.45858282 40.46265198 -73.45858282 40.46265198 -70.78759766 38.24023438 C-71.61904297 38.05847656 -72.45048828 37.87671875 -73.30712891 37.68945312 C-74.93714844 37.31240234 -74.93714844 37.31240234 -76.60009766 36.92773438 C-77.67904297 36.68410156 -78.75798828 36.44046875 -79.86962891 36.18945312 C-82.74289351 35.25477669 -84.04160424 34.66624628 -85.78759766 32.24023438 C-85.78759766 29.80273438 -85.78759766 29.80273438 -84.78759766 27.24023438 C-81.53932925 24.08477364 -77.96708119 21.96654279 -73.78759766 20.24023438 C-72.79759766 20.57023437 -71.80759766 20.90023438 -70.78759766 21.24023438 C-74.25259766 24.21023437 -74.25259766 24.21023437 -77.78759766 27.24023438 C-77.11006459 30.39292937 -77.11006459 30.39292937 -74.52197266 31.51367188 C-67.17514761 34.22545808 -62.45609976 34.31238446 -54.97119141 32.08398438 C-51.78265128 31.23892343 -49.07200264 31.08800315 -45.78759766 31.05273438 C-41.9444966 30.84055385 -41.9444966 30.84055385 -39.13525391 28.40429688 C-37.8188349 26.22101332 -37.8188349 26.22101332 -36.88525391 23.95507812 C-36.52302734 23.38917969 -36.16080078 22.82328125 -35.78759766 22.24023438 C-34.46759766 22.24023438 -33.14759766 22.24023438 -31.78759766 22.24023438 C-31.66259766 28.99023437 -31.66259766 28.99023437 -32.78759766 31.24023438 C-17.69462108 27.46267334 -17.69462108 27.46267334 -3.52978516 21.22070312 C-1.78759766 20.24023438 -1.78759766 20.24023438 1.21240234 19.24023438 C1.54240234 17.26023437 1.87240234 15.28023437 2.21240234 13.24023438 C-4.6274267 10.96029136 -11.65805698 10.16974453 -18.78759766 9.24023438 C-14.62906393 6.46787856 -11.24060682 6.89776692 -6.35009766 6.92773438 C-5.45371582 6.93119873 -4.55733398 6.93466309 -3.63378906 6.93823242 C3.13170217 7.04857248 9.95244288 7.43364738 16.21240234 10.24023438 C18.21240234 13.24023438 18.21240234 13.24023438 18.21240234 15.11523438 C15.03107592 21.87555302 6.77334117 24.80840814 0.21240234 27.24023438 C-3.28926581 28.39198616 -6.81199114 29.45630549 -10.35009766 30.49023438 C-11.2241626 30.74861084 -12.09822754 31.0069873 -12.9987793 31.27319336 C-18.91438215 32.9368354 -24.658429 33.82926692 -30.78759766 34.24023438 C-30.24490234 35.08585937 -29.70220703 35.93148437 -29.14306641 36.80273438 C-19.78759766 51.55893927 -19.78759766 51.55893927 -19.78759766 60.24023438 C-15.16759766 62.88023438 -10.54759766 65.52023438 -5.78759766 68.24023438 C-4.79759766 67.58023438 -3.80759766 66.92023438 -2.78759766 66.24023438 C0.05618119 66.41797055 0.98256917 66.98486418 2.89990234 69.11523438 C5.62879694 73.53344468 5.29470915 77.21951939 5.21240234 82.24023438 C3.56240234 82.57023437 1.91240234 82.90023437 0.21240234 83.24023438 C-3.6982911 78.69878392 -3.6982911 78.69878392 -4.18676758 76.19067383 C-4.60377631 74.12176768 -4.60377631 74.12176768 -6.39819336 73.12768555 C-7.07970459 72.84900635 -7.76121582 72.57032715 -8.46337891 72.28320312 C-9.20910156 71.97576172 -9.95482422 71.66832031 -10.72314453 71.3515625 C-11.50753906 71.04669922 -12.29193359 70.74183594 -13.10009766 70.42773438 C-13.87289062 70.10353516 -14.64568359 69.77933594 -15.44189453 69.4453125 C-20.51258402 67.31838257 -20.51258402 67.31838257 -25.78759766 68.24023438 C-27.51785868 69.71913506 -27.51785868 69.71913506 -28.78759766 71.24023438 C-21.9839442 75.80213105 -15.35327929 78.63462258 -7.59619141 81.06445312 C-6.66935547 81.45246094 -5.74251953 81.84046875 -4.78759766 82.24023438 C-4.45759766 83.23023437 -4.12759766 84.22023438 -3.78759766 85.24023438 C-11.21666438 84.88288686 -17.62952865 82.21154346 -24.43945312 79.42236328 C-26.38305127 78.62732054 -28.33258159 77.84866222 -30.28369141 77.07226562 C-36.82257039 74.44609112 -43.27438206 71.64979803 -49.62353516 68.59179688 C-50.76097168 68.04604004 -51.8984082 67.5002832 -53.0703125 66.93798828 C-55.83592298 65.21004082 -56.74622804 64.2733578 -57.78759766 61.24023438 C-54.05350951 58.75084227 -50.12769124 58.60861992 -45.78759766 59.24023438 C-45.10697266 59.75585938 -44.42634766 60.27148438 -43.72509766 60.80273438 C-41.71284693 62.59401849 -41.71284693 62.59401849 -38.22509766 62.24023438 C-34.74325942 61.54337234 -34.74325942 61.54337234 -32.85009766 59.17773438 C-31.48470905 55.40283646 -31.04254839 52.20581919 -31.78759766 48.24023438 C-33.58123677 45.43019977 -34.80640701 43.7308297 -37.78759766 42.24023438 C-43.07556192 41.60203179 -45.78547346 41.83072296 -50.10009766 45.05273438 C-51.98240409 46.59905102 -53.58749948 47.96628293 -55.02587891 49.93554688 C-57.92186402 52.08024538 -61.21555625 51.46732284 -64.66259766 51.30273438 C-69.45259971 51.09769786 -73.39922085 51.02883665 -77.78759766 53.24023438 C-78.08902682 56.57980746 -78.08902682 56.57980746 -76.78759766 60.24023438 C-72.5928868 63.60587297 -67.12160006 65.1146176 -62.15478516 67.03320312 C-61.34388428 67.34644531 -60.5329834 67.6596875 -59.69750977 67.98242188 C-58.059091 68.60886183 -56.41665461 69.22490051 -54.77026367 69.83007812 C-48.89452315 72.02638338 -48.89452315 72.02638338 -47.78759766 74.24023438 C-48.86009766 74.57023437 -49.93259766 74.90023437 -51.03759766 75.24023438 C-55.21410817 76.97691725 -56.42367394 79.56668766 -58.15869141 83.59570312 C-58.36623047 84.13839844 -58.57376953 84.68109375 -58.78759766 85.24023438 C-59.77759766 85.24023438 -60.76759766 85.24023438 -61.78759766 85.24023438 C-61.38551384 79.61106089 -59.49829464 77.23636958 -55.78759766 73.24023438 C-65.08395821 72.36413757 -71.05736972 74.00456405 -78.78759766 79.24023438 C-79.11759766 79.57023437 -79.44759766 79.90023437 -79.78759766 80.24023438 C-68.25005686 85.19899713 -57.2604713 89.42599821 -44.78759766 91.24023438 C-44.78759766 92.23023437 -44.78759766 93.22023438 -44.78759766 94.24023438 C-54.16877724 93.83138122 -62.83926467 92.29793144 -71.91259766 89.92773438 C-73.68957031 89.48397461 -73.68957031 89.48397461 -75.50244141 89.03125 C-95.76931724 83.8583925 -95.76931724 83.8583925 -99.78759766 79.24023438 C-99.28759766 77.30273438 -99.28759766 77.30273438 -97.78759766 75.24023438 C-93.00162164 74.04374037 -90.87628772 73.79309381 -86.28759766 75.67773438 C-85.05009766 76.45117188 -85.05009766 76.45117188 -83.78759766 77.24023438 C-83.19591797 76.8303125 -82.60423828 76.42039062 -81.99462891 75.99804688 C-81.20443359 75.45921875 -80.41423828 74.92039062 -79.60009766 74.36523438 C-78.82279297 73.8315625 -78.04548828 73.29789062 -77.24462891 72.74804688 C-74.81993675 71.26007999 -72.45424775 70.21595359 -69.78759766 69.24023438 C-70.60744141 68.92570312 -71.42728516 68.61117187 -72.27197266 68.28710938 C-73.34962891 67.85914062 -74.42728516 67.43117188 -75.53759766 66.99023438 C-76.60494141 66.57257813 -77.67228516 66.15492187 -78.77197266 65.72460938 C-81.84136391 64.21376912 -83.68274695 62.92468165 -85.78759766 60.24023438 C-85.9662599 54.88036717 -85.01342653 52.17609091 -81.71728516 47.97460938 C-81.17056152 47.27045898 -80.62383789 46.56630859 -80.06054688 45.84082031 C-79.64047363 45.31262695 -79.22040039 44.78443359 -78.78759766 44.24023438 C-79.43720459 44.19535889 -80.08681152 44.1504834 -80.75610352 44.10424805 C-83.74676374 43.89076239 -86.73579017 43.65936467 -89.72509766 43.42773438 C-90.74667969 43.35748047 -91.76826172 43.28722656 -92.82080078 43.21484375 C-107.44284573 42.04694879 -107.44284573 42.04694879 -112.49047852 37.8112793 C-113.78759766 36.24023438 -113.78759766 36.24023438 -114.47509766 33.49023438 C-113.36606626 28.24754051 -110.14501297 26.12002689 -105.78759766 23.24023438 C-74.64840115 6.03667346 -35.09901596 0.09884726 0 0 Z M-62.28759766 38.49023438 C-63.44775391 39.11671875 -63.44775391 39.11671875 -64.63134766 39.75585938 C-66.95653485 41.35653172 -68.29802529 42.85309917 -69.78759766 45.24023438 C-69.78759766 45.90023437 -69.78759766 46.56023438 -69.78759766 47.24023438 C-66.50016218 47.909472 -66.50016218 47.909472 -62.78759766 47.24023438 C-61.1455078 45.37164937 -60.0694794 43.48936493 -58.92822266 41.28320312 C-57.77290283 39.21391454 -56.53097706 37.82831274 -54.78759766 36.24023438 C-58.12812167 36.24023438 -59.40734789 36.89649617 -62.28759766 38.49023438 Z M-73.51416016 42.77148438 C-74.45388672 43.74601562 -74.45388672 43.74601562 -75.41259766 44.74023438 C-76.04423828 45.38992187 -76.67587891 46.03960937 -77.32666016 46.70898438 C-77.80876953 47.21429688 -78.29087891 47.71960937 -78.78759766 48.24023438 C-77.79759766 48.57023437 -76.80759766 48.90023437 -75.78759766 49.24023438 C-73.12024493 46.75070516 -71.23013423 44.60615304 -69.78759766 41.24023438 C-71.92283859 41.01906007 -71.92283859 41.01906007 -73.51416016 42.77148438 Z M-0.78759766 75.24023438 C-0.78759766 75.90023437 -0.78759766 76.56023437 -0.78759766 77.24023438 C-0.12759766 76.91023438 0.53240234 76.58023438 1.21240234 76.24023438 C0.55240234 75.91023438 -0.10759766 75.58023438 -0.78759766 75.24023438 Z " fill="#fff" transform="translate(240.78759765625,7.759765625)"/>
<path d="M0 0 C2.64 0 5.28 0 8 0 C7.36051919 7.54587353 5.78232739 14.63821297 4 22 C11.59 22 19.18 22 27 22 C27.28875 20.040625 27.5775 18.08125 27.875 16.0625 C28.70539215 10.64122555 29.73409943 5.33486669 31 0 C33.64 0 36.28 0 39 0 C37.65220495 10.30710191 35.86680848 20.49301877 33.91333008 30.69946289 C33.43101349 33.2214169 32.95445145 35.74441296 32.47851562 38.26757812 C32.17220808 39.88027163 31.86557969 41.49290424 31.55859375 43.10546875 C31.41691269 43.85539597 31.27523163 44.60532318 31.1292572 45.37797546 C30.56192808 48.33046013 29.95207195 51.14378415 29 54 C26.36 54 23.72 54 21 54 C22.98 41.625 22.98 41.625 25 29 C17.74 29.33 10.48 29.66 3 30 C1.35 37.92 -0.3 45.84 -2 54 C-4.64 54 -7.28 54 -10 54 C-8.39099892 42.47777938 -6.12937799 31.09694856 -3.875 19.6875 C-3.49845514 17.77153207 -3.12215126 15.85551677 -2.74609375 13.93945312 C-1.83350375 9.29241842 -0.91766449 4.64603517 0 0 Z " fill="#fff" transform="translate(16,87)"/>
<path d="M0 0 C2.31650312 1.85320249 3.79928109 3.11969049 5.1875 5.75 C5.60009969 9.53216379 5.51267815 11.99695586 4 15.5 C0.34984392 20.03122823 -3.75110891 21.17504895 -9.375 21.9375 C-10.49003906 22.09605469 -11.60507813 22.25460938 -12.75390625 22.41796875 C-15.8125 22.75 -15.8125 22.75 -19.8125 22.75 C-19.565 24.02875 -19.3175 25.3075 -19.0625 26.625 C-18.92328125 27.34429687 -18.7840625 28.06359375 -18.640625 28.8046875 C-17.95578106 30.88391521 -17.95578106 30.88391521 -16.015625 32.02734375 C-13.50521674 32.85079327 -11.91675948 32.80762592 -9.3125 32.4375 C-8.5596875 32.33824219 -7.806875 32.23898438 -7.03125 32.13671875 C-4.92428366 31.76948342 -2.87871118 31.29942434 -0.8125 30.75 C-0.4825 32.73 -0.1525 34.71 0.1875 36.75 C-5.62552296 40.73607289 -11.96957487 40.53354105 -18.8125 39.75 C-23.45536915 37.58866436 -25.55066947 35.27366106 -27.8125 30.75 C-28.89526417 22.45942337 -28.19060509 14.86451424 -23.55859375 7.8515625 C-17.78935028 0.40027802 -9.21128283 -4.09390348 0 0 Z M-12.5 6.3125 C-15.56644845 8.31383251 -17.2980161 10.36468306 -18.8125 13.75 C-18.8125 14.41 -18.8125 15.07 -18.8125 15.75 C-10.79592549 16.29486772 -10.79592549 16.29486772 -3.8125 12.75 C-2.51616379 11.68354885 -2.51616379 11.68354885 -2.75 9.1875 C-2.770625 8.383125 -2.79125 7.57875 -2.8125 6.75 C-6.6055859 4.8997142 -8.78769927 4.32997344 -12.5 6.3125 Z " fill="#fff" transform="translate(83.8125,102.25)"/>
<path d="M0 0 C2.31 0 4.62 0 7 0 C6.56437623 10.41004683 4.55276495 20.48276379 2.56152344 30.68481445 C1.99538061 33.58617335 1.4383528 36.48917221 0.8828125 39.39257812 C0.5265619 41.24228777 0.16980952 43.09190086 -0.1875 44.94140625 C-0.35419189 45.80697647 -0.52088379 46.67254669 -0.69262695 47.56434631 C-0.84948975 48.366259 -1.00635254 49.16817169 -1.16796875 49.99438477 C-1.30485107 50.69765396 -1.4417334 51.40092316 -1.58276367 52.12550354 C-2 54 -2 54 -3 57 C-5.64 57 -8.28 57 -11 57 C-8.53839906 42.41402506 -6.02767115 27.84201512 -3.25 13.3125 C-3.03964111 12.20342285 -2.82928223 11.0943457 -2.61254883 9.95166016 C-2.41556396 8.93249512 -2.2185791 7.91333008 -2.015625 6.86328125 C-1.84321289 5.96907471 -1.67080078 5.07486816 -1.49316406 4.15356445 C-1 2 -1 2 0 0 Z " fill="#fff" transform="translate(102,84)"/>
<path d="M0 0 C0.99 0 1.98 0 3 0 C2.67 4.95 2.34 9.9 2 15 C2.99 14.34 3.98 13.68 5 13 C11.90410959 12.34246575 11.90410959 12.34246575 15.5 14.5 C18.82019794 20.03366324 16.73957867 27.4696173 15.5 33.5 C15.35691406 34.22703125 15.21382812 34.9540625 15.06640625 35.703125 C14.71766302 37.47009071 14.35980277 39.23525309 14 41 C12.68 41 11.36 41 10 41 C10.84780158 31.7102593 10.84780158 31.7102593 11.5625 28.375 C12.20306053 24.89767142 12.05988279 21.53308474 12 18 C8.93855664 17.03783209 7.41196803 16.8430598 4.375 18 C-2.04013685 23.40222051 -2.47865105 33.22061993 -4 41 C-5.32 41 -6.64 41 -8 41 C-6.68544961 32.06050306 -5.15455467 23.18309996 -3.4375 14.3125 C-3.10588867 12.56549805 -3.10588867 12.56549805 -2.76757812 10.78320312 C-2.55423828 9.67525391 -2.34089844 8.56730469 -2.12109375 7.42578125 C-1.9295874 6.42973877 -1.73808105 5.43369629 -1.54077148 4.4074707 C-1 2 -1 2 0 0 Z " fill="#fff" transform="translate(228,100)"/>
<path d="M0 0 C2.64 0 5.28 0 8 0 C7.26993233 7.7154879 5.93262367 15.26162848 4.5 22.875 C4.27441406 24.09703125 4.04882812 25.3190625 3.81640625 26.578125 C2.13375235 35.59874295 2.13375235 35.59874295 1 39 C-1.64 39 -4.28 39 -7 39 C-5.68445403 30.01353712 -4.12186693 21.09956821 -2.375 12.1875 C-2.14554687 11.00607422 -1.91609375 9.82464844 -1.6796875 8.60742188 C-1.12203522 5.7378362 -0.56211508 2.86871417 0 0 Z " fill="#fff" transform="translate(116,102)"/>
<path d="M0 0 C1.7421875 1.31640625 1.7421875 1.31640625 3 3 C3.48034584 6.77414592 3.59589807 9.04138136 1.5625 12.3125 C-3.29654309 15.51235764 -9.23307103 16.37205993 -15 16 C-13.90213575 21.40787385 -13.90213575 21.40787385 -10 25 C-7.70285813 25.02639829 -7.70285813 25.02639829 -5.3125 24.625 C-4.50425781 24.51414063 -3.69601563 24.40328125 -2.86328125 24.2890625 C-2.24839844 24.19367188 -1.63351563 24.09828125 -1 24 C-0.67 24.99 -0.34 25.98 0 27 C-4.31109776 29.44393297 -8.13197526 29.72022469 -13 29 C-16.49890004 26.88608123 -17.70578686 25.88263941 -19 22 C-19.78736781 15.45581179 -18.78569427 10.42498244 -15 5 C-11.02934702 0.02763214 -6.14076226 -1.4036028 0 0 Z M-10.3125 5.1875 C-13.22444296 8.16778559 -13.22444296 8.16778559 -14 12 C-8.36130698 12.28900646 -8.36130698 12.28900646 -3 10.8125 C-0.71782146 9.14402846 -0.71782146 9.14402846 -0.6875 6.3125 C-0.790625 5.549375 -0.89375 4.78625 -1 4 C-5.26088081 2.68115594 -6.49898286 2.66913962 -10.3125 5.1875 Z " fill="#fff" transform="translate(192,113)"/>
<path d="M0 0 C6.6 0 13.2 0 20 0 C18.91807492 4.32770031 17.85921372 5.57358268 14.875 8.75 C14.06675781 9.62140625 13.25851563 10.4928125 12.42578125 11.390625 C11.62527344 12.25171875 10.82476562 13.1128125 10 14 C8.68120545 15.49446887 7.36798097 16.99388722 6.0625 18.5 C4.41582723 20.39970759 2.77871894 22.22128106 1 24 C7.93 24.495 7.93 24.495 15 25 C15 25.99 15 26.98 15 28 C8.07 28 1.14 28 -6 28 C-3.76359681 22.40899202 -3.76359681 22.40899202 -0.8125 19.6875 C3.90981981 15.17264613 8.3697702 10.44534469 12 5 C8.04 4.67 4.08 4.34 0 4 C0 2.68 0 1.36 0 0 Z " fill="#fff" transform="translate(154,113)"/>
<path d="M0 0 C0.66 0.33 1.32 0.66 2 1 C1.67 1.99 1.34 2.98 1 4 C-0.19625 3.9175 -1.3925 3.835 -2.625 3.75 C-7.13355702 3.76595949 -9.57091806 4.96964852 -13 8 C-16.21516206 12.71557102 -16.72614123 16.4631731 -16 22 C-14.09235783 24.29574678 -14.09235783 24.29574678 -11 25 C-8.22323662 24.92814291 -5.7494613 24.51261143 -3 24 C-3 25.32 -3 26.64 -3 28 C-7.0506293 29.35020977 -10.76461089 29.55728804 -15 29 C-17.87029869 27.20606332 -19.49131638 26.01736724 -21 23 C-21.77021155 16.20698667 -21.154202 10.55948101 -17 5 C-12.13162457 -0.30743316 -6.95676735 -0.89026273 0 0 Z " fill="#fff" transform="translate(149,113)"/>
<path d="M0 0 C0.91007812 0.00902344 1.82015625 0.01804687 2.7578125 0.02734375 C3.80582031 0.04474609 3.80582031 0.04474609 4.875 0.0625 C5.205 1.3825 5.535 2.7025 5.875 4.0625 C4.658125 4.000625 3.44125 3.93875 2.1875 3.875 C-2.62972084 3.875 -5.25192644 5.45700838 -8.875 8.5625 C-11.47708007 11.68499609 -11.23298349 14.88390352 -11.1875 18.75 C-11.17847656 19.74386719 -11.16945312 20.73773438 -11.16015625 21.76171875 C-11.14855469 22.52097656 -11.13695312 23.28023437 -11.125 24.0625 C-6.46962607 24.90046731 -2.75421525 25.0786692 1.875 24.0625 C2.205 25.0525 2.535 26.0425 2.875 27.0625 C-1.43178776 29.50398966 -5.26110811 29.79078328 -10.125 29.0625 C-12.99529869 27.26856332 -14.61631638 26.07986724 -16.125 23.0625 C-16.89890656 16.23689786 -16.1792139 10.70711292 -12.125 5.0625 C-7.99412803 1.22669031 -5.56781943 -0.0713823 0 0 Z " fill="#fff" transform="translate(213.125,112.9375)"/>
<path d="M0 0 C2.5 0.25 2.5 0.25 4.5 2.25 C4.125 5.875 4.125 5.875 3.5 9.25 C0.625 9.875 0.625 9.875 -2.5 10.25 C-4.5 8.25 -4.5 8.25 -4.75 5.25 C-4.43608753 1.48305032 -3.83691092 0.38369109 0 0 Z " fill="#fff" transform="translate(122.5,86.75)"/>
</svg>
