<?xml version="1.0" encoding="UTF-8"?>
<svg version="1.1" xmlns="http://www.w3.org/2000/svg" width="1551" height="426">
<path d="M0 0 C23.1 0 46.2 0 70 0 C70.03738281 10.18359375 70.07476563 20.3671875 70.11328125 30.859375 C70.1435671 37.32162805 70.17459834 43.78386337 70.20898438 50.24609375 C70.26339164 60.49689095 70.314808 70.74763897 70.34643555 80.99853516 C70.36948777 88.46550967 70.40296577 95.9323542 70.44870156 103.39922547 C70.47253688 107.34891037 70.49132886 111.2984673 70.49761391 115.24822235 C70.50370901 118.97473158 70.52386599 122.7009138 70.55427551 126.42730141 C70.567102 128.42882595 70.56549798 130.43042717 70.5632782 132.43199158 C70.68293008 144.07181267 72.08977594 154.980197 80 164 C88.77486053 172.44163798 99.14601383 174 111 174 C121.02722907 173.18145069 130.24310314 169.69627032 137 162 C143.7196113 151.56504806 144.29884207 140.93511274 144.31884766 128.85131836 C144.32816174 127.44113602 144.33833258 126.03095911 144.34928894 124.62078857 C144.37643636 120.81773528 144.39169271 117.0147187 144.40471697 113.21159434 C144.42041477 109.22773608 144.44718357 105.24395206 144.4727478 101.26014709 C144.51941841 93.72749866 144.55621899 86.19483607 144.58942068 78.66211754 C144.63489641 68.47520349 144.69572619 58.28838166 144.75566864 48.10154438 C144.84961393 32.06774263 144.92313754 16.03391382 145 0 C168.1 0 191.2 0 215 0 C215.08060607 33.33956553 215.08060607 33.33956553 215.09765625 47.41601562 C215.10947821 57.09775943 215.12330081 66.77946817 215.15087891 76.46118164 C215.17096289 83.5154003 215.18375159 90.56959024 215.18817699 97.6238367 C215.19075928 101.35075515 215.19672427 105.07759155 215.21146011 108.80448341 C215.34191565 143.19445321 214.11386684 176.03677157 188.8046875 202.21484375 C168.43703813 222.44065713 141.6933899 227.82302694 113.79785156 228.02294922 C81.09196458 227.75081249 49.03101721 225.33435404 25 201 C24.17371094 200.17242187 23.34742188 199.34484375 22.49609375 198.4921875 C3.01335429 177.98751077 -0.19290032 149.27686638 -0.11352539 122.15332031 C-0.11324252 120.81166587 -0.11340319 119.47001128 -0.1139679 118.12835693 C-0.11425198 114.52586272 -0.1084187 110.92340256 -0.10139394 107.32091618 C-0.09509511 103.54131816 -0.09455148 99.76171916 -0.09336853 95.9821167 C-0.09027432 88.84264989 -0.08208695 81.7031986 -0.07201904 74.56373858 C-0.05869555 64.90364241 -0.05334255 55.24354193 -0.04751682 45.58343887 C-0.03814555 30.38894765 -0.01821396 15.19448916 0 0 Z " fill="#6B7075" transform="translate(706,110)"/>
<path d="M0 0 C6.02104968 2.35773247 11.05501742 5.87918118 16 10 C17.05960937 10.59296875 18.11921875 11.1859375 19.2109375 11.796875 C23.01820483 13.94118659 26.4342792 16.44091919 29.875 19.125 C30.45507812 19.56714844 31.03515625 20.00929688 31.6328125 20.46484375 C35.87141369 23.74282738 35.87141369 23.74282738 37 26 C37.5775 26.268125 38.155 26.53625 38.75 26.8125 C43.5433988 29.34234937 46.69662175 33.81572088 50 38 C50.86625 38.8353125 50.86625 38.8353125 51.75 39.6875 C53 41 53 41 53 43 C53.60666504 43.26103516 54.21333008 43.52207031 54.83837891 43.79101562 C57.17558496 45.09820383 58.10443199 46.14496525 59.5859375 48.34375 C60.03888184 49.00802002 60.49182617 49.67229004 60.95849609 50.35668945 C61.42594238 51.06398193 61.89338867 51.77127441 62.375 52.5 C62.86178223 53.22469482 63.34856445 53.94938965 63.85009766 54.69604492 C84.71764895 85.95556708 92.93799673 119.95522168 86 157 C84.72864974 162.47770984 82.95094727 167.73127413 81 173 C80.63132812 174.01835937 80.26265625 175.03671875 79.8828125 176.0859375 C74.93794568 188.80618112 68.03032384 200.76563298 59 211 C58.20980469 211.92167969 57.41960937 212.84335937 56.60546875 213.79296875 C50.44189324 220.85270225 50.44189324 220.85270225 47 222 C45.90833725 223.93330603 45.90833725 223.93330603 45 226 C44.34 226.66 43.68 227.32 43 228 C54.92604517 219.80671306 69.36487901 209.27024199 76 196 C76.66 196 77.32 196 78 196 C78.3403125 194.7934375 78.3403125 194.7934375 78.6875 193.5625 C80.04542149 189.87671309 81.76579655 186.69784501 83.69921875 183.29296875 C87.13731888 177.23241387 89.46250014 171.80892793 91 165 C91.48726563 163.67742187 91.48726563 163.67742187 91.984375 162.328125 C93.24904935 158.18388445 93.71562494 154.17722086 94.125 149.875 C94.20991699 149.01422852 94.29483398 148.15345703 94.38232422 147.26660156 C95.23028419 137.84520329 95.18094894 128.44955587 95 119 C96.485 118.505 96.485 118.505 98 118 C100.01501211 126.55486251 100.34150534 134.95735863 100.31567383 143.69702148 C100.31250967 145.93067118 100.33607297 148.16299685 100.36132812 150.39648438 C100.39894181 158.97858404 99.56821725 166.7604965 97 175 C96.70988037 176.01731201 96.41976074 177.03462402 96.12084961 178.08276367 C92.8333655 189.43853407 86.53057752 199.93578005 79 209 C78.43410156 209.68707031 77.86820312 210.37414062 77.28515625 211.08203125 C73.79730848 215.19570729 70.23422164 218.66667658 66 222 C65.0925 222.78375 64.185 223.5675 63.25 224.375 C56.34283468 230.0832532 49.12074564 234.67213057 41.0390625 238.5390625 C39.09720804 239.47255038 37.17257231 240.44334951 35.2734375 241.4609375 C21.44057461 248.82547577 6.17288524 253.29873557 -9 257 C-3.6496441 256.42978066 1.67787852 255.79265639 7 255 C7.33 256.32 7.66 257.64 8 259 C6.02 259.66 4.04 260.32 2 261 C10.08618432 261.25656384 17.86984514 260.27408321 25.875 259.1875 C27.82212891 258.9390332 27.82212891 258.9390332 29.80859375 258.68554688 C36.56809798 257.78177865 43.05114296 256.64460661 49.58227539 254.66479492 C52.23048628 253.93662384 54.84478841 253.51111072 57.5625 253.125 C63.37908262 252.21522682 68.92133582 250.72257136 74.57006836 249.10253906 C82.02007611 246.96754672 89.51697341 245.03426171 97.0324707 243.14355469 C101.22044767 242.07116265 105.29914792 240.95186722 109.33203125 239.38671875 C112.48620182 238.19424745 115.24882064 237.44615719 118.5625 236.9375 C121.65117609 236.42977242 124.43697703 235.86493437 127.4375 234.9375 C143.67466202 230.66456263 164.27999408 231.60119782 179 240 C183.21025529 243.56124361 185.87530566 247.9243413 188 253 C188 253.66 188 254.32 188 255 C183.52352442 254.10047181 179.17305606 253.11798695 174.875 251.5625 C153.02562925 244.15337082 128.73749229 245.60220816 107.09716797 253.28735352 C105.06944789 253.97640065 103.05937754 254.51352033 100.9765625 255.0078125 C96.68171581 256.03747174 92.5483056 257.43844524 88.375 258.875 C71.71572375 264.50269521 54.78716835 269.32044935 37.31640625 271.56640625 C34.08955407 271.98829152 30.89558843 272.51788028 27.6875 273.0625 C6.48349147 276.29528401 -15.68202604 275.77914537 -37 274 C-37.33 273.01 -37.66 272.02 -38 271 C-38.62003906 271.12117188 -39.24007813 271.24234375 -39.87890625 271.3671875 C-72.93727568 277.62277415 -106.59608639 278.3832772 -140.0625 275.6875 C-140.81731659 275.62873688 -141.57213318 275.56997375 -142.349823 275.50942993 C-150.7975377 274.83522521 -158.95802383 273.79288244 -167.19018555 271.67016602 C-170.04247415 270.98986953 -172.83892438 270.58649812 -175.75 270.25 C-186.73146456 268.677379 -197.37961726 265.12125416 -208 262 C-208.92514404 261.72986084 -209.85028809 261.45972168 -210.8034668 261.18139648 C-215.08738672 259.91696906 -219.28044227 258.58036921 -223.4375 256.9375 C-227.9571478 255.26636972 -232.31984259 254.25643808 -237.0703125 253.49609375 C-240.30848487 252.94776323 -243.48548225 252.22971153 -246.6875 251.5 C-272.28967139 246.00585211 -301.40754456 245.27033401 -325.078125 258.1171875 C-328.54631048 259.71029709 -332.25890247 260.34184395 -336 261 C-335.64065068 256.20867577 -334.14577624 253.32799386 -331.57421875 249.4375 C-328.13512166 244.11244644 -325.11803346 238.51789918 -322 233 C-321.43394043 231.99960693 -321.43394043 231.99960693 -320.85644531 230.97900391 C-316.67771116 223.58977888 -312.52323479 216.18956062 -308.484375 208.72265625 C-304.49691445 201.40881413 -300.39415719 194.1634694 -296.25 186.9375 C-293.26726277 181.73201444 -290.28612638 176.52628913 -287.359375 171.2890625 C-286.9581543 170.57113525 -286.55693359 169.85320801 -286.14355469 169.11352539 C-285.40763762 167.79361948 -284.67374787 166.47258011 -283.94238281 165.15014648 C-281.79814886 161.3039659 -279.46231283 157.64879019 -277 154 C-275.98709343 152.34114556 -274.98606024 150.67495164 -274 149 C-270.60020362 143.24796354 -267.1031669 137.61156882 -263.36328125 132.07421875 C-261.83630321 129.75093697 -260.46882493 127.35237179 -259.11328125 124.92578125 C-252.50730109 113.49859451 -244.94106271 102.53121024 -237.125 91.90625 C-235.18637116 89.25488996 -233.28102177 86.58361332 -231.38427734 83.90234375 C-227.49934897 78.41915675 -223.55459034 72.98417516 -219.5 67.625 C-219.0786377 67.0592627 -218.65727539 66.49352539 -218.22314453 65.91064453 C-217.19720242 64.56863996 -216.10423173 63.27836058 -215 62 C-214.34 62 -213.68 62 -213 62 C-213 61.01 -213 60.02 -213 59 C-212.34 59 -211.68 59 -211 59 C-210.76796875 58.46246094 -210.5359375 57.92492187 -210.296875 57.37109375 C-208.6217462 54.30843357 -206.48366934 51.72495408 -204.25 49.0625 C-203.62351563 48.29389648 -203.62351563 48.29389648 -202.984375 47.50976562 C-200.77176634 44.85530981 -198.52343241 42.51598262 -195.84375 40.328125 C-193.61825023 38.50614991 -191.95884409 36.95230363 -190.25 34.6875 C-189.13625 33.3571875 -189.13625 33.3571875 -188 32 C-187.34 32 -186.68 32 -186 32 C-185.731875 31.360625 -185.46375 30.72125 -185.1875 30.0625 C-184 28 -184 28 -181 27 C-179.95857508 25.16283343 -179.95857508 25.16283343 -179 23 C-176.76512335 19.57072646 -174.5590544 17.06969541 -171 15 C-165.84480829 14.60906028 -161.08395649 15.15267392 -156 16 C-156 17.32 -156 18.64 -156 20 C-156.61875 20.2475 -157.2375 20.495 -157.875 20.75 C-160.38710296 22.22770762 -160.76107344 23.43955177 -162 26 C-162.99 26.33 -163.98 26.66 -165 27 C-165.68164364 28.32573911 -166.34568942 29.66055986 -167 31 C-168.36985184 32.48217969 -169.79222505 33.91670528 -171.25 35.3125 C-174.5945471 38.57639082 -177.73559049 41.89045165 -180.7109375 45.4921875 C-182.07828581 47.09157068 -183.42941156 48.59738893 -185 50 C-185.66 50 -186.32 50 -187 50 C-187.268125 50.5775 -187.53625 51.155 -187.8125 51.75 C-189.02929189 54.05550043 -190.30333879 56.02056192 -192 58 C-192.66 58 -193.32 58 -194 58 C-194.24878906 58.55558594 -194.49757812 59.11117187 -194.75390625 59.68359375 C-196.22095985 62.41074982 -197.98886002 64.65663723 -199.9375 67.0625 C-200.62714844 67.91972656 -201.31679687 68.77695313 -202.02734375 69.66015625 C-204 72 -204 72 -205.56640625 73.49609375 C-207.43935024 75.46089876 -208.61991386 77.66446962 -210 80 C-211.37373208 81.89125246 -212.77139365 83.76526387 -214.1875 85.625 C-220.49441377 93.97629425 -226.66399127 102.30860424 -232.21875 111.18359375 C-234.09862689 114.15594295 -236.04049977 117.079591 -238 120 C-241.07112008 124.58612769 -244.06524108 129.21195657 -247.01171875 133.87890625 C-248.56267745 136.31351528 -250.12824868 138.73583982 -251.70703125 141.15234375 C-258.09542833 150.905849 -258.09542833 150.905849 -263.88671875 161.01953125 C-265.59541727 164.05921598 -267.57794683 166.90240477 -269.5703125 169.76171875 C-271.07229414 172.02384337 -271.07229414 172.02384337 -272.328125 174.68359375 C-274.53337645 179.05802945 -277.07892408 183.19230407 -279.625 187.375 C-283.44907472 193.6992308 -287.21163887 200.04585041 -290.8125 206.5 C-291.17174561 207.14243652 -291.53099121 207.78487305 -291.90112305 208.44677734 C-293.27878302 210.91266493 -294.65467497 213.37952996 -296.02832031 215.84765625 C-296.99049572 217.56934596 -297.96371238 219.28485143 -298.9375 221 C-299.48277344 221.969375 -300.02804687 222.93875 -300.58984375 223.9375 C-301.05519531 224.618125 -301.52054688 225.29875 -302 226 C-302.66 226 -303.32 226 -304 226 C-304.0825 226.680625 -304.165 227.36125 -304.25 228.0625 C-305.22332528 231.8746907 -306.95807455 234.64070329 -309 238 C-308.17717529 237.71632568 -307.35435059 237.43265137 -306.5065918 237.14038086 C-297.88352492 234.39413134 -289.91586764 233.39493741 -280.8762207 233.53344727 C-278.80274243 233.56263737 -276.73180365 233.5539497 -274.65820312 233.54101562 C-267.58032489 233.55327474 -261.13697924 234.08307256 -254.37524414 236.27978516 C-251.79684865 237.06159898 -249.29356937 237.4599518 -246.625 237.8125 C-238.87948931 239.00177133 -231.45347385 241.3472219 -223.953125 243.5625 C-216.10660573 245.86915141 -208.1514715 247.68436236 -200.1796875 249.5 C-197.04168192 250.22765347 -194.01137871 250.9961438 -190.95703125 252.03125 C-187.4564189 253.17808205 -183.93113513 253.8599338 -180.3125 254.5 C-179.60335449 254.62890625 -178.89420898 254.7578125 -178.16357422 254.890625 C-176.74788085 255.14761495 -175.3318716 255.40287185 -173.91552734 255.65625 C-171.48321015 256.09274026 -169.05447744 256.5480042 -166.625 257 C-164.75005282 257.33363031 -162.87504722 257.6669324 -161 258 C-159.7934375 258.22558594 -158.586875 258.45117188 -157.34375 258.68359375 C-152.5766141 259.55278422 -147.79352999 260.2923796 -143 261 C-142.06655762 261.14115234 -141.13311523 261.28230469 -140.17138672 261.42773438 C-114.59090977 265.12329601 -88.77553128 264.29887228 -63 264 C-63.55709152 263.94890579 -64.11418304 263.89781158 -64.68815613 263.84516907 C-67.26523308 263.60602585 -69.84157646 263.3596871 -72.41796875 263.11328125 C-73.29384644 263.03307739 -74.16972412 262.95287354 -75.07214355 262.87023926 C-95.67711706 260.87682344 -114.57036232 254.21481884 -133 245 C-133 244.34 -133 243.68 -133 243 C-133.72574219 242.90074219 -134.45148438 242.80148437 -135.19921875 242.69921875 C-138.35671412 241.91094585 -140.19480773 240.72819402 -142.8125 238.8125 C-143.67875 238.1834375 -144.545 237.554375 -145.4375 236.90625 C-146.283125 236.2771875 -147.12875 235.648125 -148 235 C-148.7425 234.4534375 -149.485 233.906875 -150.25 233.34375 C-152.17914663 231.91150478 -154.09131262 230.45933273 -156 229 C-156.886875 228.34 -157.77375 227.68 -158.6875 227 C-161.48304041 224.58223532 -163.66451631 221.86096752 -166 219 C-166.7425 218.2575 -167.485 217.515 -168.25 216.75 C-170.77529128 214.22470872 -173.24957751 211.67205224 -175.6875 209.0625 C-176.45449219 208.24910156 -177.22148437 207.43570313 -178.01171875 206.59765625 C-180.15200087 203.8014134 -181.08050359 201.37804295 -182 198 C-182.66 198 -183.32 198 -184 198 C-196.34723649 175.57276151 -196.34723649 175.57276151 -199 163 C-199.36931641 161.60007812 -199.36931641 161.60007812 -199.74609375 160.171875 C-203.44219572 145.24598953 -203.49139327 129.94438415 -202.25 114.6875 C-202.17628174 113.75172119 -202.10256348 112.81594238 -202.02661133 111.85180664 C-201.52189413 106.60114255 -200.53178278 101.93354039 -198.67944336 96.98974609 C-197.98904054 94.96790529 -197.62281045 93.04782619 -197.3125 90.9375 C-195.73690758 83.46320205 -191.58836365 76.67706159 -188 70 C-187.65598145 69.35740234 -187.31196289 68.71480469 -186.95751953 68.05273438 C-178.76685622 52.891545 -178.76685622 52.891545 -173 47 C-172.34 47 -171.68 47 -171 47 C-170.7834375 46.46761719 -170.566875 45.93523437 -170.34375 45.38671875 C-168.5056702 42.12198979 -166.04637095 39.52923794 -163.5 36.8125 C-162.69804199 35.95192993 -162.69804199 35.95192993 -161.87988281 35.07397461 C-142.16299485 14.15476603 -142.16299485 14.15476603 -133.7421875 13.90234375 C-131.82792969 13.91974609 -131.82792969 13.91974609 -129.875 13.9375 C-128.59367188 13.94652344 -127.31234375 13.95554687 -125.9921875 13.96484375 C-124.51105469 13.98224609 -124.51105469 13.98224609 -123 14 C-123 15.32 -123 16.64 -123 18 C-124.765625 19.53515625 -124.765625 19.53515625 -127.25 21.0625 C-132.29351541 24.36736765 -136.55911175 28.1034119 -140.88769531 32.26782227 C-143.4650491 34.71787251 -145.78926739 36.49633111 -149 38 C-150.26804566 40.0335948 -150.26804566 40.0335948 -151 42 C-151.66 42 -152.32 42 -153 42 C-153.23976562 42.54914063 -153.47953125 43.09828125 -153.7265625 43.6640625 C-155.30029822 46.55085379 -157.25610608 48.86189325 -159.375 51.375 C-164.44440563 57.39385952 -168.55136843 63.81865822 -172.5625 70.5625 C-173.14161133 71.53219727 -173.14161133 71.53219727 -173.73242188 72.52148438 C-174.48511329 73.78195399 -175.2359091 75.04355789 -175.98461914 76.30639648 C-176.8323116 77.7203043 -177.70952534 79.116459 -178.59375 80.5078125 C-192.46324485 105.08763949 -192.29220179 136.34784345 -186 163 C-183.21144104 172.77706409 -179.50124507 182.41871653 -174 191 C-173.46632812 191.88816406 -172.93265625 192.77632812 -172.3828125 193.69140625 C-169.09209843 199.06623924 -165.6186589 203.86027488 -161.28515625 208.44140625 C-160 210 -160 210 -160 212 C-159.443125 212.226875 -158.88625 212.45375 -158.3125 212.6875 C-154.31561114 214.95600449 -151.46033351 217.61899946 -150 222 C-148.6881404 222.70798772 -147.34913859 223.36592801 -146 224 C-144.16762691 225.3484028 -142.35738506 226.72708409 -140.5625 228.125 C-109.29412906 251.89858295 -72.25084276 259.61532236 -33.66357422 254.48095703 C-20.07908772 252.43978813 1.92606068 248.07393932 12 238 C13.32 238 14.64 238 16 238 C16 237.34 16 236.68 16 236 C17.51958587 234.95547504 19.09481215 233.99175725 20.6875 233.0625 C31.6602866 226.26982258 43.80801866 216.787972 51 206 C51.66 206 52.32 206 53 206 C53.09023438 205.43925781 53.18046875 204.87851562 53.2734375 204.30078125 C54.19657988 201.37749706 55.71681511 199.58562425 57.625 197.1875 C61.01354317 192.6551706 63.62835053 188.110119 66 183 C66.30244629 182.35313232 66.60489258 181.70626465 66.91650391 181.03979492 C68.20302136 178.18074163 69 176.17064936 69 173 C67.89205078 173.433125 67.89205078 173.433125 66.76171875 173.875 C54.88455181 178.22140925 45.67922585 178.13660977 34 173 C33.34 172.34 32.68 171.68 32 171 C31.84144531 171.60585938 31.68289063 172.21171875 31.51953125 172.8359375 C28.6366516 183.18882022 23.9767882 192.74032631 17 201 C16.34 201 15.68 201 15 201 C14.61134766 201.90105469 14.61134766 201.90105469 14.21484375 202.8203125 C12.08702565 206.63806974 8.57855606 208.61626762 5 211 C4.25105469 211.50917969 3.50210937 212.01835937 2.73046875 212.54296875 C-16.21379881 224.14819722 -38.66583458 223.99829797 -59.62158203 219.27636719 C-69.55473107 216.82635893 -79.91582097 213.47465923 -88 207 C-89.65532623 205.98133771 -91.32260138 204.98189187 -93 204 C-93.886875 203.443125 -94.77375 202.88625 -95.6875 202.3125 C-97.84672765 200.83546483 -97.84672765 200.83546483 -100 201 C-100.495 201.825 -100.99 202.65 -101.5 203.5 C-101.995 204.325 -102.49 205.15 -103 206 C-103.66 206 -104.32 206 -105 206 C-105.24105469 206.60585938 -105.48210937 207.21171875 -105.73046875 207.8359375 C-107.27156589 210.4629154 -108.63097565 211.22790328 -111.3125 212.625 C-112.07175781 213.02976562 -112.83101562 213.43453125 -113.61328125 213.8515625 C-114.40089844 214.23054687 -115.18851563 214.60953125 -116 215 C-116.75667969 215.37253906 -117.51335937 215.74507812 -118.29296875 216.12890625 C-121.86822996 217.27938713 -125.28423475 217.32963914 -129 217.3125 C-129.69867188 217.32861328 -130.39734375 217.34472656 -131.1171875 217.36132812 C-135.56759375 217.36552662 -138.49911295 216.81028237 -142 214 C-142 213.34 -142 212.68 -142 212 C-140.37191406 211.72736328 -140.37191406 211.72736328 -138.7109375 211.44921875 C-137.26553863 211.19580466 -135.82023082 210.94187075 -134.375 210.6875 C-133.66214844 210.56955078 -132.94929687 210.45160156 -132.21484375 210.33007812 C-127.66455664 209.51603594 -124.12845722 208.16108391 -120 206 C-119.01 206 -118.02 206 -117 206 C-116.7525 205.4225 -116.505 204.845 -116.25 204.25 C-114.81700012 201.67060021 -113.21575324 199.93878408 -111 198 C-110.34 198 -109.68 198 -109 198 C-108.7218042 197.2778833 -108.4436084 196.5557666 -108.15698242 195.81176758 C-107 193 -107 193 -105.7746582 190.5690918 C-102.15767198 183.37836666 -100.92038652 176.78089033 -100.1875 168.8125 C-100.06697266 167.66974609 -99.94644531 166.52699219 -99.82226562 165.34960938 C-99.53126728 162.56766517 -99.25751549 159.78520801 -99 157 C-98.34 157 -97.68 157 -97 157 C-93.68033098 170.1798764 -93.01775121 181.71301655 -96 195 C-90.82957298 196.81418492 -85.64288488 198.55687934 -80.42236328 200.22167969 C-78.34599933 200.88882827 -76.27932032 201.58598998 -74.21484375 202.2890625 C-50.40448938 209.24939743 -21.78488346 207.06836793 0.28735352 195.97436523 C2.73939602 194.57934005 4.83263098 192.79582004 7 191 C7.99 190.67 8.98 190.34 10 190 C13.75392508 186.55890201 17.03376235 182.72544378 20.3515625 178.8671875 C22 177 22 177 23.609375 175.421875 C26.01646888 172.96068912 26.61676635 171.44910282 27 168 C25.49745978 165.55610929 23.75095573 163.47999736 21.88671875 161.30078125 C14.28099453 152.02589188 11.47690964 138.76953313 12 127 C12.99 127.33 13.98 127.66 15 128 C15.69517657 129.52938846 16.37390943 131.06768269 16.984375 132.6328125 C20.09446584 139.88171653 24.05914977 149.05914977 29.6875 154.6875 C30.120625 155.120625 30.55375 155.55375 31 156 C31 156.66 31 157.32 31 158 C31.804375 158.3403125 31.804375 158.3403125 32.625 158.6875 C35 160 35 160 37.625 162.375 C44.60171907 168.23822774 52.00865183 169.44570626 60.921875 169.3359375 C64.18275896 168.98005422 66.90528533 168.05693807 70 167 C71.32 167 72.64 167 74 167 C73.9071875 165.576875 73.9071875 165.576875 73.8125 164.125 C73.79610814 160.05981762 74.90910521 156.6310528 76.24609375 152.8203125 C80.10558256 138.38222483 79.19248638 120.42861161 76 106 C75.8551416 105.34241699 75.7102832 104.68483398 75.56103516 104.00732422 C75.07835819 101.85471289 74.57600163 99.70795871 74.0625 97.5625 C73.90491211 96.89943848 73.74732422 96.23637695 73.58496094 95.55322266 C72.52721238 91.37628172 71.00080497 87.80309666 69 84 C67.9784772 81.50252698 67.01905595 78.98776008 66.0625 76.46484375 C64.08903616 71.88669786 61.28895935 67.88337393 58.4375 63.8125 C57.83808594 62.95269531 57.23867188 62.09289062 56.62109375 61.20703125 C55.04366269 58.94279656 55.04366269 58.94279656 53 57 C53 56.01 53 55.02 53 54 C52.01 53.67 51.02 53.34 50 53 C48.2109375 51.2578125 48.2109375 51.2578125 46.375 49.125 C45.76398438 48.42632812 45.15296875 47.72765625 44.5234375 47.0078125 C43 45 43 45 42 42 C40.68411677 41.29951906 39.3474577 40.63763623 38 40 C36.63333895 38.85101279 35.30257311 37.65866229 34 36.4375 C28.61814329 31.55936387 22.87309871 27.26572433 17 23 C15.74703125 22.08734375 15.74703125 22.08734375 14.46875 21.15625 C7.03574037 15.84695741 -0.7540298 11.11454902 -8.60546875 6.453125 C-10.43480881 5.35228319 -12.22355065 4.18429956 -14 3 C-14 2.34 -14 1.68 -14 1 C-9.73242842 -1.13378579 -4.62018442 -0.58297138 0 0 Z M-17 258 C-17 258.33 -17 258.66 -17 259 C-15.35 259 -13.7 259 -12 259 C-12 258.67 -12 258.34 -12 258 C-13.65 258 -15.3 258 -17 258 Z M-26 259 C-26 259.33 -26 259.66 -26 260 C-24.02 260 -22.04 260 -20 260 C-20 259.67 -20 259.34 -20 259 C-21.98 259 -23.96 259 -26 259 Z M-13 264 C-13 264.33 -13 264.66 -13 265 C-11.56163249 264.88541307 -10.12429034 264.75790884 -8.6875 264.625 C-7.88699219 264.55539062 -7.08648437 264.48578125 -6.26171875 264.4140625 C-3.72775559 264.10435574 -3.72775559 264.10435574 -1 262 C-5.33168317 261.73747375 -8.8803623 262.70756464 -13 264 Z " fill="#243E46" transform="translate(382,101)"/>
<path d="M0 0 C0 1.32 0 2.64 0 4 C-0.928125 4.37125 -0.928125 4.37125 -1.875 4.75 C-4.38710296 6.22770762 -4.76107344 7.43955177 -6 10 C-6.99 10.33 -7.98 10.66 -9 11 C-9.68164364 12.32573911 -10.34568942 13.66055986 -11 15 C-12.36985184 16.48217969 -13.79222505 17.91670528 -15.25 19.3125 C-18.5945471 22.57639082 -21.73559049 25.89045165 -24.7109375 29.4921875 C-26.07828581 31.09157068 -27.42941156 32.59738893 -29 34 C-29.66 34 -30.32 34 -31 34 C-31.268125 34.5775 -31.53625 35.155 -31.8125 35.75 C-33.02929189 38.05550043 -34.30333879 40.02056192 -36 42 C-36.66 42 -37.32 42 -38 42 C-38.24878906 42.55558594 -38.49757812 43.11117187 -38.75390625 43.68359375 C-40.22095985 46.41074982 -41.98886002 48.65663723 -43.9375 51.0625 C-44.62714844 51.91972656 -45.31679687 52.77695313 -46.02734375 53.66015625 C-48 56 -48 56 -49.56640625 57.49609375 C-51.43935024 59.46089876 -52.61991386 61.66446962 -54 64 C-55.37373208 65.89125246 -56.77139365 67.76526387 -58.1875 69.625 C-64.49441377 77.97629425 -70.66399127 86.30860424 -76.21875 95.18359375 C-78.09862689 98.15594295 -80.04049977 101.079591 -82 104 C-85.07112008 108.58612769 -88.06524108 113.21195657 -91.01171875 117.87890625 C-92.56267745 120.31351528 -94.12824868 122.73583982 -95.70703125 125.15234375 C-102.09542833 134.905849 -102.09542833 134.905849 -107.88671875 145.01953125 C-109.59541727 148.05921598 -111.57794683 150.90240477 -113.5703125 153.76171875 C-115.07229414 156.02384337 -115.07229414 156.02384337 -116.328125 158.68359375 C-118.53337645 163.05802945 -121.07892408 167.19230407 -123.625 171.375 C-127.44907472 177.6992308 -131.21163887 184.04585041 -134.8125 190.5 C-135.17174561 191.14243652 -135.53099121 191.78487305 -135.90112305 192.44677734 C-137.27878302 194.91266493 -138.65467497 197.37952996 -140.02832031 199.84765625 C-140.99049572 201.56934596 -141.96371238 203.28485143 -142.9375 205 C-143.48277344 205.969375 -144.02804688 206.93875 -144.58984375 207.9375 C-145.05519531 208.618125 -145.52054688 209.29875 -146 210 C-146.66 210 -147.32 210 -148 210 C-148.0825 210.680625 -148.165 211.36125 -148.25 212.0625 C-149.22332528 215.8746907 -150.95807455 218.64070329 -153 222 C-152.17717529 221.71632568 -151.35435059 221.43265137 -150.5065918 221.14038086 C-141.88352492 218.39413134 -133.91586764 217.39493741 -124.8762207 217.53344727 C-122.80274243 217.56263737 -120.73180365 217.5539497 -118.65820312 217.54101562 C-111.58032489 217.55327474 -105.13697924 218.08307256 -98.37524414 220.27978516 C-95.79684865 221.06159898 -93.29356937 221.4599518 -90.625 221.8125 C-82.87948931 223.00177133 -75.45347385 225.3472219 -67.953125 227.5625 C-60.10660573 229.86915141 -52.1514715 231.68436236 -44.1796875 233.5 C-41.04168192 234.22765347 -38.01137871 234.9961438 -34.95703125 236.03125 C-31.4564189 237.17808205 -27.93113513 237.8599338 -24.3125 238.5 C-23.60335449 238.62890625 -22.89420898 238.7578125 -22.16357422 238.890625 C-20.74788085 239.14761495 -19.3318716 239.40287185 -17.91552734 239.65625 C-15.48321015 240.09274026 -13.05447744 240.5480042 -10.625 241 C-8.75005282 241.33363031 -6.87504722 241.6669324 -5 242 C-3.7934375 242.22558594 -2.586875 242.45117188 -1.34375 242.68359375 C3.4233859 243.55278422 8.20647001 244.2923796 13 245 C13.93344238 245.14115234 14.86688477 245.28230469 15.82861328 245.42773438 C33.13665033 247.92819274 50.29099193 248.27117594 67.75 248.25 C68.81330536 248.24922455 69.87661072 248.2484491 70.97213745 248.24765015 C82.76222197 248.22276384 94.5449425 248.01675875 106.328125 247.609375 C107.32237488 247.579505 108.31662476 247.54963501 109.34100342 247.51885986 C115.47020986 247.27929392 121.36083216 246.55063204 127.39318848 245.43515015 C130.74873407 244.87501523 133.85064108 244.80110089 137.25 244.875 C138.34828125 244.89304687 139.4465625 244.91109375 140.578125 244.9296875 C141.37734375 244.95289063 142.1765625 244.97609375 143 245 C143.33 244.01 143.66 243.02 144 242 C146.60356241 241.49666458 149.20776651 240.99720622 151.8125 240.5 C152.55048828 240.35691406 153.28847656 240.21382812 154.04882812 240.06640625 C157.07794391 239.49073719 159.909196 239 163 239 C163.33 240.32 163.66 241.64 164 243 C162.02 243.66 160.04 244.32 158 245 C166.08618432 245.25656384 173.86984514 244.27408321 181.875 243.1875 C183.82212891 242.9390332 183.82212891 242.9390332 185.80859375 242.68554688 C192.56809798 241.78177865 199.05114296 240.64460661 205.58227539 238.66479492 C208.23048628 237.93662384 210.84478841 237.51111072 213.5625 237.125 C219.37908262 236.21522682 224.92133582 234.72257136 230.57006836 233.10253906 C238.02007611 230.96754672 245.51697341 229.03426171 253.0324707 227.14355469 C257.22044767 226.07116265 261.29914792 224.95186722 265.33203125 223.38671875 C268.48620182 222.19424745 271.24882064 221.44615719 274.5625 220.9375 C277.65117609 220.42977242 280.43697703 219.86493437 283.4375 218.9375 C299.67466202 214.66456263 320.27999408 215.60119782 335 224 C339.21025529 227.56124361 341.87530566 231.9243413 344 237 C344 237.66 344 238.32 344 239 C339.52352442 238.10047181 335.17305606 237.11798695 330.875 235.5625 C309.02562925 228.15337082 284.73749229 229.60220816 263.09716797 237.28735352 C261.06944789 237.97640065 259.05937754 238.51352033 256.9765625 239.0078125 C252.68171581 240.03747174 248.5483056 241.43844524 244.375 242.875 C227.71572375 248.50269521 210.78716835 253.32044935 193.31640625 255.56640625 C190.08955407 255.98829152 186.89558843 256.51788028 183.6875 257.0625 C162.48349147 260.29528401 140.31797396 259.77914537 119 258 C118.67 257.01 118.34 256.02 118 255 C117.37996094 255.12117188 116.75992187 255.24234375 116.12109375 255.3671875 C83.06272432 261.62277415 49.40391361 262.3832772 15.9375 259.6875 C15.18268341 259.62873688 14.42786682 259.56997375 13.650177 259.50942993 C5.2024623 258.83522521 -2.95802383 257.79288244 -11.19018555 255.67016602 C-14.04247415 254.98986953 -16.83892438 254.58649812 -19.75 254.25 C-30.73146456 252.677379 -41.37961726 249.12125416 -52 246 C-52.92514404 245.72986084 -53.85028809 245.45972168 -54.8034668 245.18139648 C-59.08738672 243.91696906 -63.28044227 242.58036921 -67.4375 240.9375 C-71.9571478 239.26636972 -76.31984259 238.25643808 -81.0703125 237.49609375 C-84.30848487 236.94776323 -87.48548225 236.22971153 -90.6875 235.5 C-116.28967139 230.00585211 -145.40754456 229.27033401 -169.078125 242.1171875 C-172.54631048 243.71029709 -176.25890247 244.34184395 -180 245 C-179.64065068 240.20867577 -178.14577624 237.32799386 -175.57421875 233.4375 C-172.13512166 228.11244644 -169.11803346 222.51789918 -166 217 C-165.43394043 215.99960693 -165.43394043 215.99960693 -164.85644531 214.97900391 C-160.67771116 207.58977888 -156.52323479 200.18956062 -152.484375 192.72265625 C-148.49691445 185.40881413 -144.39415719 178.1634694 -140.25 170.9375 C-137.26726277 165.73201444 -134.28612638 160.52628913 -131.359375 155.2890625 C-130.9581543 154.57113525 -130.55693359 153.85320801 -130.14355469 153.11352539 C-129.40763762 151.79361948 -128.67374787 150.47258011 -127.94238281 149.15014648 C-125.79814886 145.3039659 -123.46231283 141.64879019 -121 138 C-119.98709343 136.34114556 -118.98606024 134.67495164 -118 133 C-114.60020362 127.24796354 -111.1031669 121.61156882 -107.36328125 116.07421875 C-105.83630321 113.75093697 -104.46882493 111.35237179 -103.11328125 108.92578125 C-96.50730109 97.49859451 -88.94106271 86.53121024 -81.125 75.90625 C-79.18637116 73.25488996 -77.28102177 70.58361332 -75.38427734 67.90234375 C-71.49934897 62.41915675 -67.55459034 56.98417516 -63.5 51.625 C-63.0786377 51.0592627 -62.65727539 50.49352539 -62.22314453 49.91064453 C-61.19720242 48.56863996 -60.10423173 47.27836058 -59 46 C-58.34 46 -57.68 46 -57 46 C-57 45.01 -57 44.02 -57 43 C-56.34 43 -55.68 43 -55 43 C-54.76796875 42.46246094 -54.5359375 41.92492187 -54.296875 41.37109375 C-52.6217462 38.30843357 -50.48366934 35.72495408 -48.25 33.0625 C-47.62351563 32.29389648 -47.62351563 32.29389648 -46.984375 31.50976562 C-44.77176634 28.85530981 -42.52343241 26.51598262 -39.84375 24.328125 C-37.61825023 22.50614991 -35.95884409 20.95230363 -34.25 18.6875 C-33.13625 17.3571875 -33.13625 17.3571875 -32 16 C-31.34 16 -30.68 16 -30 16 C-29.731875 15.360625 -29.46375 14.72125 -29.1875 14.0625 C-28 12 -28 12 -25 11 C-23.95857508 9.16283343 -23.95857508 9.16283343 -23 7 C-16.907039 -2.34925421 -9.96785848 -1.66130975 0 0 Z M143 248 C143 248.33 143 248.66 143 249 C144.43836751 248.88541307 145.87570966 248.75790884 147.3125 248.625 C148.11300781 248.55539062 148.91351563 248.48578125 149.73828125 248.4140625 C152.27224441 248.10435574 152.27224441 248.10435574 155 246 C150.66831683 245.73747375 147.1196377 246.70756464 143 248 Z " fill="#1E3941" transform="translate(226,117)"/>
<path d="M0 0 C12.808125 -0.0825 25.61625 -0.165 38.8125 -0.25 C42.83671143 -0.28641602 46.86092285 -0.32283203 51.00708008 -0.36035156 C55.9720459 -0.37841797 55.9720459 -0.37841797 58.30619812 -0.3817749 C59.91492659 -0.3878636 61.52363834 -0.40181908 63.13224792 -0.42230225 C75.69922156 -0.57413762 86.71543532 -0.09229101 96.34375 9.0625 C102.24828806 15.96969547 103.42727102 23.49221108 103.3359375 32.3515625 C102.63777487 39.93393342 99.3987839 45.03586202 93.8125 50.0625 C91.89665438 51.61935352 90.2061396 52.8969302 88 54 C89.08667969 54.52787109 89.08667969 54.52787109 90.1953125 55.06640625 C98.44828058 59.28092195 103.79765473 63.29713774 107.38916016 72.01293945 C108.49268222 75.60269408 108.48743725 79.14504131 108.4375 82.875 C108.42920166 83.67147949 108.42090332 84.46795898 108.41235352 85.28857422 C108.24043071 91.26120925 107.48722812 96.01233248 104 101 C103.51402344 101.70382812 103.02804687 102.40765625 102.52734375 103.1328125 C96.2755901 111.14333373 88.36407193 114.09732075 78.57165527 115.6161499 C71.53679704 116.3721946 64.48734491 116.24294426 57.421875 116.1953125 C55.94482576 116.19236369 54.46777441 116.19032843 52.99072266 116.18920898 C47.5771161 116.17881872 42.16355459 116.15089669 36.75 116.125 C18.55875 116.063125 18.55875 116.063125 0 116 C0 77.72 0 39.44 0 0 Z M38 24 C38 30.93 38 37.86 38 45 C41.361875 45.061875 44.72375 45.12375 48.1875 45.1875 C49.23832764 45.21481201 50.28915527 45.24212402 51.37182617 45.27026367 C57.60753074 45.3258702 61.20629423 44.69737109 65.8125 40.25 C67.54568109 36.96607794 67.44932633 34.65880015 67 31 C64.5728658 26.95477633 62.47862106 25.30043294 58 24 C54.55720513 23.76354532 51.13623003 23.81211876 47.6875 23.875 C44.490625 23.91625 41.29375 23.9575 38 24 Z M38 68 C38 75.59 38 83.18 38 91 C40.949375 91.04125 43.89875 91.0825 46.9375 91.125 C48.30249634 91.15231201 48.30249634 91.15231201 49.69506836 91.18017578 C56.58681951 91.22613561 63.30232172 90.96705708 69 86.8125 C71.44908927 83.36846822 72 81.2166262 72 77 C70.40088459 73.29678537 68.44091081 71.08540049 65 69 C61.81672462 67.98275856 58.90824178 67.8838431 55.578125 67.90234375 C54.65418945 67.90484131 53.73025391 67.90733887 52.77832031 67.90991211 C51.61397461 67.91901611 50.44962891 67.92812012 49.25 67.9375 C45.5375 67.958125 41.825 67.97875 38 68 Z " fill="#6C7176" transform="translate(1237,217)"/>
<path d="M0 0 C12.808125 -0.0825 25.61625 -0.165 38.8125 -0.25 C42.83671143 -0.28641602 46.86092285 -0.32283203 51.00708008 -0.36035156 C55.9720459 -0.37841797 55.9720459 -0.37841797 58.30619812 -0.3817749 C59.91492659 -0.3878636 61.52363834 -0.40181908 63.13224792 -0.42230225 C75.69922156 -0.57413762 86.71543532 -0.09229101 96.34375 9.0625 C102.24828806 15.96969547 103.42727102 23.49221108 103.3359375 32.3515625 C102.63777487 39.93393342 99.3987839 45.03586202 93.8125 50.0625 C91.89665438 51.61935352 90.2061396 52.8969302 88 54 C89.08667969 54.52787109 89.08667969 54.52787109 90.1953125 55.06640625 C98.44828058 59.28092195 103.79765473 63.29713774 107.38916016 72.01293945 C108.49268222 75.60269408 108.48743725 79.14504131 108.4375 82.875 C108.42920166 83.67147949 108.42090332 84.46795898 108.41235352 85.28857422 C108.24043071 91.26120925 107.48722812 96.01233248 104 101 C103.51402344 101.70382812 103.02804687 102.40765625 102.52734375 103.1328125 C96.2755901 111.14333373 88.36407193 114.09732075 78.57165527 115.6161499 C71.53679704 116.3721946 64.48734491 116.24294426 57.421875 116.1953125 C55.94482576 116.19236369 54.46777441 116.19032843 52.99072266 116.18920898 C47.5771161 116.17881872 42.16355459 116.15089669 36.75 116.125 C18.55875 116.063125 18.55875 116.063125 0 116 C0 77.72 0 39.44 0 0 Z M38 24 C38 30.93 38 37.86 38 45 C41.361875 45.061875 44.72375 45.12375 48.1875 45.1875 C49.23832764 45.21481201 50.28915527 45.24212402 51.37182617 45.27026367 C57.60753074 45.3258702 61.20629423 44.69737109 65.8125 40.25 C67.54568109 36.96607794 67.44932633 34.65880015 67 31 C64.5728658 26.95477633 62.47862106 25.30043294 58 24 C54.55720513 23.76354532 51.13623003 23.81211876 47.6875 23.875 C44.490625 23.91625 41.29375 23.9575 38 24 Z M38 68 C38 75.59 38 83.18 38 91 C40.949375 91.04125 43.89875 91.0825 46.9375 91.125 C48.30249634 91.15231201 48.30249634 91.15231201 49.69506836 91.18017578 C56.58681951 91.22613561 63.30232172 90.96705708 69 86.8125 C71.44908927 83.36846822 72 81.2166262 72 77 C70.40088459 73.29678537 68.44091081 71.08540049 65 69 C61.81672462 67.98275856 58.90824178 67.8838431 55.578125 67.90234375 C54.65418945 67.90484131 53.73025391 67.90733887 52.77832031 67.90991211 C51.61397461 67.91901611 50.44962891 67.92812012 49.25 67.9375 C45.5375 67.958125 41.825 67.97875 38 68 Z " fill="#6C7176" transform="translate(976,217)"/>
<path d="M0 0 C1.72974441 0.00015918 3.45949355 0.0058569 5.18920898 0.01586914 C6.09783188 0.01728409 7.00645477 0.01869904 7.94261169 0.02015686 C10.85687494 0.02577346 13.77106254 0.03832874 16.68530273 0.05102539 C18.65600475 0.05603825 20.62670797 0.06060153 22.59741211 0.06469727 C27.43923832 0.07574828 32.28100768 0.09302401 37.12280273 0.11352539 C37.41078232 0.8905632 37.6987619 1.66760101 37.99546814 2.46818542 C41.6816153 12.41325631 45.37030377 22.35738307 49.06030273 32.30102539 C49.35455894 33.09405941 49.64881516 33.88709343 49.95198822 34.70415878 C58.3574539 57.35616488 66.80377227 79.99123966 75.39599609 102.57324219 C75.88692497 103.86577408 75.88692497 103.86577408 76.38777161 105.18441772 C76.98861731 106.76582713 77.59088268 108.3466982 78.19487 109.9269104 C80.12280273 115.00160864 80.12280273 115.00160864 80.12280273 116.11352539 C67.25280273 116.11352539 54.38280273 116.11352539 41.12280273 116.11352539 C36.12280273 100.11352539 36.12280273 100.11352539 36.12280273 97.11352539 C22.92280273 97.11352539 9.72280273 97.11352539 -3.87719727 97.11352539 C-4.86719727 101.07352539 -5.85719727 105.03352539 -6.87719727 109.11352539 C-7.53719727 111.42352539 -8.19719727 113.73352539 -8.87719727 116.11352539 C-21.41719727 116.11352539 -33.95719727 116.11352539 -46.87719727 116.11352539 C-46.05982052 112.02664167 -45.05907051 108.62897705 -43.61499023 104.75488281 C-43.27011991 103.82497386 -43.27011991 103.82497386 -42.91828251 102.87627888 C-42.15556816 100.82249707 -41.3875017 98.77076085 -40.61938477 96.71899414 C-40.07785097 95.26415709 -39.53664363 93.80919848 -38.9957428 92.35412598 C-37.55046134 88.46916386 -36.10049944 84.5859648 -34.64945602 80.7031517 C-33.15731772 76.7084237 -31.6690045 72.71227096 -30.18017578 68.71630859 C-27.54754059 61.65235278 -24.91095548 54.589879 -22.2726202 47.52805042 C-20.17349437 41.90877436 -18.07902501 36.28778067 -15.9864502 30.6660614 C-14.57876943 26.88548003 -13.16864986 23.10581346 -11.75738525 19.3265686 C-11.13076469 17.64779755 -10.50490556 15.96874207 -9.87982178 14.28939819 C-9.03657888 12.02533192 -8.18989609 9.76258646 -7.34204102 7.50024414 C-6.88434326 6.27523193 -6.42664551 5.05021973 -5.95507812 3.78808594 C-4.4813137 0.13121408 -4.4813137 0.13121408 0 0 Z M15.12280273 33.11352539 C13.55450301 38.36406851 11.98796836 43.61513367 10.4230957 48.86669922 C9.89005724 50.65460585 9.35652945 52.44236667 8.82250977 54.22998047 C8.05674811 56.79364819 7.29272518 59.35782842 6.52905273 61.92211914 C6.28844116 62.72628769 6.04782959 63.53045624 5.79992676 64.35899353 C4.6337613 67.68210535 4.6337613 67.68210535 4.12280273 71.11352539 C12.04280273 71.11352539 19.96280273 71.11352539 28.12280273 71.11352539 C26.59870521 66.02130658 25.07086044 60.93054875 23.53295898 55.8425293 C23.01080912 54.11079718 22.49094009 52.37837565 21.97338867 50.64526367 C21.22968502 48.15627846 20.47785217 45.66987628 19.72436523 43.18383789 C19.37893173 42.01813766 19.37893173 42.01813766 19.02651978 40.82888794 C17.77427113 36.58022148 17.77427113 36.58022148 15.12280273 33.11352539 Z " fill="#6C7176" transform="translate(1141.877197265625,216.886474609375)"/>
<path d="M0 0 C1.8881543 -0.01836914 1.8881543 -0.01836914 3.81445312 -0.03710938 C15.78007997 -0.05583493 26.37137237 0.76229967 35.5625 9.1875 C38.3146636 13.67534866 38.05372774 18.07714685 37.5625 23.1875 C34.20920831 34.62814224 23.61249993 42.54135807 13.6640625 48.28320312 C4.96666099 53.01864604 -4.06949424 56.97659876 -13.4375 60.1875 C-14.48679687 60.55746094 -15.53609375 60.92742187 -16.6171875 61.30859375 C-37.66836718 68.06973734 -59.80634255 66.47342333 -81.4375 64.1875 C-81.63303467 64.87094482 -81.82856934 65.55438965 -82.0300293 66.25854492 C-82.42315308 67.60589722 -82.42315308 67.60589722 -82.82421875 68.98046875 C-83.08162842 69.87016357 -83.33903809 70.7598584 -83.60424805 71.67651367 C-85.97420757 78.81833427 -90.97582407 82.87971604 -97.0625 86.9375 C-106.44459647 90.41235054 -115.45957242 89.41457106 -124.625 86 C-129.31763558 82.97585707 -132.36832938 78.79125593 -135.4375 74.1875 C-135.4375 73.1975 -135.4375 72.2075 -135.4375 71.1875 C-136.32308594 71.50203125 -137.20867187 71.8165625 -138.12109375 72.140625 C-139.35988281 72.56859375 -140.59867188 72.9965625 -141.875 73.4375 C-143.06996094 73.85515625 -144.26492188 74.2728125 -145.49609375 74.703125 C-159.20096332 78.97660492 -171.85320203 80.90370934 -186.1875 80.75 C-187.01489685 80.74673706 -187.8422937 80.74347412 -188.69476318 80.7401123 C-201.84039016 80.66467385 -213.91097214 79.39400787 -226.4375 75.1875 C-227.61441406 74.83042969 -228.79132813 74.47335938 -230.00390625 74.10546875 C-232.85252466 73.21059613 -235.64296896 72.23756621 -238.4375 71.1875 C-239.35015625 70.8471875 -240.2628125 70.506875 -241.203125 70.15625 C-252.49951245 65.79624081 -264.2361021 58.87956534 -270.4375 48.1875 C-272.07692137 43.2692359 -272.32471661 38.24210688 -270.25 33.4375 C-261.69001207 22.81130809 -250.58907027 19.4420549 -237.4375 17.1875 C-202.554856 13.45007386 -160.34913901 16.77033829 -131.3828125 38.4765625 C-128.61716567 40.46054388 -128.61716567 40.46054388 -125.76953125 39.95703125 C-124.93808594 39.64121094 -124.10664063 39.32539062 -123.25 39 C-122.41082031 38.69707031 -121.57164062 38.39414063 -120.70703125 38.08203125 C-119.95808594 37.78683594 -119.20914063 37.49164063 -118.4375 37.1875 C-115.39864499 36.17454833 -113.30317275 36.05370837 -110.125 36.0625 C-108.65740234 36.06443359 -108.65740234 36.06443359 -107.16015625 36.06640625 C-104.4375 36.1875 -104.4375 36.1875 -101.0625 37 C-99.763125 37.0928125 -99.763125 37.0928125 -98.4375 37.1875 C-95.66627725 34.83323501 -95.66627725 34.83323501 -93.4375 32.1875 C-92.7775 32.1875 -92.1175 32.1875 -91.4375 32.1875 C-91.06625 31.2284375 -91.06625 31.2284375 -90.6875 30.25 C-89.4375 28.1875 -89.4375 28.1875 -87.3125 27.4375 C-86.384375 27.31375 -86.384375 27.31375 -85.4375 27.1875 C-85.4375 26.5275 -85.4375 25.8675 -85.4375 25.1875 C-69.99378703 13.96490007 -51.93426179 7.88347927 -33.5625 3.4375 C-32.69496094 3.22665771 -31.82742188 3.01581543 -30.93359375 2.79858398 C-20.57931974 0.38146355 -10.62239146 0.00542235 0 0 Z M-10.3515625 5.3125 C-18.30368349 5.76799142 -25.74747782 7.1446844 -33.4375 9.1875 C-34.75041016 9.5278125 -34.75041016 9.5278125 -36.08984375 9.875 C-54.35497374 14.95345636 -70.25049928 25.76073564 -83.4375 39.1875 C-85.10416667 40.85416667 -86.77083333 42.52083333 -88.4375 44.1875 C-88.1075 45.1775 -87.7775 46.1675 -87.4375 47.1875 C-86.71626953 46.73656982 -85.99503906 46.28563965 -85.25195312 45.82104492 C-76.75000639 40.88640529 -68.62204659 39.68923495 -58.9375 39.375 C-46.3265558 38.71060094 -35.34889453 35.93411908 -24.1640625 29.9765625 C-21.33241749 28.68246229 -18.49288421 29.06998522 -15.4375 29.1875 C-15.7675 31.4975 -16.0975 33.8075 -16.4375 36.1875 C-17.241875 36.435 -18.04625 36.6825 -18.875 36.9375 C-21.55168763 37.87668864 -23.91504183 38.87796956 -26.453125 40.09765625 C-31.74075751 42.46313359 -37.09392217 43.70776144 -42.75 44.875 C-43.76529785 45.09212646 -44.7805957 45.30925293 -45.82666016 45.53295898 C-51.89307543 46.79051179 -57.78320148 47.58440242 -63.9765625 47.875 C-68.1661178 48.40700702 -71.7562841 50.18886006 -75.4375 52.1875 C-75.1075 52.8475 -74.7775 53.5075 -74.4375 54.1875 C-59.20517999 57.67282603 -40.39789327 56.40801911 -25.4375 52.1875 C-24.20902344 51.87425781 -22.98054688 51.56101563 -21.71484375 51.23828125 C-15.15376465 49.49279964 -9.43529244 47.30504092 -3.4375 44.1875 C-2.09390848 43.51789461 -0.74885912 42.85120619 0.59765625 42.1875 C1.26216797 41.8575 1.92667969 41.5275 2.61132812 41.1875 C3.95691042 40.51927678 5.30326997 39.85261647 6.65039062 39.1875 C15.89004216 34.79496756 15.89004216 34.79496756 23.4375 28.0625 C24.01242187 27.37929688 24.58734375 26.69609375 25.1796875 25.9921875 C27.73833448 22.65293636 27.97331228 20.37778521 27.5625 16.1875 C24.66313977 10.89301611 20.12273242 8.89410599 14.5625 7.1875 C6.16270138 5.48834074 -1.8264797 4.9468128 -10.3515625 5.3125 Z M-241.4375 25.1875 C-242.72781128 25.55282837 -242.72781128 25.55282837 -244.04418945 25.92553711 C-250.67579471 27.84051864 -256.11968967 30.76573141 -260 36.625 C-261.72306477 40.04112427 -261.72306477 40.04112427 -261 43.3125 C-258.16082599 48.53658017 -254.455215 51.440552 -249.24609375 54.21875 C-247.49748315 55.15537079 -245.80892082 56.201521 -244.125 57.25 C-240.52228972 59.3284867 -236.77184252 60.40507759 -232.76953125 61.4765625 C-230.4375 62.1875 -230.4375 62.1875 -228.47265625 63.21484375 C-225.99674473 64.39814887 -223.77748053 64.7344891 -221.0625 65.125 C-217.81872222 65.60885707 -214.68938175 66.11895845 -211.5234375 66.98046875 C-203.09567192 69.25276504 -195.01259237 69.48068161 -186.3125 69.5 C-184.54326172 69.50797607 -184.54326172 69.50797607 -182.73828125 69.51611328 C-173.34008379 69.44129523 -164.17195481 68.8736087 -155.4375 65.1875 C-152.78605463 64.4378767 -150.11976686 63.8239701 -147.4375 63.1875 C-147.7675 62.5275 -148.0975 61.8675 -148.4375 61.1875 C-156.45103353 58.9686047 -164.63429775 58.99609317 -172.875 59.1875 C-186.66433729 59.32940732 -202.53485068 59.12259955 -214.4375 51.1875 C-214.4375 50.1975 -214.4375 49.2075 -214.4375 48.1875 C-209.48364232 47.03722345 -205.7580621 47.48220688 -200.8125 48.5625 C-200.15765625 48.70171875 -199.5028125 48.8409375 -198.828125 48.984375 C-193.87368832 50.04747275 -193.87368832 50.04747275 -191.73168945 50.73510742 C-188.25738763 51.42020706 -184.79409171 51.26784483 -181.26953125 51.21484375 C-179.63737198 51.20218863 -178.0052104 51.18982833 -176.37304688 51.17773438 C-173.81690156 51.15302668 -171.26087856 51.12514296 -168.70483398 51.09155273 C-166.22639257 51.06104958 -163.74810238 51.04347884 -161.26953125 51.02734375 C-160.5192012 51.01388412 -159.76887115 51.0004245 -158.99580383 50.98655701 C-154.30596426 50.96476615 -150.09089426 51.54905579 -145.54130554 52.69459534 C-142.20182583 53.47700849 -138.84462367 53.81581378 -135.4375 54.1875 C-136.14274566 49.18466359 -139.35205605 47.38891755 -143.1875 44.46875 C-154.67965335 36.40214236 -166.07585632 30.65519916 -179.57568359 26.74609375 C-181.13904591 26.27704405 -182.67741964 25.72580919 -184.20703125 25.15625 C-194.14701725 22.17545613 -204.12514739 21.84895871 -214.4375 21.875 C-216.35175781 21.85083008 -216.35175781 21.85083008 -218.3046875 21.82617188 C-226.46412458 21.82200038 -233.6372422 22.81931296 -241.4375 25.1875 Z M-121.9375 46.875 C-126.41099699 52.60540097 -128.01298566 57.14695896 -127.78515625 64.4375 C-127.06999394 70.09451425 -124.74686348 74.28751024 -120.5 78.0625 C-115.14133147 81.78075979 -111.99856389 82.42346593 -105.62109375 81.671875 C-103.31150112 81.15955034 -101.50089149 80.32914971 -99.4375 79.1875 C-99.4375 78.5275 -99.4375 77.8675 -99.4375 77.1875 C-98.839375 77.001875 -98.24125 76.81625 -97.625 76.625 C-94.40781352 74.51084888 -93.3965129 71.77694829 -92.4375 68.1875 C-91.20060474 60.92746262 -93.39057589 55.21058446 -97.4375 49.1875 C-100.39829988 46.02400478 -103.48534437 43.29137057 -107.93359375 43.0546875 C-108.90425781 43.05726562 -109.87492187 43.05984375 -110.875 43.0625 C-111.84308594 43.05992188 -112.81117188 43.05734375 -113.80859375 43.0546875 C-117.8284468 43.25777071 -119.15795076 43.88698456 -121.9375 46.875 Z " fill="#253E46" transform="translate(424.4375,31.8125)"/>
<path d="M0 0 C35.47982538 -3.15139198 35.47982538 -3.15139198 43.95849609 1.68896484 C48.21667382 6.11471667 50.15605573 11.4620167 52.00927734 17.23193359 C53.6337906 21.77080281 56.19911147 25.68305459 58.75 29.75 C59.58313719 31.15850561 60.41180246 32.5696736 61.234375 33.984375 C62.10835937 35.47710937 62.10835937 35.47710937 63 37 C69.18228312 27.20682586 75.23337605 17.34511355 81.15136719 7.38964844 C81.63895508 6.57141602 82.12654297 5.75318359 82.62890625 4.91015625 C83.06275635 4.17933838 83.49660645 3.44852051 83.94360352 2.69555664 C85 1 85 1 86 0 C89.02977804 -0.08871273 92.03667022 -0.1151935 95.06640625 -0.09765625 C95.97502914 -0.0962413 96.88365204 -0.09482635 97.81980896 -0.09336853 C100.73407221 -0.08775193 103.64825981 -0.07519665 106.5625 -0.0625 C108.53320202 -0.05748714 110.50390524 -0.05292386 112.47460938 -0.04882812 C117.31643559 -0.03777711 122.15820495 -0.02050138 127 0 C122.48368394 7.13677946 117.90736944 14.2292995 113.25390625 21.27734375 C112.63909897 22.20994522 112.02429169 23.14254669 111.39085388 24.10340881 C110.10139386 26.05903787 108.8115183 28.014393 107.52124023 29.96948242 C105.56988135 32.92631527 103.61978839 35.88397973 101.66992188 38.84179688 C101.03871429 39.79710297 100.40750671 40.75240906 99.75717163 41.73666382 C98.51038366 43.63059768 97.27041872 45.52904177 96.0375061 47.43203735 C91.13426723 54.96823956 91.13426723 54.96823956 88.34326172 58.16357422 C80.26552895 67.88673773 81.89187349 80.26512086 82 92.25 C81.99189738 94.55600512 81.98021033 96.86200059 81.96484375 99.16796875 C81.92852953 104.78053282 81.96592215 110.38567487 82 116 C69.79 116 57.58 116 45 116 C45.04382812 112.62523437 45.08765625 109.25046875 45.1328125 105.7734375 C45.14122309 102.46013173 45.13244204 99.14727853 45.12207031 95.83398438 C45.12400228 93.55297428 45.14346455 91.27190236 45.18164062 88.99121094 C45.40316811 74.94883004 45.06230932 65.55015556 35.60253906 54.93310547 C32.31969144 50.973083 29.64425044 46.5680255 26.85546875 42.25390625 C25.59013526 40.32555307 24.32384898 38.39782476 23.05664062 36.47070312 C21.76673164 34.50143009 20.47701977 32.53202793 19.1875 30.5625 C17.23866663 27.58936348 15.28899813 24.61678287 13.33772278 21.64524841 C12.13411402 19.81199397 10.93194533 17.97779294 9.73149109 16.14247131 C7.25806709 12.37240844 4.76470725 8.64577549 2.0949707 5.01147461 C0 2 0 2 0 0 Z " fill="#6C7176" transform="translate(1357,217)"/>
<path d="M0 0 C36.96 0 73.92 0 112 0 C116.4753004 10.0694259 116.4753004 10.0694259 117.625 15.25 C118.47274219 19.01995937 119.56084262 22.41951572 121 26 C121.33271399 27.4285577 121.62346168 28.86743801 121.875 30.3125 C122.66437285 34.55537909 123.72752802 38.65291409 124.875 42.8125 C132.24023182 71.25922156 137.28376014 108.73100336 123 136 C121.1875 139.0625 121.1875 139.0625 119 142 C118.50757813 142.69867188 118.01515625 143.39734375 117.5078125 144.1171875 C112.95279961 150.35146781 107.50630717 156.49789761 100 159 C97.18707141 159.11191193 94.39827954 159.167685 91.5847168 159.17700195 C90.72584869 159.18357315 89.86698059 159.19014435 88.98208618 159.19691467 C86.13779615 159.21663685 83.29355888 159.22830741 80.44921875 159.23828125 C79.47756083 159.24235678 78.5059029 159.2464323 77.5048008 159.25063133 C72.36265907 159.27148672 67.220544 159.28579117 62.07836914 159.29516602 C56.76866682 159.30623382 51.45938318 159.34063961 46.14982891 159.38033772 C42.06542686 159.40648637 37.98112489 159.41485626 33.8966465 159.41844749 C31.93944277 159.42331739 29.98224363 159.43494282 28.02512169 159.45348549 C25.28423257 159.4778413 22.54443107 159.47691855 19.8034668 159.4699707 C18.59457039 159.48918579 18.59457039 159.48918579 17.36125183 159.50878906 C12.08854282 159.46015187 9.24086366 158.38489777 5 155 C4.071875 154.34 3.14375 153.68 2.1875 153 C-4.78424686 147.02685879 -10.76160695 139.19949126 -12 130 C-9.03 129.67 -6.06 129.34 -3 129 C-2.27296875 130.17755859 -2.27296875 130.17755859 -1.53125 131.37890625 C2.89443833 138.31532162 7.43114249 145.21557124 15 149 C17.54535307 149.12936176 20.06466186 149.19931885 22.61157227 149.22460938 C23.39720047 149.23599945 24.18282867 149.24738953 24.99226379 149.25912476 C33.22457081 149.36991689 41.45777817 149.41723686 49.69067383 149.45996094 C53.59314149 149.4822037 57.49464794 149.52392134 61.39672852 149.58300781 C66.11296845 149.65428056 70.82830647 149.69082065 75.5450573 149.70307922 C77.33798123 149.71345134 79.13087948 149.73580784 80.92349434 149.77067566 C93.76136081 150.20865573 93.76136081 150.20865573 104.46522522 143.7623291 C104.9717009 143.1807605 105.47817657 142.59919189 106 142 C106.76054688 141.13375 107.52109375 140.2675 108.3046875 139.375 C111.40617727 134.6841896 114.01390699 130.26314648 116 125 C116.515625 123.948125 117.03125 122.89625 117.5625 121.8125 C121.23388795 113.1793568 121.36241421 103.23926774 121.3125 94 C121.30831055 92.9169458 121.30412109 91.8338916 121.29980469 90.71801758 C121.16013471 80.60457423 119.89009325 70.91799462 118 61 C117.85014648 60.17693359 117.70029297 59.35386719 117.54589844 58.50585938 C114.85845204 43.77340375 111.59530838 29.07898672 106.57055664 14.9519043 C106 13 106 13 106 10 C56.5 10.495 56.5 10.495 6 11 C5.01 14.96 4.02 18.92 3 23 C1.75390625 27.40625 1.75390625 27.40625 1.16162109 29.43676758 C-5.60790876 52.74943945 -9.19663659 76.76058671 -10 101 C-12.95664519 102.4783226 -15.74229737 102.06032783 -19 102 C-19.54238296 90.17303827 -18.69453003 78.65979212 -17.1875 66.9375 C-17.10463745 66.27241425 -17.0217749 65.60732849 -16.93640137 64.92208862 C-16.03234898 57.75514375 -14.89777848 50.91829321 -12.65356445 44.04516602 C-11.85808364 41.55590834 -11.39210946 39.0813873 -11 36.5 C-10.25212668 32.11697191 -9.19147511 27.97847685 -7.8515625 23.7421875 C-6.47960962 19.32424749 -5.28608497 14.85551813 -4.0625 10.39453125 C-2.95126836 6.84430959 -1.46540677 3.41928246 0 0 Z " fill="#264048" transform="translate(499,229)"/>
<path d="M0 0 C5.28447556 4.06943191 8.00158993 9.00959006 9.578125 15.4609375 C9.671875 18.265625 9.671875 18.265625 9.578125 20.4609375 C11.2178125 19.996875 11.2178125 19.996875 12.890625 19.5234375 C24.16173657 16.80418331 35.57215222 16.64252685 46.2890625 21.75390625 C55.05318229 27.33243301 63.10432685 35.53579993 66.578125 45.4609375 C67.04734375 46.49734375 67.5165625 47.53375 68 48.6015625 C69.69836133 52.5469391 70.75172367 56.53027875 71.703125 60.7109375 C71.87489258 61.46036621 72.04666016 62.20979492 72.22363281 62.98193359 C73.51487431 68.80505668 74.385508 74.48981062 74.578125 80.4609375 C74.61808594 81.59660156 74.65804687 82.73226562 74.69921875 83.90234375 C75.18756819 111.4509973 75.18756819 111.4509973 65.203125 121.9609375 C61.68169754 123.97318177 59.58120891 124.02277384 55.578125 123.4609375 C49.53470335 120.99423479 47.58650654 116.46958281 44.90625 110.70703125 C39.71366497 98.01574255 39.71366497 98.01574255 41.578125 92.4609375 C43.558125 92.4609375 45.538125 92.4609375 47.578125 92.4609375 C47.90425781 93.25757813 48.23039063 94.05421875 48.56640625 94.875 C51.9881472 104.33551466 51.9881472 104.33551466 57.578125 112.4609375 C58.568125 112.4609375 59.558125 112.4609375 60.578125 112.4609375 C66.76174457 104.33851084 64.80096899 91.14934507 64.578125 81.4609375 C64.56136719 80.31496094 64.54460937 79.16898437 64.52734375 77.98828125 C64.04038826 65.64743777 60.57026626 54.62544211 53.71484375 44.31640625 C52.578125 42.4609375 52.578125 42.4609375 52.578125 40.4609375 C51.588125 40.1309375 50.598125 39.8009375 49.578125 39.4609375 C47.91145833 37.79427083 46.24479167 36.12760417 44.578125 34.4609375 C37.63392664 29.05989433 30.23143556 27.61069145 21.578125 28.4609375 C12.00791014 29.95841066 3.99742957 33.91501121 -4.421875 38.4609375 C-3.9280338 34.11513496 -3.04712381 31.8806695 -0.421875 28.4609375 C0.64261559 23.78478242 1.41360175 17.97903413 -0.421875 13.4609375 C-2.18717095 12.24403217 -2.18717095 12.24403217 -4.421875 11.4609375 C-5.22625 10.9659375 -6.030625 10.4709375 -6.859375 9.9609375 C-13.00840194 6.3615071 -18.09399996 6.09533519 -25.109375 6.0859375 C-26.05232422 6.06144531 -26.99527344 6.03695312 -27.96679688 6.01171875 C-35.20919852 5.98185318 -42.33232494 7.12976154 -48.11230469 11.83789062 C-51.12647023 15.12880162 -52.33359244 18.04680954 -52.421875 22.4609375 C-51.7158182 27.31860827 -50.46383307 30.58935451 -47.421875 34.4609375 C-47.421875 35.7809375 -47.421875 37.1009375 -47.421875 38.4609375 C-50.98217745 37.15024208 -53.95036611 35.54953842 -57.109375 33.4609375 C-62.13016502 30.40220956 -66.6041665 29.07433675 -72.421875 28.4609375 C-73.11152344 28.3784375 -73.80117188 28.2959375 -74.51171875 28.2109375 C-80.11325045 27.85598896 -84.75781175 29.50122742 -89.421875 32.4609375 C-92.4451227 35.7791362 -93.32227615 37.63568988 -93.859375 42.0859375 C-93.40204365 45.61392217 -92.72951712 46.86484012 -90.421875 49.4609375 C-90.421875 50.1209375 -90.421875 50.7809375 -90.421875 51.4609375 C-89.2771875 51.8940625 -89.2771875 51.8940625 -88.109375 52.3359375 C-85.421875 53.4609375 -85.421875 53.4609375 -82.421875 55.4609375 C-80.70742611 55.89832446 -78.97519716 56.26942438 -77.234375 56.5859375 C-76.33332031 56.75351563 -75.43226563 56.92109375 -74.50390625 57.09375 C-73.47330078 57.27550781 -73.47330078 57.27550781 -72.421875 57.4609375 C-72.751875 58.7809375 -73.081875 60.1009375 -73.421875 61.4609375 C-88.20319618 62.01446825 -88.20319618 62.01446825 -94.421875 58.4609375 C-94.421875 57.8009375 -94.421875 57.1409375 -94.421875 56.4609375 C-94.999375 56.4196875 -95.576875 56.3784375 -96.171875 56.3359375 C-99.6134041 54.99756507 -100.63802199 52.59805831 -102.421875 49.4609375 C-104.24485979 43.67027992 -104.05229653 37.61178742 -102.359375 31.8359375 C-98.88611328 25.78573966 -95.51057107 20.76587163 -88.671875 18.4609375 C-79.06890612 16.22363461 -70.70110906 17.44563514 -61.421875 20.4609375 C-61.339375 19.3059375 -61.256875 18.1509375 -61.171875 16.9609375 C-60.35848308 10.73958852 -58.01400197 5.66818724 -53.484375 1.2734375 C-38.32268968 -10.32827139 -15.79784532 -10.0392759 0 0 Z " fill="#253E46" transform="translate(582.421875,166.5390625)"/>
<path d="M0 0 C2.04507756 0.63252989 4.09522309 1.21210843 6.16162109 1.77001953 C10.89304913 3.13408624 13.57396424 3.91923016 16.89990234 7.64111328 C17.35365234 8.65173828 17.80740234 9.66236328 18.27490234 10.70361328 C18.89365234 12.00298828 18.89365234 12.00298828 19.52490234 13.32861328 C20.27490234 15.70361328 20.27490234 15.70361328 20.27490234 19.70361328 C16.6087212 19.14813129 13.59149422 17.96802782 10.22021484 16.45751953 C7.44294045 15.38118628 4.61296177 14.84669975 1.69897461 14.26196289 C-0.53686475 13.74696998 -2.59772491 13.0851847 -4.75244141 12.30517578 C-10.37476125 10.40020698 -16.0966305 9.23113521 -21.91259766 8.07861328 C-23.46430664 7.75376953 -23.46430664 7.75376953 -25.04736328 7.42236328 C-38.95188484 4.63629959 -52.88610705 4.51706151 -67.01147461 4.51831055 C-69.78661224 4.51611406 -72.56135745 4.49785527 -75.33642578 4.47900391 C-89.67871068 4.43141793 -102.78382218 6.28181784 -116.72509766 9.70361328 C-117.81693359 9.96400391 -118.90876953 10.22439453 -120.03369141 10.49267578 C-124.76158937 11.63848214 -129.22363831 12.84401137 -133.72509766 14.70361328 C-135.03083692 15.04325644 -136.34347538 15.35786617 -137.66259766 15.64111328 C-141.3364425 16.51844936 -144.35366165 17.98349287 -147.72509766 19.70361328 C-149.08953927 20.17140224 -150.46152637 20.61747433 -151.83837891 21.04736328 C-156.70625382 22.6404053 -161.32000505 24.63976166 -165.97509766 26.76611328 C-167.52160234 27.4661507 -169.0684675 28.16539242 -170.61572266 28.86376953 C-171.28635742 29.16935791 -171.95699219 29.47494629 -172.64794922 29.78979492 C-174.15167084 30.45134053 -175.67243908 31.07457597 -177.20214844 31.67358398 C-181.42291904 33.3967726 -185.35675894 35.63846677 -189.35009766 37.82861328 C-190.24003418 38.31563721 -191.1299707 38.80266113 -192.046875 39.30444336 C-197.99246897 42.61002017 -203.4762184 46.12917992 -208.82666016 50.34033203 C-210.72509766 51.70361328 -210.72509766 51.70361328 -212.72509766 51.70361328 C-213.05509766 52.69361328 -213.38509766 53.68361328 -213.72509766 54.70361328 C-216.20009766 55.19861328 -216.20009766 55.19861328 -218.72509766 55.70361328 C-217.6114179 50.87973002 -215.77267037 46.369089 -213.97509766 41.76611328 C-213.63994141 40.87214844 -213.30478516 39.97818359 -212.95947266 39.05712891 C-209.58465334 30.44750463 -205.00057205 26.44487208 -196.91259766 22.32861328 C-196.15906006 21.94068604 -195.40552246 21.55275879 -194.62915039 21.15307617 C-192.33597223 19.98597587 -190.03335159 18.84056724 -187.72509766 17.70361328 C-187.08668945 17.38602051 -186.44828125 17.06842773 -185.79052734 16.74121094 C-168.50944561 8.27653539 -149.44124985 3.15340628 -130.67773438 -0.85644531 C-128.73525514 -1.29409817 -126.80974507 -1.80493914 -124.88525391 -2.31591797 C-85.64083793 -12.55193109 -38.46326591 -12.04606161 0 0 Z " fill="#1D3840" transform="translate(421.72509765625,160.29638671875)"/>
<path d="M0 0 C2.56695636 0.39491636 4.67123994 0.83561997 7 2 C13.59216476 20.57354449 14.5390038 45.6189506 7 64 C6.0252049 66.01240516 5.03180225 68.01621974 4 70 C3.34 70 2.68 70 2 70 C1.86078125 70.88171875 1.86078125 70.88171875 1.71875 71.78125 C0.13324358 76.67563939 -5.01303887 79.89942783 -9.35546875 82.3046875 C-16.7161228 85.68294413 -22.97310169 86.14027589 -31 86 C-31.33 84.68 -31.66 83.36 -32 82 C-27.25 78 -27.25 78 -25 78 C-24.73703125 77.42894531 -24.4740625 76.85789062 -24.203125 76.26953125 C-22.92253603 73.85387478 -21.41298534 71.85612277 -19.75 69.6875 C-10.14771403 56.1042663 -7.14432418 39.4686326 -4.9375 23.3125 C-1.9818314 1.9818314 -1.9818314 1.9818314 0 0 Z " fill="#1B363F" transform="translate(597,285)"/>
<path d="M0 0 C6.58894549 6.44252448 8.17119789 12.57701187 8.375 21.5 C8.21580289 28.77964979 7.09533345 33.39602646 3.4375 39.6875 C-2.30385864 45.13442999 -8.16430284 47.32341944 -16.0625 47.5625 C-22.80897791 47.29117426 -28.37888731 46.16505316 -33.55078125 41.64453125 C-39.03542373 35.60980664 -40.50114654 29.33510178 -40.375 21.5 C-40.38660156 20.77941406 -40.39820313 20.05882812 -40.41015625 19.31640625 C-40.36877133 11.68778617 -37.73359751 6.14546673 -32.6015625 0.5078125 C-24.01284879 -7.57814723 -9.21793991 -6.44021248 0 0 Z M-27 10 C-30.03966651 16.11077784 -30.26410101 23.77675344 -28.3125 30.296875 C-26.79901182 33.24817695 -24.95440728 35.03392947 -22.3125 37 C-17.92628238 38.32414117 -14.39358898 38.32942545 -10 37 C-6.20766297 34.09523121 -4.47743123 31.47765342 -3 27 C-2.33552361 20.58823435 -2.08723264 14.3969205 -6 9 C-8.27407123 6.38137252 -9.90320443 5.19624937 -13.3359375 4.58203125 C-19.67669738 4.22976681 -22.77755866 5.24975349 -27 10 Z " fill="#767A7F" transform="translate(1320,113)"/>
<path d="M0 0 C6.58894549 6.44252448 8.17119789 12.57701187 8.375 21.5 C8.21580289 28.77964979 7.09533345 33.39602646 3.4375 39.6875 C-2.30385864 45.13442999 -8.16430284 47.32341944 -16.0625 47.5625 C-22.80897791 47.29117426 -28.37888731 46.16505316 -33.55078125 41.64453125 C-39.03542373 35.60980664 -40.50114654 29.33510178 -40.375 21.5 C-40.38660156 20.77941406 -40.39820313 20.05882812 -40.41015625 19.31640625 C-40.36877133 11.68778617 -37.73359751 6.14546673 -32.6015625 0.5078125 C-24.01284879 -7.57814723 -9.21793991 -6.44021248 0 0 Z M-27 10 C-30.03966651 16.11077784 -30.26410101 23.77675344 -28.3125 30.296875 C-26.79901182 33.24817695 -24.95440728 35.03392947 -22.3125 37 C-17.92628238 38.32414117 -14.39358898 38.32942545 -10 37 C-6.20766297 34.09523121 -4.47743123 31.47765342 -3 27 C-2.33552361 20.58823435 -2.08723264 14.3969205 -6 9 C-8.27407123 6.38137252 -9.90320443 5.19624937 -13.3359375 4.58203125 C-19.67669738 4.22976681 -22.77755866 5.24975349 -27 10 Z " fill="#767A7F" transform="translate(1094,113)"/>
<path d="M0 0 C29.13981043 0 29.13981043 0 35.12109375 4.6484375 C41.11135398 12.50509928 42.65063904 20.1903653 42 30 C40.97962499 36.97471524 38.63459508 42.95684463 32.9375 47.375 C28.6362512 49.75441423 25.65202048 50.12043202 20.80078125 50.09765625 C19.71192627 50.09515869 18.62307129 50.09266113 17.5012207 50.09008789 C16.11894287 50.08098389 14.73666504 50.07187988 13.3125 50.0625 C8.919375 50.041875 4.52625 50.02125 0 50 C0 33.5 0 17 0 0 Z M10 9 C10 19.56 10 30.12 10 41 C23.24516015 42.45762178 23.24516015 42.45762178 29 37 C31.98412873 30.89323868 31.62980617 23.60847004 29.75 17.25 C28.48455753 13.75666586 27.46975227 11.68230413 24 10 C19.0702801 8.59577396 19.0702801 8.59577396 10 9 Z " fill="#72777B" transform="translate(1363,109)"/>
<path d="M0 0 C3.08884661 3.10398801 4.59375 7.20174659 4.59375 11.6015625 C0.96375 11.9315625 -2.66625 12.2615625 -6.40625 12.6015625 C-6.963125 11.6321875 -7.52 10.6628125 -8.09375 9.6640625 C-10.06413308 6.50996532 -10.06413308 6.50996532 -12.71875 5.6640625 C-16.03922371 5.58684218 -19.14014716 6.02519141 -22.40625 6.6015625 C-22.54065778 9.03076115 -22.54065778 9.03076115 -21.40625 11.6015625 C-18.68473716 12.88529497 -16.2723648 13.76302427 -13.40625 14.6015625 C0.80868585 18.80727349 0.80868585 18.80727349 4.6875 25.484375 C6.25321417 29.14220725 6.14311996 32.701714 5.59375 36.6015625 C3.24670122 41.20873232 -0.04615778 45.43249816 -5.1015625 47.19140625 C-8.34105275 47.7679257 -11.49225016 47.81217328 -14.78125 47.8515625 C-16.06773438 47.87734375 -17.35421875 47.903125 -18.6796875 47.9296875 C-24.23106856 47.44088665 -27.33352779 45.72304481 -31.15625 41.7265625 C-33.14699338 38.96164114 -34.54396899 36.87823033 -35.40625 33.6015625 C-35.07625 32.2815625 -34.74625 30.9615625 -34.40625 29.6015625 C-31.10625 29.6015625 -27.80625 29.6015625 -24.40625 29.6015625 C-23.973125 30.5503125 -23.54 31.4990625 -23.09375 32.4765625 C-21.61322799 35.80198187 -21.61322799 35.80198187 -18.40625 37.6015625 C-12.96015704 38.05291269 -12.96015704 38.05291269 -7.90625 36.4140625 C-5.94476095 34.0439299 -6.28858675 32.59707268 -6.40625 29.6015625 C-7.63601563 29.21484375 -8.86578125 28.828125 -10.1328125 28.4296875 C-11.7657822 27.90413403 -13.39858603 27.37806499 -15.03125 26.8515625 C-15.83949219 26.59890625 -16.64773438 26.34625 -17.48046875 26.0859375 C-23.31218115 24.18944566 -28.19826406 22.1775461 -32.28125 17.4140625 C-33.88811346 13.39690384 -34.07595107 9.86808505 -33.40625 5.6015625 C-31.02156675 0.64875883 -28.51391703 -1.45752403 -23.40625 -3.3984375 C-15.56161575 -5.58763776 -6.71581542 -4.70657556 0 0 Z " fill="#777C80" transform="translate(1169.40625,112.3984375)"/>
<path d="M0 0 C3.3 0 6.6 0 10 0 C10 6.6 10 13.2 10 20 C16.27 20 22.54 20 29 20 C29 13.4 29 6.8 29 0 C32.63 0 36.26 0 40 0 C40 16.5 40 33 40 50 C36.37 50 32.74 50 29 50 C29 43.07 29 36.14 29 29 C22.73 29 16.46 29 10 29 C10 35.93 10 42.86 10 50 C6.7 50 3.4 50 0 50 C0 33.5 0 17 0 0 Z " fill="#72767B" transform="translate(980,109)"/>
<path d="M0 0 C0.66 0 1.32 0 2 0 C4.01501211 8.55486251 4.34150534 16.95735863 4.31567383 25.69702148 C4.31250967 27.93067118 4.33607297 30.16299685 4.36132812 32.39648438 C4.39894181 40.97858404 3.56821725 48.7604965 1 57 C0.70988037 58.01731201 0.41976074 59.03462402 0.12084961 60.08276367 C-3.1666345 71.43853407 -9.46942248 81.93578005 -17 91 C-17.56589844 91.68707031 -18.13179688 92.37414062 -18.71484375 93.08203125 C-22.20269152 97.19570729 -25.76577836 100.66667658 -30 104 C-31.36125 105.175625 -31.36125 105.175625 -32.75 106.375 C-40.58368762 112.84895427 -48.85787853 117.62061017 -58 122 C-60.02141044 123.04054632 -62.04224854 124.08220526 -64.0625 125.125 C-78.67808199 132.40398236 -78.67808199 132.40398236 -83.3125 131.59765625 C-83.869375 131.40042969 -84.42625 131.20320312 -85 131 C-84.05261608 127.57081893 -83.4009276 126.25702006 -80.35546875 124.3046875 C-79.31003906 123.83289063 -78.26460938 123.36109375 -77.1875 122.875 C-73.3031227 121.08963404 -69.65440272 119.21444184 -66 117 C-64.00527683 115.98951523 -62.00514118 114.98965087 -60 114 C-50.12705679 108.9074905 -42.16292898 102.45264115 -34 95 C-33.27554688 94.34773438 -32.55109375 93.69546875 -31.8046875 93.0234375 C-27.67070205 89.11190867 -24.58229623 84.70416652 -21.48046875 79.94140625 C-20.99191406 79.30074219 -20.50335938 78.66007812 -20 78 C-19.34 78 -18.68 78 -18 78 C-17.773125 77.195625 -17.54625 76.39125 -17.3125 75.5625 C-15.95457851 71.87671309 -14.23420345 68.69784501 -12.30078125 65.29296875 C-8.86268112 59.23241387 -6.53749986 53.80892793 -5 47 C-4.51273438 45.67742187 -4.51273438 45.67742187 -4.015625 44.328125 C-2.75092216 40.18379107 -2.28475749 36.17724356 -1.875 31.875 C-1.78935791 31.01350342 -1.70371582 30.15200684 -1.61547852 29.2644043 C-0.94814084 21.89702308 -0.84982279 14.57806615 -0.98583984 7.18505859 C-1.02125887 5.12367126 -1.01495488 3.06163736 -1 1 C-0.67 0.67 -0.34 0.34 0 0 Z " fill="#2A434B" transform="translate(478,219)"/>
<path d="M0 0 C2.83203125 0.03255208 5.6640625 0.06510417 8.49609375 0.09765625 C12.86793671 9.25832868 16.57524433 18.66398008 20.28198242 28.10791016 C21.32052082 30.75303412 22.36405056 33.39615032 23.40820312 36.0390625 C24.06930057 37.71733365 24.73011849 39.39571494 25.390625 41.07421875 C25.70304642 41.86575348 26.01546783 42.65728821 26.33735657 43.47280884 C28.49609375 48.98190154 28.49609375 48.98190154 28.49609375 50.09765625 C24.53609375 50.09765625 20.57609375 50.09765625 16.49609375 50.09765625 C15.17609375 46.79765625 13.85609375 43.49765625 12.49609375 40.09765625 C6.22609375 40.09765625 -0.04390625 40.09765625 -6.50390625 40.09765625 C-8.48390625 45.04765625 -8.48390625 45.04765625 -10.50390625 50.09765625 C-14.13390625 50.09765625 -17.76390625 50.09765625 -21.50390625 50.09765625 C-20.79545785 46.55541425 -20.1176085 43.79640416 -18.84570312 40.50683594 C-18.50865356 39.6295282 -18.171604 38.75222046 -17.82434082 37.84832764 C-17.46078491 36.91482483 -17.097229 35.98132202 -16.72265625 35.01953125 C-16.34911011 34.05235168 -15.97556396 33.08517212 -15.59069824 32.08868408 C-14.80248147 30.0505572 -14.01227574 28.01319855 -13.22021484 25.9765625 C-12.00365646 22.84701367 -10.79433741 19.71473805 -9.5859375 16.58203125 C-8.81943718 14.60269927 -8.05252445 12.62352693 -7.28515625 10.64453125 C-6.92160034 9.70293152 -6.55804443 8.76133179 -6.18347168 7.79119873 C-5.67789734 6.49415009 -5.67789734 6.49415009 -5.16210938 5.17089844 C-4.86534302 4.4065448 -4.56857666 3.64219116 -4.26281738 2.85467529 C-3.11306432 0.19278519 -3.01793272 0.11770408 0 0 Z M2.49609375 14.09765625 C1.65660555 16.19937492 0.82469719 18.3041225 -0.00390625 20.41015625 C-0.46796875 21.58191406 -0.93203125 22.75367188 -1.41015625 23.9609375 C-2.66853138 27.01612073 -2.66853138 27.01612073 -2.50390625 30.09765625 C1.12609375 30.09765625 4.75609375 30.09765625 8.49609375 30.09765625 C7.71790511 26.20671303 6.80735607 22.96329408 5.43359375 19.28515625 C5.07136719 18.30933594 4.70914062 17.33351563 4.3359375 16.328125 C4.05878906 15.59207031 3.78164062 14.85601562 3.49609375 14.09765625 C3.16609375 14.09765625 2.83609375 14.09765625 2.49609375 14.09765625 Z " fill="#757A7E" transform="translate(1455.50390625,108.90234375)"/>
<path d="M0 0 C29.44021739 0 29.44021739 0 33.83984375 3.4375 C38.15769968 9.58391413 38.57021604 13.53439369 38 21 C36.28728833 26.23328566 33.80886332 28.40321381 29 31 C22.81293827 32.66284033 16.34719207 32.05931955 10 32 C10 37.94 10 43.88 10 50 C6.7 50 3.4 50 0 50 C0 33.5 0 17 0 0 Z M10 9 C10 13.62 10 18.24 10 23 C15.49053506 23.16637985 19.87959667 23.24798195 25 21 C27.29827312 19.12061828 27.29827312 19.12061828 27.3125 16.0625 C27.25403399 13.05730248 27.25403399 13.05730248 25.75 11.1875 C22.31289744 8.85518041 18.80740952 8.88411303 14.75 8.9375 C12.39875 8.9684375 12.39875 8.9684375 10 9 Z " fill="#71757A" transform="translate(1209,109)"/>
<path d="M0 0 C1.12752686 0.03448242 2.25505371 0.06896484 3.41674805 0.10449219 C4.4819165 0.14864258 5.54708496 0.19279297 6.64453125 0.23828125 C7.59303955 0.27606689 8.54154785 0.31385254 9.51879883 0.3527832 C12.35460441 0.70845875 14.59146883 1.5158868 17.1875 2.6875 C15.55862416 4.41509559 13.91608437 6.06301727 12.1875 7.6875 C11.47352051 8.36268677 11.47352051 8.36268677 10.74511719 9.05151367 C5.51205774 13.38884616 1.07243428 13.1781868 -5.5 12.8125 C-13.36394579 12.5811704 -20.79647069 12.83425338 -28.5625 14.125 C-29.39225342 14.25914307 -30.22200684 14.39328613 -31.0769043 14.53149414 C-34.42051177 15.08452363 -37.75085541 15.67555452 -41.078125 16.3203125 C-48.91527706 17.55186497 -54.14414003 14.70248113 -60.8125 10.6875 C-60.8125 9.6975 -60.8125 8.7075 -60.8125 7.6875 C-57.47391787 6.25071733 -54.39747941 5.3238153 -50.8125 4.75 C-46.72119189 4.06357547 -42.76359998 3.17026118 -38.75 2.125 C-25.98198087 -0.82031589 -13.01686318 -0.42971266 0 0 Z " fill="#203A43" transform="translate(341.8125,122.3125)"/>
<path d="M0 0 C9.54459685 0.3129376 18.10198385 4.30486667 25 11 C30.33731355 17.22947447 32.47341617 23.57627346 32.25 31.80078125 C31.57568124 37.73267908 28.49276367 43.11696854 24 47 C18.26140895 50.67071945 12.80563084 52.82022862 6 53 C5.17242187 53.03867188 4.34484375 53.07734375 3.4921875 53.1171875 C-1.43229126 53.24948693 -5.38428755 52.94345787 -10 51 C-10.1875 48.125 -10.1875 48.125 -10 45 C-6.44283021 42.62855347 -5.17943787 42.86658885 -1 43.0625 C6.39176481 43.16160746 13.86390539 42.83013416 19.5625 37.6875 C21.71103449 33.67067465 23.2606233 30.56980084 22.49609375 25.96484375 C20.4352379 20.0712523 18.81837571 16.01531309 14 12 C14 11.34 14 10.68 14 10 C13.17242187 9.61521484 13.17242187 9.61521484 12.328125 9.22265625 C9.64532938 7.81373842 7.23182032 6.17549991 4.75 4.4375 C3.85796875 3.81746094 2.9659375 3.19742188 2.046875 2.55859375 C1.37140625 2.04425781 0.6959375 1.52992188 0 1 C0 0.67 0 0.34 0 0 Z " fill="#2B444C" transform="translate(335,202)"/>
<path d="M0 0 C0.99 0.33 1.98 0.66 3 1 C3.69517657 2.52938846 4.37390943 4.06768269 4.984375 5.6328125 C8.09446584 12.88171653 12.05914977 22.05914977 17.6875 27.6875 C18.120625 28.120625 18.55375 28.55375 19 29 C19 29.66 19 30.32 19 31 C19.53625 31.226875 20.0725 31.45375 20.625 31.6875 C23 33 23 33 25.625 35.375 C32.60171907 41.23822774 40.00865183 42.44570626 48.921875 42.3359375 C52.18275896 41.98005422 54.90528533 41.05693807 58 40 C59.32 40 60.64 40 62 40 C60.2465476 44.25456978 58.1853655 45.27247699 54.1328125 47.1171875 C43.70755596 51.43240358 34.92238985 50.75298473 24.43359375 47.0703125 C22 46 22 46 20 44 C19.80664062 44.69867188 19.61328125 45.39734375 19.4140625 46.1171875 C19.15367187 47.02726562 18.89328125 47.93734375 18.625 48.875 C18.24214844 50.23238281 18.24214844 50.23238281 17.8515625 51.6171875 C17 54 17 54 15 56 C15 53.36 15 50.72 15 48 C13.68 48.66 12.36 49.32 11 50 C11 49.34 11 48.68 11 48 C11.99 47.505 11.99 47.505 13 47 C14.81312718 44.48904362 14.81312718 44.48904362 15 41 C13.50340879 38.54938842 11.75257317 36.48188809 9.88671875 34.30078125 C2.28099453 25.02589188 -0.52309036 11.76953313 0 0 Z " fill="#28424A" transform="translate(394,228)"/>
<path d="M0 0 C0.83724609 -0.02384766 1.67449219 -0.04769531 2.53710938 -0.07226562 C7.00771781 -0.0616466 8.86169561 0.10408541 12.46484375 2.97265625 C15.5794885 7.06178391 15.78753346 9.39950641 15.4375 14.5625 C13.67786841 19.29150991 10.74001583 20.7484586 6.375 22.765625 C-0.11560267 25.43514706 -5.98758357 25.49532098 -12.5 22.8125 C-15.05314138 21.6777705 -16.28116529 21.00141775 -17.796875 18.63671875 C-19.30737203 14.54450485 -19.10805979 10.86578173 -17.4375 6.875 C-12.44091193 0.71254137 -7.47380639 -0.0982635 0 0 Z " fill="#1C373F" transform="translate(389.5625,190.4375)"/>
<path d="M0 0 C1.97982935 2.99216928 2.20251423 5.04360645 1.75 8.5625 C1.66234375 9.32691406 1.5746875 10.09132812 1.484375 10.87890625 C1 13 1 13 -1 16 C-1.66 16 -2.32 16 -3 16 C-3 16.66 -3 17.32 -3 18 C-11.06703291 21.37348649 -17.90078558 23.36100006 -26.2734375 19.984375 C-28.28986171 18.83473947 -29.57883292 17.84666621 -31 16 C-31.68986449 12.60816628 -31.58306611 9.40575997 -31 6 C-27.85733422 1.77984881 -23.80675014 -1.1423819 -18.75 -2.6875 C-11.76005961 -3.48181141 -6.22915031 -3.55951446 0 0 Z " fill="#1C3740" transform="translate(296,213)"/>
<path d="M0 0 C0.66 0 1.32 0 2 0 C5.31966902 13.1798764 5.98224879 24.71301655 3 38 C4.65 38.66 6.3 39.32 8 40 C8 40.33 8 40.66 8 41 C5.525 41.495 5.525 41.495 3 42 C3.99 42.495 3.99 42.495 5 43 C5 43.66 5 44.32 5 45 C2.03 44.505 2.03 44.505 -1 44 C-1.45375 44.825 -1.9075 45.65 -2.375 46.5 C-2.91125 47.325 -3.4475 48.15 -4 49 C-4.66 49 -5.32 49 -6 49 C-6.24105469 49.60585938 -6.48210937 50.21171875 -6.73046875 50.8359375 C-8.27156589 53.4629154 -9.63097565 54.22790328 -12.3125 55.625 C-13.07175781 56.02976562 -13.83101563 56.43453125 -14.61328125 56.8515625 C-15.40089844 57.23054688 -16.18851562 57.60953125 -17 58 C-17.75667969 58.37253906 -18.51335937 58.74507813 -19.29296875 59.12890625 C-22.86822996 60.27938713 -26.28423475 60.32963914 -30 60.3125 C-30.69867188 60.32861328 -31.39734375 60.34472656 -32.1171875 60.36132812 C-36.56759375 60.36552662 -39.49911295 59.81028237 -43 57 C-43 56.34 -43 55.68 -43 55 C-41.91460937 54.81824219 -40.82921875 54.63648438 -39.7109375 54.44921875 C-38.26553863 54.19580466 -36.82023082 53.94187075 -35.375 53.6875 C-34.30572266 53.51057617 -34.30572266 53.51057617 -33.21484375 53.33007812 C-28.66455664 52.51603594 -25.12845722 51.16108391 -21 49 C-20.01 49 -19.02 49 -18 49 C-17.7525 48.4225 -17.505 47.845 -17.25 47.25 C-15.81700012 44.67060021 -14.21575324 42.93878408 -12 41 C-11.34 41 -10.68 41 -10 41 C-9.7218042 40.2778833 -9.4436084 39.5557666 -9.15698242 38.81176758 C-8 36 -8 36 -6.7746582 33.5690918 C-3.15767198 26.37836666 -1.92038652 19.78089033 -1.1875 11.8125 C-1.06697266 10.66974609 -0.94644531 9.52699219 -0.82226562 8.34960938 C-0.53126728 5.56766517 -0.25751549 2.78520801 0 0 Z " fill="#2C454C" transform="translate(283,258)"/>
<path d="M0 0 C9.57 0 19.14 0 29 0 C26.69058841 4.61882319 23.71852197 7.23215139 19.93041992 10.55786133 C17.24114026 12.93163671 14.76305619 15.26393297 12.359375 17.94140625 C8.42449372 22.18407732 5.42651097 25.12611895 -0.46875 25.62109375 C-4.68197053 25.72445088 -8.81142061 25.44193686 -13 25 C-11.68706289 21.55688942 -10.1856658 18.35788604 -8.3984375 15.13671875 C-7.95677246 14.33709717 -7.51510742 13.53747559 -7.06005859 12.71362305 C-6.50398926 11.71500244 -5.94791992 10.71638184 -5.375 9.6875 C-3.60125 6.490625 -1.8275 3.29375 0 0 Z " fill="#787C81" transform="translate(1156,186)"/>
<path d="M0 0 C1.125 3.75 1.125 3.75 0 6 C-0.80832275 5.9292627 -1.61664551 5.85852539 -2.44946289 5.78564453 C-11.37964091 5.06871031 -20.23123952 4.84432532 -29.18579102 4.86962891 C-31.43187226 4.87498658 -33.6777529 4.86964615 -35.92382812 4.86328125 C-45.32452695 4.85942708 -54.62828203 5.24586487 -64 6 C-64.33 4.35 -64.66 2.7 -65 1 C-43.62453103 -6.74473513 -21.74378228 -5.95176522 0 0 Z " fill="#284149" transform="translate(421,180)"/>
<path d="M0 0 C0 1.98 0 3.96 0 6 C-0.85440674 6.14804077 -0.85440674 6.14804077 -1.72607422 6.29907227 C-9.03550723 7.65404477 -16.03735221 9.71496373 -23.125 11.9375 C-24.81689453 12.45860352 -24.81689453 12.45860352 -26.54296875 12.99023438 C-35.6823667 15.82825795 -44.46532582 19.15227658 -53.265625 22.9140625 C-57.81057186 24.71905568 -57.81057186 24.71905568 -60 25 C-60.66 24.34 -61.32 23.68 -62 23 C-61.94921875 21.0859375 -61.94921875 21.0859375 -61 19 C-44.01022401 5.96756237 -21.03427704 -0.1170739 0 0 Z " fill="#314951" transform="translate(305,190)"/>
<path d="M0 0 C0.66 0 1.32 0 2 0 C3.92100896 8.46045267 4.24628467 16.53430514 4.125 25.1875 C4.11597656 26.42564453 4.10695313 27.66378906 4.09765625 28.93945312 C4.07433276 31.95984511 4.04160477 34.97981399 4 38 C2 37 2 37 1 34 C0.34 35.98 -0.32 37.96 -1 40 C-1.33 40 -1.66 40 -2 40 C-1.89171875 38.29070312 -1.89171875 38.29070312 -1.78125 36.546875 C-1.19702337 26.76316541 -0.8992032 17.03953075 -1.03710938 7.23730469 C-1.05880936 5.15827957 -1.03414962 3.07885789 -1 1 C-0.67 0.67 -0.34 0.34 0 0 Z " fill="#3D545B" transform="translate(478,219)"/>
<path d="M0 0 C0.825 0.165 1.65 0.33 2.5 0.5 C1.5 2.5 1.5 2.5 -0.6940918 3.76660156 C-4.05829243 5.84489483 -6.65427563 8.42289165 -9.39453125 11.234375 C-9.94558029 11.79062561 -10.49662933 12.34687622 -11.06437683 12.91998291 C-12.81860903 14.69193463 -14.56600028 16.47042904 -16.3125 18.25 C-18.60723495 20.58154546 -20.90537047 22.90966647 -23.20703125 25.234375 C-23.75706818 25.79072632 -24.3071051 26.34707764 -24.87380981 26.92028809 C-28.4446712 30.50820075 -32.11103158 33.91761135 -36.01831055 37.14160156 C-37.75711003 38.62733389 -37.75711003 38.62733389 -39.5 41.5 C-40.16 41.17 -40.82 40.84 -41.5 40.5 C-39.96522984 38.59821959 -38.42261616 36.70378451 -36.875 34.8125 C-36.44832031 34.28205078 -36.02164063 33.75160156 -35.58203125 33.20507812 C-32.51665967 29.47630523 -29.23873688 26.54866699 -25.5 23.5 C-23.92274423 21.78520073 -23.92274423 21.78520073 -22.75 20.1875 C-22.0075 19.300625 -21.265 18.41375 -20.5 17.5 C-19.84 17.5 -19.18 17.5 -18.5 17.5 C-18.231875 16.860625 -17.96375 16.22125 -17.6875 15.5625 C-16.5 13.5 -16.5 13.5 -13.5 12.5 C-12.8014621 11.18308428 -12.13979491 9.84643407 -11.5 8.5 C-5.21698113 0.74528302 -5.21698113 0.74528302 0 0 Z " fill="#4A6066" transform="translate(214.5,115.5)"/>
<path d="M0 0 C0.78052734 0.00515625 1.56105469 0.0103125 2.36523438 0.015625 C8.12785603 0.09517802 8.12785603 0.09517802 10.4375 1.25 C10.4375 1.91 10.4375 2.57 10.4375 3.25 C11.4275 3.58 12.4175 3.91 13.4375 4.25 C8.87428244 6.53160878 4.79790043 6.58376877 -0.1875 6.5625 C-0.950625 6.57861328 -1.71375 6.59472656 -2.5 6.61132812 C-8.07483651 6.61621833 -8.07483651 6.61621833 -10.5859375 4.73046875 C-10.90820312 4.24191406 -11.23046875 3.75335938 -11.5625 3.25 C-8.26391373 -0.64278147 -4.79296339 -0.12728202 0 0 Z " fill="#385057" transform="translate(209.5625,47.75)"/>
<path d="M0 0 C6.46904969 -0.36617262 6.46904969 -0.36617262 8.8125 1.25 C9.204375 1.8275 9.59625 2.405 10 3 C10.391875 3.556875 10.78375 4.11375 11.1875 4.6875 C12.40948539 8.16545841 12.12249822 11.32505349 12 15 C7.33244585 14.28904804 5.41465848 11.61954692 2.484375 8.14453125 C0.63418291 5.47149058 0.08093395 3.23735816 0 0 Z " fill="#304850" transform="translate(300,95)"/>
<path d="M0 0 C-2.1385485 2.1385485 -3.13275314 2.42655063 -6 3 C-4.02 3.66 -2.04 4.32 0 5 C0 5.33 0 5.66 0 6 C-0.83402344 6.06058594 -1.66804688 6.12117188 -2.52734375 6.18359375 C-9.03706466 6.66828087 -15.51769975 7.23091353 -22 8 C-21.34 7.34 -20.68 6.68 -20 6 C-18.68 6 -17.36 6 -16 6 C-16 5.34 -16 4.68 -16 4 C-17.32 3.34 -18.64 2.68 -20 2 C-6.3667426 -0.29612756 -6.3667426 -0.29612756 0 0 Z " fill="#4A5F66" transform="translate(417,32)"/>
<path d="M0 0 C0.66 0.33 1.32 0.66 2 1 C-3.54174436 7.14201067 -9.12713501 13.23500006 -14.9375 19.125 C-15.81277344 20.01445312 -16.68804687 20.90390625 -17.58984375 21.8203125 C-19.70144335 23.72999252 -21.39193457 24.92288713 -24 26 C-22.34154464 21.92296392 -19.46498204 18.97703033 -16.5 15.8125 C-15.70674316 14.95845581 -15.70674316 14.95845581 -14.89746094 14.0871582 C-10.1922443 9.08276188 -5.21922275 4.4686708 0 0 Z " fill="#435A60" transform="translate(235,122)"/>
<path d="M0 0 C0.33 1.32 0.66 2.64 1 4 C-0.4117783 4.53394179 -1.82970244 5.05165104 -3.25 5.5625 C-4.03890625 5.85253906 -4.8278125 6.14257812 -5.640625 6.44140625 C-8.19103452 7.04522837 -9.55322229 6.8473932 -12 6 C-11.34 6 -10.68 6 -10 6 C-10 5.34 -10 4.68 -10 4 C-12.97 4 -15.94 4 -19 4 C-19 3.67 -19 3.34 -19 3 C-16.39643759 2.49666458 -13.79223349 1.99720622 -11.1875 1.5 C-10.08051758 1.28537109 -10.08051758 1.28537109 -8.95117188 1.06640625 C-5.92205609 0.49073719 -3.090804 0 0 0 Z " fill="#5B6F75" transform="translate(389,356)"/>
<path d="M0 0 C2.33944736 0.28730055 4.6739143 0.61936779 7 1 C1.27140125 4.81906583 -4.31318333 5.34000763 -11 5 C-11.66 4.67 -12.32 4.34 -13 4 C-13 4.66 -13 5.32 -13 6 C-13.99 5.67 -14.98 5.34 -16 5 C-16 4.34 -16 3.68 -16 3 C-10.89054867 1.72831434 -6.29805346 0.86754866 -1 1 C-0.67 0.67 -0.34 0.34 0 0 Z " fill="#4F646A" transform="translate(368,365)"/>
<path d="M0 0 C0.99 0.66 1.98 1.32 3 2 C3 2.66 3 3.32 3 4 C3.99 4.33 4.98 4.66 6 5 C4.25740319 14.59453303 4.25740319 14.59453303 1 18 C1 15.36 1 12.72 1 10 C-0.98 10.99 -0.98 10.99 -3 12 C-3 11.34 -3 10.68 -3 10 C-2.34 9.67 -1.68 9.34 -1 9 C0.88029419 4.58270925 0.88029419 4.58270925 0 0 Z " fill="#4F646A" transform="translate(408,266)"/>
<path d="M0 0 C1.32 0 2.64 0 4 0 C2.62071723 3.39460785 1.35343571 4.72525168 -1.9375 6.3125 C-2.97197266 6.83263672 -2.97197266 6.83263672 -4.02734375 7.36328125 C-6 8 -6 8 -9 7 C-7.35 6.67 -5.7 6.34 -4 6 C-4 5.34 -4 4.68 -4 4 C-5.98 4.33 -7.96 4.66 -10 5 C-10.33 4.34 -10.66 3.68 -11 3 C-10.28972656 2.86722656 -9.57945312 2.73445313 -8.84765625 2.59765625 C-7.92855469 2.42105469 -7.00945312 2.24445313 -6.0625 2.0625 C-4.68771484 1.80146484 -4.68771484 1.80146484 -3.28515625 1.53515625 C-1.04710156 1.22285012 -1.04710156 1.22285012 0 0 Z " fill="#495F65" transform="translate(452,268)"/>
<path d="M0 0 C0 3 0 3 -2.1171875 5.15625 C-3.02726563 5.9296875 -3.93734375 6.703125 -4.875 7.5 C-7.73797009 9.94698299 -9.90408388 11.85612581 -12 15 C-12.66 15 -13.32 15 -14 15 C-12.77377763 8.71561033 -8.95773809 5.62943845 -4 2 C-2.68441396 1.29896107 -1.35563312 0.62006537 0 0 Z " fill="#4C6168" transform="translate(537,163)"/>
<path d="M0 0 C0 0.66 0 1.32 0 2 C-1.9575985 2.50286934 -3.91610377 3.0022099 -5.875 3.5 C-6.96554687 3.7784375 -8.05609375 4.056875 -9.1796875 4.34375 C-12 5 -12 5 -14 5 C-14 4.01 -14 3.02 -14 2 C-4.58997722 -1.62870159 -4.58997722 -1.62870159 0 0 Z " fill="#122E36" transform="translate(401,36)"/>
<path d="M0 0 C0.90105469 0.00902344 1.80210937 0.01804687 2.73046875 0.02734375 C3.41753906 0.03894531 4.10460937 0.05054688 4.8125 0.0625 C4.4825 1.3825 4.1525 2.7025 3.8125 4.0625 C-2.6225 4.5575 -2.6225 4.5575 -9.1875 5.0625 C-8.8575 3.7425 -8.5275 2.4225 -8.1875 1.0625 C-5.17259443 0.05753148 -3.14568308 -0.04085303 0 0 Z " fill="#465C62" transform="translate(365.1875,357.9375)"/>
<path d="M0 0 C0.99 0.33 1.98 0.66 3 1 C4.7529462 4.57331341 6.21769326 8.08846628 7 12 C5.35 11.01 3.7 10.02 2 9 C1.67 9.66 1.34 10.32 1 11 C-0.17571451 7.32589215 -0.07366746 3.83070817 0 0 Z " fill="#62747A" transform="translate(394,228)"/>
<path d="M0 0 C6.47407217 -0.24430461 12.72542754 0.28875296 19 2 C19.66 2.66 20.32 3.32 21 4 C13.52605426 4.37369729 7.17859349 3.04061541 0 1 C0 0.67 0 0.34 0 0 Z " fill="#55696F" transform="translate(387,154)"/>
<path d="M0 0 C0.33 0 0.66 0 1 0 C1 1.98 1 3.96 1 6 C3.475 6.99 3.475 6.99 6 8 C6 8.33 6 8.66 6 9 C4.35 9.33 2.7 9.66 1 10 C1.66 10.33 2.32 10.66 3 11 C3 11.66 3 12.32 3 13 C1.02 12.34 -0.96 11.68 -3 11 C-3 10.01 -3 9.02 -3 8 C-2.34 8 -1.68 8 -1 8 C-1.020625 7.05125 -1.04125 6.1025 -1.0625 5.125 C-1 2 -1 2 0 0 Z " fill="#576B71" transform="translate(285,290)"/>
<path d="M0 0 C1.58409994 0.11487748 3.16728963 0.24234508 4.75 0.375 C6.07257813 0.47941406 6.07257813 0.47941406 7.421875 0.5859375 C9.99066382 0.99850055 11.75841015 1.71160957 14 3 C13.67 4.65 13.34 6.3 13 8 C11.35 8 9.7 8 8 8 C8 7.34 8 6.68 8 6 C9.32 6 10.64 6 12 6 C12 5.34 12 4.68 12 4 C6.06 3.01 6.06 3.01 0 2 C0 1.34 0 0.68 0 0 Z " fill="#697B81" transform="translate(408,178)"/>
<path d="M0 0 C5.37992836 0.33990833 9.53273547 0.68557793 14 4 C10.86128812 5.56935594 8.46144178 5.35201103 5 5 C2.0625 2.5 2.0625 2.5 0 0 Z " fill="#5E7177" transform="translate(335,202)"/>
<path d="M0 0 C0.66 0 1.32 0 2 0 C2.36463732 1.74784829 2.7163078 3.49840502 3.0625 5.25 C3.25972656 6.22453125 3.45695312 7.1990625 3.66015625 8.203125 C3.98397535 10.868119 3.85503199 12.48871723 3 15 C1 9.25 1 9.25 1 7 C0.34 7 -0.32 7 -1 7 C-1.04254356 5.00045254 -1.04080783 2.99958364 -1 1 C-0.67 0.67 -0.34 0.34 0 0 Z " fill="#6A7B81" transform="translate(478,219)"/>
<path d="M0 0 C6.76761128 0.94457629 12.8600433 1.93002165 19 5 C14.90913548 6.67641098 11.28488982 5.2409319 7.25 4.0625 C6.20392578 3.76956055 6.20392578 3.76956055 5.13671875 3.47070312 C3.42201027 2.9891754 1.71065123 2.49574843 0 2 C0 1.34 0 0.68 0 0 Z " fill="#596D73" transform="translate(250,53)"/>
<path d="M0 0 C0.33 0.66 0.66 1.32 1 2 C-0.4375 4.625 -0.4375 4.625 -2 7 C-1.38511719 6.62746094 -0.77023437 6.25492188 -0.13671875 5.87109375 C1.07564453 5.16146484 1.07564453 5.16146484 2.3125 4.4375 C3.51326172 3.72400391 3.51326172 3.72400391 4.73828125 2.99609375 C7 2 7 2 10 3 C3.07 6.465 3.07 6.465 -4 10 C-2.875 3.25 -2.875 3.25 0 0 Z " fill="#748489" transform="translate(582,195)"/>
<path d="M0 0 C-6.68393723 4.45595815 -13.20745184 4.25364533 -21 4 C-21 3.67 -21 3.34 -21 3 C-18.94921875 2.77213542 -16.8984375 2.54427083 -14.84765625 2.31640625 C-12.98859771 2.18113386 -12.98859771 2.18113386 -12 1 C-7.96497918 0.30163101 -4.09439083 -0.12407245 0 0 Z " fill="#566A70" transform="translate(407,92)"/>
<path d="M0 0 C0.85271484 0.19916016 0.85271484 0.19916016 1.72265625 0.40234375 C5.47774376 1.2611868 9.17043506 2.06210796 13 2.5 C14.485 2.7475 14.485 2.7475 16 3 C16.33 3.66 16.66 4.32 17 5 C10.48208608 5.3540919 5.82478551 5.03901852 0 2 C0 1.34 0 0.68 0 0 Z " fill="#5E7177" transform="translate(488,223)"/>
<path d="M0 0 C0.66 0.33 1.32 0.66 2 1 C-2.30635874 4.12211008 -6.73783128 6.86021852 -12 8 C-14.2421875 7.57421875 -14.2421875 7.57421875 -16 7 C-13.8967433 6.01888025 -11.79236311 5.04016866 -9.6875 4.0625 C-8.51574219 3.51722656 -7.34398437 2.97195312 -6.13671875 2.41015625 C-3 1 -3 1 0 0 Z " fill="#607378" transform="translate(244,174)"/>
<path d="M0 0 C0.79921875 0.00902344 1.5984375 0.01804688 2.421875 0.02734375 C3.02515625 0.03894531 3.6284375 0.05054688 4.25 0.0625 C3.25 2.0625 3.25 2.0625 1.578125 2.68359375 C-1.31208656 3.15398053 -4.07272535 3.1568182 -7 3.125 C-8.07765625 3.11597656 -9.1553125 3.10695312 -10.265625 3.09765625 C-11.08546875 3.08605469 -11.9053125 3.07445312 -12.75 3.0625 C-8.41514632 0.74025696 -4.91048478 -0.07221301 0 0 Z " fill="#51656B" transform="translate(315.75,154.9375)"/>
<path d="M0 0 C2.85941623 2.85941623 3.51403574 6.03390456 4 10 C3.125 12.5 3.125 12.5 2 14 C1.34 14 0.68 14 0 14 C0 9.38 0 4.76 0 0 Z " fill="#1C373F" transform="translate(478,226)"/>
<path d="M0 0 C0 0.99 0 1.98 0 3 C-3.3 3.33 -6.6 3.66 -10 4 C-10 3.01 -10 2.02 -10 1 C-6.56484998 0.37542727 -3.50935186 0 0 0 Z " fill="#55696F" transform="translate(348,361)"/>
<path d="M0 0 C1.53271273 4.58798777 0.02911182 6.77944742 -2 11 C-1.01 11.33 -0.02 11.66 1 12 C-2 14 -2 14 -5 14 C-4.28269264 10.76834156 -3.18684926 7.81292078 -1.9375 4.75 C-1.57527344 3.85796875 -1.21304688 2.9659375 -0.83984375 2.046875 C-0.56269531 1.37140625 -0.28554687 0.6959375 0 0 Z " fill="#6C7D83" transform="translate(208,202)"/>
<path d="M0 0 C3.3 0.33 6.6 0.66 10 1 C10 1.66 10 2.32 10 3 C12.64 3.33 15.28 3.66 18 4 C18 4.33 18 4.66 18 5 C11.33499135 5.59244521 6.13047025 3.48322845 0 1 C0 0.67 0 0.34 0 0 Z " fill="#566A70" transform="translate(273,355)"/>
<path d="M0 0 C2.31 0.33 4.62 0.66 7 1 C5.02 1.99 5.02 1.99 3 3 C3 3.66 3 4.32 3 5 C1.35 4.67 -0.3 4.34 -2 4 C-1.34 2.68 -0.68 1.36 0 0 Z " fill="#67797E" transform="translate(346,370)"/>
<path d="M0 0 C1.3805087 3.76668598 0.59568159 6.44789173 -0.4375 10.25 C-0.72496094 11.32765625 -1.01242187 12.4053125 -1.30859375 13.515625 C-1.53675781 14.33546875 -1.76492188 15.1553125 -2 16 C-2.33 16 -2.66 16 -3 16 C-3.33266291 9.79029227 -2.45029331 5.71735105 0 0 Z " fill="#3E555C" transform="translate(491,255)"/>
<path d="M0 0 C0.66 0 1.32 0 2 0 C3.28317892 3.84953676 3.06643637 6.94738135 3 11 C2.01 10.67 1.02 10.34 0 10 C0 6.7 0 3.4 0 0 Z " fill="#3D545B" transform="translate(283,258)"/>
<path d="M0 0 C2.73905337 3.15178744 3.55269393 5.64817614 4.1875 9.75 C4.34605469 10.73484375 4.50460938 11.7196875 4.66796875 12.734375 C4.77753906 13.48203125 4.88710937 14.2296875 5 15 C1.50741507 11.50741507 0.07908935 7.4499715 -0.1875 2.5625 C-0.125625 1.716875 -0.06375 0.87125 0 0 Z " fill="#596D72" transform="translate(185,266)"/>
<path d="M0 0 C5.94 0.99 5.94 0.99 12 2 C11.67 3.32 11.34 4.64 11 6 C10.01 6 9.02 6 8 6 C8 5.01 8 4.02 8 3 C6.865625 2.87625 5.73125 2.7525 4.5625 2.625 C3.386875 2.41875 2.21125 2.2125 1 2 C0.67 1.34 0.34 0.68 0 0 Z " fill="#7E8D92" transform="translate(498,222)"/>
<path d="M0 0 C2.31 0.33 4.62 0.66 7 1 C7 1.99 7 2.98 7 4 C4.5 5.6875 4.5 5.6875 2 7 C2.33 5.35 2.66 3.7 3 2 C2.01 2 1.02 2 0 2 C0 1.34 0 0.68 0 0 Z " fill="#63767B" transform="translate(351,123)"/>
<path d="M0 0 C2.64 0 5.28 0 8 0 C8 0.66 8 1.32 8 2 C3.84732824 5.11450382 3.84732824 5.11450382 0.6875 4.6875 C0.130625 4.460625 -0.42625 4.23375 -1 4 C0.32 3.67 1.64 3.34 3 3 C3 2.34 3 1.68 3 1 C2.01 0.67 1.02 0.34 0 0 Z " fill="#2F4850" transform="translate(371,360)"/>
<path d="M0 0 C0.66 0.33 1.32 0.66 2 1 C-0.31 2.32 -2.62 3.64 -5 5 C-5 4.01 -5 3.02 -5 2 C-2.625 0.9375 -2.625 0.9375 0 0 Z M-6 5 C-3.03 5.495 -3.03 5.495 0 6 C-3 8 -3 8 -5.1875 7.625 C-5.785625 7.41875 -6.38375 7.2125 -7 7 C-6.67 6.34 -6.34 5.68 -6 5 Z " fill="#596D73" transform="translate(400,343)"/>
<path d="M0 0 C0.33 0 0.66 0 1 0 C1.33 3.63 1.66 7.26 2 11 C1.34 11 0.68 11 0 11 C-1.16461426 7.50615721 -1.13568319 4.66344611 -1 1 C-0.67 0.67 -0.34 0.34 0 0 Z " fill="#52666C" transform="translate(192,247)"/>
<path d="M0 0 C0 0.66 0 1.32 0 2 C-3.01490557 3.00496852 -5.04181692 3.10335303 -8.1875 3.0625 C-9.53908203 3.04896484 -9.53908203 3.04896484 -10.91796875 3.03515625 C-11.60503906 3.02355469 -12.29210937 3.01195313 -13 3 C-8.55956658 0.68570631 -5.03693007 0 0 0 Z " fill="#5F7278" transform="translate(314,123)"/>
<path d="M0 0 C8.57142857 0.71428571 8.57142857 0.71428571 12 4 C4.31578947 4.29554656 4.31578947 4.29554656 1 2 C0.67 1.34 0.34 0.68 0 0 Z " fill="#5F7278" transform="translate(184,91)"/>
<path d="M0 0 C1.98 0.99 1.98 0.99 4 2 C4.125 8.75 4.125 8.75 3 11 C2.34 11 1.68 11 1 11 C1.03255208 9.01432292 1.06510417 7.02864583 1.09765625 5.04296875 C1.08263217 2.79694539 1.08263217 2.79694539 0 0 Z " fill="#4B6167" transform="translate(450,45)"/>
<path d="M0 0 C0.33 0.66 0.66 1.32 1 2 C0.67 2.99 0.34 3.98 0 5 C2.64 5 5.28 5 8 5 C8 5.33 8 5.66 8 6 C4.7 6 1.4 6 -2 6 C-2.33 4.68 -2.66 3.36 -3 2 C-2.01 1.34 -1.02 0.68 0 0 Z " fill="#89979B" transform="translate(568,365)"/>
<path d="M0 0 C-0.8125 1.9375 -0.8125 1.9375 -2 4 C-2.99 4.33 -3.98 4.66 -5 5 C-5 4.34 -5 3.68 -5 3 C-6.65 3 -8.3 3 -10 3 C-10 2.67 -10 2.34 -10 2 C-6.38026598 0.68373308 -3.90432869 0 0 0 Z " fill="#7D8C91" transform="translate(456,268)"/>
<path d="M0 0 C0.33 0.66 0.66 1.32 1 2 C-3.75 3.125 -3.75 3.125 -6 2 C-6 2.66 -6 3.32 -6 4 C-6.99 3.67 -7.98 3.34 -9 3 C-9 2.34 -9 1.68 -9 1 C-5.8035914 -0.06546953 -3.34252724 -0.07427838 0 0 Z " fill="#7F8E93" transform="translate(361,367)"/>
<path d="M0 0 C0.66 0.33 1.32 0.66 2 1 C1.34 2.65 0.68 4.3 0 6 C1.98 6 3.96 6 6 6 C6 6.33 6 6.66 6 7 C3.36 7 0.72 7 -2 7 C-1.125 1.125 -1.125 1.125 0 0 Z " fill="#4E636A" transform="translate(570,363)"/>
<path d="M0 0 C0.33 1.32 0.66 2.64 1 4 C0.34 4 -0.32 4 -1 4 C-1.33 3.34 -1.66 2.68 -2 2 C-4.64 2 -7.28 2 -10 2 C-10 1.34 -10 0.68 -10 0 C-6.30458414 -0.95024979 -3.69541586 -0.95024979 0 0 Z " fill="#63767B" transform="translate(497,359)"/>
<path d="M0 0 C7.75 0.75 7.75 0.75 10 3 C2.25 3.125 2.25 3.125 0 2 C0 1.34 0 0.68 0 0 Z " fill="#4F646A" transform="translate(180,351)"/>
<path d="M0 0 C4.81449408 0.48144941 7.60171741 0.8008587 12 3 C8.7 3 5.4 3 2 3 C2 2.34 2 1.68 2 1 C1.34 0.67 0.68 0.34 0 0 Z " fill="#62757A" transform="translate(305,303)"/>
<path d="M0 0 C0.66 0.33 1.32 0.66 2 1 C1.67 1.99 1.34 2.98 1 4 C2.65 4 4.3 4 6 4 C6 4.66 6 5.32 6 6 C4.02 6 2.04 6 0 6 C-0.38218767 4.34385343 -0.71395102 2.67542976 -1 1 C-0.67 0.67 -0.34 0.34 0 0 Z " fill="#6E8085" transform="translate(357,180)"/>
<path d="M0 0 C1.24546405 2.49092811 0.7767578 3.41080733 0 6 C0.66 6.33 1.32 6.66 2 7 C0.35 7.33 -1.3 7.66 -3 8 C-2.25 2.25 -2.25 2.25 0 0 Z " fill="#6A7B80" transform="translate(49,354)"/>
<path d="M0 0 C0.66 0 1.32 0 2 0 C1.67 3.3 1.34 6.6 1 10 C0.34 9.67 -0.32 9.34 -1 9 C-0.67 6.03 -0.34 3.06 0 0 Z " fill="#55696F" transform="translate(606,329)"/>
<path d="M0 0 C0.66 0 1.32 0 2 0 C2.33 2.97 2.66 5.94 3 9 C2.34 9 1.68 9 1 9 C0.67 6.03 0.34 3.06 0 0 Z " fill="#465C63" transform="translate(615,276)"/>
<path d="M0 0 C2.31 0 4.62 0 7 0 C7 0.99 7 1.98 7 3 C5.02 3 3.04 3 1 3 C0.67 2.01 0.34 1.02 0 0 Z " fill="#42585F" transform="translate(395,176)"/>
<path d="M0 0 C4.54805635 -0.17835515 7.8794254 0.00214565 12 2 C12 2.66 12 3.32 12 4 C7.80530429 3.40075776 3.99000166 2.42500059 0 1 C0 0.67 0 0.34 0 0 Z " fill="#4F646B" transform="translate(564,171)"/>
<path d="M0 0 C2.97 0.495 2.97 0.495 6 1 C6 1.66 6 2.32 6 3 C7.32 3 8.64 3 10 3 C10 3.66 10 4.32 10 5 C5.2482602 4.56802365 3.07999946 3.67230705 0 0 Z " fill="#5B6E74" transform="translate(174,96)"/>
<path d="M0 0 C0.90105469 0.01804687 1.80210937 0.03609375 2.73046875 0.0546875 C3.41753906 0.07789063 4.10460937 0.10109375 4.8125 0.125 C4.8125 0.455 4.8125 0.785 4.8125 1.125 C-3.61607143 3.55357143 -3.61607143 3.55357143 -8.1875 2.125 C-4.87379 -0.08414 -3.8428979 -0.09981553 0 0 Z " fill="#63757B" transform="translate(365.1875,357.875)"/>
<path d="M0 0 C3.14958831 3.42346555 3.56179109 6.44262737 4 11 C0.85041169 7.57653445 0.43820891 4.55737263 0 0 Z " fill="#556970" transform="translate(626,270)"/>
<path d="M0 0 C0.66 0 1.32 0 2 0 C1.67 2.97 1.34 5.94 1 9 C0.34 9 -0.32 9 -1 9 C-0.67 6.03 -0.34 3.06 0 0 Z " fill="#697B80" transform="translate(193,204)"/>
<path d="M0 0 C1.64826111 2.96687001 2.44271087 5.65626525 3 9 C1.35 8.67 -0.3 8.34 -2 8 C-1.01 7.67 -0.02 7.34 1 7 C0.67 4.69 0.34 2.38 0 0 Z " fill="#708186" transform="translate(439,171)"/>
<path d="M0 0 C2.97 0 5.94 0 9 0 C5.81237635 2.12508244 3.73487777 2.5020163 0 3 C0 2.01 0 1.02 0 0 Z " fill="#5A6D73" transform="translate(260,108)"/>
<path d="M0 0 C-0.66 0 -1.32 0 -2 0 C-2 0.66 -2 1.32 -2 2 C-4.64 2 -7.28 2 -10 2 C-6.19832777 -0.53444815 -4.31588991 -1.33941411 0 0 Z " fill="#566A70" transform="translate(370,352)"/>
<path d="M0 0 C0.33 0.99 0.66 1.98 1 3 C-1.35438733 4.42944945 -2.48032433 5.08661261 -5.25 4.625 C-5.8275 4.41875 -6.405 4.2125 -7 4 C-4.69 2.68 -2.38 1.36 0 0 Z " fill="#708186" transform="translate(415,334)"/>
<path d="M0 0 C0.6875 1.625 0.6875 1.625 1 4 C-0.4375 7.25 -0.4375 7.25 -2 10 C-2.6875 8.375 -2.6875 8.375 -3 6 C-1.5625 2.75 -1.5625 2.75 0 0 Z " fill="#566A70" transform="translate(460,276)"/>
<path d="M0 0 C0.66 0 1.32 0 2 0 C2.1875 2.375 2.1875 2.375 2 5 C1.01 5.66 0.02 6.32 -1 7 C-1.04254356 5.00045254 -1.04080783 2.99958364 -1 1 C-0.67 0.67 -0.34 0.34 0 0 Z " fill="#A5B0B3" transform="translate(478,219)"/>
<path d="M0 0 C1.32 0 2.64 0 4 0 C4.66 1.98 5.32 3.96 6 6 C3.37812506 4.95125002 2.20628639 4.35068687 0.75 1.875 C0.5025 1.25625 0.255 0.6375 0 0 Z " fill="#40575E" transform="translate(343,206)"/>
<path d="M0 0 C0.99 0.66 1.98 1.32 3 2 C3 3.32 3 4.64 3 6 C-1.875 4.25 -1.875 4.25 -3 2 C-2.01 2 -1.02 2 0 2 C0 1.34 0 0.68 0 0 Z " fill="#728388" transform="translate(532,199)"/>
<path d="M0 0 C0.86625 0.3403125 0.86625 0.3403125 1.75 0.6875 C0 2.25 0 2.25 -2.25 3.6875 C-4.5 3.375 -4.5 3.375 -6.25 2.6875 C-2.80384615 -0.38942308 -2.80384615 -0.38942308 0 0 Z " fill="#596C72" transform="translate(344.25,75.3125)"/>
</svg>
