<svg width="407" height="89" viewBox="0 0 407 89" fill="none" xmlns="http://www.w3.org/2000/svg">
<path d="M285 10C313 10 313 10 322 14C326.682 18.9157 327.467 22.4462 327.414 29.0938C326.746 33.7818 324.527 36.9111 321 40C318.125 41 318.125 41 316 41C318.845 46.9671 322.095 52.4354 325.75 57.9375C326.747 59.4453 327.742 60.9544 328.734 62.4648C329.17 63.1209 329.605 63.7769 330.054 64.4529C331 66 331 66 331 67C327.518 67.5742 324.465 67.7514 321 67C318.056 64.3893 316.364 61.2467 314.5 57.8125C313.99 56.9482 313.479 56.0839 312.953 55.1934C310.612 51.1727 308.737 47.3424 307 43C302.71 43 298.42 43 294 43C294 50.92 294 58.84 294 67C291.03 67 288.06 67 285 67C285 48.19 285 29.38 285 10Z" fill="white"/>
<path d="M243 10C246.63 10 250.26 10 254 10C256.72 16.6976 259.279 23.4215 261.672 30.2422C261.999 31.173 262.326 32.1038 262.664 33.0628C263.347 35.0102 264.029 36.958 264.71 38.9062C265.755 41.8902 266.809 44.8709 267.863 47.8516C268.529 49.7524 269.195 51.6534 269.859 53.5547C270.333 54.8875 270.333 54.8875 270.816 56.2473C271.103 57.0756 271.39 57.9039 271.687 58.7573C272.068 59.8446 272.068 59.8446 272.457 60.9538C273 63 273 63 273 67C270.36 67 267.72 67 265 67C264.163 64.8766 263.33 62.7512 262.5 60.625C262.036 59.4416 261.572 58.2583 261.094 57.0391C260 54 260 54 260 52C252.41 52.33 244.82 52.66 237 53C236.01 56.3 235.02 59.6 234 63C233.34 64.32 232.68 65.64 232 67C229.03 67 226.06 67 223 67C223.433 65.7135 223.866 64.427 224.312 63.1016C225.409 59.8145 226.473 56.5201 227.5 53.2109C227.748 52.4143 227.995 51.6177 228.25 50.7969C228.752 49.1752 229.252 47.5528 229.75 45.9297C230.877 42.3135 232.038 38.7807 233.566 35.3125C234.951 32.1123 235.974 28.973 236.938 25.625C238.57 20.1712 240.561 15.1398 243 10Z" fill="white"/>
<path d="M13 22C13.66 22 14.32 22 15 22C17.3955 25.6636 16.7382 27.8104 16 32C15.4067 40.3853 15.3257 46.8511 20 54C20.66 54.66 21.32 55.32 22 56C21.505 55.2575 21.01 54.515 20.5 53.75C18.0772 48.9159 18.2791 43.2519 19 38C20.5235 35.1289 20.5235 35.1289 22 33C24.1688 33.506 25.9997 33.9998 28 35C27.7603 35.8372 27.7603 35.8372 27.5157 36.6914C26.3749 41.799 26.1905 47.0975 28.25 51.9375C30.6703 54.79 32.6245 56.7719 36.4024 57.3984C43.253 57.4121 43.253 57.4121 49 54C52.2372 49.2 52.4446 45.6009 52 40C51.1179 37.1179 51.1179 37.1179 50 35C51.98 34.34 53.96 33.68 56 33C59.6888 37.6511 60.4721 41.0515 60 47C58.8575 50.4225 57.4821 53.7117 56 57C61.6812 50.7312 63.4725 44.6163 63.2422 36.2617C62.9564 33.5924 62.0787 31.4449 61 29C61.2932 25.6775 62.5186 24.1578 65 22C70.489 29.9678 71.2177 37.5415 70 47C67.1962 56.2082 61.9654 62.4058 53.8282 67.3086C45.9887 71.1099 35.8446 71.5883 27.4414 69.3047C25.429 68.371 23.7746 67.3267 22 66C21.4122 65.6223 20.8244 65.2446 20.2188 64.8555C13.3225 59.8496 8.75787 51.7262 7.42192 43.3945C7.19362 35.9177 8.42274 29.5943 12 23C12.33 22.67 12.66 22.34 13 22Z" fill="white"/>
<path d="M344 10C356.87 10 369.74 10 383 10C383 12.64 383 15.28 383 18C373.1 18 363.2 18 353 18C353 23.28 353 28.56 353 34C360.92 34 368.84 34 377 34C377 36.31 377 38.62 377 41C369.08 41 361.16 41 353 41C353 47.27 353 53.54 353 60C362.9 60 372.8 60 383 60C383 62.31 383 64.62 383 67C370.13 67 357.26 67 344 67C344 48.19 344 29.38 344 10Z" fill="white"/>
<path d="M139.375 9.5621C140.126 9.56533 140.877 9.56855 141.65 9.57187C147.341 9.71549 151.23 10.752 156 13.9996C155.34 15.9796 154.68 17.9596 154 19.9996C149.25 19.1246 149.25 19.1246 147 17.9996C144.901 17.8249 142.794 17.7324 140.688 17.6871C138.992 17.631 138.992 17.631 137.262 17.5738C133.333 18.0866 131.717 19.1565 129 21.9996C128.426 25.5718 128.426 25.5718 130 28.9996C132.746 30.7766 134.981 31.8409 138 32.9996C154.245 39.3843 154.245 39.3843 157 44.9996C158.098 50.7168 157.85 55.5242 154.562 60.4371C150.262 65.3187 145.539 67.5841 139.105 68.3394C131.19 68.5935 123.667 67.4442 117 62.9996C117.812 60.0621 117.812 60.0621 119 56.9996C122 55.9996 122 55.9996 124.938 57.4371C129.992 59.7756 135.552 59.7567 141 58.9996C143.241 57.8321 145.208 56.7912 147 54.9996C147.501 51.626 147.501 51.626 147 47.9996C143.217 44.2234 138.93 42.5984 134.062 40.6871C123.832 36.3758 123.832 36.3758 120.793 32.0191C119.093 27.6885 119.093 23.5204 120 18.9996C123.756 11.1545 131.466 9.4571 139.375 9.5621Z" fill="white"/>
<path d="M196.125 9.5625C197.257 9.5567 197.257 9.5567 198.412 9.55078C204.834 9.68284 209.67 11.3331 215 15C214.25 17.4375 214.25 17.4375 213 20C211.105 20.9023 211.105 20.9023 209 21C207.066 20.2462 205.133 19.4907 203.207 18.7188C197.936 17.002 192.891 17.3236 187.812 19.5C182.983 22.2042 179.069 26.6808 177.359 31.9883C176.044 39.3501 176.892 45.654 181 52C184.496 55.7138 187.828 58.8552 193.047 59.2031C194.269 59.2186 195.491 59.2341 196.75 59.25C198.568 59.2887 198.568 59.2887 200.422 59.3281C204.286 58.9738 206.597 57.7697 210 56C210.99 56.33 211.98 56.66 213 57C214.188 60.0625 214.188 60.0625 215 63C213.775 63.6536 212.545 64.2975 211.312 64.9375C210.286 65.477 210.286 65.477 209.238 66.0273C202.332 69.0285 193.895 69.2872 186.797 66.9414C178.756 63.2138 173.372 58.6485 169.34 50.7461C167.897 46.7129 167.552 43.2243 167.625 39C167.608 37.9907 167.608 37.9907 167.59 36.9609C167.632 29.6556 170.431 23.6517 175 18C177.874 15.7783 180.865 13.8323 184 12C184.585 11.6223 185.17 11.2446 185.773 10.8555C189.16 9.55413 192.544 9.57502 196.125 9.5625Z" fill="white"/>
<path d="M38.875 0.562849C39.6651 0.571148 40.4552 0.579446 41.2693 0.587996C51.7837 0.89168 59.3645 4.81918 67 12.0003C69.3038 14.5145 71.1957 17.1102 73 20.0003C73.6207 20.9111 73.6207 20.9111 74.2539 21.8402C77.2929 27.1875 77.3833 32.5558 77.4375 38.5629C77.4477 39.3663 77.4578 40.1698 77.4683 40.9977C77.3312 50.4122 74.0032 56.9161 68 64.0004C67.2459 64.9323 67.2459 64.9323 66.4766 65.8832C60.4454 72.6792 51.1573 76.4851 42.1523 77.2386C30.673 77.5036 21.5498 74.8361 13 67.0004C5.48533 59.5903 1.03791 50.4469 0.6875 39.8129C0.985887 28.3328 4.11014 19.4776 12 11.0003C20.0798 3.99611 28.1931 0.417525 38.875 0.562849ZM12 15.0003C4.73869 24.717 2.86436 33.9795 4 46.0004C6.45024 56.0273 12.7483 65.0624 21.625 70.5004C31.3384 74.8174 41.6124 75.8057 51.875 72.3754C62.0613 68.0824 68.4063 61.4672 72.6328 51.2582C75.5263 43.2231 75.3882 33.5244 72.8984 25.4105C68.398 15.8681 62.1312 9.59806 52.5859 5.10191C37.6991 0.52883 22.8973 4.02906 12 15.0003Z" fill="white"/>
<path d="M95 11C97.64 11 100.28 11 103 11C103 29.48 103 47.96 103 67C100.36 67 97.72 67 95 67C95 48.52 95 30.04 95 11Z" fill="white"/>
<path d="M294 16.9997C296.846 16.9172 299.693 16.8347 302.625 16.7497C303.51 16.7133 304.395 16.6769 305.307 16.6394C310.688 16.5643 313.754 17.3832 318 20.9997C319.55 24.1002 319.29 26.5787 319 29.9997C317.204 32.753 315.947 34.526 313 35.9997C311.552 36.0831 310.099 36.107 308.648 36.0974C307.882 36.0949 307.115 36.0924 306.326 36.0898C305.352 36.0807 304.378 36.0716 303.375 36.0622C300.281 36.0416 297.188 36.021 294 35.9997C294 29.7297 294 23.4597 294 16.9997Z" fill="black"/>
<path d="M33 87C156.42 87 279.84 87 407 87C407 87.33 407 87.66 407 88C359.788 88.1274 312.576 88.2548 265.364 88.3822C259.795 88.3972 254.226 88.4122 248.656 88.4272C247.548 88.4302 246.439 88.4332 245.297 88.4363C227.325 88.4848 209.353 88.5333 191.382 88.5818C172.952 88.6316 154.523 88.6813 136.093 88.731C124.714 88.7617 113.335 88.7924 101.955 88.8231C94.1607 88.8441 86.3661 88.8652 78.5715 88.8862C74.069 88.8983 69.5664 88.9104 65.0639 88.9226C60.9465 88.9338 56.8292 88.9449 52.7119 88.9559C51.2179 88.96 49.7239 88.964 48.2299 88.968C46.2077 88.9735 44.1854 88.979 42.1632 88.9844C41.0373 88.9874 39.9114 88.9905 38.7515 88.9936C36.8343 88.9981 34.9172 89 33 89C33 88.34 33 87.68 33 87Z" fill="white"/>
<path d="M248 20C251.279 23.7026 252.607 27.9032 254.188 32.5C254.46 33.2593 254.733 34.0185 255.014 34.8008C256.312 38.5156 257 40.9759 257 45C251.39 45 245.78 45 240 45C240.764 39.6552 241.619 35.7615 243.438 30.8125C243.869 29.6227 244.301 28.4329 244.746 27.207C245.722 24.7116 246.741 22.3599 248 20Z" fill="black"/>
<path d="M67 62C67 65 67 65 65.6016 66.6836C55.3347 75.7939 46.175 76.5885 33 76C33 75.67 33 75.34 33 75C33.8108 74.902 34.6216 74.8041 35.457 74.7031C47.9009 73.0227 57.0296 69.6995 67 62Z" fill="white"/>
<path d="M74 34C74.33 34 74.66 34 75 34C75.33 36.64 75.66 39.28 76 42C76.33 42 76.66 42 77 42C76.967 49.7523 75.1698 56.0525 70 62C67.2969 63.2812 67.2969 63.2812 65 64C66.8025 60.3112 68.8276 56.7735 70.8789 53.2188C73.0148 48.9915 73.2336 44.9483 73.5625 40.25C73.6463 39.0795 73.7301 37.9091 73.8164 36.7031C73.877 35.8111 73.9376 34.9191 74 34Z" fill="white"/>
<path d="M17.9999 41C18.3299 41 18.6599 41 18.9999 41C19.0141 41.5569 19.0283 42.1137 19.0429 42.6875C19.4392 49.0292 21.3653 52.8797 24.9999 58C25.3299 58.66 25.6599 59.32 25.9999 60C22.2297 58.7433 20.1092 56.3292 17.9062 53.1523C16.2217 49.1517 17.158 45.143 17.9999 41Z" fill="white"/>
<path d="M74 34C74.33 34 74.66 34 75 34C75.33 36.64 75.66 39.28 76 42C76.33 42 76.66 42 77 42C76.67 45.3 76.34 48.6 76 52C75.67 51.34 75.34 50.68 75 50C74.34 50 73.68 50 73 50C73.33 44.72 73.66 39.44 74 34Z" fill="white"/>
<path d="M34 1.99979C35.7469 2.21418 37.4974 2.40086 39.25 2.56229C40.142 2.64608 41.0341 2.72987 41.9531 2.81619C42.6286 2.87678 43.3041 2.93737 44 2.99979C44 3.32979 44 3.65979 44 3.99979C36.08 4.49479 36.08 4.49479 28 4.99979C28 4.33979 28 3.67979 28 2.99979C27.34 2.66979 26.68 2.33979 26 1.99979C29.1526 0.986453 30.8451 1.18852 34 1.99979Z" fill="white"/>
<path d="M4 52C4.99 52 5.98 52 7 52C7.66 53.98 8.32 55.96 9 58C7.68 57.67 6.36 57.34 5 57C4.67 55.35 4.34 53.7 4 52Z" fill="white"/>
</svg>
