<?xml version="1.0" encoding="UTF-8"?>
<svg version="1.1" xmlns="http://www.w3.org/2000/svg" width="469" height="165">
<path d="M0 0 C28 0 28 0 37 4 C41.68158212 8.91566123 42.46654303 12.44621625 42.4140625 19.09375 C41.74613437 23.78184936 39.526628 26.91110334 36 30 C33.125 31 33.125 31 31 31 C33.84468898 36.96707379 37.094728 42.43540422 40.75 47.9375 C41.74675715 49.44531712 42.74165876 50.95436311 43.734375 52.46484375 C44.16975586 53.120896 44.60513672 53.77694824 45.05371094 54.45288086 C46 56 46 56 46 57 C42.51774809 57.57415494 39.46503243 57.7513987 36 57 C33.05570919 54.38926556 31.36363918 51.24670607 29.5 47.8125 C28.98953125 46.94818359 28.4790625 46.08386719 27.953125 45.19335938 C25.6115741 41.17267001 23.73695585 37.34238963 22 33 C17.71 33 13.42 33 9 33 C9 40.92 9 48.84 9 57 C6.03 57 3.06 57 0 57 C0 38.19 0 19.38 0 0 Z " fill="#fff" transform="translate(325,52)"/>
<path d="M0 0 C3.63 0 7.26 0 11 0 C13.71983562 6.69757645 16.27906586 13.42154502 18.671875 20.2421875 C18.99915588 21.17298126 19.32643677 22.10377502 19.66363525 23.06277466 C20.34714359 25.01016604 21.02940245 26.95799639 21.71044922 28.90625 C22.75532021 31.89019347 23.80922359 34.87085374 24.86328125 37.8515625 C25.5292027 39.75240917 26.19458668 41.65344424 26.859375 43.5546875 C27.33271271 44.88752274 27.33271271 44.88752274 27.81561279 46.24728394 C28.10301331 47.07559723 28.39041382 47.90391052 28.68652344 48.75732422 C29.06813629 49.84459305 29.06813629 49.84459305 29.4574585 50.9538269 C30 53 30 53 30 57 C27.36 57 24.72 57 22 57 C21.16260219 54.8765984 20.33019717 52.7512272 19.5 50.625 C19.0359375 49.44164062 18.571875 48.25828125 18.09375 47.0390625 C17 44 17 44 17 42 C9.41 42.33 1.82 42.66 -6 43 C-6.99 46.3 -7.98 49.6 -9 53 C-9.66 54.32 -10.32 55.64 -11 57 C-13.97 57 -16.94 57 -20 57 C-19.566875 55.71351562 -19.13375 54.42703125 -18.6875 53.1015625 C-17.59137202 49.81446509 -16.52741619 46.52014176 -15.5 43.2109375 C-15.2525 42.41429687 -15.005 41.61765625 -14.75 40.796875 C-14.24779189 39.17516132 -13.74781031 37.55275655 -13.25 35.9296875 C-12.12287096 32.31348182 -10.96178707 28.78074695 -9.43359375 25.3125 C-8.04860749 22.11231377 -7.02557283 18.97302144 -6.0625 15.625 C-4.42952494 10.17124161 -2.43921617 5.13977692 0 0 Z " fill="#fff" transform="translate(283,52)"/>
<path d="M0 0 C0.66 0 1.32 0 2 0 C4.39542232 3.66358708 3.73816316 5.81042533 3 10 C2.40661209 18.38525204 2.32568981 24.851055 7 32 C7.66 32.66 8.32 33.32 9 34 C8.505 33.2575 8.01 32.515 7.5 31.75 C5.07718194 26.91590111 5.27900911 21.25192386 6 16 C7.5234375 13.12890625 7.5234375 13.12890625 9 11 C11.16874252 11.50603992 12.99967627 11.99983813 15 13 C14.76023437 13.83724609 14.76023437 13.83724609 14.515625 14.69140625 C13.37484109 19.79900693 13.19042213 25.09749202 15.25 29.9375 C17.67026236 32.78995207 19.62441838 34.77185475 23.40234375 35.3984375 C30.25293691 35.41205068 30.25293691 35.41205068 36 32 C39.23718467 27.20003652 39.4445143 23.60088015 39 18 C38.11785113 15.11785113 38.11785113 15.11785113 37 13 C38.98 12.34 40.96 11.68 43 11 C46.68877516 15.65106433 47.47210337 19.05149752 47 25 C45.85749594 28.42252307 44.4820288 31.7117486 43 35 C48.68113591 28.73116038 50.47248277 22.61631928 50.2421875 14.26171875 C49.95634976 11.59236312 49.07864232 9.4449226 48 7 C48.29316444 3.67746968 49.51855769 2.15777592 52 0 C57.48893287 7.96780578 58.21762642 15.54153178 57 25 C54.19614749 34.2082241 48.96536244 40.40576184 40.828125 45.30859375 C32.9886577 49.10994618 22.84455135 49.58829029 14.44140625 47.3046875 C12.4289506 46.37103361 10.77455664 45.32673221 9 44 C8.4121875 43.62230469 7.824375 43.24460938 7.21875 42.85546875 C0.32247177 37.84961766 -4.24217563 29.72616142 -5.578125 21.39453125 C-5.80642624 13.91766573 -4.57729703 7.59429453 -1 1 C-0.67 0.67 -0.34 0.34 0 0 Z " fill="#fff" transform="translate(53,64)"/>

<path d="M0 0 C12.87 0 25.74 0 39 0 C39 2.64 39 5.28 39 8 C29.1 8 19.2 8 9 8 C9 13.28 9 18.56 9 24 C16.92 24 24.84 24 33 24 C33 26.31 33 28.62 33 31 C25.08 31 17.16 31 9 31 C9 37.27 9 43.54 9 50 C18.9 50 28.8 50 39 50 C39 52.31 39 54.62 39 57 C26.13 57 13.26 57 0 57 C0 38.19 0 19.38 0 0 Z " fill="#fff" transform="translate(384,52)"/>
<path d="M0 0 C0.75079834 0.00322266 1.50159668 0.00644531 2.27514648 0.00976562 C7.96600576 0.15338352 11.85506065 1.18988172 16.625 4.4375 C15.965 6.4175 15.305 8.3975 14.625 10.4375 C9.875 9.5625 9.875 9.5625 7.625 8.4375 C5.52551399 8.26278152 3.41875592 8.17032148 1.3125 8.125 C-0.38326172 8.06892578 -0.38326172 8.06892578 -2.11328125 8.01171875 C-6.04151329 8.52450593 -7.65810606 9.59435634 -10.375 12.4375 C-10.94854142 16.00966696 -10.94854142 16.00966696 -9.375 19.4375 C-6.62869409 21.21452147 -4.39388203 22.27878204 -1.375 23.4375 C14.87032772 29.8222065 14.87032772 29.8222065 17.625 35.4375 C18.72276774 41.15467441 18.47501671 45.96209095 15.1875 50.875 C10.88730525 55.75657307 6.1640614 58.02198267 -0.26953125 58.77734375 C-8.18494062 59.03136844 -15.7080455 57.88213633 -22.375 53.4375 C-21.5625 50.5 -21.5625 50.5 -20.375 47.4375 C-17.375 46.4375 -17.375 46.4375 -14.4375 47.875 C-9.38333956 50.21349214 -3.82313186 50.19459734 1.625 49.4375 C3.86635577 48.26999713 5.83343444 47.22906556 7.625 45.4375 C8.12570321 42.06392666 8.12570321 42.06392666 7.625 38.4375 C3.84154547 34.66133537 -0.44527552 33.03631988 -5.3125 31.125 C-15.54318425 26.81369539 -15.54318425 26.81369539 -18.58203125 22.45703125 C-20.28244976 18.12640874 -20.28188666 13.95829592 -19.375 9.4375 C-15.61884608 1.5923684 -7.90912424 -0.10499999 0 0 Z " fill="#fff" transform="translate(179.375,51.5625)"/>
<path d="M0 0 C1.13199829 -0.00580078 1.13199829 -0.00580078 2.28686523 -0.01171875 C8.70908327 0.12034357 13.54486888 1.77057933 18.875 5.4375 C18.125 7.875 18.125 7.875 16.875 10.4375 C14.98046875 11.33984375 14.98046875 11.33984375 12.875 11.4375 C10.94140749 10.68372665 9.0084244 9.92823686 7.08203125 9.15625 C1.81053818 7.43951597 -3.234164 7.76107028 -8.3125 9.9375 C-13.1415019 12.64174107 -17.05555918 17.11832087 -18.765625 22.42578125 C-20.08073779 29.78755393 -19.23261655 36.09153008 -15.125 42.4375 C-11.62918457 46.15131729 -8.2968059 49.29271294 -3.078125 49.640625 C-1.85609375 49.65609375 -0.6340625 49.6715625 0.625 49.6875 C2.44257813 49.72617188 2.44257813 49.72617188 4.296875 49.765625 C8.16089098 49.41128292 10.47176866 48.2071803 13.875 46.4375 C14.865 46.7675 15.855 47.0975 16.875 47.4375 C18.0625 50.5 18.0625 50.5 18.875 53.4375 C17.64993102 54.09107278 16.41970484 54.73498233 15.1875 55.375 C14.16076172 55.91447266 14.16076172 55.91447266 13.11328125 56.46484375 C6.20695992 59.46602004 -2.23027977 59.72465754 -9.328125 57.37890625 C-17.36928885 53.6512813 -22.75330663 49.086019 -26.78515625 41.18359375 C-28.2277017 37.15035443 -28.57283284 33.66180451 -28.5 29.4375 C-28.51740234 28.42816406 -28.51740234 28.42816406 -28.53515625 27.3984375 C-28.4928472 20.09307559 -25.69443978 14.08917551 -21.125 8.4375 C-18.25115905 6.21584067 -15.25978987 4.26980676 -12.125 2.4375 C-11.53976563 2.05980469 -10.95453125 1.68210938 -10.3515625 1.29296875 C-6.96451319 -0.00837125 -3.58138105 0.01252368 0 0 Z " fill="#fff" transform="translate(236.125,51.5625)"/>
<path d="M0 0 C0.79011475 0.00829834 1.58022949 0.01659668 2.39428711 0.02514648 C12.90868893 0.32883103 20.4895159 4.25633453 28.125 11.4375 C30.42878416 13.95165198 32.32069653 16.54732392 34.125 19.4375 C34.74568359 20.34822266 34.74568359 20.34822266 35.37890625 21.27734375 C38.41785825 26.62462862 38.50827372 31.99299685 38.5625 38 C38.57265137 38.80348877 38.58280273 39.60697754 38.59326172 40.43481445 C38.45621712 49.84939252 35.12815194 56.35321169 29.125 63.4375 C28.37089844 64.36949219 28.37089844 64.36949219 27.6015625 65.3203125 C21.57043611 72.11636224 12.2823339 75.92227727 3.27734375 76.67578125 C-8.20203034 76.94079718 -17.32520231 74.27324866 -25.875 66.4375 C-33.38966985 59.02744272 -37.83709499 49.88403029 -38.1875 39.25 C-37.88911293 27.76994998 -34.76486057 18.91476135 -26.875 10.4375 C-18.79515914 3.43326395 -10.68194069 -0.14532474 0 0 Z M-26.875 14.4375 C-34.13631247 24.15418411 -36.01063747 33.41665655 -34.875 45.4375 C-32.42475518 55.46447275 -26.12668209 64.4995326 -17.25 69.9375 C-7.53662081 74.25455742 2.73744335 75.24288105 13 71.8125 C23.18630737 67.51959219 29.53134922 60.90433141 33.7578125 50.6953125 C36.6512984 42.66024547 36.51323064 32.96155659 34.0234375 24.84765625 C29.52299299 15.3052699 23.25623243 9.03520898 13.7109375 4.5390625 C-1.17590379 -0.03401946 -15.97772082 3.46621553 -26.875 14.4375 Z " fill="#fff" transform="translate(78.875,42.5625)"/>
<path d="M0 0 C2.64 0 5.28 0 8 0 C8 18.48 8 36.96 8 56 C5.36 56 2.72 56 0 56 C0 37.52 0 19.04 0 0 Z " fill="#fff" transform="translate(135,53)"/>
<path d="M0 0 C2.84625 -0.0825 5.6925 -0.165 8.625 -0.25 C9.51010254 -0.28641602 10.39520508 -0.32283203 11.30712891 -0.36035156 C16.68827905 -0.43544301 19.75397618 0.38351283 24 4 C25.55024464 7.10048928 25.28992015 9.57894218 25 13 C23.20437595 15.75329021 21.94745078 17.52627461 19 19 C17.55151418 19.08342159 16.09929131 19.10732861 14.6484375 19.09765625 C13.88192871 19.09515869 13.11541992 19.09266113 12.32568359 19.09008789 C11.35195801 19.08098389 10.37823242 19.07187988 9.375 19.0625 C6.28125 19.041875 3.1875 19.02125 0 19 C0 12.73 0 6.46 0 0 Z " fill="#000" transform="translate(334,59)"/>
<path d="M0 0 C123.42 0 246.84 0 374 0 C374 0.33 374 0.66 374 1 C326.78785803 1.12744138 279.57571595 1.25484039 232.36357371 1.38218227 C226.79454719 1.39720324 221.22552066 1.41222456 215.65649414 1.42724609 C214.54776299 1.43023671 213.43903184 1.43322732 212.29670278 1.43630856 C194.32501913 1.48478498 176.35333556 1.53328995 158.38165202 1.58180541 C139.95226538 1.63155582 121.52287865 1.68127571 103.09349185 1.73096704 C91.71410811 1.76165035 80.33472443 1.79235771 68.95534084 1.82309544 C61.16073116 1.84414779 53.36612141 1.86517059 45.57151159 1.88616979 C41.06897243 1.89830082 36.5664333 1.91044522 32.06389427 1.92262459 C27.94654644 1.93376173 23.82919851 1.94486199 19.7118505 1.9559322 C18.21786349 1.95995568 16.72387652 1.96399302 15.22988959 1.96804518 C13.20765582 1.97352813 11.18542191 1.97895694 9.16318798 1.98438263 C8.0373172 1.98742039 6.91144642 1.99045815 5.75145835 1.99358797 C3.83430958 1.99805572 1.91715397 2 0 2 C0 1.34 0 0.68 0 0 Z " fill="#fff" transform="translate(73,129)"/>
<path d="M0 0 C3.2791715 3.70260806 4.60709583 7.9031701 6.1875 12.5 C6.46013672 13.25925781 6.73277344 14.01851562 7.01367188 14.80078125 C8.31159634 18.51564275 9 20.97587341 9 25 C3.39 25 -2.22 25 -8 25 C-7.23646364 19.65524551 -6.38127881 15.76152128 -4.5625 10.8125 C-4.13066406 9.62269531 -3.69882812 8.43289062 -3.25390625 7.20703125 C-2.27823785 4.71163014 -1.25898877 2.35987197 0 0 Z " fill="#000" transform="translate(288,62)"/>
<path d="M0 0 C0 3 0 3 -1.3984375 4.68359375 C-11.66527499 13.79389026 -20.8249568 14.58846347 -34 14 C-34 13.67 -34 13.34 -34 13 C-33.18917969 12.90203125 -32.37835938 12.8040625 -31.54296875 12.703125 C-19.09907628 11.02269249 -9.97035512 7.69944994 0 0 Z " fill="#fff" transform="translate(107,104)"/>
<path d="M0 0 C0.33 0 0.66 0 1 0 C1.33 2.64 1.66 5.28 2 8 C2.33 8 2.66 8 3 8 C2.96701137 15.75232813 1.16975178 22.05249795 -4 28 C-6.703125 29.28125 -6.703125 29.28125 -9 30 C-7.19752161 26.31120701 -5.1723788 22.77349917 -3.12109375 19.21875 C-0.98515266 14.99152164 -0.76637932 10.94827597 -0.4375 6.25 C-0.35371094 5.07953125 -0.26992187 3.9090625 -0.18359375 2.703125 C-0.12300781 1.81109375 -0.06242187 0.9190625 0 0 Z " fill="#fff" transform="translate(114,76)"/>
<path d="M0 0 C0.33 0 0.66 0 1 0 C1.01417969 0.556875 1.02835938 1.11375 1.04296875 1.6875 C1.43932256 8.02916101 3.36543286 11.87968075 7 17 C7.33 17.66 7.66 18.32 8 19 C4.22977607 17.74325869 2.10925495 15.32923808 -0.09375 12.15234375 C-1.7782163 8.15173629 -0.84192919 4.14295851 0 0 Z " fill="#fff" transform="translate(58,83)"/>
<path d="M0 0 C0.33 0 0.66 0 1 0 C1.33 2.64 1.66 5.28 2 8 C2.33 8 2.66 8 3 8 C2.67 11.3 2.34 14.6 2 18 C1.67 17.34 1.34 16.68 1 16 C0.34 16 -0.32 16 -1 16 C-0.67 10.72 -0.34 5.44 0 0 Z " fill="#fff" transform="translate(114,76)"/>
<path d="M0 0 C1.74690919 0.2143934 3.4974023 0.40107653 5.25 0.5625 C6.14203125 0.64628906 7.0340625 0.73007812 7.953125 0.81640625 C8.62859375 0.87699219 9.3040625 0.93757813 10 1 C10 1.33 10 1.66 10 2 C2.08 2.495 2.08 2.495 -6 3 C-6 2.34 -6 1.68 -6 1 C-6.66 0.67 -7.32 0.34 -8 0 C-4.84740535 -1.01333399 -3.15492577 -0.81126663 0 0 Z " fill="#fff" transform="translate(74,44)"/>
<path d="M0 0 C0.99 0 1.98 0 3 0 C3.66 1.98 4.32 3.96 5 6 C3.68 5.67 2.36 5.34 1 5 C0.67 3.35 0.34 1.7 0 0 Z " fill="#fff" transform="translate(44,94)"/>
</svg>
