<?xml version="1.0" encoding="UTF-8"?>
<svg version="1.1" xmlns="http://www.w3.org/2000/svg" width="2858" height="683">
<path d="M0 0 C943.14 0 1886.28 0 2858 0 C2858 225.39 2858 450.78 2858 683 C1914.86 683 971.72 683 0 683 C0 457.61 0 232.22 0 0 Z " fill="#000000" transform="translate(0,0)"/>
<path d="M0 0 C27.72 0 55.44 0 84 0 C84.33 27.39 84.66 54.78 85 83 C94.98690661 73.17569341 94.98690661 73.17569341 104.23046875 62.98828125 C106.99999276 59.87638782 109.99192274 56.98784819 112.95605469 54.06347656 C115.56153626 51.479454 118.06068054 48.85773266 120.4375 46.0625 C123.93710497 41.95573465 127.75982009 38.21275194 131.59521484 34.42431641 C134.95044557 31.09433671 138.09717875 27.66077511 141.16015625 24.05859375 C143.50494833 21.43501536 145.99628102 18.9700725 148.5 16.5 C152.36166876 12.68076716 156.05150395 8.79922534 159.5625 4.65625 C160.036875 4.1096875 160.51125 3.563125 161 3 C161.42872815 2.47828059 161.8574563 1.95656118 162.29917622 1.4190321 C164.52779744 -0.44035221 165.77131819 -0.37035077 168.65068054 -0.36076355 C169.60560394 -0.36488754 170.56052734 -0.36901154 171.54438782 -0.3732605 C173.11315926 -0.35708176 173.11315926 -0.35708176 174.71362305 -0.34057617 C175.8162146 -0.34101425 176.91880615 -0.34145233 178.05480957 -0.34190369 C181.70729139 -0.33980998 185.3593169 -0.31645089 189.01171875 -0.29296875 C191.54091643 -0.28737488 194.07011736 -0.2831038 196.59931946 -0.28010559 C202.5810682 -0.26981291 208.56262042 -0.24615738 214.54429036 -0.21605712 C221.35436434 -0.18253173 228.16444613 -0.16603181 234.97458208 -0.15097082 C248.98314575 -0.1196082 262.99156388 -0.06683611 277 0 C275.57567584 2.97816718 274.22096735 4.97931682 271.8125 7.25 C269.40558542 9.58814559 267.12027956 11.95157717 264.9375 14.5 C261.40166164 18.60510032 257.70672361 22.5500302 254 26.5 C248.66665739 32.17446706 248.66665739 32.17446706 243.5 38 C239.55770113 42.58267229 235.39130861 46.9569323 231.25830078 51.36669922 C227.2075382 55.69318507 223.21598043 60.0658293 219.265625 64.484375 C216.0699394 68.03268798 212.82624735 71.53577726 209.58374023 75.04125977 C206.19297701 78.70710947 202.81046197 82.38026411 199.4375 86.0625 C198.550625 87.03058594 197.66375 87.99867188 196.75 88.99609375 C194.81190354 91.11273595 192.87463681 93.2301358 190.9375 95.34765625 C190.43549072 95.89607178 189.93348145 96.4444873 189.41625977 97.00952148 C188.45280556 98.06205186 187.48973295 99.11493171 186.52709961 100.16821289 C184.71541742 102.14707543 182.89741159 104.10258841 181 106 C181.03846992 112.15518797 184.63679074 116.93143456 187.75 122 C188.9481371 123.98814843 190.14604779 125.97643331 191.34375 127.96484375 C191.95605469 128.97401855 192.56835938 129.98319336 193.19921875 131.02294922 C195.91702066 135.51601816 198.58371101 140.03873967 201.25 144.5625 C201.777146 145.45428955 202.30429199 146.3460791 202.84741211 147.26489258 C207.72106756 155.51178445 212.56035608 163.77872786 217.40026855 172.04544067 C223.2266705 181.99521015 229.0936761 191.92009148 234.97973633 201.8347168 C239.84765846 210.04033538 244.68066924 218.26580406 249.5 226.5 C255.08135242 236.03441821 260.68142254 245.55735473 266.3125 255.0625 C266.96734375 256.16843506 267.6221875 257.27437012 268.296875 258.41381836 C271.39838346 263.6437136 274.51548231 268.86315463 277.66796875 274.0625 C278.23281982 274.99570068 278.7976709 275.92890137 279.37963867 276.89038086 C280.43175748 278.62541783 281.4876945 280.35814731 282.5480957 282.08813477 C283.00659912 282.84408936 283.46510254 283.60004395 283.9375 284.37890625 C284.33839844 285.0344751 284.73929688 285.69004395 285.15234375 286.36547852 C286 288 286 288 286 290 C273.58710487 290.20857902 261.17462686 290.36846936 248.76033592 290.46630955 C242.99568136 290.51327023 237.23222601 290.57695699 231.46826172 290.67895508 C225.90496684 290.77678544 220.34282479 290.83056607 214.77873611 290.85389519 C212.65670238 290.87051832 210.53473144 290.90298162 208.41318893 290.95157051 C191.81464986 291.3165822 191.81464986 291.3165822 187.47177124 288.16569519 C185.86847718 285.81578353 184.92310464 283.68185737 184 281 C183.32308105 279.88906982 182.64616211 278.77813965 181.94873047 277.63354492 C181.34432129 276.59302979 180.73991211 275.55251465 180.1171875 274.48046875 C179.78124573 273.90433838 179.44530396 273.32820801 179.09918213 272.73461914 C178.38838294 271.51519381 177.67876114 270.29508148 176.97027588 269.0743103 C175.08534287 265.82717313 173.19069173 262.5857113 171.296875 259.34375 C170.92237213 258.70221481 170.54786926 258.06067963 170.16201782 257.39970398 C167.18634285 252.30673287 164.17082941 247.2388541 161.125 242.1875 C155.96525186 233.62466754 150.85193286 225.03485723 145.75 216.4375 C145.34737946 215.75908051 144.94475891 215.08066101 144.52993774 214.38168335 C136.34677749 200.59165302 128.17175989 186.79678851 120 173 C117.0510636 174.4153983 114.97739128 175.77499224 112.6875 178.125 C112.15511719 178.66382813 111.62273438 179.20265625 111.07421875 179.7578125 C109.87374362 181.05550124 108.69433144 182.37482922 107.57710266 183.74484253 C104.53426532 187.41841239 101.64501688 190.39399415 97.65039062 193.0234375 C90.97727981 197.74993601 85.56041671 202.91156999 84.0703125 211.24755859 C82.58483511 222.77707739 83.09421638 234.53211521 83.4274292 246.12109375 C83.5490222 250.94472604 83.57829807 255.76884196 83.61328125 260.59375 C83.6559822 266.00358361 83.70789365 271.41185104 83.82971191 276.82055664 C83.84723007 277.63468018 83.86474823 278.44880371 83.88279724 279.28759766 C83.9171428 280.81203586 83.95567479 282.33638737 83.9990387 283.8605957 C84.037001 285.57330983 84.02406868 287.28703429 84 289 C83.67 289.33 83.34 289.66 83 290 C55.33132537 290 27.66456308 289.47697523 0 289 C0 193.63 0 98.26 0 0 Z " fill="#FFFFFF" transform="translate(2119,191)"/>
<path d="M0 0 C144.84864458 0 144.84864458 0 159.8125 5.75 C160.50279297 6.00531494 161.19308594 6.26062988 161.90429688 6.52368164 C172.27431371 10.48664629 181.51879606 15.81611215 190 23 C190.66386719 23.51949219 191.32773438 24.03898437 192.01171875 24.57421875 C208.53738407 37.98305917 218.05613815 60.32151444 220.71484375 81.15234375 C222.93586805 111.12095927 218.41170902 139.76512431 198.42407227 163.25683594 C193.48872879 168.82422152 187.87733193 173.45609417 182 178 C185.49978787 185.41402431 189.40114433 192.5303385 193.5 199.625 C208.40400733 225.48460851 222.05446894 252.07670687 235.4375 278.75 C236.13782349 280.1436377 236.13782349 280.1436377 236.85229492 281.56542969 C237.27099854 282.40493164 237.68970215 283.24443359 238.12109375 284.109375 C238.4864624 284.84124023 238.85183105 285.57310547 239.22827148 286.32714844 C240 288 240 288 240 289 C212.28 289 184.56 289 156 289 C150.39 278.44 144.78 267.88 139 257 C133.75693001 247.24927196 133.75693001 247.24927196 128.50390625 237.50390625 C125.95993624 232.78791721 123.42777895 228.06577119 120.90234375 223.33984375 C120.55983582 222.69916962 120.21732788 222.05849548 119.86444092 221.39840698 C118.52029355 218.88395531 117.17615497 216.36950345 115.83465576 213.8536377 C114.91820446 212.13491629 114.00014854 210.41705078 113.08203125 208.69921875 C112.55843018 207.71783936 112.0348291 206.73645996 111.49536133 205.7253418 C110.48204744 203.87854622 109.41704613 202.0593531 108.30737305 200.26879883 C107 198 107 198 107 196 C96.77 196 86.54 196 76 196 C76 226.69 76 257.38 76 289 C50.92 289 25.84 289 0 289 C0 193.63 0 98.26 0 0 Z " fill="#FFFFFF" transform="translate(1155,190)"/>
<path d="M0 0 C1.33933704 0.00304012 1.33933704 0.00304012 2.70573139 0.00614166 C3.64667809 0.004412 4.5876248 0.00268234 5.55708504 0.00090027 C8.73498755 -0.00350364 11.91283781 -0.0004848 15.09074116 0.00272369 C17.35805496 0.00170708 19.62536864 0.00036705 21.89268208 -0.00127411 C28.06743383 -0.00400359 34.24216091 0.00054488 40.41690922 0.00696564 C44.26754805 0.01052271 48.11818316 0.01215277 51.96882343 0.01322174 C108.9307908 0.0327952 165.8859155 0.53922118 222.84464741 1.13553619 C222.84464741 25.88553619 222.84464741 50.63553619 222.84464741 76.13553619 C172.02464741 76.13553619 121.20464741 76.13553619 68.84464741 76.13553619 C68.84464741 82.40553619 68.84464741 88.67553619 68.84464741 95.13553619 C98.21464741 95.13553619 127.58464741 95.13553619 157.84464741 95.13553619 C157.84464741 120.54553619 157.84464741 145.95553619 157.84464741 172.13553619 C128.47464741 172.13553619 99.10464741 172.13553619 68.84464741 172.13553619 C68.84464741 186.65553619 68.84464741 201.17553619 68.84464741 216.13553619 C73.59540668 216.13029938 78.34616596 216.12506256 83.24088764 216.11966705 C98.895126 216.10313576 114.54936468 216.092016 130.20360947 216.08372402 C139.69960124 216.07856069 149.19558476 216.0715173 158.69157124 216.06009674 C166.96517586 216.05015102 175.23877451 216.04368303 183.51238495 216.0414477 C187.89598331 216.0401404 192.27956457 216.03705335 196.66315746 216.02980614 C200.78428241 216.02304769 204.90538314 216.02091887 209.0265131 216.02242851 C210.54351082 216.02215211 212.0605093 216.02014594 213.57750225 216.01633072 C215.63972042 216.01139619 217.70184567 216.01253699 219.76406574 216.01528168 C220.92091594 216.01435988 222.07776613 216.01343809 223.26967239 216.01248837 C225.84464741 216.13553619 225.84464741 216.13553619 226.84464741 217.13553619 C226.84464741 240.89553619 226.84464741 264.65553619 226.84464741 289.13553619 C149.62464741 289.13553619 72.40464741 289.13553619 -7.15535259 289.13553619 C-7.19568394 216.90209002 -7.19568394 216.90209002 -7.20418072 186.80936432 C-7.20613873 179.9207738 -7.20815925 173.0321833 -7.21028423 166.14359283 C-7.21054798 165.28016331 -7.21081173 164.41673378 -7.21108347 163.52713972 C-7.21543844 149.56900147 -7.22332536 135.61086731 -7.23250539 121.65273149 C-7.2418412 107.33885984 -7.24740805 93.02499034 -7.24944109 78.71111578 C-7.25081647 69.87139403 -7.25516786 61.03168387 -7.26326906 52.19196569 C-7.26853562 46.13868839 -7.27015709 40.08541712 -7.26885397 34.0321377 C-7.26821045 30.53437062 -7.26922968 27.03662384 -7.27455807 23.53886032 C-7.28027949 19.75569403 -7.27835364 15.97255463 -7.27560711 12.18938446 C-7.27851995 11.07170419 -7.28143279 9.95402393 -7.2844339 8.80247456 C-7.28144733 7.2946611 -7.28144733 7.2946611 -7.27840042 5.75638676 C-7.27878014 4.88189084 -7.27915986 4.00739492 -7.27955109 3.10639912 C-7.00449784 -1.25832568 -3.59185376 0.0126087 0 0 Z " fill="#FFFFFF" transform="translate(1863.1553525924683,190.86446380615234)"/>
<path d="M0 0 C15.57866966 -0.04698736 31.15731979 -0.08211852 46.73604298 -0.10362434 C53.97159525 -0.11388096 61.20710317 -0.12783204 68.44262695 -0.15087891 C74.75851767 -0.17098671 81.07437623 -0.18375707 87.39029807 -0.18817699 C90.72600094 -0.19075538 94.06153985 -0.19778988 97.39722633 -0.21146011 C122.60880104 -0.31057511 146.12634804 0.14702853 169 12 C169.99644531 12.50144531 170.99289062 13.00289062 172.01953125 13.51953125 C192.67785382 24.64740881 209.70203034 45.82560982 216.67724609 68.16943359 C218.93131899 76.28659856 220.66379568 84.56687501 221 93 C221.0515625 93.85851562 221.103125 94.71703125 221.15625 95.6015625 C221.98796264 120.76086975 212.96398763 145.4757794 196 164 C195.22914063 164.85207031 194.45828125 165.70414063 193.6640625 166.58203125 C177.08461631 184.04678767 152.54290854 196.33555114 128.21717834 197.08583069 C124.83313724 197.11555966 121.45054272 197.11241181 118.06640625 197.09765625 C116.97259644 197.09664917 115.87878662 197.09564209 114.75183105 197.09460449 C110.68870995 197.08939554 106.62560386 197.07543435 102.5625 197.0625 C93.466875 197.041875 84.37125 197.02125 75 197 C75 227.69 75 258.38 75 290 C49.92 289.67 24.84 289.34 -1 289 C-1.02852715 272.52081681 -1.05156703 256.04169586 -1.0625 239.5625 C-1.06335602 238.28189697 -1.06421204 237.00129395 -1.06509399 235.68188477 C-1.09610667 182.78666641 -0.83009528 129.89406851 -0.5 77 C-0.49402628 76.04134993 -0.48805257 75.08269986 -0.48189783 74.09499979 C-0.3278616 49.39662263 -0.16740417 24.69829014 0 0 Z " fill="#FFFFFF" transform="translate(919,189)"/>
<path d="M0 0 C161.47935368 0 161.47935368 0 190 26 C190.71542969 26.64582031 191.43085937 27.29164063 192.16796875 27.95703125 C209.93001436 44.82582118 220.2656186 68.74306913 221.203125 93.12109375 C221.66048877 118.39554023 214.81870093 141.62122706 198 161 C197.36191406 161.77085937 196.72382812 162.54171875 196.06640625 163.3359375 C178.3810601 184.18827723 152.7051016 194.46698567 125.99551392 196.79750061 C121.20961698 197.12103148 116.43947684 197.12313576 111.64453125 197.09765625 C110.10305672 197.09553383 110.10305672 197.09553383 108.53044128 197.09336853 C105.29109621 197.08783066 102.05182371 197.0752903 98.8125 197.0625 C96.5983083 197.05747695 94.3841155 197.05291546 92.16992188 197.04882812 C86.77992372 197.03788169 81.38996705 197.0212069 76 197 C76.00222061 197.94610138 76.00444122 198.89220276 76.00672913 199.86697388 C76.02711468 208.8394585 76.04204575 217.81193835 76.05181217 226.78444099 C76.05700216 231.3958547 76.06402814 236.00724951 76.07543945 240.61865234 C76.08640777 245.07961077 76.09230598 249.54055118 76.09487724 254.00152206 C76.09670662 255.69251666 76.1002781 257.38351042 76.10573006 259.07449722 C76.11312644 261.46651493 76.11398329 263.85846075 76.11352539 266.25048828 C76.11712067 266.92951202 76.12071594 267.60853577 76.12442017 268.30813599 C76.11025403 275.26977877 75.50045004 281.99369938 75 289 C50.25 289 25.5 289 0 289 C0 193.63 0 98.26 0 0 Z " fill="#FFFFFF" transform="translate(550,189)"/>
<path d="M0 0 C0.71755463 0.00087616 1.43510925 0.00175232 2.17440796 0.00265503 C43.67572312 0.16878215 78.07686177 17.34647932 107.625 45.6875 C130.74892305 69.49029052 147 101.84086765 147 135.375 C121.92 135.375 96.84 135.375 71 135.375 C69.68 130.425 68.36 125.475 67 120.375 C58.99756046 101.76467548 45.6020973 89.16290877 27 81.375 C7.35052717 74.61816484 -13.80232213 75.98616891 -32.640625 84.57421875 C-50.44036277 94.11570609 -61.64944342 108.6266432 -67.75 127.72265625 C-72.1179097 145.406624 -68.53556363 164.19509949 -60.12109375 180.046875 C-56.43045964 185.8377042 -51.90932503 190.60427404 -47 195.375 C-46.36964844 195.99117187 -45.73929688 196.60734375 -45.08984375 197.2421875 C-35.21400584 206.25418143 -23.19257067 210.99878886 -10.1171875 212.98046875 C-8 213.375 -8 213.375 -7 214.375 C-6.90505267 216.74800869 -6.87440681 219.09178703 -6.88647461 221.46508789 C-6.88632858 222.20650528 -6.88618256 222.94792267 -6.8860321 223.71180725 C-6.88673135 226.17378621 -6.89452426 228.63569043 -6.90234375 231.09765625 C-6.90420789 232.80016539 -6.90563181 234.50267507 -6.90663147 236.20518494 C-6.91045698 240.69493073 -6.92028753 245.18464438 -6.93133545 249.67437744 C-6.94154887 254.25231491 -6.94612894 258.83025756 -6.95117188 263.40820312 C-6.96190978 272.39714957 -6.97898659 281.38607212 -7 290.375 C-8.58054404 290.38807299 -10.16111984 290.39733698 -11.74169922 290.4050293 C-12.62187714 290.41060349 -13.50205505 290.41617767 -14.40890503 290.42192078 C-18.0584415 290.35583324 -21.54300771 289.85573357 -25.125 289.1875 C-25.84872803 289.0544043 -26.57245605 288.92130859 -27.31811523 288.78417969 C-65.24624643 281.4201338 -99.12405506 258.23599696 -121.22265625 226.65234375 C-134.01123573 207.43561842 -142.00247244 186.22815014 -145 163.375 C-145.13019531 162.38371094 -145.26039062 161.39242187 -145.39453125 160.37109375 C-149.39567374 123.72062852 -139.57191482 85.11739861 -116.46875 56.16015625 C-96.0515446 31.18470834 -70.69803687 12.98812615 -39.3125 4.5625 C-38.58973877 4.36760986 -37.86697754 4.17271973 -37.12231445 3.97192383 C-24.88637254 0.8860783 -12.57828354 -0.03787372 0 0 Z " fill="#FFFFFF" transform="translate(1540,190.625)"/>
<path d="M0 0 C31.32192509 -0.02202643 62.64384274 -0.04049789 93.96577316 -0.05106533 C97.65971793 -0.05231611 101.35366268 -0.05361042 105.04760742 -0.05493164 C105.78303635 -0.05519395 106.51846527 -0.05545626 107.27617992 -0.05572652 C119.19978169 -0.06008334 131.12337866 -0.06797095 143.04697757 -0.0771528 C155.27258626 -0.08648902 167.49819243 -0.09205554 179.72380453 -0.09408849 C187.2737296 -0.09546379 194.8236411 -0.09981472 202.37356199 -0.10791647 C208.15308919 -0.11380424 213.93260762 -0.11445904 219.71213722 -0.11310768 C222.09024006 -0.1133842 224.46834338 -0.11539186 226.84644318 -0.11920547 C230.07785956 -0.124136 233.30921657 -0.12300067 236.54063416 -0.12025452 C237.97202481 -0.12462378 237.97202481 -0.12462378 239.43233246 -0.12908131 C245.88587879 -0.11412121 245.88587879 -0.11412121 247 1 C247.09429342 3.17805719 247.11742538 5.3592128 247.11352539 7.53930664 C247.11364593 8.23328017 247.11376646 8.9272537 247.11389065 9.64225674 C247.11314169 11.89825536 247.10551429 14.15417232 247.09765625 16.41015625 C247.09618678 17.79911255 247.0951661 19.1880694 247.09460449 20.57702637 C247.08935224 25.73885933 247.07539114 30.90068046 247.0625 36.0625 C247.041875 47.591875 247.02125 59.12125 247 71 C218.62 71 190.24 71 161 71 C161.01160156 77.26871094 161.02320312 83.53742188 161.03515625 89.99609375 C161.04748775 98.80989378 161.05598938 107.62369383 161.0625 116.4375 C161.06378403 118.16307192 161.06378403 118.16307192 161.06509399 119.92350388 C161.09109832 159.63925813 160.87667459 199.34878176 160.5 239.0625 C160.48206327 240.95452715 160.48206327 240.95452715 160.46376419 242.88477707 C160.31730236 258.25660962 160.1599137 273.62829521 160 289 C135.25 289 110.5 289 85 289 C85 217.06 85 145.12 85 71 C56.95 71 28.9 71 0 71 C0 47.57 0 24.14 0 0 Z " fill="#FFFFFF" transform="translate(2402,192)"/>
<path d="M0 0 C24.75 0 49.5 0 75 0 C75.06786412 26.28742609 75.12306726 52.57478065 75.15543652 78.86227226 C75.17086926 91.06950911 75.19188972 103.27668744 75.22631836 115.48388672 C75.25633109 126.13048632 75.27560107 136.77704351 75.28226548 147.42368424 C75.28615771 153.05480651 75.29522921 158.68580752 75.31719017 164.31689072 C75.33774338 169.63069416 75.34379622 174.94432784 75.33932304 180.25816727 C75.3401399 182.19536007 75.34599223 184.13255931 75.35761642 186.06971741 C75.44590771 201.55963902 74.58730455 217.15543106 68.875 231.75 C68.5749707 232.53383057 68.27494141 233.31766113 67.96582031 234.12524414 C58.83652801 256.94149532 40.39742871 274.24194358 18 284 C-11.25467343 295.29273243 -42.18563171 294.03645076 -71 282 C-95.29475529 271.08397542 -112.55244299 253.71493728 -122.125 228.625 C-125.4888336 219.3573193 -128.0624188 209.79576815 -130.6796875 200.296875 C-130.93476074 199.37229492 -131.18983398 198.44771484 -131.45263672 197.49511719 C-132 195 -132 195 -132 191 C-104.94 191 -77.88 191 -50 191 C-48.35 196.28 -46.7 201.56 -45 207 C-40.70659821 213.51330283 -40.70659821 213.51330283 -34 216 C-31.170415 216.38036821 -28.4143904 216.43050659 -25.5625 216.375 C-24.81258789 216.36484863 -24.06267578 216.35469727 -23.29003906 216.34423828 C-16.29451646 216.14746061 -11.51331463 215.34576032 -6.1875 210.375 C-1.64028711 204.18627889 -0.55249775 196.8886981 -0.60127258 189.40086365 C-0.59462576 188.58463046 -0.58797893 187.76839727 -0.58113068 186.92742974 C-0.56262292 184.21898626 -0.56509765 181.51098932 -0.56762695 178.80249023 C-0.55860232 176.85044232 -0.54827338 174.89840007 -0.53674316 172.94636536 C-0.50922954 167.66605988 -0.49989628 162.38586211 -0.49388909 157.10549426 C-0.48449077 151.58013842 -0.45828618 146.05486255 -0.43388367 140.52955627 C-0.39025514 130.07507836 -0.36168574 119.620616 -0.33856028 109.16607481 C-0.31148909 97.26036329 -0.26757873 85.35473236 -0.22227156 73.44907844 C-0.12947744 48.96608431 -0.05999541 24.48309798 0 0 Z " fill="#FFFFFF" transform="translate(1748,194)"/>
<path d="M0 0 C24.75 0 49.5 0 75 0 C75.04523747 25.65277667 75.08204182 51.30552079 75.10362434 76.95832729 C75.11391415 88.87075166 75.12793035 100.78314938 75.15087891 112.69555664 C75.17088332 123.08468379 75.1837331 133.47379163 75.18817699 143.86293751 C75.19077247 149.3581828 75.19682461 154.85337288 75.21146011 160.34860039 C75.22515571 165.53351463 75.22919873 170.71835155 75.22621536 175.90328217 C75.22676022 177.79412572 75.23066565 179.68497218 75.23841095 181.57579994 C75.34700715 209.48404941 71.69848308 237.63635738 52 259 C51.20078125 259.89074219 50.4015625 260.78148437 49.578125 261.69921875 C30.21450525 282.23725923 4.78140812 290.36381349 -22.83984375 292.1875 C-48.27416505 292.86462003 -78.35677158 283.03064502 -97.875 266.3125 C-103.36187999 260.99862974 -107.73207857 255.04649562 -111.89941406 248.67578125 C-112.87295576 247.19344092 -113.88311531 245.73529165 -114.8984375 244.28125 C-123.96560961 230.33175445 -132 207.74635491 -132 191 C-105.27 191 -78.54 191 -51 191 C-48 200 -48 200 -47.04296875 202.890625 C-44.98583666 208.56417653 -43.10889585 211.70050477 -38 215 C-30.27924107 217.74715376 -18.60526789 217.31929254 -11.1875 213.9375 C-6.17653464 210.90029349 -3.99419219 207.52637257 -2.42580569 201.96334845 C-1.21662438 196.74425376 -0.70740078 191.86319021 -0.7215271 186.51475525 C-0.7128385 185.30878145 -0.7128385 185.30878145 -0.70397437 184.07844454 C-0.68710559 181.41154812 -0.68410928 178.74482612 -0.68115234 176.07788086 C-0.67184509 174.15539126 -0.66167524 172.23290567 -0.65071106 170.3104248 C-0.62348689 165.11071886 -0.60828416 159.91103989 -0.59528303 154.71128154 C-0.57961925 149.27001917 -0.5528394 143.82881162 -0.5272522 138.3875885 C-0.48052185 128.09248721 -0.44374995 117.79737554 -0.41057932 107.5022226 C-0.37231732 95.77789828 -0.32291785 84.0536291 -0.27259517 72.32935131 C-0.16936073 48.21960324 -0.08154284 24.10983186 0 0 Z " fill="#FFFFFF" transform="translate(342,194)"/>
<path d="M0 0 C0.71310837 0.00202423 1.42621674 0.00404846 2.16093445 0.00613403 C3.29591621 0.00469894 3.29591621 0.00469894 4.4538269 0.00323486 C6.08577048 0.00255021 7.71771671 0.00442414 9.34965515 0.00857544 C11.69763029 0.01366214 14.04538954 0.00878424 16.39335632 0.00222778 C33.95545459 0.01643085 51.44176083 0.65076202 69.0164032 1.13894653 C69.0164032 96.50894653 69.0164032 191.87894653 69.0164032 290.13894653 C44.2664032 290.13894653 19.5164032 290.13894653 -5.9835968 290.13894653 C-6.00562271 253.33907577 -6.02409436 216.53921121 -6.03466213 179.73933575 C-6.03591291 175.39947618 -6.03720722 171.05961663 -6.03852844 166.71975708 C-6.03879075 165.85573172 -6.03905306 164.99170636 -6.03932332 164.10149842 C-6.04368029 150.09244225 -6.05156798 136.08339016 -6.0607496 122.07433642 C-6.0700854 107.71074422 -6.07565225 93.34715418 -6.0776853 78.98355907 C-6.07906068 70.11312788 -6.08341208 61.24270823 -6.09151327 52.37228059 C-6.09677982 46.29797851 -6.09840131 40.22368244 -6.09709818 34.14937825 C-6.09645466 30.63945959 -6.0974739 27.12956117 -6.10280228 23.61964607 C-6.10852367 19.82334262 -6.10659785 16.02706598 -6.10385132 12.23075867 C-6.10676416 11.10918745 -6.109677 9.98761624 -6.11267811 8.83205801 C-6.11068706 7.82336564 -6.10869601 6.81467327 -6.10664463 5.77541447 C-6.10721421 4.45911394 -6.10721421 4.45911394 -6.1077953 3.11622149 C-5.85806344 -0.85957986 -3.40302156 0.01664329 0 0 Z " fill="#FFFFFF" transform="translate(450.9835968017578,190.86105346679688)"/>
<path d="M0 0 C24.42 0 48.84 0 74 0 C74 24.75 74 49.5 74 75 C49.58 75 25.16 75 0 75 C0 50.25 0 25.5 0 0 Z " fill="#FFFFFF" transform="translate(799,335)"/>
<path d="M0 0 C11.26125 -0.0928125 11.26125 -0.0928125 22.75 -0.1875 C26.26672363 -0.22846802 26.26672363 -0.22846802 29.85449219 -0.27026367 C56.48404914 -0.451457 56.48404914 -0.451457 65 7 C70.38585927 13.98706068 70.74793716 20.36755857 70 29 C68.80015202 34.15804212 67.31947596 38.5339156 63.75 42.5 C54.27081734 47.67046327 44.99362529 48.1560256 34.375 48.09765625 C33.4984375 48.09664917 32.621875 48.09564209 31.71875 48.09460449 C28.47915315 48.08941643 25.2395751 48.07545555 22 48.0625 C14.74 48.041875 7.48 48.02125 0 48 C0 32.16 0 16.32 0 0 Z " fill="#000000" transform="translate(1231,264)"/>
<path d="M0 0 C7.404375 -0.04125 14.80875 -0.0825 22.4375 -0.125 C24.7570874 -0.14320801 27.0766748 -0.16141602 29.46655273 -0.18017578 C31.33056406 -0.18602378 33.19457797 -0.19111861 35.05859375 -0.1953125 C36.00577271 -0.20554443 36.95295166 -0.21577637 37.92883301 -0.22631836 C48.71765659 -0.22911375 57.40364955 1.55490227 65.3125 9.25 C69.88222576 16.6969605 70.80902834 23.44822967 69 32 C67.20540743 38.23271671 63.88740705 41.31832725 58.51171875 44.7734375 C51.55687136 48.16973934 45.21496948 48.27123343 37.59765625 48.1953125 C36.51995468 48.1924826 35.44225311 48.18965271 34.33189392 48.18673706 C30.90864701 48.17559193 27.48566709 48.15049756 24.0625 48.125 C21.73372775 48.11496289 19.40495138 48.10583832 17.07617188 48.09765625 C11.38393036 48.07737751 5.69226209 48.03821735 0 48 C0 32.16 0 16.32 0 0 Z " fill="#000000" transform="translate(626,263)"/>
<path d="M0 0 C7.858125 -0.0825 15.71625 -0.165 23.8125 -0.25 C26.27050049 -0.28641602 28.72850098 -0.32283203 31.26098633 -0.36035156 C33.24299246 -0.37205088 35.22500832 -0.38223974 37.20703125 -0.390625 C38.20875366 -0.41108887 39.21047607 -0.43155273 40.24255371 -0.45263672 C48.08468331 -0.45645238 56.20445851 0.59475756 62.24494934 6.01409912 C68.4912751 12.8389894 69.5560931 18.08839467 69.3125 27.2890625 C68.76284673 33.81619508 66.75052994 37.24947006 62.1875 41.8125 C53.56194202 47.73200058 45.44338343 48.15129571 35.3515625 48.09765625 C34.45332764 48.09664917 33.55509277 48.09564209 32.62963867 48.09460449 C29.29474601 48.08939768 25.95987164 48.07543651 22.625 48.0625 C15.15875 48.041875 7.6925 48.02125 0 48 C0 32.16 0 16.32 0 0 Z " fill="#000000" transform="translate(995,264)"/>
</svg>
