<svg width="2440" height="299" viewBox="0 0 2440 299" fill="none" xmlns="http://www.w3.org/2000/svg">
<path d="M1909 3.00021C1936.72 3.00021 1964.44 3.00021 1993 3.00021C1993.33 30.3902 1993.66 57.7802 1994 86.0002C2003.99 76.1759 2003.99 76.1759 2013.23 65.9885C2016 62.8766 2018.99 59.9881 2021.96 57.0637C2024.56 54.4797 2027.06 51.8579 2029.44 49.0627C2032.94 44.9559 2036.76 41.213 2040.6 37.4245C2043.95 34.0946 2047.1 30.661 2050.16 27.0588C2052.5 24.4352 2055 21.9703 2057.5 19.5002C2061.36 15.681 2065.05 11.7994 2068.56 7.65646C2069.04 7.1099 2069.51 6.56334 2070 6.00021C2070.43 5.47849 2070.86 4.95677 2071.3 4.41925C2073.53 2.55986 2074.77 2.62986 2077.65 2.63945C2078.61 2.63533 2079.56 2.6312 2080.54 2.62695C2082.11 2.64313 2082.11 2.64313 2083.71 2.65964C2084.82 2.6592 2085.92 2.65876 2087.05 2.65831C2090.71 2.6604 2094.36 2.68376 2098.01 2.70724C2100.54 2.71284 2103.07 2.71711 2105.6 2.72011C2111.58 2.7304 2117.56 2.75406 2123.54 2.78416C2130.35 2.81768 2137.16 2.83418 2143.97 2.84924C2157.98 2.88061 2171.99 2.93338 2186 3.00021C2184.58 5.97838 2183.22 7.97953 2180.81 10.2502C2178.41 12.5884 2176.12 14.9518 2173.94 17.5002C2170.4 21.6053 2166.71 25.5502 2163 29.5002C2157.67 35.1747 2157.67 35.1747 2152.5 41.0002C2148.56 45.5829 2144.39 49.9571 2140.26 54.3669C2136.21 58.6934 2132.22 63.066 2128.27 67.4846C2125.07 71.0329 2121.83 74.536 2118.58 78.0415C2115.19 81.7073 2111.81 85.3805 2108.44 89.0627C2107.55 90.0308 2106.66 90.9989 2105.75 91.9963C2103.81 94.1129 2101.87 96.2303 2099.94 98.3479C2099.44 98.8963 2098.93 99.4447 2098.42 100.01C2097.45 101.062 2096.49 102.115 2095.53 103.168C2093.72 105.147 2091.9 107.103 2090 109C2090.04 115.155 2093.64 119.932 2096.75 125C2097.95 126.988 2099.15 128.977 2100.34 130.965C2100.96 131.974 2101.57 132.983 2102.2 134.023C2104.92 138.516 2107.58 143.039 2110.25 147.563C2110.78 148.455 2111.3 149.346 2111.85 150.265C2116.72 158.512 2121.56 166.779 2126.4 175.046C2132.23 184.995 2138.09 194.92 2143.98 204.835C2148.85 213.041 2153.68 221.266 2158.5 229.5C2164.08 239.035 2169.68 248.558 2175.31 258.063C2175.97 259.169 2176.62 260.275 2177.3 261.414C2180.4 266.644 2183.52 271.863 2186.67 277.063C2187.23 277.996 2187.8 278.929 2188.38 279.891C2189.43 281.626 2190.49 283.358 2191.55 285.088C2192.01 285.844 2192.47 286.6 2192.94 287.379C2193.34 288.035 2193.74 288.69 2194.15 289.366C2195 291 2195 291 2195 293C2182.59 293.209 2170.17 293.369 2157.76 293.467C2152 293.513 2146.23 293.577 2140.47 293.679C2134.9 293.777 2129.34 293.831 2123.78 293.854C2121.66 293.871 2119.53 293.903 2117.41 293.952C2100.81 294.317 2100.81 294.317 2096.47 291.166C2094.87 288.816 2093.92 286.682 2093 284C2092.32 282.889 2091.65 281.778 2090.95 280.634C2090.34 279.593 2089.74 278.553 2089.12 277.481C2088.78 276.905 2088.45 276.328 2088.1 275.735C2087.39 274.515 2086.68 273.295 2085.97 272.075C2084.09 268.827 2082.19 265.586 2080.3 262.344C2079.92 261.702 2079.55 261.061 2079.16 260.4C2076.19 255.307 2073.17 250.239 2070.12 245.188C2064.97 236.625 2059.85 228.035 2054.75 219.438C2054.35 218.759 2053.94 218.081 2053.53 217.382C2045.35 203.592 2037.17 189.797 2029 176C2026.05 177.416 2023.98 178.775 2021.69 181.125C2021.16 181.664 2020.62 182.203 2020.07 182.758C2018.87 184.056 2017.69 185.375 2016.58 186.745C2013.53 190.419 2010.65 193.394 2006.65 196.024C1999.98 200.75 1994.56 205.912 1993.07 214.248C1991.58 225.777 1992.09 237.532 1992.43 249.121C1992.55 253.945 1992.58 258.769 1992.61 263.594C1992.66 269.004 1992.71 274.412 1992.83 279.821C1992.85 280.635 1992.86 281.449 1992.88 282.288C1992.92 283.812 1992.96 285.337 1993 286.861C1993.04 288.574 1993.02 290.287 1993 292C1992.67 292.33 1992.34 292.66 1992 293C1964.33 293 1936.66 292.477 1909 292C1909 196.63 1909 101.26 1909 3.00021Z" fill="white"/>
<path d="M945 2C1089.85 2 1089.85 2 1104.81 7.75C1105.5 8.00531 1106.19 8.26063 1106.9 8.52368C1117.27 12.4866 1126.52 17.8161 1135 25C1135.66 25.5195 1136.33 26.039 1137.01 26.5742C1153.54 39.9831 1163.06 62.3215 1165.71 83.1523C1167.94 113.121 1163.41 141.765 1143.42 165.257C1138.49 170.824 1132.88 175.456 1127 180C1130.5 187.414 1134.4 194.53 1138.5 201.625C1153.4 227.485 1167.05 254.077 1180.44 280.75C1181.14 282.144 1181.14 282.144 1181.85 283.565C1182.27 284.405 1182.69 285.244 1183.12 286.109C1183.49 286.841 1183.85 287.573 1184.23 288.327C1185 290 1185 290 1185 291C1157.28 291 1129.56 291 1101 291C1095.39 280.44 1089.78 269.88 1084 259C1078.76 249.249 1078.76 249.249 1073.5 239.504C1070.96 234.788 1068.43 230.066 1065.9 225.34C1065.56 224.699 1065.22 224.058 1064.86 223.398C1063.52 220.884 1062.18 218.37 1060.83 215.854C1059.92 214.135 1059 212.417 1058.08 210.699C1057.56 209.718 1057.03 208.736 1056.5 207.725C1055.48 205.879 1054.42 204.059 1053.31 202.269C1052 200 1052 200 1052 198C1041.77 198 1031.54 198 1021 198C1021 228.69 1021 259.38 1021 291C995.92 291 970.84 291 945 291C945 195.63 945 100.26 945 2Z" fill="white"/>
<path d="M1653.16 2.86489C1654.49 2.86793 1654.49 2.86793 1655.86 2.87103C1656.8 2.8693 1657.74 2.86757 1658.71 2.86579C1661.89 2.86138 1665.07 2.8644 1668.25 2.86761C1670.51 2.86659 1672.78 2.86525 1675.05 2.86361C1681.22 2.86088 1687.4 2.86543 1693.57 2.87185C1697.42 2.87541 1701.27 2.87704 1705.12 2.87811C1762.09 2.89768 1819.04 3.40411 1876 4.00042C1876 28.7504 1876 53.5004 1876 79.0004C1825.18 79.0004 1774.36 79.0004 1722 79.0004C1722 85.2704 1722 91.5404 1722 98.0004C1751.37 98.0004 1780.74 98.0004 1811 98.0004C1811 123.41 1811 148.82 1811 175C1781.63 175 1752.26 175 1722 175C1722 189.52 1722 204.04 1722 219C1726.75 218.995 1731.5 218.99 1736.4 218.985C1752.05 218.968 1767.7 218.957 1783.36 218.949C1792.86 218.943 1802.35 218.936 1811.85 218.925C1820.12 218.915 1828.39 218.909 1836.67 218.906C1841.05 218.905 1845.44 218.902 1849.82 218.895C1853.94 218.888 1858.06 218.886 1862.18 218.887C1863.7 218.887 1865.22 218.885 1866.73 218.881C1868.8 218.876 1870.86 218.877 1872.92 218.88C1874.08 218.879 1875.23 218.878 1876.43 218.877C1879 219 1879 219 1880 220C1880 243.76 1880 267.52 1880 292C1802.78 292 1725.56 292 1646 292C1645.96 219.767 1645.96 219.767 1645.95 189.674C1645.95 182.786 1645.95 175.897 1645.95 169.008C1645.94 168.145 1645.94 167.282 1645.94 166.392C1645.94 152.434 1645.93 138.476 1645.92 124.518C1645.91 110.204 1645.91 95.8899 1645.91 81.576C1645.9 72.7363 1645.9 63.8966 1645.89 55.0569C1645.89 49.0036 1645.89 42.9503 1645.89 36.897C1645.89 33.3993 1645.89 29.9015 1645.88 26.4037C1645.88 22.6206 1645.88 18.8374 1645.88 15.0543C1645.88 13.9366 1645.87 12.8189 1645.87 11.6674C1645.87 10.1595 1645.87 10.1595 1645.88 8.62127C1645.88 7.74678 1645.88 6.87228 1645.88 5.97128C1646.15 1.60656 1649.56 2.87749 1653.16 2.86489Z" fill="white"/>
<path d="M709 1.00027C724.579 0.953285 740.157 0.918154 755.736 0.896648C762.972 0.886391 770.207 0.87244 777.443 0.849393C783.759 0.829285 790.075 0.816515 796.39 0.812095C799.726 0.809517 803.062 0.802482 806.397 0.788812C831.609 0.689697 855.127 1.1473 878 13.0003C878.997 13.5017 879.993 14.0032 881.02 14.5198C901.678 25.6477 918.702 46.8259 925.677 69.1697C927.931 77.2869 929.664 85.5672 930 94.0003C930.052 94.8588 930.103 95.7173 930.156 96.6018C930.988 121.761 921.964 146.476 905 165C904.229 165.852 903.458 166.704 902.664 167.582C886.085 185.047 861.543 197.336 837.217 198.086C833.833 198.116 830.451 198.113 827.067 198.098C825.973 198.097 824.879 198.096 823.752 198.095C819.689 198.09 815.626 198.076 811.563 198.063C802.467 198.042 793.371 198.022 784 198C784 228.69 784 259.38 784 291C758.92 290.67 733.84 290.34 708 290C707.972 273.521 707.949 257.042 707.938 240.563C707.937 239.282 707.936 238.002 707.935 236.682C707.904 183.787 708.17 130.894 708.5 78.0003C708.506 77.0416 708.512 76.083 708.518 75.0953C708.672 50.3969 708.833 25.6986 709 1.00027Z" fill="white"/>
<path d="M340 1C501.479 1 501.479 1 530 27C530.715 27.6458 531.431 28.2916 532.168 28.957C549.93 45.8258 560.266 69.7431 561.203 94.1211C561.66 119.396 554.819 142.621 538 162C537.362 162.771 536.724 163.542 536.066 164.336C518.381 185.188 492.705 195.467 465.996 197.798C461.21 198.121 456.439 198.123 451.645 198.098C450.103 198.096 450.103 198.096 448.53 198.093C445.291 198.088 442.052 198.075 438.812 198.062C436.598 198.057 434.384 198.053 432.17 198.049C426.78 198.038 421.39 198.021 416 198C416.002 198.946 416.004 199.892 416.007 200.867C416.027 209.839 416.042 218.812 416.052 227.784C416.057 232.396 416.064 237.007 416.075 241.619C416.086 246.08 416.092 250.541 416.095 255.002C416.097 256.693 416.1 258.384 416.106 260.074C416.113 262.467 416.114 264.858 416.114 267.25C416.117 267.93 416.121 268.609 416.124 269.308C416.11 276.27 415.5 282.994 415 290C390.25 290 365.5 290 340 290C340 194.63 340 99.26 340 1Z" fill="white"/>
<path d="M1330 2.62513C1330.72 2.62601 1331.44 2.62689 1332.17 2.62779C1373.68 2.79392 1408.08 19.9716 1437.63 48.3126C1460.75 72.1154 1477 104.466 1477 138C1451.92 138 1426.84 138 1401 138C1399.68 133.05 1398.36 128.1 1397 123C1389 104.39 1375.6 91.788 1357 84.0001C1337.35 77.2433 1316.2 78.6113 1297.36 87.1993C1279.56 96.7408 1268.35 111.252 1262.25 130.348C1257.88 148.032 1261.46 166.82 1269.88 182.672C1273.57 188.463 1278.09 193.229 1283 198C1283.63 198.616 1284.26 199.232 1284.91 199.867C1294.79 208.879 1306.81 213.624 1319.88 215.606C1322 216 1322 216 1323 217C1323.09 219.373 1323.13 221.717 1323.11 224.09C1323.11 224.832 1323.11 225.573 1323.11 226.337C1323.11 228.799 1323.11 231.261 1323.1 233.723C1323.1 235.425 1323.09 237.128 1323.09 238.83C1323.09 243.32 1323.08 247.81 1323.07 252.3C1323.06 256.877 1323.05 261.455 1323.05 266.033C1323.04 275.022 1323.02 284.011 1323 293C1321.42 293.013 1319.84 293.022 1318.26 293.03C1317.38 293.036 1316.5 293.041 1315.59 293.047C1311.94 292.981 1308.46 292.481 1304.88 291.813C1304.15 291.68 1303.43 291.546 1302.68 291.409C1264.75 284.045 1230.88 260.861 1208.78 229.277C1195.99 210.061 1188 188.853 1185 166C1184.87 165.009 1184.74 164.018 1184.61 162.996C1180.6 126.346 1190.43 87.7425 1213.53 58.7853C1233.95 33.8098 1259.3 15.6133 1290.69 7.18763C1291.41 6.99274 1292.13 6.79785 1292.88 6.59706C1305.11 3.51121 1317.42 2.58726 1330 2.62513Z" fill="white"/>
<path d="M2192 4.00018C2223.32 3.97815 2254.64 3.95968 2285.97 3.94911C2289.66 3.94786 2293.35 3.94656 2297.05 3.94524C2297.78 3.94498 2298.52 3.94472 2299.28 3.94445C2311.2 3.94009 2323.12 3.9322 2335.05 3.92302C2347.27 3.91369 2359.5 3.90812 2371.72 3.90609C2379.27 3.90471 2386.82 3.90036 2394.37 3.89226C2400.15 3.88637 2405.93 3.88572 2411.71 3.88707C2414.09 3.88679 2416.47 3.88478 2418.85 3.88097C2422.08 3.87604 2425.31 3.87717 2428.54 3.87992C2429.97 3.87555 2429.97 3.87555 2431.43 3.87109C2437.89 3.88605 2437.89 3.88605 2439 5.00017C2439.09 7.17823 2439.12 9.35939 2439.11 11.5395C2439.11 12.2335 2439.11 12.9274 2439.11 13.6424C2439.11 15.8984 2439.11 18.1543 2439.1 20.4103C2439.1 21.7993 2439.1 23.1882 2439.09 24.5772C2439.09 29.739 2439.08 34.9009 2439.06 40.0627C2439.04 51.5921 2439.02 63.1214 2439 75.0002C2410.62 75.0002 2382.24 75.0002 2353 75.0002C2353.01 81.2689 2353.02 87.5376 2353.04 93.9963C2353.05 102.81 2353.06 111.624 2353.06 120.438C2353.06 122.163 2353.06 122.163 2353.07 123.924C2353.09 163.639 2352.88 203.349 2352.5 243.063C2352.48 244.955 2352.48 244.955 2352.46 246.885C2352.32 262.257 2352.16 277.628 2352 293C2327.25 293 2302.5 293 2277 293C2277 221.06 2277 149.12 2277 75.0002C2248.95 75.0002 2220.9 75.0002 2192 75.0002C2192 51.5702 2192 28.1402 2192 4.00018Z" fill="white"/>
<path d="M1538 6C1562.75 6 1587.5 6 1613 6C1613.07 32.2874 1613.12 58.5748 1613.16 84.8623C1613.17 97.0695 1613.19 109.277 1613.23 121.484C1613.26 132.13 1613.28 142.777 1613.28 153.424C1613.29 159.055 1613.3 164.686 1613.32 170.317C1613.34 175.631 1613.34 180.944 1613.34 186.258C1613.34 188.195 1613.35 190.133 1613.36 192.07C1613.45 207.56 1612.59 223.155 1606.88 237.75C1606.57 238.534 1606.27 239.318 1605.97 240.125C1596.84 262.941 1578.4 280.242 1556 290C1526.75 301.293 1495.81 300.036 1467 288C1442.71 277.084 1425.45 259.715 1415.88 234.625C1412.51 225.357 1409.94 215.796 1407.32 206.297C1407.07 205.372 1406.81 204.448 1406.55 203.495C1406 201 1406 201 1406 197C1433.06 197 1460.12 197 1488 197C1489.65 202.28 1491.3 207.56 1493 213C1497.29 219.513 1497.29 219.513 1504 222C1506.83 222.38 1509.59 222.431 1512.44 222.375C1513.19 222.365 1513.94 222.355 1514.71 222.344C1521.71 222.147 1526.49 221.346 1531.81 216.375C1536.36 210.186 1537.45 202.889 1537.4 195.401C1537.41 194.585 1537.41 193.768 1537.42 192.927C1537.44 190.219 1537.43 187.511 1537.43 184.802C1537.44 182.85 1537.45 180.898 1537.46 178.946C1537.49 173.666 1537.5 168.386 1537.51 163.105C1537.52 157.58 1537.54 152.055 1537.57 146.53C1537.61 136.075 1537.64 125.621 1537.66 115.166C1537.69 103.26 1537.73 91.3547 1537.78 79.4491C1537.87 54.9661 1537.94 30.4831 1538 6Z" fill="white"/>
<path d="M132 6C156.75 6 181.5 6 207 6C207.045 31.6528 207.082 57.3055 207.104 82.9583C207.114 94.8708 207.128 106.783 207.151 118.696C207.171 129.085 207.184 139.474 207.188 149.863C207.191 155.358 207.197 160.853 207.211 166.349C207.225 171.534 207.229 176.718 207.226 181.903C207.227 183.794 207.231 185.685 207.238 187.576C207.347 215.484 203.698 243.636 184 265C183.201 265.891 182.402 266.781 181.578 267.699C162.215 288.237 136.781 296.364 109.16 298.188C83.7258 298.865 53.6432 289.031 34.125 272.312C28.6381 266.999 24.2679 261.046 20.1006 254.676C19.127 253.193 18.1169 251.735 17.1016 250.281C8.03439 236.332 0 213.746 0 197C26.73 197 53.46 197 81 197C84 206 84 206 84.957 208.891C87.0142 214.564 88.8911 217.701 94 221C101.721 223.747 113.395 223.319 120.812 219.938C125.823 216.9 128.006 213.526 129.574 207.963C130.783 202.744 131.293 197.863 131.278 192.515C131.287 191.309 131.287 191.309 131.296 190.078C131.313 187.412 131.316 184.745 131.319 182.078C131.328 180.155 131.338 178.233 131.349 176.31C131.377 171.111 131.392 165.911 131.405 160.711C131.42 155.27 131.447 149.829 131.473 144.388C131.519 134.092 131.556 123.797 131.589 113.502C131.628 101.778 131.677 90.0536 131.727 78.3294C131.831 54.2196 131.918 30.1098 132 6Z" fill="white"/>
<path d="M240.984 2.86103C241.697 2.86305 242.41 2.86507 243.145 2.86716C244.28 2.86572 244.28 2.86572 245.438 2.86426C247.07 2.86358 248.701 2.86545 250.333 2.8696C252.681 2.87469 255.029 2.86981 257.377 2.86325C274.939 2.87746 292.426 3.51179 310 3.99997C310 99.37 310 194.74 310 293C285.25 293 260.5 293 235 293C234.978 256.2 234.96 219.4 234.949 182.6C234.948 178.26 234.947 173.921 234.945 169.581C234.945 168.717 234.945 167.853 234.944 166.963C234.94 152.953 234.932 138.944 234.923 124.935C234.914 110.572 234.908 96.2082 234.906 81.8446C234.905 72.9742 234.9 64.1037 234.892 55.2333C234.887 49.159 234.885 43.0847 234.887 37.0104C234.887 33.5005 234.886 29.9906 234.881 26.4807C234.875 22.6844 234.877 18.8881 234.88 15.0918C234.877 13.9702 234.874 12.8486 234.871 11.6931C234.873 10.6844 234.875 9.6757 234.877 8.63644C234.877 7.32014 234.877 7.32014 234.876 5.97725C235.126 2.00145 237.581 2.87767 240.984 2.86103Z" fill="white"/>
<path d="M589 147C613.42 147 637.84 147 663 147C663 171.75 663 196.5 663 222C638.58 222 614.16 222 589 222C589 197.25 589 172.5 589 147Z" fill="white"/>
<path d="M1021 76.0004C1032.26 75.9076 1032.26 75.9076 1043.75 75.8129C1047.27 75.772 1047.27 75.772 1050.85 75.7302C1077.48 75.549 1077.48 75.549 1086 83.0004C1091.39 89.9875 1091.75 96.368 1091 105C1089.8 110.158 1088.32 114.534 1084.75 118.5C1075.27 123.671 1065.99 124.156 1055.38 124.098C1054.5 124.097 1053.62 124.096 1052.72 124.095C1049.48 124.09 1046.24 124.076 1043 124.063C1035.74 124.042 1028.48 124.022 1021 124C1021 108.16 1021 92.3204 1021 76.0004Z" fill="black"/>
<path d="M416 74.9998C423.404 74.9585 430.809 74.9173 438.438 74.8748C440.757 74.8566 443.077 74.8383 445.467 74.8196C447.331 74.8137 449.195 74.8086 451.059 74.8044C452.006 74.7942 452.953 74.784 453.929 74.7734C464.718 74.7706 473.404 76.5547 481.312 84.2498C485.882 91.6967 486.809 98.448 485 107C483.205 113.232 479.887 116.318 474.512 119.773C467.557 123.169 461.215 123.271 453.598 123.195C452.52 123.192 451.442 123.189 450.332 123.186C446.909 123.175 443.486 123.15 440.062 123.125C437.734 123.115 435.405 123.106 433.076 123.097C427.384 123.077 421.692 123.038 416 123C416 107.16 416 91.3198 416 74.9998Z" fill="black"/>
<path d="M785 75.9995C792.858 75.917 800.716 75.8345 808.812 75.7495C811.271 75.7131 813.729 75.6767 816.261 75.6392C818.243 75.6275 820.225 75.6173 822.207 75.6089C823.209 75.5884 824.21 75.568 825.243 75.5469C833.085 75.5431 841.204 76.5943 847.245 82.0136C853.491 88.8385 854.556 94.0879 854.312 103.289C853.763 109.816 851.751 113.249 847.188 117.812C838.562 123.732 830.443 124.151 820.352 124.097C819.453 124.096 818.555 124.095 817.63 124.094C814.295 124.089 810.96 124.075 807.625 124.062C800.159 124.041 792.693 124.021 785 124C785 108.16 785 92.3195 785 75.9995Z" fill="black"/>
</svg>
