<svg width="631" height="131" viewBox="0 0 631 131" fill="none" xmlns="http://www.w3.org/2000/svg">
    <path
        d="M0.666016 65.3337V130.667H63.3327H125.999L126.133 126.267C126.133 121.067 126.133 59.467 126.133 24.9337L125.999 0.000318706H63.3327H0.666016V65.3337ZM123.333 65.3337V128L63.866 128.267C31.1994 128.534 4.13268 128.4 3.86602 128.134C3.59935 127.867 3.33268 99.467 3.33268 65.067V2.66699H63.3327H123.333V65.3337Z"
        fill="white" />
    <path d="M10 36.667V62.667H33.3333H56.6667V36.667V10.667H33.3333H10V36.667Z" fill="white" />
    <path
        d="M63.332 36.1333C63.332 56 63.732 61.3333 65.0654 60.5333C65.8654 60 71.732 54.5333 77.9987 48.5333C84.2654 42.5333 95.5987 31.4666 103.199 24.1333L116.932 10.6666H90.132H63.332V36.1333Z"
        fill="white" />
    <path
        d="M10.3996 85.6006C10.9329 94.4006 11.3329 106.134 11.3329 111.601V121.334H33.9996H56.6663V95.334V69.334H33.0663H9.59961L10.3996 85.6006Z"
        fill="white" />
    <path
        d="M63.332 95.2006V121.334H90.3987H117.332L95.332 99.734C83.1987 87.8673 71.0654 76.134 68.3987 73.6006L63.332 69.0673V95.2006Z"
        fill="white" />
    <path
        d="M374.932 22.667C364.799 26.5337 360.932 32.5337 359.466 46.0003C358.666 53.6003 358.399 54.0003 354.932 54.4003C351.332 54.8003 351.199 55.067 351.599 62.4003C351.999 69.6003 352.266 70.0003 355.732 70.4003L359.332 70.8003V88.8003V106.667H369.332H379.332V88.667V70.667H385.999H392.666V62.667V54.667H385.999H379.332V48.267C379.332 39.6003 381.466 36.8003 387.732 37.6003L392.666 38.1337V30.667V23.067L387.466 21.6003C381.332 19.7337 382.666 19.6003 374.932 22.667Z"
        fill="white" />
    <path
        d="M396.666 64.667V106.667H406.933H417.066L416.266 79.6003C415.733 64.8003 415.333 45.867 415.333 37.6003V22.667H405.999H396.666V64.667Z"
        fill="white" />
    <path
        d="M609.999 40.6669C609.999 50.5336 609.732 58.6669 609.332 58.6669C609.066 58.6669 606.799 57.4669 604.399 56.0003C601.199 54.0003 597.599 53.3336 591.066 53.3336C583.066 53.3336 581.599 53.7336 576.532 57.6003C568.399 64.0003 565.999 67.8669 565.066 76.4003C562.932 97.0669 576.532 110.4 596.932 107.6C599.999 107.2 604.132 105.6 606.266 104C609.999 101.2 609.999 101.2 609.999 104C609.999 106.4 610.799 106.667 619.999 106.667H629.999V64.6669V22.6669H619.999H609.999V40.6669ZM603.732 70.5336C608.132 72.2669 611.732 78.1336 610.666 82.2669C608.266 92.0003 595.732 95.3336 588.532 88.1336C584.132 83.7336 583.599 79.4669 586.799 74.9336C590.266 69.8669 597.199 68.1336 603.732 70.5336Z"
        fill="white" />
    <path
        d="M174.132 41.067C156.799 62.0003 157.999 61.7337 157.999 43.467V28.0003H146.665H135.332V67.3337V106.667H146.665H157.999V90.667C157.999 81.867 158.532 74.667 159.199 74.667C159.865 74.667 162.665 77.467 165.465 80.9337C168.265 84.5337 171.199 87.867 171.999 88.667C172.799 89.3337 176.665 93.7337 180.532 98.267L187.599 106.667H201.465C209.065 106.667 215.332 106.267 215.332 105.867C215.332 105.467 207.599 96.5337 197.999 86.0003C188.532 75.467 180.665 66.0003 180.665 65.067C180.665 64.1337 183.865 60.0003 187.732 55.867C200.132 42.667 212.665 28.4003 212.665 27.467C212.665 27.067 206.665 26.667 199.465 26.667H186.265L174.132 41.067Z"
        fill="white" />
    <path
        d="M225.999 56.4006C217.599 60.9339 211.332 71.3339 211.332 80.6672C211.465 89.0672 215.599 97.7339 222.399 103.201C226.665 106.667 228.799 107.334 236.399 107.734C244.799 108.267 248.399 107.334 257.065 102.934C257.599 102.667 257.999 103.334 257.999 104.534C257.999 106.267 259.732 106.667 267.332 106.667H276.665L276.799 96.2672C276.932 84.5339 276.932 71.8672 276.799 61.6006L276.665 54.6672H267.332C259.865 54.6672 257.999 55.0672 257.999 56.6672C257.999 59.3339 255.465 59.2006 252.399 56.4006C250.665 54.8006 246.932 53.8672 240.932 53.6006C233.465 53.2006 231.065 53.7339 225.999 56.4006ZM255.065 74.0006C260.132 80.0006 258.265 87.6006 250.665 91.2006C244.932 94.0006 241.199 93.3339 236.265 88.8006C230.399 83.3339 231.465 74.4006 238.532 71.2006C244.265 68.5339 251.332 69.8672 255.065 74.0006Z"
        fill="white" />
    <path
        d="M437.332 55.3334C419.599 64.9334 416.399 87.8667 430.932 101.733C437.999 108.4 451.999 110.133 461.332 105.333C467.599 102.133 467.332 102.133 467.332 104.667C467.332 106.267 469.332 106.667 477.332 106.667H487.332V80.6667V54.6667H477.999C470.665 54.6667 468.532 55.0667 467.465 56.9334C466.265 59.0667 465.999 59.0667 463.332 56.6667C459.332 53.0667 443.065 52.2667 437.332 55.3334ZM464.132 72.5334C472.265 79.4667 466.799 92 455.599 92C446.932 91.8667 440.932 84.8 443.465 77.4667C446.265 69.4667 457.599 66.8 464.132 72.5334Z"
        fill="white" />
    <path
        d="M522.267 56.667C518.4 59.867 518.267 59.867 517.6 57.3337C516.933 54.9337 515.733 54.667 507.467 54.667H498V80.667V106.667H508H518V91.3337C518 82.8003 518.667 74.667 519.467 72.8003C521.6 68.1337 527.867 66.1337 532.667 68.667C537.2 71.067 538 74.667 538 92.8003V106.667H548H558V90.0003C558 67.3337 556.533 61.2003 550.133 56.8003C546 53.867 543.733 53.3337 535.733 53.3337C527.467 53.3337 525.6 53.7337 522.267 56.667Z"
        fill="white" />
    <path
        d="M287.332 73.8673C287.332 95.6007 288.665 99.6007 296.932 104.667C300.665 106.934 303.732 107.334 318.665 107.334C345.599 107.334 347.332 105.201 347.332 74.0007V54.6673H337.332H327.332V71.6007C327.332 81.0673 326.799 89.334 326.265 90.134C323.065 94.934 313.465 95.4673 309.732 91.0673C308.532 89.6007 307.732 83.2007 307.332 72.134L306.665 55.334L297.065 54.934L287.332 54.534V73.8673Z"
        fill="white" />
    <path
        d="M135.332 124.667V130.667L382.399 130.4L629.332 130L629.732 124.267L630.132 118.667H382.799H135.332V124.667Z"
        fill="white" />
</svg>