<?xml version="1.0" encoding="UTF-8"?>
<!DOCTYPE svg PUBLIC "-//W3C//DTD SVG 1.1//EN" "http://www.w3.org/Graphics/SVG/1.1/DTD/svg11.dtd">
<svg xmlns="http://www.w3.org/2000/svg" version="1.1" width="3000px" height="3000px" style="shape-rendering:geometricPrecision; text-rendering:geometricPrecision; image-rendering:optimizeQuality; fill-rule:evenodd; clip-rule:evenodd" xmlns:xlink="http://www.w3.org/1999/xlink">
<g><path style="opacity:1" fill="#fefefe" d="M -0.5,-0.5 C 999.5,-0.5 1999.5,-0.5 2999.5,-0.5C 2999.5,999.5 2999.5,1999.5 2999.5,2999.5C 1999.5,2999.5 999.5,2999.5 -0.5,2999.5C -0.5,1999.5 -0.5,999.5 -0.5,-0.5 Z"/></g>
<g><path style="opacity:1" fill="#e10b15" d="M 118.5,118.5 C 1039.17,118.5 1959.83,118.5 2880.5,118.5C 2880.5,1039.17 2880.5,1959.83 2880.5,2880.5C 1959.83,2880.5 1039.17,2880.5 118.5,2880.5C 118.5,1959.83 118.5,1039.17 118.5,118.5 Z"/></g>
<g><path style="opacity:1" fill="#fefefe" d="M 237.5,237.5 C 1078.83,237.5 1920.17,237.5 2761.5,237.5C 2761.5,1078.83 2761.5,1920.17 2761.5,2761.5C 1920.17,2761.5 1078.83,2761.5 237.5,2761.5C 237.5,1920.17 237.5,1078.83 237.5,237.5 Z"/></g>
<g><path style="opacity:1" fill="#f7c4c7" d="M 1573.5,623.5 C 1741.67,622.167 1910,622.167 2078.5,623.5C 2078.38,624.107 2078.04,624.44 2077.5,624.5C 1910,623.5 1742.33,623.167 1574.5,623.5C 1574.17,623.5 1573.83,623.5 1573.5,623.5 Z"/></g>
<g><path style="opacity:1" fill="#e00914" d="M 980.5,623.5 C 1148.5,623.5 1316.5,623.5 1484.5,623.5C 1484.5,791.5 1484.5,959.5 1484.5,1127.5C 1484.5,959.5 1484.5,791.5 1484.5,623.5C 1316.5,623.5 1148.5,623.5 980.5,623.5 Z"/></g>
<g><path style="opacity:1" fill="#e8464f" d="M 1573.5,623.5 C 1573.83,623.5 1574.17,623.5 1574.5,623.5C 1574.17,791.334 1574.5,959.001 1575.5,1126.5C 1575.44,1127.04 1575.11,1127.38 1574.5,1127.5C 1573.5,959.501 1573.17,791.501 1573.5,623.5 Z"/></g>
<g><path style="opacity:1" fill="#e00914" d="M 1574.5,623.5 C 1742.33,623.167 1910,623.5 2077.5,624.5C 1909.83,791.5 1742.5,958.833 1575.5,1126.5C 1574.5,959.001 1574.17,791.334 1574.5,623.5 Z"/></g>
<g><path style="opacity:1" fill="#e94851" d="M 980.5,623.5 C 980.5,791.5 980.5,959.5 980.5,1127.5C 1148.5,1127.5 1316.5,1127.5 1484.5,1127.5C 1316.33,1128.5 1148,1128.83 979.5,1128.5C 979.167,959.999 979.5,791.666 980.5,623.5 Z"/></g>
<g><path style="opacity:1" fill="#e00914" d="M 980.5,1217.5 C 1148.5,1217.5 1316.5,1217.5 1484.5,1217.5C 1484.5,1385.5 1484.5,1553.5 1484.5,1721.5C 1484.5,1553.5 1484.5,1385.5 1484.5,1217.5C 1316.5,1217.5 1148.5,1217.5 980.5,1217.5 Z"/></g>
<g><path style="opacity:1" fill="#e10915" d="M 1575.5,1219.5 C 1742.83,1386.17 1909.83,1553.17 2076.5,1720.5C 1909.33,1721.5 1742,1721.83 1574.5,1721.5C 1574.17,1554 1574.5,1386.67 1575.5,1219.5 Z"/></g>
<g><path style="opacity:1" fill="#e7414a" d="M 980.5,1217.5 C 980.5,1385.5 980.5,1553.5 980.5,1721.5C 1148.5,1721.5 1316.5,1721.5 1484.5,1721.5C 1316.33,1722.5 1148,1722.83 979.5,1722.5C 979.167,1554 979.5,1385.67 980.5,1217.5 Z"/></g>
<g><path style="opacity:1" fill="#e8464f" d="M 1575.5,1219.5 C 1574.5,1386.67 1574.17,1554 1574.5,1721.5C 1742,1721.83 1909.33,1721.5 2076.5,1720.5C 2077.29,1720.78 2077.96,1721.28 2078.5,1722C 1910.17,1722.5 1741.83,1722.67 1573.5,1722.5C 1573.33,1554.17 1573.5,1385.83 1574,1217.5C 1574.72,1218.04 1575.22,1218.71 1575.5,1219.5 Z"/></g>
<g><path style="opacity:1" fill="#e10a15" d="M 1374.5,2375.5 C 1374.5,2315.5 1374.5,2255.5 1374.5,2195.5C 1362.83,2195.5 1351.17,2195.5 1339.5,2195.5C 1339.5,2176.5 1339.5,2157.5 1339.5,2138.5C 1351.17,2138.5 1362.83,2138.5 1374.5,2138.5C 1374.5,2122.17 1374.5,2105.83 1374.5,2089.5C 1382.22,2045.28 1408.22,2019.11 1452.5,2011C 1480.81,2007.38 1507.47,2012.21 1532.5,2025.5C 1532.83,2025.83 1533.17,2026.17 1533.5,2026.5C 1529.58,2043.78 1525.91,2061.11 1522.5,2078.5C 1465.57,2055.83 1439.9,2075.16 1445.5,2136.5C 1472.5,2136.5 1499.5,2136.5 1526.5,2136.5C 1526.5,2155.5 1526.5,2174.5 1526.5,2193.5C 1499.5,2193.5 1472.5,2193.5 1445.5,2193.5C 1445.5,2254.17 1445.5,2314.83 1445.5,2375.5C 1421.83,2375.5 1398.17,2375.5 1374.5,2375.5 Z"/></g>
<g><path style="opacity:1" fill="#ef8389" d="M 673.5,2016.5 C 703.669,2015.17 734.003,2015.17 764.5,2016.5C 764.376,2017.11 764.043,2017.44 763.5,2017.5C 733.671,2016.5 703.671,2016.17 673.5,2016.5 Z"/></g>
<g><path style="opacity:1" fill="#e95157" d="M 555.5,2016.5 C 528.833,2016.5 502.167,2016.5 475.5,2016.5C 475.5,2136.17 475.5,2255.83 475.5,2375.5C 474.5,2255.67 474.167,2135.67 474.5,2015.5C 501.672,2015.17 528.672,2015.5 555.5,2016.5 Z"/></g>
<g><path style="opacity:1" fill="#e10a15" d="M 555.5,2016.5 C 555.333,2071.17 555.5,2125.83 556,2180.5C 594.943,2125.59 634.11,2070.92 673.5,2016.5C 703.671,2016.17 733.671,2016.5 763.5,2017.5C 718.524,2075.48 673.524,2133.48 628.5,2191.5C 674.378,2252.76 720.378,2313.92 766.5,2375C 735.161,2375.83 703.828,2375.67 672.5,2374.5C 633.473,2321.31 594.64,2267.97 556,2214.5C 555.5,2268.17 555.333,2321.83 555.5,2375.5C 528.833,2375.5 502.167,2375.5 475.5,2375.5C 475.5,2255.83 475.5,2136.17 475.5,2016.5C 502.167,2016.5 528.833,2016.5 555.5,2016.5 Z"/></g>
<g><path style="opacity:1" fill="#ed676e" d="M 1637.5,2375.5 C 1637.5,2255.83 1637.5,2136.17 1637.5,2016.5C 1614.17,2016.5 1590.83,2016.5 1567.5,2016.5C 1567.5,2136.17 1567.5,2255.83 1567.5,2375.5C 1566.5,2255.67 1566.17,2135.67 1566.5,2015.5C 1590.5,2015.5 1614.5,2015.5 1638.5,2015.5C 1638.83,2135.67 1638.5,2255.67 1637.5,2375.5 Z"/></g>
<g><path style="opacity:1" fill="#e00914" d="M 1637.5,2375.5 C 1614.17,2375.5 1590.83,2375.5 1567.5,2375.5C 1567.5,2255.83 1567.5,2136.17 1567.5,2016.5C 1590.83,2016.5 1614.17,2016.5 1637.5,2016.5C 1637.5,2136.17 1637.5,2255.83 1637.5,2375.5 Z"/></g>
<g><path style="opacity:1" fill="#e10a15" d="M 2455.5,2016.5 C 2478.17,2016.5 2500.83,2016.5 2523.5,2016.5C 2523.5,2136.17 2523.5,2255.83 2523.5,2375.5C 2500.83,2375.5 2478.17,2375.5 2455.5,2375.5C 2455.67,2366.83 2455.5,2358.16 2455,2349.5C 2423.3,2380.58 2386.13,2389.41 2343.5,2376C 2293.45,2355.77 2267.45,2318.6 2265.5,2264.5C 2263.74,2222.58 2277.74,2187.08 2307.5,2158C 2342.1,2130.53 2380.1,2124.86 2421.5,2141C 2434.33,2146.5 2445.49,2154.33 2455,2164.5C 2455.5,2115.17 2455.67,2065.83 2455.5,2016.5 Z"/></g>
<g><path style="opacity:1" fill="#e95056" d="M 2455.5,2016.5 C 2478.33,2015.5 2501.33,2015.17 2524.5,2015.5C 2524.83,2135.67 2524.5,2255.67 2523.5,2375.5C 2523.5,2255.83 2523.5,2136.17 2523.5,2016.5C 2500.83,2016.5 2478.17,2016.5 2455.5,2016.5 Z"/></g>
<g><path style="opacity:1" fill="#e10b15" d="M 1989.5,2135.5 C 2012.5,2135.5 2035.5,2135.5 2058.5,2135.5C 2058.17,2145.19 2058.5,2154.86 2059.5,2164.5C 2060.11,2164.38 2060.44,2164.04 2060.5,2163.5C 2087.82,2135.58 2120.82,2125.41 2159.5,2133C 2197.06,2144.22 2219.56,2169.06 2227,2207.5C 2227.5,2263.5 2227.67,2319.5 2227.5,2375.5C 2204.17,2375.5 2180.83,2375.5 2157.5,2375.5C 2157.98,2324.79 2157.48,2274.13 2156,2223.5C 2145.92,2197.86 2127.08,2187.36 2099.5,2192C 2083.12,2195.6 2069.95,2204.1 2060,2217.5C 2059.5,2270.17 2059.33,2322.83 2059.5,2375.5C 2036.17,2375.5 2012.83,2375.5 1989.5,2375.5C 1989.5,2295.5 1989.5,2215.5 1989.5,2135.5 Z"/></g>
<g><path style="opacity:1" fill="#e10a15" d="M 856.5,2131.5 C 889.347,2129.2 918.014,2138.87 942.5,2160.5C 943.498,2152.53 943.831,2144.53 943.5,2136.5C 966.5,2136.5 989.5,2136.5 1012.5,2136.5C 1012.5,2216.17 1012.5,2295.83 1012.5,2375.5C 989.5,2375.5 966.5,2375.5 943.5,2375.5C 943.831,2367.8 943.497,2360.14 942.5,2352.5C 908.743,2382.07 870.743,2388.91 828.5,2373C 785.381,2353.28 761.548,2319.78 757,2272.5C 753.853,2233.63 764.186,2198.96 788,2168.5C 806.405,2147.88 829.238,2135.55 856.5,2131.5 Z"/></g>
<g><path style="opacity:1" fill="#e10b15" d="M 1782.5,2131.5 C 1815.25,2129.14 1843.75,2138.81 1868,2160.5C 1868.5,2152.51 1868.67,2144.51 1868.5,2136.5C 1891.83,2136.5 1915.17,2136.5 1938.5,2136.5C 1938.5,2216.17 1938.5,2295.83 1938.5,2375.5C 1915.17,2375.5 1891.83,2375.5 1868.5,2375.5C 1868.67,2367.83 1868.5,2360.16 1868,2352.5C 1844.52,2374.33 1816.69,2383.83 1784.5,2381C 1731.95,2372.12 1698.78,2341.95 1685,2290.5C 1676.71,2246.92 1685.38,2207.25 1711,2171.5C 1729.8,2149.18 1753.63,2135.85 1782.5,2131.5 Z"/></g>
<g><path style="opacity:1" fill="#f08186" d="M 1989.5,2135.5 C 2012.66,2134.5 2035.99,2134.17 2059.5,2134.5C 2059.17,2144.35 2059.51,2154.01 2060.5,2163.5C 2060.44,2164.04 2060.11,2164.38 2059.5,2164.5C 2058.5,2154.86 2058.17,2145.19 2058.5,2135.5C 2035.5,2135.5 2012.5,2135.5 1989.5,2135.5 Z"/></g>
<g><path style="opacity:1" fill="#e10b15" d="M 1231.5,2375.5 C 1231.83,2365.81 1231.5,2356.14 1230.5,2346.5C 1229.89,2346.62 1229.56,2346.96 1229.5,2347.5C 1208.06,2370.16 1181.56,2381.5 1150,2381.5C 1113.25,2379.47 1086.58,2362.14 1070,2329.5C 1066.73,2321.77 1064.4,2313.77 1063,2305.5C 1062.5,2249.17 1062.33,2192.83 1062.5,2136.5C 1085.83,2136.5 1109.17,2136.5 1132.5,2136.5C 1132.33,2184.83 1132.5,2233.17 1133,2281.5C 1139.87,2310.19 1158.04,2323.03 1187.5,2320C 1205.21,2317.24 1219.37,2308.74 1230,2294.5C 1230.5,2241.83 1230.67,2189.17 1230.5,2136.5C 1253.83,2136.5 1277.17,2136.5 1300.5,2136.5C 1300.5,2216.17 1300.5,2295.83 1300.5,2375.5C 1277.5,2375.5 1254.5,2375.5 1231.5,2375.5 Z"/></g>
<g><path style="opacity:1" fill="#f18689" d="M 1374.5,2089.5 C 1374.5,2105.83 1374.5,2122.17 1374.5,2138.5C 1362.83,2138.5 1351.17,2138.5 1339.5,2138.5C 1339.5,2157.5 1339.5,2176.5 1339.5,2195.5C 1339.17,2195.5 1338.83,2195.5 1338.5,2195.5C 1338.5,2176.17 1338.5,2156.83 1338.5,2137.5C 1350.17,2137.5 1361.83,2137.5 1373.5,2137.5C 1373.17,2121.32 1373.5,2105.32 1374.5,2089.5 Z"/></g>
<g><path style="opacity:1" fill="#fefefe" d="M 887.5,2189.5 C 909.217,2188.95 927.717,2196.28 943,2211.5C 943.667,2240.83 943.667,2270.17 943,2299.5C 915.801,2325.63 886.634,2328.13 855.5,2307C 832.645,2285.74 826.145,2260.24 836,2230.5C 846.568,2208.42 863.735,2194.75 887.5,2189.5 Z"/></g>
<g><path style="opacity:1" fill="#fffdfd" d="M 1813.5,2189.5 C 1835.48,2188.88 1853.98,2196.55 1869,2212.5C 1869.83,2241.51 1869.67,2270.51 1868.5,2299.5C 1837.23,2328.36 1805.73,2328.69 1774,2300.5C 1752.35,2273.12 1751.02,2244.78 1770,2215.5C 1781.44,2201.54 1795.94,2192.87 1813.5,2189.5 Z"/></g>
<g><path style="opacity:1" fill="#fffdfd" d="M 2393.5,2190.5 C 2418.42,2188.22 2438.92,2196.55 2455,2215.5C 2455.67,2242.5 2455.67,2269.5 2455,2296.5C 2428.75,2324.4 2399.25,2328.57 2366.5,2309C 2341.97,2287.74 2334.81,2261.57 2345,2230.5C 2355.03,2209.63 2371.19,2196.3 2393.5,2190.5 Z"/></g>
<g><path style="opacity:1" fill="#f4aaaf" d="M 1338.5,2195.5 C 1338.83,2195.5 1339.17,2195.5 1339.5,2195.5C 1351.17,2195.5 1362.83,2195.5 1374.5,2195.5C 1374.5,2255.5 1374.5,2315.5 1374.5,2375.5C 1373.5,2316 1373.17,2256.34 1373.5,2196.5C 1361.65,2196.83 1349.99,2196.49 1338.5,2195.5 Z"/></g>
<g><path style="opacity:1" fill="#ee7b81" d="M 1229.5,2347.5 C 1229.56,2346.96 1229.89,2346.62 1230.5,2346.5C 1231.5,2356.14 1231.83,2365.81 1231.5,2375.5C 1230.83,2366.17 1230.17,2356.83 1229.5,2347.5 Z"/></g>
</svg>
