<?xml version="1.0" encoding="UTF-8"?>
<svg version="1.1" xmlns="http://www.w3.org/2000/svg" width="3000" height="3000">
<path d="M0 0 C0 18.48 0 36.96 0 56 C-94.72395463 56.13905817 -189.44791513 56.27384523 -1257.2734412 57.50401872 C-1289.69103787 57.53426018 -1322.1086343 57.56472042 -1354.52622986 57.59614182 C-1355.24125509 57.59683482 -1355.95628033 57.59752783 -1356.692973 57.59824183 C-1363.17218885 57.60452218 -1369.6514047 57.61080743 -1376.13062055 57.61709568 C-1445.59205063 57.68450722 -1515.05348232 57.74995775 -1588.61616189 57.81460799 C-1590.66193346 57.81640438 -1592.70770502 57.81820221 -1594.75347659 57.82000005 C-1685.9805177 57.90013244 -1777.2075759 57.9798315 -2286 58 C-2286 39.52 -2286 21.04 -2286 2 C-2194.38214903 1.81597317 -2102.76426895 1.64786761 -1130.73854346 0.44372039 C-1125.40008525 0.43888347 -1120.06162705 0.4340394 -1114.72316885 0.42919171 C-1040.01079427 0.36135386 -965.29841846 0.29494448 0 0 Z " fill="#CC2128" transform="translate(2955,1746)"/>
<path d="M0 0 C34.98 0 69.96 0 106 0 C106.33 49.83 106.66 99.66 107 151 C109.97 147.37 112.94 143.74 116 140 C117.82642936 137.82751034 119.65852668 135.65975266 121.5 133.5 C124.85536335 129.55427075 128.17224043 125.58355203 131.4375 121.5625 C135.39508188 116.69870975 139.46542446 111.94118769 143.55834961 107.19165039 C146.58945289 103.66701081 149.56985316 100.10960118 152.5 96.5 C155.93208013 92.2720752 159.44551171 88.1247211 163 84 C167.31934272 78.98685227 171.55097277 73.91462485 175.72265625 68.77734375 C178.74419944 65.09240857 181.83035951 61.46431679 184.91650391 57.83349609 C187.79557843 54.44026525 190.63211492 51.0172328 193.4375 47.5625 C197.39508188 42.69870975 201.46542446 37.94118769 205.55834961 33.19165039 C209.3243319 28.81247589 212.99067243 24.36104243 216.62890625 19.875 C220.02671013 15.75509282 223.51539529 11.71470233 227.015625 7.68164062 C229.17059009 5.18836307 231.16932165 2.74601752 233 0 C235.30758858 -0.36914349 235.30758858 -0.36914349 238.2517395 -0.36076355 C239.36515717 -0.36488754 240.47857483 -0.36901154 241.62573242 -0.3732605 C243.46639282 -0.35708176 243.46639282 -0.35708176 245.34423828 -0.34057617 C247.27588333 -0.34123329 247.27588333 -0.34123329 249.24655151 -0.34190369 C252.78363511 -0.34276651 256.32041519 -0.32509477 259.85742807 -0.30418181 C263.55165485 -0.28546253 267.24588814 -0.28366834 270.94015503 -0.28010559 C277.93835087 -0.27077111 284.93640657 -0.24613847 291.93454063 -0.21605712 C299.90055836 -0.18255664 307.86658268 -0.16603808 315.83265328 -0.15097082 C332.22185097 -0.11959004 348.61090762 -0.06680244 365 0 C364.04515603 1.28765943 363.08830883 2.57383356 362.13061523 3.859375 C361.33167091 4.93396973 361.33167091 4.93396973 360.5165863 6.03027344 C358.84354198 8.20320605 357.05288753 10.11481266 355.0625 12 C351.87848571 15.10006664 348.93619062 18.30902734 346.0390625 21.67578125 C343.45246655 24.62410422 340.79163286 27.49914606 338.125 30.375 C333.79982671 35.04193354 329.51734733 39.74281442 325.26953125 44.48046875 C320.41443591 49.87037666 315.49220458 55.19951805 310.58398438 60.54101562 C305.86774437 65.67473745 301.15717409 70.81247157 296.5 76 C290.91080217 82.22569011 285.24475942 88.38053078 279.58398438 94.54101562 C274.12898209 100.47889501 268.69808111 106.43642391 263.3125 112.4375 C260.25640539 115.82398321 257.17014388 119.18244814 254.08374023 122.54125977 C251.22397796 125.65633125 248.38484641 128.78851675 245.5625 131.9375 C241.56551622 136.3920991 237.50925591 140.78918479 233.44384766 145.18115234 C229.69078728 149.24009729 225.98130428 153.33558025 222.296875 157.45703125 C220.59211104 159.34444849 218.87524428 161.21462856 217.140625 163.07421875 C216.40501343 163.86590454 216.40501343 163.86590454 215.65454102 164.67358398 C214.26621098 166.16542074 212.87346994 167.65314899 211.48046875 169.140625 C209.00771198 171.99110997 207.0169975 174.82170091 205 178 C205.71285156 178.7734375 206.42570313 179.546875 207.16015625 180.34375 C211.89767735 185.49258048 216.60785169 190.65438048 221.19140625 195.94140625 C223.4301125 198.4895665 225.71410212 200.99410593 228 203.5 C231.43264761 207.26350521 234.8155501 211.06129351 238.15625 214.90625 C240.40876457 217.46419027 242.70317092 219.9817898 245 222.5 C248.43264761 226.26350521 251.8155501 230.06129351 255.15625 233.90625 C257.40876457 236.46419027 259.70317092 238.9817898 262 241.5 C265.43264761 245.26350521 268.8155501 249.06129351 272.15625 252.90625 C274.40876457 255.46419027 276.70317092 257.9817898 279 260.5 C282.43264761 264.26350521 285.8155501 268.06129351 289.15625 271.90625 C291.40876457 274.46419027 293.70317092 276.9817898 296 279.5 C299.43264761 283.26350521 302.8155501 287.06129351 306.15625 290.90625 C309.25760235 294.4281247 312.43513333 297.88077022 315.59765625 301.34765625 C317.56941844 303.52460996 319.51365337 305.71838674 321.4375 307.9375 C324.3988351 311.3468858 327.44152486 314.6779431 330.5 318 C334.14414329 321.95862186 337.73913717 325.9517676 341.265625 330.015625 C344.79499465 334.05373262 348.40570631 338.01974189 352 342 C356.75984947 347.27097425 361.50662077 352.54880983 366.16015625 357.9140625 C367.56642765 359.5084339 368.99516305 361.08301854 370.43359375 362.6484375 C371.25988281 363.54820312 372.08617187 364.44796875 372.9375 365.375 C373.70964844 366.20773437 374.48179687 367.04046875 375.27734375 367.8984375 C377 370 377 370 377 372 C359.4235265 372.25731681 341.84764322 372.4511076 324.26971531 372.56993389 C316.10730984 372.6265818 307.94607664 372.70376416 299.78442383 372.82983398 C292.66803385 372.93970535 285.55249295 373.01049328 278.43527836 373.03497344 C274.66852116 373.04927828 270.90419219 373.08272122 267.13821602 373.16303062 C263.5874359 373.23813206 260.04006438 373.26064833 256.48856544 373.24418449 C254.57543866 373.2486186 252.66267742 373.30760392 250.7505188 373.36862183 C245.51785698 373.3002161 242.30055945 373.14695194 238.28336906 369.60422707 C235.99786849 366.82778506 233.98657472 363.99460292 232 361 C230.91011557 359.68193486 229.80314172 358.37735336 228.6640625 357.1015625 C228.16310059 356.52712402 227.66213867 355.95268555 227.14599609 355.36083984 C226.39310303 354.50159912 226.39310303 354.50159912 225.625 353.625 C220.13811059 347.32738287 214.72002098 340.97600884 209.33837891 334.58837891 C207.08232573 331.91091047 204.82293394 329.23627043 202.5625 326.5625 C202.11261719 326.03011719 201.66273438 325.49773437 201.19921875 324.94921875 C198.28724054 321.50778995 195.35628733 318.08328959 192.41601562 314.66601562 C188.40834744 310.00818074 184.43158387 305.33696364 180.5625 300.5625 C176.46020051 295.51066283 172.21298022 290.5969402 167.93994141 285.68994141 C163.95296241 281.10903362 160.01188319 276.49258493 156.09863281 271.84863281 C152.71518052 267.83615816 149.29899816 263.85289612 145.875 259.875 C142.38176144 255.81379124 138.93551293 251.72481029 135.5625 247.5625 C131.49736752 242.55472811 127.29313013 237.67927098 123.04321289 232.82836914 C117.92177386 226.96612878 112.98963859 220.98756631 108 215 C107.67 266.81 107.34 318.62 107 372 C72.02 372 37.04 372 1 372 C0.74922556 314.80551633 0.74922556 314.80551633 0.64453125 289.8984375 C0.62064533 284.21712223 0.59672701 278.53580709 0.57275391 272.85449219 C0.5682555 271.78794564 0.5682555 271.78794564 0.56366622 270.69985271 C0.52235875 260.91571234 0.47985817 251.13157785 0.43630803 241.34744722 C0.36065848 224.35143591 0.2876332 207.35541516 0.21875 190.359375 C0.21600838 189.68423662 0.21326676 189.00909824 0.21044207 188.31350112 C-0.04386649 125.54222743 -0.0490553 62.77170334 0 0 Z " fill="#CC2128" transform="translate(668,1322)"/>
<path d="M0 0 C0 129.69 0 259.38 0 393 C-30.69 393 -61.38 393 -93 393 C-93.33 385.08 -93.66 377.16 -94 369 C-95.11375 370.093125 -96.2275 371.18625 -97.375 372.3125 C-110.55713659 383.99996913 -126.84254498 391.65715094 -143.5625 396.75 C-144.21033447 396.94899902 -144.85816895 397.14799805 -145.52563477 397.35302734 C-177.09881727 406.4318272 -211.8623086 401.80140455 -240.49291992 386.234375 C-270.88401117 369.04442654 -293.40403965 340.83725574 -302.93359375 307.1328125 C-311.97318728 273.02632111 -307.37660716 236.56328308 -290.05908203 205.80371094 C-272.89349692 176.56919209 -245.58487429 155.24200814 -213 146 C-179.42663205 137.66741643 -143.97285094 141.1735591 -114 159 C-106.93762981 163.52548784 -100.44464592 168.62946174 -94 174 C-93.505 88.365 -93.505 88.365 -93 1 C-62.00522271 0.34053665 -31.00179206 0 0 0 Z M-179 225 C-179.79792969 225.40863281 -180.59585938 225.81726562 -181.41796875 226.23828125 C-194.63836229 233.51462188 -203.89166317 245.14256563 -208.3046875 259.53125 C-211.11036823 273.52812912 -209.10953612 286.40132755 -201.8125 298.6875 C-192.31712427 312.63007701 -178.57792146 321.65015594 -162 325 C-144.62426029 327.5662631 -128.85887848 324.56097092 -114 315 C-110.35770365 312.24940573 -107.14796215 309.29872662 -104 306 C-103.14535156 305.17435547 -103.14535156 305.17435547 -102.2734375 304.33203125 C-94.04952448 295.79181388 -90.17361823 283.56154903 -89.9375 271.91796875 C-90.49675045 257.4648398 -96.00583383 245.26288212 -106 235 C-118.84794033 223.29641063 -135.50310881 217.19919011 -152.92578125 217.7109375 C-162.10333059 218.57388369 -170.85790296 220.63869391 -179 225 Z " fill="#CC2128" transform="translate(2956,1299)"/>
<path d="M0 0 C0.68725159 -0.00635468 1.37450317 -0.01270935 2.08258057 -0.01925659 C33.84901801 -0.20195323 61.17422676 12.37435563 85.25 32.4375 C85.25 24.5175 85.25 16.5975 85.25 8.4375 C116.27 8.4375 147.29 8.4375 179.25 8.4375 C179.25 88.2975 179.25 168.1575 179.25 250.4375 C92.93161128 251.85255555 92.93161128 251.85255555 86.25 251.4375 C84.56699331 249.75449331 85.02190923 247.61741273 84.93359375 245.30859375 C84.87075195 243.75688477 84.87075195 243.75688477 84.80664062 242.17382812 C84.76732422 241.08521484 84.72800781 239.99660156 84.6875 238.875 C84.62272461 237.2362793 84.62272461 237.2362793 84.55664062 235.56445312 C84.45017932 232.85560436 84.34816484 230.14666008 84.25 227.4375 C83.425 228.12714844 82.6 228.81679687 81.75 229.52734375 C54.07926899 252.22018537 20.05010538 262.48247129 -15.66796875 259.0078125 C-45.04114889 255.55367965 -69.41142287 242.50324973 -90.75 222.4375 C-91.63558594 221.64859375 -91.63558594 221.64859375 -92.5390625 220.84375 C-114.04274068 200.86876932 -127.53943038 168.86023167 -128.87255859 139.76245117 C-129.24812435 126.04747278 -128.90518743 112.81963061 -125.75 99.4375 C-125.58902832 98.74285645 -125.42805664 98.04821289 -125.26220703 97.33251953 C-119.81033599 74.70280315 -108.11586732 55.66727431 -92.75 38.4375 C-92.10546875 37.70789062 -91.4609375 36.97828125 -90.796875 36.2265625 C-67.28189105 11.17799264 -33.52236228 0.15807538 0 0 Z M-18.75 96.4375 C-28.56858756 109.33383712 -32.0954336 122.45726818 -30.75 138.4375 C-29.12511441 146.59906817 -25.44994277 153.63150692 -20.75 160.4375 C-20.33363281 161.05109375 -19.91726563 161.6646875 -19.48828125 162.296875 C-11.12862968 173.24224463 4.01780861 180.94755094 17.375 183.15234375 C36.11560508 185.01112659 52.9200489 181.82107317 68.2578125 170.1484375 C79.63425538 160.38391568 87.16596802 147.63558941 88.40625 132.53515625 C89.00388372 118.76467918 83.87827144 106.59552069 75.0625 96.25 C63.95915969 84.55250102 49.76389643 76.88212772 33.48828125 76.1015625 C13.40357462 75.7322025 -4.80448691 81.04342129 -18.75 96.4375 Z " fill="#CC2128" transform="translate(1146.75,1442.5625)"/>
<path d="M0 0 C1.65 1.32 3.3 2.64 5 4 C5.33 -3.92 5.66 -11.84 6 -20 C36.69 -20 67.38 -20 99 -20 C99 60.19 99 140.38 99 223 C68.31 223 37.62 223 6 223 C5.67 214.75 5.34 206.5 5 198 C3.72125 199.258125 2.4425 200.51625 1.125 201.8125 C-14.95089687 216.21051764 -35.04449256 224.7229272 -56 229 C-57.65322266 229.33837891 -57.65322266 229.33837891 -59.33984375 229.68359375 C-92.57800664 235.41431149 -126.60700407 227.48562245 -154.125 208.25 C-182.55972774 187.6235451 -201.65343411 157.30000609 -207.40234375 122.56933594 C-208.61547266 114.12173325 -209.5632536 105.53269279 -209 97 C-208.95891113 96.35546875 -208.91782227 95.7109375 -208.87548828 95.046875 C-206.27335735 57.53628471 -190.01043071 24.97142799 -162 0 C-157.57362523 -3.70546682 -152.89972058 -6.95492958 -148 -10 C-147.42878418 -10.35642578 -146.85756836 -10.71285156 -146.26904297 -11.08007812 C-135.55936342 -17.60136323 -124.00626182 -21.54970352 -112 -25 C-110.75476562 -25.36351562 -109.50953125 -25.72703125 -108.2265625 -26.1015625 C-70.12372016 -35.10157162 -29.84131715 -24.43829315 0 0 Z M-97 67 C-97.58394531 67.58652344 -98.16789062 68.17304687 -98.76953125 68.77734375 C-107.74837221 78.438122 -111.71391129 91.60355327 -111.34375 104.60546875 C-109.74375912 120.4053787 -102.13879638 132.97302162 -90 143 C-75.00344434 153.51211347 -58.00442417 157.35661475 -39.87109375 154.68652344 C-26.10565733 152.0939003 -15.79887579 145.78159382 -6 136 C-5.42378906 135.43539063 -4.84757812 134.87078125 -4.25390625 134.2890625 C5.36291085 124.04777676 8.53857416 111.50186352 8.30859375 97.87890625 C7.17363844 83.61294899 0.07068606 72.06517981 -10.1484375 62.35546875 C-35.96356594 41.0314654 -73.69994782 42.92471503 -97 67 Z " fill="#CC2128" transform="translate(2199,1470)"/>
<path d="M0 0 C70.95 0 141.9 0 215 0 C215 81.51 215 163.02 215 247 C144.05 247 73.1 247 0 247 C0 165.49 0 83.98 0 0 Z " fill="#CC2229" transform="translate(90,1515)"/>
<path d="M0 0 C70.62 0 141.24 0 214 0 C215.1540971 99.25235042 215.1540971 99.25235042 215.10128021 127.33460999 C215.09513546 131.20492545 215.09529505 135.07523636 215.09460449 138.94555664 C215.08956178 149.92204182 215.07561005 160.89852149 215.0625 171.875 C215.041875 196.66625 215.02125 221.4575 215 247 C144.05 247 73.1 247 0 247 C0 165.49 0 83.98 0 0 Z " fill="#CC2128" transform="translate(90,1243)"/>
<path d="M0 0 C0.87197021 0.00553894 1.74394043 0.01107788 2.64233398 0.01678467 C31.5116173 0.23140899 59.0875904 5.41931576 80.45703125 26.44921875 C102.03313382 49.07853774 103.52583773 81.10026079 103.6640625 110.5 C103.68284762 113.06022717 103.70242596 115.62044863 103.7227478 118.18066406 C103.76353712 123.55336614 103.79859126 128.92605339 103.828125 134.29882812 C103.86516566 141.03567362 103.91193572 147.7723955 103.96247292 154.50915527 C104.01166007 161.08941768 104.05713203 167.66970372 104.1015625 174.25 C104.10960529 175.4349707 104.11764809 176.61994141 104.1259346 177.84082031 C104.28391673 202.06106184 104.25 226.27843763 104.25 250.5 C72.57 250.5 40.89 250.5 8.25 250.5 C8.21261719 240.42339844 8.17523437 230.34679688 8.13671875 219.96484375 C8.10642482 213.56183547 8.07538755 207.15884491 8.04101562 200.75585938 C7.98665701 190.60410208 7.93523882 180.45239392 7.90356445 170.30053711 C7.88047579 162.90494905 7.84695818 155.50949143 7.80129844 148.11400706 C7.77751158 144.2039095 7.75868822 140.29393997 7.75238609 136.3837719 C7.74626857 132.69090505 7.726034 128.99836515 7.69572449 125.30562019 C7.6829651 123.32972159 7.6844958 121.35374617 7.6867218 119.37780762 C7.54624747 105.76042879 5.96242509 91.44892445 -3.125 80.6875 C-3.99125 79.965625 -4.8575 79.24375 -5.75 78.5 C-6.25144531 78.07074219 -6.75289062 77.64148437 -7.26953125 77.19921875 C-14.96481656 71.08984704 -23.99711465 69.95627414 -33.5625 70.0625 C-34.5230127 70.07007324 -35.48352539 70.07764648 -36.47314453 70.08544922 C-47.67176174 70.34395142 -57.39564899 72.58636017 -65.75 80.5 C-66.56210938 81.25216797 -66.56210938 81.25216797 -67.390625 82.01953125 C-80.29201112 95.40960624 -79.91607033 116.61564356 -79.86352539 133.88769531 C-79.86367142 135.16716537 -79.86381744 136.44663544 -79.8639679 137.76487732 C-79.86425182 141.23307886 -79.85842123 144.70124497 -79.85139394 148.16943836 C-79.84509234 151.80890022 -79.84455126 155.44836312 -79.84336853 159.08782959 C-79.84027511 165.96167694 -79.83208885 172.83550816 -79.82201904 179.70934844 C-79.80869229 189.01069046 -79.80334191 198.31203698 -79.79751682 207.61338615 C-79.78814738 222.24226949 -79.76821526 236.87111881 -79.75 251.5 C-111.1 251.5 -142.45 251.5 -174.75 251.5 C-174.75 171.31 -174.75 91.12 -174.75 8.5 C-143.73 8.5 -112.71 8.5 -80.75 8.5 C-79.76 21.865 -79.76 21.865 -78.75 35.5 C-76.11 32.2 -73.47 28.9 -70.75 25.5 C-51.56166035 5.4407826 -26.7718093 -0.33480766 0 0 Z " fill="#CC2128" transform="translate(2517.75,1441.5)"/>
<path d="M0 0 C31.35 0 62.7 0 95 0 C95.03738281 9.920625 95.07476563 19.84125 95.11328125 30.0625 C95.14357842 36.36980532 95.17461808 42.67709271 95.20898438 48.984375 C95.26332356 58.98240481 95.31474241 68.98038494 95.34643555 78.97851562 C95.36953882 86.26241293 95.40307216 93.54617811 95.44870156 100.82997036 C95.4724691 104.68029622 95.49130492 108.53049257 95.49761391 112.38088989 C94.51009553 143.04447001 94.51009553 143.04447001 106.81640625 170.15234375 C116.57929054 179.48132207 130.14811749 181.08761011 143.12890625 181.03515625 C154.78762375 180.71122542 167.62620974 178.85174633 176 170 C186.61701695 156.64388964 186.16090532 138.50462509 186.11352539 122.2668457 C186.11324261 120.92533877 186.11340302 119.58383168 186.1139679 118.24232483 C186.11425234 114.63563934 186.10841319 111.02898778 186.10139394 107.42231011 C186.09510114 103.64003695 186.09455194 99.85776282 186.09336853 96.07548523 C186.09027257 88.92890194 186.08208279 81.78233413 186.07201904 74.63575763 C186.05870265 64.96749404 186.05334396 55.29922616 186.04751682 45.6309557 C186.03814157 30.42062556 186.01821112 15.21032807 186 0 C217.68 0 249.36 0 282 0 C282.1209091 41.44495352 282.1209091 41.44495352 282.14648438 58.88867188 C282.16424563 70.90588243 282.1850605 82.92302961 282.22631836 94.94018555 C282.25635939 103.69444393 282.27560767 112.44865062 282.28226548 121.20295912 C282.286153 125.83192924 282.29519361 130.46075157 282.31719017 135.089674 C282.33778851 139.46041249 282.34378747 143.83094449 282.33932304 148.20172691 C282.34013794 149.79264199 282.34596293 151.38356511 282.35761642 152.97443771 C282.52654763 177.25921477 277.53357966 202.6961248 260.24609375 220.82397461 C231.69780616 249.68571468 187.50235201 250.95520013 149.28881836 251.23681641 C107.88823639 251.40839112 59.93052691 248.90676112 28 219 C27.3503125 218.41734375 26.700625 217.8346875 26.03125 217.234375 C15.30059408 207.162619 8.44025733 193.55994331 4.1875 179.625 C3.99269043 179.00294678 3.79788086 178.38089355 3.59716797 177.73999023 C0.02463407 165.16372664 -0.29579563 151.93196038 -0.22705078 138.95507812 C-0.22648467 137.425644 -0.2268071 135.89620933 -0.22793579 134.36677551 C-0.22850253 130.27069684 -0.21686007 126.17473868 -0.20278788 122.07868767 C-0.19016552 117.77727772 -0.18910105 113.47586409 -0.18673706 109.17443848 C-0.18055573 101.05406378 -0.16419092 92.93374385 -0.14403808 84.81339312 C-0.11736204 73.82271083 -0.10667935 62.83201325 -0.09503365 51.84130669 C-0.07630736 34.56083022 -0.0364396 17.28046923 0 0 Z " fill="#CC2128" transform="translate(1368,1451)"/>
<path d="M0 0 C1.0938501 0.00563965 2.1877002 0.0112793 3.31469727 0.01708984 C19.15627623 0.25226284 35.56106628 3.15553314 49.875 10.3125 C49.875 35.7225 49.875 61.1325 49.875 87.3125 C41.955 83.8475 41.955 83.8475 33.875 80.3125 C21.49618432 76.92684101 11.31919083 75.84908048 -0.125 82.3125 C-7.54490998 87.03426089 -11.02050208 95.03670414 -13.125 103.3125 C-14.30119217 108.92263077 -14.34584754 114.47186511 -14.44140625 120.1796875 C-14.46005737 121.09758057 -14.4787085 122.01547363 -14.4979248 122.96118164 C-14.565907 126.36986225 -14.62625638 129.77869166 -14.6875 133.1875 C-14.831875 140.81875 -14.97625 148.45 -15.125 156.3125 C6.325 156.3125 27.775 156.3125 49.875 156.3125 C49.875 180.0725 49.875 203.8325 49.875 228.3125 C28.425 228.3125 6.975 228.3125 -15.125 228.3125 C-15.125 284.7425 -15.125 341.1725 -15.125 399.3125 C-45.815 399.3125 -76.505 399.3125 -108.125 399.3125 C-108.29606244 383.56253651 -108.46450136 367.81257133 -108.625 352.0625 C-108.63687725 350.89735241 -108.6487545 349.73220482 -108.66099167 348.53174973 C-108.97408567 317.64594382 -109.22424902 286.76255116 -109.1875 255.875 C-109.18664398 255.1500383 -109.18578796 254.4250766 -109.18490601 253.67814636 C-109.17412751 245.22288781 -109.15141344 236.76773454 -109.125 228.3125 C-119.685 228.3125 -130.245 228.3125 -141.125 228.3125 C-141.125 204.8825 -141.125 181.4525 -141.125 157.3125 C-130.565 157.3125 -120.005 157.3125 -109.125 157.3125 C-109.14820313 154.80140625 -109.17140625 152.2903125 -109.1953125 149.703125 C-109.49215103 109.44001264 -107.06310471 69.10975925 -79.125 37.3125 C-78.46242188 36.50683594 -77.79984375 35.70117188 -77.1171875 34.87109375 C-57.94498987 12.26770946 -29.47566829 -0.16078055 0 0 Z " fill="#CC2128" transform="translate(1809.125,1293.6875)"/>
<path d="M0 0 C31.35 0 62.7 0 95 0 C95 129.69 95 259.38 95 393 C63.98 393 32.96 393 1 393 C0.38253474 355.93285517 0.38253474 355.93285517 0.22927856 344.17080688 C0.21871756 343.36040969 0.20815656 342.55001249 0.19727553 341.71505781 C-0.1754047 312.52725306 -0.12860027 283.33748542 -0.10353777 254.14785005 C-0.09615898 245.30548815 -0.09486808 236.46312769 -0.09374207 227.62076316 C-0.09158741 211.86948714 -0.08502825 196.11821649 -0.07543945 180.36694336 C-0.06617 165.12377956 -0.05913672 149.88061725 -0.05493164 134.63745117 C-0.05453756 133.2129632 -0.05453756 133.2129632 -0.05413551 131.7596977 C-0.05282987 126.9925324 -0.05156631 122.22536708 -0.05032361 117.45820177 C-0.04006348 78.30546307 -0.02168868 39.15273436 0 0 Z " fill="#CC2128" transform="translate(1872,1300)"/>
<path d="M0 0 C2.84209143 1.37366419 4.99877526 2.71746188 7.30078125 4.88671875 C7.93701416 5.48427979 8.57324707 6.08184082 9.22875977 6.69750977 C9.91639404 7.35420654 10.60402832 8.01090332 11.3125 8.6875 C12.03945068 9.37577881 12.76640137 10.06405762 13.51538086 10.77319336 C21.14359888 18.04546495 28.57632372 25.5162459 35.97973633 33.01635742 C41.75007878 38.84870384 41.75007878 38.84870384 47.83984375 44.33984375 C54.72344251 50.22894064 60.93588546 56.88389392 67.30029297 63.32080078 C74.93511285 71.13816335 74.93511285 71.13816335 83 78.5 C89.84276081 84.31670797 95.99107813 90.9397153 102.30029297 97.32080078 C110.85110941 105.96695965 110.85110941 105.96695965 119.88085938 114.10351562 C125.75846816 119.3635692 131.18513056 125.13984381 136.72753906 130.74804688 C144.13891286 138.3300138 144.13891286 138.3300138 151.96875 145.46875 C158.81941656 151.29971567 164.98028405 157.92879827 171.30029297 164.32080078 C179.85110941 172.96695965 179.85110941 172.96695965 188.88085938 181.10351562 C194.75846816 186.3635692 200.18513056 192.13984381 205.72753906 197.74804688 C213.1305688 205.32282164 213.1305688 205.32282164 220.953125 212.453125 C227.25360516 217.81481378 232.93738191 223.87226322 238.75 229.75 C241.15853899 232.18520882 243.57043125 234.617025 245.984375 237.046875 C246.52922546 237.6000238 247.07407593 238.15317261 247.63543701 238.7230835 C249.79385184 240.89535761 251.90568321 242.93064828 254.37597656 244.74707031 C254.9119043 245.16053711 255.44783203 245.57400391 256 246 C256 246.66 256 247.32 256 248 C171.85 248 87.7 248 1 248 C-0.14867502 227.32384956 -0.14867502 227.32384956 -0.12025452 219.10372925 C-0.12110894 218.14913256 -0.12196337 217.19453587 -0.12284368 216.21101201 C-0.12445946 213.08840797 -0.11904275 209.9658606 -0.11352539 206.84326172 C-0.11324265 204.57462566 -0.11340296 202.30598952 -0.1139679 200.03735352 C-0.11425246 193.93530008 -0.10841122 187.83326668 -0.10139394 181.73121786 C-0.09510328 175.33311155 -0.09455211 168.93500468 -0.09336853 162.53689575 C-0.09062282 151.81642245 -0.08439498 141.09595781 -0.07543945 130.37548828 C-0.06623291 119.34293656 -0.05916802 108.31038683 -0.05493164 97.27783203 C-0.05466892 96.59555207 -0.05440619 95.91327211 -0.05413551 95.210317 C-0.05283029 91.78685204 -0.05156662 88.36338707 -0.05032361 84.93992209 C-0.03998982 56.62660974 -0.02233039 28.31330526 0 0 Z " fill="#CC2128" transform="translate(332,1514)"/>
<path d="M0 0 C84.15 0 168.3 0 255 0 C253.19883007 3.60233987 252.56272815 4.61824004 249.65625 6.96875 C245.93282165 10.12089421 242.46473 13.44666597 239.03125 16.90625 C238.50233154 17.43847168 237.97341309 17.97069336 237.4284668 18.51904297 C235.78366378 20.17741493 234.14139896 21.83825912 232.5 23.5 C220.39874904 35.7512222 220.39874904 35.7512222 214.12304688 41.09960938 C209.02896625 45.6594442 204.30331957 50.63715271 199.5 55.5 C187.39801899 67.7519613 187.39801899 67.7519613 183.03125 71.46875 C177.00641187 76.60334149 171.55997688 82.37402 166 88 C153.33776642 100.81254839 153.33776642 100.81254839 147.10546875 106.1171875 C142.01559498 110.66880003 137.29726237 115.64328498 132.5 120.5 C120.39874904 132.7512222 120.39874904 132.7512222 114.12304688 138.09960938 C109.02896625 142.6594442 104.30331957 147.63715271 99.5 152.5 C87.39874904 164.7512222 87.39874904 164.7512222 81.12304688 170.09960938 C76.02896625 174.6594442 71.30331957 179.63715271 66.5 184.5 C54.39801899 196.7519613 54.39801899 196.7519613 50.03125 200.46875 C44.00641187 205.60334149 38.55997688 211.37402 33 217 C19.93600921 230.2190749 19.93600921 230.2190749 13.66308594 235.55517578 C10.26428304 238.50792322 7.22201998 241.81737553 4.1015625 245.05859375 C2 247 2 247 0 247 C0 165.49 0 83.98 0 0 Z " fill="#CC2128" transform="translate(332,1243)"/>
<path d="M0 0 C0 200.64 0 401.28 0 608 C-192.06 608 -384.12 608 -582 608 C-582.165 548.6825 -582.33 489.365 -582.5 428.25 C-582.55220703 410.04875977 -582.60441406 391.84751953 -582.65820312 373.09472656 C-582.7346256 345.22553422 -582.7346256 345.22553422 -582.76621437 332.97173977 C-582.76867141 332.01886416 -582.77112845 331.06598856 -582.77365994 330.08423793 C-582.77616466 329.11284567 -582.77866938 328.1414534 -582.78125 327.140625 C-582.78384787 326.13865149 -582.78644575 325.13667797 -582.78912234 324.10434163 C-583.06810132 216.40297145 -583.05265209 108.70164823 -583 1 C-526.20356888 0.87100105 -469.40713459 0.74348391 -412.61069599 0.61781773 C-405.82680837 0.60280753 -399.04292078 0.58778419 -392.2590332 0.57275391 C-391.58423772 0.57125906 -390.90944225 0.56976422 -390.21419842 0.56822408 C-367.98992711 0.51898542 -345.76565805 0.46880827 -323.54138983 0.41819459 C-301.25357315 0.36745816 -278.96575424 0.31779735 -256.67793316 0.26903296 C-243.20853328 0.23953224 -229.73913471 0.20961686 -216.26973974 0.17794365 C-144.17946825 0.00959092 -72.09076069 0 0 0 Z M-394.01927066 13.45572209 C-406.62441495 13.49620693 -419.22956476 13.53476871 -431.8347168 13.57275391 C-433.32131383 13.5772344 -433.32131383 13.5772344 -434.83794313 13.58180541 C-439.81934668 13.5968109 -444.8007503 13.61179062 -449.78215396 13.62675762 C-489.85478204 13.74719106 -529.92739569 13.87191232 -570 14 C-570.07382906 97.67350167 -569.97178017 181.34623196 -569.78125 265.01953125 C-569.77874528 266.1229316 -569.77624056 267.22633196 -569.77365994 268.36316869 C-569.77120291 269.4455487 -569.76874587 270.52792872 -569.76621437 271.64310813 C-569.76408522 272.58118347 -569.76195607 273.51925881 -569.75976241 274.48576067 C-569.67656789 310.92801535 -569.58772554 347.37025584 -569.5 383.8125 C-569.335 453.504375 -569.17 523.19625 -569 595 C-385.52 595 -202.04 595 -13 595 C-13 402.94 -13 210.88 -13 13 C-140.00900248 13 -267.01181455 13.04723604 -394.01927066 13.45572209 Z " fill="#CC2128" transform="translate(626,1196)"/>
</svg>
