<?xml version="1.0" encoding="UTF-8"?>
<!DOCTYPE svg PUBLIC "-//W3C//DTD SVG 1.1//EN" "http://www.w3.org/Graphics/SVG/1.1/DTD/svg11.dtd">
<svg xmlns="http://www.w3.org/2000/svg" version="1.1" width="512px" height="512px" style="shape-rendering:geometricPrecision; text-rendering:geometricPrecision; image-rendering:optimizeQuality; fill-rule:evenodd; clip-rule:evenodd" xmlns:xlink="http://www.w3.org/1999/xlink">
<g><path style="opacity:0.992" fill="#e9e9e9" d="M -0.5,26.5 C 76.8333,26.5 154.167,26.5 231.5,26.5C 231.5,104.167 231.5,181.833 231.5,259.5C 154.167,259.5 76.8333,259.5 -0.5,259.5C -0.5,181.833 -0.5,104.167 -0.5,26.5 Z"/></g>
<g><path style="opacity:1" fill="#ec6467" d="M 220.5,248.5 C 150.335,249.499 80.002,249.833 9.5,249.5C 9.5,178.833 9.5,108.167 9.5,37.5C 80.1667,37.5 150.833,37.5 221.5,37.5C 221.833,108.002 221.499,178.335 220.5,248.5 Z"/></g>
<g><path style="opacity:1" fill="#ed252a" d="M 220.5,248.5 C 150.5,248.5 80.5,248.5 10.5,248.5C 10.5,178.5 10.5,108.5 10.5,38.5C 80.5,38.5 150.5,38.5 220.5,38.5C 220.5,108.5 220.5,178.5 220.5,248.5 Z"/></g>
<g><path style="opacity:1" fill="#eb888b" d="M 216.5,42.5 C 149.167,42.5 81.8333,42.5 14.5,42.5C 14.5,109.833 14.5,177.167 14.5,244.5C 13.5008,177.002 13.1675,109.335 13.5,41.5C 81.3354,41.1675 149.002,41.5008 216.5,42.5 Z"/></g>
<g><path style="opacity:1" fill="#e9e7e7" d="M 216.5,42.5 C 216.5,109.833 216.5,177.167 216.5,244.5C 149.167,244.5 81.8333,244.5 14.5,244.5C 14.5,177.167 14.5,109.833 14.5,42.5C 81.8333,42.5 149.167,42.5 216.5,42.5 Z"/></g>
<g><path style="opacity:1" fill="#e42126" d="M 162.5,61.5 C 159.833,62.1667 158.167,63.8333 157.5,66.5C 155.167,68.5 152.833,70.5 150.5,72.5C 144.228,76.937 138.728,82.2703 134,88.5C 130.331,95.8766 126.665,103.21 123,110.5C 119.676,113.794 116.176,114.127 112.5,111.5C 110.241,107.405 107.074,104.072 103,101.5C 100.709,97.4083 101.876,94.5749 106.5,93C 108.167,92.3333 109.833,92.3333 111.5,93C 113.291,95.414 114.957,97.914 116.5,100.5C 117.002,101.521 117.668,101.688 118.5,101C 132.667,81.5 149.5,64.6667 169,50.5C 169.273,55.4373 167.106,59.1039 162.5,61.5 Z"/></g>
<g><path style="opacity:1" fill="#721a19" d="M 162.5,61.5 C 161.167,63.5 159.5,65.1667 157.5,66.5C 158.167,63.8333 159.833,62.1667 162.5,61.5 Z"/></g>
<g><path style="opacity:1" fill="#ed2126" d="M 78.5,130.5 C 86.6841,130.174 94.6841,130.508 102.5,131.5C 92.4679,145.059 82.8013,158.892 73.5,173C 80.1997,189.268 86.1997,205.768 91.5,222.5C 83.5,222.5 75.5,222.5 67.5,222.5C 63.3551,207.898 58.5218,193.565 53,179.5C 51.1961,193.514 49.3627,207.514 47.5,221.5C 41.1667,221.5 34.8333,221.5 28.5,221.5C 28.5,220.167 28.5,218.833 28.5,217.5C 34.0656,172.774 40.0656,128.107 46.5,83.5C 53.1667,83.5 59.8333,83.5 66.5,83.5C 62.2006,109.76 58.7006,136.094 56,162.5C 63.3631,151.654 70.8631,140.987 78.5,130.5 Z"/></g>
<g><path style="opacity:1" fill="#ed2026" d="M 178.5,130.5 C 186.684,130.174 194.684,130.508 202.5,131.5C 193.089,145.313 183.422,158.98 173.5,172.5C 179.703,188.446 185.703,204.446 191.5,220.5C 184.018,221.492 176.352,221.825 168.5,221.5C 163.599,207.969 158.765,194.303 154,180.5C 151.22,193.988 149.053,207.655 147.5,221.5C 140.745,222.123 134.412,221.456 128.5,219.5C 134.283,174.137 140.283,128.804 146.5,83.5C 153.167,83.5 159.833,83.5 166.5,83.5C 162.595,109.824 159.095,136.157 156,162.5C 163.756,151.979 171.256,141.313 178.5,130.5 Z"/></g>
<g><path style="opacity:1" fill="#810d11" d="M 150.5,72.5 C 139.013,83.4536 130.513,96.4536 125,111.5C 122.088,114.544 118.588,115.711 114.5,115C 113.177,114.184 112.511,113.017 112.5,111.5C 116.176,114.127 119.676,113.794 123,110.5C 126.665,103.21 130.331,95.8766 134,88.5C 138.728,82.2703 144.228,76.937 150.5,72.5 Z"/></g>
<g><path style="opacity:1" fill="#eaa4a7" d="M 78.5,130.5 C 86.6758,129.179 95.0091,129.179 103.5,130.5C 103.376,131.107 103.043,131.44 102.5,131.5C 94.6841,130.508 86.6841,130.174 78.5,130.5 Z"/></g>
<g><path style="opacity:1" fill="#eaa2a5" d="M 178.5,130.5 C 186.676,129.179 195.009,129.179 203.5,130.5C 203.376,131.107 203.043,131.44 202.5,131.5C 194.684,130.508 186.684,130.174 178.5,130.5 Z"/></g>
<g><path style="opacity:1" fill="#ed2126" d="M 117.5,221.5 C 111.167,221.5 104.833,221.5 98.5,221.5C 98.5,220.167 98.5,218.833 98.5,217.5C 102.239,188.514 105.906,159.514 109.5,130.5C 116.167,130.5 122.833,130.5 129.5,130.5C 125.391,160.82 121.391,191.153 117.5,221.5 Z"/></g>
<g><path style="opacity:1" fill="#eb6569" d="M 28.5,217.5 C 28.5,218.833 28.5,220.167 28.5,221.5C 34.8333,221.5 41.1667,221.5 47.5,221.5C 41.021,222.491 34.3543,222.824 27.5,222.5C 27.2155,220.585 27.5489,218.919 28.5,217.5 Z"/></g>
<g><path style="opacity:1" fill="#eb666a" d="M 98.5,217.5 C 98.5,218.833 98.5,220.167 98.5,221.5C 104.833,221.5 111.167,221.5 117.5,221.5C 111.021,222.491 104.354,222.824 97.5,222.5C 97.2155,220.585 97.5489,218.919 98.5,217.5 Z"/></g>
<g><path style="opacity:1" fill="#eb696e" d="M 128.5,219.5 C 134.412,221.456 140.745,222.123 147.5,221.5C 141.021,222.491 134.354,222.824 127.5,222.5C 127.263,221.209 127.596,220.209 128.5,219.5 Z"/></g>
<g><path style="opacity:1" fill="#eb6b6f" d="M 191.5,220.5 C 192.043,220.56 192.376,220.893 192.5,221.5C 184.343,222.82 176.343,222.82 168.5,221.5C 176.352,221.825 184.018,221.492 191.5,220.5 Z"/></g>
</svg>
