<svg width="233" height="234" viewBox="0 0 233 234" fill="none" xmlns="http://www.w3.org/2000/svg">
<path opacity="0.992" fill-rule="evenodd" clip-rule="evenodd" d="M0.5 0.5C77.8333 0.5 155.167 0.5 232.5 0.5C232.5 78.167 232.5 155.833 232.5 233.5C155.167 233.5 77.8333 233.5 0.5 233.5C0.5 155.833 0.5 78.167 0.5 0.5Z" fill="#E9E9E9"/>
<path fill-rule="evenodd" clip-rule="evenodd" d="M221.5 222.5C151.335 223.499 81.002 223.833 10.5 223.5C10.5 152.833 10.5 82.167 10.5 11.5C81.1667 11.5 151.833 11.5 222.5 11.5C222.833 82.002 222.499 152.335 221.5 222.5Z" fill="#EC6467"/>
<path fill-rule="evenodd" clip-rule="evenodd" d="M221.5 222.5C151.5 222.5 81.5 222.5 11.5 222.5C11.5 152.5 11.5 82.5 11.5 12.5C81.5 12.5 151.5 12.5 221.5 12.5C221.5 82.5 221.5 152.5 221.5 222.5Z" fill="#ED252A"/>
<path fill-rule="evenodd" clip-rule="evenodd" d="M217.5 16.5C150.167 16.5 82.8333 16.5 15.5 16.5C15.5 83.833 15.5 151.167 15.5 218.5C14.5008 151.002 14.1675 83.335 14.5 15.5C82.3354 15.1675 150.002 15.5008 217.5 16.5Z" fill="#EB888B"/>
<path fill-rule="evenodd" clip-rule="evenodd" d="M217.5 16.5C217.5 83.833 217.5 151.167 217.5 218.5C150.167 218.5 82.8333 218.5 15.5 218.5C15.5 151.167 15.5 83.833 15.5 16.5C82.8333 16.5 150.167 16.5 217.5 16.5Z" fill="#E9E7E7"/>
<path fill-rule="evenodd" clip-rule="evenodd" d="M163.5 35.5C160.833 36.1667 159.167 37.8333 158.5 40.5C156.167 42.5 153.833 44.5 151.5 46.5C145.228 50.937 139.728 56.2703 135 62.5C131.331 69.8766 127.665 77.21 124 84.5C120.676 87.794 117.176 88.127 113.5 85.5C111.241 81.405 108.074 78.072 104 75.5C101.709 71.4083 102.876 68.5749 107.5 67C109.167 66.3333 110.833 66.3333 112.5 67C114.291 69.414 115.957 71.914 117.5 74.5C118.002 75.521 118.668 75.688 119.5 75C133.667 55.5 150.5 38.6667 170 24.5C170.273 29.4373 168.106 33.1039 163.5 35.5Z" fill="#E42126"/>
<path fill-rule="evenodd" clip-rule="evenodd" d="M163.5 35.5C162.167 37.5 160.5 39.1667 158.5 40.5C159.167 37.8333 160.833 36.1667 163.5 35.5Z" fill="#721A19"/>
<path fill-rule="evenodd" clip-rule="evenodd" d="M79.5 104.5C87.6841 104.174 95.6841 104.508 103.5 105.5C93.4679 119.059 83.8013 132.892 74.5 147C81.1997 163.268 87.1997 179.768 92.5 196.5C84.5 196.5 76.5 196.5 68.5 196.5C64.3551 181.898 59.5218 167.565 54 153.5C52.1961 167.514 50.3627 181.514 48.5 195.5C42.1667 195.5 35.8333 195.5 29.5 195.5C29.5 194.167 29.5 192.833 29.5 191.5C35.0656 146.774 41.0656 102.107 47.5 57.5C54.1667 57.5 60.8333 57.5 67.5 57.5C63.2006 83.76 59.7006 110.094 57 136.5C64.3631 125.654 71.8631 114.987 79.5 104.5Z" fill="#ED2126"/>
<path fill-rule="evenodd" clip-rule="evenodd" d="M179.5 104.5C187.684 104.174 195.684 104.508 203.5 105.5C194.089 119.313 184.422 132.98 174.5 146.5C180.703 162.446 186.703 178.446 192.5 194.5C185.018 195.492 177.352 195.825 169.5 195.5C164.599 181.969 159.765 168.303 155 154.5C152.22 167.988 150.053 181.655 148.5 195.5C141.745 196.123 135.412 195.456 129.5 193.5C135.283 148.137 141.283 102.804 147.5 57.5C154.167 57.5 160.833 57.5 167.5 57.5C163.595 83.824 160.095 110.157 157 136.5C164.756 125.979 172.256 115.313 179.5 104.5Z" fill="#ED2026"/>
<path fill-rule="evenodd" clip-rule="evenodd" d="M151.5 46.5C140.013 57.4536 131.513 70.4536 126 85.5C123.088 88.544 119.588 89.711 115.5 89C114.177 88.184 113.511 87.017 113.5 85.5C117.176 88.127 120.676 87.794 124 84.5C127.665 77.21 131.331 69.8766 135 62.5C139.728 56.2703 145.228 50.937 151.5 46.5Z" fill="#810D11"/>
<path fill-rule="evenodd" clip-rule="evenodd" d="M79.5 104.5C87.6758 103.179 96.0091 103.179 104.5 104.5C104.376 105.107 104.043 105.44 103.5 105.5C95.6841 104.508 87.6841 104.174 79.5 104.5Z" fill="#EAA4A7"/>
<path fill-rule="evenodd" clip-rule="evenodd" d="M179.5 104.5C187.676 103.179 196.009 103.179 204.5 104.5C204.376 105.107 204.043 105.44 203.5 105.5C195.684 104.508 187.684 104.174 179.5 104.5Z" fill="#EAA2A5"/>
<path fill-rule="evenodd" clip-rule="evenodd" d="M118.5 195.5C112.167 195.5 105.833 195.5 99.5 195.5C99.5 194.167 99.5 192.833 99.5 191.5C103.239 162.514 106.906 133.514 110.5 104.5C117.167 104.5 123.833 104.5 130.5 104.5C126.391 134.82 122.391 165.153 118.5 195.5Z" fill="#ED2126"/>
<path fill-rule="evenodd" clip-rule="evenodd" d="M29.5 191.5C29.5 192.833 29.5 194.167 29.5 195.5C35.8333 195.5 42.1667 195.5 48.5 195.5C42.021 196.491 35.3543 196.824 28.5 196.5C28.2155 194.585 28.5489 192.919 29.5 191.5Z" fill="#EB6569"/>
<path fill-rule="evenodd" clip-rule="evenodd" d="M99.5 191.5C99.5 192.833 99.5 194.167 99.5 195.5C105.833 195.5 112.167 195.5 118.5 195.5C112.021 196.491 105.354 196.824 98.5 196.5C98.2155 194.585 98.5489 192.919 99.5 191.5Z" fill="#EB666A"/>
<path fill-rule="evenodd" clip-rule="evenodd" d="M129.5 193.5C135.412 195.456 141.745 196.123 148.5 195.5C142.021 196.491 135.354 196.824 128.5 196.5C128.263 195.209 128.596 194.209 129.5 193.5Z" fill="#EB696E"/>
<path fill-rule="evenodd" clip-rule="evenodd" d="M192.5 194.5C193.043 194.56 193.376 194.893 193.5 195.5C185.343 196.82 177.343 196.82 169.5 195.5C177.352 195.825 185.018 195.492 192.5 194.5Z" fill="#EB6B6F"/>
</svg>
