<?xml version="1.0" encoding="UTF-8"?>
<svg version="1.1" xmlns="http://www.w3.org/2000/svg" width="1200" height="630">
<path d="M0 0 C396 0 792 0 1200 0 C1200 207.9 1200 415.8 1200 630 C804 630 408 630 0 630 C0 422.1 0 214.2 0 0 Z " fill="#FEFEFE" transform="translate(0,0)"/>
<path d="M0 0 C14.67544794 12.40604877 24.79629166 26.87809523 27.65234375 46.2421875 C27.88790665 50.44876979 27.8832174 54.65460855 27.90234375 58.8671875 C27.93328125 60.53587891 27.93328125 60.53587891 27.96484375 62.23828125 C28.0411865 78.63288698 22.73539836 93.3594995 12.65234375 106.2421875 C11.86923828 107.27279297 11.86923828 107.27279297 11.0703125 108.32421875 C-1.39238572 123.69791218 -20.9934557 132.07318227 -40.34765625 134.2421875 C-64.15383478 135.51066682 -85.18287103 130.74774214 -103.53515625 114.9296875 C-118.38528065 100.94895329 -127.14626909 82.66077247 -127.81860352 62.16259766 C-128.04579624 39.81370701 -120.81288688 21.33492403 -105.3359375 5.13671875 C-77.55478098 -21.41200199 -30.2573958 -23.54834034 0 0 Z " fill="#02403C" transform="translate(393.34765625,299.7578125)"/>
<path d="M0 0 C13.56997538 11.47152558 25.14598661 26.07024574 27.65234375 44.2421875 C29.37474267 67.01004118 27.08341552 87.80422378 12.65234375 106.2421875 C11.86923828 107.27279297 11.86923828 107.27279297 11.0703125 108.32421875 C-1.08538688 123.31920558 -20.29276333 131.93148118 -39.23413086 134.0612793 C-60.70231549 135.89885869 -82.30371584 132.14570338 -99.34765625 118.2421875 C-100.18941406 117.56285156 -101.03117188 116.88351562 -101.8984375 116.18359375 C-116.99266116 103.33403461 -125.76264417 85.44262971 -127.57519531 65.77294922 C-128.84001719 45.1261242 -123.07035213 25.22922258 -109.390625 9.40625 C-81.45654163 -20.1835821 -32.61580147 -25.38381025 0 0 Z " fill="#02403C" transform="translate(766.34765625,299.7578125)"/>
<path d="M0 0 C1.0209375 -0.05800781 2.041875 -0.11601562 3.09375 -0.17578125 C7.3386692 -0.24671178 10.56900546 -0.25927296 14.15527344 2.16894531 C16.23363844 4.21723268 18.05767518 6.3430477 19.875 8.625 C21.04659018 9.960719 22.22228601 11.2928496 23.40234375 12.62109375 C24.25675049 13.61278564 24.25675049 13.61278564 25.12841797 14.62451172 C28.13536416 18.06858736 31.29196401 21.37041767 34.4375 24.6875 C35.85051027 26.18335778 37.26326585 27.67945617 38.67578125 29.17578125 C39.73079834 30.29267334 39.73079834 30.29267334 40.80712891 31.43212891 C48.70619018 39.80867771 56.5435116 48.24345232 64.33911133 56.71630859 C66.96999927 59.57285029 69.61402255 62.41583648 72.27734375 65.2421875 C78.91437032 72.29247505 85.406398 79.43143327 91.70092773 86.79052734 C92.20567627 87.38043457 92.7104248 87.9703418 93.23046875 88.578125 C93.67028076 89.09536133 94.11009277 89.61259766 94.56323242 90.14550781 C95.94352423 91.70228585 97.39869641 93.15961011 98.875 94.625 C98.87055878 93.47685822 98.86611755 92.32871643 98.86154175 91.14578247 C98.82106209 80.34476704 98.79104761 69.54376692 98.77137566 58.74269295 C98.76092226 53.18926974 98.74673477 47.63590759 98.72412109 42.08251953 C98.70244808 36.72683992 98.6904431 31.37121918 98.68524551 26.01549911 C98.68153977 23.96848498 98.67430376 21.9214742 98.66353989 19.87448502 C98.64909858 17.01537267 98.64701896 14.15650601 98.64794922 11.29736328 C98.64075867 10.44428589 98.63356812 9.5912085 98.62615967 8.71228027 C98.64689568 2.85310432 98.64689568 2.85310432 100.875 0.625 C103.73242188 0.36621094 103.73242188 0.36621094 107.34375 0.359375 C108.63667969 0.35679687 109.92960938 0.35421875 111.26171875 0.3515625 C111.93638184 0.35575195 112.61104492 0.35994141 113.30615234 0.36425781 C115.36716157 0.3749593 117.42729919 0.36436057 119.48828125 0.3515625 C120.78121094 0.35414063 122.07414063 0.35671875 123.40625 0.359375 C124.59798828 0.36163086 125.78972656 0.36388672 127.01757812 0.36621094 C129.875 0.625 129.875 0.625 131.875 2.625 C132.12668228 5.08317566 132.12668228 5.08317566 132.12896729 8.24291992 C132.13742676 10.03492325 132.13742676 10.03492325 132.14605713 11.86312866 C132.13998444 13.83933701 132.13998444 13.83933701 132.13378906 15.85546875 C132.13649795 17.25151757 132.14005831 18.64756495 132.14440918 20.04360962 C132.15354765 23.8410605 132.14998297 27.63840303 132.14365101 31.43585587 C132.13859853 35.40409901 132.14328036 39.37233268 132.14642334 43.34057617 C132.15006519 50.00538809 132.14525817 56.67015573 132.13574219 63.33496094 C132.1248572 71.0478085 132.12838263 78.76055034 132.139395 86.47339535 C132.14846166 93.08743414 132.1497562 99.70144105 132.14451766 106.31548405 C132.14139453 110.26929012 132.14099798 114.22304646 132.14759064 118.17684937 C132.15335448 121.89340557 132.14938499 125.60982504 132.13780212 129.32636642 C132.1338822 131.3465328 132.13984937 133.3667107 132.14605713 135.38687134 C132.14041748 136.58154022 132.13477783 137.77620911 132.12896729 139.00708008 C132.12783621 140.57115349 132.12783621 140.57115349 132.12668228 142.16682434 C131.875 144.625 131.875 144.625 129.875 146.625 C126.00406806 147.21588865 122.09807507 147.18103042 118.1875 147.25 C116.57198242 147.33701172 116.57198242 147.33701172 114.92382812 147.42578125 C107.11194944 147.5503115 107.11194944 147.5503115 103.79931641 145.07226562 C102.00446099 143.00805604 100.44821385 140.86145294 98.875 138.625 C97.70489334 137.31795041 96.51190119 136.03102595 95.296875 134.765625 C94.69931396 134.13132568 94.10175293 133.49702637 93.48608398 132.84350586 C92.87192627 132.19389893 92.25776855 131.54429199 91.625 130.875 C86.26499602 125.18259267 80.952403 119.45307629 75.6796875 113.6796875 C71.8630608 109.51134862 67.99658193 105.38949232 64.13647461 101.26147461 C59.8767198 96.70405439 55.63767835 92.12825255 51.41430664 87.53710938 C48.77112619 84.66714588 46.11419396 81.81141566 43.4375 78.97265625 C42.84453125 78.34230469 42.2515625 77.71195312 41.640625 77.0625 C40.52865566 75.8816476 39.41439095 74.7029484 38.296875 73.52734375 C34.27551099 69.25220434 30.44799091 64.8246795 26.63671875 60.36303711 C26.08157593 59.71421318 25.52643311 59.06538925 24.95446777 58.39690399 C23.59406573 56.80676488 22.23445324 55.21595035 20.875 53.625 C20.86691315 54.76061371 20.85882629 55.89622742 20.85049438 57.06625366 C20.77313006 67.74965336 20.68541569 78.43292417 20.58747292 89.11615562 C20.53745044 94.60898674 20.49112107 100.10179805 20.453125 105.59472656 C20.41634721 110.89214611 20.37000806 116.18940239 20.31693649 121.48668289 C20.29835251 123.51132987 20.28325949 125.53601189 20.27165604 127.56071091 C20.25486187 130.38878988 20.22584394 133.21649162 20.19384766 136.04443359 C20.19168747 136.88816025 20.18952728 137.7318869 20.18730164 138.60118103 C20.10310432 144.39689568 20.10310432 144.39689568 17.875 146.625 C15.01757812 146.88378906 15.01757812 146.88378906 11.40625 146.890625 C10.11332031 146.89320313 8.82039063 146.89578125 7.48828125 146.8984375 C6.81361816 146.89424805 6.13895508 146.89005859 5.44384766 146.88574219 C3.38283843 146.8750407 1.32270081 146.88563943 -0.73828125 146.8984375 C-2.03121094 146.89585937 -3.32414062 146.89328125 -4.65625 146.890625 C-5.84798828 146.88836914 -7.03972656 146.88611328 -8.26757812 146.88378906 C-11.125 146.625 -11.125 146.625 -13.125 144.625 C-13.37668228 142.16682434 -13.37668228 142.16682434 -13.37896729 139.00708008 C-13.38460693 137.81241119 -13.39024658 136.61774231 -13.39605713 135.38687134 C-13.39200867 134.06939911 -13.38796021 132.75192688 -13.38378906 131.39453125 C-13.38649795 129.99848243 -13.39005831 128.60243505 -13.39440918 127.20639038 C-13.40354765 123.4089395 -13.39998297 119.61159697 -13.39365101 115.81414413 C-13.38859853 111.84590099 -13.39328036 107.87766732 -13.39642334 103.90942383 C-13.40006519 97.24461191 -13.39525817 90.57984427 -13.38574219 83.91503906 C-13.3748572 76.2021915 -13.37838263 68.48944966 -13.389395 60.77660465 C-13.39846166 54.16256586 -13.3997562 47.54855895 -13.39451766 40.93451595 C-13.39139453 36.98070988 -13.39099798 33.02695354 -13.39759064 29.07315063 C-13.40335448 25.35659443 -13.39938499 21.64017496 -13.38780212 17.92363358 C-13.3838822 15.9034672 -13.38984937 13.8832893 -13.39605713 11.86312866 C-13.38759766 10.07112534 -13.38759766 10.07112534 -13.37896729 8.24291992 C-13.37821323 7.20020432 -13.37745918 6.15748871 -13.37668228 5.08317566 C-12.69593796 -1.56564014 -5.10891318 0.0946095 0 0 Z " fill="#02413D" transform="translate(471.125,285.375)"/>
<path d="M0 0 C1.87171875 -0.00386719 1.87171875 -0.00386719 3.78125 -0.0078125 C5.74578125 0.00378906 5.74578125 0.00378906 7.75 0.015625 C9.0596875 0.00789063 10.369375 0.00015625 11.71875 -0.0078125 C12.9665625 -0.00523437 14.214375 -0.00265625 15.5 0 C16.64984375 0.00225586 17.7996875 0.00451172 18.984375 0.00683594 C21.75 0.265625 21.75 0.265625 23.75 2.265625 C24.0284729 4.93582153 24.0284729 4.93582153 24.06884766 8.36767578 C24.08871735 9.64885284 24.10858704 10.93002991 24.12905884 12.25003052 C24.14093617 13.65366442 24.15259898 15.05730016 24.1640625 16.4609375 C24.18276692 17.89298631 24.20233978 19.32502402 24.2227478 20.75704956 C24.27415206 24.52827417 24.31373311 28.29953455 24.35089111 32.07092285 C24.390879 35.91846626 24.44199504 39.76585983 24.4921875 43.61328125 C24.58904487 51.16395983 24.67341795 58.71471068 24.75 66.265625 C25.55988373 65.45352066 26.36976746 64.64141632 27.20419312 63.80470276 C34.82392695 56.16472787 42.44627663 48.52737156 50.07121849 40.89259434 C53.99151486 36.9670716 57.91087241 33.04062084 61.828125 29.11206055 C65.60604307 25.32330489 69.3863739 21.5369724 73.16841507 17.75233269 C74.61342832 16.30546677 76.0575588 14.85771869 77.5008049 13.40909004 C79.51694865 11.38572436 81.53616241 9.36547215 83.55615234 7.34594727 C84.45706352 6.43964317 84.45706352 6.43964317 85.37617493 5.51502991 C89.73289027 1.16921024 91.44109616 0.15169856 97.61782837 0.15232849 C98.41683563 0.15748978 99.2158429 0.16265106 100.0390625 0.16796875 C101.26669815 0.17009117 101.26669815 0.17009117 102.51913452 0.17225647 C105.13779325 0.1778621 107.75636704 0.19041552 110.375 0.203125 C112.14843627 0.20813928 113.92187387 0.21270231 115.6953125 0.21679688 C120.04690782 0.22783336 124.3984395 0.24510175 128.75 0.265625 C129.08 1.255625 129.41 2.245625 129.75 3.265625 C128.75572205 4.86584473 128.75572205 4.86584473 127.09350586 6.66601562 C126.4406662 7.37411377 125.78782654 8.08221191 125.11520386 8.81176758 C120.22140498 13.88899789 115.2515035 18.88476371 110.25390625 23.859375 C109.05299797 25.05841454 107.852313 26.25767777 106.65184021 27.45715332 C103.51577715 30.58942708 100.37672111 33.7186841 97.23699951 36.84729004 C94.02399999 40.0499977 90.81388529 43.25559408 87.60351562 46.4609375 C81.32180629 52.73197289 75.03692642 58.99982023 68.75 65.265625 C73.15984947 74.43844934 81.28989049 82.07627613 87.95043945 89.71606445 C91.11331861 93.35113902 94.21777549 97.0199359 97.25 100.765625 C101.32460728 105.79545157 105.54822909 110.68248599 109.79931641 115.56274414 C113.90488123 120.27892017 117.9680873 125.02812868 121.98095703 129.82348633 C125.0948033 133.5353445 128.32809884 137.10637358 131.703125 140.58203125 C132.75 142.265625 132.75 142.265625 132.31542969 144.37084961 C132.03554199 145.30876343 132.03554199 145.30876343 131.75 146.265625 C126.48492167 146.46448037 121.2220607 146.60905262 115.95410156 146.70507812 C114.16530251 146.74513069 112.37676243 146.79959314 110.58886719 146.86914062 C95.78198243 147.43038263 95.78198243 147.43038263 90.89550781 144.62939453 C88.86540948 142.62244064 87.30803022 140.65079913 85.75 138.265625 C84.98171875 137.37617188 84.2134375 136.48671875 83.421875 135.5703125 C82.78765625 134.76851562 82.1534375 133.96671875 81.5 133.140625 C78.03006756 128.82407674 74.48882802 124.58632098 70.875 120.390625 C69.85150633 119.20056914 68.82806897 118.01046484 67.8046875 116.8203125 C67.29776367 116.23088867 66.79083984 115.64146484 66.26855469 115.03417969 C59.28050075 106.89568086 52.38935061 98.69322477 45.75 90.265625 C42.49297483 91.68780815 40.39001026 93.41094466 37.9296875 95.9609375 C37.22972656 96.67636719 36.52976563 97.39179688 35.80859375 98.12890625 C35.08800781 98.87527344 34.36742187 99.62164062 33.625 100.390625 C32.18954122 101.87689648 30.74966007 103.35891378 29.3046875 104.8359375 C28.67030762 105.49352051 28.03592773 106.15110352 27.38232422 106.82861328 C25.75 108.265625 25.75 108.265625 23.75 108.265625 C23.76571045 109.88573486 23.76571045 109.88573486 23.78173828 111.53857422 C23.81788194 115.53788959 23.84087984 119.53719046 23.85986328 123.53662109 C23.86993376 125.26906765 23.88359089 127.00149716 23.90087891 128.73388672 C23.92508162 131.22107139 23.93647239 133.70803175 23.9453125 136.1953125 C23.96079636 137.36101273 23.96079636 137.36101273 23.97659302 138.55026245 C23.97699271 140.45687993 23.8723214 142.36293536 23.75 144.265625 C20.99055395 147.02507105 19.35763302 146.52368177 15.5 146.53125 C13.62828125 146.53511719 13.62828125 146.53511719 11.71875 146.5390625 C10.4090625 146.53132812 9.099375 146.52359375 7.75 146.515625 C6.4403125 146.52335938 5.130625 146.53109375 3.78125 146.5390625 C2.5334375 146.53648437 1.285625 146.53390625 0 146.53125 C-1.72476563 146.52786621 -1.72476563 146.52786621 -3.484375 146.52441406 C-6.25 146.265625 -6.25 146.265625 -8.25 144.265625 C-8.50168228 141.80744934 -8.50168228 141.80744934 -8.50396729 138.64770508 C-8.50960693 137.45303619 -8.51524658 136.25836731 -8.52105713 135.02749634 C-8.51700867 133.71002411 -8.51296021 132.39255188 -8.50878906 131.03515625 C-8.51149795 129.63910743 -8.51505831 128.24306005 -8.51940918 126.84701538 C-8.52854765 123.0495645 -8.52498297 119.25222197 -8.51865101 115.45476913 C-8.51359853 111.48652599 -8.51828036 107.51829232 -8.52142334 103.55004883 C-8.52506519 96.88523691 -8.52025817 90.22046927 -8.51074219 83.55566406 C-8.4998572 75.8428165 -8.50338263 68.13007466 -8.514395 60.41722965 C-8.52346166 53.80319086 -8.5247562 47.18918395 -8.51951766 40.57514095 C-8.51639453 36.62133488 -8.51599798 32.66757854 -8.52259064 28.71377563 C-8.52835448 24.99721943 -8.52438499 21.28079996 -8.51280212 17.56425858 C-8.5088822 15.5440922 -8.51484937 13.5239143 -8.52105713 11.50375366 C-8.51259766 9.71175034 -8.51259766 9.71175034 -8.50396729 7.88354492 C-8.50321323 6.84082932 -8.50245918 5.79811371 -8.50168228 4.72380066 C-7.95708002 -0.59531844 -4.48079147 0.00879079 0 0 Z " fill="#02403C" transform="translate(123.25,285.734375)"/>
<path d="M0 0 C1.41703593 1.03405325 2.81432903 2.09586892 4.1875 3.1875 C4.80238281 3.66574219 5.41726563 4.14398438 6.05078125 4.63671875 C13.40713588 11.11226817 18.70097421 21.85496662 19.34863281 31.6159668 C19.39449613 34.36909926 19.42274591 37.12151811 19.4375 39.875 C19.458125 40.81794922 19.47875 41.76089844 19.5 42.73242188 C19.57013211 55.48769906 15.17114013 66.02347773 6.5625 75.4375 C-4.21898928 85.66025567 -17.62215046 87.88125025 -31.8515625 87.55859375 C-43.52844676 86.94019864 -53.93987267 80.37096583 -61.87890625 72.01171875 C-70.8179875 60.52413053 -73.13515532 46.32521576 -71.8125 32.1875 C-70.15894125 20.66680381 -64.73184903 9.91168874 -55.6640625 2.41015625 C-39.27965001 -9.81354581 -17.50568999 -10.91910095 0 0 Z " fill="#FDFDFD" transform="translate(369.8125,318.8125)"/>
<path d="M0 0 C3.22563535 1.76545026 6.12284656 3.71274649 9 6 C9.61488281 6.47824219 10.22976563 6.95648438 10.86328125 7.44921875 C17.65558063 13.42824947 23.54863188 24.25820165 24.16113281 33.40673828 C24.20695018 36.31294461 24.23528335 39.2184626 24.25 42.125 C24.270625 43.12015625 24.29125 44.1153125 24.3125 45.140625 C24.38013167 58.09209047 20.13562234 68.66977682 11.375 78.25 C0.59351072 88.47275567 -12.80965046 90.69375025 -27.0390625 90.37109375 C-37.89716859 89.79606024 -47.03992886 84.15653084 -55 77 C-65.01424814 65.79446583 -67.41774954 52.54730331 -67.2734375 37.9140625 C-66.47470548 26.48078412 -61.84842532 15.83844507 -53.7109375 7.71484375 C-38.95620428 -4.81496939 -17.7505924 -8.82067899 0 0 Z " fill="#FDFDFD" transform="translate(738,316)"/>
<path d="M0 0 C1.02968399 -0.0098568 1.02968399 -0.0098568 2.08016968 -0.01991272 C4.3678193 -0.03972348 6.65540239 -0.05133769 8.94311523 -0.0612793 C9.72760481 -0.06535482 10.51209438 -0.06943035 11.32035637 -0.07362938 C15.4884706 -0.0945428 19.65655159 -0.10881036 23.82470703 -0.11816406 C28.09100123 -0.12912029 32.35675802 -0.16337648 36.62286472 -0.20333576 C39.93219318 -0.22977779 43.24140038 -0.23788095 46.55082512 -0.24144554 C48.12018315 -0.24625653 49.68953786 -0.25770933 51.25879097 -0.27648354 C69.55826921 -0.48144899 88.96398167 3.06144663 102.70092773 16.23950195 C115.30882367 30.29234776 117.165145 44.05520662 116.43920898 62.17700195 C116.10104867 65.66989837 115.50015775 68.83652897 114.43920898 72.17700195 C114.18268555 73.00071289 113.92616211 73.82442383 113.66186523 74.6730957 C109.3281824 86.89296533 100.60548939 95.24430116 89.18920898 101.05200195 C83.14191681 103.65593513 76.9945308 104.31732994 70.43920898 104.17700195 C67.80132862 101.53912159 68.96107274 94.46243189 68.87670898 90.92700195 C68.81418945 89.78102539 68.75166992 88.63504883 68.68725586 87.4543457 C68.52747721 79.1361722 68.52747721 79.1361722 71.1940918 76.33081055 C73.23010237 75.07565369 75.24863574 74.12568201 77.43920898 73.17700195 C81.90919497 68.70701597 82.69655118 62.33067076 82.76147461 56.21606445 C82.75825195 55.54317383 82.7550293 54.8702832 82.75170898 54.17700195 C82.76782227 53.50411133 82.78393555 52.8312207 82.80053711 52.13793945 C82.80658946 45.86770806 81.20523879 41.41051023 77.31420898 36.48950195 C70.56880268 31.06384906 63.28403746 29.07684212 54.75878906 28.98754883 C54.09656845 28.97925552 53.43434784 28.97096222 52.75205994 28.9624176 C51.31924085 28.94506663 49.88639418 28.92988645 48.45353127 28.91664124 C46.18872907 28.89556574 43.92406661 28.86855059 41.65934753 28.83996582 C36.03861468 28.77023521 30.4177831 28.71061576 24.79693604 28.65093994 C20.04013136 28.60008721 15.28340462 28.54531005 10.5267086 28.48512268 C8.29035605 28.45847969 6.05399641 28.43771263 3.81758118 28.41711426 C2.4555323 28.40052011 1.09348675 28.38364906 -0.26855469 28.36645508 C-2.05914558 28.34766296 -2.05914558 28.34766296 -3.88591003 28.32849121 C-6.56079102 28.17700195 -6.56079102 28.17700195 -7.56079102 27.17700195 C-7.66050887 25.26241914 -7.6915969 23.34417878 -7.69360352 21.42700195 C-7.69489258 20.26168945 -7.69618164 19.09637695 -7.69750977 17.89575195 C-7.69364258 16.66856445 -7.68977539 15.44137695 -7.68579102 14.17700195 C-7.6896582 12.94981445 -7.69352539 11.72262695 -7.69750977 10.45825195 C-7.6962207 9.29293945 -7.69493164 8.12762695 -7.69360352 6.92700195 C-7.69247559 5.8493457 -7.69134766 4.77168945 -7.69018555 3.66137695 C-7.43429414 -1.25173811 -4.24969009 0.03356568 0 0 Z " fill="#02413D" transform="translate(862.560791015625,285.822998046875)"/>
<path d="M0 0 C5.094375 -0.020625 10.18875 -0.04125 15.4375 -0.0625 C17.04681396 -0.071604 18.65612793 -0.08070801 20.31420898 -0.09008789 C21.57048096 -0.09258545 22.82675293 -0.09508301 24.12109375 -0.09765625 C26.06133423 -0.10551147 26.06133423 -0.10551147 28.04077148 -0.11352539 C31 0 31 0 32 1 C32.08865208 3.8843382 32.11521296 6.74462158 32.09765625 9.62890625 C32.0962413 10.49313705 32.09482635 11.35736786 32.09336853 12.24778748 C32.08775239 15.01939292 32.07519719 17.7909188 32.0625 20.5625 C32.05748708 22.4368478 32.05292381 24.31119685 32.04882812 26.18554688 C32.03777772 30.79039544 32.0205023 35.39518421 32 40 C33.53708618 39.99214478 33.53708618 39.99214478 35.10522461 39.98413086 C38.89395276 39.96608031 42.68267709 39.9545678 46.47143555 39.94506836 C48.11369464 39.94002826 49.75594923 39.93319622 51.39819336 39.92456055 C53.75375479 39.91248074 56.10925709 39.90676861 58.46484375 39.90234375 C59.20339096 39.89718246 59.94193817 39.89202118 60.7028656 39.88670349 C62.46898088 39.8865075 64.23497146 39.93805281 66 40 C67 41 67 41 67.11352539 43.40844727 C67.10567017 44.97163696 67.10567017 44.97163696 67.09765625 46.56640625 C67.09515869 47.57904541 67.09266113 48.59168457 67.09008789 49.63500977 C67.08098389 50.93108154 67.07187988 52.22715332 67.0625 53.5625 C67.041875 57.666875 67.02125 61.77125 67 66 C55.45 66 43.9 66 32 66 C32.02320313 68.86429687 32.04640625 71.72859375 32.0703125 74.6796875 C32.08589922 77.44644731 32.09804954 80.21320228 32.10986328 82.97998047 C32.11993582 84.90643494 32.13359443 86.83287408 32.15087891 88.75927734 C32.17507241 91.52445252 32.18647036 94.289426 32.1953125 97.0546875 C32.20563507 97.9193161 32.21595764 98.7839447 32.22659302 99.67477417 C32.22699106 101.78453521 32.12265243 103.89380718 32 106 C30 108 30 108 27.12670898 108.24291992 C25.32955444 108.23675659 25.32955444 108.23675659 23.49609375 108.23046875 C22.19865234 108.22853516 20.90121094 108.22660156 19.56445312 108.22460938 C18.88777588 108.21840576 18.21109863 108.21220215 17.51391602 108.20581055 C15.44209529 108.18754052 13.37072103 108.18530095 11.29882812 108.18554688 C1.14008257 108.14008257 1.14008257 108.14008257 0 107 C-0.16029688 104.04470496 -0.25957328 101.11017543 -0.31640625 98.15234375 C-0.33718735 97.2659169 -0.35796844 96.37949005 -0.37937927 95.46620178 C-0.444974 92.623383 -0.50380552 89.78046883 -0.5625 86.9375 C-0.6056758 85.01496394 -0.64928978 83.09243766 -0.69335938 81.16992188 C-0.80149336 76.44671107 -0.90049247 71.72343208 -1 67 C-12.55 66.67 -24.1 66.34 -36 66 C-36.020625 61.895625 -36.04125 57.79125 -36.0625 53.5625 C-36.071604 52.26642822 -36.08070801 50.97035645 -36.09008789 49.63500977 C-36.09258545 48.62237061 -36.09508301 47.60973145 -36.09765625 46.56640625 C-36.10289307 45.52427979 -36.10812988 44.48215332 -36.11352539 43.40844727 C-36 41 -36 41 -35 40 C-32.40665852 39.9114933 -29.83937421 39.8846683 -27.24609375 39.90234375 C-26.55906372 39.90335083 -25.87203369 39.90435791 -25.16418457 39.90539551 C-22.58860616 39.91064224 -20.01305147 39.92460341 -17.4375 39.9375 C-11.683125 39.958125 -5.92875 39.97875 0 40 C0 26.8 0 13.6 0 0 Z " fill="#1E9E9A" transform="translate(855,324)"/>
<path d="M0 0 C1.29292969 -0.00257813 2.58585938 -0.00515625 3.91796875 -0.0078125 C4.59263184 -0.00362305 5.26729492 0.00056641 5.96240234 0.00488281 C8.02341157 0.0155843 10.08354919 0.00498557 12.14453125 -0.0078125 C13.43746094 -0.00523437 14.73039062 -0.00265625 16.0625 0 C17.25423828 0.00225586 18.44597656 0.00451172 19.67382812 0.00683594 C22.53125 0.265625 22.53125 0.265625 24.53125 2.265625 C24.78293228 4.72380066 24.78293228 4.72380066 24.78521729 7.88354492 C24.79085693 9.07821381 24.79649658 10.27288269 24.80230713 11.50375366 C24.79825867 12.82122589 24.79421021 14.13869812 24.79003906 15.49609375 C24.79274795 16.89214257 24.79630831 18.28818995 24.80065918 19.68423462 C24.80979765 23.4816855 24.80623297 27.27902803 24.79990101 31.07648087 C24.79484853 35.04472401 24.79953036 39.01295768 24.80267334 42.98120117 C24.80631519 49.64601309 24.80150817 56.31078073 24.79199219 62.97558594 C24.7811072 70.6884335 24.78463263 78.40117534 24.795645 86.11402035 C24.80471166 92.72805914 24.8060062 99.34206605 24.80076766 105.95610905 C24.79764453 109.90991512 24.79724798 113.86367146 24.80384064 117.81747437 C24.80960448 121.53403057 24.80563499 125.25045004 24.79405212 128.96699142 C24.7901322 130.9871578 24.79609937 133.0073357 24.80230713 135.02749634 C24.79384766 136.81949966 24.79384766 136.81949966 24.78521729 138.64770508 C24.78446323 139.69042068 24.78370918 140.73313629 24.78293228 141.80744934 C24.53125 144.265625 24.53125 144.265625 22.53125 146.265625 C19.67382812 146.52441406 19.67382812 146.52441406 16.0625 146.53125 C14.76957031 146.53382813 13.47664063 146.53640625 12.14453125 146.5390625 C11.46986816 146.53487305 10.79520508 146.53068359 10.10009766 146.52636719 C8.03908843 146.5156657 5.97895081 146.52626443 3.91796875 146.5390625 C2.62503906 146.53648437 1.33210937 146.53390625 0 146.53125 C-1.19173828 146.52899414 -2.38347656 146.52673828 -3.61132812 146.52441406 C-6.46875 146.265625 -6.46875 146.265625 -8.46875 144.265625 C-8.72043228 141.80744934 -8.72043228 141.80744934 -8.72271729 138.64770508 C-8.72835693 137.45303619 -8.73399658 136.25836731 -8.73980713 135.02749634 C-8.73575867 133.71002411 -8.73171021 132.39255188 -8.72753906 131.03515625 C-8.73024795 129.63910743 -8.73380831 128.24306005 -8.73815918 126.84701538 C-8.74729765 123.0495645 -8.74373297 119.25222197 -8.73740101 115.45476913 C-8.73234853 111.48652599 -8.73703036 107.51829232 -8.74017334 103.55004883 C-8.74381519 96.88523691 -8.73900817 90.22046927 -8.72949219 83.55566406 C-8.7186072 75.8428165 -8.72213263 68.13007466 -8.733145 60.41722965 C-8.74221166 53.80319086 -8.7435062 47.18918395 -8.73826766 40.57514095 C-8.73514453 36.62133488 -8.73474798 32.66757854 -8.74134064 28.71377563 C-8.74710448 24.99721943 -8.74313499 21.28079996 -8.73155212 17.56425858 C-8.7276322 15.5440922 -8.73359937 13.5239143 -8.73980713 11.50375366 C-8.73134766 9.71175034 -8.73134766 9.71175034 -8.72271729 7.88354492 C-8.72196323 6.84082932 -8.72120918 5.79811371 -8.72043228 4.72380066 C-8.16718742 -0.67973054 -4.53071729 0.00857626 0 0 Z " fill="#03413D" transform="translate(1017.46875,285.734375)"/>
<path d="M0 0 C8.58 0 17.16 0 26 0 C27.32 3.733125 28.64 7.46625 30 11.3125 C30.41765625 12.48594971 30.8353125 13.65939941 31.265625 14.8684082 C31.75289062 16.25805786 31.75289062 16.25805786 32.25 17.67578125 C32.58515625 18.62364502 32.9203125 19.57150879 33.265625 20.5480957 C34 23 34 23 34 26 C34.66 26 35.32 26 36 26 C36.07476562 25.46375 36.14953125 24.9275 36.2265625 24.375 C37.66771371 15.78460845 40.84557512 8.09178557 44 0 C51.92 0 59.84 0 68 0 C68 2.31 68 4.62 68 7 C66.35 7 64.7 7 63 7 C63 18.55 63 30.1 63 42 C64.98 42 66.96 42 69 42 C69 44.31 69 46.62 69 49 C60.09 49 51.18 49 42 49 C42 46.69 42 44.38 42 42 C43.98 42 45.96 42 48 42 C47.67 32.1 47.34 22.2 47 12 C46.14535156 14.50335938 45.29070312 17.00671875 44.41015625 19.5859375 C43.583102 22.00532422 42.75556399 24.42454495 41.92797852 26.84375 C41.35227638 28.52749606 40.77707875 30.21141471 40.20239258 31.89550781 C39.37713503 34.313605 38.55007591 36.73107942 37.72265625 39.1484375 C37.46533218 39.9036972 37.20800812 40.65895691 36.94288635 41.43710327 C35.11387171 46.77225659 35.11387171 46.77225659 34 49 C32.02 49 30.04 49 28 49 C23.38 36.13 18.76 23.26 14 10 C13.67 20.56 13.34 31.12 13 42 C14.98 42 16.96 42 19 42 C19 44.31 19 46.62 19 49 C12.73 49 6.46 49 0 49 C0 46.69 0 44.38 0 42 C1.98 42 3.96 42 6 42 C6 30.45 6 18.9 6 7 C4.02 7 2.04 7 0 7 C0 4.69 0 2.38 0 0 Z " fill="#22A09C" transform="translate(117,209)"/>
<path d="M0 0 C3.77848691 -0.05446468 5.81943608 0.42389489 8.98046875 2.53125 C9.35546875 6.03125 9.35546875 6.03125 8.98046875 9.53125 C5.98046875 11.53125 5.98046875 11.53125 3.29296875 11.15625 C2.52984375 10.95 1.76671875 10.74375 0.98046875 10.53125 C0.48546875 8.55125 0.48546875 8.55125 -0.01953125 6.53125 C-1.33953125 7.85125 -2.65953125 9.17125 -4.01953125 10.53125 C-3.09140625 10.9334375 -3.09140625 10.9334375 -2.14453125 11.34375 C-0.01953125 12.53125 -0.01953125 12.53125 1.98046875 15.53125 C2.32370487 19.2382001 2.27088391 21.82134627 0.85546875 25.28125 C-2.30487717 29.07366511 -5.83303459 30.36483559 -10.66796875 31.04296875 C-12.51261719 31.12998047 -12.51261719 31.12998047 -14.39453125 31.21875 C-16.26238281 31.31736328 -16.26238281 31.31736328 -18.16796875 31.41796875 C-19.57949219 31.47404297 -19.57949219 31.47404297 -21.01953125 31.53125 C-21.01953125 32.52125 -21.01953125 33.51125 -21.01953125 34.53125 C-20.11243408 34.54526855 -20.11243408 34.54526855 -19.18701172 34.55957031 C-16.42205245 34.61356722 -13.65873219 34.69715394 -10.89453125 34.78125 C-9.94320312 34.79542969 -8.991875 34.80960938 -8.01171875 34.82421875 C-2.0936766 35.02970632 1.46591458 35.59396669 5.98046875 39.53125 C7.55502614 42.68036479 7.32845993 45.05133816 6.98046875 48.53125 C3.69207828 53.87488451 0.07055153 55.97924889 -6.01953125 57.53125 C-9.5937515 57.93304877 -13.11355385 57.95196208 -16.70703125 57.90625 C-17.63064453 57.91785156 -18.55425781 57.92945313 -19.50585938 57.94140625 C-28.20400502 57.90383327 -28.20400502 57.90383327 -32.01953125 54.53125 C-33.01953125 51.03125 -33.01953125 51.03125 -33.01953125 47.53125 C-31.83203125 45.59375 -31.83203125 45.59375 -30.01953125 44.53125 C-28.69953125 44.53125 -27.37953125 44.53125 -26.01953125 44.53125 C-26.01953125 43.87125 -26.01953125 43.21125 -26.01953125 42.53125 C-26.65890625 42.221875 -27.29828125 41.9125 -27.95703125 41.59375 C-30.01953125 40.53125 -30.01953125 40.53125 -31.01953125 39.53125 C-31.39453125 36.71875 -31.39453125 36.71875 -31.01953125 33.53125 C-28.64453125 31.15625 -28.64453125 31.15625 -26.01953125 29.53125 C-25.35953125 29.53125 -24.69953125 29.53125 -24.01953125 29.53125 C-24.01953125 28.87125 -24.01953125 28.21125 -24.01953125 27.53125 C-24.63828125 27.263125 -25.25703125 26.995 -25.89453125 26.71875 C-28.01953125 25.53125 -28.01953125 25.53125 -30.01953125 22.53125 C-30.47634932 18.41988735 -30.47684907 16.26622507 -28.26953125 12.71875 C-24.03321924 8.60011333 -20.99419726 8.37519982 -15.14453125 8.34375 C-10.19900672 8.22375133 -10.19900672 8.22375133 -6.05078125 5.9140625 C-5.13581338 4.64835694 -4.24481989 3.36485173 -3.3828125 2.0625 C-2.01953125 0.53125 -2.01953125 0.53125 0 0 Z " fill="#23A09C" transform="translate(263.01953125,213.46875)"/>
<path d="M0 0 C1.77401632 4.62974991 2.39641621 8.96044843 2.625 13.875 C2.66367188 14.56335938 2.70234375 15.25171875 2.7421875 15.9609375 C2.83548166 17.64023246 2.91878238 19.32007767 3 21 C-6.55050251 24.05652985 -16.22153095 25.2886806 -26.125 26.5625 C-29.29494935 26.97545707 -32.4642125 27.39321976 -35.6328125 27.81640625 C-36.75462166 27.96588211 -36.75462166 27.96588211 -37.89909363 28.11837769 C-43.01791837 28.81869589 -47.9820875 29.78536839 -53 31 C-55.9375 31.25 -55.9375 31.25 -58 31 C-60.35926204 28.64073796 -60.33157398 27.87599311 -60.6328125 24.6484375 C-60.71660156 23.79765625 -60.80039062 22.946875 -60.88671875 22.0703125 C-60.96535156 21.18085938 -61.04398438 20.29140625 -61.125 19.375 C-61.25455078 18.02921875 -61.25455078 18.02921875 -61.38671875 16.65625 C-61.5990924 14.4381252 -61.80317085 12.21954931 -62 10 C-57.82523956 8.09501222 -53.69226437 7.33776831 -49.1875 6.6875 C-47.51033748 6.43542215 -45.83326101 6.18277134 -44.15625 5.9296875 C-42.72925781 5.71650879 -42.72925781 5.71650879 -41.2734375 5.49902344 C-37.46028758 4.91772284 -33.65199547 4.30769927 -29.84375 3.6953125 C-27.67931483 3.34933464 -25.51479907 3.00386587 -23.35025024 2.65859985 C-21.91543999 2.42899053 -20.48084585 2.1980264 -19.04647827 1.96566772 C-17.00431691 1.63547023 -14.96128091 1.31127047 -12.91796875 0.98828125 C-11.72969482 0.79790283 -10.5414209 0.60752441 -9.31713867 0.41137695 C-6.16979441 0.02105716 -3.16719831 -0.07619104 0 0 Z " fill="#04423E" transform="translate(1066,245)"/>
<path d="M0 0 C5.61 0 11.22 0 17 0 C17.33 1.98 17.66 3.96 18 6 C18.61875 5.195625 19.2375 4.39125 19.875 3.5625 C22.10245113 0.876456 22.8151004 0.12792721 26.20703125 -0.23828125 C33.22118281 -0.43808467 33.22118281 -0.43808467 37 1.6875 C41.66475905 7.08112766 41.24975507 12.52294522 41.125 19.3125 C41.11597656 20.24384766 41.10695313 21.17519531 41.09765625 22.13476562 C41.07418263 24.4234436 41.04134729 26.71158672 41 29 C42.32 29 43.64 29 45 29 C45 31.31 45 33.62 45 36 C38.07 36 31.14 36 24 36 C24 33.69 24 31.38 24 29 C25.32 29 26.64 29 28 29 C27.86177801 25.85378318 27.71314916 22.70814434 27.5625 19.5625 C27.52318359 18.66466797 27.48386719 17.76683594 27.44335938 16.84179688 C27.40146484 15.98779297 27.35957031 15.13378906 27.31640625 14.25390625 C27.27974854 13.46314697 27.24309082 12.6723877 27.20532227 11.85766602 C27.19436743 9.98598559 27.19436743 9.98598559 26 9 C23.54190002 8.7499227 23.54190002 8.7499227 21 9 C18.64641749 11.35358251 18.72128096 11.92968394 18.5859375 15.1328125 C18.54726563 15.93847656 18.50859375 16.74414062 18.46875 17.57421875 C18.42234375 18.83685547 18.42234375 18.83685547 18.375 20.125 C18.33632813 20.97449219 18.29765625 21.82398438 18.2578125 22.69921875 C18.16343506 24.79911684 18.08062414 26.89952891 18 29 C18.99 29 19.98 29 21 29 C21 31.31 21 33.62 21 36 C14.07 36 7.14 36 0 36 C0 33.69 0 31.38 0 29 C1.65 29 3.3 29 5 29 C5 21.74 5 14.48 5 7 C3.35 7 1.7 7 0 7 C0 4.69 0 2.38 0 0 Z " fill="#24A19D" transform="translate(379,222)"/>
<path d="M0 0 C1.04897461 -0.05607422 1.04897461 -0.05607422 2.11914062 -0.11328125 C6.11382927 -0.18054448 8.48694279 0.2133628 11.63671875 2.7734375 C14.99301999 6.19655638 15.31682378 7.73247676 15.50390625 12.3828125 C15.54580078 13.36894531 15.58769531 14.35507813 15.63085938 15.37109375 C15.67017578 16.40363281 15.70949219 17.43617188 15.75 18.5 C15.79318359 19.54027344 15.83636719 20.58054688 15.88085938 21.65234375 C15.9871288 24.22642528 16.08916583 26.80060508 16.1875 29.375 C16.8475 29.375 17.5075 29.375 18.1875 29.375 C18.5175 28.715 18.8475 28.055 19.1875 27.375 C20.5075 27.375 21.8275 27.375 23.1875 27.375 C22.88500921 30.70239873 22.47515829 32.9377594 20.625 35.75 C17.78553454 37.64297697 15.55939957 37.99857274 12.15625 37.83984375 C8.8338832 37.05539603 7.23243569 34.97764542 5.1875 32.375 C4.8575 31.715 4.5275 31.055 4.1875 30.375 C3.424375 31.344375 2.66125 32.31375 1.875 33.3125 C-0.07998815 35.79586332 -0.66900159 36.3271672 -3.8125 37.375 C-8.37960016 37.82422297 -11.47254668 38.09540643 -15.25 35.3125 C-18.28607873 31.83211706 -18.8125 29.95537182 -18.8125 25.375 C-17.89883449 22.86948426 -17.22543828 21.65654883 -15.0078125 20.14453125 C-14.32460938 19.82871094 -13.64140625 19.51289063 -12.9375 19.1875 C-12.25945312 18.86394531 -11.58140625 18.54039062 -10.8828125 18.20703125 C-7.36921621 16.79496331 -4.34591616 16.24944306 -0.5625 16.3125 C1.29375 16.3434375 1.29375 16.3434375 3.1875 16.375 C2.8575 13.405 2.5275 10.435 2.1875 7.375 C-0.4525 7.045 -3.0925 6.715 -5.8125 6.375 C-5.77125 7.48875 -5.73 8.6025 -5.6875 9.75 C-5.8125 13.375 -5.8125 13.375 -7.8125 15.375 C-11.3125 15.625 -11.3125 15.625 -14.8125 15.375 C-16.8125 13.375 -16.8125 13.375 -17.3125 10.0625 C-16.79466523 6.24346855 -16.71728062 5.81272271 -14 3.5 C-9.32305163 0.38203442 -5.46501829 0.10900308 0 0 Z " fill="#23A09C" transform="translate(289.8125,221.625)"/>
<path d="M0 0 C3.1728763 2.33790885 5.11406963 4.25720129 5.80737305 8.22363281 C5.83355713 9.12436523 5.85974121 10.02509766 5.88671875 10.953125 C5.92216797 11.9328125 5.95761719 12.9125 5.99414062 13.921875 C6.02797852 15.44554687 6.02797852 15.44554687 6.0625 17 C6.09666016 18.03125 6.13082031 19.0625 6.16601562 20.125 C6.24838093 22.66655812 6.31756834 25.20777626 6.375 27.75 C7.035 28.08 7.695 28.41 8.375 28.75 C8.87 27.265 8.87 27.265 9.375 25.75 C10.695 25.75 12.015 25.75 13.375 25.75 C12.84801347 29.54430304 12.30980158 32.18204861 9.375 34.75 C6.33424209 35.66574949 3.54262837 35.98854294 0.375 35.75 C-2.6875 34.0625 -2.6875 34.0625 -4.625 31.75 C-4.625 30.43 -4.625 29.11 -4.625 27.75 C-5.285 27.75 -5.945 27.75 -6.625 27.75 C-6.66625 28.3275 -6.7075 28.905 -6.75 29.5 C-8.13904034 33.07181802 -10.26797746 34.04097034 -13.625 35.75 C-17.5564993 36.44876257 -20.80396836 36.10697028 -24.5 34.5 C-27.75052698 31.82309543 -28.44712101 29.94433033 -29.0625 25.8125 C-28.45041989 21.52793926 -27.06033145 20.34402579 -23.625 17.75 C-18.47453632 15.42988458 -13.21443126 14.34462035 -7.625 13.75 C-7.625 11.11 -7.625 8.47 -7.625 5.75 C-10.265 5.75 -12.905 5.75 -15.625 5.75 C-15.563125 7.173125 -15.563125 7.173125 -15.5 8.625 C-15.625 11.75 -15.625 11.75 -17.625 13.75 C-21.125 14 -21.125 14 -24.625 13.75 C-26.625 11.75 -26.625 11.75 -27.125 8.4375 C-26.625 4.75 -26.625 4.75 -23.875 1.875 C-17.01017339 -2.61354048 -7.64795934 -2.63722736 0 0 Z " fill="#22A09C" transform="translate(217.625,223.25)"/>
<path d="M0 0 C10.89 0 21.78 0 33 0 C33 7.87200832 33 7.87200832 30.5859375 10.46484375 C30.07450195 11.03380371 29.56306641 11.60276367 29.03613281 12.18896484 C28.48795898 12.76598145 27.93978516 13.34299805 27.375 13.9375 C26.27167447 15.15595797 25.17009651 16.37600075 24.0703125 17.59765625 C23.53954102 18.17918457 23.00876953 18.76071289 22.46191406 19.35986328 C19.74429863 22.40878454 17.38405653 25.68881038 15 29 C17.97 29 20.94 29 24 29 C24.99 26.36 25.98 23.72 27 21 C28.98 21 30.96 21 33 21 C33 25.95 33 30.9 33 36 C21.78 36 10.56 36 -1 36 C-1 29.58733768 -0.02995806 28.08432959 4 23.75 C5.0076943 22.6169372 6.01419276 21.48280982 7.01953125 20.34765625 C7.52178223 19.78836426 8.0240332 19.22907227 8.54150391 18.65283203 C10.6770727 16.23271138 12.68343536 13.71686705 14.6875 11.1875 C15.33074219 10.37667969 15.97398437 9.56585938 16.63671875 8.73046875 C17.08660156 8.15941406 17.53648437 7.58835938 18 7 C13.97999573 6.73423384 13.97999573 6.73423384 10 7 C7.42546779 9.32538393 6.6028174 11.62422258 6 15 C4.02 15 2.04 15 0 15 C0 10.05 0 5.1 0 0 Z " fill="#24A19D" transform="translate(315,222)"/>
<path d="M0 0 C5.61 0 11.22 0 17 0 C17 9.24 17 18.48 17 28 C18.98 28 20.96 28 23 28 C23 30.31 23 32.62 23 35 C15.08 35 7.16 35 -1 35 C-1 32.69 -1 30.38 -1 28 C0.98 28 2.96 28 5 28 C5 20.74 5 13.48 5 6 C3.35 6 1.7 6 0 6 C0 4.02 0 2.04 0 0 Z " fill="#1F9E9B" transform="translate(353,223)"/>
<path d="M0 0 C6.57692308 0.57692308 6.57692308 0.57692308 8 2 C8.375 4.75 8.375 4.75 8 8 C5.8125 10.625 5.8125 10.625 3 13 C2.195625 13.763125 1.39125 14.52625 0.5625 15.3125 C-2.52696335 17.34702464 -4.37180432 17.33750657 -8 17 C-3.89320388 3.89320388 -3.89320388 3.89320388 0 0 Z " fill="#27A29E" transform="translate(367,201)"/>
<path d="M0 0 C2.95839355 -0.02689449 5.91654427 -0.04678741 8.875 -0.0625 C9.71675781 -0.07087891 10.55851563 -0.07925781 11.42578125 -0.08789062 C12.23144531 -0.09111328 13.03710938 -0.09433594 13.8671875 -0.09765625 C14.98262939 -0.10551147 14.98262939 -0.10551147 16.12060547 -0.11352539 C18 0 18 0 20 1 C19.75 2.875 19.75 2.875 19 5 C15.72271823 7.18995931 12.87713809 7.26938569 9 7.25 C7.453125 7.25773437 7.453125 7.25773437 5.875 7.265625 C3.05402722 7.00499165 1.39854282 6.45296344 -1 5 C-0.67 3.35 -0.34 1.7 0 0 Z " fill="#EFF8F8" transform="translate(239,259)"/>
<path d="M0 0 C5.36842105 -0.35789474 5.36842105 -0.35789474 7.875 1.0625 C9.58196395 4.00227124 9.18799766 6.67870803 9 10 C4.71 10.66 0.42 11.32 -4 12 C-4 11.34 -4 10.68 -4 10 C-4.99 9.67 -5.98 9.34 -7 9 C-5.02 8.34 -3.04 7.68 -1 7 C-0.67 4.69 -0.34 2.38 0 0 Z " fill="#F3FAF9" transform="translate(284,228)"/>
<path d="M0 0 C6.3782235 -0.36103152 6.3782235 -0.36103152 8.9375 1.125 C10.46154563 3.81449229 10.26357307 5.96890973 10 9 C8.18701995 10.81298005 5.38818302 10.67555005 2.9375 11.0625 C1.83277344 11.23910156 0.72804687 11.41570312 -0.41015625 11.59765625 C-1.26480469 11.73042969 -2.11945313 11.86320313 -3 12 C-3 11.34 -3 10.68 -3 10 C-3.99 9.67 -4.98 9.34 -6 9 C-4.02 8.34 -2.04 7.68 0 7 C0 4.69 0 2.38 0 0 Z " fill="#F3FAF9" transform="translate(201,228)"/>
<path d="M0 0 C2.5625 0.25 2.5625 0.25 5 1 C6.17673198 3.35346396 6.16623866 4.8806033 6.1875 7.5 C6.20167969 8.2940625 6.21585938 9.088125 6.23046875 9.90625 C6 12 6 12 4 14 C1.375 14.125 1.375 14.125 -1 14 C-2.23887548 11.52224905 -2.16741669 9.76346293 -2.1875 7 C-2.20167969 6.113125 -2.21585938 5.22625 -2.23046875 4.3125 C-2 2 -2 2 0 0 Z " fill="#F6FBFB" transform="translate(247,226)"/>
<path d="M0 0 C-0.75 7.75 -0.75 7.75 -3 10 C-7.55555556 9.44444444 -7.55555556 9.44444444 -9 8 C-9.29178308 5.22806071 -9.36366316 3.58590175 -7.875 1.1875 C-5.22464043 -0.49106106 -3.06753576 -0.20450238 0 0 Z " fill="#F2F9F9" transform="translate(293,242)"/>
<path d="M0 0 C-0.75 7.75 -0.75 7.75 -3 10 C-7.55555556 9.44444444 -7.55555556 9.44444444 -9 8 C-9.29178308 5.22806071 -9.36366316 3.58590175 -7.875 1.1875 C-5.22464043 -0.49106106 -3.06753576 -0.20450238 0 0 Z " fill="#F1F9F9" transform="translate(211,242)"/>
</svg>
