<svg width="955" height="234" viewBox="0 0 955 234" fill="none" xmlns="http://www.w3.org/2000/svg">
<path d="M278.623 98.7578C293.298 111.164 303.419 125.636 306.275 145C306.511 149.207 306.506 153.412 306.525 157.625C306.556 159.294 306.556 159.294 306.588 160.996C306.664 177.391 301.358 192.117 291.275 205C290.492 206.031 290.492 206.031 289.693 207.082C277.23 222.456 257.629 230.831 238.275 233C214.469 234.268 193.44 229.506 175.088 213.688C160.238 199.707 151.477 181.419 150.804 160.92C150.577 138.572 157.81 120.093 173.287 103.895C201.068 77.3458 248.365 75.2095 278.623 98.7578Z" fill="white"/>
<path d="M651.623 98.7578C665.193 110.229 676.769 124.828 679.275 143C680.998 165.768 678.706 186.562 664.275 205C663.492 206.031 663.492 206.031 662.693 207.082C650.537 222.077 631.33 230.689 612.389 232.819C590.921 234.657 569.319 230.904 552.275 217C551.433 216.321 550.592 215.641 549.724 214.941C534.63 202.092 525.86 184.2 524.048 164.531C522.783 143.884 528.553 123.987 542.232 108.164C570.166 78.5742 619.007 73.374 651.623 98.7578Z" fill="white"/>
<path d="M356.4 84.375C357.421 84.317 358.442 84.259 359.494 84.1992C363.739 84.1283 366.969 84.1157 370.555 86.544C372.634 88.5922 374.458 90.7181 376.275 93C377.447 94.3357 378.622 95.6679 379.803 96.9961C380.657 97.9878 380.657 97.9878 381.529 98.9995C384.536 102.444 387.692 105.745 390.838 109.063C392.251 110.558 393.663 112.054 395.076 113.551C396.131 114.668 396.131 114.668 397.207 115.807C405.106 124.184 412.944 132.618 420.739 141.091C423.37 143.948 426.014 146.791 428.678 149.617C435.315 156.667 441.807 163.806 448.101 171.166C448.606 171.755 449.111 172.345 449.631 172.953C450.07 173.47 450.51 173.988 450.963 174.521C452.344 176.077 453.799 177.535 455.275 179C455.271 177.852 455.266 176.704 455.262 175.521C455.221 164.72 455.191 153.919 455.172 143.118C455.161 137.564 455.147 132.011 455.124 126.458C455.103 121.102 455.091 115.746 455.085 110.391C455.082 108.343 455.075 106.296 455.064 104.249C455.049 101.39 455.047 98.5315 455.048 95.6724C455.041 94.8193 455.034 93.9662 455.026 93.0873C455.047 87.2281 455.047 87.2281 457.275 85C460.133 84.7412 460.133 84.7412 463.744 84.7344C465.037 84.7318 466.33 84.7292 467.662 84.7266C468.337 84.7308 469.011 84.735 469.706 84.7393C471.767 84.75 473.828 84.7394 475.888 84.7266C477.181 84.7292 478.474 84.7317 479.806 84.7344C480.998 84.7366 482.19 84.7389 483.418 84.7412C486.275 85 486.275 85 488.275 87C488.527 89.4582 488.527 89.4582 488.529 92.6179C488.538 94.4099 488.538 94.4099 488.546 96.2381C488.54 98.2143 488.54 98.2143 488.534 100.23C488.537 101.627 488.54 103.023 488.545 104.419C488.554 108.216 488.55 112.013 488.544 115.811C488.539 119.779 488.543 123.747 488.547 127.716C488.55 134.38 488.545 141.045 488.536 147.71C488.525 155.423 488.529 163.136 488.54 170.848C488.549 177.462 488.55 184.076 488.545 190.69C488.542 194.644 488.541 198.598 488.548 202.552C488.554 206.268 488.55 209.985 488.538 213.701C488.534 215.722 488.54 217.742 488.546 219.762C488.541 220.957 488.535 222.151 488.529 223.382C488.528 224.946 488.528 224.946 488.527 226.542C488.275 229 488.275 229 486.275 231C482.404 231.591 478.498 231.556 474.588 231.625C472.972 231.712 472.972 231.712 471.324 231.801C463.512 231.925 463.512 231.925 460.2 229.447C458.405 227.383 456.848 225.236 455.275 223C454.105 221.693 452.912 220.406 451.697 219.141C451.1 218.506 450.502 217.872 449.886 217.219C449.272 216.569 448.658 215.919 448.025 215.25C442.665 209.558 437.353 203.828 432.08 198.055C428.263 193.886 424.397 189.765 420.537 185.636C416.277 181.079 412.038 176.503 407.815 171.912C405.171 169.042 402.514 166.186 399.838 163.348C399.245 162.717 398.652 162.087 398.041 161.438C396.929 160.257 395.815 159.078 394.697 157.902C390.676 153.627 386.848 149.2 383.037 144.738C382.482 144.089 381.927 143.44 381.355 142.772C379.994 141.182 378.635 139.591 377.275 138C377.267 139.136 377.259 140.271 377.251 141.441C377.173 152.125 377.086 162.808 376.988 173.491C376.938 178.984 376.891 184.477 376.853 189.97C376.817 195.267 376.77 200.564 376.717 205.862C376.699 207.886 376.683 209.911 376.672 211.936C376.655 214.764 376.626 217.592 376.594 220.419C376.592 221.263 376.59 222.107 376.588 222.976C376.503 228.772 376.503 228.772 374.275 231C371.418 231.259 371.418 231.259 367.806 231.266C366.514 231.268 365.221 231.271 363.888 231.273C363.214 231.269 362.539 231.265 361.844 231.261C359.783 231.25 357.723 231.261 355.662 231.273C354.369 231.271 353.076 231.268 351.744 231.266C350.552 231.263 349.36 231.261 348.133 231.259C345.275 231 345.275 231 343.275 229C343.024 226.542 343.024 226.542 343.021 223.382C343.016 222.187 343.01 220.993 343.004 219.762C343.008 218.444 343.012 217.127 343.016 215.77C343.014 214.373 343.01 212.977 343.006 211.581C342.997 207.784 343 203.987 343.007 200.189C343.012 196.221 343.007 192.253 343.004 188.284C343 181.62 343.005 174.955 343.014 168.29C343.025 160.577 343.022 152.864 343.011 145.152C343.002 138.538 343 131.924 343.006 125.31C343.009 121.356 343.009 117.402 343.003 113.448C342.997 109.732 343.001 106.015 343.012 102.299C343.016 100.278 343.01 98.2583 343.004 96.2381C343.013 94.4461 343.013 94.4461 343.021 92.6179C343.022 91.5752 343.023 90.5325 343.024 89.4582C343.704 82.8094 351.291 84.4696 356.4 84.375Z" fill="white"/>
<path d="M8.52521 84.7344C10.3969 84.7305 10.3969 84.7305 12.3065 84.7266C14.271 84.7382 14.271 84.7382 16.2752 84.75C17.5849 84.7423 18.8946 84.7345 20.244 84.7266C21.4918 84.7292 22.7396 84.7317 24.0252 84.7344C25.1751 84.7366 26.3249 84.7389 27.5096 84.7412C30.2752 85 30.2752 85 32.2752 87C32.5537 89.6702 32.5537 89.6702 32.5941 93.1021C32.6139 94.3832 32.6338 95.6644 32.6543 96.9844C32.6661 98.3881 32.6778 99.7917 32.6893 101.195C32.708 102.627 32.7275 104.059 32.748 105.491C32.7994 109.263 32.8389 113.034 32.8761 116.805C32.9161 120.653 32.9672 124.5 33.0174 128.348C33.1143 135.898 33.1986 143.449 33.2752 151C34.0851 150.188 34.895 149.376 35.7294 148.539C43.3491 140.899 50.9715 133.262 58.5964 125.627C62.5167 121.701 66.4361 117.775 70.3533 113.846C74.1313 110.058 77.9116 106.271 81.6936 102.487C83.1386 101.04 84.5828 99.5921 86.026 98.1435C88.0422 96.1201 90.0614 94.0999 92.0814 92.0803C92.9823 91.174 92.9823 91.174 93.9014 90.2494C98.2581 85.9036 99.9663 84.8861 106.143 84.8867C106.942 84.8919 107.741 84.897 108.564 84.9024C109.792 84.9045 109.792 84.9045 111.044 84.9066C113.663 84.9123 116.282 84.9248 118.9 84.9375C120.674 84.9425 122.447 84.9471 124.221 84.9512C128.572 84.9622 132.924 84.9795 137.275 85C137.605 85.99 137.935 86.98 138.275 88C137.281 89.6002 137.281 89.6002 135.619 91.4004C134.966 92.1085 134.313 92.8166 133.64 93.5462C128.747 98.6234 123.777 103.619 118.779 108.594C117.578 109.793 116.378 110.992 115.177 112.192C112.041 115.324 108.902 118.453 105.762 121.582C102.549 124.784 99.3391 127.99 96.1287 131.195C89.847 137.466 83.5621 143.734 77.2752 150C81.6851 159.173 89.8151 166.811 96.4756 174.45C99.6385 178.086 102.743 181.754 105.775 185.5C109.85 190.53 114.073 195.417 118.325 200.297C122.43 205.013 126.493 209.763 130.506 214.558C133.62 218.27 136.853 221.841 140.228 225.316C141.275 227 141.275 227 140.841 229.105C140.561 230.043 140.561 230.043 140.275 231C135.01 231.199 129.747 231.343 124.479 231.439C122.691 231.48 120.902 231.534 119.114 231.604C104.307 232.165 104.307 232.165 99.4207 229.364C97.3906 227.357 95.8332 225.385 94.2752 223C93.5069 222.111 92.7386 221.221 91.9471 220.305C91.3129 219.503 90.6786 218.701 90.0252 217.875C86.5553 213.558 83.014 209.321 79.4002 205.125C78.3767 203.935 77.3533 202.745 76.3299 201.555C75.823 200.965 75.316 200.376 74.7938 199.769C67.8057 191.63 60.9146 183.428 54.2752 175C51.0182 176.422 48.9152 178.145 46.4549 180.695C45.7549 181.411 45.055 182.126 44.3338 182.863C43.6132 183.61 42.8926 184.356 42.1502 185.125C40.7147 186.611 39.2749 188.093 37.8299 189.57C37.1955 190.228 36.5611 190.885 35.9075 191.563C34.2752 193 34.2752 193 32.2752 193C32.2909 194.62 32.2909 194.62 32.3069 196.273C32.3431 200.272 32.3661 204.272 32.3851 208.271C32.3951 210.003 32.4088 211.736 32.4261 213.468C32.4503 215.955 32.4617 218.442 32.4705 220.93C32.486 222.095 32.486 222.095 32.5018 223.285C32.5022 225.191 32.3975 227.097 32.2752 229C29.5158 231.759 27.8828 231.258 24.0252 231.266C22.1535 231.27 22.1535 231.27 20.244 231.273C18.9343 231.266 17.6246 231.258 16.2752 231.25C14.9655 231.258 13.6558 231.265 12.3065 231.273C11.0586 231.271 9.81083 231.268 8.52521 231.266C6.80044 231.262 6.80044 231.262 5.04083 231.259C2.27521 231 2.27521 231 0.275208 229C0.0235261 226.542 0.0235261 226.542 0.0212411 223.382C0.0156015 222.187 0.00996184 220.993 0.00415129 219.762C0.00819975 218.444 0.0122482 217.127 0.0164194 215.77C0.0137105 214.373 0.0101501 212.977 0.00579924 211.581C-0.00333923 207.784 0.000225449 203.987 0.00655741 200.189C0.0116099 196.221 0.00692806 192.253 0.00378508 188.284C0.000143228 181.62 0.00495025 174.955 0.0144662 168.29C0.0253512 160.577 0.021826 152.864 0.0108137 145.152C0.001747 138.538 0.00045198 131.924 0.00569052 125.31C0.00881365 121.356 0.00921044 117.402 0.00261778 113.448C-0.00314606 109.732 0.000823424 106.015 0.0124063 102.299C0.0163262 100.278 0.010359 98.2583 0.00415129 96.2381C0.0126108 94.4461 0.0126108 94.4461 0.0212411 92.6179C0.0219952 91.5752 0.0227492 90.5325 0.0235261 89.4582C0.568128 84.1391 4.04442 84.7432 8.52521 84.7344Z" fill="white"/>
<path d="M255.088 117.812C256.505 118.847 257.902 119.908 259.275 121C259.89 121.478 260.505 121.956 261.139 122.449C268.495 128.925 273.789 139.667 274.436 149.428C274.482 152.182 274.51 154.934 274.525 157.687C274.546 158.63 274.566 159.573 274.588 160.545C274.658 173.3 270.259 183.836 261.65 193.25C250.869 203.473 237.466 205.694 223.236 205.371C211.559 204.753 201.148 198.183 193.209 189.824C184.27 178.337 181.953 164.138 183.275 150C184.929 138.479 190.356 127.724 199.424 120.223C215.808 107.999 237.582 106.893 255.088 117.812Z" fill="black"/>
<path d="M623.275 115C626.501 116.765 629.398 118.713 632.275 121C632.89 121.478 633.505 121.956 634.138 122.449C640.931 128.428 646.824 139.258 647.436 148.407C647.482 151.313 647.51 154.218 647.525 157.125C647.546 158.12 647.566 159.115 647.588 160.141C647.655 173.092 643.411 183.67 634.65 193.25C623.869 203.473 610.466 205.694 596.236 205.371C585.378 204.796 576.235 199.157 568.275 192C558.261 180.794 555.857 167.547 556.002 152.914C556.8 141.481 561.427 130.838 569.564 122.715C584.319 110.185 605.525 106.179 623.275 115Z" fill="black"/>
<path d="M747.836 84.823C748.866 84.8132 748.866 84.8132 749.916 84.8031C752.204 84.7833 754.491 84.7717 756.779 84.7617C757.564 84.7577 758.348 84.7536 759.156 84.7494C763.324 84.7285 767.493 84.7142 771.661 84.7048C775.927 84.6939 780.193 84.6596 784.459 84.6197C787.768 84.5932 791.077 84.5851 794.387 84.5816C795.956 84.5768 797.526 84.5653 799.095 84.5465C817.394 84.3416 836.8 87.8845 850.537 101.063C863.145 115.115 865.001 128.878 864.275 147C863.937 150.493 863.336 153.66 862.275 157C862.019 157.824 861.762 158.647 861.498 159.496C857.164 171.716 848.441 180.067 837.025 185.875C830.978 188.479 824.831 189.14 818.275 189C815.637 186.362 816.797 179.285 816.713 175.75C816.65 174.604 816.588 173.458 816.523 172.277C816.363 163.959 816.363 163.959 819.03 161.154C821.066 159.899 823.085 158.949 825.275 158C829.745 153.53 830.533 147.154 830.597 141.039C830.594 140.366 830.591 139.693 830.588 139C830.604 138.327 830.62 137.654 830.637 136.961C830.643 130.691 829.041 126.234 825.15 121.313C818.405 115.887 811.12 113.9 802.595 113.811C801.933 113.802 801.27 113.794 800.588 113.785C799.155 113.768 797.722 113.753 796.29 113.74C794.025 113.719 791.76 113.692 789.495 113.663C783.875 113.593 778.254 113.534 772.633 113.474C767.876 113.423 763.119 113.368 758.363 113.308C756.126 113.281 753.89 113.261 751.654 113.24C750.292 113.224 748.929 113.207 747.567 113.189C745.777 113.171 745.777 113.171 743.95 113.152C741.275 113 741.275 113 740.275 112C740.175 110.085 740.144 108.167 740.142 106.25C740.141 105.085 740.14 103.919 740.138 102.719C740.142 101.492 740.146 100.264 740.15 99C740.146 97.7728 740.142 96.5456 740.138 95.2813C740.14 94.116 740.141 92.9506 740.142 91.75C740.144 90.6724 740.145 89.5947 740.146 88.4844C740.402 83.5713 743.586 84.8566 747.836 84.823Z" fill="white"/>
<path d="M740.275 123C745.37 122.979 750.464 122.959 755.713 122.938C757.322 122.928 758.931 122.919 760.589 122.91C761.846 122.907 763.102 122.905 764.396 122.902C766.337 122.894 766.337 122.894 768.316 122.886C771.275 123 771.275 123 772.275 124C772.364 126.884 772.39 129.745 772.373 132.629C772.371 133.493 772.37 134.357 772.369 135.248C772.363 138.019 772.35 140.791 772.338 143.562C772.333 145.437 772.328 147.311 772.324 149.186C772.313 153.79 772.296 158.395 772.275 163C773.812 162.992 773.812 162.992 775.38 162.984C779.169 162.966 782.958 162.955 786.747 162.945C788.389 162.94 790.031 162.933 791.673 162.925C794.029 162.912 796.384 162.907 798.74 162.902C799.479 162.897 800.217 162.892 800.978 162.887C802.744 162.887 804.51 162.938 806.275 163C807.275 164 807.275 164 807.389 166.408C807.381 167.972 807.381 167.972 807.373 169.566C807.37 170.579 807.368 171.592 807.365 172.635C807.356 173.931 807.347 175.227 807.338 176.562C807.317 180.667 807.296 184.771 807.275 189C795.725 189 784.175 189 772.275 189C772.298 191.864 772.322 194.729 772.346 197.68C772.361 200.446 772.373 203.213 772.385 205.98C772.395 207.906 772.409 209.833 772.426 211.759C772.45 214.524 772.462 217.289 772.471 220.055C772.481 220.919 772.491 221.784 772.502 222.675C772.502 224.785 772.398 226.894 772.275 229C770.275 231 770.275 231 767.402 231.243C765.605 231.237 765.605 231.237 763.771 231.23C762.474 231.229 761.176 231.227 759.84 231.225C759.163 231.218 758.486 231.212 757.789 231.206C755.717 231.188 753.646 231.185 751.574 231.186C741.415 231.14 741.415 231.14 740.275 230C740.115 227.045 740.016 224.11 739.959 221.152C739.938 220.266 739.917 219.379 739.896 218.466C739.83 215.623 739.771 212.78 739.713 209.938C739.67 208.015 739.626 206.092 739.582 204.17C739.474 199.447 739.375 194.723 739.275 190C727.725 189.67 716.175 189.34 704.275 189C704.255 184.896 704.234 180.791 704.213 176.562C704.204 175.266 704.194 173.97 704.185 172.635C704.183 171.622 704.18 170.61 704.178 169.566C704.172 168.524 704.167 167.482 704.162 166.408C704.275 164 704.275 164 705.275 163C707.869 162.911 710.436 162.885 713.029 162.902C713.716 162.903 714.403 162.904 715.111 162.905C717.687 162.911 720.262 162.925 722.838 162.938C728.592 162.958 734.346 162.979 740.275 163C740.275 149.8 740.275 136.6 740.275 123Z" fill="#EDFFFE"/>
<path d="M902.744 84.7344C904.037 84.7318 905.33 84.7292 906.662 84.7266C907.337 84.7308 908.011 84.7349 908.706 84.7393C910.767 84.75 912.828 84.7394 914.888 84.7266C916.181 84.7291 917.474 84.7317 918.806 84.7344C919.998 84.7366 921.19 84.7389 922.418 84.7412C925.275 85 925.275 85 927.275 87C927.527 89.4582 927.527 89.4582 927.529 92.6179C927.535 93.8126 927.54 95.0073 927.546 96.2381C927.542 97.5556 927.538 98.8731 927.534 100.23C927.537 101.627 927.54 103.023 927.545 104.419C927.554 108.216 927.55 112.013 927.544 115.811C927.539 119.779 927.543 123.747 927.547 127.716C927.55 134.38 927.545 141.045 927.536 147.71C927.525 155.423 927.529 163.136 927.54 170.848C927.549 177.462 927.55 184.076 927.545 190.69C927.542 194.644 927.541 198.598 927.548 202.552C927.554 206.268 927.55 209.985 927.538 213.701C927.534 215.722 927.54 217.742 927.546 219.762C927.538 221.554 927.538 221.554 927.529 223.382C927.528 224.425 927.528 225.468 927.527 226.542C927.275 229 927.275 229 925.275 231C922.418 231.259 922.418 231.259 918.806 231.266C917.514 231.268 916.221 231.271 914.888 231.273C914.214 231.269 913.539 231.265 912.844 231.261C910.783 231.25 908.723 231.261 906.662 231.273C905.369 231.271 904.076 231.268 902.744 231.266C901.552 231.263 900.36 231.261 899.133 231.259C896.275 231 896.275 231 894.275 229C894.024 226.542 894.024 226.542 894.021 223.382C894.016 222.187 894.01 220.993 894.004 219.762C894.008 218.444 894.012 217.127 894.016 215.77C894.014 214.373 894.01 212.977 894.006 211.581C893.997 207.784 894 203.987 894.007 200.189C894.012 196.221 894.007 192.253 894.004 188.284C894 181.62 894.005 174.955 894.014 168.29C894.025 160.577 894.022 152.864 894.011 145.152C894.002 138.538 894 131.924 894.006 125.31C894.009 121.356 894.009 117.402 894.003 113.448C893.997 109.732 894.001 106.015 894.012 102.299C894.016 100.278 894.01 98.2583 894.004 96.2381C894.013 94.4461 894.013 94.4461 894.021 92.6179C894.022 91.5752 894.023 90.5325 894.024 89.4582C894.577 84.0546 898.213 84.743 902.744 84.7344Z" fill="white"/>
<path d="M2.27521 8C10.8552 8 19.4352 8 28.2752 8C29.5952 11.7331 30.9152 15.4662 32.2752 19.3125C32.6929 20.4859 33.1105 21.6594 33.5408 22.8684C34.0281 24.2581 34.0281 24.2581 34.5252 25.6758C34.8604 26.6236 35.1955 27.5715 35.5408 28.5481C36.2752 31 36.2752 31 36.2752 34C36.9352 34 37.5952 34 38.2752 34C38.35 33.4638 38.4247 32.9275 38.5018 32.375C39.9429 23.7846 43.1208 16.0918 46.2752 8C54.1952 8 62.1152 8 70.2752 8C70.2752 10.31 70.2752 12.62 70.2752 15C68.6252 15 66.9752 15 65.2752 15C65.2752 26.55 65.2752 38.1 65.2752 50C67.2552 50 69.2352 50 71.2752 50C71.2752 52.31 71.2752 54.62 71.2752 57C62.3652 57 53.4552 57 44.2752 57C44.2752 54.69 44.2752 52.38 44.2752 50C46.2552 50 48.2352 50 50.2752 50C49.9452 40.1 49.6152 30.2 49.2752 20C48.4206 22.5034 47.5659 25.0067 46.6854 27.5859C45.8583 30.0053 45.0308 32.4245 44.2032 34.8438C43.6275 36.5275 43.0523 38.2114 42.4776 39.8955C41.6523 42.3136 40.8253 44.7311 39.9979 47.1484C39.7405 47.9037 39.4832 48.659 39.2181 49.4371C37.3891 54.7723 37.3891 54.7723 36.2752 57C34.2952 57 32.3152 57 30.2752 57C25.6552 44.13 21.0352 31.26 16.2752 18C15.9452 28.56 15.6152 39.12 15.2752 50C17.2552 50 19.2352 50 21.2752 50C21.2752 52.31 21.2752 54.62 21.2752 57C15.0052 57 8.73521 57 2.27521 57C2.27521 54.69 2.27521 52.38 2.27521 50C4.25521 50 6.23521 50 8.27521 50C8.27521 38.45 8.27521 26.9 8.27521 15C6.29521 15 4.31521 15 2.27521 15C2.27521 12.69 2.27521 10.38 2.27521 8Z" fill="#EDFFFE"/>
<path d="M148.295 12.4687C152.073 12.4143 154.114 12.8926 157.275 15C157.65 18.5 157.65 18.5 157.275 22C154.275 24 154.275 24 151.588 23.625C150.825 23.4187 150.061 23.2125 149.275 23C148.78 21.02 148.78 21.02 148.275 19C146.955 20.32 145.635 21.64 144.275 23C145.203 23.4022 145.203 23.4022 146.15 23.8125C148.275 25 148.275 25 150.275 28C150.618 31.7069 150.566 34.2901 149.15 37.75C145.99 41.5424 142.462 42.8336 137.627 43.5117C135.782 43.5987 135.782 43.5987 133.9 43.6875C132.032 43.7861 132.032 43.7861 130.127 43.8867C128.715 43.9428 128.715 43.9428 127.275 44C127.275 44.99 127.275 45.98 127.275 47C128.182 47.014 128.182 47.014 129.108 47.0283C131.873 47.0823 134.636 47.1659 137.4 47.25C138.352 47.2642 139.303 47.2784 140.283 47.293C146.201 47.4985 149.761 48.0627 154.275 52C155.85 55.1491 155.623 57.5201 155.275 61C151.987 66.3436 148.365 68.448 142.275 70C138.701 70.4018 135.181 70.4207 131.588 70.375C130.664 70.3866 129.74 70.3982 128.789 70.4102C120.091 70.3726 120.091 70.3726 116.275 67C115.275 63.5 115.275 63.5 115.275 60C116.463 58.0625 116.463 58.0625 118.275 57C119.595 57 120.915 57 122.275 57C122.275 56.34 122.275 55.68 122.275 55C121.636 54.6906 120.996 54.3812 120.338 54.0625C118.275 53 118.275 53 117.275 52C116.9 49.1875 116.9 49.1875 117.275 46C119.65 43.625 119.65 43.625 122.275 42C122.935 42 123.595 42 124.275 42C124.275 41.34 124.275 40.68 124.275 40C123.656 39.7319 123.038 39.4637 122.4 39.1875C120.275 38 120.275 38 118.275 35C117.818 30.8886 117.818 28.735 120.025 25.1875C124.262 21.0689 127.301 20.8439 133.15 20.8125C138.096 20.6925 138.096 20.6925 142.244 18.3828C143.159 17.1171 144.05 15.8336 144.912 14.5312C146.275 13 146.275 13 148.295 12.4687Z" fill="#EDFFFE"/>
<path d="M951.275 44C953.049 48.6298 953.672 52.9605 953.9 57.875C953.939 58.5634 953.978 59.2517 954.017 59.9609C954.111 61.6402 954.194 63.3201 954.275 65C944.725 68.0565 935.054 69.2887 925.15 70.5625C921.98 70.9755 918.811 71.3932 915.642 71.8164C914.521 71.9659 914.521 71.9659 913.376 72.1184C908.257 72.8187 903.293 73.7854 898.275 75C895.338 75.25 895.338 75.25 893.275 75C890.916 72.6407 890.944 71.876 890.642 68.6484C890.559 67.7977 890.475 66.9469 890.388 66.0703C890.31 65.1809 890.231 64.2914 890.15 63.375C890.021 62.0292 890.021 62.0292 889.888 60.6563C889.676 58.4381 889.472 56.2196 889.275 54C893.45 52.095 897.583 51.3378 902.088 50.6875C903.765 50.4354 905.442 50.1828 907.119 49.9297C908.546 49.7165 908.546 49.7165 910.002 49.499C913.815 48.9177 917.623 48.3077 921.431 47.6953C923.596 47.3493 925.76 47.0039 927.925 46.6586C929.36 46.429 930.794 46.198 932.229 45.9657C934.271 45.6355 936.314 45.3113 938.357 44.9883C939.546 44.7979 940.734 44.6075 941.958 44.4114C945.105 44.0211 948.108 43.9238 951.275 44Z" fill="white"/>
<path d="M264.275 21C269.885 21 275.495 21 281.275 21C281.605 22.98 281.935 24.96 282.275 27C282.894 26.1956 283.513 25.3913 284.15 24.5625C286.378 21.8765 287.09 21.1279 290.482 20.7617C297.496 20.5619 297.496 20.5619 301.275 22.6875C305.94 28.0811 305.525 33.5229 305.4 40.3125C305.391 41.2439 305.382 42.1752 305.373 43.1348C305.349 45.4234 305.317 47.7116 305.275 50C306.595 50 307.915 50 309.275 50C309.275 52.31 309.275 54.62 309.275 57C302.345 57 295.415 57 288.275 57C288.275 54.69 288.275 52.38 288.275 50C289.595 50 290.915 50 292.275 50C292.137 46.8538 291.988 43.7081 291.838 40.5625C291.798 39.6647 291.759 38.7668 291.719 37.8418C291.677 36.9878 291.635 36.1338 291.592 35.2539C291.555 34.4631 291.518 33.6724 291.481 32.8577C291.47 30.986 291.47 30.986 290.275 30C287.817 29.7499 287.817 29.7499 285.275 30C282.922 32.3536 282.996 32.9297 282.861 36.1328C282.822 36.9385 282.784 37.7441 282.744 38.5742C282.698 39.8369 282.698 39.8369 282.65 41.125C282.612 41.9745 282.573 42.824 282.533 43.6992C282.439 45.7991 282.356 47.8995 282.275 50C283.265 50 284.255 50 285.275 50C285.275 52.31 285.275 54.62 285.275 57C278.345 57 271.415 57 264.275 57C264.275 54.69 264.275 52.38 264.275 50C265.925 50 267.575 50 269.275 50C269.275 42.74 269.275 35.48 269.275 28C267.625 28 265.975 28 264.275 28C264.275 25.69 264.275 23.38 264.275 21Z" fill="#EDFFFE"/>
<path d="M175.088 20.625C176.137 20.5689 176.137 20.5689 177.207 20.5117C181.202 20.4445 183.575 20.8384 186.724 23.3984C190.081 26.8216 190.405 28.3575 190.592 33.0078C190.634 33.9939 190.675 34.9801 190.719 35.9961C190.758 37.0286 190.797 38.0612 190.838 39.125C190.881 40.1653 190.924 41.2055 190.969 42.2773C191.075 44.8514 191.177 47.4256 191.275 50C191.935 50 192.595 50 193.275 50C193.605 49.34 193.935 48.68 194.275 48C195.595 48 196.915 48 198.275 48C197.973 51.3274 197.563 53.5628 195.713 56.375C192.873 58.268 190.647 58.6236 187.244 58.4648C183.922 57.6804 182.32 55.6026 180.275 53C179.945 52.34 179.615 51.68 179.275 51C178.512 51.9694 177.749 52.9387 176.963 53.9375C175.008 56.4209 174.419 56.9522 171.275 58C166.708 58.4492 163.615 58.7204 159.838 55.9375C156.802 52.4571 156.275 50.5804 156.275 46C157.189 43.4945 157.862 42.2815 160.08 40.7695C160.763 40.4537 161.446 40.1379 162.15 39.8125C162.828 39.4889 163.506 39.1654 164.205 38.832C167.718 37.42 170.742 36.8744 174.525 36.9375C176.381 36.9684 176.381 36.9684 178.275 37C177.945 34.03 177.615 31.06 177.275 28C174.635 27.67 171.995 27.34 169.275 27C169.316 28.1137 169.358 29.2275 169.4 30.375C169.275 34 169.275 34 167.275 36C163.775 36.25 163.775 36.25 160.275 36C158.275 34 158.275 34 157.775 30.6875C158.293 26.8685 158.37 26.4377 161.088 24.125C165.765 21.007 169.623 20.734 175.088 20.625Z" fill="#EDFFFE"/>
<path d="M102.9 22.25C106.073 24.5879 108.014 26.5072 108.708 30.4736C108.734 31.3744 108.76 32.2751 108.787 33.2031C108.822 34.1828 108.858 35.1625 108.894 36.1719C108.928 37.6955 108.928 37.6955 108.963 39.25C108.997 40.2812 109.031 41.3125 109.066 42.375C109.149 44.9166 109.218 47.4578 109.275 50C109.935 50.33 110.595 50.66 111.275 51C111.77 49.515 111.77 49.515 112.275 48C113.595 48 114.915 48 116.275 48C115.748 51.7943 115.21 54.432 112.275 57C109.234 57.9157 106.443 58.2385 103.275 58C100.213 56.3125 100.213 56.3125 98.2752 54C98.2752 52.68 98.2752 51.36 98.2752 50C97.6152 50 96.9552 50 96.2752 50C96.234 50.5775 96.1927 51.155 96.1502 51.75C94.7612 55.3218 92.6322 56.291 89.2752 58C85.3437 58.6988 82.0962 58.357 78.4002 56.75C75.1497 54.0731 74.4531 52.1943 73.8377 48.0625C74.4498 43.7779 75.8399 42.594 79.2752 40C84.4257 37.6799 89.6858 36.5946 95.2752 36C95.2752 33.36 95.2752 30.72 95.2752 28C92.6352 28 89.9952 28 87.2752 28C87.3371 29.4231 87.3371 29.4231 87.4002 30.875C87.2752 34 87.2752 34 85.2752 36C81.7752 36.25 81.7752 36.25 78.2752 36C76.2752 34 76.2752 34 75.7752 30.6875C76.2752 27 76.2752 27 79.0252 24.125C85.89 19.6365 95.2522 19.6128 102.9 22.25Z" fill="#EDFFFE"/>
<path d="M200.275 21C211.165 21 222.055 21 233.275 21C233.275 28.872 233.275 28.872 230.861 31.4648C230.35 32.0338 229.838 32.6028 229.311 33.189C228.763 33.766 228.215 34.343 227.65 34.9375C226.547 36.156 225.445 37.376 224.346 38.5977C223.815 39.1792 223.284 39.7607 222.737 40.3599C220.02 43.4088 217.659 46.6888 215.275 50C218.245 50 221.215 50 224.275 50C225.265 47.36 226.255 44.72 227.275 42C229.255 42 231.235 42 233.275 42C233.275 46.95 233.275 51.9 233.275 57C222.055 57 210.835 57 199.275 57C199.275 50.5873 200.245 49.0843 204.275 44.75C205.283 43.6169 206.289 42.4828 207.295 41.3477C207.797 40.7884 208.299 40.2291 208.817 39.6528C210.952 37.2327 212.959 34.7169 214.963 32.1875C215.606 31.3767 216.249 30.5659 216.912 29.7305C217.362 29.1594 217.812 28.5884 218.275 28C214.255 27.7342 214.255 27.7342 210.275 28C207.701 30.3254 206.878 32.6242 206.275 36C204.295 36 202.315 36 200.275 36C200.275 31.05 200.275 26.1 200.275 21Z" fill="#EDFFFE"/>
<path d="M238.275 22C243.885 22 249.495 22 255.275 22C255.275 31.24 255.275 40.48 255.275 50C257.255 50 259.235 50 261.275 50C261.275 52.31 261.275 54.62 261.275 57C253.355 57 245.435 57 237.275 57C237.275 54.69 237.275 52.38 237.275 50C239.255 50 241.235 50 243.275 50C243.275 42.74 243.275 35.48 243.275 28C241.625 28 239.975 28 238.275 28C238.275 26.02 238.275 24.04 238.275 22Z" fill="#EDFFFE"/>
<path d="M252.275 0C258.852 0.576923 258.852 0.576923 260.275 2C260.65 4.75 260.65 4.75 260.275 8C258.088 10.625 258.088 10.625 255.275 13C254.471 13.7631 253.666 14.5263 252.838 15.3125C249.748 17.347 247.903 17.3375 244.275 17C248.382 3.8932 248.382 3.8932 252.275 0Z" fill="#EDFFFE"/>
<path d="M124.275 58C127.234 57.9731 130.192 57.9532 133.15 57.9375C133.992 57.9291 134.834 57.9207 135.701 57.9121C136.507 57.9089 137.312 57.9057 138.142 57.9023C139.258 57.8945 139.258 57.8945 140.396 57.8865C142.275 58 142.275 58 144.275 59C144.025 60.875 144.025 60.875 143.275 63C139.998 65.19 137.152 65.2694 133.275 65.25C131.728 65.2577 131.728 65.2577 130.15 65.2656C127.329 65.005 125.674 64.453 123.275 63C123.605 61.35 123.935 59.7 124.275 58Z" fill="black"/>
<path d="M169.275 27C174.644 26.6421 174.644 26.6421 177.15 28.0625C178.857 31.0023 178.463 33.6787 178.275 37C173.985 37.66 169.695 38.32 165.275 39C165.275 38.34 165.275 37.68 165.275 37C164.285 36.67 163.295 36.34 162.275 36C164.255 35.34 166.235 34.68 168.275 34C168.605 31.69 168.935 29.38 169.275 27Z" fill="black"/>
<path d="M86.2752 27C92.6534 26.639 92.6534 26.639 95.2127 28.125C96.7368 30.8145 96.5388 32.9689 96.2752 36C94.4622 37.813 91.6634 37.6756 89.2127 38.0625C88.108 38.2391 87.0033 38.4157 85.8651 38.5977C85.0104 38.7304 84.1558 38.8632 83.2752 39C83.2752 38.34 83.2752 37.68 83.2752 37C82.2852 36.67 81.2952 36.34 80.2752 36C82.2552 35.34 84.2352 34.68 86.2752 34C86.2752 31.69 86.2752 29.38 86.2752 27Z" fill="black"/>
<path d="M132.275 25C134.838 25.25 134.838 25.25 137.275 26C138.452 28.3535 138.441 29.8806 138.463 32.5C138.477 33.2941 138.491 34.0881 138.506 34.9062C138.275 37 138.275 37 136.275 39C133.65 39.125 133.65 39.125 131.275 39C130.036 36.5222 130.108 34.7635 130.088 32C130.074 31.1131 130.059 30.2262 130.045 29.3125C130.275 27 130.275 27 132.275 25Z" fill="black"/>
<path d="M178.275 41C177.525 48.75 177.525 48.75 175.275 51C170.72 50.4444 170.72 50.4444 169.275 49C168.983 46.2281 168.912 44.5859 170.4 42.1875C173.051 40.5089 175.208 40.7955 178.275 41Z" fill="#F2F9F9"/>
<path d="M96.2752 41C95.5252 48.75 95.5252 48.75 93.2752 51C88.7197 50.4444 88.7197 50.4444 87.2752 49C86.9834 46.2281 86.9116 44.5859 88.4002 42.1875C91.0506 40.5089 93.2077 40.7955 96.2752 41Z" fill="black"/>
</svg>
