<svg xmlns="http://www.w3.org/2000/svg" width="1122.52" height="793.701"
fill="#fff"
    viewBox="0 0 841.89 595.276">
    <g data-name="Vrstva 1">
        <path
            d="m563.999 273.982 18.868-18.869v124.172h34.886V170.893l-53.754 53.754M498.178 290.468l-70.18 70.18-60.157-60.442-.001 49.56 60.159 60.217 70.179-70.18M301.761 234.339l-63.517-63.445v208.392h34.886V255.114l28.631 28.63z" />
        <path
            d="M317.268 377.823V105.827h34.984l-.099 99.9 161.531 1.014V105.827h34.887v271.996h-34.887l-.054-138.218H352.554l-.4 138.218z" />
        <clipPath id="a">
            <path transform="matrix(1 0 0 -1 0 595.276)" d="M0 0h841.89v595.276H0z" />
        </clipPath>
        <g clip-path="url(#a)">
            <path
                d="M257.835 452.473c.926 1.1 1.39 2.514 1.39 4.243 0 2.224-.822 3.935-2.465 5.133-1.643 1.2-4.07 1.798-7.283 1.798h-11.934v-25.944h11.193c2.891 0 5.133.581 6.727 1.742 1.594 1.162 2.39 2.805 2.39 4.93 0 1.433-.352 2.65-1.056 3.65-.704 1.001-1.674 1.75-2.909 2.242 1.704.371 3.02 1.106 3.947 2.206m-17.549-12.509v9.414h8.264c2.1 0 3.72-.402 4.856-1.205 1.136-.802 1.705-1.97 1.705-3.502 0-1.532-.569-2.699-1.705-3.502-1.137-.803-2.756-1.205-4.856-1.205zm14.417 20.238c1.186-.79 1.78-2.027 1.78-3.708 0-3.236-2.349-4.855-7.043-4.855h-9.154v9.747h9.154c2.322 0 4.077-.393 5.263-1.184M317.173 462.147c-2.088-1.149-3.72-2.725-4.893-4.727-1.173-2.002-1.76-4.249-1.76-6.745 0-2.496.587-4.744 1.76-6.746 1.174-2 2.805-3.576 4.893-4.724 2.088-1.15 4.417-1.724 6.986-1.724 2.57 0 4.887.568 6.95 1.705a12.621 12.621 0 0 1 4.874 4.726c1.186 2.013 1.778 4.267 1.778 6.763 0 2.496-.592 4.75-1.778 6.765a12.621 12.621 0 0 1-4.874 4.726c-2.063 1.135-4.38 1.704-6.95 1.704-2.57 0-4.898-.576-6.986-1.723m12.546-2.113a10.069 10.069 0 0 0 3.892-3.855c.938-1.642 1.408-3.477 1.408-5.504 0-2.025-.47-3.86-1.408-5.504a10.08 10.08 0 0 0-3.892-3.854c-1.656-.927-3.51-1.39-5.56-1.39-2.051 0-3.91.463-5.578 1.39a10.175 10.175 0 0 0-3.93 3.854c-.95 1.644-1.425 3.48-1.425 5.504 0 2.027.475 3.862 1.426 5.504a10.164 10.164 0 0 0 3.929 3.855c1.668.926 3.527 1.39 5.578 1.39 2.05 0 3.904-.464 5.56-1.39" />
        </g>
        <path
            d="m406.587 463.648-8.376-11.416-8.34 11.416h-3.15l9.86-13.344-9.23-12.6h3.151l7.82 10.6 7.783-10.6h2.965l-9.19 12.527 9.894 13.417zM461.07 437.703h2.743v25.944h-2.743zM541.273 437.703v25.944h-2.26l-16.679-21.05v21.05h-2.743v-25.944h2.261l16.715 21.053v-21.053z" />
        <clipPath id="b">
            <path transform="matrix(1 0 0 -1 0 595.276)" d="M0 0h841.89v595.276H0z" />
        </clipPath>
        <g clip-path="url(#b)">
            <path
                d="M615.324 450.675h2.632v9.896c-1.21 1.062-2.645 1.878-4.3 2.446a15.955 15.955 0 0 1-5.226.852c-2.593 0-4.928-.568-7.004-1.704-2.076-1.136-3.706-2.712-4.893-4.726-1.186-2.014-1.778-4.268-1.778-6.764 0-2.496.592-4.75 1.778-6.764 1.187-2.013 2.817-3.589 4.893-4.725 2.076-1.136 4.422-1.705 7.042-1.705 1.976 0 3.793.315 5.448.945 1.655.63 3.052 1.562 4.188 2.798l-1.705 1.742c-2.052-2.026-4.657-3.039-7.82-3.039-2.1 0-3.997.463-5.69 1.39a10.225 10.225 0 0 0-3.984 3.854c-.963 1.644-1.444 3.478-1.444 5.504 0 2.026.481 3.854 1.444 5.485a10.42 10.42 0 0 0 3.967 3.855c1.68.94 3.57 1.408 5.67 1.408 2.67 0 4.928-.666 6.782-2z" />
        </g>
    </g>
</svg>