<svg width="509" height="478" viewBox="0 0 509 478" fill="none" xmlns="http://www.w3.org/2000/svg">
<path d="M435.999 224.309L461.156 199.151V364.713H507.67V86.8572L435.999 158.529M348.237 246.29L254.664 339.864L174.455 259.274L174.453 325.354L254.665 405.644L348.237 312.07M86.348 171.452L1.65869 86.8586V364.714H48.1733V199.152L86.348 237.325V171.452Z" fill="white"/>
<path d="M107.024 362.764V0.1026H153.669L153.537 133.303L368.912 134.655V0.1026H415.428V362.764H368.912L368.84 178.473H154.072L153.539 362.764H107.024Z" fill="white"/>
<path d="M27.7801 462.297C29.0148 463.764 29.6335 465.649 29.6335 467.954C29.6335 470.92 28.5375 473.201 26.3468 474.798C24.1561 476.398 20.9201 477.196 16.6361 477.196H0.724121V442.604H15.6481C19.5028 442.604 22.4921 443.378 24.6174 444.926C26.7428 446.476 27.8041 448.666 27.8041 451.5C27.8041 453.41 27.3348 455.033 26.3961 456.366C25.4574 457.701 24.1641 458.7 22.5174 459.356C24.7894 459.85 26.5441 460.83 27.7801 462.297ZM4.38145 445.618V458.17H15.4001C18.2001 458.17 20.3601 457.634 21.8748 456.564C23.3895 455.494 24.1481 453.937 24.1481 451.894C24.1481 449.852 23.3895 448.296 21.8748 447.225C20.3588 446.154 18.2001 445.618 15.4001 445.618H4.38145ZM23.6041 472.602C25.1854 471.549 25.9774 469.9 25.9774 467.658C25.9774 463.344 22.8454 461.185 16.5868 461.185H4.38145V474.181H16.5868C19.6828 474.181 22.0228 473.657 23.6041 472.602ZM106.897 475.196C104.113 473.664 101.937 471.562 100.373 468.893C98.8094 466.224 98.0267 463.228 98.0267 459.9C98.0267 456.572 98.8094 453.574 100.373 450.905C101.939 448.238 104.113 446.137 106.897 444.606C109.681 443.073 112.787 442.308 116.212 442.308C119.639 442.308 122.728 443.065 125.479 444.581C128.18 446.049 130.427 448.228 131.977 450.882C133.559 453.566 134.348 456.572 134.348 459.9C134.348 463.228 133.559 466.233 131.977 468.92C130.427 471.574 128.18 473.754 125.479 475.221C122.728 476.734 119.639 477.493 116.212 477.493C112.785 477.493 109.681 476.725 106.897 475.196ZM123.625 472.378C125.797 471.178 127.593 469.398 128.815 467.238C130.065 465.049 130.692 462.602 130.692 459.9C130.692 457.2 130.065 454.753 128.815 452.561C127.592 450.402 125.796 448.623 123.625 447.422C121.417 446.186 118.945 445.569 116.212 445.569C113.477 445.569 110.999 446.186 108.775 447.422C106.589 448.621 104.776 450.399 103.535 452.561C102.268 454.753 101.635 457.201 101.635 459.9C101.635 462.602 102.268 465.049 103.536 467.238C104.776 469.401 106.589 471.18 108.775 472.378C110.999 473.613 113.477 474.232 116.212 474.232C118.945 474.232 121.417 473.613 123.625 472.378Z" fill="white"/>
<path d="M226.116 477.197L214.948 461.976L203.828 477.197H199.628L212.775 459.405L200.468 442.605H204.669L215.096 456.738L225.473 442.605H229.427L217.173 459.308L230.365 477.197H226.116ZM298.76 442.604H302.417V477.196H298.76V442.604ZM405.697 442.604V477.196H402.684L380.445 449.129V477.196H376.788V442.604H379.802L402.089 470.674V442.604H405.697Z" fill="white"/>
<path d="M504.432 459.9H507.941V473.094C506.328 474.51 504.415 475.598 502.208 476.356C499.965 477.12 497.61 477.504 495.24 477.492C491.783 477.492 488.669 476.734 485.901 475.22C483.133 473.705 480.96 471.604 479.377 468.918C477.796 466.233 477.007 463.228 477.007 459.9C477.007 456.572 477.796 453.566 479.377 450.881C480.96 448.197 483.133 446.096 485.901 444.581C488.669 443.066 491.797 442.308 495.291 442.308C497.925 442.308 500.348 442.728 502.555 443.568C504.761 444.408 506.624 445.65 508.139 447.298L505.865 449.621C503.129 446.92 499.656 445.569 495.439 445.569C492.639 445.569 490.109 446.186 487.852 447.422C485.642 448.614 483.804 450.392 482.54 452.561C481.256 454.753 480.615 457.198 480.615 459.9C480.615 462.601 481.256 465.038 482.54 467.213C483.808 469.372 485.635 471.148 487.829 472.353C490.069 473.606 492.589 474.23 495.389 474.23C498.949 474.23 501.96 473.342 504.432 471.564V459.9Z" fill="white"/>
</svg>
