<?xml version="1.0" encoding="UTF-8"?>
<svg version="1.1" xmlns="http://www.w3.org/2000/svg" width="900" height="500">
<path d="M0 0 C297 0 594 0 900 0 C900 165 900 330 900 500 C603 500 306 500 0 500 C0 335 0 170 0 0 Z " fill="#F6F6F6" transform="translate(0,0)"/>
<path d="M0 0 C103.59331071 -0.04033135 103.59331071 -0.04033135 148.09179688 -0.04882812 C158.26359051 -0.05078376 168.43538413 -0.05280361 178.60717773 -0.05493164 C179.88071914 -0.05519539 181.15426055 -0.05545914 182.46639413 -0.05573088 C200.12495768 -0.05946886 217.78351891 -0.06559547 235.44208096 -0.07373433 C265.97831406 -0.08780582 296.51454472 -0.09694512 327.05078125 -0.09765625 C328.84670596 -0.09771411 328.84670596 -0.09771411 330.67891198 -0.09777313 C383.69576935 -0.09891551 436.7118392 -0.05850396 489.72802734 0.22705078 C490.6496821 0.23198125 491.57133686 0.23691173 492.52092054 0.24199161 C529.01433839 0.43848442 565.5070478 0.73037379 602 1 C602 77.23 602 153.46 602 232 C403.34 232 204.68 232 0 232 C0 155.44 0 78.88 0 0 Z " fill="#F39006" transform="translate(149,134)"/>
<path d="M0 0 C53.79 0 107.58 0 163 0 C163 76.23 163 152.46 163 231 C109.21 231 55.42 231 0 231 C0 210.21 0 189.42 0 168 C-3.96 168 -7.92 168 -12 168 C-12.029729 165.57769043 -12.029729 165.57769043 -12.06005859 163.10644531 C-12.13607783 157.12028292 -12.22480128 151.13436477 -12.31738281 145.1484375 C-12.3556877 142.55668964 -12.39053787 139.96488834 -12.421875 137.37304688 C-12.46749217 133.64954517 -12.5254931 129.92641185 -12.5859375 126.203125 C-12.59748871 125.04258606 -12.60903992 123.88204712 -12.62094116 122.68634033 C-12.64081085 121.60552185 -12.66068054 120.52470337 -12.68115234 119.41113281 C-12.69447601 118.46071106 -12.70779968 117.51028931 -12.7215271 116.53106689 C-13.01379297 113.87463437 -13.56583024 112.24223969 -15 110 C-19.0696295 107.6061003 -23.39922327 107.39463464 -28 108 C-31.85552234 109.67631406 -33.46033554 111.13905401 -35 115 C-35.31813628 117.5363011 -35.31813628 117.5363011 -35.30297852 120.3034668 C-35.31962051 121.36103683 -35.33626251 122.41860687 -35.35340881 123.50822449 C-35.36182297 124.64375259 -35.37023712 125.7792807 -35.37890625 126.94921875 C-35.39590073 128.11757767 -35.4128952 129.28593658 -35.43040466 130.48970032 C-35.48355634 134.22224531 -35.52385502 137.95477878 -35.5625 141.6875 C-35.60636489 145.43087705 -35.65299135 149.17416598 -35.70530701 152.91743469 C-35.73737355 155.247761 -35.76422893 157.57816561 -35.78553772 159.90861511 C-35.79902756 160.95672867 -35.8125174 162.00484222 -35.82641602 163.0847168 C-35.83592789 164.01197067 -35.84543976 164.93922455 -35.85523987 165.89457703 C-36 168 -36 168 -37 169 C-44.26 169 -51.52 169 -59 169 C-59 148.54 -59 128.08 -59 107 C-61.64 107 -64.28 107 -67 107 C-67 102.05 -67 97.1 -67 92 C-59.74 92 -52.48 92 -45 92 C-44.01 93.98 -43.02 95.96 -42 98 C-39.51294535 96.85212862 -37.43239418 95.5963692 -35.1875 94 C-29.63202248 90.51421018 -24.17435954 89.69349904 -17.6875 89.625 C-16.47449219 89.59664063 -15.26148438 89.56828125 -14.01171875 89.5390625 C-10 90 -10 90 0 94 C0 62.98 0 31.96 0 0 Z " fill="#1CA037" transform="translate(588,135)"/>
<path d="M0 0 C64.02 0 128.04 0 194 0 C194 50.49 194 100.98 194 153 C191.69 153.33 189.38 153.66 187 154 C185.47432994 152.47432994 185.86058178 151.10186532 185.84228516 148.97436523 C185.83202301 148.11934921 185.82176086 147.26433319 185.81118774 146.38340759 C185.80388641 145.45121902 185.79658508 144.51903046 185.7890625 143.55859375 C185.7609725 141.59309094 185.73230792 139.62759627 185.703125 137.66210938 C185.66200381 134.55721448 185.62512772 131.45246811 185.59863281 128.34741211 C185.57086973 125.35498312 185.52497325 122.36325074 185.4765625 119.37109375 C185.4716832 117.99406532 185.4716832 117.99406532 185.46670532 116.58921814 C185.34520147 110.15641988 184.55294551 104.30692423 180.4921875 99.046875 C172.1359711 92.3457546 164.61448654 90.07936907 153.8984375 90.5390625 C147.06006035 91.3476081 141.68625924 93.9589451 137 99 C133.00398546 97.66799515 130.10096891 95.70996821 126.84375 93.12109375 C120.75328071 89.41777874 110.93256579 90.15958332 104 91 C98.25243735 92.81425589 93.47267306 95.97459425 89 100 C87.5393715 97.35261084 87 96.10551666 87 93 C79.41 92.67 71.82 92.34 64 92 C64 96.95 64 101.9 64 107 C66.64 107 69.28 107 72 107 C72 127.13 72 147.26 72 168 C79.26 168 86.52 168 94 168 C93.98428955 166.45094971 93.9685791 164.90189941 93.95239258 163.3059082 C93.89807639 157.55661218 93.86364344 151.80733882 93.83520508 146.05786133 C93.82012239 143.5698668 93.79965346 141.08189883 93.77368164 138.59399414 C93.73727663 135.01702312 93.72026816 131.44040378 93.70703125 127.86328125 C93.69154739 126.75165115 93.67606354 125.64002106 93.66011047 124.4947052 C93.65988388 123.45400375 93.65965729 122.41330231 93.65942383 121.34106445 C93.64943108 119.97205742 93.64943108 119.97205742 93.63923645 118.57539368 C94.18126337 114.70600967 96.00041114 112.07648031 98.625 109.25 C102.28096036 107.32581033 105.88910342 106.8823357 110 107 C114.30127119 108.68310612 115.93713769 110.95536619 118 115 C118.36076355 117.61335754 118.36076355 117.61335754 118.34057617 120.43286133 C118.34034958 121.49358353 118.34012299 122.55430573 118.33988953 123.64717102 C118.32440567 124.7806749 118.30892181 125.91417877 118.29296875 127.08203125 C118.28872391 128.25134689 118.28447906 129.42066254 118.28010559 130.62541199 C118.26333285 134.354677 118.22568192 138.08339872 118.1875 141.8125 C118.17245141 144.34309115 118.15876331 146.87369077 118.14648438 149.40429688 C118.1134337 155.60307344 118.06165986 161.80144465 118 168 C125.26 168 132.52 168 140 168 C139.97643433 165.67642456 139.97643433 165.67642456 139.95239258 163.3059082 C139.89807639 157.55661218 139.86364344 151.80733882 139.83520508 146.05786133 C139.82012239 143.5698668 139.79965346 141.08189883 139.77368164 138.59399414 C139.73727663 135.01702312 139.72026816 131.44040378 139.70703125 127.86328125 C139.69154739 126.75165115 139.67606354 125.64002106 139.66011047 124.4947052 C139.65977058 122.93365303 139.65977058 122.93365303 139.65942383 121.34106445 C139.64943108 119.97205742 139.64943108 119.97205742 139.63923645 118.57539368 C140.249047 114.22212064 142.65165634 110.79028638 146 108 C149.61930698 106.79356434 152.19231005 106.67731441 156 107 C159.10039543 108.75494081 161.48825667 110.48825667 164 113 C164.25828552 114.85708618 164.25828552 114.85708618 164.27124023 117.13916016 C164.28652016 118.42157089 164.28652016 118.42157089 164.30210876 119.72988892 C164.30424881 120.6569162 164.30638885 121.58394348 164.30859375 122.5390625 C164.33377087 124.50130483 164.35916862 126.46354435 164.38476562 128.42578125 C164.41341742 131.51968543 164.43743011 134.61354012 164.45629883 137.70751953 C164.47807368 140.69330579 164.51754175 143.67848787 164.55859375 146.6640625 C164.55876747 148.03638535 164.55876747 148.03638535 164.5589447 149.43643188 C164.64816452 155.28142435 165.52129173 159.67968174 168 165 C173.24374145 169.41578227 180.51082448 168.39745245 187 168 C189.31 167.67 191.62 167.34 194 167 C194 188.12 194 209.24 194 231 C97.97 230.505 97.97 230.505 0 230 C0 154.1 0 78.2 0 0 Z " fill="#E41E0B" transform="translate(150,135)"/>
<path d="M0 0 C33 0 66 0 100 0 C100.33 31.35 100.66 62.7 101 95 C99.35 94.34 97.7 93.68 96 93 C88.21627426 89.98247344 78.4853315 89.43177776 70.5 92.1875 C67.79071941 93.5905203 65.60810782 94.95083187 63.1875 96.75 C62.135625 97.4925 61.08375 98.235 60 99 C59.01 98.67 58.02 98.34 57 98 C56.34 96.35 55.68 94.7 55 93 C44.11 92.505 44.11 92.505 33 92 C33 96.95 33 101.9 33 107 C35.64 107 38.28 107 41 107 C41 127.46 41 147.92 41 169 C48.26 168.67 55.52 168.34 63 168 C63.0093457 166.42589355 63.01869141 164.85178711 63.02832031 163.22998047 C63.06823671 157.38154964 63.13400146 151.53364391 63.20751953 145.68554688 C63.23571932 143.15599317 63.25693873 140.62635151 63.27099609 138.09667969 C63.29243829 134.45722454 63.3390986 130.81882585 63.390625 127.1796875 C63.39246796 125.48717361 63.39246796 125.48717361 63.39434814 123.76046753 C63.50965918 117.55799403 63.80837396 113.70446289 68 109 C71.01074768 106.63441254 74.1987157 106.64058906 77.96875 106.74609375 C81.13609288 107.14201161 83.36364922 108.24243281 86 110 C88.05144511 113.15989732 88.24444619 115.68851581 88.22705078 119.41113281 C88.22689972 120.49195129 88.22674866 121.57276978 88.22659302 122.68634033 C88.21627045 123.84687927 88.20594788 125.00741821 88.1953125 126.203125 C88.1924826 127.39605164 88.18965271 128.58897827 88.18673706 129.8180542 C88.17554053 133.62880476 88.15043653 137.43932045 88.125 141.25 C88.11496954 143.83332994 88.1058438 146.41666356 88.09765625 149 C88.07560285 155.33342385 88.04107626 161.6666721 88 168 C91.96 168 95.92 168 100 168 C100 188.79 100 209.58 100 231 C67 231 34 231 0 231 C0 208.56 0 186.12 0 163 C4 165 4 165 6.34375 166.60546875 C9.60177648 168.31593265 11.83827465 168.36811031 15.5 168.3125 C16.6034375 168.30863281 17.706875 168.30476562 18.84375 168.30078125 C21.9637871 168.00345098 24.14524718 167.22695712 27 166 C27.99 166 28.98 166 30 166 C30 161.71 30 157.42 30 153 C29.34 153.33 28.68 153.66 28 154 C24.9375 154.125 24.9375 154.125 22 154 C19.86360188 151.86360188 20.81352365 146.99722295 20.7890625 144.03125 C20.76096622 142.16144999 20.73230162 140.29165846 20.703125 138.421875 C20.66205508 135.47070807 20.62517713 132.51969457 20.59863281 129.56835938 C20.57080573 126.72232066 20.52490421 123.87700479 20.4765625 121.03125 C20.47330963 120.16213989 20.47005676 119.29302979 20.46670532 118.39758301 C20.34955283 112.47885381 19.27555215 107.46997649 17 102 C16.74022369 101.29621216 16.48044739 100.59242432 16.21279907 99.86730957 C14.8556848 97.38512128 14.8556848 97.38512128 10 96 C6.7 94.35 3.4 92.7 0 91 C0 60.97 0 30.94 0 0 Z " fill="#CB0B0A" transform="translate(488,135)"/>
<path d="M0 0 C7.53716913 -0.06804704 15.07422214 -0.12297155 22.61162472 -0.15543652 C26.11237531 -0.17102599 29.61290302 -0.19213941 33.11352539 -0.22631836 C37.14731871 -0.26545205 41.18088156 -0.27976462 45.21484375 -0.29296875 C46.45894516 -0.30845261 47.70304657 -0.32393646 48.98484802 -0.33988953 C57.73303973 -0.34156865 65.81025407 0.60769055 73 6 C78.68275052 12.07922148 80.27800271 16.2773881 80.1875 24.5625 C80.18105469 25.86316406 80.17460937 27.16382813 80.16796875 28.50390625 C80.03722463 31.22520835 79.81823822 33.42745903 79 36 C78.34 36 77.68 36 77 36 C76.731875 36.763125 76.46375 37.52625 76.1875 38.3125 C75.04865495 40.88988618 74.18583329 42.26954864 72 44 C71.34 44 70.68 44 70 44 C70.33 44.66 70.66 45.32 71 46 C72.85625 46.61875 72.85625 46.61875 74.75 47.25 C79.93113182 49.12225157 82.58689131 52.12819847 84.96875 56.96875 C87.87202555 64.38823197 88.38219503 72.8809478 85.6875 80.4375 C83.22054975 85.64550608 81.20730292 89.2715912 76.4375 92.625 C75.65246094 93.19476563 74.86742187 93.76453125 74.05859375 94.3515625 C65.84100399 98.78045506 57.84581287 99.42469569 48.6484375 99.29296875 C47.63628174 99.28994751 46.62412598 99.28692627 45.58129883 99.28381348 C41.84576028 99.26826624 38.11036853 99.2263838 34.375 99.1875 C21.814375 99.0946875 21.814375 99.0946875 9 99 C9 71.61 9 44.22 9 16 C6.03 16 3.06 16 0 16 C0 10.72 0 5.44 0 0 Z " fill="#FDFCF8" transform="translate(347,204)"/>
<path d="M0 0 C0.67289062 -0.00322266 1.34578125 -0.00644531 2.0390625 -0.00976562 C8.67938625 0.06073974 14.22226138 1.22871094 19.4375 5.4375 C20.45650391 6.24574219 20.45650391 6.24574219 21.49609375 7.0703125 C22.24052734 7.68519531 22.24052734 7.68519531 23 8.3125 C25.55290669 7.05844057 28.0417631 5.74274692 30.5 4.3125 C31.66143318 3.63675706 32.82830699 2.97029256 34 2.3125 C34.86625 1.77109375 34.86625 1.77109375 35.75 1.21875 C42.21402412 -1.38481527 50.97655593 -0.63358885 57.5078125 1.41015625 C64.46303875 4.67858964 70.01282767 8.58109297 73.04199219 15.79345703 C74.2991853 20.41149515 74.35495818 24.75732113 74.4140625 29.5234375 C74.43342865 30.49157379 74.4527948 31.45971008 74.4727478 32.45718384 C74.5322833 35.5338677 74.5788247 38.61058951 74.625 41.6875 C74.66320373 43.77996377 74.70225685 45.87241222 74.7421875 47.96484375 C74.83796345 53.08060396 74.92209042 58.19643776 75 63.3125 C76.134375 63.456875 77.26875 63.60125 78.4375 63.75 C82 64.3125 82 64.3125 83 65.3125 C83.23828125 67.4921875 83.23828125 67.4921875 83.3125 70.1875 C83.34988281 71.07179688 83.38726562 71.95609375 83.42578125 72.8671875 C83 75.3125 83 75.3125 81.23046875 77.0703125 C75.03703674 80.51954434 66.43880403 80.49567866 59.69921875 78.69921875 C55.50523532 76.66060154 54.07434909 73.8998489 52.58905029 69.64074707 C51.53215611 65.46332656 51.62021416 61.33299133 51.6640625 57.046875 C51.65156256 55.08593411 51.63852603 53.12499658 51.625 51.1640625 C51.62105588 48.10046666 51.62511999 45.03719819 51.63964844 41.97363281 C51.64819767 38.99755101 51.62659042 36.02283618 51.6015625 33.046875 C51.61490631 32.13017029 51.62825012 31.21346558 51.64199829 30.26898193 C51.63943678 24.96722353 51.63943678 24.96722353 48.58740234 20.76660156 C44.36021356 18.39095178 41.93554779 17.97788659 37 18.3125 C32.76884785 20.13958843 31.06657708 22.25724705 29 26.3125 C28.5360268 28.9091315 28.5360268 28.9091315 28.56762695 31.65356445 C28.54783279 32.6942659 28.52803864 33.73496735 28.50764465 34.8072052 C28.50125473 35.9188353 28.49486481 37.03046539 28.48828125 38.17578125 C28.46135445 39.89646065 28.46135445 39.89646065 28.43388367 41.65190125 C28.379776 45.30956364 28.34588249 48.96709547 28.3125 52.625 C28.27932744 55.10744004 28.24483785 57.58986286 28.20898438 60.07226562 C28.12404878 66.15224958 28.05723905 72.23219477 28 78.3125 C20.74 78.3125 13.48 78.3125 6 78.3125 C5.98541748 76.73315674 5.97083496 75.15381348 5.95581055 73.52661133 C5.89782447 67.66521601 5.82059072 61.80420473 5.73754883 55.94311523 C5.70430112 53.40672032 5.67626875 50.87025144 5.65356445 48.33374023 C5.6200166 44.68701672 5.56769848 41.04097089 5.51171875 37.39453125 C5.50532883 36.26102737 5.4989389 35.1275235 5.49235535 33.95967102 C5.47256119 32.89894882 5.45276703 31.83822662 5.43237305 30.74536133 C5.41571846 29.34970695 5.41571846 29.34970695 5.39872742 27.92585754 C4.92023585 24.78970615 3.82646958 22.88522532 2 20.3125 C-1.6373968 17.79830753 -4.58937476 18.18174626 -8.80859375 18.765625 C-11.95804156 19.55158346 -13.79570937 20.97044121 -16 23.3125 C-16.98964237 26.28142711 -17.15273727 28.32399908 -17.20532227 31.42651367 C-17.22526749 32.46736618 -17.24521271 33.50821869 -17.26576233 34.58061218 C-17.29083107 36.26354118 -17.29083107 36.26354118 -17.31640625 37.98046875 C-17.33718735 39.13041824 -17.35796844 40.28036774 -17.37937927 41.46516418 C-17.44483342 45.14338125 -17.50374074 48.82167048 -17.5625 52.5 C-17.60568913 54.99154396 -17.64930355 57.48308059 -17.69335938 59.97460938 C-17.80051065 66.08716538 -17.90178997 72.19979406 -18 78.3125 C-25.26 78.3125 -32.52 78.3125 -40 78.3125 C-40 58.1825 -40 38.0525 -40 17.3125 C-42.64 17.3125 -45.28 17.3125 -48 17.3125 C-48 12.3625 -48 7.4125 -48 2.3125 C-44.54161528 2.28562136 -41.08343775 2.26572017 -37.625 2.25 C-36.64015625 2.24162109 -35.6553125 2.23324219 -34.640625 2.22460938 C-33.22910156 2.21977539 -33.22910156 2.21977539 -31.7890625 2.21484375 C-30.48509521 2.20698853 -30.48509521 2.20698853 -29.15478516 2.19897461 C-27 2.3125 -27 2.3125 -25 3.3125 C-24.27306096 5.29138961 -23.60183749 7.29204558 -23 9.3125 C-22.50371094 8.91417969 -22.00742188 8.51585937 -21.49609375 8.10546875 C-20.81675781 7.57566406 -20.13742188 7.04585937 -19.4375 6.5 C-18.77621094 5.97792969 -18.11492187 5.45585937 -17.43359375 4.91796875 C-11.76681816 1.17953413 -6.72574562 -0.16105713 0 0 Z " fill="#FDFBF9" transform="translate(262,224.6875)"/>
<path d="M0 0 C9.9 0 19.8 0 30 0 C30 19.14 30 38.28 30 58 C32.64 58 35.28 58 38 58 C38.11214844 57.25621094 38.22429688 56.51242188 38.33984375 55.74609375 C39.02228287 52.90730855 39.862077 51.40231912 41.5625 49.0625 C45.8197683 42.95109295 49.34695204 36.48730931 53 30 C60.26 30 67.52 30 75 30 C73.94242729 34.23029083 72.44717381 36.43411817 70 40 C69.02091954 41.70115231 68.04292843 43.40297193 67.0769043 45.11157227 C66.03797771 46.9334034 64.9716874 48.73572195 63.89453125 50.53515625 C63.55099609 51.11716797 63.20746094 51.69917969 62.85351562 52.29882812 C62.15475522 53.48265672 61.44890767 54.66232836 60.73632812 55.83789062 C58.5679106 59.5451851 57.17389261 62.68266629 57 67 C57.8354354 69.10281779 57.8354354 69.10281779 59.375 70.9375 C62.45308788 75.15991232 65.15929508 79.50443935 67.8125 84 C70.09507255 88.23951549 70.09507255 88.23951549 73 92 C74.51928038 92.07179964 76.04167482 92.08392007 77.5625 92.0625 C78.38878906 92.05347656 79.21507812 92.04445313 80.06640625 92.03515625 C80.70449219 92.02355469 81.34257813 92.01195312 82 92 C82.32258065 101.35483871 82.32258065 101.35483871 80 106 C74.03246972 109.06781486 67.14219266 108.91660007 60.6875 107.48828125 C54.08264344 104.84375861 51.4182391 98.87903531 48 93 C47.14333564 91.79920551 46.27071033 90.60945744 45.375 89.4375 C42.32122877 85.25758722 38 79.28647415 38 74 C35.69 74 33.38 74 31 74 C31 85.22 31 96.44 31 108 C23.74 108 16.48 108 9 108 C9 77.31 9 46.62 9 15 C6.03 15 3.06 15 0 15 C0 10.05 0 5.1 0 0 Z " fill="#FBFDFB" transform="translate(605,196)"/>
<path d="M0 0 C0.94746094 -0.020625 1.89492188 -0.04125 2.87109375 -0.0625 C12.68796414 -0.11621749 22.4535405 2.1721938 30.375 8.25 C36.26783869 15.1835787 36.52775787 22.18259912 36.69140625 30.92578125 C36.71218735 31.8509404 36.73296844 32.77609955 36.75437927 33.72929382 C36.8195656 36.67362307 36.87861558 39.61803865 36.9375 42.5625 C36.98071464 44.56315983 37.02432986 46.56381106 37.06835938 48.56445312 C37.1752152 53.45954779 37.27656919 58.35472897 37.375 63.25 C40.015 63.25 42.655 63.25 45.375 63.25 C45.375 67.54 45.375 71.83 45.375 76.25 C38.46232896 79.50302167 31.97701377 80.19157928 24.375 79.25 C21.95898086 78.174662 20.44430066 76.94788772 18.375 75.25 C13.99796385 75.25 12.94796849 76.0168947 9.375 78.25 C1.40372975 80.68785036 -10.22319171 80.77609881 -17.9375 77.625 C-22.97389459 74.82041948 -25.83406534 71.28383198 -27.9375 65.875 C-28.164375 65.00875 -28.39125 64.1425 -28.625 63.25 C-29.285 63.25 -29.945 63.25 -30.625 63.25 C-31.83009085 44.44675699 -31.83009085 44.44675699 -27.3125 38.5625 C-25.44921875 36.55078125 -25.44921875 36.55078125 -23.625 35.25 C-22.635 35.25 -21.645 35.25 -20.625 35.25 C-20.625 34.26 -20.625 33.27 -20.625 32.25 C-19.37608386 31.76801537 -18.12581192 31.28954323 -16.875 30.8125 C-16.17890625 30.54566406 -15.4828125 30.27882812 -14.765625 30.00390625 C-9.66315981 28.20687015 -5.05421242 28.06681061 0.3125 28.0625 C1.11107422 28.05025391 1.90964844 28.03800781 2.73242188 28.02539062 C7.07090705 28.01460731 10.4225252 28.22984621 14.375 30.25 C14.09390887 28.60232753 13.79981474 26.95686855 13.5 25.3125 C13.33757812 24.39597656 13.17515625 23.47945312 13.0078125 22.53515625 C12.79898438 21.78105469 12.59015625 21.02695313 12.375 20.25 C11.715 19.92 11.055 19.59 10.375 19.25 C10.375 18.59 10.375 17.93 10.375 17.25 C1.80888119 14.75154868 -7.89177913 16.3964915 -16.625 17.25 C-16.625 17.91 -16.625 18.57 -16.625 19.25 C-17.945 19.25 -19.265 19.25 -20.625 19.25 C-20.625 19.91 -20.625 20.57 -20.625 21.25 C-21.945 21.25 -23.265 21.25 -24.625 21.25 C-24.625 15.97 -24.625 10.69 -24.625 5.25 C-15.8222623 1.65940962 -9.48349898 0.05037715 0 0 Z " fill="#FDFBF5" transform="translate(472.625,224.75)"/>
<path d="M0 0 C7.81169624 5.15174488 11.0429977 9.05150785 12.99609375 18.31640625 C13.37494172 22.80504262 13.3473856 27.25978256 13.2890625 31.76171875 C13.28481766 33.01274384 13.28057281 34.26376892 13.27619934 35.55270386 C13.26234579 38.844035 13.23549581 42.13490707 13.2020874 45.42608643 C13.17114195 48.79832403 13.15764228 52.17062943 13.14257812 55.54296875 C13.10964903 62.13431396 13.05793916 68.7252715 12.99609375 75.31640625 C5.73609375 75.31640625 -1.52390625 75.31640625 -9.00390625 75.31640625 C-9.03363525 72.89409668 -9.03363525 72.89409668 -9.06396484 70.42285156 C-9.13998408 64.43668917 -9.22870753 58.45077102 -9.32128906 52.46484375 C-9.35959395 49.87309589 -9.39444412 47.28129459 -9.42578125 44.68945312 C-9.47139842 40.96595142 -9.52939935 37.2428181 -9.58984375 33.51953125 C-9.60139496 32.35899231 -9.61294617 31.19845337 -9.62484741 30.00274658 C-9.6447171 28.9219281 -9.66458679 27.84110962 -9.68505859 26.72753906 C-9.69838226 25.77711731 -9.71170593 24.82669556 -9.72543335 23.84747314 C-10.01769922 21.19104062 -10.56973649 19.55864594 -12.00390625 17.31640625 C-16.07353575 14.92250655 -20.40312952 14.71104089 -25.00390625 15.31640625 C-28.85942859 16.99272031 -30.46424179 18.45546026 -32.00390625 22.31640625 C-32.32204253 24.85270735 -32.32204253 24.85270735 -32.30688477 27.61987305 C-32.32352676 28.67744308 -32.34016876 29.73501312 -32.35731506 30.82463074 C-32.36572922 31.96015884 -32.37414337 33.09568695 -32.3828125 34.265625 C-32.39980698 35.43398392 -32.41680145 36.60234283 -32.43431091 37.80610657 C-32.48746259 41.53865156 -32.52776127 45.27118503 -32.56640625 49.00390625 C-32.61027114 52.7472833 -32.6568976 56.49057223 -32.70921326 60.23384094 C-32.7412798 62.56416725 -32.76813518 64.89457186 -32.78944397 67.22502136 C-32.80293381 68.27313492 -32.81642365 69.32124847 -32.83032227 70.40112305 C-32.83983414 71.32837692 -32.84934601 72.2556308 -32.85914612 73.21098328 C-33.00390625 75.31640625 -33.00390625 75.31640625 -34.00390625 76.31640625 C-41.26390625 76.31640625 -48.52390625 76.31640625 -56.00390625 76.31640625 C-56.00390625 55.85640625 -56.00390625 35.39640625 -56.00390625 14.31640625 C-58.64390625 14.31640625 -61.28390625 14.31640625 -64.00390625 14.31640625 C-64.00390625 9.36640625 -64.00390625 4.41640625 -64.00390625 -0.68359375 C-56.74390625 -0.68359375 -49.48390625 -0.68359375 -42.00390625 -0.68359375 C-41.01390625 1.29640625 -40.02390625 3.27640625 -39.00390625 5.31640625 C-36.5168516 4.16853487 -34.43630043 2.91277545 -32.19140625 1.31640625 C-23.17844713 -4.33878379 -9.45732388 -5.13091106 0 0 Z " fill="#FCF9F8" transform="translate(585.00390625,227.68359375)"/>
<path d="M0 0 C5.28 0 10.56 0 16 0 C16.0227901 29.28361681 16.04049804 58.56723298 16.05106533 87.85085684 C16.0523161 91.30446121 16.05361042 94.75806557 16.05493164 98.21166992 C16.05519395 98.89924901 16.05545626 99.5868281 16.05572652 100.29524291 C16.06008327 111.44286168 16.06797084 122.59047532 16.0771528 133.73809104 C16.08648921 145.16817139 16.09198068 156.59824755 16.09408849 168.02833182 C16.09539604 174.45196223 16.09848461 180.87558099 16.10573006 187.29920769 C16.11248627 193.33766293 16.11461778 199.37610165 16.11310768 205.41456032 C16.11338419 207.63785771 16.11539167 209.86115563 16.11920547 212.08444977 C16.12413649 215.10567259 16.12300049 218.12683192 16.12025452 221.14805603 C16.12316736 222.0400613 16.1260802 222.93206656 16.12908131 223.85110229 C16.11412121 229.88587879 16.11412121 229.88587879 15 231 C10.05 231 5.1 231 0 231 C0 210.21 0 189.42 0 168 C3.3 168 6.6 168 10 168 C9.93845092 160.74058933 9.86110685 153.48152141 9.76428509 146.22249031 C9.71979508 142.85082574 9.68049406 139.47927606 9.65356445 136.10742188 C9.61982736 132.2197603 9.56749981 128.33271286 9.51171875 124.4453125 C9.50532883 123.25011993 9.4989389 122.05492737 9.49235535 120.82351685 C9.34308033 112.22313429 9.15472206 104.1962384 2.92738342 97.801651 C-0.79406762 93.58472938 -0.81893987 90.03002301 -0.68115234 84.57641602 C-0.6820285 83.6585582 -0.68290466 82.74070038 -0.68380737 81.79502869 C-0.6796484 78.78043612 -0.63307658 75.76810696 -0.5859375 72.75390625 C-0.57473935 70.65642004 -0.56620209 68.55891807 -0.56021118 66.46141052 C-0.53736182 60.95533506 -0.47847136 55.45021746 -0.4119873 49.94451904 C-0.35048119 44.32056636 -0.32317834 38.69645809 -0.29296875 33.07226562 C-0.22872499 22.04775749 -0.12639207 11.02395857 0 0 Z " fill="#0677B7" transform="translate(588,135)"/>
<path d="M0 0 C8.25 0 16.5 0 25 0 C25 50.49 25 100.98 25 153 C22.69 153.33 20.38 153.66 18 154 C16.47432994 152.47432994 16.86058178 151.10186532 16.84228516 148.97436523 C16.83202301 148.11934921 16.82176086 147.26433319 16.81118774 146.38340759 C16.80388641 145.45121902 16.79658508 144.51903046 16.7890625 143.55859375 C16.7609725 141.59309094 16.73230792 139.62759627 16.703125 137.66210938 C16.66200381 134.55721448 16.62512772 131.45246811 16.59863281 128.34741211 C16.57086973 125.35498312 16.52497325 122.36325074 16.4765625 119.37109375 C16.47330963 118.4530748 16.47005676 117.53505585 16.46670532 116.58921814 C16.34503459 110.14758474 15.59181555 104.19427146 11.38671875 99.01171875 C10.82597656 98.57472656 10.26523437 98.13773437 9.6875 97.6875 C9.13449219 97.23761719 8.58148438 96.78773438 8.01171875 96.32421875 C5.47686635 94.65564601 2.71434879 93.35717439 0 92 C0 61.64 0 31.28 0 0 Z " fill="#251D16" transform="translate(319,135)"/>
<path d="M0 0 C0.76135254 0.16226074 1.52270508 0.32452148 2.30712891 0.49169922 C5.38108332 1.0719325 8.24768508 1.1324283 11.375 1.125 C12.99535156 1.12886719 12.99535156 1.12886719 14.6484375 1.1328125 C18.11683605 0.99537013 21.56376582 0.4908906 25 0 C25 21.12 25 42.24 25 64 C17.08 64 9.16 64 1 64 C0 63 0 63 -0.12025452 60.48802185 C-0.11803391 59.37105423 -0.11581329 58.25408661 -0.11352539 57.10327148 C-0.11344986 55.84203964 -0.11337433 54.5808078 -0.11329651 53.28135681 C-0.1081891 51.89460206 -0.10297309 50.50784771 -0.09765625 49.12109375 C-0.09579201 47.71004791 -0.09436814 46.29900143 -0.09336853 44.88795471 C-0.08954379 41.16759465 -0.0797139 37.4472734 -0.06866455 33.72692871 C-0.05844948 29.93319219 -0.05387071 26.13944942 -0.04882812 22.34570312 C-0.03809158 14.89711769 -0.0210157 7.44856428 0 0 Z " fill="#201C17" transform="translate(319,302)"/>
<path d="M0 0 C3.3 -0.103125 6.6 -0.20625 10 -0.3125 C11.53527344 -0.38078003 11.53527344 -0.38078003 13.1015625 -0.45043945 C19.59804444 -0.54786154 24.04469574 0.66493686 29 5 C30.33827901 7.67655801 30.20578556 9.82434052 30.25 12.8125 C30.27578125 13.85019531 30.3015625 14.88789063 30.328125 15.95703125 C29.95593605 19.40864065 29.03459184 21.21710875 27 24 C19.55862159 29.78773877 8.86871331 28.07848419 0 28 C0 18.76 0 9.52 0 0 Z " fill="#F29205" transform="translate(379,259)"/>
<path d="M0 0 C1.11203343 24.67776227 1.13417717 49.33515637 1.10139394 74.0334239 C1.09504553 79.6426935 1.09454768 85.25196393 1.09336853 90.86123657 C1.09028848 101.4319088 1.08212104 112.00257041 1.07201904 122.57323802 C1.06075318 134.62932562 1.05532135 146.6854138 1.05032361 158.74150538 C1.03993475 183.49434276 1.02240135 208.24717078 1 233 C0.01 233.33 -0.98 233.66 -2 234 C-2 157.77 -2 81.54 -2 3 C-55.79 3 -109.58 3 -165 3 C-165 2.67 -165 2.34 -165 2 C-163.68567993 1.98969254 -162.37135986 1.97938507 -161.01721191 1.96876526 C-148.43261983 1.86961983 -135.84806204 1.76679607 -123.26352692 1.66066074 C-116.79874413 1.60624853 -110.33395678 1.55299055 -103.86914062 1.50268555 C-77.70352513 1.2983228 -51.54365808 1.090466 -25.3873291 0.32704163 C-24.63614807 0.30546305 -23.88496704 0.28388447 -23.11102295 0.26165199 C-21.14706725 0.20434844 -19.18320757 0.14377844 -17.21936035 0.08287048 C-11.48090884 -0.06136477 -5.7397801 -0.01566068 0 0 Z " fill="#BBE6C3" transform="translate(753,132)"/>
<path d="M0 0 C47.52 0 95.04 0 144 0 C144 29.7 144 59.4 144 90 C143.67 90 143.34 90 143 90 C143 60.96 143 31.92 143 2 C96.47 2.33 49.94 2.66 2 3 C2 6.3 2 9.6 2 13 C2.33 13 2.66 13 3 13 C3 30.16 3 47.32 3 65 C5.94585149 65.9819505 7.91360026 66.14084612 10.98706055 66.17358398 C12.00209152 66.18707382 13.0171225 66.20056366 14.06291199 66.21446228 C15.15976822 66.22490067 16.25662445 66.23533905 17.38671875 66.24609375 C19.71029007 66.27904304 22.03385769 66.31225449 24.35742188 66.34570312 C28.01974849 66.39303014 31.68206126 66.43744154 35.34448242 66.47680664 C38.87955665 66.51668218 42.41431862 66.56820072 45.94921875 66.62109375 C47.03595383 66.6295079 48.1226889 66.63792206 49.24235535 66.64659119 C55.16179057 66.74215969 60.32415709 67.293278 66 69 C63.50630648 69.71191767 62.09698252 70.01624561 59.49316406 69.58007812 C54.37614789 68.73034158 49.28856138 68.78265663 44.109375 68.71875 C42.39793304 68.69113586 42.39793304 68.69113586 40.6519165 68.66296387 C35.78073305 68.58442463 30.9094185 68.5163191 26.03808594 68.44775391 C22.47844367 68.3961443 18.91892411 68.33887665 15.359375 68.28125 C14.25108337 68.26767456 13.14279175 68.25409912 12.00091553 68.2401123 C10.97935364 68.22339478 9.95779175 68.20667725 8.90527344 68.18945312 C8.00403748 68.17692505 7.10280151 68.16439697 6.17425537 68.15148926 C4 68 4 68 2 67 C1.67 95.05 1.34 123.1 1 152 C0.67 152 0.34 152 0 152 C0 101.84 0 51.68 0 0 Z " fill="#EE9219" transform="translate(344,135)"/>
<path d="M0 0 C55.77 0 111.54 0 169 0 C169 30.03 169 60.06 169 91 C162.73 91 156.46 91 150 91 C144.44570295 93.14071865 140.98495186 94.75353567 137 99 C132.44328408 97.48109469 128.68276708 95.04597738 125 92 C125 91.67 125 91.34 125 91 C126.98 91 128.96 91 131 91 C131 91.66 131 92.32 131 93 C131.99 92.34 132.98 91.68 134 91 C136.5625 90.875 136.5625 90.875 139 91 C141.49159682 91 143.37225733 90.2597521 145.75 89.5 C152.19601597 87.68999287 161.77225021 85.8861251 168 89 C167.67 60.29 167.34 31.58 167 2 C112.22 1.67 57.44 1.34 1 1 C1 76.57 1 152.14 1 230 C0.67 230 0.34 230 0 230 C0 154.1 0 78.2 0 0 Z " fill="#D12B1E" transform="translate(150,135)"/>
<path d="M0 0 C17.42668172 -0.46265527 17.42668172 -0.46265527 23.640625 4.2421875 C26.12803695 7.45866847 25.51733061 11.13082939 25.41796875 15.0390625 C24.78042983 19.55545973 23.50584986 21.11741234 20 24 C15.78427348 25.23460562 11.54117732 25.11623736 7.1875 25.0625 C4.815625 25.041875 2.44375 25.02125 0 25 C0 16.75 0 8.5 0 0 Z " fill="#F39103" transform="translate(379,220)"/>
<path d="M0 0 C2.27057377 -0.05398987 4.54151288 -0.09278742 6.8125 -0.125 C8.07707031 -0.14820313 9.34164063 -0.17140625 10.64453125 -0.1953125 C14 0 14 0 17 2 C18.03246484 8.67053261 17.58929516 15.23148992 14 21 C11.8125 21.9375 11.8125 21.9375 10 22 C10 22.66 10 23.32 10 24 C3.49686791 24.46450943 -0.4174808 23.32575612 -6 20 C-6.10823773 17.75106046 -6.18569645 15.50062425 -6.25 13.25 C-6.29640625 11.99703125 -6.3428125 10.7440625 -6.390625 9.453125 C-6 6 -6 6 -4.109375 3.546875 C-2 2 -2 2 0 2 C0 1.34 0 0.68 0 0 Z " fill="#F19308" transform="translate(470,266)"/>
<path d="M0 0 C33 0 66 0 100 0 C100.33 31.35 100.66 62.7 101 95 C99.35 94.34 97.7 93.68 96 93 C91.36949392 91.21706276 87.0478112 90.60396796 82.125 90.375 C81.43664062 90.33632812 80.74828125 90.29765625 80.0390625 90.2578125 C78.35976754 90.16451834 76.67992233 90.08121762 75 90 C75.33 89.34 75.66 88.68 76 88 C77.99928362 87.91771241 79.99959318 87.86023698 82 87.8125 C83.670625 87.76029297 83.670625 87.76029297 85.375 87.70703125 C89 88 89 88 97 91 C97 61.3 97 31.6 97 1 C64.99 1 32.98 1 0 1 C0 0.67 0 0.34 0 0 Z " fill="#9C282F" transform="translate(488,135)"/>
<path d="M0 0 C0.66 0.33 1.32 0.66 2 1 C2 1.66 2 2.32 2 3 C17.51 3 33.02 3 49 3 C49 3.33 49 3.66 49 4 C32.5 4 16 4 -1 4 C-1 80.56 -1 157.12 -1 236 C-1.33 236 -1.66 236 -2 236 C-2.1656876 214.18039239 -2.32554272 192.36074529 -2.48177338 170.54106808 C-2.49992516 168.01043333 -2.51816961 165.47979926 -2.53643799 162.94916534 C-3.04751068 92.07064046 -3.04751068 92.07064046 -3.03125 62.7734375 C-3.03074142 61.80656258 -3.03023285 60.83968765 -3.02970886 59.84351349 C-3.0236936 51.25442936 -3.00698978 42.66543749 -2.97194672 34.07642174 C-2.96042244 31.11097753 -2.95228376 28.14552904 -2.94456482 25.18007278 C-2.93783628 23.2451421 -2.92518951 21.31023468 -2.91223145 19.37533569 C-2.89528773 13.48002221 -3.09033085 7.82779183 -4 2 C-2.125 0.9375 -2.125 0.9375 0 0 Z " fill="#FDE7E0" transform="translate(150,130)"/>
<path d="M0 0 C0.33 0 0.66 0 1 0 C1 17.82 1 35.64 1 54 C4.96 54 8.92 54 13 54 C13 74.79 13 95.58 13 117 C-20 117 -53 117 -87 117 C-87 116.67 -87 116.34 -87 116 C-54.99 116 -22.98 116 10 116 C10 96.2 10 76.4 10 56 C6.7 56 3.4 56 0 56 C0 37.52 0 19.04 0 0 Z " fill="#A72E37" transform="translate(575,249)"/>
<path d="M0 0 C2.64 0 5.28 0 8 0 C8 30.03 8 60.06 8 91 C7.67 91 7.34 91 7 91 C6.18988174 83.04593092 5.70722748 75.11491501 5.4375 67.125 C5.3950415 65.88153809 5.35258301 64.63807617 5.30883789 63.35693359 C4.70478439 43.91415644 4.9155507 24.44932418 5 5 C5.66 5 6.32 5 7 5 C7 4.01 7 3.02 7 2 C5.02 2 3.04 2 1 2 C1.16233124 2.58336624 1.32466248 3.16673248 1.49191284 3.76777649 C2.28352046 7.2456151 2.14176603 10.7442571 2.1328125 14.29296875 C2.13479141 15.55144371 2.13479141 15.55144371 2.1368103 16.83534241 C2.13874468 19.61943098 2.13233119 22.40342137 2.125 25.1875 C2.12411377 26.1403186 2.12322754 27.09313721 2.12231445 28.0748291 C2.09676777 51.72221608 1.5710905 75.36049841 1 99 C0.67 99 0.34 99 0 99 C0 66.33 0 33.66 0 0 Z " fill="#1E9A3F" transform="translate(605,212)"/>
<path d="M0 0 C0.33 0 0.66 0 1 0 C1.33 4.29 1.66 8.58 2 13 C2.33 13 2.66 13 3 13 C3 30.16 3 47.32 3 65 C5.94585149 65.9819505 7.91360026 66.14084612 10.98706055 66.17358398 C12.00209152 66.18707382 13.0171225 66.20056366 14.06291199 66.21446228 C15.15976822 66.22490067 16.25662445 66.23533905 17.38671875 66.24609375 C19.71029007 66.27904304 22.03385769 66.31225449 24.35742188 66.34570312 C28.01974849 66.39303014 31.68206126 66.43744154 35.34448242 66.47680664 C38.87955665 66.51668218 42.41431862 66.56820072 45.94921875 66.62109375 C47.03595383 66.6295079 48.1226889 66.63792206 49.24235535 66.64659119 C55.16179057 66.74215969 60.32415709 67.293278 66 69 C63.50630648 69.71191767 62.09698252 70.01624561 59.49316406 69.58007812 C54.37614789 68.73034158 49.28856138 68.78265663 44.109375 68.71875 C42.39793304 68.69113586 42.39793304 68.69113586 40.6519165 68.66296387 C35.78073305 68.58442463 30.9094185 68.5163191 26.03808594 68.44775391 C22.47844367 68.3961443 18.91892411 68.33887665 15.359375 68.28125 C14.25108337 68.26767456 13.14279175 68.25409912 12.00091553 68.2401123 C10.97935364 68.22339478 9.95779175 68.20667725 8.90527344 68.18945312 C8.00403748 68.17692505 7.10280151 68.16439697 6.17425537 68.15148926 C4 68 4 68 2 67 C1.67 95.05 1.34 123.1 1 152 C0.67 152 0.34 152 0 152 C0 101.84 0 51.68 0 0 Z " fill="#D1800B" transform="translate(344,135)"/>
<path d="M0 0 C19.47 0 38.94 0 59 0 C59 0.33 59 0.66 59 1 C39.86 1 20.72 1 1 1 C1 5.62 1 10.24 1 15 C4.3 15 7.6 15 11 15 C11.33 42.06 11.66 69.12 12 97 C29.82 97 47.64 97 66 97 C66 97.33 66 97.66 66 98 C62.48846902 98.79903204 59.25723894 99.12228039 55.65893555 99.11352539 C54.60379761 99.11340454 53.54865967 99.11328369 52.46154785 99.11315918 C50.81575745 99.10548523 50.81575745 99.10548523 49.13671875 99.09765625 C48.11952759 99.09664917 47.10233643 99.09564209 46.05432129 99.09460449 C42.26536934 99.08938419 38.4764335 99.07542293 34.6875 99.0625 C26.210625 99.041875 17.73375 99.02125 9 99 C9 71.61 9 44.22 9 16 C6.03 16 3.06 16 0 16 C0 10.72 0 5.44 0 0 Z " fill="#FEECC4" transform="translate(347,204)"/>
<path d="M0 0 C0.33 0.66 0.66 1.32 1 2 C18.82 2.33 36.64 2.66 55 3 C55 3.33 55 3.66 55 4 C37.51 4 20.02 4 2 4 C2 9.28 2 14.56 2 20 C4.97 20 7.94 20 11 20 C11 47.39 11 74.78 11 103 C27.5 103 44 103 61 103 C61 103.33 61 103.66 61 104 C44.17 104 27.34 104 10 104 C10 76.61 10 49.22 10 21 C7.03 21 4.06 21 1 21 C0 20 0 20 -0.11352539 18.05053711 C-0.10567017 16.8015564 -0.10567017 16.8015564 -0.09765625 15.52734375 C-0.09443359 14.62822266 -0.09121094 13.72910156 -0.08789062 12.80273438 C-0.07951172 11.85720703 -0.07113281 10.91167969 -0.0625 9.9375 C-0.05798828 8.98810547 -0.05347656 8.03871094 -0.04882812 7.06054688 C-0.0370011 4.70696935 -0.02052025 2.35351523 0 0 Z " fill="#E9A946" transform="translate(345,200)"/>
<path d="M0 0 C0.33 0 0.66 0 1 0 C1 29.37 1 58.74 1 89 C6.61 89.33 12.22 89.66 18 90 C18 89.34 18 88.68 18 88 C18.66 88 19.32 88 20 88 C19.67 77.44 19.34 66.88 19 56 C19.66 56.33 20.32 56.66 21 57 C23.3329866 57.04022391 25.66706666 57.04320247 28 57 C28 57.33 28 57.66 28 58 C26.02 58 24.04 58 22 58 C22 69.22 22 80.44 22 92 C14.74 92 7.48 92 0 92 C0 61.64 0 31.28 0 0 Z " fill="#CDF0D3" transform="translate(614,212)"/>
<path d="M0 0 C2.475 0.495 2.475 0.495 5 1 C4.01 1.33 3.02 1.66 2 2 C2 22.13 2 42.26 2 63 C9.26 63 16.52 63 24 63 C24 42.21 24 21.42 24 0 C24.33 0 24.66 0 25 0 C25 21.12 25 42.24 25 64 C17.08 64 9.16 64 1 64 C0 63 0 63 -0.12025452 60.48802185 C-0.11803391 59.37105423 -0.11581329 58.25408661 -0.11352539 57.10327148 C-0.11344986 55.84203964 -0.11337433 54.5808078 -0.11329651 53.28135681 C-0.1081891 51.89460206 -0.10297309 50.50784771 -0.09765625 49.12109375 C-0.09579201 47.71004791 -0.09436814 46.29900143 -0.09336853 44.88795471 C-0.08954379 41.16759465 -0.0797139 37.4472734 -0.06866455 33.72692871 C-0.05844948 29.93319219 -0.05387071 26.13944942 -0.04882812 22.34570312 C-0.03809158 14.89711769 -0.0210157 7.44856428 0 0 Z " fill="#4E2413" transform="translate(319,302)"/>
<path d="M0 0 C0.33 0 0.66 0 1 0 C1.33 18.81 1.66 37.62 2 57 C5.95448845 57.98862211 9.70605624 58.32934256 13.75 58.5625 C14.79607422 58.62727539 14.79607422 58.62727539 15.86328125 58.69335938 C17.57531922 58.79889596 19.28763561 58.8998991 21 59 C20.99555878 58.41562164 20.99111755 57.83124329 20.98654175 57.22915649 C20.94239238 51.16256142 20.91216866 45.09601177 20.89013672 39.02929688 C20.88006141 36.76332751 20.86640082 34.49737119 20.84912109 32.23144531 C20.82493989 28.97978499 20.81353237 25.72829613 20.8046875 22.4765625 C20.79436493 21.45881744 20.78404236 20.44107239 20.77340698 19.39248657 C20.77325592 18.45166229 20.77310486 17.51083801 20.77294922 16.54150391 C20.768508 15.71099518 20.76406677 14.88048645 20.75949097 14.02481079 C21 12 21 12 23 10 C23.02526787 17.10244999 23.04283201 24.20488848 23.05493164 31.30737305 C23.05997349 33.72567172 23.06680678 36.14396733 23.07543945 38.56225586 C23.08751157 42.02979283 23.09322963 45.49728966 23.09765625 48.96484375 C23.10281754 50.05337143 23.10797882 51.14189911 23.11329651 52.26341248 C23.11340981 53.76485558 23.11340981 53.76485558 23.11352539 55.29663086 C23.115746 56.18265488 23.11796661 57.06867889 23.12025452 57.98155212 C23 60 23 60 22 61 C14.74 61 7.48 61 0 61 C0 40.87 0 20.74 0 0 Z " fill="#F2AAA5" transform="translate(529,243)"/>
<path d="M0 0 C0.66 0 1.32 0 2 0 C2.01030746 1.09802948 2.02061493 2.19605896 2.03123474 3.32736206 C2.12884218 13.65752944 2.23156407 23.98763488 2.33933926 34.31770134 C2.39458654 39.62893443 2.44800943 44.940173 2.49731445 50.25146484 C2.54493136 55.37376946 2.59727319 60.49600568 2.65294075 65.61822891 C2.67337643 67.57590159 2.69208748 69.53359303 2.70907402 71.49129868 C2.73309118 74.22587643 2.76314937 76.96032423 2.79467773 79.69482422 C2.8004332 80.51049866 2.80618866 81.3261731 2.81211853 82.16656494 C2.77284124 86.21462543 2.77284124 86.21462543 4 90 C2.68 90 1.36 90 0 90 C0 60.3 0 30.6 0 0 Z " fill="#CB2E00" transform="translate(488,136)"/>
<path d="M0 0 C0.33 0 0.66 0 1 0 C1.33 19.47 1.66 38.94 2 59 C7.94 58.67 13.88 58.34 20 58 C19.96519531 53.70355469 19.96519531 53.70355469 19.9296875 49.3203125 C19.91410078 46.55355269 19.90195046 43.78679772 19.89013672 41.02001953 C19.88006418 39.09356506 19.86640557 37.16712592 19.84912109 35.24072266 C19.82492759 32.47554748 19.81352964 29.710574 19.8046875 26.9453125 C19.79436493 26.0806839 19.78404236 25.2160553 19.77340698 24.32522583 C19.77300894 22.21546479 19.87734757 20.10619282 20 18 C20.66 17.34 21.32 16.68 22 16 C22 30.52 22 45.04 22 60 C14.74 60 7.48 60 0 60 C0 40.2 0 20.4 0 0 Z " fill="#FED2CA" transform="translate(222,243)"/>
<path d="M0 0 C4 2 4 2 6.34765625 3.60546875 C9.58880191 5.30957626 11.79339614 5.368299 15.4375 5.3125 C16.52933594 5.30863281 17.62117188 5.30476563 18.74609375 5.30078125 C22.1008348 4.99067914 24.85850027 4.18931589 28 3 C28 3.66 28 4.32 28 5 C27.34 5 26.68 5 26 5 C26 5.66 26 6.32 26 7 C18.41 7 10.82 7 3 7 C2.93941406 10.24199219 2.87882812 13.48398437 2.81640625 16.82421875 C2.75439099 20.00498264 2.69109754 23.18571876 2.62768555 26.36645508 C2.58468586 28.55718453 2.54299052 30.74794002 2.50268555 32.9387207 C2.07132673 56.29067619 2.07132673 56.29067619 1 67 C0.67 67 0.34 67 0 67 C0 44.89 0 22.78 0 0 Z " fill="#CF2E01" transform="translate(488,298)"/>
<path d="M0 0 C2.20143283 1.98128955 3.24588535 3.48231357 4.625 6.1875 C6.64160145 9.18811675 6.64160145 9.18811675 9.2578125 9.38671875 C11.53329781 9.37601898 13.74028049 9.26073687 16 9 C16.32258065 18.35483871 16.32258065 18.35483871 14 23 C8.07340728 26.0467695 0.79356266 26.19209477 -5.5234375 24.20703125 C-7.6875 23.1875 -7.6875 23.1875 -11 21 C-11.33 20.01 -11.66 19.02 -12 18 C-5.9453125 18.390625 -5.9453125 18.390625 -4 19 C-2.7421875 21.046875 -2.7421875 21.046875 -2 23 C-0.39620659 23.05416188 1.20811406 23.09286638 2.8125 23.125 C3.70582031 23.14820313 4.59914063 23.17140625 5.51953125 23.1953125 C8.25402714 23.18285827 8.25402714 23.18285827 11 21 C11.36297936 19.02252878 11.36297936 19.02252878 11.1875 16.875 C11.125625 15.59625 11.06375 14.3175 11 13 C9.35 13 7.7 13 6 13 C5.896875 12.360625 5.79375 11.72125 5.6875 11.0625 C5.460625 10.381875 5.23375 9.70125 5 9 C4.01 8.67 3.02 8.34 2 8 C2 6.68 2 5.36 2 4 C1.34 4 0.68 4 0 4 C0 2.68 0 1.36 0 0 Z " fill="#EFFCF5" transform="translate(671,279)"/>
<path d="M0 0 C9.9 0 19.8 0 30 0 C30 18.81 30 37.62 30 57 C29.67 57 29.34 57 29 57 C28.67 39.18 28.34 21.36 28 3 C19.09 2.67 10.18 2.34 1 2 C1 5.96 1 9.92 1 14 C3.64 14 6.28 14 9 14 C9 14.33 9 14.66 9 15 C6.03 15 3.06 15 0 15 C0 10.05 0 5.1 0 0 Z " fill="#E7FEEB" transform="translate(605,196)"/>
<path d="M0 0 C5.0428125 -0.0928125 5.0428125 -0.0928125 10.1875 -0.1875 C11.76374146 -0.22846802 11.76374146 -0.22846802 13.37182617 -0.27026367 C18.393026 -0.31503993 21.92686596 -0.3230494 26 3 C25.01 3.33 24.02 3.66 23 4 C22.34 3.67 21.68 3.34 21 3 C19.5534758 2.84932786 18.1012066 2.75138964 16.6484375 2.68359375 C15.88192871 2.64548584 15.11541992 2.60737793 14.32568359 2.56811523 C13.35195801 2.52501221 12.37823242 2.48190918 11.375 2.4375 C8.28125 2.293125 5.1875 2.14875 2 2 C2 9.92 2 17.84 2 26 C8.6 26 15.2 26 22 26 C22 26.33 22 26.66 22 27 C14.63034668 28.21709489 7.47491524 28.06614969 0 28 C0 18.76 0 9.52 0 0 Z " fill="#E7A039" transform="translate(379,259)"/>
<path d="M0 0 C2.64 0 5.28 0 8 0 C8 20.13 8 40.26 8 61 C6 59 6 59 5.75949097 56.59555054 C5.76393219 55.58739288 5.76837341 54.57923523 5.77294922 53.54052734 C5.77310028 52.39949554 5.77325134 51.25846375 5.77340698 50.08285522 C5.78372955 48.84637238 5.79405212 47.60988953 5.8046875 46.3359375 C5.80893234 44.4424205 5.80893234 44.4424205 5.81326294 42.51065063 C5.82257869 39.15353056 5.84055165 35.79668088 5.8626709 32.43963623 C5.8831245 29.01446878 5.8922636 25.58927341 5.90234375 22.1640625 C5.92443542 15.44263329 5.95793623 8.72133227 6 2 C3.03 1.505 3.03 1.505 0 1 C0 0.67 0 0.34 0 0 Z " fill="#BD1A1E" transform="translate(521,242)"/>
<path d="M0 0 C1.02512296 3.38562774 1.12676027 6.47741013 1.12939453 10.00610352 C1.13254669 11.21738419 1.13569885 12.42866486 1.13894653 13.676651 C1.1369223 14.98089523 1.13489807 16.28513947 1.1328125 17.62890625 C1.13348639 18.98363767 1.13445712 20.33836897 1.13571167 21.69309998 C1.13718414 24.52840326 1.13504822 27.363675 1.13037109 30.19897461 C1.12466861 33.83288103 1.12795893 37.46671368 1.13394356 41.10061741 C1.13755667 43.89642391 1.13640722 46.69221291 1.13381577 49.48801994 C1.13282467 51.47944563 1.13586057 53.47087199 1.13894653 55.46229553 C1.13421829 57.2744883 1.13421829 57.2744883 1.12939453 59.12329102 C1.12859894 60.18822281 1.12780334 61.2531546 1.12698364 62.35035706 C1 65 1 65 0 68 C-0.66 67.67 -1.32 67.34 -2 67 C-1.97679687 66.30132812 -1.95359375 65.60265625 -1.9296875 64.8828125 C-1.91164063 63.97273438 -1.89359375 63.06265625 -1.875 62.125 C-1.84019531 60.76761719 -1.84019531 60.76761719 -1.8046875 59.3828125 C-1.75675164 56.81193006 -1.75675164 56.81193006 -4 55 C-3.01 54.505 -3.01 54.505 -2 54 C-1.9845388 53.02947189 -1.9845388 53.02947189 -1.96876526 52.03933716 C-1.8608425 45.32380778 -1.7462332 38.60841646 -1.62768555 31.89306641 C-1.58429097 29.38463216 -1.5426193 26.87616751 -1.50268555 24.36767578 C-1.44509243 20.76846132 -1.38136657 17.16940058 -1.31640625 13.5703125 C-1.29969376 12.44319855 -1.28298126 11.31608459 -1.26576233 10.15481567 C-1.24581711 9.11388763 -1.22587189 8.07295959 -1.20532227 7.00048828 C-1.18977798 6.08115509 -1.1742337 5.1618219 -1.15821838 4.21463013 C-1 2 -1 2 0 0 Z " fill="#F0960F" transform="translate(346,233)"/>
<path d="M0 0 C0.83265381 0.00523682 1.66530762 0.01047363 2.52319336 0.01586914 C3.42231445 0.0190918 4.32143555 0.02231445 5.24780273 0.02563477 C6.66609375 0.03820312 6.66609375 0.03820312 8.11303711 0.05102539 C9.06243164 0.05553711 10.01182617 0.06004883 10.98999023 0.06469727 C13.34356776 0.07652429 15.69702188 0.09300514 18.05053711 0.11352539 C18.05053711 0.77352539 18.05053711 1.43352539 18.05053711 2.11352539 C11.78053711 1.78352539 5.51053711 1.45352539 -0.94946289 1.11352539 C-0.94946289 9.36352539 -0.94946289 17.61352539 -0.94946289 26.11352539 C8.45553711 25.61852539 8.45553711 25.61852539 18.05053711 25.11352539 C18.05053711 25.77352539 18.05053711 26.43352539 18.05053711 27.11352539 C15.64993894 28.31382447 14.15693062 28.22812282 11.48022461 28.21118164 C10.58432617 28.20795898 9.68842773 28.20473633 8.76538086 28.20141602 C7.82823242 28.19303711 6.89108398 28.1846582 5.92553711 28.17602539 C4.9806543 28.17151367 4.03577148 28.16700195 3.06225586 28.16235352 C0.72495324 28.15054896 -1.6122235 28.13408298 -3.94946289 28.11352539 C-3.81135384 23.63408504 -3.66268873 19.15505756 -3.51196289 14.67602539 C-3.47264648 13.39663086 -3.43333008 12.11723633 -3.39282227 10.79907227 C-3.35092773 9.58413086 -3.3090332 8.36918945 -3.26586914 7.11743164 C-3.22921143 5.99151611 -3.19255371 4.86560059 -3.15478516 3.70556641 C-2.87451747 0.16739519 -2.87451747 0.16739519 0 0 Z " fill="#FEF1C4" transform="translate(379.949462890625,218.886474609375)"/>
<path d="M0 0 C3.43630002 1.14543334 3.80114099 1.77364112 5.625 4.75 C6.05039062 5.42546875 6.47578125 6.1009375 6.9140625 6.796875 C9.54956647 12.14372478 9.13130044 17.85540277 9.09765625 23.67578125 C9.0962413 24.6009404 9.09482635 25.52609955 9.09336853 26.47929382 C9.08778715 29.42372927 9.07523805 32.36808767 9.0625 35.3125 C9.05748259 37.31314994 9.05292011 39.31380108 9.04882812 41.31445312 C9.03782381 46.20966494 9.02057198 51.10481942 9 56 C8.67 56 8.34 56 8 56 C7.24322915 49.96416332 6.86121727 44.10615896 6.90234375 38.02734375 C6.9037587 37.21882462 6.90517365 36.41030548 6.90663147 35.57728577 C6.91216586 33.03065058 6.9247054 30.48410797 6.9375 27.9375 C6.9425235 26.19596482 6.94708491 24.45442825 6.95117188 22.71289062 C6.96211366 18.47522552 6.97933174 14.23762837 7 10 C6.34 10 5.68 10 5 10 C4.87625 9.071875 4.87625 9.071875 4.75 8.125 C4.18741541 5.81562433 4.18741541 5.81562433 1.9375 4.75 C1.298125 4.5025 0.65875 4.255 0 4 C0 2.68 0 1.36 0 0 Z " fill="#F8BCBF" transform="translate(500,232)"/>
<path d="M0 0 C1.485 0.99 1.485 0.99 3 2 C3.39872742 4.06277466 3.39872742 4.06277466 3.43237305 6.63330078 C3.45216721 7.59414581 3.47196136 8.55499084 3.49235535 9.54495239 C3.50194023 11.10438065 3.50194023 11.10438065 3.51171875 12.6953125 C3.52966995 13.75789276 3.54762115 14.82047302 3.56611633 15.91525269 C3.62042002 19.31846107 3.65417963 22.72152764 3.6875 26.125 C3.72065532 28.42840524 3.75514329 30.73179172 3.79101562 33.03515625 C3.87615777 38.68997699 3.94442232 44.34481564 4 50 C1.99002939 48.35015962 1.08398392 47.45181492 0.60127258 44.85493469 C0.59016953 44.02664658 0.57906647 43.19835846 0.56762695 42.3449707 C0.54783279 41.40422195 0.52803864 40.46347321 0.50764465 39.49421692 C0.50125473 38.48163315 0.49486481 37.46904938 0.48828125 36.42578125 C0.47033005 35.38681198 0.45237885 34.34784271 0.43388367 33.27738953 C0.37965957 29.95580109 0.34584572 26.63435734 0.3125 23.3125 C0.27933766 21.06182877 0.24484903 18.81117666 0.20898438 16.56054688 C0.12392632 11.04049432 0.05562777 5.52042331 0 0 Z " fill="#DB4133" transform="translate(311,246)"/>
<path d="M0 0 C2.27057377 -0.05398987 4.54151288 -0.09278742 6.8125 -0.125 C8.07707031 -0.14820313 9.34164063 -0.17140625 10.64453125 -0.1953125 C14 0 14 0 17 2 C17.29296875 4.8203125 17.29296875 4.8203125 17.1875 8.125 C17.16042969 9.22070312 17.13335937 10.31640625 17.10546875 11.4453125 C17.07066406 12.28835938 17.03585937 13.13140625 17 14 C16.67 14 16.34 14 16 14 C15.505 9.05 15.505 9.05 15 4 C11.87097732 3.21774433 9.64324042 2.8394113 6.5 2.8125 C5.37078125 2.79123047 5.37078125 2.79123047 4.21875 2.76953125 C1.68543335 3.03267506 0.12357529 3.59825403 -2 5 C-3.74706142 10.24118425 -3.32791716 15.68833136 -2 21 C-3.32 20.67 -4.64 20.34 -6 20 C-6.10823773 17.75106046 -6.18569645 15.50062425 -6.25 13.25 C-6.29640625 11.99703125 -6.3428125 10.7440625 -6.390625 9.453125 C-6 6 -6 6 -4.109375 3.546875 C-2 2 -2 2 0 2 C0 1.34 0 0.68 0 0 Z " fill="#ECA543" transform="translate(470,266)"/>
<path d="M0 0 C1.32 0.33 2.64 0.66 4 1 C4 1.66 4 2.32 4 3 C4.99 3.33 5.98 3.66 7 4 C8.1577506 7.47325181 8.06866652 10.36067448 8 14 C7.05060547 13.76990234 7.05060547 13.76990234 6.08203125 13.53515625 C1.95973151 12.81937036 -2.13766507 12.63849837 -6.3125 12.4375 C-7.14845703 12.39431641 -7.98441406 12.35113281 -8.84570312 12.30664062 C-10.89696935 12.20114693 -12.9484648 12.10012685 -15 12 C-15 11.34 -15 10.68 -15 10 C-7.08 9.505 -7.08 9.505 1 9 C1 8.34 1 7.68 1 7 C1.99 7 2.98 7 4 7 C4 6.01 4 5.02 4 4 C3.34 4 2.68 4 2 4 C2 3.34 2 2.68 2 2 C1.34 2 0.68 2 0 2 C0 1.34 0 0.68 0 0 Z " fill="#E99B29" transform="translate(479,241)"/>
<path d="M0 0 C2.40437317 2.30145264 2.40437317 2.30145264 3.00564575 4.94641113 C2.99454269 5.95012756 2.98343964 6.95384399 2.97200012 7.98797607 C2.97162247 9.12885681 2.97124481 10.26973755 2.97085571 11.44519043 C2.94504929 12.67135071 2.91924286 13.89751099 2.89265442 15.16082764 C2.88557968 16.42034241 2.87850494 17.67985718 2.87121582 18.97753906 C2.84797193 22.3188062 2.80309129 25.65835587 2.74769592 28.99914551 C2.69645526 32.4109618 2.67369173 35.82295584 2.64851379 39.23504639 C2.59336757 45.92432245 2.50968052 52.61278841 2.40437317 59.30145264 C2.07437317 59.30145264 1.74437317 59.30145264 1.40437317 59.30145264 C1.39850693 58.64856766 1.39264069 57.99568268 1.38659668 57.32301331 C1.32264683 50.52574626 1.23822255 43.72895197 1.141922 36.93206787 C1.10867429 34.39567295 1.08064192 31.85920408 1.05793762 29.32269287 C1.02438976 25.67596936 0.97207165 22.02992353 0.91609192 18.38348389 C0.909702 17.24998001 0.90331207 16.11647614 0.89672852 14.94862366 C0.87693436 13.88790146 0.8571402 12.82717926 0.83674622 11.73431396 C0.82564316 10.80387772 0.8145401 9.87344147 0.80310059 8.91481018 C0.2310243 5.16528153 -1.27231359 2.33069627 -4.28312683 -0.01104736 C-7.76350883 -1.04575553 -10.97218549 -0.81932874 -14.59562683 -0.69854736 C-14.59562683 -1.35854736 -14.59562683 -2.01854736 -14.59562683 -2.69854736 C-9.22878926 -4.35999597 -4.57381542 -2.99305048 0 0 Z " fill="#FED6CC" transform="translate(266.5956268310547,243.69854736328125)"/>
<path d="M0 0 C0.495 2.475 0.495 2.475 1 5 C-2 5 -2 5 -3.8125 4.375 C-6.08022043 3.7889926 -6.08022043 3.7889926 -8.38916016 4.96435547 C-13.58943785 6.45587528 -18.57870305 6.24552494 -23.9609375 6.1953125 C-25.10664215 6.1924826 -26.2523468 6.18965271 -27.43276978 6.18673706 C-31.08028755 6.17557135 -34.72755685 6.15047299 -38.375 6.125 C-40.85286103 6.11496555 -43.33072592 6.10584051 -45.80859375 6.09765625 C-51.87248014 6.0756438 -57.93622231 6.04220194 -64 6 C-64 5.67 -64 5.34 -64 5 C-63.1003653 4.99453156 -63.1003653 4.99453156 -62.18255615 4.98895264 C-55.8869481 4.94683607 -49.59204944 4.87729046 -43.296875 4.79248047 C-40.95384855 4.76441834 -38.61073003 4.74313115 -36.26757812 4.72900391 C-32.88103594 4.70736927 -29.49558379 4.66061406 -26.109375 4.609375 C-25.07762146 4.60814636 -24.04586792 4.60691772 -22.98284912 4.60565186 C-16.25740689 4.47305276 -10.70036316 3.20392238 -4.39459229 0.85357666 C-2 0 -2 0 0 0 Z " fill="#E59417" transform="translate(420,299)"/>
<path d="M0 0 C0 1.98 0 3.96 0 6 C-0.99 6 -1.98 6 -3 6 C-3.59944149 19.09399328 -3.59944149 19.09399328 1 31 C0.505 32.485 0.505 32.485 0 34 C-4 27.25 -4 27.25 -4 25 C-4.66 25 -5.32 25 -6 25 C-6.13558695 21.95682614 -6.23437239 18.91974438 -6.3125 15.875 C-6.35439453 15.0190625 -6.39628906 14.163125 -6.43945312 13.28125 C-6.52492845 8.83653335 -6.42377927 5.90944704 -3.54296875 2.3828125 C-1 0 -1 0 0 0 Z " fill="#FAEDCA" transform="translate(448,263)"/>
<path d="M0 0 C4.95 0 9.9 0 15 0 C15 0.33 15 0.66 15 1 C10.71 1 6.42 1 2 1 C2.33 8.26 2.66 15.52 3 23 C6.96 23.33 10.92 23.66 15 24 C15 24.33 15 24.66 15 25 C10.05 25 5.1 25 0 25 C0 16.75 0 8.5 0 0 Z " fill="#E19C2F" transform="translate(379,220)"/>
<path d="M0 0 C0.83220062 0.24212975 0.83220062 0.24212975 1.68121338 0.489151 C4.21603087 1.04759349 6.50539383 1.14587162 9.10058594 1.17358398 C10.11554138 1.18707382 11.13049683 1.20056366 12.1762085 1.21446228 C13.26790344 1.22490067 14.35959839 1.23533905 15.484375 1.24609375 C17.80469119 1.27903809 20.1250036 1.31224964 22.4453125 1.34570312 C26.09665275 1.39304985 29.74797832 1.43747823 33.39941406 1.47680664 C36.92789703 1.51667516 40.45606672 1.56818888 43.984375 1.62109375 C45.60977203 1.63371498 45.60977203 1.63371498 47.26800537 1.64659119 C53.17861826 1.742317 58.33234587 2.29689293 64 4 C61.50630648 4.71191767 60.09698252 5.01624561 57.49316406 4.58007812 C52.37614789 3.73034158 47.28856138 3.78265663 42.109375 3.71875 C40.9684137 3.70034058 39.82745239 3.68193115 38.6519165 3.66296387 C33.78073305 3.58442463 28.9094185 3.5163191 24.03808594 3.44775391 C20.47844367 3.3961443 16.91892411 3.33887665 13.359375 3.28125 C12.25108337 3.26767456 11.14279175 3.25409912 10.00091553 3.2401123 C8.97935364 3.22339478 7.95779175 3.20667725 6.90527344 3.18945312 C6.00403748 3.17692505 5.10280151 3.16439697 4.17425537 3.15148926 C2 3 2 3 0 2 C0 1.34 0 0.68 0 0 Z " fill="#DE951D" transform="translate(346,200)"/>
<path d="M0 0 C0.33 0 0.66 0 1 0 C1.33 12.21 1.66 24.42 2 37 C4.64 37 7.28 37 10 37 C10 39.31 10 41.62 10 44 C9.67 44 9.34 44 9 44 C9 42.02 9 40.04 9 38 C8.01 38.495 8.01 38.495 7 39 C3.9375 39.125 3.9375 39.125 1 39 C0 38 0 38 -0.11352539 34.39819336 C-0.11336625 32.79540144 -0.10767063 31.1926044 -0.09765625 29.58984375 C-0.0962413 28.74780899 -0.09482635 27.90577423 -0.09336853 27.03822327 C-0.08775263 24.33794665 -0.07519748 21.63775172 -0.0625 18.9375 C-0.05748705 17.11132932 -0.05292379 15.28515734 -0.04882812 13.45898438 C-0.03777804 8.97262458 -0.02050279 4.48632616 0 0 Z " fill="#C32E35" transform="translate(509,250)"/>
<path d="M0 0 C0.68964844 -0.01224609 1.37929688 -0.02449219 2.08984375 -0.03710938 C6.1388187 -0.04872211 9.23309396 0.39488866 12.875 2.1875 C9.84801282 3.07804588 7.24157696 3.27259639 4.09375 3.1796875 C3.17416504 3.16099609 2.25458008 3.14230469 1.30712891 3.12304688 C0.33952637 3.10306641 -0.62807617 3.08308594 -1.625 3.0625 C-9.95413621 2.95888004 -17.20925273 3.38191869 -25.125 6.1875 C-25.125 5.5275 -25.125 4.8675 -25.125 4.1875 C-23.60629302 3.701636 -22.08489301 3.22418799 -20.5625 2.75 C-19.71558594 2.48316406 -18.86867188 2.21632812 -17.99609375 1.94140625 C-12.01902461 0.37191735 -6.14054627 0.00580392 0 0 Z " fill="#EB961A" transform="translate(475.125,222.8125)"/>
<path d="M0 0 C3.73881855 5.60822783 3.47415929 10.3534513 3 17 C1.97328176 21.46799455 0.3980103 24.86850031 -3 28 C-2.125 21.125 -2.125 21.125 -1 20 C-0.84344973 18.51361008 -0.74933057 17.02050873 -0.68359375 15.52734375 C-0.64169922 14.62822266 -0.59980469 13.72910156 -0.55664062 12.80273438 C-0.51732422 11.85720703 -0.47800781 10.91167969 -0.4375 9.9375 C-0.39431641 8.98810547 -0.35113281 8.03871094 -0.30664062 7.06054688 C-0.20020724 4.70718647 -0.09818992 2.35371646 0 0 Z " fill="#FBEBC1" transform="translate(431,263)"/>
<path d="M0 0 C2.475 0.495 2.475 0.495 5 1 C8.17730172 10.87220241 8.36434673 20.01958324 8.1875 30.25 C8.1724114 31.78514298 8.15873045 33.32030046 8.14648438 34.85546875 C8.11384278 38.5706202 8.06229647 42.28521333 8 46 C7.67 46 7.34 46 7 46 C6.98541748 45.14881592 6.97083496 44.29763184 6.95581055 43.4206543 C6.89411164 40.209041 6.81984737 36.99801173 6.73754883 33.78686523 C6.70465502 32.40709051 6.67651726 31.02719269 6.65356445 29.6472168 C6.4787234 19.40599493 6.24223925 8.62023515 0 0 Z " fill="#BD0707" transform="translate(503,234)"/>
<path d="M0 0 C0 0.66 0 1.32 0 2 C-0.99 2.33 -1.98 2.66 -3 3 C-7.00636755 6.2788431 -9.03661075 9.97571094 -9.609375 15.08984375 C-9.90546049 19.05959891 -9.99033995 23.0200585 -10 27 C-10.33 27 -10.66 27 -11 27 C-11.33 20.73 -11.66 14.46 -12 8 C-11.34 7.67 -10.68 7.34 -10 7 C-9.566875 6.01 -9.13375 5.02 -8.6875 4 C-7 1 -7 1 -4.4375 0.125 C-2.95968853 0.0492148 -1.4797534 0 0 0 Z " fill="#ED9B21" transform="translate(452,258)"/>
<path d="M0 0 C0.33 0 0.66 0 1 0 C1.33 14.52 1.66 29.04 2 44 C3.32 44.66 4.64 45.32 6 46 C5.34 46 4.68 46 4 46 C4 46.66 4 47.32 4 48 C3.01 48 2.02 48 1 48 C-0.18695418 45.62609164 -0.12075833 44.19755049 -0.11352539 41.55029297 C-0.11344986 40.62948944 -0.11337433 39.70868591 -0.11329651 38.75997925 C-0.10813522 37.76410797 -0.10297394 36.76823669 -0.09765625 35.7421875 C-0.0962413 34.72399933 -0.09482635 33.70581116 -0.09336853 32.6567688 C-0.087759 29.39614965 -0.07520488 26.13559849 -0.0625 22.875 C-0.05748623 20.66796974 -0.05292311 18.46093841 -0.04882812 16.25390625 C-0.03778648 10.83591419 -0.02103905 5.41796195 0 0 Z " fill="#CFCDCB" transform="translate(335,244)"/>
<path d="M0 0 C2.31 0 4.62 0 7 0 C7.33 1.32 7.66 2.64 8 4 C7.34 4 6.68 4 6 4 C6 3.34 6 2.68 6 2 C5.34 2 4.68 2 4 2 C4 3.65 4 5.3 4 7 C3.34 7 2.68 7 2 7 C1.67 15.25 1.34 23.5 1 32 C0.67 32 0.34 32 0 32 C0 21.44 0 10.88 0 0 Z " fill="#359F4C" transform="translate(636,270)"/>
<path d="M0 0 C7.26 0 14.52 0 22 0 C21.67 1.32 21.34 2.64 21 4 C20.01 4.495 20.01 4.495 19 5 C19 4.01 19 3.02 19 2 C13.06 2 7.12 2 1 2 C0.67 2.99 0.34 3.98 0 5 C-0.66 5 -1.32 5 -2 5 C-1.34 3.35 -0.68 1.7 0 0 Z " fill="#ADE4BA" transform="translate(658,226)"/>
<path d="M0 0 C0.73154297 0.01353516 1.46308594 0.02707031 2.21679688 0.04101562 C3.99902422 0.07596126 5.78086573 0.12975195 7.5625 0.1875 C7.5625 0.5175 7.5625 0.8475 7.5625 1.1875 C6.60988281 1.23648438 5.65726562 1.28546875 4.67578125 1.3359375 C3.42152344 1.41070312 2.16726563 1.48546875 0.875 1.5625 C-0.98705078 1.66691406 -0.98705078 1.66691406 -2.88671875 1.7734375 C-6.15470341 2.15452262 -8.52737934 2.68654723 -11.4375 4.1875 C-11.7675 4.8475 -12.0975 5.5075 -12.4375 6.1875 C-13.4275 6.496875 -14.4175 6.80625 -15.4375 7.125 C-16.9225 7.6509375 -16.9225 7.6509375 -18.4375 8.1875 C-18.7675 9.1775 -19.0975 10.1675 -19.4375 11.1875 C-21.0875 11.1875 -22.7375 11.1875 -24.4375 11.1875 C-24.7675 9.8675 -25.0975 8.5475 -25.4375 7.1875 C-24.90125 7.455625 -24.365 7.72375 -23.8125 8 C-21.14912477 8.48278906 -21.14912477 8.48278906 -18.625 5.9375 C-18.18542969 5.49921875 -17.74585938 5.0609375 -17.29296875 4.609375 C-11.79158041 0.39357425 -6.68619891 -0.23857434 0 0 Z " fill="#FABCB0" transform="translate(308.4375,224.8125)"/>
<path d="M0 0 C1.32 0 2.64 0 4 0 C4 0.66 4 1.32 4 2 C4.99 2.33 5.98 2.66 7 3 C7.5625 4.9375 7.5625 4.9375 8 7 C8.66 7.66 9.32 8.32 10 9 C7.29384966 19.74259681 7.29384966 19.74259681 3 23 C2.34 22.67 1.68 22.34 1 22 C1.65484375 21.32582031 2.3096875 20.65164062 2.984375 19.95703125 C5.51096123 16.25039215 5.41582534 14.12332779 5.25 9.6875 C5.21390625 8.43324219 5.1778125 7.17898437 5.140625 5.88671875 C5.09421875 4.93410156 5.0478125 3.98148438 5 3 C2.525 2.01 2.525 2.01 0 1 C0 0.67 0 0.34 0 0 Z " fill="#FBE9B9" transform="translate(398,221)"/>
<path d="M0 0 C0.92941406 0.32742188 1.85882813 0.65484375 2.81640625 0.9921875 C7.819317 2.42159057 12.7751602 2.21674356 17.9375 2.125 C18.90751953 2.11597656 19.87753906 2.10695313 20.87695312 2.09765625 C23.25156407 2.07426107 25.62564776 2.04148176 28 2 C27.34 3.32 26.68 4.64 26 6 C25.67 5.34 25.34 4.68 25 4 C24.44957031 4.16242188 23.89914062 4.32484375 23.33203125 4.4921875 C16.83400406 5.9071683 9.48254939 5.35053112 3 4 C2.01 3.34 1.02 2.68 0 2 C0 1.34 0 0.68 0 0 Z " fill="#EEA237" transform="translate(453,301)"/>
<path d="M0 0 C3.60409919 -0.05800828 7.20807851 -0.09359869 10.8125 -0.125 C12.34874023 -0.15013672 12.34874023 -0.15013672 13.91601562 -0.17578125 C14.89892578 -0.18222656 15.88183594 -0.18867188 16.89453125 -0.1953125 C17.80050049 -0.20578613 18.70646973 -0.21625977 19.63989258 -0.22705078 C22 0 22 0 25 2 C25 2.66 25 3.32 25 4 C24.44280273 3.84152588 23.88560547 3.68305176 23.31152344 3.51977539 C20.84122989 2.96429853 18.54446396 2.791532 16.015625 2.68359375 C15.08105469 2.64169922 14.14648438 2.59980469 13.18359375 2.55664062 C12.21550781 2.51732422 11.24742187 2.47800781 10.25 2.4375 C9.26644531 2.39431641 8.28289062 2.35113281 7.26953125 2.30664062 C4.84648725 2.20077948 2.4233446 2.09869829 0 2 C0 1.34 0 0.68 0 0 Z " fill="#FEF0D0" transform="translate(379,257)"/>
<path d="M0 0 C6.0546875 0.390625 6.0546875 0.390625 8 1 C8.66 2.32 9.32 3.64 10 5 C14.95 5 19.9 5 25 5 C19.1380518 7.9309741 12.78300506 8.18693976 6.47265625 6.20703125 C4.3125 5.1875 4.3125 5.1875 1 3 C0.67 2.01 0.34 1.02 0 0 Z " fill="#D6F4D2" transform="translate(659,297)"/>
<path d="M0 0 C0.0270817 2.72923388 0.04687847 5.45819637 0.0625 8.1875 C0.07087891 8.95642578 0.07925781 9.72535156 0.08789062 10.51757812 C0.10491934 14.48526789 -0.01395885 18.12571234 -1 22 C-1.99 22 -2.98 22 -4 22 C-3.67 21.0925 -3.34 20.185 -3 19.25 C-1.44478146 13.93816204 -1.83803567 8.47979305 -2 3 C-4.43387753 1.78306124 -6.41838846 1.68040104 -9.125 1.4375 C-10.03507812 1.35371094 -10.94515625 1.26992188 -11.8828125 1.18359375 C-12.58148438 1.12300781 -13.28015625 1.06242187 -14 1 C-14 0.67 -14 0.34 -14 0 C-12.04235617 -0.19456705 -10.08384679 -0.38044247 -8.125 -0.5625 C-6.48917969 -0.71912109 -6.48917969 -0.71912109 -4.8203125 -0.87890625 C-2 -1 -2 -1 0 0 Z " fill="#FDE9BA" transform="translate(488,265)"/>
<path d="M0 0 C1.65 0 3.3 0 5 0 C5.37815631 4.37243229 4.34305827 6.65147145 2 10.3125 C1.443125 11.19550781 0.88625 12.07851562 0.3125 12.98828125 C-0.120625 13.65214844 -0.55375 14.31601563 -1 15 C-1.66 14.67 -2.32 14.34 -3 14 C-2.690625 13.443125 -2.38125 12.88625 -2.0625 12.3125 C-0.19274719 8.24303801 0.12689662 4.44138162 0 0 Z " fill="#E4FAEC" transform="translate(672,228)"/>
<path d="M0 0 C7.13919332 0.49235816 10.95926849 2.27934549 16.375 7.125 C18 9 18 9 18 11 C16.68 11 15.36 11 14 11 C13.67 10.01 13.34 9.02 13 8 C12.34 7.67 11.68 7.34 11 7 C11 6.01 11 5.02 11 4 C9.02 4 7.04 4 5 4 C5 3.34 5 2.68 5 2 C3.35 1.67 1.7 1.34 0 1 C0 0.67 0 0.34 0 0 Z " fill="#FDEBBD" transform="translate(406,205)"/>
<path d="M0 0 C0.886875 0.66 1.77375 1.32 2.6875 2 C8.03085299 5.07515417 14.02868029 4.63010245 20 4 C22.01882801 3.39272912 24.02665519 2.74185895 26 2 C26 2.66 26 3.32 26 4 C25.34 4 24.68 4 24 4 C24 4.66 24 5.32 24 6 C16.08 6 8.16 6 0 6 C0 4 0 2 0 0 Z " fill="#CC393D" transform="translate(490,299)"/>
<path d="M0 0 C-0.66 1.32 -1.32 2.64 -2 4 C-4.97 4 -7.94 4 -11 4 C-11.33 4.99 -11.66 5.98 -12 7 C-12.99 7.33 -13.98 7.66 -15 8 C-14.09126425 4.94334338 -13.32469175 3.27694297 -10.875 1.1875 C-7.02507023 -0.40268838 -4.14686216 -0.2108574 0 0 Z " fill="#C62427" transform="translate(568,242)"/>
<path d="M0 0 C2.12418416 1.91176575 3.30666863 3.5366701 4.75 6.0625 C7.53003918 9.69199559 9.59607024 10.15309043 14 11 C12 13 12 13 8.875 13.125 C7.92625 13.08375 6.9775 13.0425 6 13 C5.896875 12.360625 5.79375 11.72125 5.6875 11.0625 C5.460625 10.381875 5.23375 9.70125 5 9 C4.01 8.67 3.02 8.34 2 8 C2 6.68 2 5.36 2 4 C1.34 4 0.68 4 0 4 C0 2.68 0 1.36 0 0 Z " fill="#DAF4E5" transform="translate(671,279)"/>
<path d="M0 0 C0.66 0.33 1.32 0.66 2 1 C0.68 1.33 -0.64 1.66 -2 2 C-2 6.62 -2 11.24 -2 16 C-1.34 16 -0.68 16 0 16 C0 16.66 0 17.32 0 18 C-1.32 18 -2.64 18 -4 18 C-4 12.72 -4 7.44 -4 2 C-2.68 1.34 -1.36 0.68 0 0 Z " fill="#F9CF8F" transform="translate(452,228)"/>
<path d="M0 0 C0.20190089 6.35987804 -0.3722167 11.85221129 -2 18 C-2.33 18 -2.66 18 -3 18 C-3 12.39 -3 6.78 -3 1 C-1 0 -1 0 0 0 Z " fill="#189E43" transform="translate(608,347)"/>
<path d="M0 0 C3.36422354 1.18202449 5.85046266 2.10062406 8 5 C8.29296875 7.91796875 8.29296875 7.91796875 8.1875 11.1875 C8.16042969 12.27417969 8.13335937 13.36085937 8.10546875 14.48046875 C8.07066406 15.31191406 8.03585937 16.14335937 8 17 C7.67 17 7.34 17 7 17 C6.67 14.69 6.34 12.38 6 10 C5.34 10 4.68 10 4 10 C3.67 7.69 3.34 5.38 3 3 C2.01 2.67 1.02 2.34 0 2 C0 1.34 0 0.68 0 0 Z " fill="#E39922" transform="translate(396,221)"/>
<path d="M0 0 C-0.66 1.32 -1.32 2.64 -2 4 C-4.64 4 -7.28 4 -10 4 C-10 2.68 -10 1.36 -10 0 C-3.375 -1.125 -3.375 -1.125 0 0 Z " fill="#F3ECE9" transform="translate(590,130)"/>
<path d="M0 0 C2.31 0 4.62 0 7 0 C6 2 6 2 4.20361328 2.61450195 C0.43736668 3.27336561 -3.31085492 3.18448725 -7.125 3.1875 C-8.36056641 3.20586914 -8.36056641 3.20586914 -9.62109375 3.22460938 C-11.74870714 3.22983265 -13.87591677 3.1226232 -16 3 C-16.66 2.34 -17.32 1.68 -18 1 C-12.06 1.33 -6.12 1.66 0 2 C0 1.34 0 0.68 0 0 Z " fill="#FEF6CF" transform="translate(476,301)"/>
<path d="M0 0 C2.97 0.495 2.97 0.495 6 1 C5.34 5.62 4.68 10.24 4 15 C3.67 15 3.34 15 3 15 C2.01 10.05 1.02 5.1 0 0 Z " fill="#2685B9" transform="translate(595,237)"/>
<path d="M0 0 C0.66 0 1.32 0 2 0 C2 0.99 2 1.98 2 3 C3.1446875 2.690625 3.1446875 2.690625 4.3125 2.375 C7 2 7 2 10 4 C7.6875 6.0625 7.6875 6.0625 5 8 C4.01 7.67 3.02 7.34 2 7 C0.8125 3.4375 0.8125 3.4375 0 0 Z " fill="#BF1C1D" transform="translate(543,226)"/>
<path d="M0 0 C3.22269618 3.79817765 5.74520378 7.57391854 8 12 C7.67 12.66 7.34 13.32 7 14 C6.01 14 5.02 14 4 14 C3.87625 13.195625 3.7525 12.39125 3.625 11.5625 C3.315625 10.2940625 3.315625 10.2940625 3 9 C2.34 8.67 1.68 8.34 1 8 C0.40644386 5.35139573 0.25790731 2.70802678 0 0 Z " fill="#C8EFDA" transform="translate(660,260)"/>
<path d="M0 0 C2.97 0.495 2.97 0.495 6 1 C4.7934375 1.9590625 4.7934375 1.9590625 3.5625 2.9375 C0.24587237 6.90127449 0.12047418 9.97294083 0 15 C-0.33 15 -0.66 15 -1 15 C-1.02715383 13.25008666 -1.04646551 11.50005055 -1.0625 9.75 C-1.07410156 8.77546875 -1.08570313 7.8009375 -1.09765625 6.796875 C-1.01195577 4.34241322 -0.70706066 2.33831086 0 0 Z " fill="#FEF0D5" transform="translate(464,266)"/>
<path d="M0 0 C1.98 0.99 1.98 0.99 4 2 C3.67 2.33 3.34 2.66 3 3 C2.60430892 5.01311449 2.25747809 7.03597208 1.9375 9.0625 C1.76089844 10.16722656 1.58429688 11.27195313 1.40234375 12.41015625 C1.26957031 13.26480469 1.13679688 14.11945313 1 15 C0.67 15 0.34 15 0 15 C0 10.05 0 5.1 0 0 Z " fill="#ED950A" transform="translate(345,220)"/>
<path d="M0 0 C1.65 0 3.3 0 5 0 C5.02708567 1.60407328 5.04643483 3.2082785 5.0625 4.8125 C5.07410156 5.70582031 5.08570313 6.59914063 5.09765625 7.51953125 C5 10 5 10 4 13 C3.34 12.67 2.68 12.34 2 12 C2.02320313 11.30132812 2.04640625 10.60265625 2.0703125 9.8828125 C2.08835937 8.97273438 2.10640625 8.06265625 2.125 7.125 C2.15980469 5.76761719 2.15980469 5.76761719 2.1953125 4.3828125 C2.24324836 1.81193006 2.24324836 1.81193006 0 0 Z " fill="#E4A94D" transform="translate(342,288)"/>
<path d="M0 0 C0.66 0.66 1.32 1.32 2 2 C-2.62 2.66 -7.24 3.32 -12 4 C-8.8256233 -0.76156504 -5.40859919 -0.2950145 0 0 Z " fill="#D23C28" transform="translate(306,242)"/>
<path d="M0 0 C2 3 2 3 3 6 C4.98 4.35 6.96 2.7 9 1 C9.66 1.33 10.32 1.66 11 2 C10.195625 2.61875 9.39125 3.2375 8.5625 3.875 C5.96125481 5.74164041 5.96125481 5.74164041 5 8 C3.35 8 1.7 8 0 8 C0 5.36 0 2.72 0 0 Z " fill="#F9C5C0" transform="translate(236,228)"/>
<path d="M0 0 C-1 1 -1 1 -3.5625 1.0625 C-4.7690625 1.0315625 -4.7690625 1.0315625 -6 1 C-6 1.66 -6 2.32 -6 3 C-7.32 3.33 -8.64 3.66 -10 4 C-10.33 6.64 -10.66 9.28 -11 12 C-11.33 12 -11.66 12 -12 12 C-12 8.7 -12 5.4 -12 2 C-4 -2 -4 -2 0 0 Z " fill="#FFFAE6" transform="translate(462,228)"/>
<path d="M0 0 C0.33 1.65 0.66 3.3 1 5 C-2 5 -2 5 -3.8125 4.5 C-6.57455573 3.86867298 -9.17660767 3.93583199 -12 4 C-12 3.67 -12 3.34 -12 3 C-10.37604003 2.49663233 -8.75079459 1.99741024 -7.125 1.5 C-6.22007812 1.2215625 -5.31515625 0.943125 -4.3828125 0.65625 C-2 0 -2 0 0 0 Z " fill="#EB9C21" transform="translate(420,299)"/>
<path d="M0 0 C3.63 0 7.26 0 11 0 C10.67 1.32 10.34 2.64 10 4 C7.03 3.505 7.03 3.505 4 3 C4 2.34 4 1.68 4 1 C2.68 0.67 1.36 0.34 0 0 Z " fill="#EE9621" transform="translate(468,240)"/>
<path d="M0 0 C0.33 1.32 0.66 2.64 1 4 C0.34 4 -0.32 4 -1 4 C-1.04125 4.886875 -1.0825 5.77375 -1.125 6.6875 C-2.32128554 11.21629527 -4.26271887 12.29643492 -8 15 C-6.38102741 11.69918209 -4.64075691 8.47442567 -2.875 5.25 C-2.33617187 4.26515625 -1.79734375 3.2803125 -1.2421875 2.265625 C-0.83226562 1.51796875 -0.42234375 0.7703125 0 0 Z " fill="#48AC63" transform="translate(677,231)"/>
<path d="M0 0 C3.43970626 1.14656875 3.8782229 1.84518278 5.75 4.8125 C6.19859375 5.49957031 6.6471875 6.18664062 7.109375 6.89453125 C8.16892656 9.39934831 7.92399724 10.49281235 7 13 C7 12.01 7 11.02 7 10 C6.34 10 5.68 10 5 10 C4.87625 9.071875 4.87625 9.071875 4.75 8.125 C4.18741541 5.81562433 4.18741541 5.81562433 1.9375 4.75 C1.298125 4.5025 0.65875 4.255 0 4 C0 2.68 0 1.36 0 0 Z " fill="#F5BEBD" transform="translate(500,232)"/>
<path d="M0 0 C1.98 0 3.96 0 6 0 C6.33 1.32 6.66 2.64 7 4 C6.34 4 5.68 4 5 4 C5 3.34 5 2.68 5 2 C4.34 2 3.68 2 3 2 C3 3.65 3 5.3 3 7 C2.34 7 1.68 7 1 7 C0.67 4.69 0.34 2.38 0 0 Z " fill="#2CA043" transform="translate(637,270)"/>
<path d="M0 0 C0 0.66 0 1.32 0 2 C-0.99 2.33 -1.98 2.66 -3 3 C-4.39712274 4.95597184 -5.73779907 6.95436401 -7 9 C-8.09658936 5.71023192 -7.79953138 4.28696233 -7 1 C-2.25 0 -2.25 0 0 0 Z " fill="#E8AA44" transform="translate(452,258)"/>
<path d="M0 0 C2.0625 0.4375 2.0625 0.4375 4 1 C2 3 2 3 -1.9140625 3.1953125 C-3.48449351 3.18200376 -5.05486221 3.15813602 -6.625 3.125 C-7.42679687 3.11597656 -8.22859375 3.10695312 -9.0546875 3.09765625 C-11.03658523 3.07406223 -13.01832981 3.03819065 -15 3 C-15 2.67 -15 2.34 -15 2 C-14.00097656 1.93941406 -13.00195312 1.87882813 -11.97265625 1.81640625 C-10.68230469 1.73261719 -9.39195312 1.64882812 -8.0625 1.5625 C-6.77472656 1.48128906 -5.48695313 1.40007812 -4.16015625 1.31640625 C-1.13976043 1.35080812 -1.13976043 1.35080812 0 0 Z " fill="#E89417" transform="translate(397,241)"/>
<path d="M0 0 C2.97 0 5.94 0 9 0 C9 4.29 9 8.58 9 13 C8.67 13 8.34 13 8 13 C7.67 9.7 7.34 6.4 7 3 C4.69 2.67 2.38 2.34 0 2 C0 1.34 0 0.68 0 0 Z " fill="#F6C2BF" transform="translate(509,288)"/>
<path d="M0 0 C0 3.93154432 -1.25327015 6.5065403 -3 10 C-3.99 10.33 -4.98 10.66 -6 11 C-5.39305845 7.84669446 -4.3583335 5.81111133 -2.4375 3.25 C-1.98246094 2.63640625 -1.52742187 2.0228125 -1.05859375 1.390625 C-0.70925781 0.93171875 -0.35992188 0.4728125 0 0 Z " fill="#B2E6BD" transform="translate(649,242)"/>
<path d="M0 0 C2.4375 0.375 2.4375 0.375 5 1 C6.20272819 3.40545638 6.10071472 4.94996953 6.0625 7.625 C6.05347656 8.44226563 6.04445313 9.25953125 6.03515625 10.1015625 C6.02355469 10.72804687 6.01195312 11.35453125 6 12 C5.67 12 5.34 12 5 12 C4.80664062 11.38511719 4.61328125 10.77023438 4.4140625 10.13671875 C4.15367187 9.32847656 3.89328125 8.52023438 3.625 7.6875 C3.36976563 6.88699219 3.11453125 6.08648437 2.8515625 5.26171875 C2.01168189 2.77275472 2.01168189 2.77275472 0 0 Z " fill="#BE191F" transform="translate(503,234)"/>
<path d="M0 0 C-0.66 1.32 -1.32 2.64 -2 4 C-2.33 3.34 -2.66 2.68 -3 2 C-7.62 2 -12.24 2 -17 2 C-17 1.67 -17 1.34 -17 1 C-14.72926348 0.83201949 -12.45840707 0.66565887 -10.1875 0.5 C-8.29064453 0.36078125 -8.29064453 0.36078125 -6.35546875 0.21875 C-4.24021483 0.08085219 -2.11974408 0 0 0 Z " fill="#F0B652" transform="translate(481,303)"/>
<path d="M0 0 C3.55780196 0.60990891 6.6828589 1.5783681 10 3 C10 3.66 10 4.32 10 5 C5.2482602 4.56802365 3.07999946 3.67230705 0 0 Z " fill="#FBD8DB" transform="translate(491,299)"/>
<path d="M0 0 C0.99 0 1.98 0 3 0 C3.042721 1.66611905 3.04063832 3.33382885 3 5 C2 6 2 6 -0.5625 6.0625 C-1.7690625 6.0315625 -1.7690625 6.0315625 -3 6 C-2.34 5.34 -1.68 4.68 -1 4 C-0.3574765 1.93125966 -0.3574765 1.93125966 0 0 Z " fill="#E8FEE9" transform="translate(683,296)"/>
<path d="M0 0 C0.66 0.33 1.32 0.66 2 1 C-0.625 5.875 -0.625 5.875 -4 7 C-4.66 6.34 -5.32 5.68 -6 5 C-4.02 3.35 -2.04 1.7 0 0 Z " fill="#E9A939" transform="translate(426,293)"/>
<path d="M0 0 C0.66 0 1.32 0 2 0 C2.66 0.99 3.32 1.98 4 3 C4.99 2.67 5.98 2.34 7 2 C7 2.99 7 3.98 7 5 C5 6.6875 5 6.6875 3 8 C2.01 5.36 1.02 2.72 0 0 Z " fill="#D2332C" transform="translate(236,227)"/>
<path d="M0 0 C2.97 1.65 5.94 3.3 9 5 C9 5.33 9 5.66 9 6 C6.03 6 3.06 6 0 6 C0 4 0 2 0 0 Z " fill="#C52725" transform="translate(490,299)"/>
<path d="M0 0 C0.33 0 0.66 0 1 0 C1.28780586 3.05074215 1.45787911 5.96183742 1 9 C-1.5 11.0625 -1.5 11.0625 -4 12 C-3.71125 11.319375 -3.4225 10.63875 -3.125 9.9375 C-1.87402645 6.67106907 -0.92552045 3.37153877 0 0 Z " fill="#F1A23B" transform="translate(432,281)"/>
<path d="M0 0 C2 3 2 3 2 5 C2.32852082 7.55936559 2.32852082 7.55936559 3 10 C3.66 10.33 4.32 10.66 5 11 C4.01 11 3.02 11 2 11 C-0.46921528 8.00166715 -1.05635938 6.59740941 -0.6875 2.6875 C-0.460625 1.800625 -0.23375 0.91375 0 0 Z " fill="#3C9F54" transform="translate(662,257)"/>
<path d="M0 0 C-0.33 0.66 -0.66 1.32 -1 2 C-4.3 2 -7.6 2 -11 2 C-11 1.67 -11 1.34 -11 1 C-6.87831311 -0.62950412 -4.29299643 -1.26264601 0 0 Z " fill="#FBFEEC" transform="translate(680,301)"/>
<path d="M0 0 C1.65 0.33 3.3 0.66 5 1 C2.60490662 3.89932357 0.68754757 4.50168276 -3 5 C-3 4.34 -3 3.68 -3 3 C-2.01 3 -1.02 3 0 3 C0 2.01 0 1.02 0 0 Z " fill="#FBF2D1" transform="translate(416,296)"/>
<path d="M0 0 C2.96865509 2.54456151 4.3619751 5.48994665 6 9 C4.68 8.67 3.36 8.34 2 8 C2 6.68 2 5.36 2 4 C1.34 4 0.68 4 0 4 C0 2.68 0 1.36 0 0 Z " fill="#C2F0D0" transform="translate(671,279)"/>
<path d="M0 0 C0 0.66 0 1.32 0 2 C-6.93 1.505 -6.93 1.505 -14 1 C-14 0.67 -14 0.34 -14 0 C-12.04235617 -0.19456705 -10.08384679 -0.38044247 -8.125 -0.5625 C-6.48917969 -0.71912109 -6.48917969 -0.71912109 -4.8203125 -0.87890625 C-2 -1 -2 -1 0 0 Z " fill="#FDF0D1" transform="translate(488,265)"/>
<path d="M0 0 C-3.79541663 2.21399303 -7.75629421 3.00980198 -12 4 C-12 3.34 -12 2.68 -12 2 C-7.8794254 0.00214565 -4.54805635 -0.17835515 0 0 Z " fill="#E89423" transform="translate(462,225)"/>
<path d="M0 0 C0.66 0 1.32 0 2 0 C1.67 1.32 1.34 2.64 1 4 C0.34 4 -0.32 4 -1 4 C-1.33 5.98 -1.66 7.96 -2 10 C-2.6875 8.375 -2.6875 8.375 -3 6 C-1.5625 2.75 -1.5625 2.75 0 0 Z " fill="#D62016" transform="translate(294,246)"/>
<path d="M0 0 C1.98 0 3.96 0 6 0 C4.35 1.65 2.7 3.3 1 5 C0.01 4.67 -0.98 4.34 -2 4 C-1.34 3.67 -0.68 3.34 0 3 C0 2.01 0 1.02 0 0 Z " fill="#D03823" transform="translate(286,229)"/>
</svg>
