<svg width="606" height="237" viewBox="0 0 606 237" fill="none" xmlns="http://www.w3.org/2000/svg">
<path d="M0 5.00014C103.593 4.95981 103.593 4.95981 148.092 4.95131C158.264 4.94936 168.435 4.94734 178.607 4.94521C179.881 4.94494 181.154 4.94468 182.466 4.94441C200.125 4.94067 217.784 4.93454 235.442 4.92641C265.978 4.91233 296.515 4.90319 327.051 4.90248C328.847 4.90243 328.847 4.90243 330.679 4.90237C383.696 4.90122 436.712 4.94164 489.728 5.22719C490.65 5.23212 491.571 5.23705 492.521 5.24213C529.014 5.43862 565.507 5.73051 602 6.00014C602 82.2301 602 158.46 602 237C403.34 237 204.68 237 0 237C0 160.44 0 83.8801 0 5.00014Z" fill="#F39006"/>
<path d="M439 6C492.79 6 546.58 6 602 6C602 82.23 602 158.46 602 237C548.21 237 494.42 237 439 237C439 216.21 439 195.42 439 174C435.04 174 431.08 174 427 174C426.97 171.578 426.97 171.578 426.94 169.106C426.864 163.12 426.775 157.134 426.683 151.148C426.644 148.557 426.609 145.965 426.578 143.373C426.533 139.65 426.475 135.926 426.414 132.203C426.403 131.043 426.391 129.882 426.379 128.686C426.359 127.606 426.339 126.525 426.319 125.411C426.306 124.461 426.292 123.51 426.278 122.531C425.986 119.875 425.434 118.242 424 116C419.93 113.606 415.601 113.395 411 114C407.144 115.676 405.54 117.139 404 121C403.682 123.536 403.682 123.536 403.697 126.303C403.68 127.361 403.664 128.419 403.647 129.508C403.638 130.644 403.63 131.779 403.621 132.949C403.604 134.118 403.587 135.286 403.57 136.49C403.516 140.222 403.476 143.955 403.438 147.688C403.394 151.431 403.347 155.174 403.295 158.917C403.263 161.248 403.236 163.578 403.214 165.909C403.201 166.957 403.187 168.005 403.174 169.085C403.164 170.012 403.155 170.939 403.145 171.895C403 174 403 174 402 175C394.74 175 387.48 175 380 175C380 154.54 380 134.08 380 113C377.36 113 374.72 113 372 113C372 108.05 372 103.1 372 98C379.26 98 386.52 98 394 98C394.99 99.98 395.98 101.96 397 104C399.487 102.852 401.568 101.596 403.812 100C409.368 96.5142 414.826 95.6935 421.312 95.625C422.526 95.5966 423.739 95.5683 424.988 95.5391C429 96 429 96 439 100C439 68.98 439 37.96 439 6Z" fill="#1CA037"/>
<path d="M1 6C65.02 6 129.04 6 195 6C195 56.49 195 106.98 195 159C192.69 159.33 190.38 159.66 188 160C186.474 158.474 186.861 157.102 186.842 154.974C186.832 154.119 186.822 153.264 186.811 152.383C186.804 151.451 186.797 150.519 186.789 149.559C186.761 147.593 186.732 145.628 186.703 143.662C186.662 140.557 186.625 137.452 186.599 134.347C186.571 131.355 186.525 128.363 186.477 125.371C186.472 123.994 186.472 123.994 186.467 122.589C186.345 116.156 185.553 110.307 181.492 105.047C173.136 98.3458 165.614 96.0794 154.898 96.5391C148.06 97.3476 142.686 99.9589 138 105C134.004 103.668 131.101 101.71 127.844 99.1211C121.753 95.4178 111.933 96.1596 105 97C99.2524 98.8143 94.4727 101.975 90 106C88.5394 103.353 88 102.106 88 99C80.41 98.67 72.82 98.34 65 98C65 102.95 65 107.9 65 113C67.64 113 70.28 113 73 113C73 133.13 73 153.26 73 174C80.26 174 87.52 174 95 174C94.9843 172.451 94.9686 170.902 94.9524 169.306C94.8981 163.557 94.8636 157.807 94.8352 152.058C94.8201 149.57 94.7997 147.082 94.7737 144.594C94.7373 141.017 94.7203 137.44 94.707 133.863C94.6915 132.752 94.6761 131.64 94.6601 130.495C94.6599 129.454 94.6597 128.413 94.6594 127.341C94.6494 125.972 94.6494 125.972 94.6392 124.575C95.1813 120.706 97.0004 118.076 99.625 115.25C103.281 113.326 106.889 112.882 111 113C115.301 114.683 116.937 116.955 119 121C119.361 123.613 119.361 123.613 119.341 126.433C119.34 127.494 119.34 128.554 119.34 129.647C119.324 130.781 119.309 131.914 119.293 133.082C119.289 134.251 119.284 135.421 119.28 136.625C119.263 140.355 119.226 144.083 119.188 147.812C119.172 150.343 119.159 152.874 119.146 155.404C119.113 161.603 119.062 167.801 119 174C126.26 174 133.52 174 141 174C140.976 171.676 140.976 171.676 140.952 169.306C140.898 163.557 140.864 157.807 140.835 152.058C140.82 149.57 140.8 147.082 140.774 144.594C140.737 141.017 140.72 137.44 140.707 133.863C140.692 132.752 140.676 131.64 140.66 130.495C140.66 128.934 140.66 128.934 140.659 127.341C140.649 125.972 140.649 125.972 140.639 124.575C141.249 120.222 143.652 116.79 147 114C150.619 112.794 153.192 112.677 157 113C160.1 114.755 162.488 116.488 165 119C165.258 120.857 165.258 120.857 165.271 123.139C165.287 124.422 165.287 124.422 165.302 125.73C165.304 126.657 165.306 127.584 165.309 128.539C165.334 130.501 165.359 132.464 165.385 134.426C165.413 137.52 165.437 140.614 165.456 143.708C165.478 146.693 165.518 149.678 165.559 152.664C165.559 154.036 165.559 154.036 165.559 155.436C165.648 161.281 166.521 165.68 169 171C174.244 175.416 181.511 174.397 188 174C190.31 173.67 192.62 173.34 195 173C195 194.12 195 215.24 195 237C98.97 236.505 98.97 236.505 1 236C1 160.1 1 84.2 1 6Z" fill="#E41E0B"/>
<path d="M339 6C372 6 405 6 439 6C439.33 37.35 439.66 68.7 440 101C438.35 100.34 436.7 99.68 435 99C427.216 95.9825 417.485 95.4318 409.5 98.1875C406.791 99.5905 404.608 100.951 402.188 102.75C401.136 103.493 400.084 104.235 399 105C398.01 104.67 397.02 104.34 396 104C395.34 102.35 394.68 100.7 394 99C383.11 98.505 383.11 98.505 372 98C372 102.95 372 107.9 372 113C374.64 113 377.28 113 380 113C380 133.46 380 153.92 380 175C387.26 174.67 394.52 174.34 402 174C402.009 172.426 402.019 170.852 402.028 169.23C402.068 163.382 402.134 157.534 402.208 151.686C402.236 149.156 402.257 146.626 402.271 144.097C402.292 140.457 402.339 136.819 402.391 133.18C402.392 131.487 402.392 131.487 402.394 129.76C402.51 123.558 402.808 119.704 407 115C410.011 112.634 413.199 112.641 416.969 112.746C420.136 113.142 422.364 114.242 425 116C427.051 119.16 427.244 121.689 427.227 125.411C427.227 126.492 427.227 127.573 427.227 128.686C427.216 129.847 427.206 131.007 427.195 132.203C427.192 133.396 427.19 134.589 427.187 135.818C427.176 139.629 427.15 143.439 427.125 147.25C427.115 149.833 427.106 152.417 427.098 155C427.076 161.333 427.041 167.667 427 174C430.96 174 434.92 174 439 174C439 194.79 439 215.58 439 237C406 237 373 237 339 237C339 214.56 339 192.12 339 169C343 171 343 171 345.344 172.605C348.602 174.316 350.838 174.368 354.5 174.312C355.603 174.309 356.707 174.305 357.844 174.301C360.964 174.003 363.145 173.227 366 172C366.99 172 367.98 172 369 172C369 167.71 369 163.42 369 159C368.34 159.33 367.68 159.66 367 160C363.938 160.125 363.938 160.125 361 160C358.864 157.864 359.814 152.997 359.789 150.031C359.761 148.161 359.732 146.292 359.703 144.422C359.662 141.471 359.625 138.52 359.599 135.568C359.571 132.722 359.525 129.877 359.477 127.031C359.473 126.162 359.47 125.293 359.467 124.398C359.35 118.479 358.276 113.47 356 108C355.74 107.296 355.48 106.592 355.213 105.867C353.856 103.385 353.856 103.385 349 102C345.7 100.35 342.4 98.7 339 97C339 66.97 339 36.94 339 6Z" fill="#CB0B0A"/>
<path d="M198 75C205.537 74.932 213.074 74.8771 220.612 74.8446C224.112 74.829 227.613 74.8079 231.114 74.7737C235.147 74.7346 239.181 74.7203 243.215 74.7071C244.459 74.6916 245.703 74.6761 246.985 74.6602C255.733 74.6585 263.81 75.6077 271 81C276.683 87.0793 278.278 91.2774 278.188 99.5625C278.181 100.863 278.175 102.164 278.168 103.504C278.037 106.225 277.818 108.428 277 111C276.34 111 275.68 111 275 111C274.732 111.763 274.464 112.526 274.188 113.313C273.049 115.89 272.186 117.27 270 119C269.34 119 268.68 119 268 119C268.33 119.66 268.66 120.32 269 121C270.856 121.619 270.856 121.619 272.75 122.25C277.931 124.122 280.587 127.128 282.969 131.969C285.872 139.388 286.382 147.881 283.688 155.438C281.221 160.646 279.207 164.272 274.438 167.625C273.652 168.195 272.867 168.765 272.059 169.352C263.841 173.781 255.846 174.425 246.648 174.293C245.636 174.29 244.624 174.287 243.581 174.284C239.846 174.268 236.11 174.226 232.375 174.188C219.814 174.095 219.814 174.095 207 174C207 146.61 207 119.22 207 91C204.03 91 201.06 91 198 91C198 85.72 198 80.44 198 75Z" fill="#FDFCF8"/>
<path d="M113 95.6872C113.673 95.6839 114.346 95.6807 115.039 95.6774C121.679 95.7479 127.222 96.9159 132.438 101.125C133.457 101.933 133.457 101.933 134.496 102.757C135.241 103.372 135.241 103.372 136 104C138.553 102.746 141.042 101.43 143.5 99.9997C144.661 99.3239 145.828 98.6575 147 97.9997C147.866 97.4583 147.866 97.4583 148.75 96.9059C155.214 94.3023 163.977 95.0536 170.508 97.0973C177.463 100.366 183.013 104.268 186.042 111.481C187.299 116.099 187.355 120.444 187.414 125.211C187.433 126.179 187.453 127.147 187.473 128.144C187.532 131.221 187.579 134.298 187.625 137.375C187.663 139.467 187.702 141.56 187.742 143.652C187.838 148.768 187.922 153.884 188 159C189.134 159.144 190.269 159.288 191.438 159.437C195 160 195 160 196 161C196.238 163.179 196.238 163.179 196.312 165.875C196.35 166.759 196.387 167.643 196.426 168.554C196 171 196 171 194.23 172.757C188.037 176.207 179.439 176.183 172.699 174.386C168.505 172.348 167.074 169.587 165.589 165.328C164.532 161.15 164.62 157.02 164.664 152.734C164.652 150.773 164.639 148.812 164.625 146.851C164.621 143.788 164.625 140.724 164.64 137.661C164.648 134.685 164.627 131.71 164.602 128.734C164.615 127.817 164.628 126.901 164.642 125.956C164.639 120.654 164.639 120.654 161.587 116.454C157.36 114.078 154.936 113.665 150 114C145.769 115.827 144.067 117.944 142 122C141.536 124.596 141.536 124.596 141.568 127.341C141.548 128.381 141.528 129.422 141.508 130.494C141.501 131.606 141.495 132.718 141.488 133.863C141.461 135.584 141.461 135.584 141.434 137.339C141.38 140.997 141.346 144.654 141.312 148.312C141.279 150.795 141.245 153.277 141.209 155.759C141.124 161.839 141.057 167.919 141 174C133.74 174 126.48 174 119 174C118.985 172.42 118.971 170.841 118.956 169.214C118.898 163.352 118.821 157.491 118.738 151.63C118.704 149.094 118.676 146.557 118.654 144.021C118.62 140.374 118.568 136.728 118.512 133.082C118.505 131.948 118.499 130.815 118.492 129.647C118.473 128.586 118.453 127.525 118.432 126.433C118.416 125.037 118.416 125.037 118.399 123.613C117.92 120.477 116.826 118.572 115 116C111.363 113.485 108.411 113.869 104.191 114.453C101.042 115.239 99.2043 116.658 97 119C96.0104 121.969 95.8473 124.011 95.7947 127.114C95.7747 128.155 95.7548 129.195 95.7342 130.268C95.7092 131.951 95.7092 131.951 95.6836 133.668C95.6628 134.818 95.642 135.968 95.6206 137.152C95.5552 140.831 95.4963 144.509 95.4375 148.187C95.3943 150.679 95.3507 153.17 95.3066 155.662C95.1995 161.774 95.0982 167.887 95 174C87.74 174 80.48 174 73 174C73 153.87 73 133.74 73 113C70.36 113 67.72 113 65 113C65 108.05 65 103.1 65 97.9997C68.4584 97.9728 71.9166 97.9529 75.375 97.9372C76.3598 97.9288 77.3447 97.9204 78.3594 97.9118C79.7709 97.9069 79.7709 97.9069 81.2109 97.902C82.5149 97.8942 82.5149 97.8942 83.8452 97.8861C86 97.9997 86 97.9997 88 98.9997C88.7269 100.979 89.3982 102.979 90 105C90.4963 104.601 90.9926 104.203 91.5039 103.793C92.1832 103.263 92.8626 102.733 93.5625 102.187C94.2238 101.665 94.8851 101.143 95.5664 100.605C101.233 96.8667 106.274 95.5261 113 95.6872Z" fill="#FDFBF9"/>
<path d="M456 67C465.9 67 475.8 67 486 67C486 86.14 486 105.28 486 125C488.64 125 491.28 125 494 125C494.112 124.256 494.224 123.512 494.34 122.746C495.022 119.907 495.862 118.402 497.562 116.062C501.82 109.951 505.347 103.487 509 97C516.26 97 523.52 97 531 97C529.942 101.23 528.447 103.434 526 107C525.021 108.701 524.043 110.403 523.077 112.112C522.038 113.933 520.972 115.736 519.895 117.535C519.551 118.117 519.207 118.699 518.854 119.299C518.155 120.483 517.449 121.662 516.736 122.838C514.568 126.545 513.174 129.683 513 134C513.835 136.103 513.835 136.103 515.375 137.938C518.453 142.16 521.159 146.504 523.812 151C526.095 155.24 526.095 155.24 529 159C530.519 159.072 532.042 159.084 533.562 159.062C534.389 159.053 535.215 159.044 536.066 159.035C536.704 159.024 537.343 159.012 538 159C538.323 168.355 538.323 168.355 536 173C530.032 176.068 523.142 175.917 516.688 174.488C510.083 171.844 507.418 165.879 504 160C503.143 158.799 502.271 157.609 501.375 156.438C498.321 152.258 494 146.286 494 141C491.69 141 489.38 141 487 141C487 152.22 487 163.44 487 175C479.74 175 472.48 175 465 175C465 144.31 465 113.62 465 82C462.03 82 459.06 82 456 82C456 77.05 456 72.1 456 67Z" fill="#FBFDFB"/>
<path d="M323.625 95.7499C324.573 95.7293 325.52 95.7087 326.497 95.6874C336.313 95.6337 346.079 97.9221 354 104C359.893 110.934 360.153 117.933 360.317 126.676C360.338 127.601 360.358 128.526 360.38 129.479C360.445 132.424 360.504 135.368 360.563 138.312C360.606 140.313 360.65 142.314 360.694 144.314C360.801 149.209 360.902 154.105 361 159C363.64 159 366.28 159 369 159C369 163.29 369 167.58 369 172C362.088 175.253 355.602 175.942 348 175C345.584 173.925 344.07 172.698 342 171C337.623 171 336.573 171.767 333 174C325.029 176.438 313.402 176.526 305.688 173.375C300.652 170.57 297.791 167.034 295.688 161.625C295.461 160.759 295.234 159.892 295 159C294.34 159 293.68 159 293 159C291.795 140.197 291.795 140.197 296.313 134.312C298.176 132.301 298.176 132.301 300 131C300.99 131 301.98 131 303 131C303 130.01 303 129.02 303 128C304.249 127.518 305.5 127.039 306.75 126.562C307.447 126.296 308.143 126.029 308.86 125.754C313.962 123.957 318.571 123.817 323.938 123.812C324.736 123.8 325.535 123.788 326.358 123.775C330.696 123.765 334.048 123.98 338 126C337.719 124.352 337.425 122.707 337.125 121.062C336.963 120.146 336.801 119.229 336.633 118.285C336.424 117.531 336.216 116.777 336 116C335.34 115.67 334.68 115.34 334 115C334 114.34 334 113.68 334 113C325.434 110.501 315.734 112.146 307 113C307 113.66 307 114.32 307 115C305.68 115 304.36 115 303 115C303 115.66 303 116.32 303 117C301.68 117 300.36 117 299 117C299 111.72 299 106.44 299 101C307.803 97.4094 314.142 95.8003 323.625 95.7499Z" fill="#FDFBF5"/>
<path d="M436.004 98.6839C443.816 103.836 447.047 107.735 449 117C449.379 121.489 449.351 125.944 449.293 130.446C449.289 131.697 449.284 132.948 449.28 134.237C449.266 137.528 449.239 140.819 449.206 144.11C449.175 147.482 449.162 150.855 449.146 154.227C449.114 160.818 449.062 167.409 449 174C441.74 174 434.48 174 427 174C426.97 171.578 426.97 171.578 426.94 169.107C426.864 163.121 426.775 157.135 426.683 151.149C426.644 148.557 426.609 145.965 426.578 143.373C426.533 139.65 426.475 135.927 426.414 132.203C426.403 131.043 426.391 129.882 426.379 128.687C426.359 127.606 426.339 126.525 426.319 125.411C426.306 124.461 426.292 123.511 426.278 122.531C425.986 119.875 425.434 118.243 424 116C419.93 113.606 415.601 113.395 411 114C407.144 115.677 405.54 117.139 404 121C403.682 123.537 403.682 123.537 403.697 126.304C403.68 127.361 403.664 128.419 403.647 129.509C403.638 130.644 403.63 131.78 403.621 132.95C403.604 134.118 403.587 135.286 403.57 136.49C403.516 140.223 403.476 143.955 403.438 147.688C403.394 151.431 403.347 155.174 403.295 158.918C403.263 161.248 403.236 163.578 403.214 165.909C403.201 166.957 403.187 168.005 403.174 169.085C403.164 170.012 403.155 170.94 403.145 171.895C403 174 403 174 402 175C394.74 175 387.48 175 380 175C380 154.54 380 134.08 380 113C377.36 113 374.72 113 372 113C372 108.05 372 103.1 372 98.0003C379.26 98.0003 386.52 98.0003 394 98.0003C394.99 99.9803 395.98 101.96 397 104C399.487 102.852 401.568 101.597 403.812 100C412.825 94.3451 426.547 93.553 436.004 98.6839Z" fill="#FCF9F8"/>
<path d="M439 6C444.28 6 449.56 6 455 6C455.022 35.2836 455.04 64.5672 455.051 93.8509C455.052 97.3045 455.053 100.758 455.055 104.212C455.055 104.899 455.055 105.587 455.055 106.295C455.06 117.443 455.068 128.59 455.077 139.738C455.086 151.168 455.092 162.598 455.094 174.028C455.095 180.452 455.098 186.876 455.105 193.299C455.112 199.338 455.114 205.376 455.113 211.415C455.113 213.638 455.115 215.861 455.119 218.084C455.124 221.106 455.123 224.127 455.12 227.148C455.123 228.04 455.126 228.932 455.129 229.851C455.114 235.886 455.114 235.886 454 237C449.05 237 444.1 237 439 237C439 216.21 439 195.42 439 174C442.3 174 445.6 174 449 174C448.938 166.741 448.861 159.482 448.764 152.222C448.719 148.851 448.68 145.479 448.653 142.107C448.619 138.22 448.567 134.333 448.511 130.445C448.505 129.25 448.499 128.055 448.492 126.824C448.343 118.223 448.154 110.196 441.927 103.802C438.206 99.5847 438.181 96.03 438.318 90.5764C438.318 89.6586 438.317 88.7407 438.316 87.795C438.32 84.7804 438.367 81.7681 438.414 78.7539C438.425 76.6564 438.433 74.5589 438.439 72.4614C438.462 66.9553 438.521 61.4502 438.588 55.9445C438.649 50.3206 438.676 44.6965 438.707 39.0723C438.771 28.0478 438.873 17.024 439 6Z" fill="#0677B7"/>
<path d="M170 6C178.25 6 186.5 6 195 6C195 56.49 195 106.98 195 159C192.69 159.33 190.38 159.66 188 160C186.474 158.474 186.861 157.102 186.842 154.974C186.832 154.119 186.822 153.264 186.811 152.383C186.804 151.451 186.797 150.519 186.789 149.559C186.761 147.593 186.732 145.628 186.703 143.662C186.662 140.557 186.625 137.452 186.599 134.347C186.571 131.355 186.525 128.363 186.477 125.371C186.473 124.453 186.47 123.535 186.467 122.589C186.345 116.148 185.592 110.194 181.387 105.012C180.826 104.575 180.265 104.138 179.688 103.688C179.134 103.238 178.581 102.788 178.012 102.324C175.477 100.656 172.714 99.3572 170 98C170 67.64 170 37.28 170 6Z" fill="#251D16"/>
<path d="M170 173C170.761 173.162 171.523 173.325 172.307 173.492C175.381 174.072 178.248 174.132 181.375 174.125C182.995 174.129 182.995 174.129 184.649 174.133C188.117 173.995 191.564 173.491 195 173C195 194.12 195 215.24 195 237C187.08 237 179.16 237 171 237C170 236 170 236 169.88 233.488C169.882 232.371 169.884 231.254 169.887 230.103C169.887 228.842 169.887 227.581 169.887 226.281C169.892 224.895 169.897 223.508 169.902 222.121C169.904 220.71 169.906 219.299 169.907 217.888C169.911 214.168 169.92 210.447 169.931 206.727C169.942 202.933 169.946 199.139 169.951 195.346C169.962 187.897 169.979 180.449 170 173Z" fill="#201C17"/>
<path d="M230 130C233.3 129.897 236.6 129.793 240 129.687C241.535 129.619 241.535 129.619 243.102 129.549C249.598 129.452 254.045 130.665 259 135C260.338 137.676 260.206 139.824 260.25 142.812C260.276 143.85 260.302 144.888 260.328 145.957C259.956 149.408 259.035 151.217 257 154C249.559 159.787 238.869 158.078 230 158C230 148.76 230 139.52 230 130Z" fill="#F29205"/>
<path d="M604 2.99985C605.112 27.6776 605.134 52.335 605.101 77.0333C605.095 82.6425 605.095 88.2518 605.093 93.8611C605.09 104.432 605.082 115.002 605.072 125.573C605.061 137.629 605.055 149.685 605.05 161.741C605.04 186.494 605.022 211.247 605 236C604.01 236.33 603.02 236.66 602 237C602 160.77 602 84.5399 602 5.99985C548.21 5.99985 494.42 5.99985 439 5.99985C439 5.66985 439 5.33985 439 4.99985C440.314 4.98955 441.629 4.97924 442.983 4.96862C455.567 4.86947 468.152 4.76665 480.736 4.66051C487.201 4.6061 493.666 4.55284 500.131 4.50254C526.296 4.29818 552.456 4.09032 578.613 3.3269C579.364 3.30532 580.115 3.28374 580.889 3.26151C582.853 3.2042 584.817 3.14363 586.781 3.08272C592.519 2.93849 598.26 2.98419 604 2.99985Z" fill="#BBE6C3"/>
<path d="M195 6C242.52 6 290.04 6 339 6C339 35.7 339 65.4 339 96C338.67 96 338.34 96 338 96C338 66.96 338 37.92 338 8C291.47 8.33 244.94 8.66 197 9C197 12.3 197 15.6 197 19C197.33 19 197.66 19 198 19C198 36.16 198 53.32 198 71C200.946 71.982 202.914 72.1408 205.987 72.1736C207.002 72.1871 208.017 72.2006 209.063 72.2145C210.16 72.2249 211.257 72.2353 212.387 72.2461C214.71 72.279 217.034 72.3123 219.357 72.3457C223.02 72.393 226.682 72.4374 230.344 72.4768C233.88 72.5167 237.414 72.5682 240.949 72.6211C242.036 72.6295 243.123 72.6379 244.242 72.6466C250.162 72.7422 255.324 73.2933 261 75C258.506 75.7119 257.097 76.0162 254.493 75.5801C249.376 74.7303 244.289 74.7827 239.109 74.7188C237.398 74.6911 237.398 74.6911 235.652 74.663C230.781 74.5844 225.909 74.5163 221.038 74.4478C217.478 74.3961 213.919 74.3389 210.359 74.2812C209.251 74.2677 208.143 74.2541 207.001 74.2401C205.979 74.2234 204.958 74.2067 203.905 74.1895C203.004 74.1769 202.103 74.1644 201.174 74.1515C199 74 199 74 197 73C196.67 101.05 196.34 129.1 196 158C195.67 158 195.34 158 195 158C195 107.84 195 57.68 195 6Z" fill="#EE9219"/>
<path d="M1 6C56.77 6 112.54 6 170 6C170 36.03 170 66.06 170 97C163.73 97 157.46 97 151 97C145.446 99.1407 141.985 100.754 138 105C133.443 103.481 129.683 101.046 126 98C126 97.67 126 97.34 126 97C127.98 97 129.96 97 132 97C132 97.66 132 98.32 132 99C132.99 98.34 133.98 97.68 135 97C137.562 96.875 137.562 96.875 140 97C142.492 97 144.372 96.2598 146.75 95.5C153.196 93.69 162.772 91.8861 169 95C168.67 66.29 168.34 37.58 168 8C113.22 7.67 58.44 7.34 2 7C2 82.57 2 158.14 2 236C1.67 236 1.34 236 1 236C1 160.1 1 84.2 1 6Z" fill="#D12B1E"/>
<path d="M230 91.0002C247.427 90.5375 247.427 90.5375 253.641 95.2424C256.128 98.4589 255.517 102.131 255.418 106.039C254.78 110.556 253.506 112.118 250 115C245.784 116.235 241.541 116.116 237.188 116.063C234.816 116.042 232.444 116.021 230 116C230 107.75 230 99.5002 230 91.0002Z" fill="#F39103"/>
<path d="M321 137C323.271 136.946 325.542 136.907 327.812 136.875C329.077 136.852 330.342 136.829 331.645 136.805C335 137 335 137 338 139C339.032 145.671 338.589 152.231 335 158C332.812 158.938 332.812 158.938 331 159C331 159.66 331 160.32 331 161C324.497 161.465 320.583 160.326 315 157C314.892 154.751 314.814 152.501 314.75 150.25C314.704 148.997 314.657 147.744 314.609 146.453C315 143 315 143 316.891 140.547C319 139 319 139 321 139C321 138.34 321 137.68 321 137Z" fill="#F19308"/>
<path d="M339 6C372 6 405 6 439 6C439.33 37.35 439.66 68.7 440 101C438.35 100.34 436.7 99.68 435 99C430.369 97.2171 426.048 96.604 421.125 96.375C420.437 96.3363 419.748 96.2977 419.039 96.2578C417.36 96.1645 415.68 96.0812 414 96C414.33 95.34 414.66 94.68 415 94C416.999 93.9177 419 93.8602 421 93.8125C422.671 93.7603 422.671 93.7603 424.375 93.707C428 94 428 94 436 97C436 67.3 436 37.6 436 7C403.99 7 371.98 7 339 7C339 6.67 339 6.34 339 6Z" fill="#9C282F"/>
<path d="M426 120C426.33 120 426.66 120 427 120C427 137.82 427 155.64 427 174C430.96 174 434.92 174 439 174C439 194.79 439 215.58 439 237C406 237 373 237 339 237C339 236.67 339 236.34 339 236C371.01 236 403.02 236 436 236C436 216.2 436 196.4 436 176C432.7 176 429.4 176 426 176C426 157.52 426 139.04 426 120Z" fill="#A72E37"/>
<path d="M456 83C458.64 83 461.28 83 464 83C464 113.03 464 143.06 464 174C463.67 174 463.34 174 463 174C462.19 166.046 461.707 158.115 461.438 150.125C461.395 148.882 461.353 147.638 461.309 146.357C460.705 126.914 460.916 107.449 461 88C461.66 88 462.32 88 463 88C463 87.01 463 86.02 463 85C461.02 85 459.04 85 457 85C457.162 85.5834 457.325 86.1667 457.492 86.7678C458.284 90.2456 458.142 93.7443 458.133 97.293C458.135 98.5514 458.135 98.5514 458.137 99.8353C458.139 102.619 458.132 105.403 458.125 108.188C458.124 109.14 458.123 110.093 458.122 111.075C458.097 134.722 457.571 158.36 457 182C456.67 182 456.34 182 456 182C456 149.33 456 116.66 456 83Z" fill="#1E9A3F"/>
<path d="M195 6C195.33 6 195.66 6 196 6C196.33 10.29 196.66 14.58 197 19C197.33 19 197.66 19 198 19C198 36.16 198 53.32 198 71C200.946 71.982 202.914 72.1408 205.987 72.1736C207.002 72.1871 208.017 72.2006 209.063 72.2145C210.16 72.2249 211.257 72.2353 212.387 72.2461C214.71 72.279 217.034 72.3123 219.357 72.3457C223.02 72.393 226.682 72.4374 230.344 72.4768C233.88 72.5167 237.414 72.5682 240.949 72.6211C242.036 72.6295 243.123 72.6379 244.242 72.6466C250.162 72.7422 255.324 73.2933 261 75C258.506 75.7119 257.097 76.0162 254.493 75.5801C249.376 74.7303 244.289 74.7827 239.109 74.7188C237.398 74.6911 237.398 74.6911 235.652 74.663C230.781 74.5844 225.909 74.5163 221.038 74.4478C217.478 74.3961 213.919 74.3389 210.359 74.2812C209.251 74.2677 208.143 74.2541 207.001 74.2401C205.979 74.2234 204.958 74.2067 203.905 74.1895C203.004 74.1769 202.103 74.1644 201.174 74.1515C199 74 199 74 197 73C196.67 101.05 196.34 129.1 196 158C195.67 158 195.34 158 195 158C195 107.84 195 57.68 195 6Z" fill="#D1800B"/>
<path d="M198 75C217.47 75 236.94 75 257 75C257 75.33 257 75.66 257 76C237.86 76 218.72 76 199 76C199 80.62 199 85.24 199 90C202.3 90 205.6 90 209 90C209.33 117.06 209.66 144.12 210 172C227.82 172 245.64 172 264 172C264 172.33 264 172.66 264 173C260.488 173.799 257.257 174.122 253.659 174.114C252.604 174.113 251.549 174.113 250.462 174.113C248.816 174.105 248.816 174.105 247.137 174.098C246.12 174.097 245.102 174.096 244.054 174.095C240.265 174.089 236.476 174.075 232.688 174.062C224.211 174.042 215.734 174.021 207 174C207 146.61 207 119.22 207 91C204.03 91 201.06 91 198 91C198 85.72 198 80.44 198 75Z" fill="#FEECC4"/>
<path d="M196 71C196.33 71.66 196.66 72.32 197 73C214.82 73.33 232.64 73.66 251 74C251 74.33 251 74.66 251 75C233.51 75 216.02 75 198 75C198 80.28 198 85.56 198 91C200.97 91 203.94 91 207 91C207 118.39 207 145.78 207 174C223.5 174 240 174 257 174C257 174.33 257 174.66 257 175C240.17 175 223.34 175 206 175C206 147.61 206 120.22 206 92C203.03 92 200.06 92 197 92C196 91 196 91 195.887 89.0505C195.895 87.8016 195.895 87.8016 195.903 86.5273C195.906 85.6282 195.909 84.7291 195.912 83.8027C195.921 82.8572 195.929 81.9117 195.938 80.9375C195.942 79.9881 195.947 79.0387 195.951 78.0605C195.963 75.707 195.98 73.3535 196 71Z" fill="#E9A946"/>
<path d="M465 83C465.33 83 465.66 83 466 83C466 112.37 466 141.74 466 172C471.61 172.33 477.22 172.66 483 173C483 172.34 483 171.68 483 171C483.66 171 484.32 171 485 171C484.67 160.44 484.34 149.88 484 139C484.66 139.33 485.32 139.66 486 140C488.333 140.04 490.667 140.043 493 140C493 140.33 493 140.66 493 141C491.02 141 489.04 141 487 141C487 152.22 487 163.44 487 175C479.74 175 472.48 175 465 175C465 144.64 465 114.28 465 83Z" fill="#CDF0D3"/>
<path d="M170 173C172.475 173.495 172.475 173.495 175 174C174.01 174.33 173.02 174.66 172 175C172 195.13 172 215.26 172 236C179.26 236 186.52 236 194 236C194 215.21 194 194.42 194 173C194.33 173 194.66 173 195 173C195 194.12 195 215.24 195 237C187.08 237 179.16 237 171 237C170 236 170 236 169.88 233.488C169.882 232.371 169.884 231.254 169.887 230.103C169.887 228.842 169.887 227.581 169.887 226.281C169.892 224.895 169.897 223.508 169.902 222.121C169.904 220.71 169.906 219.299 169.907 217.888C169.911 214.168 169.92 210.447 169.931 206.727C169.942 202.933 169.946 199.139 169.951 195.346C169.962 187.897 169.979 180.449 170 173Z" fill="#4E2413"/>
<path d="M380 114C380.33 114 380.66 114 381 114C381.33 132.81 381.66 151.62 382 171C385.954 171.989 389.706 172.329 393.75 172.562C394.796 172.627 394.796 172.627 395.863 172.693C397.575 172.799 399.288 172.9 401 173C400.996 172.416 400.991 171.831 400.987 171.229C400.942 165.163 400.912 159.096 400.89 153.029C400.88 150.763 400.866 148.497 400.849 146.231C400.825 142.98 400.814 139.728 400.805 136.477C400.794 135.459 400.784 134.441 400.773 133.392C400.773 132.452 400.773 131.511 400.773 130.542C400.769 129.711 400.764 128.88 400.759 128.025C401 126 401 126 403 124C403.025 131.102 403.043 138.205 403.055 145.307C403.06 147.726 403.067 150.144 403.075 152.562C403.088 156.03 403.093 159.497 403.098 162.965C403.103 164.053 403.108 165.142 403.113 166.263C403.113 167.765 403.113 167.765 403.114 169.297C403.116 170.183 403.118 171.069 403.12 171.982C403 174 403 174 402 175C394.74 175 387.48 175 380 175C380 154.87 380 134.74 380 114Z" fill="#F2AAA5"/>
<path d="M339 7C339.66 7 340.32 7 341 7C341.01 8.09803 341.021 9.19606 341.031 10.3274C341.129 20.6575 341.232 30.9876 341.339 41.3177C341.395 46.6289 341.448 51.9402 341.497 57.2515C341.545 62.3738 341.597 67.496 341.653 72.6182C341.673 74.5759 341.692 76.5336 341.709 78.4913C341.733 81.2259 341.763 83.9603 341.795 86.6948C341.8 87.5105 341.806 88.3262 341.812 89.1666C341.773 93.2146 341.773 93.2146 343 97C341.68 97 340.36 97 339 97C339 67.3 339 37.6 339 7Z" fill="#CB2E00"/>
<path d="M73 114C73.33 114 73.66 114 74 114C74.33 133.47 74.66 152.94 75 173C80.94 172.67 86.88 172.34 93 172C92.9652 167.704 92.9652 167.704 92.9297 163.32C92.9141 160.554 92.902 157.787 92.8901 155.02C92.8801 153.094 92.8664 151.167 92.8491 149.241C92.8249 146.476 92.8135 143.711 92.8047 140.945C92.7944 140.081 92.784 139.216 92.7734 138.325C92.773 136.215 92.8773 134.106 93 132C93.66 131.34 94.32 130.68 95 130C95 144.52 95 159.04 95 174C87.74 174 80.48 174 73 174C73 154.2 73 134.4 73 114Z" fill="#FED2CA"/>
<path d="M339 169C343 171 343 171 345.348 172.605C348.589 174.31 350.793 174.368 354.438 174.312C355.529 174.309 356.621 174.305 357.746 174.301C361.101 173.991 363.859 173.189 367 172C367 172.66 367 173.32 367 174C366.34 174 365.68 174 365 174C365 174.66 365 175.32 365 176C357.41 176 349.82 176 342 176C341.939 179.242 341.879 182.484 341.816 185.824C341.754 189.005 341.691 192.186 341.628 195.366C341.585 197.557 341.543 199.748 341.503 201.939C341.071 225.291 341.071 225.291 340 236C339.67 236 339.34 236 339 236C339 213.89 339 191.78 339 169Z" fill="#CF2E01"/>
<path d="M522 150C524.201 151.981 525.246 153.482 526.625 156.188C528.642 159.188 528.642 159.188 531.258 159.387C533.533 159.376 535.74 159.261 538 159C538.323 168.355 538.323 168.355 536 173C530.073 176.047 522.794 176.192 516.477 174.207C514.312 173.188 514.312 173.188 511 171C510.67 170.01 510.34 169.02 510 168C516.055 168.391 516.055 168.391 518 169C519.258 171.047 519.258 171.047 520 173C521.604 173.054 523.208 173.093 524.812 173.125C525.706 173.148 526.599 173.171 527.52 173.195C530.254 173.183 530.254 173.183 533 171C533.363 169.023 533.363 169.023 533.188 166.875C533.126 165.596 533.064 164.317 533 163C531.35 163 529.7 163 528 163C527.897 162.361 527.794 161.721 527.688 161.062C527.461 160.382 527.234 159.701 527 159C526.01 158.67 525.02 158.34 524 158C524 156.68 524 155.36 524 154C523.34 154 522.68 154 522 154C522 152.68 522 151.36 522 150Z" fill="#EFFCF5"/>
<path d="M456 67C465.9 67 475.8 67 486 67C486 85.81 486 104.62 486 124C485.67 124 485.34 124 485 124C484.67 106.18 484.34 88.36 484 70C475.09 69.67 466.18 69.34 457 69C457 72.96 457 76.92 457 81C459.64 81 462.28 81 465 81C465 81.33 465 81.66 465 82C462.03 82 459.06 82 456 82C456 77.05 456 72.1 456 67Z" fill="#E7FEEB"/>
<path d="M230 130C235.043 129.907 235.043 129.907 240.188 129.813C241.764 129.772 241.764 129.772 243.372 129.73C248.393 129.685 251.927 129.677 256 133C255.01 133.33 254.02 133.66 253 134C252.34 133.67 251.68 133.34 251 133C249.553 132.849 248.101 132.751 246.648 132.684C245.882 132.646 245.115 132.607 244.326 132.568C243.352 132.525 242.378 132.482 241.375 132.438C238.281 132.293 235.188 132.149 232 132C232 139.92 232 147.84 232 156C238.6 156 245.2 156 252 156C252 156.33 252 156.66 252 157C244.63 158.217 237.475 158.066 230 158C230 148.76 230 139.52 230 130Z" fill="#E7A039"/>
<path d="M372 113C374.64 113 377.28 113 380 113C380 133.13 380 153.26 380 174C378 172 378 172 377.759 169.596C377.764 168.587 377.768 167.579 377.773 166.541C377.773 165.399 377.773 164.258 377.773 163.083C377.784 161.846 377.794 160.61 377.805 159.336C377.809 157.442 377.809 157.442 377.813 155.511C377.823 152.154 377.841 148.797 377.863 145.44C377.883 142.014 377.892 138.589 377.902 135.164C377.924 128.443 377.958 121.721 378 115C375.03 114.505 375.03 114.505 372 114C372 113.67 372 113.34 372 113Z" fill="#BD1A1E"/>
<path d="M197 104C198.025 107.386 198.127 110.477 198.129 114.006C198.133 115.217 198.136 116.429 198.139 117.677C198.137 118.981 198.135 120.285 198.133 121.629C198.133 122.984 198.134 124.338 198.136 125.693C198.137 128.528 198.135 131.364 198.13 134.199C198.125 137.833 198.128 141.467 198.134 145.101C198.138 147.896 198.136 150.692 198.134 153.488C198.133 155.479 198.136 157.471 198.139 159.462C198.134 161.274 198.134 161.274 198.129 163.123C198.129 164.188 198.128 165.253 198.127 166.35C198 169 198 169 197 172C196.34 171.67 195.68 171.34 195 171C195.023 170.301 195.046 169.603 195.07 168.883C195.088 167.973 195.106 167.063 195.125 166.125C195.16 164.768 195.16 164.768 195.195 163.383C195.243 160.812 195.243 160.812 193 159C193.99 158.505 193.99 158.505 195 158C195.015 157.029 195.015 157.029 195.031 156.039C195.139 149.324 195.254 142.608 195.372 135.893C195.416 133.385 195.457 130.876 195.497 128.368C195.555 124.768 195.619 121.169 195.684 117.57C195.7 116.443 195.717 115.316 195.734 114.155C195.754 113.114 195.774 112.073 195.795 111C195.81 110.081 195.826 109.162 195.842 108.215C196 106 196 106 197 104Z" fill="#F0960F"/>
<path d="M230.949 89.8867C231.782 89.892 232.615 89.8972 233.473 89.9026C234.372 89.9058 235.271 89.909 236.197 89.9124C237.616 89.9249 237.616 89.9249 239.062 89.9377C240.012 89.9423 240.961 89.9468 241.939 89.9514C244.293 89.9632 246.646 89.9797 249 90.0002C249 90.6602 249 91.3202 249 92.0002C242.73 91.6702 236.46 91.3402 230 91.0002C230 99.2502 230 107.5 230 116C239.405 115.505 239.405 115.505 249 115C249 115.66 249 116.32 249 117C246.599 118.201 245.106 118.115 242.43 118.098C241.534 118.095 240.638 118.091 239.715 118.088C238.778 118.08 237.841 118.071 236.875 118.063C235.93 118.058 234.985 118.054 234.012 118.049C231.674 118.037 229.337 118.021 227 118C227.138 113.521 227.287 109.042 227.438 104.563C227.477 103.283 227.516 102.004 227.557 100.686C227.599 99.4708 227.64 98.2559 227.684 97.0042C227.72 95.8782 227.757 94.7523 227.795 93.5923C228.075 90.0541 228.075 90.0541 230.949 89.8867Z" fill="#FEF1C4"/>
<path d="M351 103C354.436 104.145 354.801 104.774 356.625 107.75C357.05 108.425 357.476 109.101 357.914 109.797C360.55 115.144 360.131 120.855 360.098 126.676C360.096 127.601 360.095 128.526 360.093 129.479C360.088 132.424 360.075 135.368 360.062 138.312C360.057 140.313 360.053 142.314 360.049 144.314C360.038 149.21 360.021 154.105 360 159C359.67 159 359.34 159 359 159C358.243 152.964 357.861 147.106 357.902 141.027C357.904 140.219 357.905 139.41 357.907 138.577C357.912 136.031 357.925 133.484 357.938 130.938C357.943 129.196 357.947 127.454 357.951 125.713C357.962 121.475 357.979 117.238 358 113C357.34 113 356.68 113 356 113C355.876 112.072 355.876 112.072 355.75 111.125C355.187 108.816 355.187 108.816 352.938 107.75C352.298 107.502 351.659 107.255 351 107C351 105.68 351 104.36 351 103Z" fill="#F8BCBF"/>
<path d="M162 117C163.485 117.99 163.485 117.99 165 119C165.399 121.063 165.399 121.063 165.432 123.633C165.452 124.594 165.472 125.555 165.492 126.545C165.502 128.104 165.502 128.104 165.512 129.695C165.53 130.758 165.548 131.82 165.566 132.915C165.62 136.318 165.654 139.722 165.688 143.125C165.721 145.428 165.755 147.732 165.791 150.035C165.876 155.69 165.944 161.345 166 167C163.99 165.35 163.084 164.452 162.601 161.855C162.59 161.027 162.579 160.198 162.568 159.345C162.548 158.404 162.528 157.463 162.508 156.494C162.501 155.482 162.495 154.469 162.488 153.426C162.47 152.387 162.452 151.348 162.434 150.277C162.38 146.956 162.346 143.634 162.312 140.312C162.279 138.062 162.245 135.811 162.209 133.561C162.124 128.04 162.056 122.52 162 117Z" fill="#DB4133"/>
<path d="M321 137C323.271 136.946 325.542 136.907 327.812 136.875C329.077 136.852 330.342 136.829 331.645 136.805C335 137 335 137 338 139C338.293 141.82 338.293 141.82 338.188 145.125C338.16 146.221 338.133 147.316 338.105 148.445C338.071 149.288 338.036 150.131 338 151C337.67 151 337.34 151 337 151C336.505 146.05 336.505 146.05 336 141C332.871 140.218 330.643 139.839 327.5 139.812C326.371 139.791 326.371 139.791 325.219 139.77C322.685 140.033 321.124 140.598 319 142C317.253 147.241 317.672 152.688 319 158C317.68 157.67 316.36 157.34 315 157C314.892 154.751 314.814 152.501 314.75 150.25C314.704 148.997 314.657 147.744 314.609 146.453C315 143 315 143 316.891 140.547C319 139 319 139 321 139C321 138.34 321 137.68 321 137Z" fill="#ECA543"/>
<path d="M330 112C331.32 112.33 332.64 112.66 334 113C334 113.66 334 114.32 334 115C334.99 115.33 335.98 115.66 337 116C338.158 119.473 338.069 122.361 338 126C337.051 125.77 337.051 125.77 336.082 125.535C331.96 124.819 327.862 124.638 323.688 124.438C322.852 124.394 322.016 124.351 321.154 124.307C319.103 124.201 317.052 124.1 315 124C315 123.34 315 122.68 315 122C322.92 121.505 322.92 121.505 331 121C331 120.34 331 119.68 331 119C331.99 119 332.98 119 334 119C334 118.01 334 117.02 334 116C333.34 116 332.68 116 332 116C332 115.34 332 114.68 332 114C331.34 114 330.68 114 330 114C330 113.34 330 112.68 330 112Z" fill="#E99B29"/>
<path d="M117.596 114.698C120 117 120 117 120.601 119.645C120.59 120.649 120.579 121.652 120.568 122.686C120.567 123.827 120.567 124.968 120.566 126.144C120.541 127.37 120.515 128.596 120.488 129.859C120.481 131.119 120.474 132.378 120.467 133.676C120.444 137.017 120.399 140.357 120.343 143.698C120.292 147.109 120.269 150.521 120.244 153.934C120.189 160.623 120.105 167.311 120 174C119.67 174 119.34 174 119 174C118.994 173.347 118.988 172.694 118.982 172.021C118.918 165.224 118.834 158.427 118.738 151.631C118.704 149.094 118.676 146.558 118.654 144.021C118.62 140.374 118.568 136.728 118.512 133.082C118.505 131.948 118.499 130.815 118.492 129.647C118.473 128.586 118.453 127.526 118.432 126.433C118.421 125.502 118.41 124.572 118.399 123.613C117.827 119.864 116.323 117.029 113.312 114.687C109.832 113.653 106.623 113.879 103 114C103 113.34 103 112.68 103 112C108.367 110.338 113.022 111.705 117.596 114.698Z" fill="#FED6CC"/>
<path d="M271 170C271.495 172.475 271.495 172.475 272 175C269 175 269 175 267.188 174.375C264.92 173.789 264.92 173.789 262.611 174.964C257.411 176.456 252.421 176.246 247.039 176.195C245.893 176.192 244.748 176.19 243.567 176.187C239.92 176.176 236.272 176.15 232.625 176.125C230.147 176.115 227.669 176.106 225.191 176.098C219.128 176.076 213.064 176.042 207 176C207 175.67 207 175.34 207 175C207.9 174.995 207.9 174.995 208.817 174.989C215.113 174.947 221.408 174.877 227.703 174.792C230.046 174.764 232.389 174.743 234.732 174.729C238.119 174.707 241.504 174.661 244.891 174.609C245.922 174.608 246.954 174.607 248.017 174.606C254.743 174.473 260.3 173.204 266.605 170.854C269 170 269 170 271 170Z" fill="#E59417"/>
<path d="M299 134C299 135.98 299 137.96 299 140C298.01 140 297.02 140 296 140C295.4 153.094 295.4 153.094 300 165C299.505 166.485 299.505 166.485 299 168C295 161.25 295 161.25 295 159C294.34 159 293.68 159 293 159C292.864 155.957 292.765 152.92 292.687 149.875C292.645 149.019 292.603 148.163 292.56 147.281C292.475 142.837 292.576 139.909 295.457 136.383C298 134 298 134 299 134Z" fill="#FAEDCA"/>
<path d="M230 91C234.95 91 239.9 91 245 91C245 91.33 245 91.66 245 92C240.71 92 236.42 92 232 92C232.33 99.26 232.66 106.52 233 114C236.96 114.33 240.92 114.66 245 115C245 115.33 245 115.66 245 116C240.05 116 235.1 116 230 116C230 107.75 230 99.5 230 91Z" fill="#E19C2F"/>
<path d="M197 71C197.832 71.2421 197.832 71.2421 198.681 71.4892C201.216 72.0476 203.505 72.1459 206.101 72.1736C207.116 72.1871 208.13 72.2006 209.176 72.2145C210.268 72.2249 211.36 72.2353 212.484 72.2461C214.805 72.279 217.125 72.3122 219.445 72.3457C223.097 72.393 226.748 72.4375 230.399 72.4768C233.928 72.5167 237.456 72.5682 240.984 72.6211C242.61 72.6337 242.61 72.6337 244.268 72.6466C250.179 72.7423 255.332 73.2969 261 75C258.506 75.7119 257.097 76.0162 254.493 75.5801C249.376 74.7303 244.289 74.7827 239.109 74.7188C237.968 74.7003 236.827 74.6819 235.652 74.663C230.781 74.5844 225.909 74.5163 221.038 74.4478C217.478 74.3961 213.919 74.3389 210.359 74.2812C209.251 74.2677 208.143 74.2541 207.001 74.2401C205.979 74.2234 204.958 74.2067 203.905 74.1895C203.004 74.1769 202.103 74.1644 201.174 74.1515C199 74 199 74 197 73C197 72.34 197 71.68 197 71Z" fill="#DE951D"/>
<path d="M360 121C360.33 121 360.66 121 361 121C361.33 133.21 361.66 145.42 362 158C364.64 158 367.28 158 370 158C370 160.31 370 162.62 370 165C369.67 165 369.34 165 369 165C369 163.02 369 161.04 369 159C368.01 159.495 368.01 159.495 367 160C363.938 160.125 363.938 160.125 361 160C360 159 360 159 359.887 155.398C359.887 153.795 359.893 152.193 359.903 150.59C359.904 149.748 359.905 148.906 359.907 148.038C359.912 145.338 359.925 142.638 359.938 139.938C359.943 138.111 359.947 136.285 359.951 134.459C359.962 129.973 359.98 125.486 360 121Z" fill="#C32E35"/>
<path d="M326.125 93.8127C326.815 93.8005 327.504 93.7882 328.215 93.7756C332.264 93.764 335.358 94.2076 339 96.0002C335.973 96.8908 333.367 97.0853 330.219 96.9924C329.299 96.9737 328.38 96.955 327.432 96.9358C326.465 96.9158 325.497 96.8958 324.5 96.8752C316.171 96.7716 308.916 97.1946 301 100C301 99.3402 301 98.6802 301 98.0002C302.519 97.5144 304.04 97.0369 305.562 96.5627C306.409 96.2959 307.256 96.029 308.129 95.7541C314.106 94.1846 319.984 93.8185 326.125 93.8127Z" fill="#EB961A"/>
<path d="M282 134C285.739 139.608 285.474 144.353 285 151C283.973 155.468 282.398 158.869 279 162C279.875 155.125 279.875 155.125 281 154C281.157 152.514 281.251 151.021 281.316 149.527C281.358 148.628 281.4 147.729 281.443 146.803C281.483 145.857 281.522 144.912 281.562 143.938C281.606 142.988 281.649 142.039 281.693 141.061C281.8 138.707 281.902 136.354 282 134Z" fill="#FBEBC1"/>
<path d="M354 105C356.475 105.495 356.475 105.495 359 106C362.177 115.872 362.364 125.02 362.188 135.25C362.172 136.785 362.159 138.32 362.146 139.855C362.114 143.571 362.062 147.285 362 151C361.67 151 361.34 151 361 151C360.985 150.149 360.971 149.298 360.956 148.421C360.894 145.209 360.82 141.998 360.738 138.787C360.705 137.407 360.677 136.027 360.654 134.647C360.479 124.406 360.242 113.62 354 105Z" fill="#BD0707"/>
<path d="M303 129C303 129.66 303 130.32 303 131C302.01 131.33 301.02 131.66 300 132C295.994 135.279 293.963 138.976 293.391 144.09C293.095 148.06 293.01 152.02 293 156C292.67 156 292.34 156 292 156C291.67 149.73 291.34 143.46 291 137C291.66 136.67 292.32 136.34 293 136C293.433 135.01 293.866 134.02 294.312 133C296 130 296 130 298.562 129.125C300.04 129.049 301.52 129 303 129Z" fill="#ED9B21"/>
<path d="M186 115C186.33 115 186.66 115 187 115C187.33 129.52 187.66 144.04 188 159C189.32 159.66 190.64 160.32 192 161C191.34 161 190.68 161 190 161C190 161.66 190 162.32 190 163C189.01 163 188.02 163 187 163C185.813 160.626 185.879 159.198 185.887 156.55C185.887 155.629 185.887 154.709 185.887 153.76C185.892 152.764 185.897 151.768 185.903 150.742C185.904 149.724 185.905 148.706 185.907 147.657C185.912 144.396 185.925 141.136 185.938 137.875C185.943 135.668 185.947 133.461 185.951 131.254C185.962 125.836 185.979 120.418 186 115Z" fill="#CFCDCB"/>
<path d="M487 141C489.31 141 491.62 141 494 141C494.33 142.32 494.66 143.64 495 145C494.34 145 493.68 145 493 145C493 144.34 493 143.68 493 143C492.34 143 491.68 143 491 143C491 144.65 491 146.3 491 148C490.34 148 489.68 148 489 148C488.67 156.25 488.34 164.5 488 173C487.67 173 487.34 173 487 173C487 162.44 487 151.88 487 141Z" fill="#359F4C"/>
<path d="M509 97C516.26 97 523.52 97 531 97C530.67 98.32 530.34 99.64 530 101C529.01 101.495 529.01 101.495 528 102C528 101.01 528 100.02 528 99C522.06 99 516.12 99 510 99C509.67 99.99 509.34 100.98 509 102C508.34 102 507.68 102 507 102C507.66 100.35 508.32 98.7 509 97Z" fill="#ADE4BA"/>
<path d="M159.438 95.8122C160.169 95.8257 160.901 95.8393 161.654 95.8532C163.437 95.8882 165.218 95.9419 167 95.9997C167 96.3297 167 96.6597 167 96.9997C166.047 97.0487 165.095 97.0977 164.113 97.1481C162.859 97.2229 161.605 97.2977 160.312 97.3747C158.45 97.4791 158.45 97.4791 156.551 97.5856C153.283 97.9667 150.91 98.4987 148 99.9997C147.67 100.66 147.34 101.32 147 102C146.01 102.309 145.02 102.618 144 102.937C142.515 103.463 142.515 103.463 141 104C140.67 104.99 140.34 105.98 140 107C138.35 107 136.7 107 135 107C134.67 105.68 134.34 104.36 134 103C134.536 103.268 135.072 103.536 135.625 103.812C138.288 104.295 138.288 104.295 140.812 101.75C141.252 101.311 141.692 100.873 142.145 100.422C147.646 96.2058 152.751 95.5736 159.438 95.8122Z" fill="#FABCB0"/>
<path d="M249 92C250.32 92 251.64 92 253 92C253 92.66 253 93.32 253 94C253.99 94.33 254.98 94.66 256 95C256.562 96.9375 256.562 96.9375 257 99C257.66 99.66 258.32 100.32 259 101C256.294 111.743 256.294 111.743 252 115C251.34 114.67 250.68 114.34 250 114C250.655 113.326 251.31 112.652 251.984 111.957C254.511 108.25 254.416 106.123 254.25 101.688C254.214 100.433 254.178 99.179 254.141 97.8867C254.094 96.9341 254.048 95.9815 254 95C251.525 94.01 251.525 94.01 249 93C249 92.67 249 92.34 249 92Z" fill="#FBE9B9"/>
<path d="M304 172C304.929 172.327 305.859 172.655 306.816 172.992C311.819 174.422 316.775 174.217 321.938 174.125C322.908 174.116 323.878 174.107 324.877 174.098C327.252 174.074 329.626 174.041 332 174C331.34 175.32 330.68 176.64 330 178C329.67 177.34 329.34 176.68 329 176C328.45 176.162 327.899 176.325 327.332 176.492C320.834 177.907 313.483 177.351 307 176C306.01 175.34 305.02 174.68 304 174C304 173.34 304 172.68 304 172Z" fill="#EEA237"/>
<path d="M230 128C233.604 127.942 237.208 127.907 240.812 127.875C242.349 127.85 242.349 127.85 243.916 127.825C244.899 127.818 245.882 127.812 246.895 127.805C247.801 127.795 248.706 127.784 249.64 127.773C252 128 252 128 255 130C255 130.66 255 131.32 255 132C254.443 131.842 253.886 131.684 253.312 131.52C250.841 130.965 248.544 130.792 246.016 130.684C245.081 130.642 244.146 130.6 243.184 130.557C242.216 130.518 241.247 130.478 240.25 130.438C239.266 130.395 238.283 130.352 237.27 130.307C234.846 130.201 232.423 130.099 230 130C230 129.34 230 128.68 230 128Z" fill="#FEF0D0"/>
<path d="M510 168C516.055 168.391 516.055 168.391 518 169C518.66 170.32 519.32 171.64 520 173C524.95 173 529.9 173 535 173C529.138 175.931 522.783 176.187 516.473 174.207C514.312 173.188 514.312 173.188 511 171C510.67 170.01 510.34 169.02 510 168Z" fill="#D6F4D2"/>
<path d="M339 136C339.027 138.729 339.047 141.458 339.062 144.187C339.071 144.956 339.079 145.725 339.088 146.517C339.105 150.485 338.986 154.125 338 158C337.01 158 336.02 158 335 158C335.33 157.092 335.66 156.185 336 155.25C337.555 149.938 337.162 144.48 337 139C334.566 137.783 332.582 137.68 329.875 137.437C328.965 137.353 328.055 137.27 327.117 137.183C326.419 137.123 325.72 137.062 325 137C325 136.67 325 136.34 325 136C326.958 135.805 328.916 135.619 330.875 135.437C332.511 135.281 332.511 135.281 334.18 135.121C337 135 337 135 339 136Z" fill="#FDE9BA"/>
<path d="M523 99C524.65 99 526.3 99 528 99C528.378 103.372 527.343 105.651 525 109.312C524.443 110.196 523.886 111.079 523.312 111.988C522.879 112.652 522.446 113.316 522 114C521.34 113.67 520.68 113.34 520 113C520.309 112.443 520.619 111.886 520.938 111.312C522.807 107.243 523.127 103.441 523 99Z" fill="#E4FAEC"/>
<path d="M257 76C264.139 76.4924 267.959 78.2793 273.375 83.125C275 85 275 85 275 87C273.68 87 272.36 87 271 87C270.67 86.01 270.34 85.02 270 84C269.34 83.67 268.68 83.34 268 83C268 82.01 268 81.02 268 80C266.02 80 264.04 80 262 80C262 79.34 262 78.68 262 78C260.35 77.67 258.7 77.34 257 77C257 76.67 257 76.34 257 76Z" fill="#FDEBBD"/>
<path d="M341 170C341.887 170.66 342.774 171.32 343.688 172C349.031 175.075 355.029 174.63 361 174C363.019 173.393 365.027 172.742 367 172C367 172.66 367 173.32 367 174C366.34 174 365.68 174 365 174C365 174.66 365 175.32 365 176C357.08 176 349.16 176 341 176C341 174 341 172 341 170Z" fill="#CC393D"/>
<path d="M419 113C418.34 114.32 417.68 115.64 417 117C414.03 117 411.06 117 408 117C407.67 117.99 407.34 118.98 407 120C406.01 120.33 405.02 120.66 404 121C404.909 117.943 405.675 116.277 408.125 114.187C411.975 112.597 414.853 112.789 419 113Z" fill="#C62427"/>
<path d="M522 150C524.124 151.912 525.307 153.537 526.75 156.062C529.53 159.692 531.596 160.153 536 161C534 163 534 163 530.875 163.125C529.926 163.084 528.978 163.043 528 163C527.897 162.361 527.794 161.721 527.688 161.062C527.461 160.382 527.234 159.701 527 159C526.01 158.67 525.02 158.34 524 158C524 156.68 524 155.36 524 154C523.34 154 522.68 154 522 154C522 152.68 522 151.36 522 150Z" fill="#DAF4E5"/>
<path d="M303 99C303.66 99.33 304.32 99.66 305 100C303.68 100.33 302.36 100.66 301 101C301 105.62 301 110.24 301 115C301.66 115 302.32 115 303 115C303 115.66 303 116.32 303 117C301.68 117 300.36 117 299 117C299 111.72 299 106.44 299 101C300.32 100.34 301.64 99.68 303 99Z" fill="#F9CF8F"/>
<path d="M459 218C459.202 224.36 458.628 229.852 457 236C456.67 236 456.34 236 456 236C456 230.39 456 224.78 456 219C458 218 458 218 459 218Z" fill="#189E43"/>
<path d="M247 92C250.364 93.182 252.85 94.1006 255 97C255.293 99.918 255.293 99.918 255.188 103.188C255.16 104.274 255.133 105.361 255.105 106.48C255.071 107.312 255.036 108.143 255 109C254.67 109 254.34 109 254 109C253.67 106.69 253.34 104.38 253 102C252.34 102 251.68 102 251 102C250.67 99.69 250.34 97.38 250 95C249.01 94.67 248.02 94.34 247 94C247 93.34 247 92.68 247 92Z" fill="#E39922"/>
<path d="M441 1C440.34 2.32 439.68 3.64 439 5C436.36 5 433.72 5 431 5C431 3.68 431 2.36 431 1C437.625 -0.125 437.625 -0.125 441 1Z" fill="#F3ECE9"/>
<path d="M327 172C329.31 172 331.62 172 334 172C333 174 333 174 331.204 174.615C327.437 175.273 323.689 175.184 319.875 175.188C318.639 175.206 318.639 175.206 317.379 175.225C315.251 175.23 313.124 175.123 311 175C310.34 174.34 309.68 173.68 309 173C314.94 173.33 320.88 173.66 327 174C327 173.34 327 172.68 327 172Z" fill="#FEF6CF"/>
<path d="M446 108C448.97 108.495 448.97 108.495 452 109C451.34 113.62 450.68 118.24 450 123C449.67 123 449.34 123 449 123C448.01 118.05 447.02 113.1 446 108Z" fill="#2685B9"/>
<path d="M394 97C394.66 97 395.32 97 396 97C396 97.99 396 98.98 396 100C397.145 99.6906 397.145 99.6906 398.312 99.375C401 99 401 99 404 101C401.688 103.062 401.688 103.062 399 105C398.01 104.67 397.02 104.34 396 104C394.812 100.438 394.812 100.438 394 97Z" fill="#BF1C1D"/>
<path d="M511 131C514.223 134.798 516.745 138.574 519 143C518.67 143.66 518.34 144.32 518 145C517.01 145 516.02 145 515 145C514.876 144.196 514.752 143.391 514.625 142.562C514.316 141.294 514.316 141.294 514 140C513.34 139.67 512.68 139.34 512 139C511.406 136.351 511.258 133.708 511 131Z" fill="#C8EFDA"/>
<path d="M315 137C317.97 137.495 317.97 137.495 321 138C319.793 138.959 319.793 138.959 318.562 139.938C315.246 143.901 315.12 146.973 315 152C314.67 152 314.34 152 314 152C313.973 150.25 313.954 148.5 313.938 146.75C313.926 145.775 313.914 144.801 313.902 143.797C313.988 141.342 314.293 139.338 315 137Z" fill="#FEF0D5"/>
<path d="M196 91C197.98 91.99 197.98 91.99 200 93C199.67 93.33 199.34 93.66 199 94C198.604 96.0131 198.257 98.036 197.938 100.062C197.761 101.167 197.584 102.272 197.402 103.41C197.27 104.265 197.137 105.119 197 106C196.67 106 196.34 106 196 106C196 101.05 196 96.1 196 91Z" fill="#ED950A"/>
<path d="M193 159C194.65 159 196.3 159 198 159C198.027 160.604 198.046 162.208 198.062 163.812C198.074 164.706 198.086 165.599 198.098 166.52C198 169 198 169 197 172C196.34 171.67 195.68 171.34 195 171C195.023 170.301 195.046 169.603 195.07 168.883C195.088 167.973 195.106 167.063 195.125 166.125C195.16 164.768 195.16 164.768 195.195 163.383C195.243 160.812 195.243 160.812 193 159Z" fill="#E4A94D"/>
<path d="M157 113C157.66 113.66 158.32 114.32 159 115C154.38 115.66 149.76 116.32 145 117C148.174 112.239 151.591 112.705 157 113Z" fill="#D23C28"/>
<path d="M87 99C89 102 89 102 90 105C91.98 103.35 93.96 101.7 96 100C96.66 100.33 97.32 100.66 98 101C97.1956 101.619 96.3913 102.238 95.5625 102.875C92.9613 104.742 92.9613 104.742 92 107C90.35 107 88.7 107 87 107C87 104.36 87 101.72 87 99Z" fill="#F9C5C0"/>
<path d="M313 99.0002C312 100 312 100 309.438 100.063C308.231 100.032 308.231 100.032 307 100C307 100.66 307 101.32 307 102C305.68 102.33 304.36 102.66 303 103C302.67 105.64 302.34 108.28 302 111C301.67 111 301.34 111 301 111C301 107.7 301 104.4 301 101C309 97.0002 309 97.0002 313 99.0002Z" fill="#FFFAE6"/>
<path d="M271 170C271.33 171.65 271.66 173.3 272 175C269 175 269 175 267.188 174.5C264.425 173.869 261.823 173.936 259 174C259 173.67 259 173.34 259 173C260.624 172.497 262.249 171.997 263.875 171.5C264.78 171.222 265.685 170.943 266.617 170.656C269 170 269 170 271 170Z" fill="#EB9C21"/>
<path d="M319 111C322.63 111 326.26 111 330 111C329.67 112.32 329.34 113.64 329 115C326.03 114.505 326.03 114.505 323 114C323 113.34 323 112.68 323 112C321.68 111.67 320.36 111.34 319 111Z" fill="#EE9621"/>
<path d="M528 102C528.33 103.32 528.66 104.64 529 106C528.34 106 527.68 106 527 106C526.959 106.887 526.918 107.774 526.875 108.688C525.679 113.216 523.737 114.296 520 117C521.619 113.699 523.359 110.474 525.125 107.25C525.664 106.265 526.203 105.28 526.758 104.266C527.168 103.518 527.578 102.77 528 102Z" fill="#48AC63"/>
<path d="M351 103C354.44 104.147 354.878 104.845 356.75 107.812C357.199 108.5 357.647 109.187 358.109 109.895C359.169 112.399 358.924 113.493 358 116C358 115.01 358 114.02 358 113C357.34 113 356.68 113 356 113C355.876 112.072 355.876 112.072 355.75 111.125C355.187 108.816 355.187 108.816 352.938 107.75C352.298 107.502 351.659 107.255 351 107C351 105.68 351 104.36 351 103Z" fill="#F5BEBD"/>
<path d="M488 141C489.98 141 491.96 141 494 141C494.33 142.32 494.66 143.64 495 145C494.34 145 493.68 145 493 145C493 144.34 493 143.68 493 143C492.34 143 491.68 143 491 143C491 144.65 491 146.3 491 148C490.34 148 489.68 148 489 148C488.67 145.69 488.34 143.38 488 141Z" fill="#2CA043"/>
<path d="M303 129C303 129.66 303 130.32 303 131C302.01 131.33 301.02 131.66 300 132C298.602 133.956 297.262 135.954 296 138C294.903 134.71 295.2 133.287 296 130C300.75 129 300.75 129 303 129Z" fill="#E8AA44"/>
<path d="M248 112C250.062 112.438 250.062 112.438 252 113C250 115 250 115 246.086 115.195C244.516 115.182 242.945 115.158 241.375 115.125C240.573 115.116 239.771 115.107 238.945 115.098C236.963 115.074 234.982 115.038 233 115C233 114.67 233 114.34 233 114C233.999 113.939 234.998 113.879 236.027 113.816C237.318 113.733 238.608 113.649 239.938 113.562C241.225 113.481 242.513 113.4 243.84 113.316C246.86 113.351 246.86 113.351 248 112Z" fill="#E89417"/>
<path d="M360 159C362.97 159 365.94 159 369 159C369 163.29 369 167.58 369 172C368.67 172 368.34 172 368 172C367.67 168.7 367.34 165.4 367 162C364.69 161.67 362.38 161.34 360 161C360 160.34 360 159.68 360 159Z" fill="#F6C2BF"/>
<path d="M500 113C500 116.932 498.747 119.507 497 123C496.01 123.33 495.02 123.66 494 124C494.607 120.847 495.642 118.811 497.562 116.25C498.018 115.636 498.473 115.023 498.941 114.391C499.291 113.932 499.64 113.473 500 113Z" fill="#B2E6BD"/>
<path d="M354 105C356.438 105.375 356.438 105.375 359 106C360.203 108.405 360.101 109.95 360.062 112.625C360.053 113.442 360.044 114.26 360.035 115.102C360.024 115.728 360.012 116.355 360 117C359.67 117 359.34 117 359 117C358.807 116.385 358.613 115.77 358.414 115.137C358.154 114.328 357.893 113.52 357.625 112.688C357.37 111.887 357.115 111.086 356.852 110.262C356.012 107.773 356.012 107.773 354 105Z" fill="#BE191F"/>
<path d="M332 174C331.34 175.32 330.68 176.64 330 178C329.67 177.34 329.34 176.68 329 176C324.38 176 319.76 176 315 176C315 175.67 315 175.34 315 175C317.271 174.832 319.542 174.666 321.812 174.5C323.709 174.361 323.709 174.361 325.645 174.219C327.76 174.081 329.88 174 332 174Z" fill="#F0B652"/>
<path d="M342 170C345.558 170.61 348.683 171.578 352 173C352 173.66 352 174.32 352 175C347.248 174.568 345.08 173.672 342 170Z" fill="#FBD8DB"/>
<path d="M534 167C534.99 167 535.98 167 537 167C537.043 168.666 537.041 170.334 537 172C536 173 536 173 533.438 173.062C532.231 173.032 532.231 173.032 531 173C531.66 172.34 532.32 171.68 533 171C533.643 168.931 533.643 168.931 534 167Z" fill="#E8FEE9"/>
<path d="M277 164C277.66 164.33 278.32 164.66 279 165C276.375 169.875 276.375 169.875 273 171C272.34 170.34 271.68 169.68 271 169C272.98 167.35 274.96 165.7 277 164Z" fill="#E9A939"/>
<path d="M87 98C87.66 98 88.32 98 89 98C89.66 98.99 90.32 99.98 91 101C91.99 100.67 92.98 100.34 94 100C94 100.99 94 101.98 94 103C92 104.688 92 104.688 90 106C89.01 103.36 88.02 100.72 87 98Z" fill="#D2332C"/>
<path d="M341 170C343.97 171.65 346.94 173.3 350 175C350 175.33 350 175.66 350 176C347.03 176 344.06 176 341 176C341 174 341 172 341 170Z" fill="#C52725"/>
<path d="M283 152C283.33 152 283.66 152 284 152C284.288 155.051 284.458 157.962 284 161C281.5 163.062 281.5 163.062 279 164C279.289 163.319 279.577 162.639 279.875 161.938C281.126 158.671 282.074 155.372 283 152Z" fill="#F1A23B"/>
<path d="M513 128C515 131 515 131 515 133C515.329 135.559 515.329 135.559 516 138C516.66 138.33 517.32 138.66 518 139C517.01 139 516.02 139 515 139C512.531 136.002 511.944 134.597 512.313 130.688C512.54 129.801 512.767 128.914 513 128Z" fill="#3C9F54"/>
<path d="M531 172C530.67 172.66 530.34 173.32 530 174C526.7 174 523.4 174 520 174C520 173.67 520 173.34 520 173C524.122 171.37 526.707 170.737 531 172Z" fill="#FBFEEC"/>
<path d="M267 167C268.65 167.33 270.3 167.66 272 168C269.605 170.899 267.688 171.502 264 172C264 171.34 264 170.68 264 170C264.99 170 265.98 170 267 170C267 169.01 267 168.02 267 167Z" fill="#FBF2D1"/>
<path d="M522 150C524.969 152.545 526.362 155.49 528 159C526.68 158.67 525.36 158.34 524 158C524 156.68 524 155.36 524 154C523.34 154 522.68 154 522 154C522 152.68 522 151.36 522 150Z" fill="#C2F0D0"/>
<path d="M339 136C339 136.66 339 137.32 339 138C332.07 137.505 332.07 137.505 325 137C325 136.67 325 136.34 325 136C326.958 135.805 328.916 135.619 330.875 135.437C332.511 135.281 332.511 135.281 334.18 135.121C337 135 337 135 339 136Z" fill="#FDF0D1"/>
<path d="M313 96.0002C309.205 98.2142 305.244 99.01 301 100C301 99.3402 301 98.6802 301 98.0002C305.121 96.0023 308.452 95.8218 313 96.0002Z" fill="#E89423"/>
<path d="M145 117C145.66 117 146.32 117 147 117C146.67 118.32 146.34 119.64 146 121C145.34 121 144.68 121 144 121C143.67 122.98 143.34 124.96 143 127C142.312 125.375 142.312 125.375 142 123C143.438 119.75 143.438 119.75 145 117Z" fill="#D62016"/>
<path d="M137 100C138.98 100 140.96 100 143 100C141.35 101.65 139.7 103.3 138 105C137.01 104.67 136.02 104.34 135 104C135.66 103.67 136.32 103.34 137 103C137 102.01 137 101.02 137 100Z" fill="#D03823"/>
</svg>
