<?xml version="1.0" encoding="UTF-8"?>
<svg version="1.1" xmlns="http://www.w3.org/2000/svg" width="491" height="661">
<path d="M0 0 C2.40701121 1.00867286 4.54901758 2.03600933 6.8125 3.296875 C7.77589798 3.81413399 7.77589798 3.81413399 8.75875854 4.34184265 C10.84579103 5.46612539 12.92276276 6.60773693 15 7.75 C16.44619548 8.53370815 17.89297794 9.31633405 19.34033203 10.09790039 C22.91794332 12.03333807 26.48778269 13.98261336 30.05529785 15.93658447 C32.82140448 17.4491661 35.59418991 18.94931597 38.3671875 20.44921875 C41.93264652 22.37916305 45.48750048 24.32660913 49.03515625 26.2890625 C52.42922121 28.16132657 55.85226376 29.95641013 59.30859375 31.7109375 C60.15244629 32.14994385 60.99629883 32.5889502 61.86572266 33.04125977 C63.44478524 33.86167275 65.03388408 34.66317914 66.63427734 35.44116211 C70.52184065 37.49140291 71.75045016 38.22418859 73.1484375 42.5703125 C72.99062389 46.21663747 72.85700314 47.10103426 70.3125 49.5625 C66.79413328 53.17879343 63.50085863 56.8950826 60.25 60.75 C56.36053713 65.31658078 52.39528225 69.79315408 48.3125 74.1875 C44.92475627 77.83413376 41.68102204 81.55617401 38.5625 85.4375 C34.20374983 90.85267975 29.52769064 95.91665562 24.7890625 100.99609375 C22.56746129 103.37892822 20.38961543 105.79286173 18.25 108.25 C17.72148437 108.85457031 17.19296875 109.45914063 16.6484375 110.08203125 C15.4087635 111.52440076 14.18790739 112.98297697 12.9765625 114.44921875 C11.93628906 115.68091797 11.93628906 115.68091797 10.875 116.9375 C10.25367188 117.68902344 9.63234375 118.44054687 8.9921875 119.21484375 C6.58779184 121.36937084 5.22066586 121.90998139 2 122 C-0.0703125 120.91796875 -0.0703125 120.91796875 -2.125 119.1875 C-2.89972656 118.54167969 -3.67445313 117.89585937 -4.47265625 117.23046875 C-8.13192914 114.00103317 -11.7612243 110.74484783 -15.3359375 107.421875 C-18.31804272 104.71087026 -21.43105084 102.20681499 -24.63671875 99.765625 C-26 98 -26 98 -26.4375 95.109375 C-25.90423615 91.31939261 -24.8130787 89.87319635 -22.3125 87 C-21.49394531 86.05125 -20.67539063 85.1025 -19.83203125 84.125 C-16.2195389 80.10512235 -12.52809676 76.15738608 -8.82641602 72.21972656 C-0.52137677 63.74467761 -0.52137677 63.74467761 6 54 C2.74033068 51.61441149 2.74033068 51.61441149 -1.140625 51.08203125 C-5.39070204 52.44646855 -8.84074959 54.82053463 -12.5625 57.25 C-13.39313965 57.78359131 -14.2237793 58.31718262 -15.07958984 58.86694336 C-17.72515713 60.56972036 -20.36306829 62.2838862 -23 64 C-24.69906507 65.10049773 -26.39828163 66.2007616 -28.09765625 67.30078125 C-32.26081643 69.99959632 -36.41773569 72.70787715 -40.57324219 75.41845703 C-44.46119757 77.95227745 -48.35483512 80.47728091 -52.25 83 C-52.91660645 83.43256104 -53.58321289 83.86512207 -54.27001953 84.31079102 C-58.81721495 87.25515461 -63.40001451 90.13892766 -68 93 C-66.78361023 98.91386101 -65.27379828 104.61920752 -63.35791016 110.34277344 C-63.10069687 111.12299866 -62.84348358 111.90322388 -62.57847595 112.70709229 C-61.7360603 115.25921449 -60.88755899 117.80926875 -60.0390625 120.359375 C-59.44573666 122.15369006 -58.85283845 123.94814657 -58.26034546 125.74273682 C-56.70387867 130.45384873 -55.14242327 135.16329103 -53.57965088 139.87231445 C-51.08486344 147.39256495 -48.59777799 154.915366 -46.11054611 162.43811798 C-45.24802654 165.04451412 -44.38343079 167.65021377 -43.51846313 170.25579834 C-42.97922801 171.883735 -42.44003136 173.5116844 -41.90087891 175.13964844 C-41.66593216 175.84553101 -41.43098541 176.55141357 -41.18891907 177.27868652 C-39.02379556 183.82543929 -37.02957535 190.4038801 -35 197 C1.63 197 38.26 197 76 197 C87.07845097 159.52256464 87.07845097 159.52256464 98 122 C97.10087891 121.71874268 96.20175781 121.43748535 95.27539062 121.14770508 C92.47492152 120.16641369 90.14886603 119.11393153 87.59375 117.63671875 C86.77745117 117.1682251 85.96115234 116.69973145 85.12011719 116.21704102 C84.25547852 115.71229248 83.39083984 115.20754395 82.5 114.6875 C81.14503418 113.90040649 81.14503418 113.90040649 79.76269531 113.09741211 C77.84129483 111.98000775 75.92107804 110.86056592 74.00195312 109.73925781 C70.93750081 107.96378951 67.85400029 106.22565644 64.765625 104.4921875 C62.76008633 103.34953794 60.7548688 102.2063245 58.75 101.0625 C57.79158203 100.53164795 56.83316406 100.0007959 55.84570312 99.45385742 C54.5221582 98.68972534 54.5221582 98.68972534 53.171875 97.91015625 C52.3890918 97.46808838 51.60630859 97.02602051 50.79980469 96.57055664 C49 95 49 95 48.16796875 92.47314453 C47.86823842 88.059964 50.47990947 85.60828771 53.234375 82.38671875 C54.06453125 81.49597656 54.8946875 80.60523438 55.75 79.6875 C58.81755484 76.36989702 61.85962574 73.04514227 64.8125 69.625 C65.36421875 68.99851562 65.9159375 68.37203125 66.484375 67.7265625 C67.85716374 66.16271553 69.21098154 64.58226551 70.5625 63 C73 61 73 61 75.5625 60.55078125 C80.57762088 61.20616637 84.1549573 63.59485577 88.4375 66.1875 C90.32499159 67.29907624 92.21303164 68.40972161 94.1015625 69.51953125 C95.07512695 70.09654785 96.04869141 70.67356445 97.05175781 71.26806641 C101.76727682 74.03818001 106.54193125 76.70123112 111.3125 79.375 C119.70357171 84.10359448 128.05203703 88.9025532 136.375 93.75 C137.94568237 94.66338135 137.94568237 94.66338135 139.5480957 95.59521484 C140.5093335 96.1567627 141.47057129 96.71831055 142.4609375 97.296875 C143.31478027 97.79541992 144.16862305 98.29396484 145.04833984 98.80761719 C147 100 147 100 148 101 C148.58528309 107.55900914 146.76709208 113.27055282 144.94238281 119.52807617 C144.61718658 120.67049774 144.29199036 121.81291931 143.9569397 122.98995972 C143.06675249 126.11001105 142.16839325 129.22756256 141.26613712 132.34414077 C140.31940553 135.62118747 139.38283271 138.90113617 138.44500732 142.18074036 C136.86727682 147.69266895 135.28268797 153.20258666 133.69335938 158.71118164 C131.66302255 165.74841013 129.64352753 172.78869943 127.6276741 179.83008862 C125.88471615 185.91808096 124.13717358 192.00475572 122.38868618 198.09116197 C121.83195555 200.02963125 121.27574967 201.96825058 120.7195816 203.90688133 C119.67421837 207.54704109 118.62527169 211.18614859 117.57519531 214.82495117 C117.27165131 215.88354843 116.9681073 216.94214569 116.65536499 218.03282166 C110.82778701 238.17221299 110.82778701 238.17221299 108 241 C105.06047916 241.25447559 105.06047916 241.25447559 101.21192932 241.26069641 C100.50588261 241.26452196 99.7998359 241.26834751 99.07239383 241.27228898 C96.69475366 241.28264885 94.31735363 241.27862125 91.93969727 241.2746582 C90.2398557 241.27900304 88.54001611 241.28418542 86.84017944 241.29014587 C82.21418897 241.30357187 77.58828001 241.30411055 72.96227384 241.30158257 C69.10522008 241.30051528 65.24818298 241.30539004 61.39113277 241.310188 C52.29418985 241.32129568 43.19728822 241.32171354 34.1003418 241.31567383 C24.70496554 241.30963204 15.30973896 241.32194736 5.91438824 241.3432439 C-2.14254223 241.36083742 -10.19942496 241.36686481 -18.25637394 241.36360615 C-23.07263922 241.36178952 -27.88879775 241.36446713 -32.7050457 241.37832069 C-37.23338104 241.39085789 -41.76148242 241.38899411 -46.289814 241.37590981 C-47.95432805 241.37353546 -49.61885837 241.37630924 -51.28335381 241.38453293 C-53.55082599 241.39493015 -55.81750285 241.38695732 -58.08494568 241.3742218 C-59.35534415 241.37438954 -60.62574263 241.37455729 -61.93463802 241.37473011 C-65 241 -65 241 -66.85705853 239.6590023 C-68.62439233 237.09368211 -69.42392223 234.40007367 -70.38623047 231.44262695 C-70.60685276 230.77349211 -70.82747505 230.10435726 -71.05478287 229.4149456 C-71.79237671 227.17123216 -72.5171143 224.92356909 -73.2421875 222.67578125 C-73.76846081 221.06735844 -74.29565429 219.45923647 -74.82369995 217.85139465 C-75.95999763 214.38769926 -77.09141868 210.9224615 -78.21960449 207.45611572 C-80.00746822 201.96866457 -81.8161611 196.48822851 -83.62988281 191.00927734 C-84.25084055 189.13312997 -84.87179184 187.25698046 -85.49273682 185.38082886 C-85.80352425 184.44181606 -86.11431168 183.50280327 -86.43451691 182.53533554 C-88.36072189 176.71105854 -90.28029455 170.884594 -92.20071793 165.05840874 C-92.52168316 164.08466364 -92.84264839 163.11091854 -93.17333984 162.10766602 C-93.65577148 160.6440564 -93.65577148 160.6440564 -94.14794922 159.15087891 C-95.12728007 156.18058458 -96.10723089 153.21049554 -97.08740234 150.24047852 C-97.73926679 148.26513968 -98.39112229 146.28979789 -99.04296875 144.31445312 C-99.36338009 143.34352785 -99.68379143 142.37260258 -100.0139122 141.37225533 C-102.49672127 133.84569077 -104.96765804 126.31526563 -107.43600845 118.7839489 C-109.07848274 113.78023617 -110.74021299 108.78362983 -112.42476845 103.7939291 C-113.39938971 100.90192291 -114.3630237 98.00633155 -115.32455063 95.10994911 C-115.96922862 93.18194321 -116.62925161 91.25908922 -117.28982544 89.33647156 C-120.93205018 78.31291571 -120.93205018 78.31291571 -119 73 C-116.86132812 70.91113281 -116.86132812 70.91113281 -114.03125 69.203125 C-112.99355469 68.56012451 -111.95585937 67.91712402 -110.88671875 67.25463867 C-109.76910156 66.59310791 -108.65148437 65.93157715 -107.5 65.25 C-106.34880065 64.54575633 -105.1990673 63.8391109 -104.05078125 63.13012695 C-101.76245782 61.72008812 -99.46815997 60.32076513 -97.16796875 58.93017578 C-93.0596448 56.42706164 -89.02473308 53.82207323 -85 51.1875 C-83.64618071 50.30936005 -82.29201872 49.4317482 -80.9375 48.5546875 C-79.6249436 47.70321193 -78.31244315 46.85165011 -77 46 C-67.25100564 39.67383484 -57.48020442 33.38334479 -47.6875 27.125 C-39.77510637 22.06699397 -31.87406402 16.99250473 -24 11.875 C-23.21842529 11.36727051 -22.43685059 10.85954102 -21.6315918 10.33642578 C-20.8869165 9.85157715 -20.14224121 9.36672852 -19.375 8.8671875 C-18.65441406 8.40151367 -17.93382812 7.93583984 -17.19140625 7.45605469 C-15.65679177 6.43639774 -14.1451869 5.38164726 -12.65234375 4.30175781 C-11.88019531 3.75100586 -11.10804688 3.20025391 -10.3125 2.6328125 C-9.62800781 2.1289502 -8.94351563 1.62508789 -8.23828125 1.10595703 C-5.22324681 -0.38380148 -3.33967719 -0.39214341 0 0 Z " fill="#fff" transform="translate(242,81)"/>
<path d="M0 0 C0.92130707 -0.01591187 1.84261414 -0.03182373 2.7918396 -0.04821777 C3.78043976 -0.04841919 4.76903992 -0.04862061 5.78759766 -0.04882812 C7.32258408 -0.06024841 7.32258408 -0.06024841 8.88858032 -0.07189941 C11.05216026 -0.08269887 13.21579232 -0.08555416 15.37939453 -0.08105469 C18.68301826 -0.0800836 21.98430998 -0.12168281 25.28759766 -0.16601562 C27.39175949 -0.1712237 29.49592938 -0.1739108 31.60009766 -0.17382812 C32.58464935 -0.19022339 33.56920105 -0.20661865 34.58358765 -0.22351074 C38.95898517 -0.17961854 42.27679568 -0.12600746 45.80688477 2.64013672 C48.13076931 5.20381751 49.7887517 7.42848819 51.36962891 10.49023438 C51.88074219 11.46089844 52.39185547 12.4315625 52.91845703 13.43164062 C53.44503906 14.45902344 53.97162109 15.48640625 54.51416016 16.54492188 C55.65180684 18.69424745 56.791156 20.84267268 57.93212891 22.99023438 C58.49851074 24.0643457 59.06489258 25.13845703 59.6484375 26.24511719 C62.16053938 30.99742629 64.7096293 35.72459394 67.32666016 40.41992188 C67.75873779 41.23219238 68.19081543 42.04446289 68.63598633 42.88134766 C69.04953369 43.61595215 69.46308105 44.35055664 69.88916016 45.10742188 C70.24107422 45.75066406 70.59298828 46.39390625 70.95556641 47.05664062 C72.31981391 48.70748 72.31981391 48.70748 74.97900391 48.62695312 C75.75373047 48.55863281 76.52845703 48.4903125 77.32666016 48.41992188 C77.82311035 47.49433472 77.82311035 47.49433472 78.32958984 46.55004883 C82.30005585 39.15768602 86.3049157 31.78449894 90.32666016 24.41992188 C90.89191406 23.38061523 91.45716797 22.34130859 92.03955078 21.27050781 C93.6211161 18.37472363 95.22070221 15.48973402 96.82666016 12.60742188 C97.30586914 11.72546143 97.78507812 10.84350098 98.27880859 9.93481445 C98.73803711 9.11907959 99.19726562 8.30334473 99.67041016 7.46289062 C100.06421875 6.75156982 100.45802734 6.04024902 100.86376953 5.30737305 C102.86980187 2.71914941 104.27659761 1.71634126 107.32666016 0.41992188 C110.87072391 -0.02409693 114.3872665 -0.02425599 117.95556641 -0.01367188 C118.98221909 -0.01891373 120.00887177 -0.02415558 121.06663513 -0.02955627 C123.23264665 -0.0359684 125.39869304 -0.03464999 127.56469727 -0.02612305 C130.88116178 -0.01759868 134.19591194 -0.04641012 137.51220703 -0.078125 C139.61832631 -0.07973675 141.72444863 -0.07915998 143.83056641 -0.07617188 C145.31817223 -0.09302284 145.31817223 -0.09302284 146.83583069 -0.11021423 C147.76036545 -0.10083328 148.68490021 -0.09145233 149.63745117 -0.08178711 C150.44843765 -0.08162094 151.25942413 -0.08145477 152.09498596 -0.08128357 C155.24774251 0.62678518 156.32668317 1.90192232 158.32666016 4.41992188 C158.82723141 7.43374729 158.82723141 7.43374729 158.8278656 11.03089905 C158.8361672 12.02515377 158.8361672 12.02515377 158.8446365 13.03949445 C158.85824351 15.259215 158.8432751 17.47781116 158.82836914 19.69750977 C158.8321523 21.2892759 158.83765231 22.88103874 158.84474182 24.47279358 C158.85871316 28.79507413 158.84751554 33.11695738 158.83103061 37.4392159 C158.81719111 41.95951613 158.82363884 46.47979305 158.8271637 51.00010681 C158.82986642 58.59038709 158.81638398 66.18050929 158.79321289 73.77075195 C158.76659316 82.55157447 158.76485884 91.33213281 158.77660125 100.11298186 C158.78737191 108.55454207 158.7811982 116.99600653 158.76704597 125.43755913 C158.76128094 129.03281347 158.76137288 132.62799786 158.76611137 136.22325325 C158.77087587 140.45453013 158.76080162 144.68551685 158.73915672 148.91673851 C158.73358179 150.47158962 158.73313002 152.02646858 158.73810959 153.58132172 C158.74404464 155.69984827 158.73159316 157.81748233 158.71434021 159.93592834 C158.71069537 161.71595293 158.71069537 161.71595293 158.70697689 163.5319376 C158.32666016 166.41992188 158.32666016 166.41992188 156.92743015 168.26267147 C154.22547151 170.21600814 152.51502633 170.55093702 149.23168945 170.58105469 C148.38708664 170.59066223 147.54248383 170.60026978 146.67228699 170.61016846 C145.75772232 170.61441833 144.84315765 170.61866821 143.90087891 170.62304688 C142.96113724 170.62874695 142.02139557 170.63444702 141.05317688 170.64031982 C139.06174854 170.64977661 137.0703045 170.65630649 135.07885742 170.66015625 C132.03683002 170.66984964 128.99548167 170.7008616 125.95361328 170.73242188 C124.0193725 170.73895312 122.08512689 170.74420312 120.15087891 170.74804688 C119.24238693 170.76039368 118.33389496 170.77274048 117.39787292 170.78546143 C112.60294246 170.76861241 109.14118864 170.68337263 105.32666016 167.41992188 C104.12433247 163.81293882 104.15066465 160.49234618 104.12133789 156.7355957 C104.11143829 155.95487198 104.1015387 155.17414825 104.09133911 154.36976624 C104.05974839 151.78885939 104.03497628 149.20793415 104.01025391 146.62695312 C103.98968228 144.83761618 103.96868575 143.04828408 103.94728088 141.25895691 C103.89208173 136.54900021 103.84266292 131.83899982 103.79443359 127.12896729 C103.74420285 122.32291778 103.68852499 117.51693176 103.63330078 112.7109375 C103.52574558 103.28065318 103.42429472 93.85031375 103.32666016 84.41992188 C102.98932861 85.06018311 102.65199707 85.70044434 102.30444336 86.36010742 C100.75873343 89.28095706 99.19911834 92.19415881 97.63916016 95.10742188 C97.10871094 96.11482422 96.57826172 97.12222656 96.03173828 98.16015625 C89.4605618 110.37528799 89.4605618 110.37528799 83.32666016 112.41992188 C80.39353296 112.66897166 77.45679408 112.65110407 74.51416016 112.66992188 C73.71945313 112.69054687 72.92474609 112.71117187 72.10595703 112.73242188 C67.11706054 112.7654336 63.49596425 112.44132912 59.32666016 109.41992188 C55.35364446 103.97389894 52.25607618 97.81780762 49.01416016 91.91992188 C48.55976562 91.0975 48.10537109 90.27507812 47.63720703 89.42773438 C46.53171387 87.42620992 45.42823632 85.42360393 44.32666016 83.41992188 C44.32079391 84.45309036 44.31492767 85.48625885 44.30888367 86.55073547 C44.25172322 96.27732633 44.17899685 106.00369218 44.09094524 115.7300539 C44.04617717 120.73074553 44.00693536 125.73135447 43.98022461 130.73217773 C43.9542557 135.55635065 43.91389915 140.38020646 43.86347389 145.20418358 C43.84676166 147.04657236 43.83527459 148.88901605 43.82904625 150.73147011 C43.81945232 153.30805499 43.79145063 155.88382058 43.7590332 158.46020508 C43.76046829 159.22553055 43.76190338 159.99085602 43.76338196 160.77937317 C43.67119667 165.94441476 43.67119667 165.94441476 41.92463684 168.35490417 C39.21081926 170.16360626 37.53269289 170.54833658 34.30761719 170.56518555 C33.06590256 170.57475533 33.06590256 170.57475533 31.79910278 170.58451843 C30.90327484 170.58563126 30.0074469 170.58674408 29.08447266 170.58789062 C27.70459671 170.59288322 27.70459671 170.59288322 26.29684448 170.59797668 C24.34829204 170.60304507 22.3997309 170.60538504 20.45117188 170.60522461 C17.47072001 170.60740791 14.49064009 170.62555575 11.51025391 170.64453125 C9.61832809 170.64746582 7.72640051 170.64945019 5.83447266 170.65039062 C4.49680344 170.6611689 4.49680344 170.6611689 3.1321106 170.67216492 C1.88093948 170.66754997 1.88093948 170.66754997 0.60449219 170.6628418 C-0.12671844 170.66426682 -0.85792908 170.66569183 -1.61129761 170.66716003 C-4.02168835 170.37815501 -5.61411019 169.69301191 -7.67333984 168.41992188 C-9.09269518 165.58121121 -8.80916732 163.186894 -8.82051086 160.01148987 C-8.82418755 159.34627868 -8.82786424 158.68106749 -8.83165234 157.99569839 C-8.84270645 155.75632051 -8.84653588 153.516989 -8.8503418 151.27758789 C-8.856605 149.67626802 -8.86325167 148.07494962 -8.87025452 146.47363281 C-8.88767413 142.11625583 -8.89821826 137.75888982 -8.90646005 133.40148664 C-8.91160671 130.68142775 -8.9176825 127.9613723 -8.92397118 125.24131584 C-8.9430234 116.73732106 -8.95725613 108.23333499 -8.96558315 99.72932297 C-8.97536564 89.90035348 -9.00171132 80.07160858 -9.04208404 70.24271828 C-9.07219443 62.65288298 -9.08704706 55.06311227 -9.09036416 47.47321838 C-9.0927199 42.93634997 -9.10174824 38.3997215 -9.12682533 33.86291695 C-9.15002343 29.59719154 -9.15437293 25.33186546 -9.14406395 21.06609344 C-9.1435665 19.49832014 -9.14994819 17.93052772 -9.16362 16.36281395 C-9.181212 14.2265037 -9.17429782 12.09164658 -9.16108704 9.95533752 C-9.16347539 8.75868249 -9.16586374 7.56202745 -9.16832447 6.32911015 C-8.67333984 3.41992188 -8.67333984 3.41992188 -6.78191471 1.53610897 C-4.33571822 0.24119979 -2.75920162 0.02875136 0 0 Z " fill="#fff" transform="translate(8.67333984375,378.580078125)"/>
<path d="M0 0 C0.86567093 -0.00540298 1.73134186 -0.01080597 2.62324524 -0.01637268 C5.48892314 -0.02888967 8.35360117 -0.01233564 11.21923828 0.00561523 C13.22022555 0.00546017 15.22121312 0.00397004 17.22219849 0.00120544 C21.42382024 -0.00018036 25.62510146 0.01239883 29.82666016 0.03515625 C35.17701096 0.06335802 40.5267881 0.06085598 45.8771801 0.04806614 C50.01598888 0.041058 54.15466856 0.0489594 58.29346085 0.06132317 C60.26355618 0.065801 62.23366559 0.06620701 64.20376205 0.06225777 C96.29870482 0.02807527 96.29870482 0.02807527 107.41064453 10.35717773 C116.24755084 19.85547412 116.63038367 29.70626321 116.72705078 42.18920898 C116.75605469 43.41833008 116.78505859 44.64745117 116.81494141 45.91381836 C116.87556391 54.65744921 116.1224408 63.02813423 109.72705078 69.56420898 C108.58236328 70.52327148 108.58236328 70.52327148 107.41455078 71.50170898 C107.08455078 71.83170898 106.75455078 72.16170898 106.41455078 72.50170898 C107.12740234 72.73245117 107.84025391 72.96319336 108.57470703 73.20092773 C116.97537934 76.06145276 123.84127331 78.95878621 128.27075195 87.01318359 C132.76251453 96.78576331 132.86643391 107.35339033 132.75073242 117.88671875 C132.72697183 120.19688524 132.73021916 122.5059027 132.73681641 124.81616211 C132.71462829 137.02519427 132.30855078 149.66608947 123.81298828 159.32202148 C122.09088136 160.88685836 120.34788904 162.20873804 118.41455078 163.50170898 C117.86541016 163.8794043 117.31626953 164.25709961 116.75048828 164.64624023 C103.47360126 172.45445353 85.45126798 170.93282259 70.68017578 170.86499023 C68.42576091 170.86447046 66.17134558 170.86499268 63.91693115 170.86650085 C59.22726546 170.86641178 54.53777404 170.8561073 49.84814453 170.83789062 C43.83586585 170.81504778 37.82383755 170.81469469 31.81152725 170.82140827 C27.17219816 170.82474438 22.53292633 170.8181275 17.89360809 170.80827904 C15.67521209 170.80443236 13.45680972 170.80327661 11.23841095 170.80486488 C8.15149174 170.80523497 5.06489775 170.79263615 1.97802734 170.77636719 C1.06376984 170.7788446 0.14951233 170.78132202 -0.79244995 170.78387451 C-1.63306976 170.7767897 -2.47368958 170.7697049 -3.33978271 170.7624054 C-4.43135492 170.75932609 -4.43135492 170.75932609 -5.5449791 170.75618458 C-7.93935022 170.45757251 -9.53732412 169.76525116 -11.58544922 168.50170898 C-12.99947884 165.67364974 -12.72123513 163.30190355 -12.73262024 160.13796997 C-12.73629693 159.4775479 -12.73997362 158.81712583 -12.74376172 158.13669097 C-12.75481562 155.91346655 -12.75864524 153.69028883 -12.76245117 151.46704102 C-12.76871445 149.87719575 -12.77536113 148.28735195 -12.78236389 146.69750977 C-12.79978418 142.37105642 -12.81032808 138.04461414 -12.81856942 133.7181344 C-12.82371655 131.0168288 -12.82979235 128.31552665 -12.83608055 125.61422348 C-12.85513401 117.16735781 -12.8693658 108.7205009 -12.87769252 100.27361786 C-12.88747179 90.51370821 -12.91380855 80.75402495 -12.95419341 70.9941951 C-12.98431781 63.45614842 -12.99915782 55.91816676 -13.00247353 48.38006103 C-13.0048279 43.87501801 -13.01383841 39.3702168 -13.03893471 34.86523819 C-13.06215687 30.62823607 -13.0664725 26.39163597 -13.05617332 22.15458679 C-13.05567645 20.59852133 -13.06204152 19.04243646 -13.07572937 17.48643112 C-13.09336037 15.36360685 -13.08638769 13.24223926 -13.07319641 11.11941528 C-13.07558476 9.93105639 -13.07797312 8.74269749 -13.08043385 7.51832771 C-11.85333757 0.03995081 -6.48907182 -0.0770202 0 0 Z M41.41455078 41.50170898 C41.41455078 49.42170898 41.41455078 57.34170898 41.41455078 65.50170898 C45.12705078 65.58420898 48.83955078 65.66670898 52.66455078 65.75170898 C53.82889648 65.788125 54.99324219 65.82454102 56.19287109 65.86206055 C57.11680664 65.87205078 58.04074219 65.88204102 58.99267578 65.89233398 C59.93530273 65.91328125 60.87792969 65.93422852 61.84912109 65.95581055 C65.20888657 65.3611052 66.36116657 64.17998476 68.41455078 61.50170898 C68.81555993 58.67105614 68.97577977 56.31824239 68.91455078 53.50170898 C68.93001953 52.79014648 68.94548828 52.07858398 68.96142578 51.34545898 C68.93667928 48.02942772 68.76341114 45.95673549 66.72021484 43.29174805 C63.89502418 41.09836622 62.5303997 41.0324679 58.99267578 41.11108398 C58.06874023 41.12107422 57.14480469 41.13106445 56.19287109 41.14135742 C55.02852539 41.17777344 53.86417969 41.21418945 52.66455078 41.25170898 C48.95205078 41.33420898 45.23955078 41.41670898 41.41455078 41.50170898 Z M41.41455078 102.50170898 C41.41455078 111.41170898 41.41455078 120.32170898 41.41455078 129.50170898 C45.88087481 129.57073632 50.34533433 129.63041832 54.81176758 129.66650391 C56.32973516 129.68155251 57.84765954 129.70199636 59.36547852 129.72802734 C61.55251755 129.76458552 63.73897975 129.78147421 65.92626953 129.79467773 C67.89793091 129.81824341 67.89793091 129.81824341 69.90942383 129.84228516 C73.63330486 129.48045371 75.50648905 128.81927724 78.41455078 126.50170898 C79.61122281 122.91169289 79.61993959 119.91122509 79.66455078 116.12670898 C79.70322266 114.16604492 79.70322266 114.16604492 79.74267578 112.16577148 C79.40004445 108.33972158 78.79854884 106.47613647 76.41455078 103.50170898 C72.90830648 102.33296088 69.76676418 102.37656631 66.12158203 102.40405273 C65.41555344 102.40546768 64.70952484 102.40688263 63.98210144 102.40834045 C61.73037452 102.41393134 59.47874757 102.42648211 57.22705078 102.43920898 C55.69905743 102.44422517 54.17106251 102.44878787 52.64306641 102.45288086 C48.9001585 102.46304628 45.15746635 102.4826233 41.41455078 102.50170898 Z " fill="#fff" transform="translate(211.58544921875,378.498291015625)"/>
<path d="M0 0 C0.72611481 -0.0049649 1.45222961 -0.00992981 2.2003479 -0.01504517 C4.57799252 -0.02953141 6.95557066 -0.0364424 9.33325195 -0.04199219 C10.14928202 -0.04481956 10.96531208 -0.04764694 11.80607033 -0.05056 C16.11599674 -0.06548991 20.42589015 -0.07476118 24.73583984 -0.07910156 C29.18463782 -0.08460801 33.63313311 -0.10869895 38.08183575 -0.13707352 C41.5090474 -0.15568382 44.93618545 -0.16090441 48.36344337 -0.16243744 C50.00410446 -0.1654631 51.64476429 -0.17348874 53.2853756 -0.18662262 C55.57590454 -0.20366596 57.86568349 -0.20180861 60.15625 -0.1953125 C61.45862106 -0.19895813 62.76099213 -0.20260376 64.10282898 -0.20635986 C67.58259063 0.18337111 68.97341957 0.66901828 71.3840332 3.16113281 C72.57329313 6.72891259 72.56499903 10.0005877 72.5871582 13.71582031 C72.59285828 14.45438263 72.59855835 15.19294495 72.60443115 15.95388794 C72.61386966 17.51563082 72.62041057 19.07739352 72.62426758 20.63916016 C72.63396967 23.02053807 72.66500098 25.40105125 72.6965332 27.78222656 C72.70306415 29.3017527 72.70831426 30.821285 72.7121582 32.34082031 C72.724505 33.04931122 72.73685181 33.75780212 72.74957275 34.48776245 C72.72803223 39.30134655 71.845274 42.69989202 68.3840332 46.16113281 C66.67224043 46.26857566 64.95608981 46.30737996 63.2409668 46.31884766 C62.14247406 46.3291098 61.04398132 46.33937195 59.91220093 46.34994507 C58.71438995 46.3572464 57.51657898 46.36454773 56.2824707 46.37207031 C53.76553724 46.40015005 51.24861025 46.42881458 48.73168945 46.45800781 C44.74874297 46.49921578 40.76603281 46.53608639 36.78295898 46.5625 C32.94920584 46.59015299 29.11600889 46.63604134 25.2824707 46.68457031 C24.09680511 46.68782318 22.91113953 46.69107605 21.68954468 46.69442749 C15.53488654 46.78567541 10.74830765 47.00649714 5.3840332 50.16113281 C3.03164426 53.68971622 3.13579014 55.13610553 3.14111328 59.31323242 C3.13803665 60.58142319 3.13496002 61.84961395 3.13179016 63.15623474 C3.13868909 64.54198385 3.14595615 65.92773117 3.15356445 67.31347656 C3.15475687 68.73450173 3.15520928 70.1555277 3.154953 71.57655334 C3.15651708 74.55491063 3.16479975 77.53314759 3.17822266 80.51147461 C3.1951969 84.32580022 3.19903734 88.13999342 3.19827747 91.95435238 C3.19854969 94.88917806 3.20403947 97.8239749 3.21127892 100.75879097 C3.21445737 102.16498153 3.21643107 103.57117535 3.21717262 104.97736931 C3.21934576 106.9448044 3.22889667 108.91222715 3.23876953 110.87963867 C3.24258133 111.99866074 3.24639313 113.1176828 3.25032043 114.27061462 C3.296229 117.8536583 3.296229 117.8536583 4.3840332 121.16113281 C8.35473406 122.9765947 11.90544091 123.41362792 16.23413086 123.43237305 C17.36194977 123.44255966 18.48976868 123.45274628 19.65176392 123.46324158 C21.45669815 123.46645164 21.45669815 123.46645164 23.2980957 123.46972656 C25.85799395 123.49487224 28.41788974 123.52027046 30.9777832 123.54589844 C35.00479822 123.57471208 39.03176515 123.59896162 43.05883789 123.61743164 C46.95127262 123.63635282 50.84333366 123.67844409 54.7355957 123.71972656 C56.54660263 123.71990028 56.54660263 123.71990028 58.39419556 123.72007751 C60.07646744 123.74008568 60.07646744 123.74008568 61.79272461 123.76049805 C62.77834381 123.7655687 63.76396301 123.77063934 64.77944946 123.77586365 C67.82732233 124.22670399 69.18620717 125.02820437 71.3840332 127.16113281 C72.57329313 130.72891259 72.56499903 134.0005877 72.5871582 137.71582031 C72.59285828 138.45438263 72.59855835 139.19294495 72.60443115 139.95388794 C72.61386966 141.51563082 72.62041057 143.07739352 72.62426758 144.63916016 C72.63396967 147.02053807 72.66500098 149.40105125 72.6965332 151.78222656 C72.70306415 153.3017527 72.70831426 154.821285 72.7121582 156.34082031 C72.724505 157.04931122 72.73685181 157.75780212 72.74957275 158.48776245 C72.72994285 162.87438813 72.15494074 165.71413682 69.3840332 169.16113281 C65.99712299 170.29010289 63.41103275 170.29500184 59.83984375 170.30639648 C59.17914383 170.3097551 58.51844391 170.31311371 57.83772278 170.3165741 C55.6487134 170.32608533 53.45978073 170.32802833 51.27075195 170.32910156 C49.73916086 170.33231773 48.20757007 170.33568207 46.67597961 170.33918762 C43.45715628 170.34518192 40.23835978 170.34702758 37.01953125 170.34643555 C32.93262664 170.34633475 28.84589903 170.359899 24.75903606 170.37720776 C21.58876285 170.38844287 18.41853058 170.39035114 15.24823952 170.38982582 C13.7442445 170.39099207 12.24024794 170.39533594 10.73627281 170.40315819 C-7.71648862 170.49002764 -26.66412137 169.26079675 -40.80737305 156.12597656 C-53.391711 142.98542478 -52.93162081 125.88744961 -52.91674805 108.80175781 C-52.92064446 106.92527168 -52.92498104 105.04878641 -52.92973328 103.17230225 C-52.93716173 99.2522088 -52.93692936 95.33220545 -52.93164062 91.41210938 C-52.92585818 86.42865886 -52.94276399 81.44558149 -52.9659853 76.46219254 C-52.98083556 72.58931378 -52.98157898 68.71652249 -52.97847557 64.8436203 C-52.97898338 63.00831109 -52.98411757 61.17299626 -52.99428749 59.33771515 C-53.07835241 42.04493749 -52.4149336 25.25098522 -39.6159668 12.16113281 C-29.01053578 2.9492885 -13.63745005 0.07136692 0 0 Z " fill="#fff" transform="translate(418.615966796875,378.8388671875)"/>
<path d="M0 0 C2.15779114 1.62966919 2.15779114 1.62966919 4.33129883 3.76611328 C5.151772 4.56429474 5.97224518 5.3624762 6.81758118 6.18484497 C7.6885997 7.05454926 8.55961823 7.92425354 9.45703125 8.8203125 C10.81147591 10.15834427 10.81147591 10.15834427 12.19328308 11.52340698 C14.09901833 13.41327459 15.99975868 15.30702015 17.89428711 17.20800781 C20.31821186 19.63793137 22.76630978 22.04177115 25.2218523 24.43968391 C27.56618553 26.73807416 29.8850323 29.06189401 32.20703125 31.3828125 C33.08817093 32.2403714 33.96931061 33.0979303 34.87715149 33.98147583 C40.82651279 40.02237951 40.82651279 40.02237951 41.67578125 44.80810547 C41.05131579 47.75762186 40.38498701 50.03307341 38.98046875 52.6875 C38.31047852 53.986875 38.31047852 53.986875 37.62695312 55.3125 C37.15193359 56.199375 36.67691406 57.08625 36.1875 58 C32.28554522 65.44337127 28.56384714 72.94664318 24.953125 80.53515625 C18.59769992 93.88925613 12.08545395 107.16461813 5.5625 120.4375 C4.39377999 122.81831018 3.22515979 125.19916936 2.05664062 127.58007812 C0.93498679 129.86462799 -0.18675468 132.14913484 -1.30859375 134.43359375 C-1.82215927 135.47946152 -2.33572479 136.52532928 -2.86485291 137.60289001 C-3.81379627 139.53365189 -4.76546479 141.46307785 -5.72042847 143.39086914 C-6.54276544 145.06766854 -7.34945728 146.75228158 -8.13626099 148.44604492 C-10.6842689 153.8544677 -10.6842689 153.8544677 -14 155.3828125 C-19.85172853 155.56061022 -25.11551799 151.68148722 -30 148.875 C-31.05445313 148.29234375 -32.10890625 147.7096875 -33.1953125 147.109375 C-36.16021787 145.45229756 -39.08529457 143.74358098 -42 142 C-42.76183594 141.55946289 -43.52367187 141.11892578 -44.30859375 140.66503906 C-46.25 139.4453125 -46.25 139.4453125 -49 137 C-49.60520122 132.15195652 -48.38459717 129.01609637 -46.23828125 124.70703125 C-45.9398381 124.0991275 -45.64139496 123.49122375 -45.33390808 122.86489868 C-44.33763732 120.84185534 -43.32505855 118.82743366 -42.3125 116.8125 C-41.60686392 115.38674681 -40.90246578 113.96038036 -40.19921875 112.53344727 C-38.6596453 109.41260225 -37.11400557 106.29485526 -35.56494141 103.17871094 C-31.30636308 94.59780498 -27.12494162 85.97895452 -22.92855835 77.36752319 C-20.63276175 72.65876399 -18.33211716 67.95237685 -16.03125 63.24609375 C-15.62263229 62.41018707 -15.21401459 61.5742804 -14.79301453 60.71304321 C-13.86207227 58.80866488 -12.93104669 56.90432728 -12 55 C-20.31858593 59.46067574 -28.49072698 64.15168252 -36.625 68.9375 C-37.89078341 69.68059009 -39.15657124 70.42367265 -40.42236328 71.16674805 C-49.97212929 76.77926631 -59.48192138 82.45676594 -68.96728516 88.17749023 C-70.8320973 89.30174682 -72.6992648 90.4221107 -74.56933594 91.53759766 C-76.06880804 92.43975092 -77.55883431 93.35809974 -79.03222656 94.30224609 C-82.94605524 96.74438114 -85.42310572 97.41833141 -90 97 C-93.14038086 95.70239258 -93.14038086 95.70239258 -96.46484375 93.89453125 C-97.35944054 93.41290779 -97.35944054 93.41290779 -98.27210999 92.92155457 C-99.52826342 92.24222105 -100.78119601 91.55690154 -102.03100586 90.8659668 C-103.92192413 89.82110672 -105.8219824 88.79483908 -107.72460938 87.77148438 C-120.04204781 81.10012469 -120.04204781 81.10012469 -125 77 C-125.6875 73.9375 -125.6875 73.9375 -125 71 C-122.28636129 67.86140323 -119.39857573 65.8815196 -115.80078125 63.85546875 C-114.76977295 63.26910645 -113.73876465 62.68274414 -112.67651367 62.07861328 C-111.0113269 61.14251221 -111.0113269 61.14251221 -109.3125 60.1875 C-106.93791052 58.83847064 -104.56645555 57.48398221 -102.1953125 56.12890625 C-101.59162338 55.784505 -100.98793427 55.44010376 -100.36595154 55.08526611 C-94.42047772 51.68569012 -88.54917358 48.16689107 -82.6875 44.625 C-73.10123463 38.84179546 -63.46743204 33.14671658 -53.80221558 27.49700928 C-47.01625894 23.53027576 -40.23559135 19.55546372 -33.4765625 15.54296875 C-32.86539581 15.18018326 -32.25422913 14.81739777 -31.62454224 14.44361877 C-28.7206188 12.71912762 -25.81794488 10.99258324 -22.91650391 9.26391602 C-20.87669857 8.05119121 -18.83375445 6.84372392 -16.78710938 5.64257812 C-14.98603464 4.58111782 -13.19477413 3.50274412 -11.41601562 2.40429688 C-10.24329102 1.70143555 -10.24329102 1.70143555 -9.046875 0.984375 C-8.38010742 0.57413086 -7.71333984 0.16388672 -7.02636719 -0.25878906 C-4.26873378 -1.26748485 -2.80503639 -0.82930047 0 0 Z " fill="#fff" transform="translate(382,1)"/>
<path d="M0 0 C2.91796875 1.50390625 2.91796875 1.50390625 6.1875 3.5625 C7.51211972 4.38296703 8.83772546 5.2018433 10.1640625 6.01953125 C11.29183105 6.71876709 11.29183105 6.71876709 12.44238281 7.43212891 C17.0332456 10.2464207 21.67460538 12.97589436 26.31069946 15.71481323 C28.07844621 16.75942305 29.84537768 17.80539868 31.61206055 18.85180664 C37.86119162 22.55304536 44.11284714 26.25000876 50.36621094 29.9440918 C52.11831932 30.97914804 53.87027315 32.01446594 55.62207031 33.05004883 C60.15442863 35.72927746 64.68828634 38.40590075 69.22537231 41.07711792 C71.65905686 42.51063807 74.0914684 43.94630947 76.52368164 45.38232422 C78.2575765 46.40510211 79.99302145 47.42525075 81.72851562 48.4453125 C99.16369697 58.74554546 99.16369697 58.74554546 102 63 C101.86888891 66.18196525 101.44323082 67.5614844 99.1640625 69.81640625 C98.32617188 70.39261719 97.48828125 70.96882813 96.625 71.5625 C95.65046875 72.23539062 94.6759375 72.90828125 93.671875 73.6015625 C86.75637427 78.16326965 79.72493968 82.54869879 72.68310547 86.91186523 C71.03826047 87.89176906 71.03826047 87.89176906 70 89 C64.37870167 89.51166431 60.8258335 88.30908935 56.125 85.4375 C55.45718506 85.04618896 54.78937012 84.65487793 54.10131836 84.25170898 C51.72387643 82.85120364 49.36212925 81.42617429 47 80 C44.99906307 78.80407633 42.99773849 77.60880111 40.99609375 76.4140625 C36.7032245 73.84694837 32.41618951 71.27041789 28.1328125 68.6875 C20.45760928 64.0637106 12.73268921 59.52668417 5 55 C5.43231934 55.85940186 5.86463867 56.71880371 6.31005859 57.60424805 C10.17926355 65.30043175 14.03406966 73.00362376 17.86991882 80.7164917 C20.00791318 85.01449578 22.16207739 89.30391835 24.32421875 93.58984375 C25.23822302 95.43427997 26.1510884 97.27928126 27.0625 99.125 C27.48515137 99.95088623 27.90780273 100.77677246 28.34326172 101.62768555 C30.05200901 105.13420046 31.00205818 107.40998741 30.98828125 111.359375 C29.81611214 114.49133672 28.92943411 115.34918186 26.125 117.125 C25.23554688 117.69605469 24.34609375 118.26710938 23.4296875 118.85546875 C22.9047168 119.1807959 22.37974609 119.50612305 21.83886719 119.84130859 C19.63966017 121.22705428 17.48225563 122.67011289 15.3203125 124.11328125 C13.63111986 125.22274324 11.94100749 126.33080612 10.25 127.4375 C9.43418457 127.98229004 8.61836914 128.52708008 7.77783203 129.08837891 C4.36038217 131.28256486 1.68282377 132.86455726 -2.328125 133.66015625 C-6.00349413 132.75206066 -6.82155519 131.05260283 -9 128 C-10.0976766 125.98923902 -11.13249829 123.94343922 -12.1171875 121.875 C-12.407146 121.27137634 -12.69710449 120.66775269 -12.99584961 120.0458374 C-13.96133665 118.03326483 -14.91800399 116.0166221 -15.875 114 C-16.9182726 111.82010438 -17.96402671 109.64141115 -19.01004028 107.46282959 C-19.76452194 105.89141787 -20.51830683 104.31967145 -21.27145386 102.74761963 C-24.439026 96.14331664 -27.65068085 89.5611354 -30.875 82.984375 C-31.37242706 81.96952026 -31.86985413 80.95466553 -32.38235474 79.90905762 C-34.37329652 75.8484424 -36.36505183 71.78822939 -38.35882568 67.72900391 C-39.75904172 64.87740681 -41.15704227 62.02473278 -42.5546875 59.171875 C-42.97484131 58.31801208 -43.39499512 57.46414917 -43.82788086 56.58441162 C-44.89909674 54.3959138 -45.95301047 52.20016041 -47 50 C-47.44230957 49.08895508 -47.88461914 48.17791016 -48.34033203 47.23925781 C-49.18416002 44.37486465 -48.84527291 42.85888273 -48 40 C-46.37464905 37.88690186 -46.37464905 37.88690186 -44.24633789 35.77636719 C-43.05488914 34.58053009 -43.05488914 34.58053009 -41.83937073 33.36053467 C-40.54409706 32.09152313 -40.54409706 32.09152313 -39.22265625 30.796875 C-38.34097275 29.91847961 -37.45928925 29.04008423 -36.55088806 28.1350708 C-34.20955266 25.80682258 -31.85956396 23.48777935 -29.50543213 21.17248535 C-27.58343739 19.27772585 -25.67080188 17.37366972 -23.75850773 15.46912766 C-21.47924069 13.19982585 -19.19486814 10.9356932 -16.91015625 8.671875 C-15.61791893 7.39071808 -15.61791893 7.39071808 -14.29957581 6.0836792 C-13.50212448 5.29906311 -12.70467316 4.51444702 -11.88305664 3.70605469 C-11.17991837 3.01276062 -10.47678009 2.31946655 -9.75233459 1.60516357 C-6.34753378 -1.51368271 -4.39318525 -1.05752124 0 0 Z " fill="#fff" transform="translate(121,11)"/>
<path d="M0 0 C3.99340634 1.69932185 4.26732286 3.62260775 5.88256836 7.49121094 C7.83683545 12.60188395 9.52961699 17.78687899 11.1875 23 C11.55101562 24.10988281 11.91453125 25.21976563 12.2890625 26.36328125 C12.63195312 27.43449219 12.97484375 28.50570312 13.328125 29.609375 C13.63782227 30.57327148 13.94751953 31.53716797 14.26660156 32.53027344 C14.93698844 35.24792619 15.16652656 37.46486807 14.9375 40.25 C13.58203125 41.9453125 13.58203125 41.9453125 11.75 43.375 C11.11578125 43.87515625 10.4815625 44.3753125 9.828125 44.890625 C7.60469921 46.48928652 5.34193342 47.93849086 2.9375 49.25 C3.60063717 55.05527264 5.01588879 60.4513657 6.66015625 66.05078125 C6.92509384 66.96836716 7.19003143 67.88595306 7.46299744 68.8313446 C8.30423886 71.74303365 9.15165029 74.65287481 10 77.5625 C10.8511947 80.49017756 11.70101819 83.41823187 12.54771423 86.34721375 C13.07353554 88.16541708 13.6020716 89.98283791 14.13356018 91.7993927 C14.37058151 92.61751938 14.60760284 93.43564606 14.85180664 94.27856445 C15.1670504 95.3594207 15.1670504 95.3594207 15.48866272 96.46211243 C15.9375 98.25 15.9375 98.25 15.9375 100.25 C16.49735596 100.22381592 17.05721191 100.19763184 17.6340332 100.1706543 C20.17240294 100.06667669 22.71032553 100.0016795 25.25 99.9375 C26.13107422 99.89560547 27.01214844 99.85371094 27.91992188 99.81054688 C29.19125977 99.78637695 29.19125977 99.78637695 30.48828125 99.76171875 C31.26856689 99.73553467 32.04885254 99.70935059 32.8527832 99.68237305 C34.9375 100.25 34.9375 100.25 36.57421875 102.38476562 C38.84468953 107.15665765 40.39799208 112.12493609 42.0090332 117.15063477 C42.6211838 119.05065512 43.25292472 120.94432711 43.88476562 122.83789062 C47.81790728 135.01190052 47.81790728 135.01190052 46.9375 141.25 C43.50931387 143.53545742 42.25978607 143.50257598 38.22851562 143.50878906 C37.05720093 143.51509338 35.88588623 143.52139771 34.67907715 143.52789307 C33.41341919 143.5238446 32.14776123 143.51979614 30.84375 143.515625 C28.89643982 143.51849518 28.89643982 143.51849518 26.90979004 143.52142334 C24.16263062 143.5243711 21.41560132 143.52008825 18.66845703 143.51074219 C15.14766329 143.4993477 11.62717447 143.50590905 8.10639191 143.51788712 C4.74798683 143.52685297 1.38966374 143.52057503 -1.96875 143.515625 C-3.23440796 143.51967346 -4.50006592 143.52372192 -5.80407715 143.52789307 C-6.97539185 143.52158875 -8.14670654 143.51528442 -9.35351562 143.50878906 C-10.38593384 143.50719788 -11.41835205 143.50560669 -12.48205566 143.50396729 C-15.0625 143.25 -15.0625 143.25 -18.0625 141.25 C-18.9001646 139.3808403 -18.9001646 139.3808403 -19.56217957 137.06365967 C-19.81872818 136.18609512 -20.07527679 135.30853058 -20.33959961 134.40437317 C-20.60933594 133.43916245 -20.87907227 132.47395172 -21.15698242 131.47949219 C-21.59655022 129.95732338 -21.59655022 129.95732338 -22.04499817 128.40440369 C-23.0138041 125.03831178 -23.96621195 121.66782377 -24.91796875 118.296875 C-25.58553616 115.95976627 -26.25386597 113.62287518 -26.92292786 111.28619385 C-28.3244615 106.38207782 -29.71816999 101.4758254 -31.10620117 96.56787109 C-32.88546395 90.27813602 -34.68162047 83.99338274 -36.48339367 77.71006393 C-37.866282 72.88192824 -39.24130819 68.05158176 -40.61385536 63.22049713 C-41.27315783 60.90264933 -41.93463421 58.58541876 -42.5983181 56.26882172 C-43.52543013 53.02739893 -44.4422024 49.78322697 -45.35620117 46.53808594 C-45.63201019 45.58097214 -45.90781921 44.62385834 -46.19198608 43.63774109 C-47.45773981 39.10284934 -48.57241963 35.00536144 -48.0625 30.25 C-45.22083937 26.43507061 -41.08424105 24.23648815 -37.0625 21.8125 C-29.55780462 17.21125475 -22.16839982 12.44941076 -14.80273438 7.62915039 C-3.57350169 0.29171442 -3.57350169 0.29171442 0 0 Z " fill="#fff" transform="translate(115.0625,178.75)"/>
<path d="M0 0 C0.86637589 -0.00563965 1.73275177 -0.0112793 2.62538147 -0.01708984 C3.56784225 -0.01304138 4.51030304 -0.00899292 5.48132324 -0.00482178 C6.48009995 -0.00832642 7.47887665 -0.01183105 8.50791931 -0.01544189 C11.81097351 -0.0242478 15.11381372 -0.01841399 18.41687012 -0.01165771 C20.71085654 -0.01300469 23.00484268 -0.01494549 25.29882812 -0.01745605 C30.10724606 -0.02040577 34.91558972 -0.0161145 39.72399902 -0.0067749 C45.89130822 0.00461948 52.05844335 -0.0019408 58.22574615 -0.01391983 C62.96288365 -0.02114248 67.6999798 -0.01884862 72.43711853 -0.01366425 C74.71133952 -0.01232888 76.98556426 -0.01397153 79.25978088 -0.01862335 C82.43659428 -0.02369515 85.6131247 -0.01596892 88.78991699 -0.00482178 C90.20360817 -0.01089447 90.20360817 -0.01089447 91.64585876 -0.01708984 C92.94542259 -0.00863037 92.94542259 -0.00863037 94.27124023 0 C95.02191521 0.00075405 95.77259018 0.0015081 96.54601288 0.002285 C98.99451584 0.2971944 100.57273647 0.90507875 102.63562012 2.25396729 C103.57312012 5.19146729 103.57312012 5.19146729 103.63562012 8.25396729 C102.09448912 10.36017398 101.18746545 11.15232987 98.6010046 11.6286974 C97.81731282 11.62852965 97.03362104 11.62836191 96.22618103 11.62818909 C95.32463287 11.6352034 94.42308472 11.64221771 93.49421692 11.64944458 C92.50761581 11.64180084 91.52101471 11.6341571 90.5045166 11.62628174 C89.46365906 11.6299324 88.42280151 11.63358307 87.35040283 11.63734436 C83.90234169 11.64546502 80.4547482 11.63182774 77.00671387 11.61724854 C74.61682638 11.61673015 72.22693846 11.61724701 69.83705139 11.61875916 C64.82591394 11.61866937 59.81493714 11.60822539 54.80383301 11.59014893 C48.36836986 11.56744942 41.93314136 11.56691919 35.49764919 11.57366657 C30.56242269 11.57700172 25.62725006 11.57038525 20.69203377 11.56053734 C18.31847477 11.55667812 15.94490979 11.5555401 13.57134819 11.55712318 C10.25989148 11.55749245 6.94874012 11.54491296 3.6373291 11.52862549 C2.64870377 11.53110291 1.66007843 11.53358032 0.64149475 11.53613281 C-0.70659775 11.5255056 -0.70659775 11.5255056 -2.08192444 11.5146637 C-2.86523919 11.51261083 -3.64855394 11.51055796 -4.45560551 11.50844288 C-6.36437988 11.25396729 -6.36437988 11.25396729 -8.36437988 9.25396729 C-8.48937988 5.62896729 -8.48937988 5.62896729 -8.36437988 2.25396729 C-5.44316172 0.58953578 -3.35299337 0.00336807 0 0 Z " fill="#fff" transform="translate(197.3643798828125,649.7460327148438)"/>
<path d="M0 0 C9 0 9 0 11.41015625 1.53125 C11.95542969 2.1809375 12.50070313 2.830625 13.0625 3.5 C13.63097656 4.1496875 14.19945312 4.799375 14.78515625 5.46875 C15.38650391 6.22671875 15.38650391 6.22671875 16 7 C16.33 4.69 16.66 2.38 17 0 C20.63 0 24.26 0 28 0 C28.02465504 4.39656173 28.04283842 8.7930872 28.05493164 13.18969727 C28.05997121 14.68644918 28.06680287 16.18319616 28.07543945 17.67993164 C28.08752159 19.82699807 28.09323191 21.97399962 28.09765625 24.12109375 C28.10551147 26.06133423 28.10551147 26.06133423 28.11352539 28.04077148 C28 31 28 31 27 32 C25.50261876 32.0979057 24.00057108 32.12974864 22.5 32.125 C21.6853125 32.12757813 20.870625 32.13015625 20.03125 32.1328125 C18 32 18 32 17 31 C16.896875 29.9275 16.79375 28.855 16.6875 27.75 C15.94096911 23.67801333 14.79228337 21.97243068 12 19 C11.93941406 19.85464844 11.87882813 20.70929687 11.81640625 21.58984375 C11.73261719 22.69457031 11.64882812 23.79929687 11.5625 24.9375 C11.48128906 26.03964844 11.40007812 27.14179687 11.31640625 28.27734375 C11 31 11 31 10 32 C6.7 32 3.4 32 0 32 C0 21.44 0 10.88 0 0 Z " fill="#fff" transform="translate(199,588)"/>
<path d="M0 0 C0.96357422 -0.02900391 1.92714844 -0.05800781 2.91992188 -0.08789062 C9.96360117 -0.1513472 9.96360117 -0.1513472 13.3515625 2.01953125 C14.94547846 4.75528759 15.0219709 6.18244889 14.75 9.3125 C14.36090002 13.06166442 14.36090002 13.06166442 16.16796875 16.20703125 C18.30604644 19.1695605 18.01826471 21.39385573 17.9375 25 C17.92203125 26.15886719 17.9065625 27.31773437 17.890625 28.51171875 C17.6875 31.3125 17.6875 31.3125 16.6875 32.3125 C13.35131769 32.45507189 10.02774394 32.35478157 6.6875 32.3125 C6.6875 29.0125 6.6875 25.7125 6.6875 22.3125 C4.3775 22.3125 2.0675 22.3125 -0.3125 22.3125 C-0.3125 25.6125 -0.3125 28.9125 -0.3125 32.3125 C-8.02734375 32.41015625 -8.02734375 32.41015625 -10.3125 32.3125 C-12.19569268 30.42930732 -11.44304285 27.19319863 -11.4453125 24.6875 C-11.44626923 24.02540527 -11.44722595 23.36331055 -11.44821167 22.68115234 C-11.44889326 21.27897039 -11.44704042 19.8767853 -11.44287109 18.47460938 C-11.43752246 16.32154287 -11.4428167 14.16868498 -11.44921875 12.015625 C-11.44855796 10.65624954 -11.44727679 9.2968742 -11.4453125 7.9375 C-11.44418457 6.69226563 -11.44305664 5.44703125 -11.44189453 4.1640625 C-11.16577419 -1.9210046 -4.87732234 0.04835415 0 0 Z M-0.3125 8.3125 C-0.3125 9.9625 -0.3125 11.6125 -0.3125 13.3125 C1.0075 13.3125 2.3275 13.3125 3.6875 13.3125 C3.3575 11.6625 3.0275 10.0125 2.6875 8.3125 C1.6975 8.3125 0.7075 8.3125 -0.3125 8.3125 Z " fill="#fff" transform="translate(177.3125,587.6875)"/>
<path d="M0 0 C4.5568086 1.06057343 6.8732363 4.87817429 9.43359375 8.56640625 C9.76359375 5.92640625 10.09359375 3.28640625 10.43359375 0.56640625 C13.73359375 0.56640625 17.03359375 0.56640625 20.43359375 0.56640625 C20.43359375 11.12640625 20.43359375 21.68640625 20.43359375 32.56640625 C17.13359375 32.56640625 13.83359375 32.56640625 10.43359375 32.56640625 C10.37171875 31.53515625 10.30984375 30.50390625 10.24609375 29.44140625 C9.24810718 24.68177798 7.72868508 23.03047662 4.43359375 19.56640625 C4.10359375 23.85640625 3.77359375 28.14640625 3.43359375 32.56640625 C0.13359375 32.56640625 -3.16640625 32.56640625 -6.56640625 32.56640625 C-7.99558368 29.70805139 -7.69621434 27.25382906 -7.69921875 24.0625 C-7.70050781 22.76505859 -7.70179688 21.46761719 -7.703125 20.13085938 C-7.70103027 19.45418213 -7.69893555 18.77750488 -7.69677734 18.08032227 C-7.69141827 16.0085521 -7.69673143 13.93699786 -7.703125 11.86523438 C-7.70183594 10.56908203 -7.70054687 9.27292969 -7.69921875 7.9375 C-7.69809082 6.7405249 -7.69696289 5.5435498 -7.69580078 4.31030273 C-7.46065808 -0.67605358 -4.33112794 0.0069298 0 0 Z " fill="#fff" transform="translate(357.56640625,587.43359375)"/>
<path d="M0 0 C2.82844111 2.21688627 3.29629964 3.37200102 4.3125 6.8125 C4.59355639 9.81736094 4.59187655 12.79650712 4.5625 15.8125 C4.57023437 16.6065625 4.57796875 17.400625 4.5859375 18.21875 C4.57186057 22.44182765 4.53995213 26.09068126 2.3125 29.8125 C-2.36566879 33.04432663 -8.74324618 33.13763232 -14.234375 32.53125 C-18.3149087 31.73114535 -21.03594676 31.18373427 -23.6875 27.8125 C-24.33073049 23.86411415 -24.15071294 19.86985662 -24.125 15.875 C-24.14498047 14.77736328 -24.16496094 13.67972656 -24.18554688 12.54882812 C-24.18490234 11.49244141 -24.18425781 10.43605469 -24.18359375 9.34765625 C-24.18544678 8.382229 -24.1872998 7.41680176 -24.18920898 6.42211914 C-23.54531458 3.07292824 -22.32424248 1.91132672 -19.6875 -0.1875 C-13.47424846 -2.25858385 -6.18952562 -1.99323706 0 0 Z M-13.6875 9.8125 C-13.78629565 11.622785 -13.81721514 13.43702727 -13.8125 15.25 C-13.81507813 16.23871094 -13.81765625 17.22742188 -13.8203125 18.24609375 C-13.85978415 20.80159076 -13.85978415 20.80159076 -12.6875 22.8125 C-11.02138095 22.855221 -9.35367115 22.85313832 -7.6875 22.8125 C-6.34848208 21.70123341 -6.34848208 21.70123341 -6.58984375 18.87109375 C-6.60144531 17.67613281 -6.61304688 16.48117187 -6.625 15.25 C-6.63402344 14.05246094 -6.64304687 12.85492187 -6.65234375 11.62109375 C-6.66394531 10.69425781 -6.67554688 9.76742187 -6.6875 8.8125 C-10.49371045 8.37402641 -10.49371045 8.37402641 -13.6875 9.8125 Z " fill="#fff" transform="translate(341.6875,588.1875)"/>
<path d="M0 0 C9 0 9 0 11.41015625 1.75 C11.95542969 2.4925 12.50070313 3.235 13.0625 4 C13.63097656 4.7425 14.19945313 5.485 14.78515625 6.25 C15.18605469 6.8275 15.58695313 7.405 16 8 C16.33 5.36 16.66 2.72 17 0 C20.3 0 23.6 0 27 0 C27 10.56 27 21.12 27 32 C23.7 32 20.4 32 17 32 C16.938125 30.96875 16.87625 29.9375 16.8125 28.875 C15.81451343 24.11537173 14.29509133 22.46407037 11 19 C10.67 23.29 10.34 27.58 10 32 C6.7 32 3.4 32 0 32 C0 21.44 0 10.88 0 0 Z " fill="#fff" transform="translate(76,588)"/>
<path d="M0 0 C1.48831242 0.00667405 2.97660807 0.01863442 4.46484375 0.03515625 C5.22345703 0.03966797 5.98207031 0.04417969 6.76367188 0.04882812 C8.64326246 0.06064945 10.52281274 0.07858547 12.40234375 0.09765625 C13.2161617 2.03460303 14.02835291 3.97223336 14.83984375 5.91015625 C15.51853516 7.52857422 15.51853516 7.52857422 16.2109375 9.1796875 C17.63423727 12.6656053 18.52814697 15.36582794 18.5 19.109375 C18.49677734 19.86669922 18.49355469 20.62402344 18.49023438 21.40429688 C18.48185547 22.18998047 18.47347656 22.97566406 18.46484375 23.78515625 C18.46033203 24.58244141 18.45582031 25.37972656 18.45117188 26.20117188 C18.43940225 28.16669882 18.42146723 30.1321871 18.40234375 32.09765625 C14.77234375 32.09765625 11.14234375 32.09765625 7.40234375 32.09765625 C7.40234375 29.45765625 7.40234375 26.81765625 7.40234375 24.09765625 C5.09234375 24.09765625 2.78234375 24.09765625 0.40234375 24.09765625 C0.40234375 26.73765625 0.40234375 29.37765625 0.40234375 32.09765625 C-2.89765625 32.09765625 -6.19765625 32.09765625 -9.59765625 32.09765625 C-10.17693715 20.62789439 -9.98222555 11.53136266 -4.59765625 1.09765625 C-3.59765625 0.09765625 -3.59765625 0.09765625 0 0 Z M3.40234375 9.09765625 C2.74234375 11.07765625 2.08234375 13.05765625 1.40234375 15.09765625 C3.05234375 15.09765625 4.70234375 15.09765625 6.40234375 15.09765625 C5.74234375 13.11765625 5.08234375 11.13765625 4.40234375 9.09765625 C4.07234375 9.09765625 3.74234375 9.09765625 3.40234375 9.09765625 Z " fill="#fff" transform="translate(392.59765625,587.90234375)"/>
<path d="M0 0 C5.61 0 11.22 0 17 0 C23.14569995 15.60062295 23.14569995 15.60062295 23.125 24.75 C23.12886719 26.47476563 23.12886719 26.47476563 23.1328125 28.234375 C23 31 23 31 22 32 C20.31391034 32.07205511 18.62499341 32.08386068 16.9375 32.0625 C16.01839844 32.05347656 15.09929687 32.04445313 14.15234375 32.03515625 C13.44207031 32.02355469 12.73179687 32.01195312 12 32 C12 29.36 12 26.72 12 24 C9.69 24 7.38 24 5 24 C5 26.64 5 29.28 5 32 C1.7 32 -1.6 32 -5 32 C-5.57376637 19.92540545 -5.2238724 11.10072885 0 0 Z M8 9 C7.34 10.98 6.68 12.96 6 15 C7.65 15 9.3 15 11 15 C10.34 13.02 9.68 11.04 9 9 C8.67 9 8.34 9 8 9 Z " fill="#fff" transform="translate(237,588)"/>
<path d="M0 0 C7.92 0 15.84 0 24 0 C24 2.97 24 5.94 24 9 C19.38 9 14.76 9 10 9 C10 9.66 10 10.32 10 11 C13.3 11 16.6 11 20 11 C20 13.97 20 16.94 20 20 C16.7 20 13.4 20 10 20 C10 20.99 10 21.98 10 23 C14.62 23 19.24 23 24 23 C24 25.97 24 28.94 24 32 C16.08 32 8.16 32 0 32 C0 21.44 0 10.88 0 0 Z " fill="#fff" transform="translate(138,588)"/>
<path d="M0 0 C3.3 0 6.6 0 10 0 C11 1 11 1 11.11352539 3.13305664 C11.10828857 4.04949951 11.10305176 4.96594238 11.09765625 5.91015625 C11.09443359 6.89951172 11.09121094 7.88886719 11.08789062 8.90820312 C11.07951172 9.94912109 11.07113281 10.99003906 11.0625 12.0625 C11.05798828 13.10728516 11.05347656 14.15207031 11.04882812 15.22851562 C11.03699913 17.8190666 11.02051689 20.40950559 11 23 C12.32 23 13.64 23 15 23 C14.979375 21.700625 14.95875 20.40125 14.9375 19.0625 C14.91600546 17.70834367 14.92851801 16.35243917 15 15 C16 14 16 14 18.03125 13.8671875 C18.8459375 13.86976563 19.660625 13.87234375 20.5 13.875 C21.3146875 13.87242187 22.129375 13.86984375 22.96875 13.8671875 C25 14 25 14 26 15 C26.07330331 17.86469325 26.09217831 20.69893674 26.0625 23.5625 C26.041875 26.346875 26.02125 29.13125 26 32 C17.42 32 8.84 32 0 32 C0 21.44 0 10.88 0 0 Z " fill="#fff" transform="translate(416,588)"/>
<path d="M0 0 C7.59 0 15.18 0 23 0 C23 2.97 23 5.94 23 9 C21.02 9 19.04 9 17 9 C17 13.62 17 18.24 17 23 C18.98 23 20.96 23 23 23 C23 25.97 23 28.94 23 32 C19.35418313 32.02887512 15.70839537 32.04675585 12.0625 32.0625 C10.50112305 32.07506836 10.50112305 32.07506836 8.90820312 32.08789062 C7.91884766 32.09111328 6.92949219 32.09433594 5.91015625 32.09765625 C4.53549194 32.10551147 4.53549194 32.10551147 3.13305664 32.11352539 C1 32 1 32 0 31 C-0.14115161 28.32941149 -0.04247107 25.67567762 0 23 C1.98 23 3.96 23 6 23 C6 18.38 6 13.76 6 9 C4.35 9 2.7 9 1 9 C0.67 8.67 0.34 8.34 0 8 C0 5.36 0 2.72 0 0 Z " fill="#fff" transform="translate(48,588)"/>
<path d="M0 0 C7.26 0 14.52 0 22 0 C22 2.97 22 5.94 22 9 C20.35 9 18.7 9 17 9 C17 13.62 17 18.24 17 23 C18.65 23 20.3 23 22 23 C22 25.97 22 28.94 22 32 C14.74 32 7.48 32 0 32 C0 29.03 0 26.06 0 23 C1.98 23 3.96 23 6 23 C6 18.38 6 13.76 6 9 C4.02 9 2.04 9 0 9 C0 6.03 0 3.06 0 0 Z " fill="#fff" transform="translate(291,588)"/>
<path d="M0 0 C8.91 0 17.82 0 27 0 C27 2.97 27 5.94 27 9 C24.36 9 21.72 9 19 9 C19 16.59 19 24.18 19 32 C15.37 32 11.74 32 8 32 C8 24.41 8 16.82 8 9 C5.36 9 2.72 9 0 9 C0 6.03 0 3.06 0 0 Z " fill="#DFC56C" transform="translate(261,588)"/>
<path d="M0 0 C8.91 0 17.82 0 27 0 C27 2.97 27 5.94 27 9 C24.36 9 21.72 9 19 9 C19 16.59 19 24.18 19 32 C15.37 32 11.74 32 8 32 C8 24.41 8 16.82 8 9 C5.36 9 2.72 9 0 9 C0 6.03 0 3.06 0 0 Z " fill="#DFC56C" transform="translate(107,588)"/>
</svg>
