<svg width="491" height="661" viewBox="0 0 491 661" fill="none" xmlns="http://www.w3.org/2000/svg">
<g clip-path="url(#clip0_101_292)">
<path d="M242 81C244.407 82.0087 246.549 83.036 248.813 84.2969C249.776 84.8141 249.776 84.8141 250.759 85.3418C252.846 86.4661 254.923 87.6077 257 88.75C258.446 89.5337 259.893 90.3163 261.34 91.0979C264.918 93.0333 268.488 94.9826 272.055 96.9366C274.821 98.4492 277.594 99.9493 280.367 101.449C283.933 103.379 287.488 105.327 291.035 107.289C294.429 109.161 297.852 110.956 301.309 112.711C302.153 113.15 302.996 113.589 303.866 114.041C305.445 114.862 307.034 115.663 308.634 116.441C312.522 118.491 313.751 119.224 315.149 123.57C314.991 127.217 314.857 128.101 312.313 130.563C308.794 134.179 305.501 137.895 302.25 141.75C298.361 146.317 294.395 150.793 290.313 155.188C286.925 158.834 283.681 162.556 280.563 166.438C276.204 171.853 271.528 176.917 266.789 181.996C264.568 184.379 262.39 186.793 260.25 189.25C259.722 189.855 259.193 190.459 258.649 191.082C257.409 192.524 256.188 193.983 254.977 195.449C253.936 196.681 253.936 196.681 252.875 197.938C252.254 198.689 251.632 199.441 250.992 200.215C248.588 202.369 247.221 202.91 244 203C241.93 201.918 241.93 201.918 239.875 200.188C239.1 199.542 238.326 198.896 237.527 198.23C233.868 195.001 230.239 191.745 226.664 188.422C223.682 185.711 220.569 183.207 217.363 180.766C216 179 216 179 215.563 176.109C216.096 172.319 217.187 170.873 219.688 168C220.506 167.051 221.325 166.103 222.168 165.125C225.781 161.105 229.472 157.157 233.174 153.22C241.479 144.745 241.479 144.745 248 135C244.74 132.614 244.74 132.614 240.859 132.082C236.609 133.446 233.159 135.821 229.438 138.25C228.607 138.784 227.776 139.317 226.921 139.867C224.275 141.57 221.637 143.284 219 145C217.301 146.1 215.602 147.201 213.902 148.301C209.739 151 205.582 153.708 201.427 156.418C197.539 158.952 193.645 161.477 189.75 164C189.083 164.433 188.417 164.865 187.73 165.311C183.183 168.255 178.6 171.139 174 174C175.216 179.914 176.726 185.619 178.642 191.343C178.899 192.123 179.157 192.903 179.422 193.707C180.264 196.259 181.113 198.809 181.961 201.359C182.554 203.154 183.147 204.948 183.74 206.743C185.296 211.454 186.858 216.163 188.42 220.872C190.915 228.393 193.402 235.915 195.89 243.438C196.752 246.045 197.617 248.65 198.482 251.256C199.021 252.884 199.56 254.512 200.099 256.14C200.334 256.846 200.569 257.551 200.811 258.279C202.976 264.825 204.971 271.404 207 278C243.63 278 280.26 278 318 278C329.079 240.523 329.079 240.523 340 203C339.101 202.719 338.202 202.437 337.275 202.148C334.475 201.166 332.149 200.114 329.594 198.637C328.778 198.168 327.961 197.7 327.12 197.217C326.256 196.712 325.391 196.208 324.5 195.688C323.145 194.9 323.145 194.9 321.763 194.097C319.841 192.98 317.921 191.861 316.002 190.739C312.938 188.964 309.854 187.226 306.766 185.492C304.76 184.35 302.755 183.206 300.75 182.062C299.792 181.532 298.833 181.001 297.846 180.454C296.522 179.69 296.522 179.69 295.172 178.91C294.389 178.468 293.606 178.026 292.8 177.571C291 176 291 176 290.168 173.473C289.868 169.06 292.48 166.608 295.234 163.387C296.065 162.496 296.895 161.605 297.75 160.688C300.818 157.37 303.86 154.045 306.813 150.625C307.364 149.999 307.916 149.372 308.484 148.727C309.857 147.163 311.211 145.582 312.563 144C315 142 315 142 317.563 141.551C322.578 142.206 326.155 144.595 330.438 147.188C332.325 148.299 334.213 149.41 336.102 150.52C337.075 151.097 338.049 151.674 339.052 152.268C343.767 155.038 348.542 157.701 353.313 160.375C361.704 165.104 370.052 169.903 378.375 174.75C379.946 175.663 379.946 175.663 381.548 176.595C382.509 177.157 383.471 177.718 384.461 178.297C385.315 178.795 386.169 179.294 387.048 179.808C389 181 389 181 390 182C390.585 188.559 388.767 194.271 386.942 200.528C386.617 201.67 386.292 202.813 385.957 203.99C385.067 207.11 384.168 210.228 383.266 213.344C382.32 216.621 381.383 219.901 380.445 223.181C378.867 228.693 377.283 234.203 375.693 239.711C373.663 246.748 371.644 253.789 369.628 260.83C367.885 266.918 366.137 273.005 364.389 279.091C363.832 281.03 363.276 282.968 362.72 284.907C361.674 288.547 360.625 292.186 359.575 295.825C359.272 296.884 358.968 297.942 358.655 299.033C352.828 319.172 352.828 319.172 350 322C347.061 322.254 347.061 322.254 343.212 322.261C342.506 322.265 341.8 322.268 341.072 322.272C338.695 322.283 336.317 322.279 333.94 322.275C332.24 322.279 330.54 322.284 328.84 322.29C324.214 322.304 319.588 322.304 314.962 322.302C311.105 322.301 307.248 322.305 303.391 322.31C294.294 322.321 285.197 322.322 276.1 322.316C266.705 322.31 257.31 322.322 247.914 322.343C239.858 322.361 231.801 322.367 223.744 322.364C218.927 322.362 214.111 322.364 209.295 322.378C204.767 322.391 200.239 322.389 195.71 322.376C194.046 322.374 192.381 322.376 190.717 322.385C188.449 322.395 186.183 322.387 183.915 322.374C182.645 322.374 181.374 322.375 180.065 322.375C177 322 177 322 175.143 320.659C173.376 318.094 172.576 315.4 171.614 312.443C171.393 311.773 171.173 311.104 170.945 310.415C170.208 308.171 169.483 305.924 168.758 303.676C168.232 302.067 167.704 300.459 167.176 298.851C166.04 295.388 164.909 291.922 163.78 288.456C161.993 282.969 160.184 277.488 158.37 272.009C157.749 270.133 157.128 268.257 156.507 266.381C156.197 265.442 155.886 264.503 155.566 263.535C153.639 257.711 151.72 251.885 149.799 246.058C149.478 245.085 149.157 244.111 148.827 243.108C148.344 241.644 148.344 241.644 147.852 240.151C146.873 237.181 145.893 234.211 144.913 231.24C144.261 229.265 143.609 227.29 142.957 225.314C142.637 224.344 142.316 223.373 141.986 222.372C139.503 214.846 137.032 207.315 134.564 199.784C132.922 194.78 131.26 189.784 129.575 184.794C128.601 181.902 127.637 179.006 126.676 176.11C126.031 174.182 125.371 172.259 124.71 170.336C121.068 159.313 121.068 159.313 123 154C125.139 151.911 125.139 151.911 127.969 150.203C129.007 149.56 130.044 148.917 131.113 148.255C132.231 147.593 133.349 146.932 134.5 146.25C135.651 145.546 136.801 144.839 137.949 144.13C140.238 142.72 142.532 141.321 144.832 139.93C148.94 137.427 152.975 134.822 157 132.188C158.354 131.309 159.708 130.432 161.063 129.555C162.375 128.703 163.688 127.852 165 127C174.749 120.674 184.52 114.383 194.313 108.125C202.225 103.067 210.126 97.9925 218 92.875C218.782 92.3673 219.563 91.8595 220.369 91.3364C221.113 90.8516 221.858 90.3667 222.625 89.8672C223.346 89.4015 224.066 88.9358 224.809 88.4561C226.343 87.4364 227.855 86.3817 229.348 85.3018C230.12 84.751 230.892 84.2003 231.688 83.6328C232.372 83.129 233.057 82.6251 233.762 82.106C236.777 80.6162 238.66 80.6079 242 81Z" fill="white"/>
<path d="M8.67344 378.58C9.59474 378.564 10.5161 378.548 11.4653 378.532C12.4539 378.532 13.4425 378.531 14.461 378.531C15.996 378.52 15.996 378.52 17.562 378.508C19.7256 378.497 21.8892 378.495 24.0528 378.499C27.3565 378.5 30.6577 378.458 33.961 378.414C36.0652 378.409 38.1694 378.406 40.2735 378.406C41.2581 378.39 42.2426 378.373 43.257 378.357C47.6324 378.4 50.9502 378.454 54.4803 381.22C56.8042 383.784 58.4622 386.009 60.0431 389.07C60.5542 390.041 61.0653 391.012 61.5919 392.012C62.1185 393.039 62.6451 394.066 63.1876 395.125C64.3252 397.274 65.4646 399.423 66.6056 401.57C67.1719 402.644 67.7383 403.719 68.3219 404.825C70.834 409.578 73.3831 414.305 76.0001 419C76.4322 419.812 76.8643 420.625 77.3094 421.461C77.723 422.196 78.1365 422.931 78.5626 423.688C78.9145 424.331 79.2664 424.974 79.629 425.637C80.9933 427.288 80.9933 427.288 83.6524 427.207C84.4272 427.139 85.2019 427.07 86.0001 427C86.4965 426.074 86.4965 426.074 87.003 425.13C90.9735 417.738 94.9784 410.365 99.0001 403C99.5654 401.961 100.131 400.921 100.713 399.851C102.295 396.955 103.894 394.07 105.5 391.188C105.979 390.306 106.459 389.424 106.952 388.515C107.411 387.699 107.871 386.883 108.344 386.043C108.738 385.332 109.131 384.62 109.537 383.887C111.543 381.299 112.95 380.296 116 379C119.544 378.556 123.061 378.556 126.629 378.566C127.656 378.561 128.682 378.556 129.74 378.551C131.906 378.544 134.072 378.545 136.238 378.554C139.555 378.562 142.869 378.534 146.186 378.502C148.292 378.5 150.398 378.501 152.504 378.504C153.992 378.487 153.992 378.487 155.509 378.47C156.434 378.479 157.358 378.489 158.311 378.498C159.122 378.498 159.933 378.499 160.768 378.499C163.921 379.207 165 380.482 167 383C167.501 386.014 167.501 386.014 167.501 389.611C167.51 390.605 167.51 390.605 167.518 391.62C167.532 393.839 167.517 396.058 167.502 398.278C167.506 399.869 167.511 401.461 167.518 403.053C167.532 407.375 167.521 411.697 167.504 416.019C167.491 420.54 167.497 425.06 167.501 429.58C167.503 437.17 167.49 444.761 167.467 452.351C167.44 461.132 167.438 469.912 167.45 478.693C167.461 487.135 167.455 495.576 167.44 504.018C167.435 507.613 167.435 511.208 167.44 514.803C167.444 519.035 167.434 523.266 167.413 527.497C167.407 529.052 167.407 530.607 167.412 532.161C167.417 534.28 167.405 536.398 167.388 538.516C167.384 540.296 167.384 540.296 167.38 542.112C167 545 167 545 165.601 546.843C162.899 548.796 161.188 549.131 157.905 549.161C157.061 549.171 156.216 549.18 155.346 549.19C154.431 549.194 153.517 549.199 152.574 549.203C151.635 549.209 150.695 549.215 149.727 549.22C147.735 549.23 145.744 549.236 143.752 549.24C140.71 549.25 137.669 549.281 134.627 549.312C132.693 549.319 130.759 549.324 128.824 549.328C127.916 549.34 127.007 549.353 126.071 549.366C121.276 549.349 117.815 549.263 114 546C112.798 542.393 112.824 539.072 112.795 535.316C112.785 534.535 112.775 533.754 112.765 532.95C112.733 530.369 112.708 527.788 112.684 525.207C112.663 523.418 112.642 521.628 112.621 519.839C112.566 515.129 112.516 510.419 112.468 505.709C112.418 500.903 112.362 496.097 112.307 491.291C112.199 481.861 112.098 472.43 112 463C111.663 463.64 111.325 464.281 110.978 464.94C109.432 467.861 107.873 470.774 106.313 473.688C105.782 474.695 105.252 475.702 104.705 476.74C98.134 488.955 98.134 488.955 92.0001 491C89.067 491.249 86.1302 491.231 83.1876 491.25C82.3929 491.271 81.5982 491.291 80.7794 491.312C75.7905 491.346 72.1694 491.021 68.0001 488C64.0271 482.554 60.9295 476.398 57.6876 470.5C57.2332 469.678 56.7788 468.855 56.3106 468.008C55.2051 466.006 54.1017 464.004 53.0001 462C52.9942 463.033 52.9884 464.066 52.9823 465.131C52.9252 474.857 52.8524 484.584 52.7644 494.31C52.7196 499.311 52.6804 504.311 52.6537 509.312C52.6277 514.136 52.5873 518.96 52.5369 523.784C52.5202 525.627 52.5087 527.469 52.5025 529.312C52.4929 531.888 52.4649 534.464 52.4325 537.04C52.4339 537.806 52.4353 538.571 52.4368 539.359C52.3446 544.524 52.3446 544.524 50.5981 546.935C47.8843 548.744 46.2061 549.128 42.9811 549.145C41.7393 549.155 41.7393 549.155 40.4725 549.165C39.5767 549.166 38.6809 549.167 37.7579 549.168C36.378 549.173 36.378 549.173 34.9703 549.178C33.0217 549.183 31.0732 549.185 29.1246 549.185C26.1442 549.187 23.1641 549.206 20.1837 549.225C18.2918 549.228 16.3998 549.23 14.5079 549.23C13.1702 549.241 13.1702 549.241 11.8055 549.252C10.5544 549.248 10.5544 549.248 9.27793 549.243C8.54672 549.244 7.81551 549.246 7.06214 549.247C4.65175 548.958 3.05933 548.273 1.0001 547C-0.419259 544.161 -0.135731 541.767 -0.147075 538.592C-0.150751 537.926 -0.154428 537.261 -0.158217 536.576C-0.169271 534.336 -0.1731 532.097 -0.176906 529.858C-0.183169 528.256 -0.189816 526.655 -0.196818 525.054C-0.214238 520.696 -0.224782 516.339 -0.233024 511.982C-0.23817 509.262 -0.244246 506.541 -0.250535 503.821C-0.269587 495.317 -0.28382 486.813 -0.292147 478.309C-0.301929 468.48 -0.328275 458.652 -0.368648 448.823C-0.398758 441.233 -0.413611 433.643 -0.416928 426.053C-0.419284 421.516 -0.428312 416.98 -0.453389 412.443C-0.476587 408.177 -0.480937 403.912 -0.470628 399.646C-0.47013 398.078 -0.476512 396.511 -0.490184 394.943C-0.507776 392.807 -0.500862 390.672 -0.487651 388.535C-0.490039 387.339 -0.492428 386.142 -0.494888 384.909C9.62289e-05 382 9.63211e-05 382 1.89152 380.116C4.33772 378.821 5.91423 378.609 8.67344 378.58Z" fill="white"/>
<path d="M211.586 378.498C212.451 378.493 213.317 378.487 214.209 378.482C217.074 378.469 219.939 378.486 222.805 378.504C224.806 378.504 226.807 378.502 228.808 378.499C233.009 378.498 237.211 378.511 241.412 378.533C246.763 378.562 252.112 378.559 257.463 378.546C261.602 378.539 265.74 378.547 269.879 378.56C271.849 378.564 273.819 378.564 275.789 378.561C307.884 378.526 307.884 378.526 318.996 388.855C327.833 398.354 328.216 408.205 328.313 420.687C328.342 421.917 328.371 423.146 328.4 424.412C328.461 433.156 327.708 441.526 321.313 448.062C320.168 449.022 320.168 449.022 319 450C318.67 450.33 318.34 450.66 318 451C318.713 451.231 319.426 451.461 320.16 451.699C328.561 454.56 335.427 457.457 339.856 465.511C344.348 475.284 344.452 485.852 344.336 496.385C344.313 498.695 344.316 501.004 344.322 503.314C344.3 515.523 343.894 528.164 335.399 537.82C333.676 539.385 331.933 540.707 330 542C329.451 542.378 328.902 542.755 328.336 543.145C315.059 550.953 297.037 549.431 282.266 549.363C280.011 549.363 277.757 549.363 275.502 549.365C270.813 549.365 266.123 549.354 261.434 549.336C255.421 549.313 249.409 549.313 243.397 549.32C238.758 549.323 234.118 549.316 229.479 549.307C227.261 549.303 225.042 549.302 222.824 549.303C219.737 549.304 216.65 549.291 213.564 549.275C212.649 549.277 211.735 549.28 210.793 549.282C209.952 549.275 209.112 549.268 208.246 549.261C207.154 549.258 207.154 549.258 206.041 549.254C203.646 548.956 202.048 548.264 200 547C198.586 544.172 198.864 541.8 198.853 538.636C198.849 537.976 198.846 537.315 198.842 536.635C198.831 534.412 198.827 532.189 198.823 529.965C198.817 528.375 198.81 526.786 198.803 525.196C198.786 520.869 198.775 516.543 198.767 512.216C198.762 509.515 198.756 506.814 198.749 504.113C198.73 495.666 198.716 487.219 198.708 478.772C198.698 469.012 198.672 459.252 198.631 449.492C198.601 441.954 198.586 434.416 198.583 426.878C198.581 422.373 198.572 417.869 198.547 413.364C198.523 409.127 198.519 404.89 198.529 400.653C198.53 399.097 198.524 397.541 198.51 395.985C198.492 393.862 198.499 391.741 198.512 389.618C198.51 388.429 198.508 387.241 198.505 386.017C199.732 378.538 205.096 378.421 211.586 378.498ZM253 420C253 427.92 253 435.84 253 444C256.713 444.082 260.425 444.165 264.25 444.25C265.414 444.286 266.579 444.323 267.778 444.36C268.702 444.37 269.626 444.38 270.578 444.391C271.521 444.412 272.463 444.433 273.435 444.454C276.794 443.859 277.947 442.678 280 440C280.401 437.169 280.561 434.817 280.5 432C280.516 431.288 280.531 430.577 280.547 429.844C280.522 426.528 280.349 424.455 278.306 421.79C275.481 419.597 274.116 419.531 270.578 419.609C269.654 419.619 268.73 419.629 267.778 419.64C266.614 419.676 265.45 419.712 264.25 419.75C260.538 419.832 256.825 419.915 253 420ZM253 481C253 489.91 253 498.82 253 508C257.466 508.069 261.931 508.129 266.397 508.165C267.915 508.18 269.433 508.2 270.951 508.226C273.138 508.263 275.325 508.28 277.512 508.293C279.483 508.317 279.483 508.317 281.495 508.341C285.219 507.979 287.092 507.318 290 505C291.197 501.41 291.205 498.41 291.25 494.625C291.289 492.664 291.289 492.664 291.328 490.664C290.986 486.838 290.384 484.974 288 482C284.494 480.831 281.352 480.875 277.707 480.902C277.001 480.904 276.295 480.905 275.568 480.907C273.316 480.912 271.064 480.925 268.813 480.937C267.285 480.943 265.757 480.947 264.229 480.951C260.486 480.961 256.743 480.981 253 481Z" fill="white"/>
<path d="M418.616 378.839C419.342 378.834 420.068 378.829 420.816 378.824C423.194 378.809 425.571 378.802 427.949 378.797C428.765 378.794 429.581 378.791 430.422 378.788C434.732 378.773 439.042 378.764 443.352 378.76C447.801 378.754 452.249 378.73 456.698 378.702C460.125 378.683 463.552 378.678 466.979 378.676C468.62 378.673 470.261 378.665 471.901 378.652C474.192 378.635 476.482 378.637 478.772 378.644C480.075 378.64 481.377 378.636 482.719 378.633C486.199 379.022 487.589 379.508 490 382C491.189 385.568 491.181 388.839 491.203 392.555C491.209 393.293 491.214 394.032 491.22 394.793C491.23 396.354 491.236 397.916 491.24 399.478C491.25 401.859 491.281 404.24 491.312 406.621C491.319 408.141 491.324 409.66 491.328 411.18C491.34 411.888 491.353 412.597 491.365 413.327C491.344 418.14 490.461 421.539 487 425C485.288 425.107 483.572 425.146 481.857 425.158C480.758 425.168 479.66 425.178 478.528 425.189C477.33 425.196 476.133 425.203 474.898 425.211C472.381 425.239 469.865 425.268 467.348 425.297C463.365 425.338 459.382 425.375 455.399 425.401C451.565 425.429 447.732 425.475 443.898 425.523C442.713 425.527 441.527 425.53 440.305 425.533C434.151 425.625 429.364 425.845 424 429C421.648 432.529 421.752 433.975 421.757 438.152C421.754 439.42 421.751 440.688 421.748 441.995C421.755 443.381 421.762 444.767 421.769 446.152C421.771 447.573 421.771 448.994 421.771 450.415C421.772 453.394 421.781 456.372 421.794 459.35C421.811 463.165 421.815 466.979 421.814 470.793C421.814 473.728 421.82 476.663 421.827 479.598C421.83 481.004 421.832 482.41 421.833 483.816C421.835 485.784 421.845 487.751 421.855 489.719C421.859 490.838 421.862 491.957 421.866 493.109C421.912 496.693 421.912 496.693 423 500C426.971 501.815 430.521 502.252 434.85 502.271C435.978 502.281 437.106 502.292 438.268 502.302C440.073 502.305 440.073 502.305 441.914 502.309C444.474 502.334 447.034 502.359 449.594 502.385C453.621 502.414 457.648 502.438 461.675 502.456C465.567 502.475 469.459 502.517 473.352 502.559C475.163 502.559 475.163 502.559 477.01 502.559C478.692 502.579 478.692 502.579 480.409 502.599C481.394 502.604 482.38 502.61 483.395 502.615C486.443 503.066 487.802 503.867 490 506C491.189 509.568 491.181 512.839 491.203 516.555C491.209 517.293 491.214 518.032 491.22 518.793C491.23 520.354 491.236 521.916 491.24 523.478C491.25 525.859 491.281 528.24 491.312 530.621C491.319 532.141 491.324 533.66 491.328 535.18C491.34 535.888 491.353 536.597 491.365 537.327C491.346 541.713 490.771 544.553 488 548C484.613 549.129 482.027 549.134 478.456 549.145C477.795 549.149 477.134 549.152 476.454 549.155C474.265 549.165 472.076 549.167 469.887 549.168C468.355 549.171 466.823 549.175 465.292 549.178C462.073 549.184 458.854 549.186 455.635 549.185C451.549 549.185 447.462 549.199 443.375 549.216C440.205 549.227 437.034 549.229 433.864 549.229C432.36 549.23 430.856 549.234 429.352 549.242C410.899 549.329 391.952 548.1 377.809 534.965C365.224 521.824 365.684 504.726 365.699 487.641C365.695 485.764 365.691 483.888 365.686 482.011C365.679 478.091 365.679 474.171 365.684 470.251C365.69 465.268 365.673 460.284 365.65 455.301C365.635 451.428 365.634 447.555 365.637 443.682C365.637 441.847 365.632 440.012 365.622 438.177C365.538 420.884 366.201 404.09 379 391C389.605 381.788 404.978 378.91 418.616 378.839Z" fill="white"/>
<path d="M382 1C384.158 2.62967 384.158 2.62967 386.331 4.76611C387.152 5.5643 387.972 6.36248 388.818 7.18485C389.689 8.05455 390.56 8.92425 391.457 9.82031C392.811 11.1583 392.811 11.1583 394.193 12.5234C396.099 14.4133 398 16.307 399.894 18.208C402.318 20.6379 404.766 23.0418 407.222 25.4397C409.566 27.7381 411.885 30.0619 414.207 32.3828C415.088 33.2404 415.969 34.0979 416.877 34.9815C422.827 41.0224 422.827 41.0224 423.676 45.8081C423.051 48.7576 422.385 51.0331 420.98 53.6875C420.31 54.9869 420.31 54.9869 419.627 56.3125C419.152 57.1994 418.677 58.0863 418.188 59C414.286 66.4434 410.564 73.9466 406.953 81.5352C400.598 94.8893 394.085 108.165 387.562 121.438C386.394 123.818 385.225 126.199 384.057 128.58C382.935 130.865 381.813 133.149 380.691 135.434C380.178 136.479 379.664 137.525 379.135 138.603C378.186 140.534 377.235 142.463 376.28 144.391C375.457 146.068 374.651 147.752 373.864 149.446C371.316 154.854 371.316 154.854 368 156.383C362.148 156.561 356.884 152.681 352 149.875C350.946 149.292 349.891 148.71 348.805 148.109C345.84 146.452 342.915 144.744 340 143C339.238 142.559 338.476 142.119 337.691 141.665C335.75 140.445 335.75 140.445 333 138C332.395 133.152 333.615 130.016 335.762 125.707C336.06 125.099 336.359 124.491 336.666 123.865C337.662 121.842 338.675 119.827 339.688 117.813C340.393 116.387 341.098 114.96 341.801 113.533C343.34 110.413 344.886 107.295 346.435 104.179C350.694 95.5978 354.875 86.979 359.071 78.3675C361.367 73.6588 363.668 68.9524 365.969 64.2461C366.377 63.4102 366.786 62.5743 367.207 61.713C368.138 59.8087 369.069 57.9043 370 56C361.681 60.4607 353.509 65.1517 345.375 69.9375C344.109 70.6806 342.843 71.4237 341.578 72.1668C332.028 77.7793 322.518 83.4568 313.033 89.1775C311.168 90.3018 309.301 91.4221 307.431 92.5376C305.931 93.4398 304.441 94.3581 302.968 95.3022C299.054 97.7444 296.577 98.4183 292 98C288.86 96.7024 288.86 96.7024 285.535 94.8945C284.641 94.4129 284.641 94.4129 283.728 93.9216C282.472 93.2422 281.219 92.5569 279.969 91.866C278.078 90.8211 276.178 89.7948 274.275 88.7715C261.958 82.1001 261.958 82.1001 257 78C256.312 74.9375 256.312 74.9375 257 72C259.714 68.8614 262.601 66.8815 266.199 64.8555C267.23 64.2691 268.261 63.6827 269.323 63.0786C270.989 62.1425 270.989 62.1425 272.688 61.1875C275.062 59.8385 277.434 58.484 279.805 57.1289C280.408 56.7845 281.012 56.4401 281.634 56.0853C287.58 52.6857 293.451 49.1669 299.312 45.625C308.899 39.8418 318.533 34.1467 328.198 28.497C334.984 24.5303 341.764 20.5555 348.523 16.543C349.135 16.1802 349.746 15.8174 350.375 15.4436C353.279 13.7191 356.182 11.9926 359.083 10.2639C361.123 9.05119 363.166 7.84372 365.213 6.64258C367.014 5.58112 368.805 4.50275 370.584 3.4043C371.757 2.70144 371.757 2.70144 372.953 1.98438C373.62 1.57413 374.287 1.16389 374.974 0.741212C377.731 -0.267484 379.195 0.170701 382 1Z" fill="white"/>
<path d="M121 11C123.918 12.5039 123.918 12.5039 127.187 14.5625C128.512 15.383 129.838 16.2018 131.164 17.0195C132.292 17.7188 132.292 17.7188 133.442 18.4321C138.033 21.2464 142.675 23.9759 147.311 26.7148C149.078 27.7594 150.845 28.8054 152.612 29.8518C158.861 33.553 165.113 37.25 171.366 40.9441C173.118 41.9791 174.87 43.0145 176.622 44.05C181.154 46.7293 185.688 49.4059 190.225 52.0771C192.659 53.5106 195.091 54.9463 197.524 56.3823C199.258 57.4051 200.993 58.4253 202.728 59.4453C220.164 69.7455 220.164 69.7455 223 74C222.869 77.182 222.443 78.5615 220.164 80.8164C219.326 81.3926 218.488 81.9688 217.625 82.5625C216.65 83.2354 215.676 83.9083 214.672 84.6016C207.756 89.1633 200.725 93.5487 193.683 97.9119C192.038 98.8918 192.038 98.8918 191 100C185.379 100.512 181.826 99.3091 177.125 96.4375C176.457 96.0462 175.789 95.6549 175.101 95.2517C172.724 93.8512 170.362 92.4262 168 91C165.999 89.8041 163.998 88.6088 161.996 87.4141C157.703 84.8469 153.416 82.2704 149.133 79.6875C141.458 75.0637 133.733 70.5267 126 66C126.432 66.8594 126.865 67.7188 127.31 68.6042C131.179 76.3004 135.034 84.0036 138.87 91.7165C141.008 96.0145 143.162 100.304 145.324 104.59C146.238 106.434 147.151 108.279 148.062 110.125C148.485 110.951 148.908 111.777 149.343 112.628C151.052 116.134 152.002 118.41 151.988 122.359C150.816 125.491 149.929 126.349 147.125 128.125C146.235 128.696 145.346 129.267 144.43 129.855C143.905 130.181 143.38 130.506 142.839 130.841C140.64 132.227 138.482 133.67 136.32 135.113C134.631 136.223 132.941 137.331 131.25 138.437C130.434 138.982 129.618 139.527 128.778 140.088C125.36 142.283 122.683 143.865 118.672 144.66C114.996 143.752 114.178 142.053 112 139C110.902 136.989 109.867 134.943 108.883 132.875C108.593 132.271 108.303 131.668 108.004 131.046C107.039 129.033 106.082 127.017 105.125 125C104.082 122.82 103.036 120.641 101.99 118.463C101.235 116.891 100.482 115.32 99.7285 113.748C96.5609 107.143 93.3492 100.561 90.1249 93.9844C89.6275 92.9695 89.1301 91.9547 88.6176 90.9091C86.6266 86.8484 84.6349 82.7882 82.6411 78.729C81.2409 75.8774 79.8429 73.0247 78.4452 70.1719C78.0251 69.318 77.6049 68.4641 77.172 67.5844C76.1008 65.3959 75.0469 63.2002 73.9999 61C73.5576 60.089 73.1153 59.1779 72.6596 58.2393C71.8158 55.3749 72.1546 53.8589 72.9999 51C74.6253 48.8869 74.6253 48.8869 76.7536 46.7764C77.945 45.5805 77.945 45.5805 79.1606 44.3605C80.4558 43.0915 80.4558 43.0915 81.7773 41.7969C82.659 40.9185 83.5406 40.0401 84.449 39.1351C86.7904 36.8068 89.1404 34.4878 91.4945 32.1725C93.4165 30.2777 95.3291 28.3737 97.2414 26.4691C99.5207 24.1998 101.805 21.9357 104.09 19.6719C105.382 18.3907 105.382 18.3907 106.7 17.0837C107.498 16.2991 108.295 15.5144 109.117 14.7061C109.82 14.0128 110.523 13.3195 111.248 12.6052C114.652 9.48632 116.607 9.94248 121 11Z" fill="white"/>
<path d="M115.062 178.75C119.056 180.449 119.33 182.373 120.945 186.241C122.899 191.352 124.592 196.537 126.25 201.75C126.613 202.86 126.977 203.97 127.352 205.113C127.694 206.184 128.037 207.256 128.391 208.359C128.7 209.323 129.01 210.287 129.329 211.28C129.999 213.998 130.229 216.215 130 219C128.645 220.695 128.645 220.695 126.812 222.125C126.178 222.625 125.544 223.125 124.891 223.641C122.667 225.239 120.404 226.688 118 228C118.663 233.805 120.078 239.201 121.723 244.801C121.988 245.718 122.253 246.636 122.525 247.581C123.367 250.493 124.214 253.403 125.062 256.312C125.914 259.24 126.763 262.168 127.61 265.097C128.136 266.915 128.665 268.733 129.196 270.549C129.433 271.368 129.67 272.186 129.914 273.029C130.23 274.109 130.23 274.109 130.551 275.212C131 277 131 277 131 279C131.56 278.974 132.12 278.948 132.697 278.921C135.235 278.817 137.773 278.752 140.312 278.688C141.194 278.646 142.075 278.604 142.982 278.561C144.254 278.536 144.254 278.536 145.551 278.512C146.331 278.486 147.111 278.459 147.915 278.432C150 279 150 279 151.637 281.135C153.907 285.907 155.46 290.875 157.072 295.901C157.684 297.801 158.315 299.694 158.947 301.588C162.88 313.762 162.88 313.762 162 320C158.572 322.285 157.322 322.253 153.291 322.259C152.12 322.265 150.948 322.271 149.742 322.278C148.476 322.274 147.21 322.27 145.906 322.266C143.959 322.268 143.959 322.268 141.972 322.271C139.225 322.274 136.478 322.27 133.731 322.261C130.21 322.249 126.69 322.256 123.169 322.268C119.81 322.277 116.452 322.271 113.094 322.266C111.828 322.27 110.562 322.274 109.258 322.278C108.087 322.272 106.916 322.265 105.709 322.259C104.677 322.257 103.644 322.256 102.58 322.254C100 322 100 322 97 320C96.1623 318.131 96.1623 318.131 95.5003 315.814C95.2438 314.936 94.9872 314.059 94.7229 313.154C94.4531 312.189 94.1834 311.224 93.9055 310.229C93.4659 308.707 93.4659 308.707 93.0175 307.154C92.0487 303.788 91.0963 300.418 90.1445 297.047C89.4769 294.71 88.8086 292.373 88.1396 290.036C86.738 285.132 85.3443 280.226 83.9563 275.318C82.177 269.028 80.3809 262.743 78.5791 256.46C77.1962 251.632 75.8212 246.802 74.4486 241.97C73.7893 239.653 73.1278 237.335 72.4642 235.019C71.537 231.777 70.6203 228.533 69.7063 225.288C69.4305 224.331 69.1547 223.374 68.8705 222.388C67.6047 217.853 66.4901 213.755 67 209C69.8416 205.185 73.9782 202.986 78 200.562C85.5047 195.961 92.8941 191.199 100.26 186.379C111.489 179.042 111.489 179.042 115.062 178.75Z" fill="white"/>
<path d="M197.364 649.746C198.231 649.74 199.097 649.735 199.99 649.729C200.932 649.733 201.875 649.737 202.846 649.741C203.844 649.738 204.843 649.734 205.872 649.731C209.175 649.722 212.478 649.728 215.781 649.734C218.075 649.733 220.369 649.731 222.663 649.729C227.472 649.726 232.28 649.73 237.088 649.739C243.256 649.751 249.423 649.744 255.59 649.732C260.327 649.725 265.064 649.727 269.801 649.732C272.076 649.734 274.35 649.732 276.624 649.727C279.801 649.722 282.978 649.73 286.154 649.741C287.568 649.735 287.568 649.735 289.01 649.729C290.31 649.737 290.31 649.737 291.636 649.746C292.386 649.747 293.137 649.748 293.91 649.748C296.359 650.043 297.937 650.651 300 652C300.938 654.938 300.938 654.938 301 658C299.459 660.106 298.552 660.898 295.965 661.375C295.182 661.375 294.398 661.374 293.591 661.374C292.689 661.381 291.787 661.388 290.859 661.395C289.872 661.388 288.885 661.38 287.869 661.372C286.828 661.376 285.787 661.38 284.715 661.383C281.267 661.392 277.819 661.378 274.371 661.363C271.981 661.363 269.591 661.363 267.201 661.365C262.19 661.365 257.179 661.354 252.168 661.336C245.733 661.313 239.298 661.313 232.862 661.32C227.927 661.323 222.992 661.316 218.056 661.307C215.683 661.303 213.309 661.302 210.936 661.303C207.624 661.304 204.313 661.291 201.002 661.275C200.013 661.277 199.024 661.28 198.006 661.282C196.658 661.272 196.658 661.272 195.282 661.261C194.499 661.259 193.716 661.257 192.909 661.254C191 661 191 661 189 659C188.875 655.375 188.875 655.375 189 652C191.921 650.336 194.011 649.749 197.364 649.746Z" fill="white"/>
<path d="M199 588C208 588 208 588 210.41 589.531C210.955 590.181 211.501 590.831 212.062 591.5C212.631 592.15 213.199 592.799 213.785 593.469C214.387 594.227 214.387 594.227 215 595C215.33 592.69 215.66 590.38 216 588C219.63 588 223.26 588 227 588C227.025 592.397 227.043 596.793 227.055 601.19C227.06 602.686 227.067 604.183 227.075 605.68C227.088 607.827 227.093 609.974 227.098 612.121C227.106 614.061 227.106 614.061 227.114 616.041C227 619 227 619 226 620C224.503 620.098 223.001 620.13 221.5 620.125C220.685 620.128 219.871 620.13 219.031 620.133C217 620 217 620 216 619C215.897 617.928 215.794 616.855 215.688 615.75C214.941 611.678 213.792 609.972 211 607C210.939 607.855 210.879 608.709 210.816 609.59C210.733 610.695 210.649 611.799 210.562 612.938C210.481 614.04 210.4 615.142 210.316 616.277C210 619 210 619 209 620C205.7 620 202.4 620 199 620C199 609.44 199 598.88 199 588Z" fill="white"/>
<path d="M177.312 587.687C178.276 587.658 179.24 587.629 180.232 587.6C187.276 587.536 187.276 587.536 190.664 589.707C192.258 592.443 192.334 593.87 192.062 597C191.673 600.749 191.673 600.749 193.48 603.895C195.618 606.857 195.331 609.081 195.25 612.687C195.234 613.846 195.219 615.005 195.203 616.199C195 619 195 619 194 620C190.664 620.143 187.34 620.042 184 620C184 616.7 184 613.4 184 610C181.69 610 179.38 610 177 610C177 613.3 177 616.6 177 620C169.285 620.098 169.285 620.098 167 620C165.117 618.117 165.869 614.881 165.867 612.375C165.866 611.713 165.865 611.051 165.864 610.369C165.864 608.966 165.865 607.564 165.87 606.162C165.875 604.009 165.87 601.856 165.863 599.703C165.864 598.344 165.865 596.984 165.867 595.625C165.868 594.38 165.869 593.135 165.871 591.852C166.147 585.766 172.435 587.736 177.312 587.687ZM177 596C177 597.65 177 599.3 177 601C178.32 601 179.64 601 181 601C180.67 599.35 180.34 597.7 180 596C179.01 596 178.02 596 177 596Z" fill="white"/>
<path d="M357.566 587.434C362.123 588.494 364.44 592.312 367 596C367.33 593.36 367.66 590.72 368 588C371.3 588 374.6 588 378 588C378 598.56 378 609.12 378 620C374.7 620 371.4 620 368 620C367.938 618.969 367.876 617.938 367.812 616.875C366.814 612.115 365.295 610.464 362 607C361.67 611.29 361.34 615.58 361 620C357.7 620 354.4 620 351 620C349.571 617.142 349.87 614.687 349.867 611.496C349.866 610.199 349.865 608.901 349.863 607.564C349.865 606.888 349.867 606.211 349.87 605.514C349.875 603.442 349.87 601.371 349.863 599.299C349.865 598.003 349.866 596.707 349.867 595.371C349.868 594.174 349.869 592.977 349.871 591.744C350.106 586.758 353.235 587.441 357.566 587.434Z" fill="white"/>
<path d="M341.688 588.188C344.516 590.404 344.984 591.56 346 595C346.281 598.005 346.279 600.984 346.25 604C346.258 604.794 346.265 605.588 346.273 606.406C346.259 610.629 346.227 614.278 344 618C339.322 621.232 332.944 621.325 327.453 620.719C323.373 619.919 320.652 619.371 318 616C317.357 612.052 317.537 608.057 317.562 604.063C317.543 602.965 317.523 601.867 317.502 600.736C317.503 599.68 317.503 598.624 317.504 597.535C317.502 596.57 317.5 595.604 317.498 594.61C318.142 591.26 319.363 590.099 322 588C328.213 585.929 335.498 586.194 341.688 588.188ZM328 598C327.901 599.81 327.87 601.625 327.875 603.438C327.872 604.426 327.87 605.415 327.867 606.434C327.828 608.989 327.828 608.989 329 611C330.666 611.043 332.334 611.041 334 611C335.339 609.889 335.339 609.889 335.098 607.059C335.086 605.864 335.074 604.669 335.062 603.438C335.053 602.24 335.044 601.042 335.035 599.809C335.024 598.882 335.012 597.955 335 597C331.194 596.562 331.194 596.562 328 598Z" fill="white"/>
<path d="M76 588C85 588 85 588 87.4102 589.75C87.9554 590.493 88.5007 591.235 89.0625 592C89.631 592.743 90.1995 593.485 90.7852 594.25C91.1861 594.827 91.587 595.405 92 596C92.33 593.36 92.66 590.72 93 588C96.3 588 99.6 588 103 588C103 598.56 103 609.12 103 620C99.7 620 96.4 620 93 620C92.9381 618.969 92.8762 617.938 92.8125 616.875C91.8145 612.115 90.2951 610.464 87 607C86.67 611.29 86.34 615.58 86 620C82.7 620 79.4 620 76 620C76 609.44 76 598.88 76 588Z" fill="white"/>
<path d="M392.598 587.902C394.086 587.909 395.574 587.921 397.063 587.938C397.821 587.942 398.58 587.947 399.361 587.951C401.241 587.963 403.121 587.981 405 588C405.814 589.937 406.626 591.875 407.438 593.812C408.116 595.431 408.116 595.431 408.809 597.082C410.232 600.568 411.126 603.268 411.098 607.012C411.094 607.769 411.091 608.526 411.088 609.307C411.08 610.092 411.071 610.878 411.063 611.688C411.058 612.485 411.054 613.282 411.049 614.104C411.037 616.069 411.019 618.035 411 620C407.37 620 403.74 620 400 620C400 617.36 400 614.72 400 612C397.69 612 395.38 612 393 612C393 614.64 393 617.28 393 620C389.7 620 386.4 620 383 620C382.421 608.53 382.615 599.434 388 589C389 588 389 588 392.598 587.902ZM396 597C395.34 598.98 394.68 600.96 394 603C395.65 603 397.3 603 399 603C398.34 601.02 397.68 599.04 397 597C396.67 597 396.34 597 396 597Z" fill="white"/>
<path d="M237 588C242.61 588 248.22 588 254 588C260.146 603.601 260.146 603.601 260.125 612.75C260.129 614.475 260.129 614.475 260.133 616.234C260 619 260 619 259 620C257.314 620.072 255.625 620.084 253.937 620.062C253.018 620.053 252.099 620.044 251.152 620.035C250.442 620.024 249.732 620.012 249 620C249 617.36 249 614.72 249 612C246.69 612 244.38 612 242 612C242 614.64 242 617.28 242 620C238.7 620 235.4 620 232 620C231.426 607.925 231.776 599.101 237 588ZM245 597C244.34 598.98 243.68 600.96 243 603C244.65 603 246.3 603 248 603C247.34 601.02 246.68 599.04 246 597C245.67 597 245.34 597 245 597Z" fill="white"/>
<path d="M138 588C145.92 588 153.84 588 162 588C162 590.97 162 593.94 162 597C157.38 597 152.76 597 148 597C148 597.66 148 598.32 148 599C151.3 599 154.6 599 158 599C158 601.97 158 604.94 158 608C154.7 608 151.4 608 148 608C148 608.99 148 609.98 148 611C152.62 611 157.24 611 162 611C162 613.97 162 616.94 162 620C154.08 620 146.16 620 138 620C138 609.44 138 598.88 138 588Z" fill="white"/>
<path d="M416 588C419.3 588 422.6 588 426 588C427 589 427 589 427.114 591.133C427.108 592.049 427.103 592.966 427.098 593.91C427.094 594.9 427.091 595.889 427.088 596.908C427.08 597.949 427.071 598.99 427.062 600.062C427.058 601.107 427.053 602.152 427.049 603.229C427.037 605.819 427.021 608.41 427 611C428.32 611 429.64 611 431 611C430.979 609.701 430.959 608.401 430.938 607.062C430.916 605.708 430.929 604.352 431 603C432 602 432 602 434.031 601.867C434.846 601.87 435.661 601.872 436.5 601.875C437.315 601.872 438.129 601.87 438.969 601.867C441 602 441 602 442 603C442.073 605.865 442.092 608.699 442.062 611.562C442.042 614.347 442.021 617.131 442 620C433.42 620 424.84 620 416 620C416 609.44 416 598.88 416 588Z" fill="white"/>
<path d="M48 588C55.59 588 63.18 588 71 588C71 590.97 71 593.94 71 597C69.02 597 67.04 597 65 597C65 601.62 65 606.24 65 611C66.98 611 68.96 611 71 611C71 613.97 71 616.94 71 620C67.3542 620.029 63.7084 620.047 60.0625 620.062C58.5012 620.075 58.5012 620.075 56.9082 620.088C55.9189 620.091 54.9295 620.094 53.9102 620.098C52.5355 620.106 52.5355 620.106 51.1331 620.114C49 620 49 620 48 619C47.8589 616.329 47.9576 613.676 48 611C49.98 611 51.96 611 54 611C54 606.38 54 601.76 54 597C52.35 597 50.7 597 49 597C48.67 596.67 48.34 596.34 48 596C48 593.36 48 590.72 48 588Z" fill="white"/>
<path d="M291 588C298.26 588 305.52 588 313 588C313 590.97 313 593.94 313 597C311.35 597 309.7 597 308 597C308 601.62 308 606.24 308 611C309.65 611 311.3 611 313 611C313 613.97 313 616.94 313 620C305.74 620 298.48 620 291 620C291 617.03 291 614.06 291 611C292.98 611 294.96 611 297 611C297 606.38 297 601.76 297 597C295.02 597 293.04 597 291 597C291 594.03 291 591.06 291 588Z" fill="white"/>
<path d="M261 588C269.91 588 278.82 588 288 588C288 590.97 288 593.94 288 597C285.36 597 282.72 597 280 597C280 604.59 280 612.18 280 620C276.37 620 272.74 620 269 620C269 612.41 269 604.82 269 597C266.36 597 263.72 597 261 597C261 594.03 261 591.06 261 588Z" fill="white"/>
<path d="M107 588C115.91 588 124.82 588 134 588C134 590.97 134 593.94 134 597C131.36 597 128.72 597 126 597C126 604.59 126 612.18 126 620C122.37 620 118.74 620 115 620C115 612.41 115 604.82 115 597C112.36 597 109.72 597 107 597C107 594.03 107 591.06 107 588Z" fill="white"/>
</g>
<defs>
<clipPath id="clip0_101_292">
<rect width="491" height="661" fill="white"/>
</clipPath>
</defs>
</svg>
