<svg width="621" height="957" viewBox="0 0 621 957" fill="none" xmlns="http://www.w3.org/2000/svg">
<path d="M143 110C168.74 110 194.48 110 221 110C228.512 142.103 235.821 174.247 243.043 206.417C245.262 216.302 247.483 226.186 249.705 236.069C250.468 239.464 251.23 242.858 251.992 246.253C252.464 248.356 252.937 250.46 253.41 252.563C253.715 253.927 253.715 253.927 254.027 255.318C255.956 263.895 257.986 272.441 260 281C272.54 224.57 285.08 168.14 298 110C331 111 331 111 347 112C340.347 141.234 333.364 170.383 326.297 199.519C323.417 211.394 320.544 223.27 317.67 235.147C317.017 237.844 316.364 240.542 315.712 243.24C309.318 269.657 302.96 296.083 296.621 322.513C295.891 325.557 295.161 328.6 294.431 331.644C287.607 360.093 280.801 388.546 274 417C264.43 417 254.86 417 245 417C241.625 406.875 241.625 406.875 240.65 403.062C240.426 402.193 240.203 401.325 239.972 400.43C239.621 399.048 239.621 399.048 239.264 397.639C239.008 396.642 238.752 395.645 238.488 394.618C237.645 391.331 236.807 388.042 235.969 384.754C235.372 382.423 234.775 380.093 234.177 377.763C232.601 371.61 231.028 365.456 229.455 359.302C226.97 349.574 224.479 339.848 221.988 330.122C221.137 326.797 220.287 323.472 219.438 320.146C214.047 299.073 208.511 278.043 203 257C202.67 325.97 202.34 394.94 202 466C182.53 466 163.06 466 143 466C143 348.52 143 231.04 143 110Z" fill="#97BF0D"/>
<path d="M589 71C589.33 71 589.66 71 590 71C590.092 114.084 590.162 157.168 590.204 200.252C590.209 205.347 590.214 210.442 590.22 215.537C590.221 216.552 590.222 217.566 590.223 218.611C590.24 234.999 590.272 251.387 590.309 267.775C590.346 284.612 590.368 301.448 590.376 318.284C590.382 328.659 590.399 339.034 590.432 349.409C590.453 356.54 590.459 363.67 590.454 370.8C590.451 374.904 590.455 379.008 590.477 383.112C590.712 429.94 577.175 468.767 547 505C546.526 505.575 546.053 506.15 545.565 506.743C540.8 512.523 536.003 518.202 530.598 523.402C528.852 525.148 527.279 526.988 525.688 528.875C522.309 532.787 518.601 536.18 514.723 539.59C512.355 541.686 510.039 543.827 507.733 545.99C501.418 551.888 494.782 557.246 487.932 562.505C485.913 564.067 483.915 565.652 481.918 567.242C433.168 605.919 377.309 635.518 321.5 662.625C320.373 663.176 319.245 663.726 318.084 664.293C317.056 664.787 316.028 665.281 314.969 665.789C313.63 666.434 313.63 666.434 312.264 667.092C310 668 310 668 307 668C307 649.52 307 631.04 307 612C326.535 601.147 326.535 601.147 334.605 596.856C347.226 590.144 359.62 583.106 371.917 575.818C375.084 573.95 378.265 572.106 381.449 570.266C405.554 556.262 428.866 540.964 451 524C451.981 523.253 451.981 523.253 452.981 522.49C459.727 517.334 466.281 512.031 472.523 506.266C474.568 504.395 476.641 502.579 478.738 500.77C491.036 490.029 502.518 478.312 512 465C512.427 464.407 512.854 463.813 513.294 463.202C532.512 436.255 538.495 409.733 538.29 377.006C538.284 374.301 538.279 371.596 538.277 368.89C538.269 363.094 538.251 357.297 538.227 351.5C538.191 342.33 538.185 333.16 538.185 323.991C538.185 320.844 538.184 317.698 538.183 314.552C538.183 313.766 538.183 312.98 538.182 312.171C538.18 303.254 538.171 294.338 538.159 285.422C538.158 284.609 538.157 283.795 538.156 282.956C538.138 269.747 538.097 256.537 538.05 243.327C538.002 229.732 537.99 216.138 538.006 202.543C538.015 194.173 537.996 185.805 537.94 177.435C537.904 171.703 537.901 165.972 537.923 160.24C537.935 156.937 537.928 153.635 537.89 150.332C537.652 128.021 537.652 128.021 543.305 121.686C544.849 120.431 546.414 119.201 548 118C549.437 116.305 550.837 114.578 552.188 112.812C556.492 107.483 561.132 102.533 565.835 97.5591C570.069 93.0594 574.033 88.4109 577.895 83.5859C581.426 79.2492 585.102 75.0115 589 71Z" fill="#97BF0D"/>
<path d="M1.00001 65C6.50278 70.4919 6.50278 70.4919 8.8672 73.0508C9.35639 73.5799 9.84559 74.1089 10.3496 74.6541C10.853 75.2013 11.3564 75.7486 11.875 76.3125C12.4067 76.8901 12.9385 77.4677 13.4863 78.0627C18.335 83.3428 23.0577 88.7163 27.7031 94.1758C28.7185 95.3674 29.7341 96.5588 30.75 97.75C31.5134 98.6456 31.5134 98.6456 32.2922 99.5593C36.7095 104.716 41.2825 109.711 45.918 114.672C48.8047 117.9 49.1251 119.456 49.1275 123.681C49.1305 124.674 49.1335 125.667 49.1366 126.691C49.1349 127.79 49.1331 128.889 49.1313 130.022C49.1334 131.183 49.1355 132.345 49.1377 133.542C49.1427 136.777 49.1432 140.012 49.142 143.247C49.1418 146.732 49.1473 150.218 49.1524 153.704C49.1605 159.75 49.1654 165.797 49.1687 171.843C49.1742 181.413 49.1911 190.982 49.21 200.552C49.2164 203.827 49.2227 207.102 49.229 210.377C49.2306 211.196 49.2322 212.015 49.2338 212.858C49.2517 222.184 49.268 231.511 49.283 240.837C49.2843 241.689 49.2857 242.542 49.2871 243.421C49.309 257.205 49.3198 270.99 49.3273 284.775C49.3354 298.94 49.3588 313.105 49.3953 327.269C49.4172 335.997 49.427 344.725 49.4208 353.453C49.4176 359.448 49.4291 365.444 49.4517 371.44C49.4643 374.891 49.4706 378.342 49.4593 381.794C49.3789 415.536 58.4025 440.829 81 466C82.0906 467.255 82.0906 467.255 83.2031 468.535C92.0877 478.654 101.666 488.359 112 497C113.425 498.224 113.425 498.224 114.879 499.473C122.12 505.682 129.526 511.645 137.062 517.492C139.132 519.103 141.193 520.725 143.254 522.348C153.643 530.512 164.232 538.344 175 546C176.426 547.019 177.852 548.039 179.277 549.059C206.804 568.681 235.438 586.531 265.117 602.717C266.395 603.417 267.666 604.13 268.926 604.861C270.967 606.032 270.967 606.032 273.101 606.867C275.523 608.01 277.16 609.04 279 611C280.135 615.171 279.932 619.224 279.781 623.52C279.764 625.34 279.764 625.34 279.747 627.197C279.702 631.071 279.602 634.94 279.5 638.812C279.46 641.439 279.423 644.066 279.391 646.693C279.302 653.13 279.169 659.565 279 666C273.09 664.289 267.766 661.536 262.285 658.793C261.238 658.272 260.192 657.75 259.113 657.213C256.891 656.105 254.669 654.995 252.448 653.882C249.137 652.225 245.82 650.578 242.502 648.932C229.817 642.608 217.371 635.974 205.085 628.905C200.876 626.484 196.626 624.148 192.347 621.852C157.203 602.969 123.542 579.676 93 554C91.9804 553.166 90.9607 552.332 89.9102 551.473C81.0196 544.083 72.8107 536.026 64.625 527.875C63.7882 527.046 63.7882 527.046 62.9345 526.2C55.8198 519.138 49.186 511.908 43 504C42.4638 503.328 41.9275 502.657 41.375 501.965C22.0699 477.639 7.36789 449.778 2.00001 419C1.82629 418.07 1.65257 417.14 1.47359 416.181C0.631614 410.158 0.86607 404.053 0.879753 397.985C0.879316 396.547 0.87844 395.11 0.877164 393.673C0.874931 389.732 0.878923 385.792 0.883942 381.851C0.888264 377.598 0.886798 373.345 0.886039 369.093C0.885515 361.727 0.88865 354.362 0.894277 346.997C0.902408 336.348 0.905009 325.699 0.906265 315.05C0.908453 297.773 0.915107 280.495 0.924568 263.218C0.933748 246.435 0.940826 229.652 0.945076 212.87C0.945338 211.835 0.945601 210.801 0.945872 209.735C0.947177 204.544 0.94844 199.353 0.949684 194.163C0.960049 151.109 0.97766 108.054 1.00001 65Z" fill="#97BF0D"/>
<path d="M358 113C369.88 113 381.76 113 394 113C394 230.81 394 348.62 394 470C374.2 470 354.4 470 334 470C333.462 439.684 333.023 409.372 332.774 379.052C332.744 375.402 332.713 371.752 332.682 368.102C332.672 367.013 332.672 367.013 332.663 365.902C332.573 355.83 332.426 345.761 332.23 335.692C331.891 318.254 331.673 300.82 331.656 283.379C331.655 282.692 331.654 282.005 331.653 281.298C331.601 222.864 341.733 169.242 358 113Z" fill="#97BF0D"/>
<path d="M310 0C321.855 2.30986 333.709 4.62179 345.562 6.9375C346.512 7.12304 347.462 7.30858 348.441 7.49975C396.058 16.8039 443.654 26.2158 491.25 35.625C492.209 35.8145 493.167 36.004 494.155 36.1992C519.104 41.1312 544.052 46.0648 569 51C567.225 54.8012 564.81 57.5496 561.938 60.5625C558.368 64.3736 554.943 68.2248 551.688 72.3125C547.266 77.821 542.475 82.9372 537.608 88.05C537.026 88.6639 536.444 89.2777 535.844 89.9102C535.32 90.4581 534.796 91.006 534.256 91.5706C532.896 92.9963 532.896 92.9963 532 95C522.366 94.453 513.045 92.5786 503.612 90.677C501.876 90.3314 500.14 89.9863 498.404 89.6417C493.709 88.7085 489.016 87.7683 484.323 86.8268C479.375 85.8352 474.425 84.8501 469.475 83.8643C460.079 81.992 450.684 80.1138 441.29 78.2335C430.714 76.117 420.137 74.0071 409.56 71.8978C387.958 67.5895 366.358 63.2729 344.758 58.9518C339.41 57.8818 334.061 56.8122 328.713 55.7425C322.475 54.4951 316.238 53.2476 310 52C310 34.84 310 17.68 310 0Z" fill="#97BF0D"/>
<path d="M282 0C282 16.83 282 33.66 282 51C254.393 56.7514 254.393 56.7514 240.912 59.4099C239.364 59.7161 237.817 60.0224 236.269 60.3287C232.149 61.144 228.028 61.9578 223.908 62.7711C220.425 63.4587 216.943 64.1471 213.46 64.8355C205.218 66.4646 196.976 68.0925 188.733 69.7195C180.331 71.3781 171.929 73.0388 163.527 74.7006C156.224 76.1448 148.921 77.5877 141.618 79.0298C137.296 79.8832 132.974 80.7371 128.652 81.5922C127.832 81.7543 127.011 81.9165 126.167 82.0836C124.536 82.4061 122.905 82.7289 121.274 83.0518C117.351 83.8274 113.427 84.5968 109.501 85.3521C107.986 85.644 106.471 85.9361 104.957 86.2285C104.217 86.3713 103.477 86.5141 102.715 86.6612C98.1514 87.552 93.609 88.5146 89.0718 89.5315C86.1132 90.1905 83.1487 90.8194 80.1829 91.4446C78.7993 91.7447 77.4187 92.059 76.0419 92.3887C65.5599 94.8933 65.5599 94.8933 61.6523 92.6557C59.8345 90.8695 58.419 89.1108 57 87C56.2871 86.1544 55.5743 85.3087 54.8398 84.4375C54.2121 83.6331 53.5843 82.8288 52.9375 82C49.1101 77.2404 45.0607 72.7592 40.875 68.3125C40.2708 67.6696 39.6667 67.0267 39.0442 66.3643C37.8832 65.1295 36.722 63.8949 35.5605 62.6606C33.5658 60.538 31.5809 58.4086 29.625 56.25C28.84 55.3915 28.84 55.3915 28.0391 54.5156C27 53 27 53 27 50C45.4579 46.3312 63.9163 42.6648 82.375 39C83.0719 38.8616 83.7687 38.7233 84.4867 38.5807C142.662 27.0308 200.852 15.5625 259.051 4.13391C260.1 3.92787 261.149 3.72182 262.23 3.50954C264.166 3.12948 266.101 2.7495 268.036 2.36961C268.887 2.20248 269.738 2.03535 270.615 1.86316C271.774 1.63601 271.774 1.63601 272.957 1.40428C274.635 1.07219 276.311 0.727801 277.985 0.380005C280 0 280 0 282 0Z" fill="#97BF0D"/>
<path d="M4 730C13.9 730 23.8 730 34 730C34.9268 734.103 35.8537 738.206 36.8086 742.434C37.5479 745.697 38.288 748.96 39.0286 752.223C39.8111 755.672 40.5923 759.122 41.3704 762.572C42.2624 766.526 43.1603 770.48 44.0586 774.434C44.3378 775.675 44.617 776.917 44.9046 778.196C45.1648 779.337 45.425 780.478 45.6931 781.654C45.9218 782.664 46.1506 783.675 46.3862 784.716C46.7824 786.949 46.7824 786.949 48 788C52.29 768.86 56.58 749.72 61 730C67.6 730 74.2 730 81 730C78.5885 740.022 76.172 750.043 73.75 760.062C73.5702 760.806 73.3905 761.55 73.2053 762.316C66.6882 789.268 59.9637 816.16 53 843C49.37 843 45.74 843 42 843C39.8322 836.697 37.9661 830.386 36.3008 823.934C36.0876 823.117 35.8743 822.3 35.6547 821.459C34.8706 818.453 34.0919 815.445 33.3125 812.438C30.6828 802.321 30.6828 802.321 28 792C27.67 814.77 27.34 837.54 27 861C19.41 861 11.82 861 4 861C4 817.77 4 774.54 4 730Z" fill="#97BF0D"/>
<path d="M453 730C500.881 730 500.881 730 510.277 738.934C517.714 747.854 518.223 756.945 518.312 768.062C518.356 769.829 518.356 769.829 518.4 771.631C518.472 781.516 517.075 789.912 510.312 797.438C509.41 798.333 509.41 798.333 508.488 799.246C506.754 801.29 506.375 802.356 506 805C506.497 807.647 506.497 807.647 507.447 810.487C507.787 811.585 508.128 812.682 508.479 813.813C508.856 814.992 509.233 816.172 509.621 817.387C510.189 819.206 510.189 819.206 510.769 821.062C511.776 824.281 512.792 827.497 513.812 830.712C515.25 835.253 516.671 839.8 518.095 844.345C518.855 846.766 519.617 849.185 520.382 851.604C520.726 852.692 521.07 853.78 521.424 854.901C521.881 856.345 521.881 856.345 522.348 857.819C523 860 523 860 523 861C514.75 861 506.5 861 498 861C494.624 851.998 494.624 851.998 493.466 848.084C493.206 847.211 492.946 846.337 492.678 845.436C492.409 844.522 492.14 843.607 491.863 842.664C491.437 841.223 491.437 841.223 491.002 839.753C490.406 837.738 489.812 835.723 489.219 833.708C488.309 830.612 487.392 827.519 486.475 824.426C485.895 822.464 485.317 820.501 484.738 818.539C484.326 817.149 484.326 817.149 483.905 815.73C483.529 814.447 483.529 814.447 483.146 813.139C482.924 812.386 482.702 811.633 482.473 810.857C482 809 482 809 482 807C480.35 807 478.7 807 477 807C477 815.91 477 824.82 477 834C469.08 834 461.16 834 453 834C453 799.68 453 765.36 453 730ZM477 751C477 762.55 477 774.1 477 786C484.129 786.338 484.129 786.338 490 784C495.313 778.539 495.246 773.004 495.148 765.723C494.874 760.683 494.243 757.243 490.625 753.625C485.661 750.552 483.241 751 477 751Z" fill="#97BF0D"/>
<path d="M186 730C195.57 730 205.14 730 215 730C216.966 740.913 218.932 751.826 220.896 762.74C221.809 767.813 222.722 772.885 223.636 777.958C227.31 798.347 230.974 818.739 234.559 839.145C234.869 840.912 235.18 842.678 235.491 844.445C235.918 846.865 236.342 849.286 236.765 851.707C236.955 852.78 236.955 852.78 237.148 853.875C238 858.77 238 858.77 238 861C230.08 861 222.16 861 214 861C212.714 855.855 211.613 851.131 210.875 845.938C210.624 844.219 210.624 844.219 210.367 842.465C210 839 210 839 210 832C203.73 832 197.46 832 191 832C190.795 833.591 190.59 835.181 190.379 836.82C190.107 838.922 189.835 841.023 189.562 843.125C189.428 844.172 189.293 845.218 189.154 846.297C189.022 847.315 188.89 848.334 188.754 849.383C188.633 850.315 188.513 851.247 188.389 852.208C187.98 855.146 187.488 858.073 187 861C179.08 861 171.16 861 163 861C164.682 847.217 167.104 833.59 169.535 819.922C169.979 817.417 170.422 814.912 170.865 812.407C171.788 807.189 172.714 801.972 173.641 796.754C174.712 790.727 175.779 784.699 176.845 778.671C177.874 772.846 178.906 767.022 179.939 761.197C180.377 758.727 180.815 756.256 181.251 753.786C181.86 750.349 182.47 746.912 183.082 743.476C183.263 742.453 183.443 741.431 183.629 740.378C183.879 738.978 183.879 738.978 184.134 737.55C184.278 736.739 184.422 735.928 184.57 735.092C185 733 185 733 186 730ZM200 769C197.802 782.977 195.614 796.941 194 811C197.96 811 201.92 811 206 811C205.312 801.698 204.205 792.487 202.938 783.25C202.749 781.859 202.561 780.469 202.373 779.078C201.918 775.718 201.46 772.359 201 769C200.67 769 200.34 769 200 769Z" fill="#97BF0D"/>
<path d="M308 730C352.55 730 397.1 730 443 730C443 737.26 443 744.52 443 752C413.3 752 383.6 752 353 752C353 787.97 353 823.94 353 861C345.08 861 337.16 861 329 861C329 825.03 329 789.06 329 752C322.07 752 315.14 752 308 752C308 744.74 308 737.48 308 730Z" fill="#97BF0D"/>
<path d="M576.027 731.684C582.899 736.269 587.301 741.802 589 750C589.427 755.685 589.181 761.298 589 767C581.74 767 574.48 767 567 767C566.577 763.712 566.154 760.424 565.73 757.137C564.996 753.984 564.651 752.782 562 751C557.413 750.422 557.413 750.422 553.316 752.172C550.457 756.143 551.313 761.381 552 766C555.73 775.127 564.741 782.308 572.125 788.5C580.796 795.997 587.613 805.639 590 817C590.274 820.892 590.277 824.787 590.313 828.687C590.342 829.739 590.371 830.79 590.4 831.873C590.47 840.43 588.521 846.145 583.875 853.25C575.353 861.402 565.608 862.467 554.352 862.281C546.056 861.922 538.686 859.092 533 853C525.764 842.994 525.658 831.941 526 820C530.771 818.766 535.425 818.887 540.313 818.937C541.148 818.942 541.984 818.947 542.846 818.951C544.897 818.963 546.949 818.981 549 819C549.037 820.025 549.075 821.05 549.113 822.105C549.179 823.466 549.245 824.827 549.313 826.187C549.335 826.861 549.358 827.535 549.381 828.228C549.615 832.584 550.245 835.574 553 839C556.986 840.181 559.067 840.426 562.875 838.687C565.09 837.173 565.09 837.173 566 835C566.87 825.731 565.83 819.748 560.012 812.535C556.566 808.577 552.999 804.899 549 801.5C537.593 791.797 528.524 780.24 527 765C526.255 754.8 527.65 744.644 534.395 736.617C544.118 726.823 563.875 725.532 576.027 731.684Z" fill="#97BF0D"/>
<path d="M290 732C296.411 736.463 301.069 741.312 303 749C303.935 755.293 304.252 760.739 303 767C295.74 767 288.48 767 281 767C280.772 764.266 280.544 761.531 280.316 758.797C280.049 756.435 279.646 754.281 279 752C273.073 750.743 273.073 750.743 267.437 752.312C265.225 756.449 265.14 760.423 266 765C268.251 770.997 271.646 775.203 276.25 779.562C276.828 780.127 277.405 780.691 278.001 781.273C281.007 784.187 284.082 786.96 287.312 789.625C298.392 799.065 303.605 810.858 305 825C305.767 835.018 304.556 845.07 298 853C292.381 859.165 285.621 861.964 277.316 862.434C275.732 862.457 274.147 862.458 272.562 862.437C271.732 862.431 270.902 862.424 270.046 862.417C260.842 862.176 253.503 859.806 247 853C243.176 847.202 240.857 842.233 240.902 835.234C240.905 834.432 240.907 833.63 240.91 832.804C240.919 831.796 240.928 830.788 240.937 829.75C240.958 826.532 240.979 823.315 241 820C248.26 819.67 255.52 819.34 263 819C263.163 822.451 263.325 825.901 263.488 829.352C264.024 833.175 265.002 835.715 267 839C270.793 840.897 275.044 840.217 279 839C280.988 832.358 281.072 824.751 278.562 818.312C277.446 816.675 277.446 816.675 276 815C275.344 814.21 274.688 813.42 274.012 812.605C270.559 808.628 267.018 804.907 263 801.5C253.104 793.083 243.032 782.133 241.78 768.634C241.234 756.622 240.782 745.592 249.125 736.125C259.011 727.358 278.339 725.05 290 732Z" fill="#97BF0D"/>
<path d="M88.0001 730C91.6301 730 95.2601 730 99.0001 730C101.179 735.922 102.447 742.035 103.82 748.18C104.084 749.348 104.347 750.515 104.619 751.719C105.457 755.437 106.291 759.156 107.125 762.875C107.694 765.401 108.263 767.927 108.832 770.453C110.225 776.635 111.614 782.817 113 789C114.044 784.563 115.086 780.126 116.125 775.688C116.281 775.02 116.438 774.353 116.599 773.665C119.201 762.548 121.711 751.414 124.133 740.257C124.365 739.197 124.597 738.138 124.836 737.047C125.138 735.652 125.138 735.652 125.447 734.229C126 732 126 732 127 730C132.94 730 138.88 730 145 730C143.875 739 143.875 739 142.893 742.948C142.673 743.843 142.452 744.737 142.226 745.659C141.986 746.612 141.747 747.565 141.5 748.547C141.246 749.572 140.992 750.597 140.731 751.654C139.897 755.02 139.056 758.385 138.215 761.75C137.633 764.093 137.052 766.435 136.47 768.778C134.944 774.928 133.412 781.076 131.879 787.223C130.314 793.504 128.754 799.785 127.193 806.066C124.134 818.379 121.069 830.69 118 843C114.37 843 110.74 843 107 843C102.71 826.5 98.4201 810 94.0001 793C93.6701 815.44 93.3401 837.88 93.0001 861C85.7401 861 78.4801 861 71.0001 861C70.512 851.691 70.179 842.383 70.0001 833.062C69.9865 832.358 69.973 831.653 69.959 830.927C69.5483 806.548 72.7195 784.174 78.9376 760.625C79.2215 759.547 79.2215 759.547 79.5112 758.448C85.9669 734.066 85.9669 734.066 88.0001 730Z" fill="#97BF0D"/>
<path d="M403 411C429.73 411 456.46 411 484 411C484 430.47 484 449.94 484 470C457.27 470 430.54 470 403 470C403 450.53 403 431.06 403 411Z" fill="#97BF0D"/>
<path d="M382 757C389.92 757 397.84 757 406 757C406 765.91 406 774.82 406 784C415.57 784 425.14 784 435 784C435 790.93 435 797.86 435 805C425.43 805 415.86 805 406 805C406 816.22 406 827.44 406 839C429.43 839 452.86 839 477 839C477 846.26 477 853.52 477 861C445.65 861 414.3 861 382 861C382 826.68 382 792.36 382 757Z" fill="#97BF0D"/>
<path d="M152 730C153.98 730 155.96 730 158 730C158 773.23 158 816.46 158 861C150.41 861 142.82 861 135 861C134.511 851.857 134.179 842.716 134 833.562C133.986 832.869 133.973 832.176 133.959 831.462C133.545 807.284 136.767 785.102 142.937 761.75C143.127 761.033 143.316 760.316 143.511 759.577C148.85 739.45 148.85 739.45 152 730Z" fill="#97BF0D"/>
<path d="M315.5 888.625C316.604 888.617 317.707 888.61 318.844 888.602C323.539 889.194 326.083 891.007 329.25 894.438C332.334 898.953 332.104 902.578 332 908C328.37 908.66 324.74 909.32 321 910C320.772 907.689 320.544 905.378 320.316 903.066C320.211 901.013 320.211 901.013 319 900C317 899.959 315 899.957 313 900C311.291 903.419 311.837 907.332 311.832 911.094C311.829 911.996 311.825 912.899 311.822 913.828C311.817 915.738 311.815 917.648 311.815 919.558C311.813 922.488 311.794 925.418 311.775 928.348C311.773 930.201 311.771 932.053 311.77 933.906C311.762 934.786 311.755 935.667 311.748 936.574C311.534 941.269 311.534 941.269 314 945C317.307 944.71 317.307 944.71 320 943C320.237 940.474 320.422 937.969 320.563 935.438C320.606 934.727 320.649 934.016 320.693 933.283C320.8 931.522 320.9 929.761 321 928C319.35 928 317.7 928 316 928C316 924.7 316 921.4 316 918C321.28 918 326.56 918 332 918C332.081 922.188 332.141 926.374 332.188 930.562C332.213 931.744 332.238 932.925 332.264 934.143C332.317 940.533 332.265 945.425 329 951C324.083 955.671 320.055 956.301 313.504 956.215C308.68 955.801 305.917 953.991 302.688 950.5C300.425 947.148 299.874 944.606 299.823 940.656C299.81 939.781 299.797 938.906 299.784 938.004C299.777 937.061 299.769 936.117 299.762 935.145C299.754 934.169 299.746 933.193 299.737 932.188C299.724 930.121 299.713 928.054 299.705 925.987C299.688 922.842 299.644 919.698 299.6 916.553C299.59 914.542 299.581 912.531 299.574 910.52C299.557 909.586 299.539 908.652 299.521 907.69C299.541 901.647 300.519 897.029 304 892C307.697 888.882 310.74 888.592 315.5 888.625Z" fill="#97BF0D"/>
<path d="M349 890C352.3 890 355.6 890 359 890C359.33 907.49 359.66 924.98 360 943C361.65 943.66 363.3 944.32 365 945C365.99 944.34 366.98 943.68 368 943C368.477 940.663 368.477 940.663 368.432 937.908C368.452 936.847 368.472 935.786 368.492 934.693C368.499 933.544 368.505 932.395 368.512 931.211C368.53 930.037 368.548 928.864 368.566 927.655C368.62 923.895 368.654 920.135 368.687 916.375C368.721 913.831 368.755 911.286 368.791 908.742C368.876 902.495 368.943 896.248 369 890C372.63 890 376.26 890 380 890C380.074 897.562 380.129 905.124 380.165 912.687C380.18 915.258 380.2 917.829 380.226 920.401C380.263 924.102 380.28 927.803 380.293 931.504C380.308 932.649 380.324 933.794 380.34 934.974C380.341 941.099 380.064 945.635 377 951C372.084 955.67 368.054 956.306 361.504 956.211C356.755 955.811 354.056 954.136 350.86 950.699C347.676 945.705 348.513 939.642 348.609 933.945C348.615 932.689 348.621 931.432 348.626 930.137C348.645 926.813 348.681 923.489 348.725 920.165C348.766 916.766 348.785 913.368 348.805 909.969C348.849 903.312 348.916 896.656 349 890Z" fill="#97BF0D"/>
<path d="M264.941 889.902C266.734 889.92 266.734 889.92 268.562 889.938C270.359 889.951 270.359 889.951 272.191 889.965C273.118 889.976 274.045 889.988 275 890C276.942 896.196 278.062 902.455 279.164 908.848C279.459 910.543 279.459 910.543 279.761 912.272C280.175 914.653 280.586 917.034 280.996 919.415C281.624 923.055 282.261 926.692 282.898 930.33C283.3 932.648 283.701 934.967 284.102 937.285C284.292 938.37 284.483 939.454 284.679 940.572C285.508 945.429 286.259 950.05 286 955C282.37 955 278.74 955 275 955C274.34 950.05 273.68 945.1 273 940C268.545 940.495 268.545 940.495 264 941C263.867 941.927 263.734 942.854 263.598 943.809C263.333 945.605 263.333 945.605 263.062 947.438C262.888 948.632 262.714 949.827 262.535 951.059C262 954 262 954 261 955C257.667 955.142 254.335 955.042 251 955C251.558 946.729 252.596 938.651 254.031 930.488C254.325 928.786 254.325 928.786 254.625 927.049C255.036 924.677 255.45 922.305 255.866 919.933C256.505 916.285 257.134 912.636 257.762 908.986C258.163 906.674 258.566 904.363 258.969 902.051C259.157 900.956 259.346 899.862 259.54 898.734C259.717 897.731 259.894 896.729 260.076 895.697C260.231 894.811 260.385 893.926 260.545 893.014C261.267 889.821 261.537 890.015 264.941 889.902ZM268 906C267.495 909.416 266.997 912.833 266.5 916.25C266.357 917.218 266.214 918.186 266.066 919.184C265.931 920.118 265.796 921.053 265.656 922.016C265.531 922.874 265.405 923.733 265.275 924.618C264.923 927.263 264.923 927.263 265 931C267.31 931 269.62 931 272 931C271.01 922.75 270.02 914.5 269 906C268.67 906 268.34 906 268 906Z" fill="#97BF0D"/>
<path d="M209 890C218.57 890 228.14 890 238 890C238 893.3 238 896.6 238 900C232.06 900 226.12 900 220 900C220 905.61 220 911.22 220 917C224.62 917 229.24 917 234 917C234 920.3 234 923.6 234 927C229.38 927 224.76 927 220 927C220 932.94 220 938.88 220 945C225.94 945 231.88 945 238 945C238 948.3 238 951.6 238 955C228.43 955 218.86 955 209 955C209 933.55 209 912.1 209 890Z" fill="#97BF0D"/>
<path d="M398 890C407.24 890 416.48 890 426 890C426 893.3 426 896.6 426 900C420.39 900 414.78 900 409 900C409 905.61 409 911.22 409 917C413.62 917 418.24 917 423 917C423 920.3 423 923.6 423 927C418.38 927 413.76 927 409 927C409 932.94 409 938.88 409 945C414.61 945 420.22 945 426 945C426 948.3 426 951.6 426 955C416.76 955 407.52 955 398 955C398 933.55 398 912.1 398 890Z" fill="#97BF0D"/>
<path d="M168 890C171.3 890 174.6 890 178 890C178 908.15 178 926.3 178 945C183.61 945 189.22 945 195 945C195 948.3 195 951.6 195 955C186.09 955 177.18 955 168 955C168 933.55 168 912.1 168 890Z" fill="#97BF0D"/>
<path d="M612.25 698.625C616.087 700.796 618.115 702.928 620 707C621.565 713.096 621.447 717.826 618.246 723.309C615.689 726.78 613.051 728.65 609 730C603.031 730.534 598.064 730.533 593 727C589.027 723.048 586.885 719.462 586.625 713.813C586.711 708.505 588.391 704.871 592 701C598.321 696.216 605.043 695.449 612.25 698.625ZM594.188 705.688C592.471 709.03 591.878 712.28 592 716C593.486 720.145 595.063 722.922 599 725C603.115 726.165 605.93 726.382 609.75 724.5C613.488 722.058 614.81 719.313 616 715C615.825 710.615 614.77 707.417 612 704C604.984 700.367 600.226 700.066 594.188 705.688Z" fill="#97BF0D"/>
<path d="M597 705C607.625 704.75 607.625 704.75 611 707C611.258 708.953 611.258 708.953 611.125 711.25C610.993 714.977 611.247 718.328 612 722C610.35 722 608.7 722 607 722C606.732 721.196 606.464 720.391 606.188 719.562C605.796 718.717 605.404 717.871 605 717C604.01 716.67 603.02 716.34 602 716C602 717.98 602 719.96 602 722C600.35 722 598.7 722 597 722C597 716.39 597 710.78 597 705ZM602 709C602 709.99 602 710.98 602 712C603.32 712 604.64 712 606 712C606 711.01 606 710.02 606 709C604.68 709 603.36 709 602 709Z" fill="#97BF0D"/>
</svg>
