<?xml version="1.0" encoding="UTF-8"?>
<svg version="1.1" xmlns="http://www.w3.org/2000/svg" width="827" height="1182">
<path d="M0 0 C25.74 0 51.48 0 78 0 C85.51175151 32.10329558 92.82082361 64.24748568 100.0425415 96.41705322 C102.26166953 106.30152033 104.48293372 116.18550694 106.70532608 126.06924057 C107.46823058 129.46371826 108.23001626 132.85844553 108.9916687 136.25320435 C109.46429486 138.3564747 109.9369593 140.45973646 110.40966797 142.56298828 C110.71518333 143.92687431 110.71518333 143.92687431 111.02687073 145.3183136 C112.95634321 153.89454552 114.98623108 162.44148208 117 171 C129.54 114.57 142.08 58.14 155 0 C188 1 188 1 204 2 C197.34719885 31.23378649 190.36382253 60.38289051 183.29705811 89.519104 C180.41693804 101.39385467 177.54360871 113.27024939 174.67008972 125.14659882 C174.01733353 127.84446001 173.3644872 130.54229937 172.71156311 133.24011993 C166.31824577 159.65738472 159.96017267 186.0830571 153.62126541 212.51343155 C152.8913225 215.55694301 152.16123773 218.60042041 151.43112183 221.64389038 C144.60682156 250.09259574 137.80137441 278.54580611 131 307 C121.43 307 111.86 307 102 307 C98.62504807 296.87514422 98.62504807 296.87514422 97.65026855 293.06227112 C97.42644501 292.19345306 97.20262146 291.32463501 96.97201538 290.42948914 C96.62138535 289.04815544 96.62138535 289.04815544 96.26367188 287.63891602 C96.00780304 286.64192688 95.7519342 285.64493774 95.48831177 284.61773682 C94.6454481 281.33055591 93.8071328 278.04223256 92.96875 274.75390625 C92.37193835 272.42349804 91.77480473 270.09317227 91.17736816 267.76292419 C89.60060795 261.60995303 88.02753349 255.45604594 86.45544434 249.30187988 C83.96998348 239.57438244 81.47915563 229.84825869 78.9879303 220.12223625 C78.13684377 216.7972624 77.28744253 213.47186223 76.43835449 210.14637756 C71.0470567 189.07348038 65.511339 168.04329435 60 147 C59.67 215.97 59.34 284.94 59 356 C39.53 356 20.06 356 0 356 C0 238.52 0 121.04 0 0 Z " fill="#97BF0D" transform="translate(260,223)"/>
<path d="M0 0 C0.33 0 0.66 0 1 0 C1.09170677 43.08390506 1.16211534 86.16779879 1.20426132 129.25178225 C1.20926369 134.34697283 1.21444103 139.44216322 1.21972656 144.53735352 C1.2207758 145.55164463 1.22182505 146.56593575 1.22290608 147.61096296 C1.24027547 163.99915046 1.27179391 180.38728139 1.30861118 196.77543541 C1.34611734 213.61158804 1.36825623 230.44771121 1.37635398 247.2839039 C1.38182176 257.6591055 1.39904343 268.03414719 1.43166587 278.40929953 C1.45293342 285.53967378 1.45917259 292.66996627 1.45400551 299.80036988 C1.45146261 303.90424587 1.45514942 308.00784394 1.4768219 312.11166954 C1.71161361 358.94007795 -11.82515244 397.76663392 -42 434 C-42.47356934 434.57508301 -42.94713867 435.15016602 -43.43505859 435.74267578 C-48.19978488 441.52349237 -52.99737686 447.20182005 -58.40234375 452.40234375 C-60.14771294 454.14771294 -61.72128426 455.98843099 -63.3125 457.875 C-66.69115123 461.78672731 -70.39912409 465.17958423 -74.27734375 468.58984375 C-76.64519506 470.68591872 -78.96135846 472.8266605 -81.26733398 474.99023438 C-87.58166353 480.88762894 -94.21774767 486.2460214 -101.06787109 491.50488281 C-103.08655462 493.06697757 -105.08549089 494.65190624 -107.08203125 496.2421875 C-155.8321063 534.91942875 -211.6909121 564.51794574 -267.5 591.625 C-268.62728516 592.17559082 -269.75457031 592.72618164 -270.91601562 593.29345703 C-271.94404297 593.78700684 -272.97207031 594.28055664 -274.03125 594.7890625 C-275.37026367 595.43415771 -275.37026367 595.43415771 -276.73632812 596.09228516 C-279 597 -279 597 -282 597 C-282 578.52 -282 560.04 -282 541 C-262.46491041 530.14717245 -262.46491041 530.14717245 -254.39477539 525.85595703 C-241.77378482 519.14394507 -229.37973651 512.10590338 -217.08349609 504.81835938 C-213.91564554 502.95025558 -210.73466996 501.1062436 -207.55078125 499.265625 C-183.44556805 485.26206647 -160.13441584 469.96413613 -138 453 C-137.01942627 452.25266602 -137.01942627 452.25266602 -136.01904297 451.49023438 C-129.27325351 446.33399946 -122.71858353 441.0309826 -116.4765625 435.265625 C-114.43220824 433.39539555 -112.35896958 431.57932455 -110.26171875 429.76953125 C-97.96380994 419.02893692 -86.48184394 407.31228269 -77 394 C-76.57283691 393.40654785 -76.14567383 392.8130957 -75.70556641 392.20166016 C-56.48844495 365.25474683 -50.50456762 338.73275366 -50.71044922 306.00634766 C-50.71617561 303.30102701 -50.72064534 300.59573372 -50.72337341 297.89041138 C-50.73122188 292.09352439 -50.74897456 286.29673943 -50.77270126 280.499897 C-50.809351 271.33010855 -50.81455698 262.16042145 -50.81497192 252.99057007 C-50.81549501 249.84439274 -50.81621858 246.69821547 -50.81700325 243.55203819 C-50.81719114 242.76614398 -50.81737903 241.98024977 -50.81757262 241.17054058 C-50.82012412 232.25447543 -50.82904111 223.33842068 -50.84082031 214.42236328 C-50.841887 213.60862473 -50.84295368 212.79488618 -50.84405269 211.95648889 C-50.8621601 198.74660882 -50.90329859 185.53687189 -50.95016323 172.32706721 C-50.99755401 158.73240584 -51.01040401 145.13798884 -50.9938184 131.54325521 C-50.98488986 123.1734918 -51.00414404 114.80475278 -51.06009229 106.43516712 C-51.09603751 100.70325758 -51.0991899 94.97191644 -51.07680301 89.23994024 C-51.06493161 85.93666905 -51.07249731 82.63546727 -51.10984993 79.33233643 C-51.34820029 57.02146319 -51.34820029 57.02146319 -45.69509888 50.68563843 C-44.15088273 49.43102683 -42.58608596 48.20124315 -41 47 C-39.56298843 45.30489947 -38.16258354 43.57761826 -36.8125 41.8125 C-32.50787574 36.48260622 -27.86803342 31.53283662 -23.16455078 26.55908203 C-18.9311275 22.05942015 -14.96687137 17.41087961 -11.10546875 12.5859375 C-7.5744957 8.24919509 -3.89834124 4.01146275 0 0 Z " fill="#97BF0D" transform="translate(706,184)"/>
<path d="M0 0 C5.50277119 5.49190251 5.50277119 5.49190251 7.8671875 8.05078125 C8.35638672 8.57986084 8.84558594 9.10894043 9.34960938 9.65405273 C9.85298828 10.20134033 10.35636719 10.74862793 10.875 11.3125 C11.40673828 11.89008057 11.93847656 12.46766113 12.48632812 13.06274414 C17.33495274 18.34280162 22.05767402 23.71626119 26.703125 29.17578125 C27.71846575 30.36742975 28.73409971 31.55882848 29.75 32.75 C30.51340698 33.64561646 30.51340698 33.64561646 31.29223633 34.55932617 C35.70952921 39.71572347 40.28250904 44.7114689 44.91796875 49.671875 C47.80464432 52.89975237 48.125091 54.45561478 48.12749195 58.68079472 C48.1304996 59.67402746 48.13350725 60.66726021 48.13660604 61.69059092 C48.13485567 62.78987136 48.13310529 63.8891518 48.13130188 65.02174377 C48.13341759 66.18343753 48.13553331 67.34513129 48.13771313 68.54202789 C48.14268489 71.77695064 48.14320791 75.01184026 48.14197242 78.24676549 C48.14175761 81.73243682 48.14733047 85.21809887 48.15237427 88.70376587 C48.16049743 94.75020401 48.16543487 100.79663793 48.16866493 106.84308052 C48.17416208 116.41273396 48.1910628 125.98235174 48.21000671 135.55198669 C48.21636424 138.82714552 48.22267266 142.10230443 48.22898388 145.37746334 C48.23056764 146.19612111 48.2321514 147.01477888 48.23378316 147.85824447 C48.2517317 157.18438371 48.26794927 166.5105255 48.28295898 175.83666992 C48.28433486 176.68938608 48.28571073 177.54210224 48.28712829 178.42065828 C48.30900665 192.20537901 48.31980121 205.99009057 48.32732973 219.77482558 C48.33542208 233.9397174 48.35878557 248.104531 48.3952834 262.26937813 C48.41723035 270.99713663 48.42699705 279.7247339 48.42078307 288.45251857 C48.4175901 294.44848311 48.42905874 300.44431086 48.45167748 306.44023306 C48.46425225 309.89148005 48.4706299 313.34242202 48.45926094 316.79368019 C48.37884559 350.53616407 57.40251532 375.82854147 80 401 C81.09054688 402.25490234 81.09054688 402.25490234 82.203125 403.53515625 C91.08770467 413.65370532 100.66571962 423.35923298 111 432 C112.42505859 433.22396484 112.42505859 433.22396484 113.87890625 434.47265625 C121.11968404 440.68189554 128.52638026 446.64526032 136.06201172 452.49169922 C138.13202906 454.1027558 140.1933542 455.72451395 142.25390625 457.34765625 C152.64338069 465.51179141 163.23153266 473.344386 174 481 C175.42582822 482.01946556 176.85161005 483.038996 178.27734375 484.05859375 C205.80366213 503.68074936 234.43832808 521.53117195 264.11743164 537.71728516 C265.39524076 538.41687128 266.66575614 539.13007533 267.92588806 539.86102295 C269.96746014 541.03190882 269.96746014 541.03190882 272.10095215 541.86685181 C274.52309326 543.00956516 276.159638 544.04024932 278 546 C279.13453943 550.17119832 278.93190654 554.22407456 278.78125 558.51953125 C278.76427063 560.34009285 278.76427063 560.34009285 278.74694824 562.19743347 C278.70219489 566.07073367 278.60181731 569.94032046 278.5 573.8125 C278.45987243 576.43939964 278.42337043 579.06635734 278.390625 581.69335938 C278.30246193 588.13017138 278.16862861 594.56482046 278 601 C272.0897293 599.28914846 266.76611389 596.53596904 261.28515625 593.79296875 C260.23839218 593.27172928 259.19162811 592.75048981 258.11314392 592.2134552 C255.8905717 591.10503914 253.66904332 589.99452787 251.44848633 588.88208008 C248.13658333 587.22457639 244.81956773 585.57767547 241.50195312 583.93164062 C228.81704836 577.60752477 216.37101143 570.97421409 204.08544922 563.9050293 C199.87573498 561.48364454 195.62615195 559.14769782 191.34658813 556.8522644 C156.20335045 537.96943584 122.54226206 514.67635403 92 489 C90.98035156 488.16597656 89.96070313 487.33195312 88.91015625 486.47265625 C80.019554 479.0826317 71.81065891 471.02581835 63.625 462.875 C62.7882222 462.04598679 62.7882222 462.04598679 61.93453979 461.20022583 C54.81975897 454.13752193 48.185956 446.90846814 42 439 C41.46375 438.32839844 40.9275 437.65679688 40.375 436.96484375 C21.06993642 412.63942852 6.36788525 384.77844998 1 354 C0.82628152 353.06985297 0.65256304 352.13970594 0.47358036 351.18137264 C-0.36839306 345.15802071 -0.13393748 339.05292638 -0.12025452 332.98475647 C-0.12069087 331.54740916 -0.12156696 330.11006193 -0.12284368 328.67271513 C-0.12507601 324.73217424 -0.12108463 320.79166062 -0.11606562 316.85112321 C-0.11174319 312.59830946 -0.11320882 308.34549722 -0.1139679 304.09268188 C-0.11449199 296.72741902 -0.11135711 289.36216501 -0.10573006 281.99690437 C-0.09759961 271.34800167 -0.09499825 260.69910325 -0.09374207 250.05019777 C-0.09155398 232.77263918 -0.08490047 215.49508532 -0.07543945 198.2175293 C-0.06625905 181.43497745 -0.05918129 164.65242689 -0.05493164 147.86987305 C-0.05466892 146.83522465 -0.05440619 145.80057624 -0.05413551 144.73457486 C-0.05283046 139.54399659 -0.05156676 134.3534183 -0.05032361 129.16284001 C-0.03995857 86.10855673 -0.02234685 43.05427861 0 0 Z " fill="#97BF0D" transform="translate(118,178)"/>
<path d="M0 0 C11.88 0 23.76 0 36 0 C36 117.81 36 235.62 36 357 C16.2 357 -3.6 357 -24 357 C-24.53787255 326.68364146 -24.97741215 296.37159622 -25.22556791 266.05192748 C-25.25555415 262.40187894 -25.28662083 258.75184035 -25.31835938 255.10180664 C-25.32780255 254.01266815 -25.32780255 254.01266815 -25.3374365 252.90152686 C-25.42697362 242.83029706 -25.57378221 232.76142994 -25.76962388 222.69172709 C-26.1086889 205.25444945 -26.32676059 187.81966734 -26.34375 170.37890625 C-26.34467573 169.69206853 -26.34560145 169.00523081 -26.34655523 168.29757982 C-26.39922037 109.86360751 -16.26676937 56.24247128 0 0 Z " fill="#fff" transform="translate(475,226)"/>
<path d="M0 0 C11.85468568 2.30986065 23.70895771 4.62178551 35.5625 6.9375 C36.51225204 7.12304192 37.46200409 7.30858383 38.4405365 7.49974823 C86.05766577 16.80391871 133.65353561 26.21581592 181.25 35.625 C182.20858115 35.81449644 183.16716229 36.00399287 184.15479136 36.19923162 C209.10350811 41.13123418 234.05191281 46.06481385 259 51 C257.22500645 54.80124652 254.80965009 57.54955345 251.9375 60.5625 C248.36822999 64.37363617 244.94298165 68.22478996 241.6875 72.3125 C237.26622284 77.82097647 232.47480135 82.93721186 227.6081543 88.05004883 C227.02590088 88.66388428 226.44364746 89.27771973 225.84375 89.91015625 C225.31974609 90.45808838 224.79574219 91.00602051 224.25585938 91.57055664 C222.89584824 92.99632699 222.89584824 92.99632699 222 95 C212.36645924 94.45296306 203.04526884 92.57862641 193.61206055 90.67700195 C191.87598265 90.33142338 190.13980417 89.98634979 188.40353394 89.64173889 C183.70913954 88.70852768 179.01617789 87.76828827 174.32344794 86.82674813 C169.37488521 85.83514656 164.42501942 84.85009197 159.47529602 83.86430359 C150.07920797 81.99195087 140.6842967 80.11376106 131.28979665 78.2334587 C120.71413089 76.11703875 110.13717343 74.00711147 99.56009614 71.89775908 C77.95796902 67.58951799 56.35752486 63.27288962 34.75796127 58.95181656 C29.40953682 57.88184935 24.06105266 56.81218077 18.71256101 55.74254954 C12.47502345 54.49511913 6.23751327 53.24755191 0 52 C0 34.84 0 17.68 0 0 Z " fill="#97BF0D" transform="translate(427,113)"/>
<path d="M0 0 C0 16.83 0 33.66 0 51 C-27.60692888 56.75144352 -27.60692888 56.75144352 -41.08789062 59.40991211 C-42.63556872 59.71608133 -44.18322628 60.02235432 -45.73086548 60.32872009 C-49.85106855 61.14400493 -53.97157181 61.95776205 -58.09215736 62.77111125 C-61.57487886 63.45870997 -65.05744386 64.14709951 -68.54001188 64.83547503 C-76.78198755 66.46459704 -85.02421059 68.09246299 -93.26660156 69.71948242 C-101.66920736 71.3781481 -110.07141163 73.03883601 -118.47341394 74.70055574 C-125.77602249 76.14477059 -133.07887628 77.58774068 -140.38191748 79.02976614 C-144.70423162 79.88323878 -149.02646567 80.73711071 -153.34846497 81.59217644 C-154.16849109 81.75434318 -154.98851722 81.91650992 -155.83339262 82.08359081 C-157.46435679 82.40614814 -159.09528674 82.72887853 -160.72618151 83.0517866 C-164.64892811 83.82742525 -168.57270843 84.59677762 -172.4994278 85.35206509 C-174.01406682 85.6439769 -175.52866225 85.93611507 -177.04321289 86.22848511 C-177.78295837 86.37128082 -178.52270385 86.51407653 -179.28486586 86.66119939 C-183.84858377 87.551965 -188.39100605 88.51458294 -192.92822886 89.53152961 C-195.8867675 90.19045355 -198.85125838 90.81944857 -201.81708431 91.44464409 C-203.20068516 91.74467159 -204.58127706 92.05899042 -205.95811558 92.38866222 C-216.44005937 94.89326438 -216.44005937 94.89326438 -220.34765625 92.65566826 C-222.16548493 90.8694923 -223.5810385 89.11080754 -225 87 C-225.71285156 86.154375 -226.42570312 85.30875 -227.16015625 84.4375 C-227.78792969 83.633125 -228.41570312 82.82875 -229.0625 82 C-232.88987034 77.24040567 -236.93927638 72.75917621 -241.125 68.3125 C-241.72916748 67.66958008 -242.33333496 67.02666016 -242.95581055 66.36425781 C-244.11678637 65.12949588 -245.27799023 63.89494831 -246.43945312 62.66064453 C-248.43418787 60.53796215 -250.41913287 58.40860946 -252.375 56.25 C-253.16003906 55.39148438 -253.16003906 55.39148438 -253.9609375 54.515625 C-255 53 -255 53 -255 50 C-236.54209467 46.33117813 -218.08371293 42.66475627 -199.625 39 C-198.92813788 38.86164356 -198.23127576 38.72328712 -197.5132966 38.58073807 C-139.33845631 27.03078342 -81.14772822 15.56248335 -22.94892883 4.13391113 C-21.89978491 3.92786758 -20.85064098 3.72182404 -19.76970482 3.50953674 C-17.83444413 3.12948426 -15.89916918 2.74950435 -13.96387672 2.36961365 C-13.11284559 2.20248367 -12.26181446 2.0353537 -11.38499451 1.86315918 C-10.22555486 1.63601479 -10.22555486 1.63601479 -9.04269218 1.40428162 C-7.36476699 1.07219325 -5.68928148 0.7278009 -4.01454163 0.38000488 C-2 0 -2 0 0 0 Z " fill="#97BF0D" transform="translate(399,113)"/>
<path d="M0 0 C9.9 0 19.8 0 30 0 C30.92683594 4.10308594 31.85367188 8.20617187 32.80859375 12.43359375 C33.54792397 15.6970263 34.28799007 18.96029001 35.02855682 22.22344208 C35.8110732 25.67237633 36.59227819 29.12159584 37.37036133 32.5715332 C38.26240318 36.52647518 39.16032774 40.48006075 40.05859375 44.43359375 C40.3377916 45.67523788 40.61698944 46.91688202 40.90464783 48.19615173 C41.16484207 49.33725906 41.42503632 50.47836639 41.69311523 51.65405273 C41.92183823 52.664431 42.15056122 53.67480927 42.38621521 54.71580505 C42.78242152 56.94888341 42.78242152 56.94888341 44 58 C48.29 38.86 52.58 19.72 57 0 C63.6 0 70.2 0 77 0 C74.58854434 10.02209448 72.17203957 20.04295825 69.75 30.0625 C69.57023621 30.8061657 69.39047241 31.54983139 69.20526123 32.31603241 C62.68815029 59.26758742 55.96373263 86.15994524 49 113 C45.37 113 41.74 113 38 113 C35.8321722 106.69688065 33.96607412 100.38611295 32.30078125 93.93359375 C32.08756226 93.11701294 31.87434326 92.30043213 31.65466309 91.45910645 C30.87061418 88.45277024 30.09185426 85.44505665 29.3125 82.4375 C26.6828125 72.3209375 26.6828125 72.3209375 24 62 C23.67 84.77 23.34 107.54 23 131 C15.41 131 7.82 131 0 131 C0 87.77 0 44.54 0 0 Z " fill="#97BF0D" transform="translate(121,843)"/>
<path d="M0 0 C47.88066955 0 47.88066955 0 57.27734375 8.93359375 C64.71382205 17.85399516 65.22327756 26.94538403 65.3125 38.0625 C65.35600586 39.82883789 65.35600586 39.82883789 65.40039062 41.63085938 C65.47150509 51.51576972 64.07454244 59.91151824 57.3125 67.4375 C56.40951172 68.33275391 56.40951172 68.33275391 55.48828125 69.24609375 C53.7540249 71.28987616 53.37474551 72.35604352 53 75 C53.49669703 77.64723411 53.49669703 77.64723411 54.44702148 80.48706055 C54.7874498 81.58467209 55.12787811 82.68228363 55.47862244 83.81315613 C55.85563797 84.99243179 56.2326535 86.17170746 56.62109375 87.38671875 C57.18921532 89.20584526 57.18921532 89.20584526 57.76881409 91.0617218 C58.77594999 94.28094752 59.79167396 97.49719413 60.81188965 100.71228027 C62.2501866 105.25336963 63.67108179 109.7999484 65.09547424 114.34541321 C65.85504789 116.76569991 66.61731304 119.18514377 67.38243103 121.60368347 C67.72601151 122.69183853 68.06959198 123.77999359 68.42358398 124.90112305 C68.88111305 126.34529854 68.88111305 126.34529854 69.34788513 127.81864929 C70 130 70 130 70 131 C61.75 131 53.5 131 45 131 C41.62420422 121.99787793 41.62420422 121.99787793 40.46606445 118.08447266 C40.20602127 117.2106192 39.94597809 116.33676575 39.67805481 115.43643188 C39.40917953 114.52154999 39.14030426 113.60666809 38.86328125 112.6640625 C38.43682564 111.22321793 38.43682564 111.22321793 38.00175476 109.75326538 C37.40623273 107.73843925 36.81216317 105.72318329 36.21948242 103.70751953 C35.30877351 100.61233495 34.39199596 97.51899238 33.47460938 94.42578125 C32.89547161 92.46364839 32.31668302 90.50141244 31.73828125 88.5390625 C31.3258593 87.14852158 31.3258593 87.14852158 30.90510559 85.72988892 C30.52922554 84.44747818 30.52922554 84.44747818 30.14575195 83.13916016 C29.92385696 82.38607574 29.70196198 81.63299133 29.4733429 80.85708618 C29 79 29 79 29 77 C27.35 77 25.7 77 24 77 C24 85.91 24 94.82 24 104 C16.08 104 8.16 104 0 104 C0 69.68 0 35.36 0 0 Z M24 21 C24 32.55 24 44.1 24 56 C31.12864277 56.33836826 31.12864277 56.33836826 37 54 C42.31322413 48.53918631 42.24643025 43.00351769 42.1484375 35.72265625 C41.87367875 30.68300227 41.2433251 27.2433251 37.625 23.625 C32.6608989 20.55198503 30.24078632 21 24 21 Z " fill="#fff" transform="translate(570,843)"/>
<path d="M0 0 C9.57 0 19.14 0 29 0 C30.96630287 10.91314004 32.93171573 21.82643946 34.89573765 32.73999023 C35.80864493 37.81259183 36.72188001 42.88513386 37.63598633 47.95751953 C41.31022544 68.34741342 44.97442436 88.73902467 48.55869865 109.1449585 C48.86908634 110.91169425 49.17999877 112.67833791 49.49145699 114.44488525 C49.91788062 116.86529213 50.34202099 119.28608687 50.76538086 121.70703125 C50.95483811 122.77995674 50.95483811 122.77995674 51.14812279 123.8745575 C52 128.77035761 52 128.77035761 52 131 C44.08 131 36.16 131 28 131 C26.71369631 125.85478526 25.612703 121.13069492 24.875 115.9375 C24.62363281 114.21853516 24.62363281 114.21853516 24.3671875 112.46484375 C24 109 24 109 24 102 C17.73 102 11.46 102 5 102 C4.79503906 103.59070313 4.59007812 105.18140625 4.37890625 106.8203125 C4.106828 108.9218824 3.83468942 111.02344449 3.5625 113.125 C3.42779297 114.17171875 3.29308594 115.2184375 3.15429688 116.296875 C3.02216797 117.31523438 2.89003906 118.33359375 2.75390625 119.3828125 C2.63345947 120.31496582 2.5130127 121.24711914 2.38891602 122.20751953 C1.97962119 125.14632315 1.4877995 128.07320301 1 131 C-6.92 131 -14.84 131 -23 131 C-21.31758987 117.2174211 -18.89563727 103.58967487 -16.46484375 89.921875 C-16.02148103 87.41705003 -15.57833382 84.9121869 -15.13539124 82.4072876 C-14.21197952 77.18929874 -13.28645693 71.97168895 -12.35913086 66.75439453 C-11.2878957 60.72728005 -10.22058216 54.69948097 -9.15533537 48.67130542 C-8.12589533 42.84620006 -7.09386695 37.02155569 -6.06064034 31.19712067 C-5.62263624 28.7268089 -5.18525962 26.2563858 -4.74851799 23.78585052 C-4.14048674 20.34869461 -3.52952243 16.91207313 -2.91772461 13.47558594 C-2.7374472 12.45330399 -2.5571698 11.43102203 -2.37142944 10.37776184 C-2.12127831 8.97789284 -2.12127831 8.97789284 -1.86607361 7.54974365 C-1.72210616 6.73869045 -1.57813871 5.92763725 -1.42980862 5.09200668 C-1 3 -1 3 0 0 Z M14 39 C11.80165763 52.9772336 9.61397813 66.94140107 8 81 C11.96 81 15.92 81 20 81 C19.31175125 71.69777482 18.20452957 62.48741311 16.9375 53.25 C16.7490696 51.85941283 16.56091696 50.46878798 16.37304688 49.078125 C15.91808023 45.71837129 15.46034572 42.35902016 15 39 C14.67 39 14.34 39 14 39 Z " fill="#97BF0D" transform="translate(303,843)"/>
<path d="M0 0 C44.55 0 89.1 0 135 0 C135 7.26 135 14.52 135 22 C105.3 22 75.6 22 45 22 C45 57.97 45 93.94 45 131 C37.08 131 29.16 131 21 131 C21 95.03 21 59.06 21 22 C14.07 22 7.14 22 0 22 C0 14.74 0 7.48 0 0 Z " fill="#fff" transform="translate(425,843)"/>
<path d="M0 0 C6.87165822 4.58564123 11.27338461 10.11870791 12.97265625 18.31640625 C13.39994688 24.00134379 13.15368099 29.61412681 12.97265625 35.31640625 C5.71265625 35.31640625 -1.54734375 35.31640625 -9.02734375 35.31640625 C-9.45052083 32.02864583 -9.87369792 28.74088542 -10.296875 25.453125 C-11.03100471 22.30068566 -11.37659783 21.09826158 -14.02734375 19.31640625 C-18.61465366 18.73801333 -18.61465366 18.73801333 -22.7109375 20.48828125 C-25.57025809 24.45908848 -24.71443095 29.69733262 -24.02734375 34.31640625 C-20.2973826 43.44384059 -11.28587985 50.62470078 -3.90234375 56.81640625 C4.76861903 64.31372356 11.58564762 73.95521219 13.97265625 85.31640625 C14.24664773 89.20859701 14.24992919 93.103096 14.28515625 97.00390625 C14.31416016 98.05513672 14.34316406 99.10636719 14.37304688 100.18945312 C14.44227332 108.74690658 12.49318556 114.46147906 7.84765625 121.56640625 C-0.67450374 129.71803754 -10.41979594 130.78335904 -21.67578125 130.59765625 C-29.97170992 130.23805813 -37.34166477 127.40820516 -43.02734375 121.31640625 C-50.26376676 111.31073757 -50.36907196 100.25790884 -50.02734375 88.31640625 C-45.25641419 87.08237763 -40.60264929 87.20375513 -35.71484375 87.25390625 C-34.87888672 87.25841797 -34.04292969 87.26292969 -33.18164062 87.26757812 C-31.13017726 87.27930077 -29.07875102 87.29723422 -27.02734375 87.31640625 C-26.98996094 88.34121094 -26.95257812 89.36601563 -26.9140625 90.421875 C-26.84837296 91.78258687 -26.78192666 93.14326236 -26.71484375 94.50390625 C-26.69228516 95.17744141 -26.66972656 95.85097656 -26.64648438 96.54492188 C-26.41279141 100.90010889 -25.78222744 103.89054386 -23.02734375 107.31640625 C-19.04185949 108.49729048 -16.96052152 108.74242219 -13.15234375 107.00390625 C-10.93775065 105.48915462 -10.93775065 105.48915462 -10.02734375 103.31640625 C-9.15751495 94.04773875 -10.19738511 88.06435105 -16.015625 80.8515625 C-19.4617957 76.89352534 -23.02848076 73.21543979 -27.02734375 69.81640625 C-38.4345664 60.11344993 -47.50330047 48.55683903 -49.02734375 33.31640625 C-49.77241375 23.11604318 -48.3773304 12.96040271 -41.6328125 4.93359375 C-31.90974231 -4.86044776 -12.15227818 -6.15115315 0 0 Z " fill="#fff" transform="translate(693.02734375,844.68359375)"/>
<path d="M0 0 C6.41151722 4.46291885 11.06920572 9.31192822 13 17 C13.93534541 23.29300391 14.25221693 28.73891534 13 35 C5.74 35 -1.52 35 -9 35 C-9.22786458 32.265625 -9.45572917 29.53125 -9.68359375 26.796875 C-9.95074584 24.43538247 -10.35371968 22.28098935 -11 20 C-16.92737684 18.74343827 -16.92737684 18.74343827 -22.5625 20.3125 C-24.77515147 24.44919622 -24.85983168 28.42266076 -24 33 C-21.74855241 38.99685365 -18.3537864 43.2025653 -13.75 47.5625 C-13.1722583 48.12694824 -12.5945166 48.69139648 -11.99926758 49.27294922 C-8.99301947 52.18710496 -5.91812107 54.95957705 -2.6875 57.625 C8.39178628 67.0646456 13.60496915 78.85787473 15 93 C15.76694212 103.01818146 14.5562471 113.0698974 8 121 C2.38158305 127.16484653 -4.37908159 129.96393652 -12.68359375 130.43359375 C-14.26806068 130.45673783 -15.85299244 130.45767145 -17.4375 130.4375 C-18.26789795 130.43065186 -19.0982959 130.42380371 -19.95385742 130.41674805 C-29.158118 130.17593104 -36.49689647 127.80557346 -43 121 C-46.82400985 115.20163724 -49.14252239 110.23349341 -49.09765625 103.234375 C-49.09515869 102.43225586 -49.09266113 101.63013672 -49.09008789 100.80371094 C-49.08098389 99.79598633 -49.07187988 98.78826172 -49.0625 97.75 C-49.041875 94.5325 -49.02125 91.315 -49 88 C-41.74 87.67 -34.48 87.34 -27 87 C-26.83723958 90.45052083 -26.67447917 93.90104167 -26.51171875 97.3515625 C-25.97545799 101.1749789 -24.9977769 103.71476687 -23 107 C-19.20640675 108.89679663 -14.95604392 108.21724428 -11 107 C-9.01212299 100.35758169 -8.9274377 92.75135546 -11.4375 86.3125 C-12.55426852 84.67461632 -12.55426852 84.67461632 -14 83 C-14.65613281 82.20980469 -15.31226563 81.41960937 -15.98828125 80.60546875 C-19.44056067 76.62849056 -22.98231646 72.90699564 -27 69.5 C-36.89576446 61.0826864 -46.96744537 50.1329833 -48.21948242 36.63354492 C-48.7660534 24.62158782 -49.21770068 13.59189439 -40.875 4.125 C-30.98934943 -4.64152032 -11.66135674 -6.95016861 0 0 Z " fill="#fff" transform="translate(407,845)"/>
<path d="M0 0 C3.63 0 7.26 0 11 0 C13.17886493 5.92181133 14.44698974 12.03453574 15.8203125 18.1796875 C16.08383514 19.3475882 16.34735779 20.51548889 16.61886597 21.71878052 C17.45711852 25.43687985 18.29111457 29.15591905 19.125 32.875 C19.69372966 35.40110489 20.2627369 37.92714731 20.83203125 40.453125 C22.22457191 46.63469622 23.61362217 52.81704387 25 59 C26.04388729 54.56301914 27.08561475 50.12553756 28.125 45.6875 C28.28139954 45.02004761 28.43779907 44.35259521 28.59893799 43.66491699 C31.20107803 32.54822368 33.71136817 21.41416865 36.13330078 10.2565918 C36.3651709 9.19738525 36.59704102 8.13817871 36.8359375 7.046875 C37.13830322 5.65227051 37.13830322 5.65227051 37.44677734 4.22949219 C38 2 38 2 39 0 C44.94 0 50.88 0 57 0 C55.875 9 55.875 9 54.89268494 12.94824219 C54.67254227 13.84272568 54.4523996 14.73720917 54.22558594 15.65879822 C53.98606201 16.61186356 53.74653809 17.56492889 53.49975586 18.546875 C53.246017 19.57216812 52.99227814 20.59746124 52.73085022 21.65382385 C51.89656171 25.02032051 51.05574986 28.38515082 50.21484375 31.75 C49.63294261 34.09259175 49.05145128 36.43528534 48.47035217 38.77807617 C46.94389824 44.92751589 45.41189668 51.07556032 43.87872314 57.22332764 C42.31357262 63.50351823 40.75369005 69.78501677 39.19335938 76.06640625 C36.13405128 88.37888763 33.06887896 100.68990093 30 113 C26.37 113 22.74 113 19 113 C14.71 96.5 10.42 80 6 63 C5.67 85.44 5.34 107.88 5 131 C-2.26 131 -9.52 131 -17 131 C-17.48801565 121.69063222 -17.82103232 112.38267121 -18 103.0625 C-18.013549 102.35770256 -18.02709801 101.65290512 -18.04105759 100.92675018 C-18.45172093 76.54821366 -15.28054288 54.17448474 -9.0625 30.625 C-8.77856384 29.54739347 -8.77856384 29.54739347 -8.4888916 28.44801712 C-2.0332031 4.0664062 -2.0332031 4.0664062 0 0 Z " fill="#97BF0D" transform="translate(205,843)"/>
<path d="M0 0 C26.73 0 53.46 0 81 0 C81 19.47 81 38.94 81 59 C54.27 59 27.54 59 0 59 C0 39.53 0 20.06 0 0 Z " fill="#fff" transform="translate(520,524)"/>
<path d="M0 0 C7.92 0 15.84 0 24 0 C24 8.91 24 17.82 24 27 C33.57 27 43.14 27 53 27 C53 33.93 53 40.86 53 48 C43.43 48 33.86 48 24 48 C24 59.22 24 70.44 24 82 C47.43 82 70.86 82 95 82 C95 89.26 95 96.52 95 104 C63.65 104 32.3 104 0 104 C0 69.68 0 35.36 0 0 Z " fill="#fff" transform="translate(499,870)"/>
<path d="M0 0 C1.98 0 3.96 0 6 0 C6 43.23 6 86.46 6 131 C-1.59 131 -9.18 131 -17 131 C-17.48853412 121.85736588 -17.82123482 112.7161621 -18 103.5625 C-18.013549 102.86943253 -18.02709801 102.17636505 -18.04105759 101.46229553 C-18.45516082 77.28371332 -15.23307482 55.10225083 -9.0625 31.75 C-8.87320923 31.03277393 -8.68391846 30.31554787 -8.4888916 29.57658768 C-3.1498748 9.44962441 -3.1498748 9.44962441 0 0 Z " fill="#97BF0D" transform="translate(269,843)"/>
<path d="M0 0 C1.1034375 -0.00773438 2.206875 -0.01546875 3.34375 -0.0234375 C8.03919437 0.56930424 10.58298299 2.38156491 13.75 5.8125 C16.83359901 10.32776997 16.60426487 13.95322673 16.5 19.375 C12.87 20.035 9.24 20.695 5.5 21.375 C5.27213542 19.06380208 5.04427083 16.75260417 4.81640625 14.44140625 C4.71069185 12.38837975 4.71069185 12.38837975 3.5 11.375 C1.50041636 11.33419217 -0.50045254 11.33245644 -2.5 11.375 C-4.20949338 14.79398675 -3.66321249 18.70661613 -3.66796875 22.46875 C-3.67129715 23.3712146 -3.67462555 24.2736792 -3.67805481 25.20349121 C-3.68312194 27.11335744 -3.6854632 29.02323253 -3.68530273 30.93310547 C-3.68749111 33.86310301 -3.70565418 36.79272528 -3.72460938 39.72265625 C-3.72754289 41.57551954 -3.72952797 43.42838463 -3.73046875 45.28125 C-3.73765427 46.16147827 -3.74483978 47.04170654 -3.75224304 47.9486084 C-3.96567773 52.64449905 -3.96567773 52.64449905 -1.5 56.375 C1.80683466 56.08516731 1.80683466 56.08516731 4.5 54.375 C4.73653523 51.84903741 4.92173692 49.34392793 5.0625 46.8125 C5.10568359 46.10158203 5.14886719 45.39066406 5.19335938 44.65820312 C5.29971777 42.89738088 5.40038846 41.1362168 5.5 39.375 C3.85 39.375 2.2 39.375 0.5 39.375 C0.5 36.075 0.5 32.775 0.5 29.375 C5.78 29.375 11.06 29.375 16.5 29.375 C16.58117236 33.56289248 16.64059104 37.74920034 16.6875 41.9375 C16.71263672 43.11892578 16.73777344 44.30035156 16.76367188 45.51757812 C16.81736937 51.90758 16.76456566 56.79964915 13.5 62.375 C8.58279416 67.04634555 4.55443767 67.67565857 -1.99609375 67.58984375 C-6.82027698 67.17591227 -9.58317468 65.36616251 -12.8125 61.875 C-15.07483242 58.52339642 -15.62640488 55.981101 -15.67700195 52.03051758 C-15.68983719 51.15563187 -15.70267242 50.28074615 -15.71589661 49.37934875 C-15.72328354 48.43560898 -15.73067047 47.4918692 -15.73828125 46.51953125 C-15.746353 45.54392746 -15.75442474 44.56832367 -15.76274109 43.56315613 C-15.77657531 41.4961423 -15.78730042 39.4291057 -15.79516602 37.36206055 C-15.81233981 34.21683792 -15.8562277 31.07267727 -15.90039062 27.92773438 C-15.91052143 25.91667437 -15.91903632 23.90560546 -15.92578125 21.89453125 C-15.94328934 20.96091263 -15.96079742 20.02729401 -15.97883606 19.06538391 C-15.95898535 13.0221233 -14.98113914 8.40434191 -11.5 3.375 C-7.8029858 0.25718469 -4.75980244 -0.0333631 0 0 Z " fill="#fff" transform="translate(432.5,1001.625)"/>
<path d="M0 0 C3.3 0 6.6 0 10 0 C10.33 17.49 10.66 34.98 11 53 C12.65 53.66 14.3 54.32 16 55 C16.99 54.34 17.98 53.68 19 53 C19.4767085 50.66257775 19.4767085 50.66257775 19.43237305 47.90771484 C19.45216721 46.84676605 19.47196136 45.78581726 19.49235535 44.69271851 C19.49874527 43.54373077 19.50513519 42.39474304 19.51171875 41.2109375 C19.52966995 40.03737701 19.54762115 38.86381653 19.56611633 37.6546936 C19.62043422 33.89483264 19.65418448 30.13510015 19.6875 26.375 C19.72065403 23.8307112 19.75514187 21.28643941 19.79101562 18.7421875 C19.87617329 12.49488408 19.94288215 6.24762018 20 0 C23.63 0 27.26 0 31 0 C31.07429269 7.56223413 31.12867057 15.12425461 31.16479492 22.68676758 C31.17985844 25.2580943 31.2003132 27.82939543 31.22631836 30.40063477 C31.26280761 34.10178962 31.27975121 37.802604 31.29296875 41.50390625 C31.30845261 42.64896133 31.32393646 43.79401642 31.33988953 44.97377014 C31.34117404 51.09942139 31.06441634 55.63533016 28 61 C23.08445249 65.66977014 19.05402985 66.30628137 12.50390625 66.2109375 C7.75535022 65.81090314 5.05625709 64.13604283 1.86035156 60.69873047 C-1.32444035 55.70529362 -0.48735959 49.64222466 -0.390625 43.9453125 C-0.38496521 42.68862762 -0.37930542 41.43194275 -0.37347412 40.13717651 C-0.35492046 36.8126345 -0.31904929 33.48921038 -0.2746582 30.16497803 C-0.23357713 26.7663331 -0.21543592 23.3675722 -0.1953125 19.96875 C-0.15126606 13.31219333 -0.08436781 6.65616115 0 0 Z " fill="#fff" transform="translate(466,1003)"/>
<path d="M0 0 C1.79244141 0.01740234 1.79244141 0.01740234 3.62109375 0.03515625 C5.41740234 0.04869141 5.41740234 0.04869141 7.25 0.0625 C8.17683594 0.07410156 9.10367187 0.08570313 10.05859375 0.09765625 C12.00014527 6.29340916 13.12104259 12.55273579 14.22265625 18.9453125 C14.51805801 20.64040199 14.51805801 20.64040199 14.81942749 22.36973572 C15.23310452 24.75047017 15.64481915 27.13154634 16.0546875 29.51293945 C16.68225212 33.15237574 17.31926747 36.79007322 17.95703125 40.42773438 C18.35864611 42.74599452 18.75970662 45.06435079 19.16015625 47.3828125 C19.35074615 48.46732193 19.54133606 49.55183136 19.73770142 50.66920471 C20.56669103 55.52692241 21.31757705 60.14766482 21.05859375 65.09765625 C17.42859375 65.09765625 13.79859375 65.09765625 10.05859375 65.09765625 C9.39859375 60.14765625 8.73859375 55.19765625 8.05859375 50.09765625 C3.60359375 50.59265625 3.60359375 50.59265625 -0.94140625 51.09765625 C-1.07417969 52.02449219 -1.20695312 52.95132812 -1.34375 53.90625 C-1.60865234 55.70255859 -1.60865234 55.70255859 -1.87890625 57.53515625 C-2.05292969 58.73011719 -2.22695313 59.92507813 -2.40625 61.15625 C-2.94140625 64.09765625 -2.94140625 64.09765625 -3.94140625 65.09765625 C-7.27468467 65.24010405 -10.60594518 65.13987728 -13.94140625 65.09765625 C-13.38367934 56.82618965 -12.34543359 48.74829168 -10.91015625 40.5859375 C-10.61618958 38.88367256 -10.61618958 38.88367256 -10.31628418 37.14701843 C-9.90528097 34.77441177 -9.49171966 32.40224691 -9.07568359 30.03051758 C-8.43662444 26.38286238 -7.80762042 22.73356963 -7.1796875 19.08398438 C-6.7779341 16.77203275 -6.37561132 14.46017998 -5.97265625 12.1484375 C-5.78409058 11.05380692 -5.5955249 9.95917633 -5.40124512 8.83137512 C-5.22436157 7.82910385 -5.04747803 6.82683258 -4.86523438 5.79418945 C-4.71058716 4.90883011 -4.55593994 4.02347076 -4.39660645 3.11128235 C-3.67483622 -0.0815444 -3.40481772 0.11304176 0 0 Z M3.05859375 16.09765625 C2.5539775 19.51365772 2.05570799 22.93055565 1.55859375 26.34765625 C1.41550781 27.31574219 1.27242188 28.28382812 1.125 29.28125 C0.98964844 30.21582031 0.85429687 31.15039062 0.71484375 32.11328125 C0.58916016 32.97211914 0.46347656 33.83095703 0.33398438 34.71582031 C-0.01797691 37.36029376 -0.01797691 37.36029376 0.05859375 41.09765625 C2.36859375 41.09765625 4.67859375 41.09765625 7.05859375 41.09765625 C6.06859375 32.84765625 5.07859375 24.59765625 4.05859375 16.09765625 C3.72859375 16.09765625 3.39859375 16.09765625 3.05859375 16.09765625 Z " fill="#fff" transform="translate(381.94140625,1002.90234375)"/>
<path d="M0 0 C9.57 0 19.14 0 29 0 C29 3.3 29 6.6 29 10 C23.06 10 17.12 10 11 10 C11 15.61 11 21.22 11 27 C15.62 27 20.24 27 25 27 C25 30.3 25 33.6 25 37 C20.38 37 15.76 37 11 37 C11 42.94 11 48.88 11 55 C16.94 55 22.88 55 29 55 C29 58.3 29 61.6 29 65 C19.43 65 9.86 65 0 65 C0 43.55 0 22.1 0 0 Z " fill="#fff" transform="translate(326,1003)"/>
<path d="M0 0 C9.24 0 18.48 0 28 0 C28 3.3 28 6.6 28 10 C22.39 10 16.78 10 11 10 C11 15.61 11 21.22 11 27 C15.62 27 20.24 27 25 27 C25 30.3 25 33.6 25 37 C20.38 37 15.76 37 11 37 C11 42.94 11 48.88 11 55 C16.61 55 22.22 55 28 55 C28 58.3 28 61.6 28 65 C18.76 65 9.52 65 0 65 C0 43.55 0 22.1 0 0 Z " fill="#fff" transform="translate(515,1003)"/>
<path d="M0 0 C3.3 0 6.6 0 10 0 C10 18.15 10 36.3 10 55 C15.61 55 21.22 55 27 55 C27 58.3 27 61.6 27 65 C18.09 65 9.18 65 0 65 C0 43.55 0 22.1 0 0 Z " fill="#fff" transform="translate(285,1003)"/>
<path d="M0 0 C3.8372228 2.17115946 5.86462604 4.30259225 7.75 8.375 C9.31481416 14.47061594 9.19716737 19.20078599 5.99609375 24.68359375 C3.43876283 28.15482976 0.80100692 30.02466436 -3.25 31.375 C-9.21889281 31.90922104 -14.18593698 31.90806722 -19.25 28.375 C-23.22335535 24.42323897 -25.36501715 20.83712741 -25.625 15.1875 C-25.53856045 9.88011185 -23.8591863 6.24635479 -20.25 2.375 C-13.92941446 -2.40923852 -7.20699662 -3.17641703 0 0 Z M-18.0625 7.0625 C-19.77896632 10.4050923 -20.37183874 13.655335 -20.25 17.375 C-18.76397209 21.52023576 -17.18661487 24.29734215 -13.25 26.375 C-9.13480413 27.53967808 -6.32017237 27.75681852 -2.5 25.875 C1.23845291 23.4332177 2.56032921 20.68755662 3.75 16.375 C3.57461137 11.99028429 2.52017027 8.79154334 -0.25 5.375 C-7.26602717 1.74170022 -12.02427925 1.44070827 -18.0625 7.0625 Z " fill="#fff" transform="translate(729.25,811.625)"/>
<path d="M0 0 C10.625 -0.25 10.625 -0.25 14 2 C14.2578125 3.953125 14.2578125 3.953125 14.125 6.25 C13.99253658 9.97703905 14.24685317 13.32840922 15 17 C13.35 17 11.7 17 10 17 C9.731875 16.195625 9.46375 15.39125 9.1875 14.5625 C8.795625 13.716875 8.40375 12.87125 8 12 C7.01 11.67 6.02 11.34 5 11 C5 12.98 5 14.96 5 17 C3.35 17 1.7 17 0 17 C0 11.39 0 5.78 0 0 Z M5 4 C5 4.99 5 5.98 5 7 C6.32 7 7.64 7 9 7 C9 6.01 9 5.02 9 4 C7.68 4 6.36 4 5 4 Z " fill="#fff" transform="translate(714,818)"/>
</svg>
