<?xml version="1.0" encoding="UTF-8"?>
<svg version="1.1" xmlns="http://www.w3.org/2000/svg" width="242" height="208">
<path d="M0 0 C79.86 0 159.72 0 242 0 C242 68.64 242 137.28 242 208 C162.14 208 82.28 208 0 208 C0 139.36 0 70.72 0 0 Z " fill="#FDFDFD" transform="translate(0,0)"/>
<path d="M0 0 C2 1 4 2 6 3 C6 3.66 6 4.32 6 5 C5.34 5 4.68 5 4 5 C3.67 5.99 3.34 6.98 3 8 C-5.25 8 -13.5 8 -22 8 C-22 8.66 -22 9.32 -22 10 C-22.969375 10.28875 -23.93875 10.5775 -24.9375 10.875 C-28.18878552 12.63607484 -28.18878552 12.63607484 -28.62109375 15.42578125 C-28.85409758 17.96014598 -28.99045192 20.4554377 -29 23 C-30.65 22.67 -32.3 22.34 -34 22 C-32.02 22.66 -30.04 23.32 -28 24 C-27.30132812 23.21753906 -26.60265625 22.43507813 -25.8828125 21.62890625 C-24.9637002 20.60662828 -24.04442066 19.58450065 -23.125 18.5625 C-22.66480469 18.04623047 -22.20460937 17.52996094 -21.73046875 16.99804688 C-17.82652266 12.66975882 -16.01072344 11.89159067 -10.18310547 11.55639648 C-9.40080566 11.51716064 -8.61850586 11.4779248 -7.8125 11.4375 C-7.01473145 11.3950415 -6.21696289 11.35258301 -5.39501953 11.30883789 C2.07448386 10.94062293 9.52288911 10.90074632 17 11 C18.31628114 16.38478648 18.31628114 16.38478648 17.07421875 18.80078125 C13.85345217 20.6628817 10.44728709 20.84683638 6.8125 21.1875 C6.08224609 21.26935547 5.35199219 21.35121094 4.59960938 21.43554688 C-0.28828325 21.95074548 -5.08658771 22.07233789 -10 22 C-10.309375 22.94875 -10.61875 23.8975 -10.9375 24.875 C-12 28 -12 28 -13 30 C-13.99 30.33 -14.98 30.66 -16 31 C-12.174553 33.23949858 -9.43307212 33.07547379 -5.12109375 32.77734375 C-2.40623949 33.06232845 -1.71334872 33.9390153 0 36 C0.66 36.66 1.32 37.32 2 38 C0.02 38.495 0.02 38.495 -2 39 C-1.01 39.66 -0.02 40.32 1 41 C1 40.67 1 40.34 1 40 C2.98 40 4.96 40 7 40 C7 39.34 7 38.68 7 38 C6.05125 37.690625 5.1025 37.38125 4.125 37.0625 C1 36 1 36 -1 35 C0.36616951 30.90149146 3.19428767 29.51288709 6.625 27.1875 C11.66532238 23.68958533 16.44329864 20.1227298 21 16 C20.34 16 19.68 16 19 16 C18.63076923 9.6 18.63076923 9.6 20.5 6.5625 C20.995 6.046875 21.49 5.53125 22 5 C23.65 5.33 25.3 5.66 27 6 C26.67 7.32 26.34 8.64 26 10 C26.33 10 26.66 10 27 10 C28.0260734 8.68662604 29.02727325 7.35335895 30 6 C32.3125 6.1875 32.3125 6.1875 35 7 C38.16400089 10.72900105 39.30224234 15.15523306 39 20 C37.78036569 23.89871866 36.48660789 27.14973611 32.85546875 29.2265625 C32.24316406 29.48179687 31.63085938 29.73703125 31 30 C27.68441485 25.61487125 26.45003347 22.62541841 26 17 C24.35 17.66 22.7 18.32 21 19 C21.495 20.98 21.495 20.98 22 23 C22.99 23 23.98 23 25 23 C26.38671875 24.53125 26.38671875 24.53125 27.6875 26.5 C28.12449219 27.1496875 28.56148438 27.799375 29.01171875 28.46875 C29.33785156 28.9740625 29.66398437 29.479375 30 30 C25.26211406 40.91878282 10.23629255 48.54198686 0.1796875 54.16796875 C-0.7189502 54.68133789 -0.7189502 54.68133789 -1.63574219 55.20507812 C-3.27406151 56.13048477 -4.92955521 57.02529557 -6.5859375 57.91796875 C-9.36588979 59.89929995 -9.36588979 59.89929995 -9.8515625 63.73828125 C-9.90054688 64.81464844 -9.94953125 65.89101562 -10 67 C-12.3125 67.6875 -12.3125 67.6875 -15 68 C-16.8125 66.5625 -16.8125 66.5625 -18 65 C-18.7734375 65.495 -18.7734375 65.495 -19.5625 66 C-24.0420979 67.83778375 -27.7875994 67.46630792 -32.25 65.75 C-35.00337251 63.99785386 -36.48039316 62.87036848 -38 60 C-38.3125 57.375 -38.3125 57.375 -38 55 C-37.34 54.34 -36.68 53.68 -36 53 C-36.33 52.34 -36.66 51.68 -37 51 C-36.0625 48.875 -36.0625 48.875 -35 47 C-36.01191406 46.44183594 -37.02382812 45.88367188 -38.06640625 45.30859375 C-41.87920956 43.12504577 -45.4242576 40.6964234 -48.9375 38.0625 C-49.52595703 37.64548828 -50.11441406 37.22847656 -50.72070312 36.79882812 C-52.40234375 35.53515625 -52.40234375 35.53515625 -55 33 C-55.37890625 30.18359375 -55.37890625 30.18359375 -55 28 C-52.35541621 26.67770811 -50.32238699 26.90322806 -47.375 26.9375 C-45.87066406 26.95103516 -45.87066406 26.95103516 -44.3359375 26.96484375 C-43.56507812 26.97644531 -42.79421875 26.98804688 -42 27 C-44.72277883 24.834072 -44.72277883 24.834072 -47.3125 24.8125 C-51.53603666 23.53561682 -53.90364306 20.8327334 -56 17 C-56.47271069 13.92494383 -56.3772756 11.08108405 -56 8 C-53.125 7.375 -53.125 7.375 -50 7 C-49.34 7.66 -48.68 8.32 -48 9 C-43.99974961 10.0751597 -43.99974961 10.0751597 -40 10 C-37.74792596 7.48501787 -37.74792596 7.48501787 -36.43774414 5.55908203 C-32.94440286 1.77092149 -26.86600821 1.133884 -21.95117188 0.78125 C-18.77444219 0.74176299 -15.61314724 0.78587262 -12.4375 0.875 C-10.29044221 0.9181187 -8.14330275 0.95740405 -5.99609375 0.9921875 C-5.05950928 1.01651855 -4.1229248 1.04084961 -3.15795898 1.06591797 C-1.01884416 1.24724002 -1.01884416 1.24724002 0 0 Z " fill="#050505" transform="translate(121,102)"/>
<path d="M0 0 C-2.875 4.875 -2.875 4.875 -4 6 C1.94650633 5.35215814 7.67387483 4.28016565 13.5 2.9375 C14.32242188 2.75123047 15.14484375 2.56496094 15.9921875 2.37304688 C17.9955717 1.91879115 19.9979003 1.45988401 22 1 C22 1.66 22 2.32 22 3 C24.475 2.505 24.475 2.505 27 2 C28.17249353 3.45365269 29.33783816 4.91307419 30.5 6.375 C31.1496875 7.18710937 31.799375 7.99921875 32.46875 8.8359375 C34 11 34 11 34 13 C33.25234375 12.83242188 32.5046875 12.66484375 31.734375 12.4921875 C30.74953125 12.28851563 29.7646875 12.08484375 28.75 11.875 C27.28820312 11.56175781 27.28820312 11.56175781 25.796875 11.2421875 C23.07240191 10.87626357 23.07240191 10.87626357 20.71484375 11.44921875 C17.90627562 13.9890856 18.09269068 17.35798534 17.8125 20.9375 C17.06944444 28.79166667 17.06944444 28.79166667 16 32 C20.14298667 31.40165275 23.18194377 29.99335715 26.8125 27.9375 C27.78832031 27.38964844 28.76414062 26.84179688 29.76953125 26.27734375 C30.87361328 25.64505859 30.87361328 25.64505859 32 25 C28.4358794 34.16262863 28.4358794 34.16262863 25 37 C21.96421254 37.81749115 19.01078678 38.19361388 15.890625 38.5625 C11.78130932 39.18445048 9.94052442 40.05947558 7 43 C6.07578955 46.38537214 6.07578955 46.38537214 6 50 C5.6725678 52.00097458 5.34123581 54.00133314 5 56 C7.47859908 53.7991151 8.61210366 51.93627031 9.6875 48.8125 C10.06455078 47.73935547 10.06455078 47.73935547 10.44921875 46.64453125 C10.63097656 46.10183594 10.81273437 45.55914062 11 45 C11.33 45 11.66 45 12 45 C12 50.28 12 55.56 12 61 C7.12714059 62.94914377 4.09232847 63.68926466 -1 63 C-5.56944444 60.86111111 -5.56944444 60.86111111 -7 58 C-7.33 58.33 -7.66 58.66 -8 59 C-9.66608987 59.04384447 -11.33380554 59.0396713 -13 59 C-13.99 59 -14.98 59 -16 59 C-18.26171875 57.6875 -18.26171875 57.6875 -20.6875 56 C-21.49574219 55.443125 -22.30398437 54.88625 -23.13671875 54.3125 C-23.75160156 53.879375 -24.36648437 53.44625 -25 53 C-27.96184809 54.30371946 -29.75770306 55.57928724 -31.75 58.125 C-32.4925 59.07375 -33.235 60.0225 -34 61 C-35 58 -35 58 -34 55 C-34.91523437 55.44472656 -35.83046875 55.88945313 -36.7734375 56.34765625 C-37.96195313 56.91355469 -39.15046875 57.47945312 -40.375 58.0625 C-41.55835937 58.63097656 -42.74171875 59.19945312 -43.9609375 59.78515625 C-44.96382813 60.18605469 -45.96671875 60.58695313 -47 61 C-47.66 60.67 -48.32 60.34 -49 60 C-46.36 57.03 -43.72 54.06 -41 51 C-42.65 49.68 -44.3 48.36 -46 47 C-45.52379711 42.62346871 -44.33100111 40.93461995 -40.9375 38.1875 C-40.20402344 37.58292969 -39.47054687 36.97835937 -38.71484375 36.35546875 C-38.14894531 35.90816406 -37.58304688 35.46085937 -37 35 C-38.32 34.67 -39.64 34.34 -41 34 C-36.05 31.03 -31.1 28.06 -26 25 C-28.64 24.34 -31.28 23.68 -34 23 C-32.71687876 18.68693405 -31.07895544 15.20416086 -28.625 11.4375 C-28.03976563 10.52871094 -27.45453125 9.61992188 -26.8515625 8.68359375 C-26.24054688 7.79800781 -25.62953125 6.91242187 -25 6 C-24.40574219 5.07960938 -23.81148437 4.15921875 -23.19921875 3.2109375 C-20.23103215 0.22693463 -18.33908935 0.30894411 -14.1875 0.1875 C-13.00542969 0.13980469 -11.82335937 0.09210937 -10.60546875 0.04296875 C-7.06983542 0.00083227 -3.53584675 -0.013582 0 0 Z " fill="#E5E5E5" transform="translate(139,40)"/>
<path d="M0 0 C-0.45375 0.7425 -0.9075 1.485 -1.375 2.25 C-2.98266301 4.81652765 -2.98266301 4.81652765 -3.8125 7 C-5.62793933 10.05758202 -8.20891431 11.81567207 -11 14 C-9.02 14 -7.04 14 -5 14 C-5.76245421 18.81600823 -7.41279856 23.24615702 -9.0625 27.8125 C-9.34416016 28.60076172 -9.62582031 29.38902344 -9.91601562 30.20117188 C-10.60758538 32.13522289 -11.30337278 34.06776488 -12 36 C-11.46890625 35.26394531 -10.9378125 34.52789062 -10.390625 33.76953125 C-9.68421875 32.79371094 -8.9778125 31.81789063 -8.25 30.8125 C-7.55390625 29.84957031 -6.8578125 28.88664062 -6.140625 27.89453125 C0.02065217 19.56331522 0.02065217 19.56331522 4 18 C3.40015015 24.5983484 1.55432523 30.88889737 -1 37 C-1.99 37.495 -1.99 37.495 -3 38 C-3 36.35 -3 34.7 -3 33 C-8.88761439 35.38308202 -13.15272652 39.30545303 -16 45 C-15.01 45.495 -15.01 45.495 -14 46 C-16.475 46.495 -16.475 46.495 -19 47 C-16.03 52.445 -16.03 52.445 -13 58 C-13.66 58.66 -14.32 59.32 -15 60 C-18.3 57.69 -21.6 55.38 -25 53 C-28.4663097 54.73315485 -29.54777647 55.31104771 -31.75 58.125 C-32.4925 59.07375 -33.235 60.0225 -34 61 C-35 58 -35 58 -34 55 C-34.91523437 55.44472656 -35.83046875 55.88945313 -36.7734375 56.34765625 C-37.96195313 56.91355469 -39.15046875 57.47945312 -40.375 58.0625 C-41.55835937 58.63097656 -42.74171875 59.19945312 -43.9609375 59.78515625 C-44.96382813 60.18605469 -45.96671875 60.58695313 -47 61 C-47.66 60.67 -48.32 60.34 -49 60 C-46.36 57.03 -43.72 54.06 -41 51 C-42.65 49.68 -44.3 48.36 -46 47 C-45.52379711 42.62346871 -44.33100111 40.93461995 -40.9375 38.1875 C-40.20402344 37.58292969 -39.47054687 36.97835937 -38.71484375 36.35546875 C-38.14894531 35.90816406 -37.58304688 35.46085937 -37 35 C-38.32 34.67 -39.64 34.34 -41 34 C-36.05 31.03 -31.1 28.06 -26 25 C-28.64 24.34 -31.28 23.68 -34 23 C-32.71687876 18.68693405 -31.07895544 15.20416086 -28.625 11.4375 C-28.03976563 10.52871094 -27.45453125 9.61992188 -26.8515625 8.68359375 C-26.24054688 7.79800781 -25.62953125 6.91242187 -25 6 C-24.40574219 5.07960938 -23.81148437 4.15921875 -23.19921875 3.2109375 C-20.23103215 0.22693463 -18.33908935 0.30894411 -14.1875 0.1875 C-13.00542969 0.13980469 -11.82335937 0.09210937 -10.60546875 0.04296875 C-7.06983542 0.00083227 -3.53584675 -0.013582 0 0 Z " fill="#EDEDED" transform="translate(139,40)"/>
<path d="M0 0 C2.475 0.495 2.475 0.495 5 1 C4.67 2.32 4.34 3.64 4 5 C4.33 5 4.66 5 5 5 C6.0260734 3.68662604 7.02727325 2.35335895 8 1 C10.3125 1.1875 10.3125 1.1875 13 2 C16.16400089 5.72900105 17.30224234 10.15523306 17 15 C15.78036569 18.89871866 14.48660789 22.14973611 10.85546875 24.2265625 C10.24316406 24.48179687 9.63085938 24.73703125 9 25 C5.68441485 20.61487125 4.45003347 17.62541841 4 12 C2.35 12.66 0.7 13.32 -1 14 C-0.505 15.98 -0.505 15.98 0 18 C0.99 18 1.98 18 3 18 C4.38671875 19.53125 4.38671875 19.53125 5.6875 21.5 C6.12449219 22.1496875 6.56148437 22.799375 7.01171875 23.46875 C7.33785156 23.9740625 7.66398437 24.479375 8 25 C3.60306117 35.13304685 -9.02007579 41.28312965 -18 47 C-19.0209375 47.66225586 -19.0209375 47.66225586 -20.0625 48.33789062 C-22.07301351 49.63825116 -24.09613798 50.91600266 -26.125 52.1875 C-26.74004395 52.58638428 -27.35508789 52.98526855 -27.98876953 53.39624023 C-30.73810965 55.08128294 -32.52682355 56.02054408 -35.7890625 55.87890625 C-38.96799396 54.61519675 -40.1821347 52.85664547 -42 50 C-42.34820041 48.33637583 -42.68404492 46.67004829 -43 45 C-43.99 44.34 -44.98 43.68 -46 43 C-44.59248779 42.13083113 -43.1735479 41.28014851 -41.75 40.4375 C-40.96109375 39.96183594 -40.1721875 39.48617187 -39.359375 38.99609375 C-37 38 -37 38 -34.8671875 38.16015625 C-31.74295529 39.56540714 -30.08863802 42.3617204 -28 45 C-27.34 45.33 -26.68 45.66 -26 46 C-26.495 43.525 -26.495 43.525 -27 41 C-25.35 41.33 -23.7 41.66 -22 42 C-22.33 41.01 -22.66 40.02 -23 39 C-21.35 39 -19.7 39 -18 39 C-18.99 37.68 -19.98 36.36 -21 35 C-19.02 35 -17.04 35 -15 35 C-15 34.34 -15 33.68 -15 33 C-15.94875 32.690625 -16.8975 32.38125 -17.875 32.0625 C-21 31 -21 31 -23 30 C-21.63383049 25.90149146 -18.80571233 24.51288709 -15.375 22.1875 C-10.33467762 18.68958533 -5.55670136 15.1227298 -1 11 C-1.66 11 -2.32 11 -3 11 C-3.36923077 4.6 -3.36923077 4.6 -1.5 1.5625 C-1.005 1.046875 -0.51 0.53125 0 0 Z " fill="#030303" transform="translate(143,107)"/>
<path d="M0 0 C2.55375615 3.17494007 4.37447153 6.48103661 6.1875 10.125 C6.71730469 11.17945313 7.24710938 12.23390625 7.79296875 13.3203125 C9 16 9 16 9 18 C9.99 18.33 10.98 18.66 12 19 C10.893945 25.73820348 9.51894716 32.40689062 8 39.0625 C7.7510498 40.18773071 7.7510498 40.18773071 7.49707031 41.33569336 C6.23393302 46.76606698 6.23393302 46.76606698 4 49 C2.11353258 47.19213539 1.08600909 45.70384101 0.765625 43.08203125 C0.72490027 37.32966314 1.42622712 31.73772878 2 26 C-0.97 33.26 -3.94 40.52 -7 48 C-8.88783216 44.22433567 -9.99909624 40.80325354 -11.125 36.75 C-11.47820313 35.48671875 -11.83140625 34.2234375 -12.1953125 32.921875 C-12.46085937 31.95765625 -12.72640625 30.9934375 -13 30 C-12.96519531 31.14855469 -12.93039063 32.29710937 -12.89453125 33.48046875 C-12.69686178 42.9207145 -12.68215569 52.00529363 -16 61 C-16.99 61.495 -16.99 61.495 -18 62 C-20.2443195 58.63352075 -20.2450516 57.54377354 -20.22705078 53.6105957 C-20.22689972 52.50968094 -20.22674866 51.40876617 -20.22659302 50.27449036 C-20.21627045 49.08691635 -20.20594788 47.89934235 -20.1953125 46.67578125 C-20.19106766 44.85097481 -20.19106766 44.85097481 -20.18673706 42.98930359 C-20.17552603 39.09693642 -20.15041948 35.20479784 -20.125 31.3125 C-20.11497141 28.67643561 -20.10584535 26.04036762 -20.09765625 23.40429688 C-20.07558366 16.93611968 -20.04209688 10.46807617 -20 4 C-17.61965042 6.89199299 -15.45333693 9.70940527 -13.640625 12.98828125 C-13.05087891 14.04692383 -13.05087891 14.04692383 -12.44921875 15.12695312 C-11.85560547 16.20879883 -11.85560547 16.20879883 -11.25 17.3125 C-10.63318359 18.42334961 -10.63318359 18.42334961 -10.00390625 19.55664062 C-8.99845215 21.36879627 -7.998647 23.1840842 -7 25 C-4.77492393 19.38949301 -3.12340376 13.88631493 -1.8125 8 C-1.63525391 7.22527344 -1.45800781 6.45054688 -1.27539062 5.65234375 C-0.8453241 3.76934979 -0.421945 1.88483046 0 0 Z " fill="#070707" transform="translate(75,40)"/>
<path d="M0 0 C3.66610354 1.39724454 7.1061628 3.01944206 10.5625 4.875 C11.49191406 5.36742187 12.42132813 5.85984375 13.37890625 6.3671875 C16 8 16 8 18.19921875 10.2109375 C18.79347656 10.80132812 19.38773438 11.39171875 20 12 C22.21858253 11.86358623 22.21858253 11.86358623 24 11 C24 10.01 24 9.02 24 8 C27.32901247 10.21934164 27.75023244 11.34683329 29 15 C27.02 14.34 25.04 13.68 23 13 C23.495 15.475 23.495 15.475 24 18 C20.2047869 16.50902342 18.38957269 14.24299151 16 11 C12.04179141 11.56545837 9.3340947 12.80902348 6 15 C6.66 15.66 7.32 16.32 8 17 C8.4640625 18.7015625 8.4640625 18.7015625 8.9375 20.4375 C10.04099408 24.45789409 10.04099408 24.45789409 13 27 C15.62570704 27.25069913 15.62570704 27.25069913 18 27 C18.6875 29.3125 18.6875 29.3125 19 32 C17.8125 33.875 17.8125 33.875 16 35 C13.02602384 34.72963853 12.14553974 34.14553974 10 32 C9.2265625 32.495 9.2265625 32.495 8.4375 33 C3.9579021 34.83778375 0.2124006 34.46630792 -4.25 32.75 C-7.00337251 30.99785386 -8.48039316 29.87036848 -10 27 C-10.3125 24.375 -10.3125 24.375 -10 22 C-9.34 21.34 -8.68 20.68 -8 20 C-8.33 19.34 -8.66 18.68 -9 18 C-8.01 16.68 -7.02 15.36 -6 14 C-6.33 13.34 -6.66 12.68 -7 12 C-3.7 12 -0.4 12 3 12 C2.4225 11.50628906 1.845 11.01257813 1.25 10.50390625 C0.5075 9.86324219 -0.235 9.22257813 -1 8.5625 C-1.7425 7.92441406 -2.485 7.28632813 -3.25 6.62890625 C-3.8275 6.09136719 -4.405 5.55382812 -5 5 C-5 4.67 -5 4.34 -5 4 C-2.36 3.67 0.28 3.34 3 3 C2.01 2.01 1.02 1.02 0 0 Z " fill="#EDEDED" transform="translate(93,135)"/>
<path d="M0 0 C0.66 0.33 1.32 0.66 2 1 C-1.66886764 7.56311354 -5.34226575 14.12366266 -9.02090454 20.68130493 C-11.27335154 24.69841093 -13.51516364 28.72132809 -15.75390625 32.74609375 C-16.91908217 34.83083462 -18.08443912 36.91547433 -19.25 39 C-19.79809326 39.99008057 -20.34618652 40.98016113 -20.91088867 42.00024414 C-21.41982666 42.90766357 -21.92876465 43.81508301 -22.453125 44.75 C-22.89817383 45.54921875 -23.34322266 46.3484375 -23.80175781 47.171875 C-25 49 -25 49 -27 50 C-26.3233467 45.03143148 -25.51038117 40.1135353 -24.5625 35.1875 C-24.44068359 34.52041016 -24.31886719 33.85332031 -24.19335938 33.16601562 C-23.23255404 28.23255404 -23.23255404 28.23255404 -21 26 C-21.3388779 22.33671094 -22.48826527 19.82801437 -24.50390625 16.79296875 C-24.99697266 16.04208984 -25.49003906 15.29121094 -25.99804688 14.51757812 C-26.51431641 13.74865234 -27.03058594 12.97972656 -27.5625 12.1875 C-28.08263672 11.39923828 -28.60277344 10.61097656 -29.13867188 9.79882812 C-30.41876566 7.86107147 -31.7059808 5.92847323 -33 4 C-30.45297384 2.72648692 -29.5717055 3.19808075 -26.875 3.9375 C-25.78832031 4.22947266 -25.78832031 4.22947266 -24.6796875 4.52734375 C-24.12539062 4.68332031 -23.57109375 4.83929688 -23 5 C-22.67 4.01 -22.34 3.02 -22 2 C-20.02 5.63 -18.04 9.26 -16 13 C-10.41672413 8.91224445 -5.14562078 4.62558464 0 0 Z " fill="#080808" transform="translate(112,40)"/>
<path d="M0 0 C-9.85299296 12.19894366 -9.85299296 12.19894366 -16.4375 13.875 C-17.7059375 13.936875 -17.7059375 13.936875 -19 14 C-18.525625 13.608125 -18.05125 13.21625 -17.5625 12.8125 C-15.64820367 10.59191626 -15.38733012 8.86624291 -15 6 C-15.969375 6.7425 -16.93875 7.485 -17.9375 8.25 C-18.48277344 8.66765625 -19.02804688 9.0853125 -19.58984375 9.515625 C-21.4245471 11.44689168 -22 12.30522013 -22 15 C-20.41429339 17.12217932 -18.90709742 18.8833556 -17.0625 20.75 C-16.58103516 21.25660156 -16.09957031 21.76320313 -15.60351562 22.28515625 C-14.41346046 23.53412504 -13.20813387 24.7685103 -12 26 C-16.46242143 28.97494762 -21.39577635 30.13633824 -26.5 31.6875 C-27.55832031 32.02072266 -28.61664063 32.35394531 -29.70703125 32.69726562 C-31.22876953 33.16229492 -31.22876953 33.16229492 -32.78125 33.63671875 C-33.71001953 33.92248779 -34.63878906 34.20825684 -35.59570312 34.50268555 C-38 35 -38 35 -41 34 C-36.05 31.03 -31.1 28.06 -26 25 C-28.64 24.34 -31.28 23.68 -34 23 C-32.71687876 18.68693405 -31.07895544 15.20416086 -28.625 11.4375 C-27.74714844 10.07431641 -27.74714844 10.07431641 -26.8515625 8.68359375 C-26.24054688 7.79800781 -25.62953125 6.91242187 -25 6 C-24.40574219 5.07960938 -23.81148437 4.15921875 -23.19921875 3.2109375 C-20.23103215 0.22693463 -18.33908935 0.30894411 -14.1875 0.1875 C-13.00542969 0.13980469 -11.82335937 0.09210937 -10.60546875 0.04296875 C-7.06983542 0.00083227 -3.53584675 -0.013582 0 0 Z " fill="#090909" transform="translate(139,40)"/>
<path d="M0 0 C1.60546875 1.77734375 1.60546875 1.77734375 3.1875 3.9375 C3.71730469 4.64777344 4.24710938 5.35804687 4.79296875 6.08984375 C6 8 6 8 6 10 C5.25234375 9.83242188 4.5046875 9.66484375 3.734375 9.4921875 C2.74953125 9.28851563 1.7646875 9.08484375 0.75 8.875 C-0.71179688 8.56175781 -0.71179688 8.56175781 -2.203125 8.2421875 C-4.92759809 7.87626357 -4.92759809 7.87626357 -7.28515625 8.44921875 C-10.09372438 10.9890856 -9.90730932 14.35798534 -10.1875 17.9375 C-10.93055556 25.79166667 -10.93055556 25.79166667 -12 29 C-7.85701333 28.40165275 -4.81805623 26.99335715 -1.1875 24.9375 C-0.21167969 24.38964844 0.76414063 23.84179688 1.76953125 23.27734375 C2.50558594 22.85582031 3.24164063 22.43429688 4 22 C0.27974881 31.48011379 0.27974881 31.48011379 -3 34 C-7.63500024 35.19952333 -12.22983156 35.68371008 -17 36 C-16.85891477 32.85393539 -16.71123864 29.70821132 -16.5625 26.5625 C-16.52318359 25.68400391 -16.48386719 24.80550781 -16.44335938 23.90039062 C-16.35856975 22.13285307 -16.26184201 20.36584869 -16.15332031 18.59960938 C-16.05304315 16.89936859 -15.9834137 15.19697274 -15.94824219 13.49414062 C-15.73458796 9.14564875 -15.53873231 7.54838125 -12.3828125 4.3359375 C-11.30773437 3.68882813 -10.23265625 3.04171875 -9.125 2.375 C-7.52011719 1.36566406 -7.52011719 1.36566406 -5.8828125 0.3359375 C-3 -1 -3 -1 0 0 Z " fill="#080808" transform="translate(167,43)"/>
<path d="M0 0 C1.65 0 3.3 0 5 0 C5.28875 0.804375 5.5775 1.60875 5.875 2.4375 C6.73262568 5.1326468 6.73262568 5.1326468 9 6 C-4.16488208 17.43533807 -4.16488208 17.43533807 -11.390625 21.87890625 C-13.15960583 22.92063633 -13.15960583 22.92063633 -14 25 C-13.05125 25.309375 -12.1025 25.61875 -11.125 25.9375 C-8 27 -8 27 -6 28 C-6 28.66 -6 29.32 -6 30 C-8.76264289 30.59732819 -11.16032769 31 -14 31 C-14.66 30.01 -15.32 29.02 -16 28 C-15.01 27.67 -14.02 27.34 -13 27 C-13.99 26.34 -14.98 25.68 -16 25 C-16 24.34 -16 23.68 -16 23 C-16.58007812 23.10699219 -17.16015625 23.21398437 -17.7578125 23.32421875 C-23.14404399 24.15081863 -26.23166607 24.05662431 -31 21 C-31 20.67 -31 20.34 -31 20 C-29.35 20 -27.7 20 -26 20 C-25.690625 19.05125 -25.38125 18.1025 -25.0625 17.125 C-24 14 -24 14 -23 12 C-20.62329102 11.54516602 -20.62329102 11.54516602 -17.50390625 11.25390625 C-16.38822266 11.13853516 -15.27253906 11.02316406 -14.12304688 10.90429688 C-11.75358852 10.67683927 -9.38379285 10.45286791 -7.01367188 10.23242188 C-5.33821289 10.05743164 -5.33821289 10.05743164 -3.62890625 9.87890625 C-2.59838135 9.7816626 -1.56785645 9.68441895 -0.50610352 9.58422852 C2.3473313 9.22042178 2.3473313 9.22042178 4 6 C4.16713569 3.37468476 4.16713569 3.37468476 4 1 C2.68 0.67 1.36 0.34 0 0 Z " fill="#EEEEEE" transform="translate(134,112)"/>
<path d="M0 0 C1.65 0.33 3.3 0.66 5 1 C4.67 2.32 4.34 3.64 4 5 C4.33 5 4.66 5 5 5 C6.0260734 3.68662604 7.02727325 2.35335895 8 1 C10.3125 1.1875 10.3125 1.1875 13 2 C16.16400089 5.72900105 17.30224234 10.15523306 17 15 C15.78036569 18.89871866 14.48660789 22.14973611 10.85546875 24.2265625 C10.24316406 24.48179687 9.63085938 24.73703125 9 25 C5.68441485 20.61487125 4.45003347 17.62541841 4 12 C3.21625 12.020625 2.4325 12.04125 1.625 12.0625 C-1 12 -1 12 -3 11 C-3.36923077 4.6 -3.36923077 4.6 -1.5 1.5625 C-1.005 1.046875 -0.51 0.53125 0 0 Z " fill="#050505" transform="translate(143,107)"/>
<path d="M0 0 C0.86625 0.433125 1.7325 0.86625 2.625 1.3125 C1.9134375 2.116875 1.9134375 2.116875 1.1875 2.9375 C-0.6944556 5.7980725 -0.9689617 7.92884753 -1.375 11.3125 C-1.70833333 13.3125 -2.04166667 15.3125 -2.375 17.3125 C0.10359908 15.1116151 1.23710366 13.24877031 2.3125 10.125 C2.56386719 9.40957031 2.81523437 8.69414063 3.07421875 7.95703125 C3.25597656 7.41433594 3.43773437 6.87164062 3.625 6.3125 C3.955 6.3125 4.285 6.3125 4.625 6.3125 C4.625 11.5925 4.625 16.8725 4.625 22.3125 C-1.00313944 24.56375577 -5.05709959 25.52636601 -10.9375 23.375 C-13.01523931 20.39389577 -12.43255295 18.21500063 -11.84765625 14.72265625 C-11.69167969 13.92730469 -11.53570312 13.13195312 -11.375 12.3125 C-11.21837891 11.22775391 -11.21837891 11.22775391 -11.05859375 10.12109375 C-10.38500553 6.3844517 -9.32597349 3.79679553 -6.625 1.1875 C-3.375 -0.6875 -3.375 -0.6875 0 0 Z " fill="#D2D2D2" transform="translate(146.375,78.6875)"/>
<path d="M0 0 C-0.76183594 0.44988281 -1.52367187 0.89976563 -2.30859375 1.36328125 C-10.16476181 6.25744837 -15.49140983 11.46290872 -21 19 C-21.99947745 20.34674213 -22.99950876 21.69307334 -24 23.0390625 C-26.69121049 26.67524565 -29.35193061 30.33230016 -32 34 C-33 32 -33 32 -32.37915039 29.84521484 C-32.03875732 28.97590332 -31.69836426 28.1065918 -31.34765625 27.2109375 C-30.98349609 26.26992187 -30.61933594 25.32890625 -30.24414062 24.359375 C-29.85419922 23.37453125 -29.46425781 22.3896875 -29.0625 21.375 C-28.67642578 20.38242187 -28.29035156 19.38984375 -27.89257812 18.3671875 C-26.93518863 15.90870583 -25.97074241 13.45323318 -25 11 C-27.31 11.33 -29.62 11.66 -32 12 C-26.38911369 4.3487914 -19.67163133 2.68301603 -10.6875 0.75 C-9.87732422 0.564375 -9.06714844 0.37875 -8.23242188 0.1875 C-2.25352444 -1.12676222 -2.25352444 -1.12676222 0 0 Z " fill="#0A0A0A" transform="translate(159,43)"/>
<path d="M0 0 C1.093125 0.0825 2.18625 0.165 3.3125 0.25 C3.3125 1.57 3.3125 2.89 3.3125 4.25 C3.30771963 6.3977633 3.30771963 6.3977633 4.3125 8.25 C6.28996603 8.98080266 8.29322489 9.64421747 10.3125 10.25 C12.25 11.5625 12.25 11.5625 13.3125 13.25 C13.25 15.8125 13.25 15.8125 12.3125 18.25 C9.01419056 20.91401916 5.38370071 20.60096558 1.3125 20.25 C-2.76821674 18.68049356 -5.60843412 17.17712443 -7.6875 13.25 C-8 10.625 -8 10.625 -7.6875 8.25 C-7.0275 7.59 -6.3675 6.93 -5.6875 6.25 C-6.0175 5.59 -6.3475 4.93 -6.6875 4.25 C-4.79150483 0.68106792 -4.16790733 0.28256999 0 0 Z " fill="#0B0B0B" transform="translate(90.6875,148.75)"/>
<path d="M0 0 C0.33 0.66 0.66 1.32 1 2 C0.26821134 4.07196631 -0.55899003 6.1108552 -1.4375 8.125 C-1.91058594 9.22070312 -2.38367188 10.31640625 -2.87109375 11.4453125 C-3.24363281 12.28835937 -3.61617187 13.13140625 -4 14 C-3.46890625 13.14535156 -2.9378125 12.29070312 -2.390625 11.41015625 C-1.33101562 9.75306641 -1.33101562 9.75306641 -0.25 8.0625 C0.44609375 6.96035156 1.1421875 5.85820313 1.859375 4.72265625 C4 2 4 2 8 1 C5.36 6.61 2.72 12.22 0 18 C1.98 20.64 3.96 23.28 6 26 C5.67 26.66 5.34 27.32 5 28 C0.545 25.03 0.545 25.03 -4 22 C-7.4663097 23.73315485 -8.54777647 24.31104771 -10.75 27.125 C-11.4925 28.07375 -12.235 29.0225 -13 30 C-14.76869488 24.69391537 -11.70347224 19.53961895 -9.875 14.4375 C-9.483125 13.27541016 -9.09125 12.11332031 -8.6875 10.91601562 C-8.29304688 9.80806641 -7.89859375 8.70011719 -7.4921875 7.55859375 C-6.95634033 6.03190063 -6.95634033 6.03190063 -6.40966797 4.47436523 C-4.68102841 1.44011482 -3.30131483 0.91901839 0 0 Z " fill="#0A0A0A" transform="translate(118,71)"/>
<path d="M0 0 C1.32 0 2.64 0 4 0 C4 11.50717703 4 11.50717703 2.5625 16.5625 C2.29566406 17.51253906 2.02882812 18.46257812 1.75390625 19.44140625 C1.2047578 21.3050966 0.61440262 23.15679215 0 25 C-2.29296875 25.3046875 -2.29296875 25.3046875 -5 25 C-6.80078125 22.8828125 -6.80078125 22.8828125 -8.3125 20.125 C-8.82425781 19.22007813 -9.33601563 18.31515625 -9.86328125 17.3828125 C-11 15 -11 15 -11 13 C-9.68 12.67 -8.36 12.34 -7 12 C-7.33 11.01 -7.66 10.02 -8 9 C-6.6015625 6.9921875 -6.6015625 6.9921875 -4.625 4.875 C-3.97789063 4.17117187 -3.33078125 3.46734375 -2.6640625 2.7421875 C-1.7838265 1.82062587 -0.90113574 0.90113574 0 0 Z " fill="#242424" transform="translate(131,74)"/>
<path d="M0 0 C0.98484375 0.00902344 1.9696875 0.01804687 2.984375 0.02734375 C4.10585937 0.04474609 4.10585937 0.04474609 5.25 0.0625 C4.5409913 3.22265306 3.70582556 6.16102947 2.25 9.0625 C0.51234907 10.0103096 -1.23079402 10.95677223 -3.0390625 11.76171875 C-6.20211253 14.16650336 -6.84662228 18.01249918 -7.92578125 21.69921875 C-8.75 24.0625 -8.75 24.0625 -10.75 25.0625 C-10.86547323 16.99220447 -10.65041311 9.08582397 -9.75 1.0625 C-6.43929162 0.06140485 -3.44915231 -0.04106134 0 0 Z " fill="#181818" transform="translate(163.75,78.9375)"/>
<path d="M0 0 C0 0.99 0 1.98 0 3 C-3.63 3 -7.26 3 -11 3 C-11 3.66 -11 4.32 -11 5 C-7.7 5.99 -4.4 6.98 -1 8 C-2.3 13.2 -2.3 13.2 -5 15 C-8.6875 15.1875 -8.6875 15.1875 -12 15 C-16.0333905 9.20200116 -16.50604984 4.98629919 -16 -2 C-9.22532895 -4.41952537 -6.02163491 -3.87562672 0 0 Z " fill="#040404" transform="translate(86,96)"/>
<path d="M0 0 C-0.33 1.32 -0.66 2.64 -1 4 C-3.475 3.505 -3.475 3.505 -6 3 C-8.97 7.455 -8.97 7.455 -12 12 C-11.030625 12.268125 -10.06125 12.53625 -9.0625 12.8125 C-8.051875 13.204375 -7.04125 13.59625 -6 14 C-5 17 -5 17 -6.08984375 19.5078125 C-8.34258993 22.44697828 -10.17900863 23.42428865 -13.5625 24.875 C-14.53316406 25.30554688 -15.50382812 25.73609375 -16.50390625 26.1796875 C-19 27 -19 27 -21 26 C-18.36 23.03 -15.72 20.06 -13 17 C-14.65 15.68 -16.3 14.36 -18 13 C-17.50971384 8.75573178 -16.44544451 6.98207963 -13.1875 4.25 C-12.50042969 3.65703125 -11.81335938 3.0640625 -11.10546875 2.453125 C-7.4872668 -0.0440385 -4.31404944 -0.11983471 0 0 Z " fill="#0A0A0A" transform="translate(111,74)"/>
<path d="M0 0 C4.11454254 1.45219148 7.5695421 3.28754492 11 6 C11 7.32 11 8.64 11 10 C11.99 9.67 12.98 9.34 14 9 C13.67 10.32 13.34 11.64 13 13 C12.34 12.67 11.68 12.34 11 12 C9.2056909 12 7.41130134 12.00868572 5.6171875 12.03515625 C-0.35176535 12.09467572 -6.08138333 11.77621202 -12 11 C-12 10.67 -12 10.34 -12 10 C-10.35 10 -8.7 10 -7 10 C-6.773125 9.46375 -6.54625 8.9275 -6.3125 8.375 C-4.56617944 5.21499137 -2.3597151 2.7323017 0 0 Z " fill="#EEEEEE" transform="translate(112,92)"/>
<path d="M0 0 C1 3 1 3 -0.21484375 5.69921875 C-0.78332031 6.68535156 -1.35179688 7.67148437 -1.9375 8.6875 C-2.78634766 10.17830078 -2.78634766 10.17830078 -3.65234375 11.69921875 C-4.09707031 12.45847656 -4.54179688 13.21773437 -5 14 C-2.03 14.33 0.94 14.66 4 15 C1.19680829 17.99876322 -1.59434917 20.16322727 -5.125 22.25 C-5.99382812 22.77078125 -6.86265625 23.2915625 -7.7578125 23.828125 C-10 25 -10 25 -12 25 C-12 25.66 -12 26.32 -12 27 C-12.99 27.33 -13.98 27.66 -15 28 C-15.33 27.34 -15.66 26.68 -16 26 C-14.96777344 23.6015625 -14.96777344 23.6015625 -13.359375 20.625 C-12.49505859 19.02398437 -12.49505859 19.02398437 -11.61328125 17.390625 C-10.99839844 16.27171875 -10.38351563 15.1528125 -9.75 14 C-9.15058594 12.88109375 -8.55117187 11.7621875 -7.93359375 10.609375 C-3.38341498 2.25560999 -3.38341498 2.25560999 0 0 Z " fill="#F2F2F2" transform="translate(110,49)"/>
<path d="M0 0 C1.60294922 0.15275391 1.60294922 0.15275391 3.23828125 0.30859375 C4.45064453 0.43427734 4.45064453 0.43427734 5.6875 0.5625 C5.6875 0.8925 5.6875 1.2225 5.6875 1.5625 C0.7375 1.8925 -4.2125 2.2225 -9.3125 2.5625 C-9.291875 4.109375 -9.27125 5.65625 -9.25 7.25 C-9.24157532 13.72015474 -9.73903752 20.12128748 -10.3125 26.5625 C-10.6425 26.5625 -10.9725 26.5625 -11.3125 26.5625 C-11.9725 20.9525 -12.6325 15.3425 -13.3125 9.5625 C-15.2925 14.0175 -15.2925 14.0175 -17.3125 18.5625 C-17.9725 18.5625 -18.6325 18.5625 -19.3125 18.5625 C-19.36126598 16.56309462 -19.34885763 14.5621695 -19.3125 12.5625 C-19.291875 11.386875 -19.27125 10.21125 -19.25 9 C-18.11654915 4.84401355 -16.75997354 3.82165268 -13.296875 1.5078125 C-8.83145241 -0.61941637 -4.84857033 -0.47952893 0 0 Z " fill="#EBEBEB" transform="translate(163.3125,77.4375)"/>
<path d="M0 0 C1.41623216 -0.05447047 2.83308191 -0.09300508 4.25 -0.125 C5.03890625 -0.14820313 5.8278125 -0.17140625 6.640625 -0.1953125 C9.27648974 0.02288822 10.78448383 0.57032931 13 2 C15 5 15 5 15.9375 8.5 C17.05688605 12.47727512 17.05688605 12.47727512 20 15 C22.62570704 15.25069913 22.62570704 15.25069913 25 15 C25.6875 17.3125 25.6875 17.3125 26 20 C24.8125 21.875 24.8125 21.875 23 23 C20.98828125 22.81640625 20.98828125 22.81640625 19 22 C18.0234375 20.22265625 18.0234375 20.22265625 17.375 18.0625 C16.50648174 15.24747904 16.13620863 14.13620863 14 12 C12.01643517 11.28591666 10.01684563 10.61382258 8 10 C8 8.68 8 7.36 8 6 C7.34 5.67 6.68 5.34 6 5 C6.66 4.01 7.32 3.02 8 2 C7.05125 2.04125 6.1025 2.0825 5.125 2.125 C2 2 2 2 0 0 Z " fill="#CECECE" transform="translate(86,147)"/>
<path d="M0 0 C1.07041123 3.21123369 0.93878878 4.60399408 0.44140625 7.88671875 C0.30283203 8.82451172 0.16425781 9.76230469 0.02148438 10.72851562 C-0.20571289 12.19321289 -0.20571289 12.19321289 -0.4375 13.6875 C-0.58509766 14.67556641 -0.73269531 15.66363281 -0.88476562 16.68164062 C-1.2502363 19.1220416 -1.62430286 21.56115245 -2 24 C-6.455 25.485 -6.455 25.485 -11 27 C-8.73549739 17.64742013 -6.17061755 7.58770705 0 0 Z " fill="#090909" transform="translate(148,52)"/>
<path d="M0 0 C0.86625 0.433125 1.7325 0.86625 2.625 1.3125 C0.26546906 3.67203094 -1.15395617 3.80391413 -4.375 4.3125 C-6.34318336 10.13504243 -7.77714229 15.14631819 -7.375 21.3125 C-3.745 21.3125 -0.115 21.3125 3.625 21.3125 C-0.93766713 24.73450035 -2.95202917 25.07770447 -8.375 24.3125 C-10.9375 23.375 -10.9375 23.375 -12.375 21.3125 C-12.5070425 18.21893286 -11.96876642 15.34021801 -11.375 12.3125 C-11.21837891 11.22775391 -11.21837891 11.22775391 -11.05859375 10.12109375 C-10.38500553 6.3844517 -9.32597349 3.79679553 -6.625 1.1875 C-3.375 -0.6875 -3.375 -0.6875 0 0 Z " fill="#070707" transform="translate(146.375,78.6875)"/>
<path d="M0 0 C0.99 0.33 1.98 0.66 3 1 C3.103125 2.051875 3.20625 3.10375 3.3125 4.1875 C3.99317231 7.96213738 4.62326013 10.02907516 7 13 C8.64991582 13.70710678 10.31562256 14.37943989 12 15 C12.33 15.99 12.66 16.98 13 18 C12.34 18.99 11.68 19.98 11 21 C8.375 21.1875 8.375 21.1875 6 21 C4.23537317 17.91190305 4 16.76687864 4 13 C1.74918216 9.62377323 -0.19986075 7.49291185 -4 6 C-3.6875 4.125 -3.6875 4.125 -3 2 C-2.01 1.34 -1.02 0.68 0 0 Z " fill="#C9C9C9" transform="translate(145,118)"/>
<path d="M0 0 C1.75529482 4.13824052 0.09000877 7.69282054 -1.3125 11.6875 C-1.53873047 12.37650391 -1.76496094 13.06550781 -1.99804688 13.77539062 C-3.7355698 18.8677849 -3.7355698 18.8677849 -6 20 C-6 18.35 -6 16.7 -6 15 C-8.31 15.33 -10.62 15.66 -13 16 C-9.74799933 10.06988114 -5.66704322 3.77802881 0 0 Z " fill="#F5F5F5" transform="translate(142,58)"/>
<path d="M0 0 C0.99 0.33 1.98 0.66 3 1 C2.50628906 1.55429688 2.01257813 2.10859375 1.50390625 2.6796875 C0.54291016 3.76636719 0.54291016 3.76636719 -0.4375 4.875 C-1.07558594 5.59429687 -1.71367188 6.31359375 -2.37109375 7.0546875 C-4.05014465 8.90750491 -4.05014465 8.90750491 -5 11 C-4.34 11.33 -3.68 11.66 -3 12 C-4.65 12.33 -6.3 12.66 -8 13 C-6.02 16.63 -4.04 20.26 -2 24 C-2.66 24.66 -3.32 25.32 -4 26 C-4.94401042 24.33984375 -5.88802083 22.6796875 -6.83203125 21.01953125 C-8.00935524 18.88011723 -8.00935524 18.88011723 -9.8125 16.65625 C-11 14 -11 14 -9.98046875 10.88671875 C-9.09294922 9.30310547 -9.09294922 9.30310547 -8.1875 7.6875 C-7.60355469 6.61886719 -7.01960938 5.55023438 -6.41796875 4.44921875 C-5.95003906 3.64097656 -5.48210937 2.83273438 -5 2 C-3.68 2 -2.36 2 -1 2 C-0.67 1.34 -0.34 0.68 0 0 Z " fill="#E2E2E2" transform="translate(128,74)"/>
<path d="M0 0 C0.66 0 1.32 0 2 0 C2.33 1.65 2.66 3.3 3 5 C4.98 4.67 6.96 4.34 9 4 C8.25 5.875 8.25 5.875 7 8 C6.319375 8.2475 5.63875 8.495 4.9375 8.75 C3.9784375 9.36875 3.9784375 9.36875 3 10 C2.35873627 13.31184816 2.35873627 13.31184816 2.21484375 15.69140625 C1.8570908 19.53562427 0.89400182 23.25040013 0 27 C-0.99 26.34 -1.98 25.68 -3 25 C-2.52343588 23.20763933 -2.04366502 21.41613103 -1.5625 19.625 C-1.29566406 18.62726563 -1.02882812 17.62953125 -0.75390625 16.6015625 C0 14 0 14 1 12 C0.34 11.67 -0.32 11.34 -1 11 C-0.67 10.01 -0.34 9.02 0 8 C0.06665376 6.60560336 0.08538199 5.20830125 0.0625 3.8125 C0.041875 2.554375 0.02125 1.29625 0 0 Z " fill="#E6E6E6" transform="translate(134,73)"/>
<path d="M0 0 C0.33 0 0.66 0 1 0 C0.67 3.63 0.34 7.26 0 11 C2.7425957 8.2574043 3.50207198 7.25588615 4.6875 3.8125 C4.93886719 3.09707031 5.19023437 2.38164063 5.44921875 1.64453125 C5.63097656 1.10183594 5.81273437 0.55914062 6 0 C6.33 0 6.66 0 7 0 C7 4.29 7 8.58 7 13 C3.7 13 0.4 13 -3 13 C-3.27131956 7.66404866 -3.4266889 4.38616179 0 0 Z " fill="#060606" transform="translate(144,85)"/>
<path d="M0 0 C1.65 0.33 3.3 0.66 5 1 C4.11223998 4.69900008 3.05418136 8.34550461 2 12 C0.35 11.67 -1.3 11.34 -3 11 C-3.36923077 4.6 -3.36923077 4.6 -1.5 1.5625 C-1.005 1.046875 -0.51 0.53125 0 0 Z M8 1 C8.99 1.495 8.99 1.495 10 2 C9.01 2.495 9.01 2.495 8 3 C8 2.34 8 1.68 8 1 Z " fill="#1A1A1A" transform="translate(143,107)"/>
<path d="M0 0 C1.0730756 3.2192268 0.79946725 3.90206442 0 7 C0.33 7.66 0.66 8.32 1 9 C3.52733235 9.65555119 3.52733235 9.65555119 6 10 C4.8553125 11.11375 4.8553125 11.11375 3.6875 12.25 C1.5606298 14.4263323 -0.2559956 16.52167796 -2 19 C-2 16.69 -2 14.38 -2 12 C-3.32 11.67 -4.64 11.34 -6 11 C-4.02 7.37 -2.04 3.74 0 0 Z " fill="#131313" transform="translate(170,88)"/>
<path d="M0 0 C2.97 0 5.94 0 9 0 C11.09230769 4.43076923 11.09230769 4.43076923 10.625 7.3125 C10.41875 7.869375 10.2125 8.42625 10 9 C10 8.01 10 7.02 10 6 C8.01432292 5.8046875 6.02864583 5.609375 4.04296875 5.4140625 C2 5 2 5 -1 3 C-0.67 2.01 -0.34 1.02 0 0 Z " fill="#D6D6D6" transform="translate(75,98)"/>
<path d="M0 0 C1.65 0 3.3 0 5 0 C2.84921278 3.85658398 0.76544722 7.54319097 -2 11 C-0.35 11 1.3 11 3 11 C2.67 11.99 2.34 12.98 2 14 C-0.64 14 -3.28 14 -6 14 C-4.6302836 10.00499382 -2.74277578 7.19990508 0 4 C-0.66 4 -1.32 4 -2 4 C-1.34 2.68 -0.68 1.36 0 0 Z " fill="#0B0B0B" transform="translate(163,90)"/>
<path d="M0 0 C0.99 0 1.98 0 3 0 C3.1567564 7.71589817 2.67453101 15.31516461 2 23 C1.67 23 1.34 23 1 23 C0.63627421 19.54260157 0.28564602 16.0839992 -0.0625 12.625 C-0.16626953 11.64015625 -0.27003906 10.6553125 -0.37695312 9.640625 C-0.47041016 8.69960937 -0.56386719 7.75859375 -0.66015625 6.7890625 C-0.74918213 5.91975098 -0.83820801 5.05043945 -0.92993164 4.15478516 C-1 2 -1 2 0 0 Z " fill="#BBBBBB" transform="translate(151,81)"/>
<path d="M0 0 C3.00547368 1.50273684 3.85077383 3.92286007 5.5 6.8125 C6.1084375 7.87082031 6.716875 8.92914063 7.34375 10.01953125 C8.62453046 12.32433194 9.85124242 14.6278156 11 17 C10.34 17.66 9.68 18.32 9 19 C4.25189521 13.72432801 0 7.20161864 0 0 Z " fill="#E7E7E7" transform="translate(78,42)"/>
<path d="M0 0 C2.99324263 1.0975223 3.84610901 1.67682892 5.25 4.625 C5.4975 5.40875 5.745 6.1925 6 7 C4.02 6.34 2.04 5.68 0 5 C0.33 6.65 0.66 8.3 1 10 C-2.81377846 8.50172989 -4.57365545 6.23512607 -7 3 C-7.66 2.34 -8.32 1.68 -9 1 C-6.13275314 1.57344937 -5.1385485 1.8614515 -3 4 C-0.89179203 3.6814823 -0.89179203 3.6814823 1 3 C0.67 2.01 0.34 1.02 0 0 Z " fill="#999999" transform="translate(116,143)"/>
<path d="M0 0 C0 0.99 0 1.98 0 3 C0.66 3.66 1.32 4.32 2 5 C0.02 7.64 -1.96 10.28 -4 13 C-4.66 12.67 -5.32 12.34 -6 12 C-4.66958425 3.64989059 -4.66958425 3.64989059 -1.875 0.9375 C-0.946875 0.4734375 -0.946875 0.4734375 0 0 Z " fill="#E2E2E2" transform="translate(162,89)"/>
<path d="M0 0 C0.99 0.33 1.98 0.66 3 1 C3.6875 3.0625 3.6875 3.0625 4 5 C2.68 5.99 1.36 6.98 0 8 C-1.32 7.34 -2.64 6.68 -4 6 C-3.6875 4.125 -3.6875 4.125 -3 2 C-2.01 1.34 -1.02 0.68 0 0 Z " fill="#EDEDED" transform="translate(145,118)"/>
<path d="M0 0 C3.6875 -0.3125 3.6875 -0.3125 7 0 C6.01906046 2.45234885 5.31296172 3.7809268 3.125 5.3125 C0.64990694 6.1132654 -0.58287634 5.86325845 -3 5 C-1.9375 2.5 -1.9375 2.5 0 0 Z " fill="#030303" transform="translate(87,149)"/>
<path d="M0 0 C0.66 0 1.32 0 2 0 C2 0.99 2 1.98 2 3 C2.94875 3.309375 3.8975 3.61875 4.875 3.9375 C8 5 8 5 10 6 C10 6.66 10 7.32 10 8 C7.23735711 8.59732819 4.83967231 9 2 9 C1.34 8.01 0.68 7.02 0 6 C0.99 5.67 1.98 5.34 3 5 C2.01 4.34 1.02 3.68 0 3 C0 2.01 0 1.02 0 0 Z " fill="#979797" transform="translate(118,134)"/>
<path d="M0 0 C1 3 1 3 0.14453125 5.2265625 C-0.51482422 6.41378906 -0.51482422 6.41378906 -1.1875 7.625 C-1.61417969 8.42164063 -2.04085937 9.21828125 -2.48046875 10.0390625 C-4 12 -4 12 -6.17578125 12.7734375 C-7.07876953 12.88558594 -7.07876953 12.88558594 -8 13 C-4 2 -4 2 0 0 Z " fill="#E8E8E8" transform="translate(110,49)"/>
<path d="M0 0 C1.41623216 -0.05447047 2.83308191 -0.09300508 4.25 -0.125 C5.03890625 -0.14820313 5.8278125 -0.17140625 6.640625 -0.1953125 C9.20731941 0.0171622 10.7916067 0.71345895 13 2 C12.01 2.495 12.01 2.495 11 3 C11 3.66 11 4.32 11 5 C9.35 5.33 7.7 5.66 6 6 C6.66 4.68 7.32 3.36 8 2 C7.05125 2.04125 6.1025 2.0825 5.125 2.125 C2 2 2 2 0 0 Z " fill="#9A9A9A" transform="translate(86,147)"/>
<path d="M0 0 C1.98 0 3.96 0 6 0 C4.68 0.33 3.36 0.66 2 1 C3.98 4.63 5.96 8.26 8 12 C7.34 12.66 6.68 13.32 6 14 C5.03036239 12.29477524 4.06103211 10.5893745 3.09375 8.8828125 C2.16917083 7.29121551 1.18458774 5.73470511 0.1875 4.1875 C-0.204375 3.465625 -0.59625 2.74375 -1 2 C-0.67 1.34 -0.34 0.68 0 0 Z " fill="#D0D0D0" transform="translate(118,86)"/>
<path d="M0 0 C-0.33 0.99 -0.66 1.98 -1 3 C-2.9375 3.5625 -2.9375 3.5625 -5 4 C-5.66 4.66 -6.32 5.32 -7 6 C-9.68839385 6.26991906 -12.29141936 6.08737357 -15 6 C-15 5.34 -15 4.68 -15 4 C-12.87607494 3.3299166 -10.75082476 2.66403203 -8.625 2 C-7.44164063 1.62875 -6.25828125 1.2575 -5.0390625 0.875 C-2 0 -2 0 0 0 Z " fill="#D4D4D4" transform="translate(119,69)"/>
<path d="M0 0 C0.66 0 1.32 0 2 0 C1.01 4.95 0.02 9.9 -1 15 C-1.99 14.34 -2.98 13.68 -4 13 C-3.52343588 11.20763933 -3.04366502 9.41613103 -2.5625 7.625 C-2.29566406 6.62726563 -2.02882812 5.62953125 -1.75390625 4.6015625 C-1 2 -1 2 0 0 Z " fill="#C6C6C6" transform="translate(135,85)"/>
<path d="M0 0 C0.66 0.33 1.32 0.66 2 1 C1.67 1.33 1.34 1.66 1 2 C0.92794489 3.68608966 0.91613932 5.37500659 0.9375 7.0625 C0.95103516 8.44115234 0.95103516 8.44115234 0.96484375 9.84765625 C0.97644531 10.55792969 0.98804687 11.26820312 1 12 C-2 13 -2 13 -4.04296875 12.22265625 C-4.75066406 11.83980469 -5.45835938 11.45695312 -6.1875 11.0625 C-6.90292969 10.68222656 -7.61835937 10.30195312 -8.35546875 9.91015625 C-8.89816406 9.60980469 -9.44085938 9.30945313 -10 9 C-7 8 -7 8 -3.8125 9.4375 C-2.884375 9.953125 -1.95625 10.46875 -1 11 C-1.01160156 10.28972656 -1.02320312 9.57945313 -1.03515625 8.84765625 C-1.04869141 7.46900391 -1.04869141 7.46900391 -1.0625 6.0625 C-1.07410156 5.14597656 -1.08570312 4.22945313 -1.09765625 3.28515625 C-1 1 -1 1 0 0 Z " fill="#C1C1C1" transform="translate(93,114)"/>
<path d="M0 0 C0.66 0.33 1.32 0.66 2 1 C0.95833333 2.72526042 -0.08333333 4.45052083 -1.125 6.17578125 C-2.21623999 8.11361926 -2.21623999 8.11361926 -2 11 C-3.65 11 -5.3 11 -7 11 C-4.69 7.37 -2.38 3.74 0 0 Z " fill="#CDCDCD" transform="translate(167,91)"/>
<path d="M0 0 C0.66 0.66 1.32 1.32 2 2 C-0.64 3.98 -3.28 5.96 -6 8 C-6 5 -6 5 -4.6875 3.61328125 C-3.125 2.40885417 -1.5625 1.20442708 0 0 Z " fill="#E1E1E1" transform="translate(133,46)"/>
<path d="M0 0 C1.65 0 3.3 0 5 0 C4.01 1.98 3.02 3.96 2 6 C-1 5 -1 5 -2 4 C-1.34 2.68 -0.68 1.36 0 0 Z " fill="#181818" transform="translate(163,90)"/>
<path d="M0 0 C1.60294922 0.15275391 1.60294922 0.15275391 3.23828125 0.30859375 C4.45064453 0.43427734 4.45064453 0.43427734 5.6875 0.5625 C5.6875 0.8925 5.6875 1.2225 5.6875 1.5625 C3.41794814 1.78435844 1.14676245 1.98955515 -1.125 2.1875 C-3.02185547 2.36152344 -3.02185547 2.36152344 -4.95703125 2.5390625 C-8.3125 2.5625 -8.3125 2.5625 -11.3125 0.5625 C-7.36602382 -0.42594951 -4.03857036 -0.39941905 0 0 Z " fill="#C6C6C6" transform="translate(163.3125,77.4375)"/>
<path d="M0 0 C0.66 0.99 1.32 1.98 2 3 C0.75 4.5625 0.75 4.5625 -1 6 C-3.1875 5.6875 -3.1875 5.6875 -5 5 C-5 4.34 -5 3.68 -5 3 C-2.5 1.375 -2.5 1.375 0 0 Z " fill="#0A0A0A" transform="translate(110,164)"/>
<path d="M0 0 C1.98 0.66 3.96 1.32 6 2 C3.4345406 4.5654594 1.52313332 4.54046087 -2 5 C-1.125 1.125 -1.125 1.125 0 0 Z " fill="#212121" transform="translate(143,78)"/>
<path d="M0 0 C0 0.99 0 1.98 0 3 C-4.33333333 6 -4.33333333 6 -6 6 C-6 4.35 -6 2.7 -6 1 C-5.67 1.66 -5.34 2.32 -5 3 C-4.67 2.34 -4.34 1.68 -4 1 C-1.9375 0.375 -1.9375 0.375 0 0 Z " fill="#848484" transform="translate(110,162)"/>
<path d="M0 0 C0.66 0.33 1.32 0.66 2 1 C1.34 2.65 0.68 4.3 0 6 C-1.65 6 -3.3 6 -5 6 C-5 5.34 -5 4.68 -5 4 C-4.360625 3.71125 -3.72125 3.4225 -3.0625 3.125 C-0.84793921 2.17176549 -0.84793921 2.17176549 0 0 Z " fill="#141414" transform="translate(156,133)"/>
<path d="M0 0 C0.66 0 1.32 0 2 0 C1.8125 1.875 1.8125 1.875 1 4 C-1.5625 5.25 -1.5625 5.25 -4 6 C-4.33 5.01 -4.66 4.02 -5 3 C-4.360625 2.690625 -3.72125 2.38125 -3.0625 2.0625 C-1.06389179 1.1654837 -1.06389179 1.1654837 0 0 Z " fill="#707070" transform="translate(154,132)"/>
<path d="M0 0 C0.99 0.33 1.98 0.66 3 1 C0.63707344 3.52588702 -0.66462511 4.88820837 -4 6 C-3.6875 4.125 -3.6875 4.125 -3 2 C-2.01 1.34 -1.02 0.68 0 0 Z " fill="#BCBCBC" transform="translate(145,118)"/>
<path d="M0 0 C0 0.99 0 1.98 0 3 C0.66 3.66 1.32 4.32 2 5 C0.35 5.66 -1.3 6.32 -3 7 C-3.33 5.68 -3.66 4.36 -4 3 C-2.68 2.01 -1.36 1.02 0 0 Z " fill="#BBBBBB" transform="translate(162,89)"/>
<path d="M0 0 C3.35595828 0.59927826 5.37801226 1.84622436 8 4 C5.03 3.67 2.06 3.34 -1 3 C-0.67 2.01 -0.34 1.02 0 0 Z " fill="#C0C0C0" transform="translate(73,126)"/>
</svg>
