<svg width="122" height="130" viewBox="0 0 122 130" fill="none" xmlns="http://www.w3.org/2000/svg">
<path d="M66.9999 62C68.9999 63 70.9999 64 72.9999 65C72.9999 65.66 72.9999 66.32 72.9999 67C72.3399 67 71.6799 67 70.9999 67C70.6699 67.99 70.3399 68.98 69.9999 70C61.7499 70 53.4999 70 44.9999 70C44.9999 70.66 44.9999 71.32 44.9999 72C44.0305 72.2887 43.0612 72.5775 42.0624 72.875C38.8111 74.6361 38.8111 74.6361 38.3788 77.4258C38.1458 79.9601 38.0095 82.4554 37.9999 85C36.3499 84.67 34.6999 84.34 32.9999 84C34.9799 84.66 36.9599 85.32 38.9999 86C39.6986 85.2175 40.3973 84.4351 41.1171 83.6289C42.0362 82.6066 42.9555 81.5845 43.8749 80.5625C44.3351 80.0462 44.7953 79.53 45.2695 78.998C49.1734 74.6698 50.9892 73.8916 56.8168 73.5564C57.5991 73.5172 58.3814 73.4779 59.1874 73.4375C59.9852 73.395 60.783 73.3526 61.6049 73.3088C69.0744 72.9406 76.5228 72.9007 83.9999 73C85.3162 78.3848 85.3162 78.3848 84.0741 80.8008C80.8534 82.6629 77.4472 82.8468 73.8124 83.1875C73.0822 83.2694 72.3519 83.3512 71.5995 83.4355C66.7116 83.9507 61.9133 84.0723 56.9999 84C56.6905 84.9488 56.3812 85.8975 56.0624 86.875C54.9999 90 54.9999 90 53.9999 92C53.0099 92.33 52.0199 92.66 50.9999 93C54.8254 95.2395 57.5668 95.0755 61.8788 94.7773C64.5937 95.0623 65.2866 95.939 66.9999 98C67.6599 98.66 68.3199 99.32 68.9999 100C67.0199 100.495 67.0199 100.495 64.9999 101C65.9899 101.66 66.9799 102.32 67.9999 103C67.9999 102.67 67.9999 102.34 67.9999 102C69.9799 102 71.9599 102 73.9999 102C73.9999 101.34 73.9999 100.68 73.9999 100C73.0512 99.6906 72.1024 99.3812 71.1249 99.0625C67.9999 98 67.9999 98 65.9999 97C67.3661 92.9015 70.1942 91.5129 73.6249 89.1875C78.6652 85.6896 83.4432 82.1227 87.9999 78C87.3399 78 86.6799 78 85.9999 78C85.6307 71.6 85.6307 71.6 87.4999 68.5625C87.9949 68.0469 88.4899 67.5312 88.9999 67C90.6499 67.33 92.2999 67.66 93.9999 68C93.6699 69.32 93.3399 70.64 92.9999 72C93.3299 72 93.6599 72 93.9999 72C95.026 70.6866 96.0272 69.3534 96.9999 68C99.3124 68.1875 99.3124 68.1875 102 69C105.164 72.729 106.302 77.1552 106 82C104.78 85.8987 103.487 89.1497 99.8554 91.2266C99.2431 91.4818 98.6308 91.737 97.9999 92C94.6843 87.6149 93.4499 84.6254 92.9999 79C91.3499 79.66 89.6999 80.32 87.9999 81C88.4949 82.98 88.4949 82.98 88.9999 85C89.9899 85 90.9799 85 91.9999 85C93.3866 86.5312 93.3866 86.5312 94.6874 88.5C95.1244 89.1497 95.5614 89.7994 96.0116 90.4688C96.3378 90.9741 96.6639 91.4794 96.9999 92C92.262 102.919 77.2362 110.542 67.1796 116.168C66.281 116.681 66.281 116.681 65.3642 117.205C63.7259 118.13 62.0704 119.025 60.414 119.918C57.634 121.899 57.634 121.899 57.1484 125.738C57.0994 126.815 57.0504 127.891 56.9999 129C54.6874 129.688 54.6874 129.688 51.9999 130C50.1874 128.562 50.1874 128.562 48.9999 127C48.2265 127.495 48.2265 127.495 47.4374 128C42.9578 129.838 39.2123 129.466 34.7499 127.75C31.9965 125.998 30.5195 124.87 28.9999 122C28.6874 119.375 28.6874 119.375 28.9999 117C29.6599 116.34 30.3199 115.68 30.9999 115C30.6699 114.34 30.3399 113.68 29.9999 113C30.9374 110.875 30.9374 110.875 31.9999 109C30.988 108.442 29.9761 107.884 28.9335 107.309C25.1207 105.125 21.5757 102.696 18.0624 100.062C17.474 99.6455 16.8855 99.2285 16.2792 98.7988C14.5976 97.5352 14.5976 97.5352 11.9999 95C11.621 92.1836 11.621 92.1836 11.9999 90C14.6445 88.6777 16.6775 88.9032 19.6249 88.9375C21.1293 88.951 21.1293 88.951 22.664 88.9648C23.4348 88.9764 24.2057 88.988 24.9999 89C22.2771 86.8341 22.2771 86.8341 19.6874 86.8125C15.4639 85.5356 13.0963 82.8327 10.9999 79C10.5272 75.9249 10.6226 73.0811 10.9999 70C13.8749 69.375 13.8749 69.375 16.9999 69C17.6599 69.66 18.3199 70.32 18.9999 71C23.0002 72.0752 23.0002 72.0752 26.9999 72C29.252 69.485 29.252 69.485 30.5622 67.5591C34.0555 63.7709 40.1339 63.1339 45.0487 62.7812C48.2255 62.7418 51.3868 62.7859 54.5624 62.875C56.7095 62.9181 58.8566 62.9574 61.0038 62.9922C61.9404 63.0165 62.877 63.0408 63.842 63.0659C65.9811 63.2472 65.9811 63.2472 66.9999 62Z" fill="white"/>
<path d="M85 1.90921e-06C82.125 4.875 82.125 4.875 81 6C86.9465 5.35216 92.6739 4.28017 98.5 2.9375C99.3224 2.75123 100.145 2.56496 100.992 2.37305C102.996 1.91879 104.998 1.45989 107 1C107 1.66 107 2.32 107 3C109.475 2.505 109.475 2.505 112 2C113.172 3.45365 114.338 4.91308 115.5 6.375C116.15 7.18711 116.799 7.99922 117.469 8.83594C119 11 119 11 119 13C118.252 12.8324 117.505 12.6648 116.734 12.4922C115.75 12.2885 114.765 12.0848 113.75 11.875C112.288 11.5618 112.288 11.5618 110.797 11.2422C108.072 10.8763 108.072 10.8763 105.715 11.4492C102.906 13.9891 103.093 17.358 102.812 20.9375C102.069 28.7917 102.069 28.7917 101 32C105.143 31.4017 108.182 29.9934 111.812 27.9375C112.788 27.3897 113.764 26.8418 114.77 26.2773C115.874 25.6451 115.874 25.6451 117 25C113.436 34.1626 113.436 34.1626 110 37C106.964 37.8175 104.011 38.1936 100.891 38.5625C96.7813 39.1845 94.9405 40.0595 92 43C91.0758 46.3854 91.0758 46.3854 91 50C90.6726 52.001 90.3412 54.0013 90 56C92.4786 53.7991 93.6121 51.9363 94.6875 48.8125C95.0646 47.7394 95.0646 47.7394 95.4492 46.6445C95.631 46.1018 95.8127 45.5591 96 45C96.33 45 96.66 45 97 45C97 50.28 97 55.56 97 61C92.1271 62.9491 89.0923 63.6893 84 63C79.4306 60.8611 79.4306 60.8611 78 58C77.67 58.33 77.34 58.66 77 59C75.3339 59.0438 73.6662 59.0397 72 59C71.01 59 70.02 59 69 59C66.7383 57.6875 66.7383 57.6875 64.3125 56C63.5043 55.4431 62.696 54.8863 61.8633 54.3125C61.2484 53.8794 60.6335 53.4463 60 53C57.0382 54.3037 55.2423 55.5793 53.25 58.125C52.5075 59.0738 51.765 60.0225 51 61C50 58 50 58 51 55C50.0848 55.4447 49.1695 55.8895 48.2266 56.3477C47.038 56.9136 45.8495 57.4795 44.625 58.0625C43.4416 58.631 42.2583 59.1995 41.0391 59.7852C40.0362 60.1861 39.0333 60.587 38 61C37.34 60.67 36.68 60.34 36 60C38.64 57.03 41.28 54.06 44 51C42.35 49.68 40.7 48.36 39 47C39.4762 42.6235 40.669 40.9346 44.0625 38.1875C44.796 37.5829 45.5295 36.9784 46.2852 36.3555C46.8511 35.9082 47.417 35.4609 48 35C46.68 34.67 45.36 34.34 44 34C48.95 31.03 53.9 28.06 59 25C56.36 24.34 53.72 23.68 51 23C52.2831 18.6869 53.921 15.2042 56.375 11.4375C56.9602 10.5287 57.5455 9.61992 58.1484 8.6836C58.7595 7.79801 59.3705 6.91242 60 6C60.5943 5.07961 61.1885 4.15922 61.8008 3.21094C64.769 0.226937 66.6609 0.308946 70.8125 0.187502C71.9946 0.139807 73.1766 0.0921113 74.3945 0.0429707C77.9302 0.000834178 81.4642 -0.0135801 85 1.90921e-06Z" fill="#E5E5E5"/>
<path d="M85 1.90921e-06C84.5462 0.742502 84.0925 1.485 83.625 2.25C82.0173 4.81653 82.0173 4.81653 81.1875 7C79.3721 10.0576 76.7911 11.8157 74 14C75.98 14 77.96 14 80 14C79.2375 18.816 77.5872 23.2462 75.9375 27.8125C75.6558 28.6008 75.3742 29.389 75.084 30.2012C74.3924 32.1352 73.6966 34.0678 73 36C73.5311 35.2639 74.0622 34.5279 74.6094 33.7695C75.3158 32.7937 76.0222 31.8179 76.75 30.8125C77.4461 29.8496 78.1422 28.8866 78.8594 27.8945C85.0207 19.5633 85.0207 19.5633 89 18C88.4002 24.5984 86.5543 30.8889 84 37C83.01 37.495 83.01 37.495 82 38C82 36.35 82 34.7 82 33C76.1124 35.3831 71.8473 39.3055 69 45C69.99 45.495 69.99 45.495 71 46C68.525 46.495 68.525 46.495 66 47C68.97 52.445 68.97 52.445 72 58C71.34 58.66 70.68 59.32 70 60C66.7 57.69 63.4 55.38 60 53C56.5337 54.7332 55.4522 55.3111 53.25 58.125C52.5075 59.0738 51.765 60.0225 51 61C50 58 50 58 51 55C50.0848 55.4447 49.1695 55.8895 48.2266 56.3477C47.038 56.9136 45.8495 57.4795 44.625 58.0625C43.4416 58.631 42.2583 59.1995 41.0391 59.7852C40.0362 60.1861 39.0333 60.587 38 61C37.34 60.67 36.68 60.34 36 60C38.64 57.03 41.28 54.06 44 51C42.35 49.68 40.7 48.36 39 47C39.4762 42.6235 40.669 40.9346 44.0625 38.1875C44.796 37.5829 45.5295 36.9784 46.2852 36.3555C46.8511 35.9082 47.417 35.4609 48 35C46.68 34.67 45.36 34.34 44 34C48.95 31.03 53.9 28.06 59 25C56.36 24.34 53.72 23.68 51 23C52.2831 18.6869 53.921 15.2042 56.375 11.4375C56.9602 10.5287 57.5455 9.61992 58.1484 8.6836C58.7595 7.79801 59.3705 6.91242 60 6C60.5943 5.07961 61.1885 4.15922 61.8008 3.21094C64.769 0.226937 66.6609 0.308946 70.8125 0.187502C71.9946 0.139807 73.1766 0.0921113 74.3945 0.0429707C77.9302 0.000834178 81.4642 -0.0135801 85 1.90921e-06Z" fill="#EDEDED"/>
<path d="M89 67C91.475 67.495 91.475 67.495 94 68C93.67 69.32 93.34 70.64 93 72C93.33 72 93.66 72 94 72C95.0261 70.6866 96.0273 69.3534 97 68C99.3125 68.1875 99.3125 68.1875 102 69C105.164 72.729 106.302 77.1552 106 82C104.78 85.8987 103.487 89.1497 99.8555 91.2266C99.2432 91.4818 98.6309 91.737 98 92C94.6844 87.6149 93.45 84.6254 93 79C91.35 79.66 89.7 80.32 88 81C88.495 82.98 88.495 82.98 89 85C89.99 85 90.98 85 92 85C93.3867 86.5312 93.3867 86.5312 94.6875 88.5C95.1245 89.1497 95.5615 89.7994 96.0117 90.4688C96.3379 90.9741 96.664 91.4794 97 92C92.6031 102.133 79.9799 108.283 71 114C69.9791 114.662 69.9791 114.662 68.9375 115.338C66.927 116.638 64.9039 117.916 62.875 119.188C62.26 119.586 61.6449 119.985 61.0112 120.396C58.2619 122.081 56.4732 123.021 53.2109 122.879C50.032 121.615 48.8179 119.857 47 117C46.6518 115.336 46.316 113.67 46 112C45.01 111.34 44.02 110.68 43 110C44.4075 109.131 45.8265 108.28 47.25 107.438C48.0389 106.962 48.8278 106.486 49.6406 105.996C52 105 52 105 54.1328 105.16C57.257 106.565 58.9114 109.362 61 112C61.66 112.33 62.32 112.66 63 113C62.505 110.525 62.505 110.525 62 108C63.65 108.33 65.3 108.66 67 109C66.67 108.01 66.34 107.02 66 106C67.65 106 69.3 106 71 106C70.01 104.68 69.02 103.36 68 102C69.98 102 71.96 102 74 102C74 101.34 74 100.68 74 100C73.0512 99.6906 72.1025 99.3812 71.125 99.0625C68 98 68 98 66 97C67.3662 92.9015 70.1943 91.5129 73.625 89.1875C78.6653 85.6896 83.4433 82.1227 88 78C87.34 78 86.68 78 86 78C85.6308 71.6 85.6308 71.6 87.5 68.5625C87.995 68.0469 88.49 67.5312 89 67Z" fill="white"/>
<path d="M20.9999 0C23.5536 3.17494 25.3744 6.48104 27.1874 10.125C27.7172 11.1795 28.247 12.2339 28.7929 13.3203C29.9999 16 29.9999 16 29.9999 18C30.9899 18.33 31.9799 18.66 32.9999 19C31.8938 25.7382 30.5188 32.4069 28.9999 39.0625C28.7509 40.1877 28.7509 40.1877 28.497 41.3357C27.2338 46.7661 27.2338 46.7661 24.9999 49C23.1134 47.1921 22.0859 45.7038 21.7655 43.082C21.7248 37.3297 22.4261 31.7377 22.9999 26C20.0299 33.26 17.0599 40.52 13.9999 48C12.1121 44.2243 11.0008 40.8033 9.87489 36.75C9.52169 35.4867 9.16849 34.2234 8.80458 32.9219C8.53903 31.9577 8.27349 30.9934 7.99989 30C8.0347 31.1486 8.0695 32.2971 8.10536 33.4805C8.30303 42.9207 8.31774 52.0053 4.99989 61C4.00989 61.495 4.00989 61.495 2.99989 62C0.755574 58.6335 0.754842 57.5438 0.772843 53.6106C0.772994 52.5097 0.773145 51.4088 0.773301 50.2745C0.783623 49.0869 0.793946 47.8993 0.804581 46.6758C0.808826 44.851 0.808826 44.851 0.813157 42.9893C0.824368 39.0969 0.849474 35.2048 0.874894 31.3125C0.884923 28.6764 0.894049 26.0404 0.902238 23.4043C0.92431 16.9361 0.957797 10.4681 0.999894 4C3.38024 6.89199 5.54656 9.70941 7.35927 12.9883C7.94902 14.0469 7.94902 14.0469 8.55068 15.127C9.14429 16.2088 9.14429 16.2088 9.74989 17.3125C10.3667 18.4233 10.3667 18.4233 10.996 19.5566C12.0014 21.3688 13.0012 23.1841 13.9999 25C16.225 19.3895 17.8765 13.8863 19.1874 8C19.3646 7.22527 19.5419 6.45055 19.7245 5.65234C20.1546 3.76935 20.5779 1.88483 20.9999 0Z" fill="white"/>
<path d="M39 95C42.6661 96.3972 46.1062 98.0194 49.5625 99.875C50.4919 100.367 51.4213 100.86 52.3789 101.367C55 103 55 103 57.1992 105.211C57.7935 105.801 58.3877 106.392 59 107C61.2186 106.864 61.2186 106.864 63 106C63 105.01 63 104.02 63 103C66.329 105.219 66.7502 106.347 68 110C66.02 109.34 64.04 108.68 62 108C62.495 110.475 62.495 110.475 63 113C59.2048 111.509 57.3896 109.243 55 106C51.0418 106.565 48.3341 107.809 45 110C45.66 110.66 46.32 111.32 47 112C47.4641 113.702 47.4641 113.702 47.9375 115.438C49.041 119.458 49.041 119.458 52 122C54.6257 122.251 54.6257 122.251 57 122C57.6875 124.312 57.6875 124.312 58 127C56.8125 128.875 56.8125 128.875 55 130C52.026 129.73 51.1455 129.146 49 127C48.2266 127.495 48.2266 127.495 47.4375 128C42.9579 129.838 39.2124 129.466 34.75 127.75C31.9966 125.998 30.5196 124.87 29 122C28.6875 119.375 28.6875 119.375 29 117C29.66 116.34 30.32 115.68 31 115C30.67 114.34 30.34 113.68 30 113C30.99 111.68 31.98 110.36 33 109C32.67 108.34 32.34 107.68 32 107C35.3 107 38.6 107 42 107C41.4225 106.506 40.845 106.013 40.25 105.504C39.5075 104.863 38.765 104.223 38 103.562C37.2575 102.924 36.515 102.286 35.75 101.629C35.1725 101.091 34.595 100.554 34 100C34 99.67 34 99.34 34 99C36.64 98.67 39.28 98.34 42 98C41.01 97.01 40.02 96.02 39 95Z" fill="#EDEDED"/>
<path d="M58 0C58.66 0.33 59.32 0.66 60 1C56.3311 7.56311 52.6577 14.1237 48.9791 20.6813C46.7266 24.6984 44.4848 28.7213 42.2461 32.7461C41.0809 34.8308 39.9156 36.9155 38.75 39C38.2019 39.9901 37.6538 40.9802 37.0891 42.0002C36.5802 42.9077 36.0712 43.8151 35.5469 44.75C35.1018 45.5492 34.6568 46.3484 34.1982 47.1719C33 49 33 49 31 50C31.6767 45.0314 32.4896 40.1135 33.4375 35.1875C33.5593 34.5204 33.6811 33.8533 33.8066 33.166C34.7674 28.2326 34.7674 28.2326 37 26C36.6611 22.3367 35.5117 19.828 33.4961 16.793C33.003 16.0421 32.51 15.2912 32.002 14.5176C31.4857 13.7487 30.9694 12.9797 30.4375 12.1875C29.9174 11.3992 29.3972 10.611 28.8613 9.79883C27.5812 7.86107 26.294 5.92847 25 4C27.547 2.72649 28.4283 3.19808 31.125 3.9375C32.2117 4.22947 32.2117 4.22947 33.3203 4.52734C33.8746 4.68332 34.4289 4.8393 35 5C35.33 4.01 35.66 3.02 36 2C37.98 5.63 39.96 9.26 42 13C47.5833 8.91224 52.8544 4.62558 58 0Z" fill="white"/>
<path d="M85 1.90921e-06C75.147 12.1989 75.147 12.1989 68.5625 13.875C67.2941 13.9369 67.2941 13.9369 66 14C66.4744 13.6081 66.9487 13.2163 67.4375 12.8125C69.3518 10.5919 69.6127 8.86624 70 6C69.0306 6.7425 68.0612 7.485 67.0625 8.25C66.5172 8.66766 65.972 9.08531 65.4102 9.51563C63.5755 11.4469 63 12.3052 63 15C64.5857 17.1222 66.0929 18.8834 67.9375 20.75C68.419 21.2566 68.9004 21.7632 69.3965 22.2852C70.5865 23.5341 71.7919 24.7685 73 26C68.5376 28.9749 63.6042 30.1363 58.5 31.6875C57.4417 32.0207 56.3834 32.3539 55.293 32.6973C53.7712 33.1623 53.7712 33.1623 52.2188 33.6367C51.29 33.9225 50.3612 34.2083 49.4043 34.5027C47 35 47 35 44 34C48.95 31.03 53.9 28.06 59 25C56.36 24.34 53.72 23.68 51 23C52.2831 18.6869 53.921 15.2042 56.375 11.4375C57.2529 10.0743 57.2529 10.0743 58.1484 8.6836C58.7595 7.79801 59.3705 6.91242 60 6C60.5943 5.07961 61.1885 4.15922 61.8008 3.21094C64.769 0.226937 66.6609 0.308946 70.8125 0.187502C71.9946 0.139807 73.1766 0.0921113 74.3945 0.0429707C77.9302 0.000834178 81.4642 -0.0135801 85 1.90921e-06Z" fill="white"/>
<path d="M113 3.00003C114.605 4.77737 114.605 4.77737 116.188 6.93753C116.717 7.6478 117.247 8.35808 117.793 9.08987C119 11 119 11 119 13C118.252 12.8325 117.505 12.6649 116.734 12.4922C115.75 12.2885 114.765 12.0849 113.75 11.875C112.288 11.5618 112.288 11.5618 110.797 11.2422C108.072 10.8763 108.072 10.8763 105.715 11.4492C102.906 13.9891 103.093 17.358 102.812 20.9375C102.069 28.7917 102.069 28.7917 101 32C105.143 31.4017 108.182 29.9934 111.812 27.9375C112.788 27.3897 113.764 26.8418 114.77 26.2774C115.506 25.8558 116.242 25.4343 117 25C113.28 34.4801 113.28 34.4801 110 37C105.365 38.1996 100.77 38.6837 96 39C96.1411 35.854 96.2888 32.7082 96.4375 29.5625C96.4768 28.684 96.5161 27.8055 96.5566 26.9004C96.6414 25.1329 96.7382 23.3659 96.8467 21.5996C96.947 19.8994 97.0166 18.197 97.0518 16.4942C97.2654 12.1457 97.4613 10.5484 100.617 7.33597C101.692 6.68886 102.767 6.04175 103.875 5.37503C105.48 4.36569 105.48 4.36569 107.117 3.33597C110 2.00003 110 2.00003 113 3.00003Z" fill="white"/>
<path d="M80 72C81.65 72 83.3 72 85 72C85.2887 72.8044 85.5775 73.6087 85.875 74.4375C86.7326 77.1326 86.7326 77.1326 89 78C75.8351 89.4353 75.8351 89.4353 68.6094 93.8789C66.8404 94.9206 66.8404 94.9206 66 97C66.9488 97.3094 67.8975 97.6188 68.875 97.9375C72 99 72 99 74 100C74 100.66 74 101.32 74 102C71.2374 102.597 68.8397 103 66 103C65.34 102.01 64.68 101.02 64 100C64.99 99.67 65.98 99.34 67 99C66.01 98.34 65.02 97.68 64 97C64 96.34 64 95.68 64 95C63.4199 95.107 62.8398 95.214 62.2422 95.3242C56.856 96.1508 53.7683 96.0566 49 93C49 92.67 49 92.34 49 92C50.65 92 52.3 92 54 92C54.3094 91.0512 54.6188 90.1025 54.9375 89.125C56 86 56 86 57 84C59.3767 83.5452 59.3767 83.5452 62.4961 83.2539C63.6118 83.1385 64.7275 83.0232 65.877 82.9043C68.2464 82.6768 70.6162 82.4529 72.9863 82.2324C74.6618 82.0574 74.6618 82.0574 76.3711 81.8789C77.4016 81.7817 78.4321 81.6844 79.4939 81.5842C82.3473 81.2204 82.3473 81.2204 84 78C84.1671 75.3747 84.1671 75.3747 84 73C82.68 72.67 81.36 72.34 80 72Z" fill="#EEEEEE"/>
<path d="M88.9999 67C90.6499 67.33 92.2999 67.66 93.9999 68C93.6699 69.32 93.3399 70.64 92.9999 72C93.3299 72 93.6599 72 93.9999 72C95.026 70.6866 96.0272 69.3534 96.9999 68C99.3124 68.1875 99.3124 68.1875 102 69C105.164 72.729 106.302 77.1552 106 82C104.78 85.8987 103.486 89.1497 99.8553 91.2266C99.243 91.4818 98.6307 91.737 97.9999 92C94.6843 87.6149 93.4499 84.6254 92.9999 79C92.2161 79.0206 91.4324 79.0412 90.6249 79.0625C87.9999 79 87.9999 79 85.9999 78C85.6306 71.6 85.6306 71.6 87.4999 68.5625C87.9949 68.0469 88.4899 67.5312 88.9999 67Z" fill="white"/>
<path d="M92.3749 38.6875C93.2412 39.1206 94.1074 39.5538 94.9999 40C94.2883 40.8044 94.2883 40.8044 93.5624 41.625C91.6804 44.4856 91.4059 46.6164 90.9999 50C90.6666 52 90.3332 54 89.9999 56C92.4785 53.7991 93.612 51.9363 94.6874 48.8125C94.9388 48.0971 95.1901 47.3817 95.4491 46.6445C95.6309 46.1019 95.8126 45.5592 95.9999 45C96.3299 45 96.6599 45 96.9999 45C96.9999 50.28 96.9999 55.56 96.9999 61C91.3718 63.2513 87.3178 64.2139 81.4374 62.0625C79.3597 59.0814 79.9424 56.9025 80.5272 53.4102C80.6832 52.6148 80.8392 51.8195 80.9999 51C81.1565 49.9153 81.1565 49.9153 81.3163 48.8086C81.9899 45.072 83.0489 42.4843 85.7499 39.875C88.9999 38 88.9999 38 92.3749 38.6875Z" fill="#D2D2D2"/>
<path d="M105 2.99999C104.238 3.44987 103.476 3.89975 102.692 4.36327C94.8354 9.25744 89.5087 14.4629 84.0001 22C83.0006 23.3467 82.0006 24.6931 81.0001 26.0391C78.3089 29.6752 75.6482 33.3323 73.0001 37C72.0001 35 72.0001 35 72.621 32.8452C72.9614 31.9759 73.3018 31.1066 73.6525 30.2109C74.0166 29.2699 74.3808 28.3289 74.756 27.3594C75.1459 26.3745 75.5359 25.3897 75.9376 24.375C76.3237 23.3824 76.7098 22.3898 77.1075 21.3672C78.0649 18.9087 79.0294 16.4532 80.0001 14C77.6901 14.33 75.3801 14.66 73.0001 15C78.611 7.34878 85.3285 5.683 94.3126 3.74999C95.1228 3.56436 95.933 3.37874 96.7677 3.18749C102.747 1.87323 102.747 1.87323 105 2.99999Z" fill="white"/>
<path d="M36.6875 108.75C37.7806 108.833 38.8737 108.915 40 109C40 110.32 40 111.64 40 113C39.9952 115.148 39.9952 115.148 41 117C42.9775 117.731 44.9807 118.394 47 119C48.9375 120.312 48.9375 120.312 50 122C49.9375 124.562 49.9375 124.562 49 127C45.7017 129.664 42.0712 129.351 38 129C33.9193 127.43 31.0791 125.927 29 122C28.6875 119.375 28.6875 119.375 29 117C29.66 116.34 30.32 115.68 31 115C30.67 114.34 30.34 113.68 30 113C31.896 109.431 32.5196 109.033 36.6875 108.75Z" fill="white"/>
<path d="M64 31C64.33 31.66 64.66 32.32 65 33C64.2682 35.072 63.441 37.1109 62.5625 39.125C62.0894 40.2207 61.6163 41.3164 61.1289 42.4453C60.7563 43.2884 60.3838 44.1314 60 45C60.5311 44.1454 61.0622 43.2907 61.6093 42.4102C62.669 40.7531 62.669 40.7531 63.75 39.0625C64.4461 37.9604 65.1422 36.8582 65.8593 35.7227C68 33 68 33 72 32C69.36 37.61 66.72 43.22 64 49C65.98 51.64 67.96 54.28 70 57C69.67 57.66 69.34 58.32 69 59C64.545 56.03 64.545 56.03 60 53C56.5337 54.7332 55.4522 55.311 53.25 58.125C52.5075 59.0738 51.765 60.0225 51 61C49.2313 55.6939 52.2965 50.5396 54.125 45.4375C54.5168 44.2754 54.9087 43.1133 55.3125 41.916C55.7069 40.8081 56.1014 39.7001 56.5078 38.5586C57.0436 37.0319 57.0436 37.0319 57.5903 35.4744C59.3189 32.4401 60.6987 31.919 64 31Z" fill="white"/>
<path d="M77 34C78.32 34 79.64 34 81 34C81 45.5072 81 45.5072 79.5625 50.5625C79.2957 51.5125 79.0288 52.4626 78.7539 53.4414C78.2048 55.3051 77.6144 57.1568 77 59C74.707 59.3047 74.707 59.3047 72 59C70.1992 56.8828 70.1992 56.8828 68.6875 54.125C68.1757 53.2201 67.664 52.3152 67.1367 51.3828C66 49 66 49 66 47C67.32 46.67 68.64 46.34 70 46C69.67 45.01 69.34 44.02 69 43C70.3984 40.9922 70.3984 40.9922 72.375 38.875C73.0221 38.1712 73.6692 37.4673 74.3359 36.7422C75.2162 35.8206 76.0989 34.9011 77 34Z" fill="white"/>
<path d="M109.75 38.9375C110.735 38.9465 111.72 38.9556 112.734 38.9649C113.856 38.9823 113.856 38.9823 115 39C114.291 42.1602 113.456 45.0985 112 48C110.262 48.9478 108.519 49.8943 106.711 50.6992C103.548 53.104 102.903 56.95 101.824 60.6367C101 63 101 63 99 64C98.8846 55.9297 99.0996 48.0233 100 40C103.311 38.9989 106.301 38.8964 109.75 38.9375Z" fill="white"/>
<path d="M32.0001 56C32.0001 56.99 32.0001 57.98 32.0001 59C28.3701 59 24.7401 59 21.0001 59C21.0001 59.66 21.0001 60.32 21.0001 61C24.3001 61.99 27.6001 62.98 31.0001 64C29.7001 69.2 29.7001 69.2 27.0001 71C23.3126 71.1875 23.3126 71.1875 20.0001 71C15.9667 65.202 15.494 60.9863 16.0001 54C22.7747 51.5805 25.9784 52.1244 32.0001 56Z" fill="white"/>
<path d="M57 34C56.67 35.32 56.34 36.64 56 38C53.525 37.505 53.525 37.505 51 37C48.03 41.455 48.03 41.455 45 46C45.9694 46.2681 46.9388 46.5362 47.9375 46.8125C48.9481 47.2044 49.9588 47.5962 51 48C52 51 52 51 50.9102 53.5078C48.6574 56.447 46.821 57.4243 43.4375 58.875C42.4668 59.3055 41.4962 59.7361 40.4961 60.1797C38 61 38 61 36 60C38.64 57.03 41.28 54.06 44 51C42.35 49.68 40.7 48.36 39 47C39.4903 42.7557 40.5546 40.9821 43.8125 38.25C44.4996 37.657 45.1866 37.0641 45.8945 36.4531C49.5127 33.956 52.686 33.8802 57 34Z" fill="white"/>
<path d="M58 52C62.1145 53.4522 65.5695 55.2875 69 58C69 59.32 69 60.64 69 62C69.99 61.67 70.98 61.34 72 61C71.67 62.32 71.34 63.64 71 65C70.34 64.67 69.68 64.34 69 64C67.2057 64 65.4113 64.0087 63.6172 64.0352C57.6482 64.0947 51.9186 63.7762 46 63C46 62.67 46 62.34 46 62C47.65 62 49.3 62 51 62C51.2269 61.4638 51.4537 60.9275 51.6875 60.375C53.4338 57.215 55.6403 54.7323 58 52Z" fill="#EEEEEE"/>
<path d="M56 9C57 12 57 12 55.7852 14.6992C55.2167 15.6854 54.6482 16.6715 54.0625 17.6875C53.2137 19.1783 53.2137 19.1783 52.3477 20.6992C51.9029 21.4585 51.4582 22.2177 51 23C53.97 23.33 56.94 23.66 60 24C57.1968 26.9988 54.4057 29.1632 50.875 31.25C50.0062 31.7708 49.1373 32.2916 48.2422 32.8281C46 34 46 34 44 34C44 34.66 44 35.32 44 36C43.01 36.33 42.02 36.66 41 37C40.67 36.34 40.34 35.68 40 35C41.0322 32.6016 41.0322 32.6016 42.6406 29.625C43.5049 28.024 43.5049 28.024 44.3867 26.3906C45.0016 25.2717 45.6165 24.1528 46.25 23C46.8494 21.8811 47.4488 20.7622 48.0664 19.6094C52.6166 11.2556 52.6166 11.2556 56 9Z" fill="#F2F2F2"/>
<path d="M109.313 37.4375C110.916 37.5902 110.916 37.5902 112.551 37.7461C113.763 37.8718 113.763 37.8718 115 38C115 38.33 115 38.66 115 39C110.05 39.33 105.1 39.66 100 40C100.021 41.5469 100.041 43.0937 100.063 44.6875C100.071 51.1576 99.5736 57.5588 99.0001 64C98.6701 64 98.3401 64 98.0001 64C97.3401 58.39 96.6801 52.78 96.0001 47C94.0201 51.455 94.0201 51.455 92.0001 56C91.3401 56 90.6801 56 90.0001 56C89.9513 54.0006 89.9637 51.9997 90.0001 50C90.0207 48.8244 90.0414 47.6487 90.0626 46.4375C91.1961 42.2815 92.5526 41.2591 96.0157 38.9453C100.481 36.8181 104.464 36.958 109.313 37.4375Z" fill="#EBEBEB"/>
<path d="M32 107C33.4162 106.946 34.8331 106.907 36.25 106.875C37.0389 106.852 37.8278 106.829 38.6406 106.805C41.2765 107.023 42.7845 107.57 45 109C47 112 47 112 47.9375 115.5C49.0569 119.477 49.0569 119.477 52 122C54.6257 122.251 54.6257 122.251 57 122C57.6875 124.312 57.6875 124.312 58 127C56.8125 128.875 56.8125 128.875 55 130C52.9883 129.816 52.9883 129.816 51 129C50.0234 127.223 50.0234 127.223 49.375 125.062C48.5065 122.247 48.1362 121.136 46 119C44.0164 118.286 42.0168 117.614 40 117C40 115.68 40 114.36 40 113C39.34 112.67 38.68 112.34 38 112C38.66 111.01 39.32 110.02 40 109C39.0512 109.041 38.1025 109.082 37.125 109.125C34 109 34 109 32 107Z" fill="#CECECE"/>
<path d="M94 12C95.0704 15.2112 94.9388 16.604 94.4414 19.8867C94.3028 20.8245 94.1643 21.7623 94.0215 22.7285C93.7943 24.1932 93.7943 24.1932 93.5625 25.6875C93.4149 26.6756 93.2673 27.6636 93.1152 28.6816C92.7498 31.122 92.3757 33.5612 92 36C87.545 37.485 87.545 37.485 83 39C85.2645 29.6474 87.8294 19.5877 94 12Z" fill="white"/>
<path d="M92.3751 38.6875C93.2414 39.1206 94.1076 39.5538 95.0001 40C92.6406 42.3595 91.2212 42.4914 88.0001 43C86.0319 48.8226 84.598 53.8338 85.0001 60C88.6301 60 92.2601 60 96.0001 60C91.4375 63.422 89.4231 63.7652 84.0001 63C81.4376 62.0625 81.4376 62.0625 80.0001 60C79.8681 56.9064 80.4064 54.0277 81.0001 51C81.1567 49.9153 81.1567 49.9153 81.3165 48.8086C81.9901 45.072 83.0491 42.4843 85.7501 39.875C89.0001 38 89.0001 38 92.3751 38.6875Z" fill="white"/>
<path d="M91 78C91.99 78.33 92.98 78.66 94 79C94.1031 80.0519 94.2062 81.1037 94.3125 82.1875C94.9932 85.9621 95.6233 88.0291 98 91C99.6499 91.7071 101.316 92.3794 103 93C103.33 93.99 103.66 94.98 104 96C103.34 96.99 102.68 97.98 102 99C99.375 99.1875 99.375 99.1875 97 99C95.2354 95.9119 95 94.7669 95 91C92.7492 87.6238 90.8001 85.4929 87 84C87.3125 82.125 87.3125 82.125 88 80C88.99 79.34 89.98 78.68 91 78Z" fill="#C9C9C9"/>
<path d="M88 18C89.7553 22.1382 88.09 25.6928 86.6875 29.6875C86.4613 30.3765 86.235 31.0655 86.002 31.7754C84.2644 36.8678 84.2644 36.8678 82 38C82 36.35 82 34.7 82 33C79.69 33.33 77.38 33.66 75 34C78.252 28.0699 82.333 21.778 88 18Z" fill="#F5F5F5"/>
<path d="M74 34C74.99 34.33 75.98 34.66 77 35C76.5063 35.5543 76.0126 36.1086 75.5039 36.6797C74.5429 37.7664 74.5429 37.7664 73.5625 38.875C72.9244 39.5943 72.2863 40.3136 71.6289 41.0547C69.9498 42.9075 69.9498 42.9075 69 45C69.66 45.33 70.32 45.66 71 46C69.35 46.33 67.7 46.66 66 47C67.98 50.63 69.96 54.26 72 58C71.34 58.66 70.68 59.32 70 60C69.056 58.3398 68.112 56.6797 67.1679 55.0195C65.9906 52.8801 65.9906 52.8801 64.1875 50.6562C63 48 63 48 64.0195 44.8867C64.907 43.3031 64.907 43.3031 65.8125 41.6875C66.3964 40.6189 66.9804 39.5502 67.582 38.4492C68.0499 37.641 68.5179 36.8327 69 36C70.32 36 71.64 36 73 36C73.33 35.34 73.66 34.68 74 34Z" fill="#E2E2E2"/>
<path d="M80 33C80.66 33 81.32 33 82 33C82.33 34.65 82.66 36.3 83 38C84.98 37.67 86.96 37.34 89 37C88.25 38.875 88.25 38.875 87 41C86.3194 41.2475 85.6388 41.495 84.9375 41.75C83.9784 42.3687 83.9784 42.3687 83 43C82.3587 46.3118 82.3587 46.3118 82.2148 48.6914C81.8571 52.5356 80.894 56.2504 80 60C79.01 59.34 78.02 58.68 77 58C77.4766 56.2076 77.9563 54.4161 78.4375 52.625C78.7043 51.6273 78.9712 50.6295 79.2461 49.6016C80 47 80 47 81 45C80.34 44.67 79.68 44.34 79 44C79.33 43.01 79.66 42.02 80 41C80.0667 39.6056 80.0854 38.2083 80.0625 36.8125C80.0419 35.5544 80.0213 34.2962 80 33Z" fill="#E6E6E6"/>
<path d="M89.9999 45C90.3299 45 90.6599 45 90.9999 45C90.6699 48.63 90.3399 52.26 89.9999 56C92.7425 53.2574 93.502 52.2559 94.6874 48.8125C94.9388 48.0971 95.1901 47.3816 95.4491 46.6445C95.6309 46.1018 95.8126 45.5591 95.9999 45C96.3299 45 96.6599 45 96.9999 45C96.9999 49.29 96.9999 53.58 96.9999 58C93.6999 58 90.3999 58 86.9999 58C86.7286 52.664 86.5732 49.3862 89.9999 45Z" fill="white"/>
<path d="M88.9999 67C90.6499 67.33 92.2999 67.66 93.9999 68C93.1121 71.699 92.0541 75.3455 90.9999 79C89.3499 78.67 87.6999 78.34 85.9999 78C85.6306 71.6 85.6306 71.6 87.4999 68.5625C87.9949 68.0469 88.4899 67.5312 88.9999 67ZM96.9999 68C97.9899 68.495 97.9899 68.495 98.9999 69C98.0099 69.495 98.0099 69.495 96.9999 70C96.9999 69.34 96.9999 68.68 96.9999 68Z" fill="white"/>
<path d="M116 48C117.073 51.2192 116.799 51.9021 116 55C116.33 55.66 116.66 56.32 117 57C119.527 57.6556 119.527 57.6556 122 58C120.855 59.1137 120.855 59.1137 119.688 60.25C117.561 62.4263 115.744 64.5217 114 67C114 64.69 114 62.38 114 60C112.68 59.67 111.36 59.34 110 59C111.98 55.37 113.96 51.74 116 48Z" fill="white"/>
<path d="M21 58C23.97 58 26.94 58 30 58C32.0923 62.4308 32.0923 62.4308 31.625 65.3125C31.4188 65.8694 31.2125 66.4262 31 67C31 66.01 31 65.02 31 64C29.0143 63.8047 27.0286 63.6094 25.043 63.4141C23 63 23 63 20 61C20.33 60.01 20.66 59.02 21 58Z" fill="#D6D6D6"/>
<path d="M109 50C110.65 50 112.3 50 114 50C111.849 53.8566 109.765 57.5432 107 61C108.65 61 110.3 61 112 61C111.67 61.99 111.34 62.98 111 64C108.36 64 105.72 64 103 64C104.37 60.005 106.257 57.1999 109 54C108.34 54 107.68 54 107 54C107.66 52.68 108.32 51.36 109 50Z" fill="white"/>
<path d="M96.9999 41C97.9899 41 98.9799 41 99.9999 41C100.157 48.7159 99.6744 56.3152 98.9999 64C98.6699 64 98.3399 64 97.9999 64C97.6362 60.5426 97.2855 57.084 96.9374 53.625C96.8336 52.6402 96.7299 51.6553 96.6229 50.6406C96.5295 49.6996 96.436 48.7586 96.3397 47.7891C96.2507 46.9198 96.1617 46.0504 96.07 45.1548C95.9999 43 95.9999 43 96.9999 41Z" fill="#BBBBBB"/>
<path d="M24 2C27.0055 3.50274 27.8508 5.92286 29.5 8.8125C30.1084 9.87082 30.7169 10.9291 31.3438 12.0195C32.6245 14.3243 33.8512 16.6278 35 19C34.34 19.66 33.68 20.32 33 21C28.2519 15.7243 24 9.20162 24 2Z" fill="#E7E7E7"/>
<path d="M62 103C64.9932 104.098 65.8461 104.677 67.25 107.625C67.4975 108.409 67.745 109.192 68 110C66.02 109.34 64.04 108.68 62 108C62.33 109.65 62.66 111.3 63 113C59.1862 111.502 57.4263 109.235 55 106C54.34 105.34 53.68 104.68 53 104C55.8672 104.573 56.8615 104.861 59 107C61.1082 106.681 61.1082 106.681 63 106C62.67 105.01 62.34 104.02 62 103Z" fill="#999999"/>
<path d="M108 49C108 49.99 108 50.98 108 52C108.66 52.66 109.32 53.32 110 54C108.02 56.64 106.04 59.28 104 62C103.34 61.67 102.68 61.34 102 61C103.33 52.6499 103.33 52.6499 106.125 49.9375C107.053 49.4734 107.053 49.4734 108 49Z" fill="#E2E2E2"/>
<path d="M91 78C91.99 78.33 92.98 78.66 94 79C94.6875 81.0625 94.6875 81.0625 95 83C93.68 83.99 92.36 84.98 91 86C89.68 85.34 88.36 84.68 87 84C87.3125 82.125 87.3125 82.125 88 80C88.99 79.34 89.98 78.68 91 78Z" fill="#EDEDED"/>
<path d="M33 109C36.6875 108.688 36.6875 108.688 40 109C39.0191 111.452 38.313 112.781 36.125 114.312C33.6499 115.113 32.4171 114.863 30 114C31.0625 111.5 31.0625 111.5 33 109Z" fill="white"/>
<path d="M64 94C64.66 94 65.32 94 66 94C66 94.99 66 95.98 66 97C66.9488 97.3094 67.8975 97.6188 68.875 97.9375C72 99 72 99 74 100C74 100.66 74 101.32 74 102C71.2374 102.597 68.8397 103 66 103C65.34 102.01 64.68 101.02 64 100C64.99 99.67 65.98 99.34 67 99C66.01 98.34 65.02 97.68 64 97C64 96.01 64 95.02 64 94Z" fill="#979797"/>
<path d="M56 9C57 12 57 12 56.1445 14.2266C55.4852 15.4138 55.4852 15.4138 54.8125 16.625C54.3858 17.4216 53.9591 18.2183 53.5195 19.0391C52 21 52 21 49.8242 21.7734C48.9212 21.8856 48.9212 21.8856 48 22C52 11 52 11 56 9Z" fill="#E8E8E8"/>
<path d="M32 107C33.4162 106.946 34.8331 106.907 36.25 106.875C37.0389 106.852 37.8278 106.829 38.6406 106.805C41.2073 107.017 42.7916 107.713 45 109C44.01 109.495 44.01 109.495 43 110C43 110.66 43 111.32 43 112C41.35 112.33 39.7 112.66 38 113C38.66 111.68 39.32 110.36 40 109C39.0512 109.041 38.1025 109.082 37.125 109.125C34 109 34 109 32 107Z" fill="#9A9A9A"/>
<path d="M64 46C65.98 46 67.96 46 70 46C68.68 46.33 67.36 46.66 66 47C67.98 50.63 69.96 54.26 72 58C71.34 58.66 70.68 59.32 70 60C69.0304 58.2948 68.061 56.5894 67.0938 54.8828C66.1692 53.2912 65.1846 51.7347 64.1875 50.1875C63.7956 49.4656 63.4038 48.7437 63 48C63.33 47.34 63.66 46.68 64 46Z" fill="#D0D0D0"/>
<path d="M65 29C64.67 29.99 64.34 30.98 64 32C62.0625 32.5625 62.0625 32.5625 60 33C59.34 33.66 58.68 34.32 58 35C55.3116 35.2699 52.7086 35.0874 50 35C50 34.34 50 33.68 50 33C52.1239 32.3299 54.2492 31.664 56.375 31C57.5584 30.6287 58.7417 30.2575 59.9609 29.875C63 29 63 29 65 29Z" fill="#D4D4D4"/>
<path d="M81 45C81.66 45 82.32 45 83 45C82.01 49.95 81.02 54.9 80 60C79.01 59.34 78.02 58.68 77 58C77.4766 56.2076 77.9563 54.4161 78.4375 52.625C78.7043 51.6273 78.9712 50.6295 79.2461 49.6016C80 47 80 47 81 45Z" fill="#C6C6C6"/>
<path d="M39 74C39.66 74.33 40.32 74.66 41 75C40.67 75.33 40.34 75.66 40 76C39.9279 77.6861 39.9161 79.375 39.9375 81.0625C39.951 82.4412 39.951 82.4412 39.9648 83.8477C39.9764 84.5579 39.988 85.2682 40 86C37 87 37 87 34.957 86.2227C34.2493 85.8398 33.5416 85.457 32.8125 85.0625C32.0971 84.6822 31.3816 84.302 30.6445 83.9102C30.1018 83.6098 29.5591 83.3095 29 83C32 82 32 82 35.1875 83.4375C36.1156 83.9531 37.0437 84.4688 38 85C37.9884 84.2897 37.9768 83.5795 37.9648 82.8477C37.9513 81.469 37.9513 81.469 37.9375 80.0625C37.9259 79.146 37.9143 78.2295 37.9023 77.2852C38 75 38 75 39 74Z" fill="#C1C1C1"/>
<path d="M113 51C113.66 51.33 114.32 51.66 115 52C113.958 53.7253 112.917 55.4505 111.875 57.1758C110.784 59.1136 110.784 59.1136 111 62C109.35 62 107.7 62 106 62C108.31 58.37 110.62 54.74 113 51Z" fill="#CDCDCD"/>
<path d="M79 6C79.66 6.66 80.32 7.32 81 8C78.36 9.98 75.72 11.96 73 14C73 11 73 11 74.3125 9.61328C75.875 8.40885 77.4375 7.20443 79 6Z" fill="#E1E1E1"/>
<path d="M109 50C110.65 50 112.3 50 114 50C113.01 51.98 112.02 53.96 111 56C108 55 108 55 107 54C107.66 52.68 108.32 51.36 109 50Z" fill="white"/>
<path d="M109.312 37.4375C110.915 37.5903 110.915 37.5903 112.551 37.7461C113.763 37.8718 113.763 37.8718 115 38C115 38.33 115 38.66 115 39C112.73 39.2219 110.459 39.4271 108.188 39.625C106.291 39.799 106.291 39.799 104.355 39.9766C101 40 101 40 98 38C101.946 37.0116 105.274 37.0381 109.312 37.4375Z" fill="#C6C6C6"/>
<path d="M56 124C56.66 124.99 57.32 125.98 58 127C56.75 128.562 56.75 128.562 55 130C52.8125 129.688 52.8125 129.688 51 129C51 128.34 51 127.68 51 127C53.5 125.375 53.5 125.375 56 124Z" fill="white"/>
<path d="M89 38C90.98 38.66 92.96 39.32 95 40C92.4345 42.5655 90.5231 42.5405 87 43C87.875 39.125 87.875 39.125 89 38Z" fill="white"/>
<path d="M56 122C56 122.99 56 123.98 56 125C51.6667 128 51.6667 128 50 128C50 126.35 50 124.7 50 123C50.33 123.66 50.66 124.32 51 125C51.33 124.34 51.66 123.68 52 123C54.0625 122.375 54.0625 122.375 56 122Z" fill="#848484"/>
<path d="M102 93C102.66 93.33 103.32 93.66 104 94C103.34 95.65 102.68 97.3 102 99C100.35 99 98.7 99 97 99C97 98.34 97 97.68 97 97C97.6394 96.7113 98.2788 96.4225 98.9375 96.125C101.152 95.1718 101.152 95.1718 102 93Z" fill="white"/>
<path d="M100 92C100.66 92 101.32 92 102 92C101.812 93.875 101.812 93.875 101 96C98.4375 97.25 98.4375 97.25 96 98C95.67 97.01 95.34 96.02 95 95C95.6394 94.6906 96.2788 94.3812 96.9375 94.0625C98.9361 93.1655 98.9361 93.1655 100 92Z" fill="#707070"/>
<path d="M91 78C91.99 78.33 92.98 78.66 94 79C91.6371 81.5259 90.3354 82.8882 87 84C87.3125 82.125 87.3125 82.125 88 80C88.99 79.34 89.98 78.68 91 78Z" fill="#BCBCBC"/>
<path d="M108 49C108 49.99 108 50.98 108 52C108.66 52.66 109.32 53.32 110 54C108.35 54.66 106.7 55.32 105 56C104.67 54.68 104.34 53.36 104 52C105.32 51.01 106.64 50.02 108 49Z" fill="#BBBBBB"/>
<path d="M19 86C22.356 86.5993 24.378 87.8462 27 90C24.03 89.67 21.06 89.34 18 89C18.33 88.01 18.66 87.02 19 86Z" fill="#C0C0C0"/>
</svg>
