<svg width="246" height="41" fill="none" xmlns="http://www.w3.org/2000/svg"><g clip-path="url(#clip0_458_951)"><path d="M15.632 13.814a.435.435 0 01.325-.132h4.507a.437.437 0 01.326.132.441.441 0 01.136.331v26.082a.442.442 0 01-.136.331.437.437 0 01-.326.132h-4.36a.525.525 0 01-.525-.31L5.6 23.866c-.052-.081-.105-.113-.157-.095-.047 0-.074.068-.074.174l.074 16.307a.458.458 0 01-.283.431.444.444 0 01-.18.032H.474a.44.44 0 01-.326-.132.463.463 0 01-.136-.331V14.172a.463.463 0 01.286-.431.44.44 0 01.176-.032h4.354a.556.556 0 01.526.305l9.937 16.439c.053.08.105.112.158.094.047 0 .073-.068.073-.173l-.037-16.202a.444.444 0 01.148-.358zM31.342 39.843a8.503 8.503 0 01-3.504-3.262 9.275 9.275 0 01-1.255-4.845v-17.59a.464.464 0 01.286-.432.439.439 0 01.176-.032h4.507a.444.444 0 01.33.132.462.462 0 01.137.331v17.633a4.461 4.461 0 001.25 3.299 4.447 4.447 0 003.294 1.252 4.441 4.441 0 003.293-1.252 4.461 4.461 0 001.255-3.299V14.145a.46.46 0 01.132-.331.446.446 0 01.33-.132h4.523a.439.439 0 01.326.132.462.462 0 01.136.331v17.591a9.275 9.275 0 01-1.255 4.845 8.503 8.503 0 01-3.504 3.262A11.246 11.246 0 0136.58 41a11.246 11.246 0 01-5.237-1.157zM52.3 26.897a.442.442 0 01-.132-.326V.484A.442.442 0 0152.3.158.453.453 0 0152.63.02h9.628a11.766 11.766 0 015.069 1.026 7.882 7.882 0 013.372 2.872 7.752 7.752 0 011.192 4.282v10.653a7.752 7.752 0 01-1.192 4.282 7.882 7.882 0 01-3.372 2.872 11.767 11.767 0 01-5.069 1.052H52.63a.452.452 0 01-.33-.163zm5.494-4.535h4.659a3.729 3.729 0 002.873-1.194 4.738 4.738 0 001.134-3.203V9.09a4.57 4.57 0 00-1.098-3.203 3.828 3.828 0 00-2.946-1.195h-4.622a.168.168 0 00-.195.19v17.28a.168.168 0 00.195.18v.02zM76.15 40.574a.441.441 0 01-.136-.332v-4.166c0-.209.068-.412.194-.579L88.641 18.58a.1.1 0 000-.153.194.194 0 00-.173-.079H76.476a.436.436 0 01-.326-.131.432.432 0 01-.136-.332v-3.74a.441.441 0 01.136-.331.435.435 0 01.326-.132h17.859a.442.442 0 01.325.132.463.463 0 01.137.331v4.166a.958.958 0 01-.194.58L82.159 35.791a.159.159 0 000 .153.159.159 0 00.158.078h11.997a.44.44 0 01.325.132.464.464 0 01.137.331v3.74a.464.464 0 01-.286.432.44.44 0 01-.176.032H76.455a.436.436 0 01-.305-.116z" fill="#fff"></path><path d="M111.935 13.099a.175.175 0 01.132-.053h1.827a.175.175 0 01.171.113.173.173 0 01.013.071V23.81a.174.174 0 01-.052.131.175.175 0 01-.132.053h-1.764a.23.23 0 01-.221-.121l-4.044-6.697c0-.031-.042-.047-.063-.042-.021.006-.032.032-.032.074l.032 6.602a.18.18 0 01-.19.184h-1.822a.185.185 0 01-.137-.053.174.174 0 01-.052-.131v-10.59a.182.182 0 01.052-.131.188.188 0 01.137-.052h1.759a.222.222 0 01.216.126l4.028 6.66c0 .031.042.047.063.042.021-.006.032-.032.032-.074v-6.57a.192.192 0 01.047-.121zM123.044 23.84l-.467-1.536c-.021-.042-.047-.063-.079-.063h-3.839c-.032 0-.058.021-.079.063l-.452 1.536a.198.198 0 01-.205.153h-1.97a.162.162 0 01-.136-.053.166.166 0 010-.163l3.372-10.573a.199.199 0 01.205-.158h2.448a.2.2 0 01.204.158l3.372 10.573a.15.15 0 010 .08c0 .088-.057.136-.168.136h-1.985a.2.2 0 01-.221-.153zm-3.839-3.303h2.747c.063 0 .084-.032.063-.095l-1.408-4.645c0-.042 0-.058-.042-.053a.067.067 0 00-.047.053l-1.376 4.645c-.025.063-.004.095.063.095zm.341-8.522a.18.18 0 01-.019-.08.18.18 0 01.019-.078l.83-1.578a.237.237 0 01.231-.137h1.576a.152.152 0 01.147.232l-1.113 1.578a.235.235 0 01-.216.12h-1.313a.153.153 0 01-.142-.057zM132.872 23.856l-1.954-4.334a.108.108 0 00-.037-.047.1.1 0 00-.058-.017h-1.449a.071.071 0 00-.033.003.071.071 0 00-.027.017.074.074 0 00-.017.027.07.07 0 00-.002.032v4.272a.177.177 0 01-.058.131.17.17 0 01-.131.053h-1.828a.17.17 0 01-.131-.053.177.177 0 01-.058-.131v-10.59a.187.187 0 01.058-.13.17.17 0 01.131-.053h4.47a3.671 3.671 0 011.754.405c.496.262.903.664 1.171 1.157a3.5 3.5 0 01.415 1.736 3.123 3.123 0 01-.525 1.825 2.828 2.828 0 01-1.486 1.052.073.073 0 00-.032.015.066.066 0 00-.02.028.076.076 0 00.004.067l2.101 4.43a.245.245 0 01.032.095c0 .079-.058.12-.173.12h-1.923a.225.225 0 01-.194-.11zm-3.577-8.843v2.678a.07.07 0 00.002.032c.004.01.009.02.017.028a.071.071 0 00.027.017.073.073 0 00.033.002h2.043c.388.01.765-.132 1.05-.395a1.33 1.33 0 00.415-1.015 1.36 1.36 0 00-.1-.556 1.362 1.362 0 00-.315-.47 1.493 1.493 0 00-1.05-.394h-2.043c-.053 0-.079.026-.079.073zM138.734 23.667a3.624 3.624 0 01-1.445-1.4 4.128 4.128 0 01-.525-2.072v-3.351a4.05 4.05 0 01.525-2.046 3.56 3.56 0 011.445-1.384 4.495 4.495 0 012.148-.494 4.517 4.517 0 012.164.494 3.523 3.523 0 011.444 1.384c.356.622.538 1.329.526 2.046v3.35a4.108 4.108 0 01-.526 2.105 3.492 3.492 0 01-1.444 1.4 4.517 4.517 0 01-2.164.494 4.492 4.492 0 01-2.148-.526zm3.54-1.941a2 2 0 00.525-1.452v-3.446a2.038 2.038 0 00-.525-1.462 1.836 1.836 0 00-1.397-.553 1.81 1.81 0 00-1.382.553c-.359.4-.548.925-.525 1.462v3.446a2.021 2.021 0 00.525 1.452 1.816 1.816 0 001.382.526 1.849 1.849 0 001.397-.526zM147.059 23.94a.167.167 0 01-.053-.131v-10.59a.186.186 0 01.053-.132.183.183 0 01.131-.053h3.908a4.718 4.718 0 012.053.417c.558.247 1.033.65 1.366 1.162.329.519.497 1.123.483 1.736v4.32a3.106 3.106 0 01-.483 1.735 3.152 3.152 0 01-1.366 1.163 4.717 4.717 0 01-2.053.415h-3.908a.181.181 0 01-.131-.042zm2.227-1.84h1.891a1.479 1.479 0 001.16-.485c.313-.357.478-.82.463-1.294v-3.598a1.832 1.832 0 00-.447-1.3 1.52 1.52 0 00-1.192-.483h-1.875c-.053 0-.079 0-.079.073v7.012c0 .053.026.074.079.074zM163.305 13.099a.175.175 0 01.132-.053h1.828a.173.173 0 01.131.053.192.192 0 01.058.131V23.81a.182.182 0 01-.058.131.173.173 0 01-.131.053H163.5a.229.229 0 01-.221-.121l-4.044-6.697c0-.031-.042-.047-.063-.042-.021.006-.032.032-.032.074l.032 6.602a.175.175 0 01-.053.131.186.186 0 01-.131.053h-1.828a.185.185 0 01-.137-.053.174.174 0 01-.052-.131v-10.59a.182.182 0 01.052-.131.188.188 0 01.137-.052h1.765a.219.219 0 01.215.126l4.029 6.66c0 .031.042.047.063.042.021-.006.031-.032.031-.074v-6.57c0-.044.015-.087.042-.121zM167.723 23.94a.168.168 0 01-.053-.131v-10.59a.185.185 0 01.115-.172.185.185 0 01.074-.012h1.823a.185.185 0 01.136.053.185.185 0 01.053.132v10.578a.174.174 0 01-.053.132.187.187 0 01-.062.04.189.189 0 01-.074.012h-1.823a.183.183 0 01-.136-.042zm.042-11.925a.167.167 0 01-.019-.08c0-.027.006-.053.019-.078l.824-1.578a.237.237 0 01.237-.137h1.575c.074 0 .126 0 .147.069a.148.148 0 01.025.081.148.148 0 01-.025.082l-1.108 1.578a.24.24 0 01-.22.12h-1.314a.144.144 0 01-.141-.058zM177.377 23.65a3.487 3.487 0 01-1.424-1.32 3.789 3.789 0 01-.525-1.967V13.22a.192.192 0 01.052-.132.175.175 0 01.132-.053h1.828a.18.18 0 01.136.053.207.207 0 01.053.131v7.15a1.816 1.816 0 00.525 1.34 1.804 1.804 0 001.334.527 1.81 1.81 0 001.334-.526 1.836 1.836 0 00.526-1.342V13.22a.184.184 0 01.112-.172.176.176 0 01.071-.013h1.828a.187.187 0 01.137.053.184.184 0 01.052.132v7.133a3.749 3.749 0 01-.525 1.967 3.444 3.444 0 01-1.418 1.32c-.654.32-1.374.48-2.101.469a4.591 4.591 0 01-2.127-.458zm1.103-11.635a.167.167 0 01-.019-.08c0-.027.006-.054.019-.078l.824-1.578a.237.237 0 01.237-.137h1.575a.154.154 0 01.084.013.147.147 0 01.063.056.14.14 0 01.025.081.14.14 0 01-.025.082l-1.108 1.578a.24.24 0 01-.22.12h-1.313c-.079 0-.127-.02-.163-.057h.021zM187.225 23.74a3.199 3.199 0 01-1.445-1.141 2.958 2.958 0 01-.525-1.726v-.347a.195.195 0 01.053-.131.179.179 0 01.136-.053h1.781a.17.17 0 01.131.053.166.166 0 01.04.06.16.16 0 01.013.071v.237a1.288 1.288 0 00.578 1.052 2.589 2.589 0 001.575.426c.441.035.879-.09 1.235-.352a1.103 1.103 0 00.404-.868.884.884 0 00-.252-.631 2.102 2.102 0 00-.678-.453c-.283-.131-.74-.31-1.365-.526a12.889 12.889 0 01-1.776-.736 3.568 3.568 0 01-1.218-1.02 2.603 2.603 0 01-.489-1.605 2.796 2.796 0 01.484-1.642 3.067 3.067 0 011.344-1.083 4.966 4.966 0 011.98-.374 5.1 5.1 0 012.101.421 3.496 3.496 0 011.455 1.184c.353.517.537 1.13.526 1.757v.236a.175.175 0 01-.053.132.178.178 0 01-.131.058h-1.797a.177.177 0 01-.072-.015.183.183 0 01-.059-.043.182.182 0 01-.058-.132v-.173a1.428 1.428 0 00-.525-1.12 2.225 2.225 0 00-1.476-.458 1.882 1.882 0 00-1.15.31 1.02 1.02 0 00-.415.863.973.973 0 00.241.657c.206.205.451.366.72.474.315.142.809.331 1.476.573.593.211 1.175.452 1.744.72.442.225.831.543 1.14.932.353.448.539 1.007.525 1.578a2.8 2.8 0 01-1.051 2.325 4.584 4.584 0 01-2.92.852 5.493 5.493 0 01-2.227-.342zM202.819 13.098a.183.183 0 01.052.132v1.536a.174.174 0 01-.052.132.19.19 0 01-.131.057h-2.8c-.053 0-.079 0-.079.074v8.78a.174.174 0 01-.052.131.176.176 0 01-.132.053h-1.828a.174.174 0 01-.131-.053.182.182 0 01-.058-.131v-8.78c0-.047 0-.074-.078-.074h-2.716a.18.18 0 01-.131-.057.177.177 0 01-.058-.132v-1.547a.188.188 0 01.058-.131.17.17 0 01.131-.053h7.879a.183.183 0 01.126.063zM210.341 23.84l-.473-1.536c0-.042-.042-.063-.074-.063h-3.844c-.032 0-.058.021-.079.063l-.452 1.536a.198.198 0 01-.205.153h-1.98a.175.175 0 01-.142-.053.178.178 0 01-.021-.081c0-.029.008-.057.021-.082l3.372-10.573a.199.199 0 01.205-.158h2.453a.195.195 0 01.2.158l3.377 10.573a.175.175 0 010 .08c0 .089-.058.136-.173.136h-1.986a.193.193 0 01-.199-.153zm-3.845-3.303h2.752c.058 0 .079-.032.058-.095l-1.402-4.645c0-.042 0-.058-.048-.053a.068.068 0 00-.047.053l-1.376 4.645c-.011.063.01.095.063.095zM216.802 23.84l-3.22-10.579v-.057c0-.106.058-.158.173-.158h1.97a.206.206 0 01.215.158l2.101 7.633c0 .031.016.047.048.047 0 0 .036 0 .047-.047l2.043-7.633a.207.207 0 01.082-.12.208.208 0 01.139-.038h1.917a.17.17 0 01.079.014.174.174 0 01.063.049.156.156 0 010 .152l-3.262 10.58a.199.199 0 01-.205.153h-1.97a.194.194 0 01-.22-.153zM105.653 40.542a.186.186 0 01-.052-.137V29.833a.174.174 0 01.115-.172.185.185 0 01.074-.012h3.902a4.818 4.818 0 012.054.41 3.211 3.211 0 011.366 1.168c.329.518.497 1.122.483 1.736v4.319a3.106 3.106 0 01-.483 1.736 3.152 3.152 0 01-1.366 1.162 4.723 4.723 0 01-2.054.416h-3.902a.189.189 0 01-.137-.053zm2.227-1.84h1.891a1.483 1.483 0 001.161-.485c.312-.36.477-.823.462-1.3V33.32a1.823 1.823 0 00-.446-1.294 1.525 1.525 0 00-1.193-.49h-1.875a.068.068 0 00-.032.003.064.064 0 00-.027.016.063.063 0 00-.017.028.06.06 0 00-.002.032v7.007a.06.06 0 00.002.032c.003.01.009.02.017.028a.065.065 0 00.059.02zM117.415 40.253a3.421 3.421 0 01-1.419-1.326 3.73 3.73 0 01-.525-1.962v-7.133a.178.178 0 01.058-.131.168.168 0 01.131-.053h1.87a.173.173 0 01.131.053.167.167 0 01.053.131v7.149a1.82 1.82 0 00.525 1.336 1.793 1.793 0 001.334.526 1.805 1.805 0 001.865-1.862v-7.149a.178.178 0 01.058-.131.167.167 0 01.131-.053h1.828a.173.173 0 01.131.053.164.164 0 01.04.06.16.16 0 01.013.071v7.133a3.78 3.78 0 01-.526 1.962 3.464 3.464 0 01-1.423 1.326c-.653.32-1.373.48-2.101.468a4.606 4.606 0 01-2.174-.468zM127.262 40.321a3.23 3.23 0 01-1.445-1.141 3.016 3.016 0 01-.525-1.73v-.343a.178.178 0 01.058-.131.185.185 0 01.059-.043.184.184 0 01.072-.015h1.781a.18.18 0 01.131.058.178.178 0 01.058.132v.236a1.256 1.256 0 00.578 1.052 2.532 2.532 0 001.575.431c.441.036.879-.09 1.235-.352a1.085 1.085 0 00.404-.868.85.85 0 00-.247-.631 2.151 2.151 0 00-.677-.453c-.289-.131-.746-.31-1.371-.526a13.48 13.48 0 01-1.77-.736c-.483-.25-.9-.611-1.219-1.052a2.553 2.553 0 01-.494-1.578c-.01-.586.158-1.16.484-1.647a3.151 3.151 0 011.344-1.052 4.97 4.97 0 011.986-.373 5.12 5.12 0 012.101.42 3.423 3.423 0 011.449 1.184 2.99 2.99 0 01.526 1.757v.237c0 .024-.006.049-.015.072a.184.184 0 01-.043.06.168.168 0 01-.131.052h-1.797a.175.175 0 01-.131-.053.165.165 0 01-.04-.06.174.174 0 01-.013-.071v-.127a1.441 1.441 0 00-.525-1.12 2.205 2.205 0 00-1.476-.458 1.867 1.867 0 00-1.15.31 1.054 1.054 0 00-.41.863.942.942 0 00.242.658c.204.204.447.365.714.473.321.142.814.332 1.476.574.594.207 1.176.448 1.744.72.442.223.831.539 1.14.926.354.448.54 1.007.525 1.578a2.815 2.815 0 01-1.051 2.325 4.592 4.592 0 01-2.92.853 5.519 5.519 0 01-2.232-.41zm-.263-13.461c0-.084.053-.126.152-.126h1.408a.247.247 0 01.221.126l.625.957c.031.063.058.063.089 0l.625-.957a.247.247 0 01.221-.126h1.407c.03-.005.061 0 .088.013a.158.158 0 01.065.06c.01.028.012.058.006.086a.153.153 0 01-.038.077l-1.187 1.657a.242.242 0 01-.215.11h-2.101a.238.238 0 01-.216-.125l-1.139-1.642a.195.195 0 01-.027-.11h.016zM142.842 31.484a.176.176 0 01-.132.053h-5.121a.07.07 0 00-.032.002.064.064 0 00-.027.016.063.063 0 00-.017.028.059.059 0 00-.002.032v2.425a.06.06 0 00.002.033c.003.01.009.02.017.027a.064.064 0 00.027.017.068.068 0 00.032.002h3.357c.048 0 .095.02.131.053a.19.19 0 01.058.137v1.53a.177.177 0 01-.058.132.178.178 0 01-.131.058h-3.357a.068.068 0 00-.032.002.064.064 0 00-.027.017.063.063 0 00-.017.027.06.06 0 00-.002.033v2.53a.059.059 0 00.002.032c.003.01.009.02.017.028a.064.064 0 00.027.017.07.07 0 00.032.002h5.121a.175.175 0 01.132.058.168.168 0 01.042.06c.01.022.016.047.016.071v1.515a.19.19 0 01-.058.137.175.175 0 01-.132.053h-7.216a.175.175 0 01-.172-.116.186.186 0 01-.012-.074V29.848a.173.173 0 01.052-.132.175.175 0 01.132-.053h7.216a.175.175 0 01.132.053.167.167 0 01.042.06c.01.023.016.047.016.072v1.52a.183.183 0 01-.058.116zM147.537 40.437l-3.22-10.573V29.8c0-.1.058-.153.174-.153h1.969a.206.206 0 01.216.153l2.101 7.633c0 .031.015.047.047.047 0 0 .037 0 .047-.047l2.044-7.633a.209.209 0 01.22-.153h1.923a.17.17 0 01.136.058.167.167 0 010 .158l-3.262 10.573a.2.2 0 01-.205.158h-1.964a.198.198 0 01-.144-.034.196.196 0 01-.082-.124zM161.125 29.7a.188.188 0 01.137-.052h1.828a.174.174 0 01.131.053.175.175 0 01.053.131v10.574a.186.186 0 01-.053.136.17.17 0 01-.131.053h-1.765a.228.228 0 01-.221-.126l-4.044-6.692c0-.031-.042-.047-.063-.042-.021.005-.032.032-.032.074l.032 6.597a.21.21 0 01-.053.136.187.187 0 01-.062.04.189.189 0 01-.074.013h-1.828a.172.172 0 01-.131-.053.18.18 0 01-.053-.136V29.832a.168.168 0 01.053-.131.17.17 0 01.131-.053h1.765a.23.23 0 01.22.12l4.029 6.666c0 .031.042.047.063.042.021-.005.032-.032.032-.074v-6.57a.198.198 0 01.036-.131zM165.521 40.542a.186.186 0 01-.052-.137V29.833a.174.174 0 01.052-.131.175.175 0 01.132-.053h1.828a.176.176 0 01.131.053.184.184 0 01.043.06.196.196 0 01.015.071v10.574a.19.19 0 01-.058.136.17.17 0 01-.131.053h-1.828a.174.174 0 01-.132-.053zm.037-11.93a.169.169 0 01-.019-.077c0-.026.007-.052.019-.076l.83-1.578a.238.238 0 01.236-.142h1.576a.152.152 0 01.147.074.148.148 0 01.025.081.148.148 0 01-.025.082l-1.108 1.578a.247.247 0 01-.221.126h-1.313c-.077-.003-.126-.026-.147-.068zM175.753 29.7a.176.176 0 01.132-.053h1.827a.176.176 0 01.132.054.18.18 0 01.057.131v10.574a.189.189 0 01-.117.177.175.175 0 01-.072.012h-1.827a.175.175 0 01-.132-.053.19.19 0 01-.058-.137v-4.313a.059.059 0 00-.002-.032.063.063 0 00-.017-.028.064.064 0 00-.027-.017.07.07 0 00-.032-.002h-3.462a.07.07 0 00-.032.002.064.064 0 00-.027.017.063.063 0 00-.017.028.059.059 0 00-.002.032v4.314a.187.187 0 01-.113.177.173.173 0 01-.071.012h-1.839a.181.181 0 01-.136-.053.21.21 0 01-.053-.136V29.832a.195.195 0 01.053-.131.179.179 0 01.136-.053h1.828a.169.169 0 01.131.053.169.169 0 01.053.131v4.208a.07.07 0 00.002.033c.004.01.009.02.017.027a.068.068 0 00.028.017c.01.003.021.004.032.002h3.451a.07.07 0 00.032-.002c.01-.003.02-.01.027-.017a.063.063 0 00.017-.027.059.059 0 00.002-.033v-4.208a.18.18 0 01.079-.131zM181.746 40.269a3.681 3.681 0 01-1.444-1.4 4.127 4.127 0 01-.525-2.072v-3.351a4.039 4.039 0 01.525-2.046 3.64 3.64 0 011.444-1.39 4.556 4.556 0 012.149-.488 4.577 4.577 0 012.164.489 3.567 3.567 0 011.444 1.389c.356.622.538 1.329.525 2.046v3.35a4.097 4.097 0 01-.525 2.105 3.493 3.493 0 01-1.444 1.4 4.516 4.516 0 01-2.164.494 4.5 4.5 0 01-2.149-.526zm3.541-1.941a2.013 2.013 0 00.525-1.458v-3.44a2.038 2.038 0 00-.525-1.462 1.831 1.831 0 00-1.398-.526 1.814 1.814 0 00-1.381.526c-.359.4-.548.925-.525 1.462v3.462c-.025.536.164 1.06.525 1.457a1.832 1.832 0 001.381.526 1.86 1.86 0 001.398-.547zM193.055 40.542a.186.186 0 01-.052-.137v-1.688a.38.38 0 01.079-.231l5.042-6.84v-.062a.088.088 0 00-.074-.032h-4.869a.179.179 0 01-.189-.184v-1.52a.175.175 0 01.053-.132.182.182 0 01.136-.052h7.228a.189.189 0 01.074.012.187.187 0 01.103.1.174.174 0 01.012.072v1.689a.397.397 0 01-.079.236l-5.042 6.839a.07.07 0 00-.008.031.07.07 0 00.008.032.061.061 0 00.063.032h4.869a.188.188 0 01.136.057.168.168 0 01.053.132v1.515a.186.186 0 01-.053.137.184.184 0 01-.136.052h-7.228a.184.184 0 01-.126-.058zM202.52 40.542a.18.18 0 01-.053-.136V29.832a.169.169 0 01.053-.131.185.185 0 01.136-.053h3.903a4.816 4.816 0 012.053.41 3.211 3.211 0 011.366 1.168c.329.518.497 1.122.483 1.736v4.319a3.106 3.106 0 01-.483 1.736 3.152 3.152 0 01-1.366 1.162 4.718 4.718 0 01-2.053.416h-3.903a.178.178 0 01-.136-.053zm2.227-1.84h1.89a1.483 1.483 0 001.161-.485c.312-.36.477-.823.462-1.3V33.32a1.823 1.823 0 00-.446-1.294 1.525 1.525 0 00-1.192-.49h-1.875a.071.071 0 00-.033.003.071.071 0 00-.044.044.07.07 0 00-.002.032v7.007a.07.07 0 00.002.032c.003.01.009.02.017.028a.072.072 0 00.027.017.071.071 0 00.033.002zM218.209 40.453l-1.949-4.33a.096.096 0 00-.037-.046.1.1 0 00-.057-.017H214.7a.067.067 0 00-.032.003.075.075 0 00-.028.016.071.071 0 00-.016.028.07.07 0 00-.003.032v4.267a.186.186 0 01-.052.136.174.174 0 01-.131.053h-1.839a.179.179 0 01-.136-.053.21.21 0 01-.053-.136V29.832a.195.195 0 01.053-.132.182.182 0 01.136-.052h4.465a3.633 3.633 0 011.759.405c.496.262.903.665 1.172 1.157.283.534.426 1.132.415 1.736a3.068 3.068 0 01-.526 1.82 2.769 2.769 0 01-1.481 1.052.074.074 0 00-.052.043.068.068 0 00-.006.035.078.078 0 00.011.033l2.101 4.424a.228.228 0 01.031.095c0 .084-.057.126-.168.126h-1.922a.22.22 0 01-.189-.121zm-3.577-8.838v2.678a.07.07 0 00.002.032.068.068 0 00.077.047h2.048c.389.012.766-.13 1.051-.395a1.325 1.325 0 00.415-1.015 1.36 1.36 0 00-.415-1.052 1.48 1.48 0 00-1.051-.4H214.7a.069.069 0 00-.094.026.07.07 0 00-.007.053.07.07 0 00.033.042v-.016zM229.318 40.437l-.472-1.53c-.021-.043-.048-.064-.079-.064h-3.84c-.031 0-.058.021-.079.063l-.451 1.531a.199.199 0 01-.205.158h-1.98a.173.173 0 01-.142-.053.177.177 0 010-.168l3.372-10.573a.198.198 0 01.205-.153h2.453a.193.193 0 01.199.153l3.378 10.573a.175.175 0 010 .079c0 .095-.058.142-.174.142h-1.985a.195.195 0 01-.2-.158zm-3.845-3.298h2.748c.063 0 .084-.032.063-.095l-1.403-4.645c0-.042 0-.058-.047-.052a.068.068 0 00-.047.053l-1.377 4.644c-.01.063.011.095.063.095zM235.768 40.437l-3.22-10.573V29.8c0-.1.058-.153.173-.153h1.938a.206.206 0 01.216.153l2.101 7.633c0 .031.015.047.047.047 0 0 .031 0 .042-.047l2.048-7.633a.211.211 0 01.221-.153h1.917a.18.18 0 01.142.058.167.167 0 010 .158l-3.262 10.573a.2.2 0 01-.205.158h-1.969a.194.194 0 01-.189-.158zM243.148 40.542a.19.19 0 01-.058-.137V29.833a.177.177 0 01.058-.132.17.17 0 01.131-.052h1.828a.173.173 0 01.131.052.177.177 0 01.058.132v10.574a.19.19 0 01-.058.136.17.17 0 01-.131.053h-1.828a.17.17 0 01-.131-.053zm.036-11.93a.169.169 0 01-.019-.077c0-.026.007-.052.019-.076l.83-1.578a.225.225 0 01.231-.142h1.576a.151.151 0 01.147.073.148.148 0 01.024.082.148.148 0 01-.024.082l-1.108 1.578a.24.24 0 01-.215.126h-1.314c-.077-.004-.126-.026-.147-.069z" fill="#ABCFFD"></path></g><defs><clipPath id="clip0_458_951"><path fill="#fff" d="M0 0h246v41H0z"></path></clipPath></defs></svg>