<?xml version="1.0" standalone="no"?>
<!DOCTYPE svg PUBLIC "-//W3C//DTD SVG 20010904//EN"
 "http://www.w3.org/TR/2001/REC-SVG-20010904/DTD/svg10.dtd">
<svg version="1.0" xmlns="http://www.w3.org/2000/svg"
 width="514.000000pt" height="285.000000pt" viewBox="0 0 514.000000 285.000000"
 preserveAspectRatio="xMidYMid meet">
<metadata>
Created by potrace 1.16, written by Peter Selinger 2001-2019
</metadata>
<g transform="translate(0.000000,285.000000) scale(0.100000,-0.100000)"
fill="#fff" stroke="none">
<path d="M62 2078 c-9 -9 -12 -197 -12 -784 0 -649 2 -773 14 -783 9 -8 47
-11 107 -9 l94 3 3 563 c2 497 4 562 17 562 11 0 94 -159 253 -482 131 -266
253 -515 272 -555 24 -51 42 -75 60 -83 15 -6 72 -9 130 -8 l105 3 3 770 c1
424 0 780 -3 793 -5 21 -10 22 -98 22 -59 0 -97 -4 -105 -12 -9 -9 -12 -149
-12 -570 0 -460 -2 -558 -13 -558 -8 0 -51 78 -99 178 -310 643 -461 940 -485
951 -33 15 -216 14 -231 -1z"/>
<path d="M3984 2077 c-3 -8 -4 -52 -2 -98 l3 -84 403 -3 c351 -2 402 -4 402
-17 0 -9 -174 -253 -387 -543 -213 -290 -402 -549 -420 -576 -31 -46 -33 -52
-33 -140 0 -58 4 -96 12 -104 17 -17 1119 -17 1136 0 7 7 12 42 12 88 0 46 -5
81 -12 88 -9 9 -122 12 -446 12 -411 0 -434 1 -430 18 3 10 185 263 404 562
220 300 407 557 417 572 21 33 25 206 5 226 -19 19 -1057 17 -1064 -1z"/>
<path d="M593 268 c-45 -22 -55 -127 -17 -169 23 -26 76 -25 100 2 24 27 27
130 4 153 -21 21 -61 27 -87 14z"/>
<path d="M3833 270 c-31 -12 -43 -41 -43 -99 0 -60 24 -91 70 -91 47 0 70 30
70 94 0 77 -41 118 -97 96z"/>
<path d="M390 175 c0 -78 3 -95 15 -95 11 0 15 11 15 40 0 54 28 54 64 0 14
-22 31 -40 36 -40 14 0 12 9 -11 46 l-20 33 20 20 c47 47 16 91 -65 91 l-54 0
0 -95z"/>
<path d="M730 175 l0 -95 44 0 c66 0 90 24 90 93 1 74 -19 97 -86 97 l-48 0 0
-95z"/>
<path d="M2440 175 l0 -95 40 0 c60 0 90 33 90 100 0 66 -23 90 -85 90 l-45 0
0 -95z"/>
<path d="M4310 175 l0 -95 40 0 c31 0 47 7 67 26 23 23 25 31 21 81 -6 67 -23
83 -85 83 l-43 0 0 -95z"/>
<path d="M4480 175 c0 -57 4 -95 10 -95 6 0 10 18 10 40 0 36 3 40 24 40 18 0
31 -10 47 -40 23 -40 39 -51 39 -27 0 6 -9 25 -20 41 -19 30 -19 30 1 43 21
16 26 62 7 81 -7 7 -36 12 -65 12 l-53 0 0 -95z"/>
</g>
</svg>
