<svg width="581" height="198" viewBox="0 0 581 198" fill="none" xmlns="http://www.w3.org/2000/svg">
<path fill-rule="evenodd" clip-rule="evenodd" d="M104.5 8.49998C99.455 5.98798 94.121 3.98798 88.5 2.49998C82.3287 4.56398 75.9954 5.89698 69.5 6.49998C79.2135 -0.403019 89.5469 -1.23602 100.5 3.99998C102.041 5.37098 103.375 6.87098 104.5 8.49998Z" fill="white"/>
<path fill-rule="evenodd" clip-rule="evenodd" d="M104.5 8.5C107.879 29.338 99.545 43.505 79.5 51C66.6288 55.909 57.1288 52.409 51 40.5C48.7962 29.444 51.9629 20.277 60.5 13C63.3968 10.59 66.3968 8.423 69.5 6.5C75.9954 5.897 82.3287 4.564 88.5 2.5C94.121 3.988 99.455 5.988 104.5 8.5Z" fill="white"/>
<path fill-rule="evenodd" clip-rule="evenodd" d="M35.5 11.5C39.0528 10.045 42.5528 10.378 46 12.5C47.5779 17.157 46.0779 20.157 41.5 21.5C46.8047 14.203 44.8047 10.87 35.5 11.5Z" fill="white"/>
<path fill-rule="evenodd" clip-rule="evenodd" d="M41.5 22.5C32.2295 32.284 30.0628 43.617 35 56.5C37.3722 58.703 39.5389 61.037 41.5 63.5C38.975 61.429 35.975 60.095 32.5 59.5C30.541 51.548 30.2077 43.548 31.5 35.5C30.1779 35.67 29.0113 35.337 28 34.5C27.3941 30.899 25.8941 27.732 23.5 25C24.7932 24.51 26.1266 24.343 27.5 24.5C28.1818 27.709 29.8484 30.375 32.5 32.5C33.4317 29.827 33.5984 27.161 33 24.5C35.4815 22.686 38.3148 22.02 41.5 22.5Z" fill="white"/>
<path fill-rule="evenodd" clip-rule="evenodd" d="M313.5 37.5C310.785 35.877 307.785 35.21 304.5 35.5C306.542 32.097 309.209 31.764 312.5 34.5C313.386 35.325 313.719 36.325 313.5 37.5Z" fill="white"/>
<path fill-rule="evenodd" clip-rule="evenodd" d="M291.5 45.5C289.661 44.492 288.328 42.992 287.5 41C284.949 40.998 282.949 40.164 281.5 38.5C281.082 37.778 280.416 37.278 279.5 37C275.5 36.333 271.5 36.333 267.5 37C265.121 37.716 263.121 38.883 261.5 40.5C261.167 40.5 260.833 40.5 260.5 40.5C260.5 39.167 260.5 37.833 260.5 36.5C268.137 36.218 275.637 35.218 283 33.5C284.567 34.856 286.4 35.523 288.5 35.5C288.966 37.201 288.966 38.701 288.5 40C289.758 41.741 290.758 43.574 291.5 45.5Z" fill="black"/>
<path fill-rule="evenodd" clip-rule="evenodd" d="M495.5 37.5C494.833 37.833 494.167 38.167 493.5 38.5C493.5 36.833 493.5 35.167 493.5 33.5C488.377 34.109 484.377 36.609 481.5 41C483.382 41.198 485.048 41.698 486.5 42.5C485.833 42.5 485.167 42.5 484.5 42.5C479.831 43.01 478.831 41.677 481.5 38.5C484.149 32.94 488.482 31.107 494.5 33C495.38 34.356 495.714 35.856 495.5 37.5Z" fill="white"/>
<path fill-rule="evenodd" clip-rule="evenodd" d="M493.5 38.5C491.708 40.569 489.374 41.903 486.5 42.5C485.048 41.698 483.382 41.198 481.5 41C484.377 36.609 488.377 34.109 493.5 33.5C493.5 35.167 493.5 36.833 493.5 38.5Z" fill="white"/>
<path fill-rule="evenodd" clip-rule="evenodd" d="M83.5001 120.5C81.7651 125.93 80.0984 131.263 78.5001 136.5C78.0384 142.324 77.0384 148.157 75.5001 154C76.7243 157.184 77.891 157.017 79.0001 153.5C79.1736 157.541 79.6736 161.541 80.5001 165.5C81.4256 166.641 82.2589 166.641 83.0001 165.5C83.7285 168.23 83.5618 170.897 82.5001 173.5C80.9256 174.631 79.2589 174.798 77.5001 174C77.8334 173.667 78.1668 173.333 78.5001 173C76.0427 171.846 76.0427 170.512 78.5001 169C77.5521 168.517 76.5521 168.351 75.5001 168.5C76.3554 164.204 74.6887 161.537 70.5001 160.5C70.0235 159.069 69.3568 157.736 68.5001 156.5C66.7698 155.974 65.4363 154.974 64.5 153.5C63.1667 152.167 61.8333 152.167 60.5 153.5C63.0083 156.838 65.6751 160.005 68.5001 163C66.3112 163.322 64.3111 162.822 62.5 161.5C61.9233 158.355 59.9233 156.855 56.5 157C55.5887 154.585 53.922 153.085 51.5 152.5C51.1667 152.5 50.8333 152.5 50.5 152.5C48.8866 149.868 47.22 147.202 45.5 144.5C44.3112 143.571 42.9778 143.238 41.5 143.5C41.762 142.022 41.4287 140.689 40.5 139.5C39.3049 137.703 37.6382 136.703 35.5 136.5C21.7494 122.025 11.2495 105.359 4.00005 86.5C3.17855 83.883 2.67855 81.216 2.50005 78.5C2.33373 71.159 2.50039 63.826 3.00005 56.5C4.96985 52.101 5.80325 47.435 5.50005 42.5C6.30845 39.55 7.64185 36.883 9.50005 34.5C10.496 34.586 11.3293 34.252 12.0001 33.5C14.8321 40.822 17.6653 48.156 20.5 55.5C25.1088 61.732 29.6088 68.065 34 74.5C44.1835 85.015 55.017 94.849 66.5001 104C71.6447 105.696 76.6447 107.863 81.5001 110.5C83.2893 113.556 83.956 116.889 83.5001 120.5Z" fill="white"/>
<path fill-rule="evenodd" clip-rule="evenodd" d="M213.5 72.5C213.675 74.621 213.341 76.621 212.5 78.5C209.772 82.95 208.439 82.45 208.5 77C209.482 64.725 208.648 52.558 206 40.5C204.427 37.786 202.26 36.953 199.5 38C197.618 34.024 198.952 31.858 203.5 31.5C205.857 33.123 208.024 35.123 210 37.5C212.991 48.962 214.158 60.628 213.5 72.5Z" fill="white"/>
<path fill-rule="evenodd" clip-rule="evenodd" d="M281.5 38.5C277.818 38.335 274.152 38.501 270.5 39C268.924 39.44 267.59 40.273 266.5 41.5C264.929 40.691 263.262 40.357 261.5 40.5C263.121 38.883 265.121 37.716 267.5 37C271.5 36.333 275.5 36.333 279.5 37C280.416 37.278 281.082 37.778 281.5 38.5Z" fill="white"/>
<path fill-rule="evenodd" clip-rule="evenodd" d="M481.5 38.5C478.831 41.677 479.831 43.01 484.5 42.5C484.5 42.833 484.5 43.167 484.5 43.5C482.473 43.662 480.473 43.495 478.5 43C477.62 41.644 477.286 40.144 477.5 38.5C478.833 38.5 480.167 38.5 481.5 38.5Z" fill="black"/>
<path fill-rule="evenodd" clip-rule="evenodd" d="M260.5 40.5C260.833 40.5 261.167 40.5 261.5 40.5C261.447 43.061 262.447 45.061 264.5 46.5C270.009 44.211 275.676 43.878 281.5 45.5C281.5 46.5 281.5 47.5 281.5 48.5C277.019 46.618 272.353 46.118 267.5 47C265.304 48.699 263.304 50.533 261.5 52.5C263.055 48.037 261.388 45.704 256.5 45.5C254.654 48.881 253.654 52.547 253.5 56.5C252.5 56.5 251.5 56.5 250.5 56.5C250.784 58.415 250.451 60.081 249.5 61.5C249.301 52.393 252.967 45.393 260.5 40.5Z" fill="white"/>
<path fill-rule="evenodd" clip-rule="evenodd" d="M35.5 11.5C44.8047 10.87 46.8047 14.203 41.5 21.5C41.5 21.833 41.5 22.167 41.5 22.5C38.3148 22.02 35.4815 22.686 33 24.5C33.5984 27.161 33.4317 29.827 32.5 32.5C29.8484 30.375 28.1818 27.709 27.5 24.5C26.1266 24.343 24.7932 24.51 23.5 25C25.8941 27.732 27.3941 30.899 28 34.5C29.0113 35.337 30.1779 35.67 31.5 35.5C30.2077 43.548 30.541 51.548 32.5 59.5C35.975 60.095 38.975 61.429 41.5 63.5C42.2297 65.045 43.563 65.878 45.5 66C52.8333 66.667 60.1667 66.667 67.5 66C71.9295 63.912 76.5962 62.579 81.5 62C82.3805 61.292 83.0472 60.458 83.5 59.5C95.743 54.884 107.743 49.384 119.5 43C129.178 38.75 137.678 40.25 145 47.5C145.969 52.307 144.969 56.64 142 60.5C127.626 73.176 113.293 85.843 99 98.5C93.6335 105.699 88.4668 113.032 83.5 120.5C83.9559 116.889 83.2892 113.556 81.5 110.5C76.6446 107.863 71.6446 105.696 66.5 104C55.0169 94.849 44.1835 85.015 34 74.5C29.6088 68.065 25.1088 61.732 20.5 55.5C17.6653 48.156 14.832 40.822 12 33.5C11.3292 34.252 10.4959 34.586 9.5 34.5C16.3519 24.64 25.0185 16.974 35.5 11.5Z" fill="white"/>
<path fill-rule="evenodd" clip-rule="evenodd" d="M459.5 54.5C452.847 47.655 444.847 45.655 435.5 48.5C438.524 46.218 442.024 45.218 446 45.5C450.428 46.748 454.928 47.748 459.5 48.5C459.5 50.5 459.5 52.5 459.5 54.5Z" fill="black"/>
<path fill-rule="evenodd" clip-rule="evenodd" d="M206.5 30.5C207.833 31.5 209.167 32.5 210.5 33.5C211.015 35.894 211.681 38.228 212.5 40.5C212.947 46.779 213.947 52.946 215.5 59C215.269 63.706 214.603 68.206 213.5 72.5C214.158 60.628 212.991 48.962 210 37.5C208.024 35.123 205.857 33.123 203.5 31.5C198.952 31.858 197.618 34.024 199.5 38C202.26 36.953 204.427 37.786 206 40.5C208.648 52.558 209.482 64.725 208.5 77C208.439 82.45 209.772 82.95 212.5 78.5C212.5 81.167 212.5 83.833 212.5 86.5C210.463 92.676 208.13 98.676 205.5 104.5C205.167 104.5 204.833 104.5 204.5 104.5C204.992 99.044 205.992 93.711 207.5 88.5C206.5 88.5 205.5 88.5 204.5 88.5C204.086 78.125 203.419 67.792 202.5 57.5C203.077 55.894 203.41 54.228 203.5 52.5C202.773 48.485 201.94 44.485 201 40.5C200.749 50.497 200.916 60.497 201.5 70.5C201.333 75.167 201.167 79.833 201 84.5C199.812 85.563 199.312 86.897 199.5 88.5C197.833 88.5 196.167 88.5 194.5 88.5C194.215 86.712 194.548 85.045 195.5 83.5C196.814 82.687 197.981 81.687 199 80.5C199.832 72.479 199.665 64.479 198.5 56.5C197.865 60.068 196.865 63.401 195.5 66.5C195.5 64.167 195.5 61.833 195.5 59.5C195.5 58.5 195.5 57.5 195.5 56.5C196.329 49.011 196.829 41.344 197 33.5C199.306 29.634 202.473 28.634 206.5 30.5Z" fill="white"/>
<path fill-rule="evenodd" clip-rule="evenodd" d="M313.5 40.5C314.317 42.969 314.817 45.635 315 48.5C318.866 46.76 322.7 46.427 326.5 47.5C322.158 47.278 318.491 48.611 315.5 51.5C314.883 51.389 314.383 51.056 314 50.5C313.502 47.183 313.335 43.85 313.5 40.5Z" fill="white"/>
<path fill-rule="evenodd" clip-rule="evenodd" d="M326.5 47.5C328.564 47.687 330.564 48.187 332.5 49C333.789 50.802 335.456 51.969 337.5 52.5C338.551 53.222 339.218 54.222 339.5 55.5C336.057 53.896 332.723 52.062 329.5 50C324.682 49.221 320.015 49.721 315.5 51.5C318.491 48.611 322.158 47.278 326.5 47.5Z" fill="white"/>
<path fill-rule="evenodd" clip-rule="evenodd" d="M422.5 54.5C423.62 56.958 422.953 58.958 420.5 60.5C421.209 55.594 419.543 51.927 415.5 49.5C409.187 48.068 402.854 48.401 396.5 50.5C396.62 49.414 397.287 48.747 398.5 48.5C405.873 45.956 413.207 46.122 420.5 49C422.155 50.444 422.822 52.278 422.5 54.5Z" fill="black"/>
<path fill-rule="evenodd" clip-rule="evenodd" d="M495.5 37.5C495.48 39.143 496.147 40.476 497.5 41.5C496.286 43.069 494.619 43.902 492.5 44C494.69 46.626 497.523 48.126 501 48.5C501.801 51.367 501.634 54.034 500.5 56.5C500.802 53.941 500.468 51.607 499.5 49.5C497.052 48.527 494.385 48.194 491.5 48.5C490.833 52.5 490.167 56.5 489.5 60.5C489.5 61.833 489.5 63.167 489.5 64.5C487.018 66.503 486.018 69.169 486.5 72.5C485.167 72.5 483.833 72.5 482.5 72.5C482.416 69.673 481.75 67.006 480.5 64.5C482.318 66.078 483.318 65.578 483.5 63C483.77 61.486 484.103 59.986 484.5 58.5C481.64 56.158 482.14 54.824 486 54.5C487.107 54.585 488.107 54.919 489 55.5C489.167 55 489.333 54.5 489.5 54C486.631 52.451 483.965 50.618 481.5 48.5C484.086 47.52 486.753 47.187 489.5 47.5C489.5 46.167 489.5 44.833 489.5 43.5C487.833 43.5 486.167 43.5 484.5 43.5C484.5 43.167 484.5 42.833 484.5 42.5C485.167 42.5 485.833 42.5 486.5 42.5C489.374 41.903 491.708 40.569 493.5 38.5C494.167 38.167 494.833 37.833 495.5 37.5Z" fill="black"/>
<path fill-rule="evenodd" clip-rule="evenodd" d="M281.5 48.5C282.412 50.595 283.579 52.595 285 54.5C285.667 60.5 285.667 66.5 285 72.5C282.772 73.892 281.606 75.892 281.5 78.5C280.167 78.5 278.833 78.5 277.5 78.5C273.481 78.354 269.481 78.021 265.5 77.5C263.238 75.315 261.738 72.648 261 69.5C260.313 63.796 260.479 58.13 261.5 52.5C263.304 50.533 265.304 48.699 267.5 47C272.353 46.118 277.019 46.618 281.5 48.5Z" fill="black"/>
<path fill-rule="evenodd" clip-rule="evenodd" d="M459.5 54.5C459.5 55.167 459.5 55.833 459.5 56.5C461.342 67.029 462.009 77.695 461.5 88.5C457.09 88.713 453.757 87.046 451.5 83.5C451.666 75.493 451.5 67.493 451 59.5C449.005 57.253 446.505 56.253 443.5 56.5C442.508 56.328 441.842 56.662 441.5 57.5C440.167 58.167 438.833 58.833 437.5 59.5C436.506 68.652 436.173 77.985 436.5 87.5C433.644 86.172 430.644 85.172 427.5 84.5C426.662 84.158 426.328 83.492 426.5 82.5C426.334 75.159 426.5 67.826 427 60.5C427.667 58.5 428.333 56.5 429 54.5C431.664 53.002 433.83 51.002 435.5 48.5C444.847 45.655 452.847 47.655 459.5 54.5Z" fill="white"/>
<path fill-rule="evenodd" clip-rule="evenodd" d="M361.5 47.5C367.275 46.775 372.608 47.941 377.5 51C379.464 52.451 380.797 54.284 381.5 56.5C379.143 56.337 376.81 56.503 374.5 57C376.111 60.605 375.111 63.105 371.5 64.5C371.389 65.117 371.056 65.617 370.5 66C366.805 66.318 363.138 66.818 359.5 67.5C358.558 67.392 357.725 67.059 357 66.5C355.701 63.853 354.368 61.186 353 58.5C351.641 59.365 350.474 60.365 349.5 61.5C350.982 54.684 354.982 50.017 361.5 47.5Z" fill="white"/>
<path fill-rule="evenodd" clip-rule="evenodd" d="M361.5 56.5C361.167 56.5 360.833 56.5 360.5 56.5C359 57.588 357.667 58.921 356.5 60.5C355.756 59.009 355.09 57.509 354.5 56C360.416 49.007 367.416 47.674 375.5 52C372.833 53 372.833 54 375.5 55C372.711 55.021 369.878 54.854 367 54.5C364.705 54.547 362.871 55.213 361.5 56.5Z" fill="white"/>
<path fill-rule="evenodd" clip-rule="evenodd" d="M5.49998 42.5C5.80318 47.435 4.96978 52.101 2.99998 56.5C2.50032 63.826 2.33366 71.159 2.49998 78.5C-0.811683 66.159 0.188317 54.159 5.49998 42.5Z" fill="white"/>
<path fill-rule="evenodd" clip-rule="evenodd" d="M304.5 35.5C307.785 35.21 310.785 35.877 313.5 37.5C313.5 38.167 313.5 38.833 313.5 39.5C311.15 37.615 308.65 37.282 306 38.5C304.827 52.63 305.493 66.63 308 80.5C310.264 81.851 312.098 83.517 313.5 85.5C311.139 84.565 308.972 83.232 307 81.5C306.152 78.44 305.152 75.44 304 72.5C303.173 59.993 303.34 47.66 304.5 35.5Z" fill="white"/>
<path fill-rule="evenodd" clip-rule="evenodd" d="M415.5 49.5C419.543 51.927 421.209 55.594 420.5 60.5C420.5 61.167 420.167 61.5 419.5 61.5C415.143 57.659 410.143 56.659 404.5 58.5C404.5 57.833 404.5 57.167 404.5 56.5C409.099 56.2 413.599 56.533 418 57.5C418.667 56.167 418.667 54.833 418 53.5C416.905 52.307 416.072 50.973 415.5 49.5Z" fill="black"/>
<path fill-rule="evenodd" clip-rule="evenodd" d="M480.5 64.5C480.167 64.5 479.833 64.5 479.5 64.5C478.867 59.706 477.7 55.039 476 50.5C472.696 48.4 469.196 48.067 465.5 49.5C467.213 55.926 469.213 62.259 471.5 68.5C465.55 62.545 463.55 55.378 465.5 47C469.924 46.551 474.09 47.385 478 49.5C478.836 54.513 479.669 59.513 480.5 64.5Z" fill="black"/>
<path fill-rule="evenodd" clip-rule="evenodd" d="M360.5 56.5C360.833 56.5 361.167 56.5 361.5 56.5C364.5 56.5 367.5 56.5 370.5 56.5C371.605 58.713 371.605 60.88 370.5 63C367.262 64.368 363.928 64.701 360.5 64C359.663 62.989 359.33 61.822 359.5 60.5C359.833 59.167 360.167 57.833 360.5 56.5Z" fill="black"/>
<path fill-rule="evenodd" clip-rule="evenodd" d="M435.5 48.5C433.83 51.002 431.664 53.002 429 54.5C428.333 56.5 427.667 58.5 427 60.5C426.5 67.826 426.334 75.159 426.5 82.5C425.852 80.502 425.019 78.502 424 76.5C423.576 79.025 422.41 81.025 420.5 82.5C420.5 80.5 420.5 78.5 420.5 76.5C415.094 79.674 409.427 80.174 403.5 78C402.364 76.855 401.364 75.688 400.5 74.5C400.078 70.278 400.745 66.278 402.5 62.5C404.454 61.149 406.621 60.482 409 60.5C412.473 61.163 415.973 61.496 419.5 61.5C420.167 61.5 420.5 61.167 420.5 60.5C422.953 58.958 423.62 56.958 422.5 54.5C423.75 54.577 424.583 55.244 425 56.5C427.21 52.122 430.71 49.455 435.5 48.5Z" fill="black"/>
<path fill-rule="evenodd" clip-rule="evenodd" d="M499.5 49.5C497.167 49.5 494.833 49.5 492.5 49.5C492.665 52.85 492.498 56.183 492 59.5C491.329 60.252 490.496 60.586 489.5 60.5C490.167 56.5 490.833 52.5 491.5 48.5C494.385 48.194 497.052 48.527 499.5 49.5Z" fill="white"/>
<path fill-rule="evenodd" clip-rule="evenodd" d="M404.5 56.5C404.5 57.167 404.5 57.833 404.5 58.5C398.792 61.873 396.958 66.873 399 73.5C399.383 74.056 399.883 74.389 400.5 74.5C401.364 75.688 402.364 76.855 403.5 78C409.427 80.174 415.094 79.674 420.5 76.5C420.5 78.5 420.5 80.5 420.5 82.5C419.135 84.86 417.135 86.527 414.5 87.5C413.957 87.44 413.624 87.107 413.5 86.5C416.824 85.841 418.157 83.841 417.5 80.5C400.245 84.045 393.079 77.045 396 59.5C398.195 56.963 401.028 55.963 404.5 56.5Z" fill="black"/>
<path fill-rule="evenodd" clip-rule="evenodd" d="M361.5 47.5C354.982 50.017 350.982 54.684 349.5 61.5C346.821 67.491 347.154 73.491 350.5 79.5C350.957 80.298 351.624 80.631 352.5 80.5C353.09 81.766 353.59 83.099 354 84.5C356.167 85.488 358 86.821 359.5 88.5C355.123 87.647 351.623 85.314 349 81.5C345.599 72.11 345.766 62.777 349.5 53.5C351.5 51.833 353.5 50.167 355.5 48.5C357.396 47.534 359.396 47.201 361.5 47.5Z" fill="white"/>
<path fill-rule="evenodd" clip-rule="evenodd" d="M415.5 49.5C416.072 50.973 416.905 52.307 418 53.5C418.667 54.833 418.667 56.167 418 57.5C413.599 56.533 409.099 56.2 404.5 56.5C401.028 55.963 398.195 56.963 396 59.5C393.079 77.045 400.245 84.045 417.5 80.5C418.157 83.841 416.824 85.841 413.5 86.5C413.624 87.107 413.957 87.44 414.5 87.5C414.5 87.833 414.5 88.167 414.5 88.5C410.154 88.666 405.821 88.499 401.5 88C398.521 86.838 395.855 85.338 393.5 83.5C392.011 80.522 390.511 77.522 389 74.5C388.102 68.341 388.602 62.341 390.5 56.5C391.5 56.5 392.5 56.5 393.5 56.5C393.683 54.012 394.683 52.012 396.5 50.5C402.854 48.401 409.187 48.068 415.5 49.5Z" fill="white"/>
<path fill-rule="evenodd" clip-rule="evenodd" d="M83.5 59.5C83.0472 60.458 82.3805 61.292 81.5 62C76.5962 62.579 71.9295 63.912 67.5 66C60.1667 66.667 52.8333 66.667 45.5 66C43.563 65.878 42.2297 65.045 41.5 63.5C48.0228 65.435 54.6895 65.935 61.5 65C68.8713 63.264 76.2046 61.431 83.5 59.5Z" fill="white"/>
<path fill-rule="evenodd" clip-rule="evenodd" d="M313.5 39.5C313.5 39.833 313.5 40.167 313.5 40.5C313.335 43.85 313.502 47.183 314 50.5C314.383 51.056 314.883 51.389 315.5 51.5C320.015 49.721 324.682 49.221 329.5 50C332.723 52.062 336.057 53.896 339.5 55.5C340.995 62.619 340.995 66.952 339.5 68.5C338.178 68.33 337.011 68.663 336 69.5C335.003 64.872 333.503 60.539 331.5 56.5C329.5 56.5 327.5 56.5 325.5 56.5C323.833 56.5 322.167 56.5 320.5 56.5C317.137 56.513 314.97 58.179 314 61.5C313.768 65.555 313.268 69.555 312.5 73.5C315.416 80.538 320.582 82.871 328 80.5C329.03 80.164 329.53 79.497 329.5 78.5C329.5 78.167 329.5 77.833 329.5 77.5C329.5 77.167 329.5 76.833 329.5 76.5C330.745 77.602 332.078 78.602 333.5 79.5C334.635 77.293 335.301 74.96 335.5 72.5C337.59 72.45 338.923 73.45 339.5 75.5C338.691 77.071 338.357 78.738 338.5 80.5C337.167 80.5 335.833 80.5 334.5 80.5C334.5 81.5 334.5 82.5 334.5 83.5C332.799 83.966 331.299 83.966 330 83.5C329.506 85.134 329.34 86.801 329.5 88.5C324.821 88.666 320.155 88.499 315.5 88C314.244 87.583 313.577 86.75 313.5 85.5C312.098 83.517 310.264 81.851 308 80.5C305.493 66.63 304.827 52.63 306 38.5C308.65 37.282 311.15 37.615 313.5 39.5Z" fill="white"/>
<path fill-rule="evenodd" clip-rule="evenodd" d="M370.5 56.5C374.055 58.729 374.388 61.396 371.5 64.5C367.232 65.373 362.898 65.706 358.5 65.5C358.216 63.585 358.549 61.919 359.5 60.5C359.33 61.822 359.663 62.989 360.5 64C363.928 64.701 367.262 64.368 370.5 63C371.605 60.88 371.605 58.713 370.5 56.5Z" fill="black"/>
<path fill-rule="evenodd" clip-rule="evenodd" d="M419.5 61.5C415.973 61.496 412.473 61.163 409 60.5C406.621 60.482 404.454 61.149 402.5 62.5C400.745 66.278 400.078 70.278 400.5 74.5C399.883 74.389 399.383 74.056 399 73.5C396.958 66.873 398.792 61.873 404.5 58.5C410.143 56.659 415.143 57.659 419.5 61.5Z" fill="black"/>
<path fill-rule="evenodd" clip-rule="evenodd" d="M441.5 57.5C441.539 59.359 440.706 60.692 439 61.5C438.83 70.676 438.33 79.676 437.5 88.5C437.5 78.833 437.5 69.167 437.5 59.5C438.833 58.833 440.167 58.167 441.5 57.5Z" fill="black"/>
<path fill-rule="evenodd" clip-rule="evenodd" d="M261.5 52.5C260.25 52.577 259.417 53.244 259 54.5C258.505 56.473 258.338 58.473 258.5 60.5C257.5 60.5 256.5 60.5 255.5 60.5C255.338 62.527 255.505 64.527 256 66.5C256.333 66.167 256.667 65.833 257 65.5C259.939 69.264 260.272 73.264 258 77.5C256.98 76.109 256.147 74.609 255.5 73C254.552 72.517 253.552 72.351 252.5 72.5C252.975 69.687 251.975 67.687 249.5 66.5C249.5 64.833 249.5 63.167 249.5 61.5C250.451 60.081 250.784 58.415 250.5 56.5C251.5 56.5 252.5 56.5 253.5 56.5C253.654 52.547 254.654 48.881 256.5 45.5C261.388 45.704 263.055 48.037 261.5 52.5Z" fill="white"/>
<path fill-rule="evenodd" clip-rule="evenodd" d="M320.5 56.5C322.167 56.5 323.833 56.5 325.5 56.5C326.531 57.249 327.698 57.915 329 58.5C332.057 64.48 332.224 70.48 329.5 76.5C329.5 76.833 329.5 77.167 329.5 77.5C325.406 79.173 321.573 78.84 318 76.5C316.074 72.035 315.24 67.368 315.5 62.5C316.45 59.885 318.117 57.885 320.5 56.5Z" fill="black"/>
<path fill-rule="evenodd" clip-rule="evenodd" d="M339.5 55.5C341.914 59.021 342.914 63.021 342.5 67.5C343.059 72.538 341.726 76.871 338.5 80.5C338.357 78.738 338.691 77.071 339.5 75.5C338.923 73.45 337.59 72.45 335.5 72.5C335.301 74.96 334.635 77.293 333.5 79.5C332.078 78.602 330.745 77.602 329.5 76.5C332.224 70.48 332.057 64.48 329 58.5C327.698 57.915 326.531 57.249 325.5 56.5C327.5 56.5 329.5 56.5 331.5 56.5C333.503 60.539 335.003 64.872 336 69.5C337.011 68.663 338.178 68.33 339.5 68.5C340.995 66.952 340.995 62.619 339.5 55.5Z" fill="white"/>
<path fill-rule="evenodd" clip-rule="evenodd" d="M381.5 56.5C382.338 56.842 382.672 57.508 382.5 58.5C382.665 61.518 382.498 64.518 382 67.5C379.574 69.452 377.074 71.119 374.5 72.5C369.167 72.5 363.833 72.5 358.5 72.5C359.783 75.01 360.783 77.677 361.5 80.5C366.179 80.666 370.845 80.499 375.5 80C377.217 78.441 379.217 77.608 381.5 77.5C382.25 81.775 380.917 85.109 377.5 87.5C371.69 88.49 365.69 88.823 359.5 88.5C358 86.821 356.167 85.488 354 84.5C353.59 83.099 353.09 81.766 352.5 80.5C350.009 74.489 349.009 68.155 349.5 61.5C350.474 60.365 351.641 59.365 353 58.5C354.368 61.186 355.701 63.853 357 66.5C357.725 67.059 358.558 67.392 359.5 67.5C363.138 66.818 366.805 66.318 370.5 66C371.056 65.617 371.389 65.117 371.5 64.5C375.111 63.105 376.111 60.605 374.5 57C376.81 56.503 379.143 56.337 381.5 56.5Z" fill="white"/>
<path fill-rule="evenodd" clip-rule="evenodd" d="M382.5 58.5C383.641 61.64 383.808 64.973 383 68.5C381.333 69.733 379.833 71.067 378.5 72.5C377.167 72.5 375.833 72.5 374.5 72.5C377.074 71.119 379.574 69.452 382 67.5C382.498 64.518 382.665 61.518 382.5 58.5Z" fill="white"/>
<path fill-rule="evenodd" clip-rule="evenodd" d="M315.5 62.5C315.24 67.368 316.074 72.035 318 76.5C321.573 78.84 325.406 79.173 329.5 77.5C329.5 77.833 329.5 78.167 329.5 78.5C323.302 82.028 318.469 80.695 315 74.5C314.188 70.311 314.355 66.311 315.5 62.5Z" fill="white"/>
<path fill-rule="evenodd" clip-rule="evenodd" d="M459.5 56.5C460.793 57.842 461.626 59.509 462 61.5C462.824 70.676 462.657 79.676 461.5 88.5C462.009 77.695 461.342 67.029 459.5 56.5Z" fill="white"/>
<path fill-rule="evenodd" clip-rule="evenodd" d="M349.5 61.5C349.009 68.155 350.009 74.489 352.5 80.5C351.624 80.631 350.957 80.298 350.5 79.5C347.154 73.491 346.821 67.491 349.5 61.5Z" fill="white"/>
<path fill-rule="evenodd" clip-rule="evenodd" d="M296.5 56.5C297.652 61.985 297.818 67.651 297 73.5C296.186 76.177 294.686 78.177 292.5 79.5C295.959 72.242 297.293 64.575 296.5 56.5Z" fill="white"/>
<path fill-rule="evenodd" clip-rule="evenodd" d="M443.5 56.5C446.505 56.253 449.005 57.253 451 59.5C451.5 67.493 451.666 75.493 451.5 83.5C450.508 76.018 450.175 68.352 450.5 60.5C448.473 60.662 446.473 60.495 444.5 60C443.663 58.989 443.33 57.822 443.5 56.5Z" fill="black"/>
<path fill-rule="evenodd" clip-rule="evenodd" d="M474.5 75.5C479.758 79.706 481.258 85.039 479 91.5C476.096 93.227 472.93 93.893 469.5 93.5C469.261 95.467 469.594 97.301 470.5 99C473.146 99.497 475.813 99.664 478.5 99.5C477.207 100.158 475.707 100.492 474 100.5C468.743 100.911 466.743 98.578 468 93.5C470.069 92.736 472.236 92.236 474.5 92C475.056 91.617 475.389 91.117 475.5 90.5C477.352 89.48 478.685 87.98 479.5 86C477.956 82.413 476.289 78.913 474.5 75.5Z" fill="white"/>
<path fill-rule="evenodd" clip-rule="evenodd" d="M320.5 56.5C318.117 57.885 316.45 59.885 315.5 62.5C314.355 66.311 314.188 70.311 315 74.5C318.469 80.695 323.302 82.028 329.5 78.5C329.53 79.497 329.03 80.164 328 80.5C320.582 82.871 315.416 80.538 312.5 73.5C313.268 69.555 313.768 65.555 314 61.5C314.97 58.179 317.137 56.513 320.5 56.5Z" fill="white"/>
<path fill-rule="evenodd" clip-rule="evenodd" d="M261.5 52.5C260.479 58.13 260.313 63.796 261 69.5C261.738 72.648 263.238 75.315 265.5 77.5C269.355 80.747 273.355 81.08 277.5 78.5C278.833 78.5 280.167 78.5 281.5 78.5C281.53 79.497 281.03 80.164 280 80.5C278.042 81.051 276.042 81.385 274 81.5C269.505 80.579 265.005 80.079 260.5 80C260.167 80.333 259.833 80.667 259.5 81C261.087 81.862 262.754 82.529 264.5 83C265.641 83.741 265.641 84.575 264.5 85.5C265.993 86.141 266.993 87.141 267.5 88.5C256.893 85.203 250.893 77.869 249.5 66.5C251.975 67.687 252.975 69.687 252.5 72.5C253.552 72.351 254.552 72.517 255.5 73C256.147 74.609 256.98 76.109 258 77.5C260.272 73.264 259.939 69.264 257 65.5C256.667 65.833 256.333 66.167 256 66.5C255.505 64.527 255.338 62.527 255.5 60.5C256.5 60.5 257.5 60.5 258.5 60.5C258.338 58.473 258.505 56.473 259 54.5C259.417 53.244 260.25 52.577 261.5 52.5Z" fill="white"/>
<path fill-rule="evenodd" clip-rule="evenodd" d="M265.5 77.5C269.481 78.021 273.481 78.354 277.5 78.5C273.355 81.08 269.355 80.747 265.5 77.5Z" fill="black"/>
<path fill-rule="evenodd" clip-rule="evenodd" d="M437.5 59.5C437.5 69.167 437.5 78.833 437.5 88.5C435.143 88.663 432.81 88.497 430.5 88C428.574 87.578 427.574 86.411 427.5 84.5C430.644 85.172 433.644 86.172 436.5 87.5C436.173 77.985 436.506 68.652 437.5 59.5Z" fill="white"/>
<path fill-rule="evenodd" clip-rule="evenodd" d="M479.5 64.5C478.903 69.836 480.57 74.17 484.5 77.5C485.672 77.081 486.672 76.415 487.5 75.5C488.539 71.895 489.205 68.228 489.5 64.5C489.5 63.167 489.5 61.833 489.5 60.5C490.496 60.586 491.329 60.252 492 59.5C492.498 56.183 492.665 52.85 492.5 49.5C494.833 49.5 497.167 49.5 499.5 49.5C500.468 51.607 500.802 53.941 500.5 56.5C498.167 65.852 494.667 74.852 490 83.5C489.506 85.134 489.34 86.801 489.5 88.5C487.777 90.253 486.277 92.253 485 94.5C483.242 96.765 481.075 98.432 478.5 99.5C475.813 99.664 473.146 99.497 470.5 99C469.594 97.301 469.261 95.467 469.5 93.5C472.93 93.893 476.096 93.227 479 91.5C481.258 85.039 479.758 79.706 474.5 75.5C473.486 73.426 472.486 71.426 471.5 69.5C471.5 69.167 471.5 68.833 471.5 68.5C469.213 62.259 467.213 55.926 465.5 49.5C469.196 48.067 472.696 48.4 476 50.5C477.7 55.039 478.867 59.706 479.5 64.5Z" fill="white"/>
<path fill-rule="evenodd" clip-rule="evenodd" d="M479.5 64.5C479.833 64.5 480.167 64.5 480.5 64.5C481.75 67.006 482.416 69.673 482.5 72.5C483.833 72.5 485.167 72.5 486.5 72.5C486.018 69.169 487.018 66.503 489.5 64.5C489.205 68.228 488.539 71.895 487.5 75.5C486.672 76.415 485.672 77.081 484.5 77.5C480.57 74.17 478.903 69.836 479.5 64.5Z" fill="black"/>
<path fill-rule="evenodd" clip-rule="evenodd" d="M500.5 56.5C500.921 61.633 499.921 66.466 497.5 71C498.022 71.95 498.689 72.784 499.5 73.5C496.625 76.614 494.791 80.281 494 84.5C492.693 86.192 491.193 87.525 489.5 88.5C489.34 86.801 489.506 85.134 490 83.5C494.667 74.852 498.167 65.852 500.5 56.5Z" fill="black"/>
<path fill-rule="evenodd" clip-rule="evenodd" d="M338.5 80.5C336.486 82.183 334.82 84.183 333.5 86.5C332.713 88.104 331.38 88.771 329.5 88.5C329.34 86.801 329.506 85.134 330 83.5C331.299 83.966 332.799 83.966 334.5 83.5C334.5 82.5 334.5 81.5 334.5 80.5C335.833 80.5 337.167 80.5 338.5 80.5Z" fill="white"/>
<path fill-rule="evenodd" clip-rule="evenodd" d="M471.5 69.5C472.486 71.426 473.486 73.426 474.5 75.5C476.289 78.913 477.956 82.413 479.5 86C478.685 87.98 477.352 89.48 475.5 90.5C476.62 86.965 476.12 83.631 474 80.5C473.667 83.167 473.333 85.833 473 88.5C472.654 82.143 472.154 75.81 471.5 69.5Z" fill="black"/>
<path fill-rule="evenodd" clip-rule="evenodd" d="M337.5 52.5C340.86 51.79 342.693 53.124 343 56.5C343.566 65.847 343.399 75.18 342.5 84.5C340.94 84.481 339.44 84.148 338 83.5C336.877 85.1 335.377 86.1 333.5 86.5C334.82 84.183 336.486 82.183 338.5 80.5C341.726 76.871 343.059 72.538 342.5 67.5C342.914 63.021 341.914 59.021 339.5 55.5C339.218 54.222 338.551 53.222 337.5 52.5Z" fill="black"/>
<path fill-rule="evenodd" clip-rule="evenodd" d="M374.5 72.5C375.833 72.5 377.167 72.5 378.5 72.5C378.5 73.5 378.5 74.5 378.5 75.5C380.467 75.739 382.301 75.406 384 74.5C384.105 78.737 384.272 82.904 384.5 87C384.167 87.5 383.833 88 383.5 88.5C381.844 86.265 379.844 85.932 377.5 87.5C380.917 85.109 382.25 81.775 381.5 77.5C379.217 77.608 377.217 78.441 375.5 80C370.845 80.499 366.179 80.666 361.5 80.5C360.783 77.677 359.783 75.01 358.5 72.5C363.833 72.5 369.167 72.5 374.5 72.5Z" fill="black"/>
<path fill-rule="evenodd" clip-rule="evenodd" d="M281.5 38.5C282.949 40.164 284.949 40.998 287.5 41C288.328 42.992 289.661 44.492 291.5 45.5C294.507 48.598 296.174 52.264 296.5 56.5C297.293 64.575 295.959 72.242 292.5 79.5C289.017 82.739 285.35 85.739 281.5 88.5C276.833 88.5 272.167 88.5 267.5 88.5C266.993 87.141 265.993 86.141 264.5 85.5C265.641 84.575 265.641 83.741 264.5 83C262.754 82.529 261.087 81.862 259.5 81C259.833 80.667 260.167 80.333 260.5 80C265.005 80.079 269.505 80.579 274 81.5C276.042 81.385 278.042 81.051 280 80.5C281.03 80.164 281.53 79.497 281.5 78.5C281.606 75.892 282.772 73.892 285 72.5C285.667 66.5 285.667 60.5 285 54.5C283.579 52.595 282.412 50.595 281.5 48.5C281.5 47.5 281.5 46.5 281.5 45.5C275.676 43.878 270.009 44.211 264.5 46.5C262.447 45.061 261.447 43.061 261.5 40.5C263.262 40.357 264.929 40.691 266.5 41.5C267.59 40.273 268.924 39.44 270.5 39C274.152 38.501 277.818 38.335 281.5 38.5Z" fill="white"/>
<path fill-rule="evenodd" clip-rule="evenodd" d="M390.5 56.5C388.602 62.341 388.102 68.341 389 74.5C390.511 77.522 392.011 80.522 393.5 83.5C392.244 83.461 391.244 83.961 390.5 85C391.731 86.183 391.731 87.349 390.5 88.5C388.263 86.884 386.93 84.717 386.5 82C387.203 74.85 387.703 67.684 388 60.5C388.608 58.934 389.442 57.6 390.5 56.5Z" fill="black"/>
<path fill-rule="evenodd" clip-rule="evenodd" d="M420.5 82.5C420.205 86.129 418.205 88.129 414.5 88.5C414.5 88.167 414.5 87.833 414.5 87.5C417.135 86.527 419.135 84.86 420.5 82.5Z" fill="black"/>
<path fill-rule="evenodd" clip-rule="evenodd" d="M489.5 88.5C486.845 102.412 479.011 106.412 466 100.5C464.451 92.879 467.618 89.546 475.5 90.5C475.389 91.117 475.056 91.617 474.5 92C472.236 92.236 470.069 92.736 468 93.5C466.743 98.578 468.743 100.911 474 100.5C475.707 100.492 477.207 100.158 478.5 99.5C481.075 98.432 483.242 96.765 485 94.5C486.277 92.253 487.777 90.253 489.5 88.5Z" fill="black"/>
<path fill-rule="evenodd" clip-rule="evenodd" d="M545.5 98.5C548.167 98.5 550.833 98.5 553.5 98.5C553.945 101.365 553.278 103.865 551.5 106C547.042 108.141 542.375 108.807 537.5 108C540.002 104.667 542.668 101.501 545.5 98.5Z" fill="white"/>
<path fill-rule="evenodd" clip-rule="evenodd" d="M330.5 99.5C337.009 100.207 339.176 103.54 337 109.5C329.629 113.141 326.296 110.807 327 102.5C328.518 101.837 329.685 100.837 330.5 99.5Z" fill="white"/>
<path fill-rule="evenodd" clip-rule="evenodd" d="M304.5 98.5C311.6 96.757 313.766 99.09 311 105.5C306.489 108.086 301.656 108.919 296.5 108C298.464 104.199 301.131 101.032 304.5 98.5Z" fill="white"/>
<path fill-rule="evenodd" clip-rule="evenodd" d="M204.5 104.5C202.707 106.426 201.707 108.759 201.5 111.5C198.769 113.946 196.769 116.946 195.5 120.5C195.167 120.5 194.833 120.5 194.5 120.5C194.055 117.635 194.722 115.135 196.5 113C196.167 112.833 195.833 112.667 195.5 112.5C185.04 118.747 173.707 122.914 161.5 125C146.41 126.06 131.41 125.393 116.5 123C114.509 122.626 112.842 121.793 111.5 120.5C114.911 117.961 117.578 114.794 119.5 111C121.5 110.333 123.5 109.667 125.5 109C126.184 105.965 127.851 103.631 130.5 102C132.977 100.357 135.31 98.524 137.5 96.5C142.719 96.284 145.053 93.618 144.5 88.5C144.833 88.5 145.167 88.5 145.5 88.5C149.446 85.615 153.779 83.282 158.5 81.5C161.199 79.102 162.533 76.102 162.5 72.5C164.664 71.522 166.83 70.522 169 69.5C172.914 70.183 174.248 72.517 173 76.5C171.526 80.438 170.359 84.438 169.5 88.5C164.452 95.548 158.452 101.548 151.5 106.5C148.081 107.042 146.414 109.042 146.5 112.5C155.215 114.711 161.882 112.044 166.5 104.5C168.179 104.715 169.179 104.048 169.5 102.5C175.512 100.688 180.678 97.355 185 92.5C185.483 91.552 185.649 90.552 185.5 89.5C185.5 89.167 185.5 88.833 185.5 88.5C186.5 88.5 187.5 88.5 188.5 88.5C189.727 85.418 191.227 82.418 193 79.5C193.497 77.19 193.663 74.857 193.5 72.5C195.308 71.082 195.975 69.082 195.5 66.5C196.865 63.401 197.865 60.068 198.5 56.5C199.665 64.479 199.832 72.479 199 80.5C197.981 81.687 196.814 82.687 195.5 83.5C194.548 85.045 194.215 86.712 194.5 88.5C196.167 88.5 197.833 88.5 199.5 88.5C199.312 86.897 199.812 85.563 201 84.5C201.167 79.833 201.333 75.167 201.5 70.5C200.916 60.497 200.749 50.497 201 40.5C201.94 44.485 202.773 48.485 203.5 52.5C203.41 54.228 203.077 55.894 202.5 57.5C203.419 67.792 204.086 78.125 204.5 88.5C205.5 88.5 206.5 88.5 207.5 88.5C205.992 93.711 204.992 99.044 204.5 104.5Z" fill="white"/>
<path fill-rule="evenodd" clip-rule="evenodd" d="M185.5 89.5C185.649 90.552 185.483 91.552 185 92.5C180.678 97.355 175.512 100.688 169.5 102.5C175.463 98.864 180.796 94.53 185.5 89.5Z" fill="white"/>
<path fill-rule="evenodd" clip-rule="evenodd" d="M193.5 72.5C193.663 74.857 193.497 77.19 193 79.5C191.227 82.418 189.727 85.418 188.5 88.5C187.5 88.5 186.5 88.5 185.5 88.5C188.649 83.367 191.315 78.034 193.5 72.5Z" fill="white"/>
<path fill-rule="evenodd" clip-rule="evenodd" d="M471.5 114.5C480.173 114.334 488.84 114.5 497.5 115C500.108 119.153 499.941 123.32 497 127.5C491.833 133.333 486.667 139.167 481.5 145C487.825 145.5 494.158 145.666 500.5 145.5C501.125 148.97 500.125 151.804 497.5 154C488.785 154.804 480.118 154.637 471.5 153.5C468.882 149.48 469.049 145.48 472 141.5C477.354 135.647 482.52 129.647 487.5 123.5C481.537 122.504 475.537 122.171 469.5 122.5C469.107 119.487 469.774 116.82 471.5 114.5Z" fill="white"/>
<path fill-rule="evenodd" clip-rule="evenodd" d="M252.5 114.5C260.507 114.334 268.507 114.5 276.5 115C279.257 115.51 280.591 117.177 280.5 120C280.091 122.321 279.257 124.487 278 126.5C272.5 132.667 267 138.833 261.5 145C267.825 145.5 274.158 145.666 280.5 145.5C281.125 148.97 280.125 151.804 277.5 154C268.73 154.94 260.064 154.607 251.5 153C249.092 149.957 248.926 146.791 251 143.5C257.02 136.981 262.853 130.315 268.5 123.5C262.202 122.504 255.868 122.17 249.5 122.5C249.018 119.169 250.018 116.503 252.5 114.5Z" fill="white"/>
<path fill-rule="evenodd" clip-rule="evenodd" d="M327.5 115.5C331.639 114.704 334.805 116.037 337 119.5C337.667 131.5 337.667 143.5 337 155.5C334.541 165.482 328.374 168.815 318.5 165.5C317.626 163.253 317.292 160.92 317.5 158.5C321.684 159.296 324.85 157.963 327 154.5C327.5 141.504 327.667 128.504 327.5 115.5Z" fill="white"/>
<path fill-rule="evenodd" clip-rule="evenodd" d="M443.5 127.5C443.5 136.167 443.5 144.833 443.5 153.5C441.5 153.5 439.5 153.5 437.5 153.5C435.887 153.056 434.72 152.056 434 150.5C433.911 141.758 433.244 133.091 432 124.5C426.261 120.857 422.428 122.191 420.5 128.5C419.507 136.65 419.174 144.983 419.5 153.5C417.833 153.5 416.167 153.5 414.5 153.5C412.376 152.969 410.876 151.635 410 149.5C409.907 141.091 409.24 132.757 408 124.5C402.261 120.857 398.428 122.191 396.5 128.5C395.507 136.65 395.174 144.983 395.5 153.5C393.833 153.5 392.167 153.5 390.5 153.5C389.206 152.71 388.039 151.71 387 150.5C386.333 141.833 386.333 133.167 387 124.5C392.268 114.293 400.435 111.127 411.5 115C413 116.5 414.5 118 416 119.5C424.229 111.644 432.562 111.644 441 119.5C442.341 122.022 443.174 124.689 443.5 127.5Z" fill="white"/>
<path fill-rule="evenodd" clip-rule="evenodd" d="M526.5 114.5C529.545 114.342 532.379 115.009 535 116.5C536.033 125.485 537.033 134.485 538 143.5C542.564 147.843 546.564 147.509 550 142.5C550.5 133.173 550.666 123.839 550.5 114.5C554.803 113.796 558.303 115.13 561 118.5C561.667 126.167 561.667 133.833 561 141.5C559.282 150.87 553.615 155.537 544 155.5C534.998 154.828 529.332 150.161 527 141.5C526.5 132.506 526.334 123.506 526.5 114.5Z" fill="white"/>
<path fill-rule="evenodd" clip-rule="evenodd" d="M297.5 113.5C304.651 112.606 310.818 114.606 316 119.5C318.5 127.965 319.167 136.631 318 145.5C316.402 150.099 313.235 152.932 308.5 154C303.833 154.667 299.167 154.667 294.5 154C284.322 148.59 282.988 141.59 290.5 133C296.147 130.068 302.147 128.901 308.5 129.5C308.915 126.632 307.915 124.465 305.5 123C301.5 122.333 297.5 122.333 293.5 123C291.483 123.674 289.817 124.841 288.5 126.5C287.233 123.761 287.399 121.094 289 118.5C291.682 116.415 294.516 114.748 297.5 113.5Z" fill="white"/>
<path fill-rule="evenodd" clip-rule="evenodd" d="M358.5 113.5C368.259 112.124 375.092 115.791 379 124.5C380.916 132.152 378.083 136.652 370.5 138C365.136 138.171 359.802 138.671 354.5 139.5C358.446 146.397 364.279 148.397 372 145.5C374.406 145.297 376.406 144.297 378 142.5C379.168 149.34 376.334 153.506 369.5 155C354.065 156.636 345.732 149.802 344.5 134.5C344.464 124.228 349.13 117.228 358.5 113.5Z" fill="white"/>
<path fill-rule="evenodd" clip-rule="evenodd" d="M359.5 122.5C362.649 122.211 365.649 122.711 368.5 124C369.769 126.139 369.769 128.305 368.5 130.5C363.9 131.443 359.233 131.777 354.5 131.5C354.372 127.415 356.039 124.415 359.5 122.5Z" fill="black"/>
<path fill-rule="evenodd" clip-rule="evenodd" d="M443.5 127.5C444.493 136.318 444.827 145.318 444.5 154.5C441.941 154.802 439.607 154.468 437.5 153.5C439.5 153.5 441.5 153.5 443.5 153.5C443.5 144.833 443.5 136.167 443.5 127.5Z" fill="white"/>
<path fill-rule="evenodd" clip-rule="evenodd" d="M194.5 120.5C194.167 120.5 193.833 120.5 193.5 120.5C192.141 121.007 191.141 122.007 190.5 123.5C189.914 123.291 189.414 122.957 189 122.5C189.184 125.797 187.684 127.797 184.5 128.5C184.709 129.086 185.043 129.586 185.5 130C183.613 129.577 181.613 129.744 179.5 130.5C178.994 134.683 177.828 138.683 176 142.5C173.051 145.91 169.384 148.243 165 149.5C164.517 148.552 164.351 147.552 164.5 146.5C165.552 146.649 166.552 146.483 167.5 146C165.471 145.319 163.471 144.986 161.5 145C162.09 148.003 162.423 151.003 162.5 154C161.99 155.826 161.156 155.993 160 154.5C160.803 157.442 159.636 159.609 156.5 161C154.5 161.333 152.5 161.667 150.5 162C151.624 162.249 152.624 162.749 153.5 163.5C151.041 164.791 149.541 166.791 149 169.5C145.15 172.189 141.317 175.022 137.5 178C135.048 178.29 132.715 178.956 130.5 180C129.272 181.49 129.272 182.99 130.5 184.5C129.5 185.833 128.5 187.167 127.5 188.5C124.845 189.497 122.845 191.164 121.5 193.5C118.91 194.128 116.577 195.295 114.5 197C109.597 197.937 104.93 197.27 100.5 195C99.4179 193.67 98.7509 192.17 98.4999 190.5C97.5759 180.539 97.2419 170.539 97.4999 160.5C97.4999 157.833 97.4999 155.167 97.4999 152.5C97.8329 152.5 98.1669 152.5 98.4999 152.5C99.2169 150.047 100.384 147.713 102 145.5C102.498 142.518 102.665 139.518 102.5 136.5C102.572 133.447 103.572 130.781 105.5 128.5C106.383 125.296 108.05 122.629 110.5 120.5C110.833 120.5 111.167 120.5 111.5 120.5C112.842 121.793 114.509 122.626 116.5 123C131.41 125.393 146.41 126.06 161.5 125C173.707 122.914 185.04 118.747 195.5 112.5C195.833 112.667 196.167 112.833 196.5 113C194.722 115.135 194.055 117.635 194.5 120.5Z" fill="white"/>
<path fill-rule="evenodd" clip-rule="evenodd" d="M396.5 128.5C396.5 137.167 396.5 145.833 396.5 154.5C394.265 154.795 392.265 154.461 390.5 153.5C392.167 153.5 393.833 153.5 395.5 153.5C395.174 144.983 395.507 136.65 396.5 128.5Z" fill="white"/>
<path fill-rule="evenodd" clip-rule="evenodd" d="M420.5 128.5C420.5 137.167 420.5 145.833 420.5 154.5C418.265 154.795 416.265 154.461 414.5 153.5C416.167 153.5 417.833 153.5 419.5 153.5C419.174 144.983 419.507 136.65 420.5 128.5Z" fill="white"/>
<path fill-rule="evenodd" clip-rule="evenodd" d="M35.5 136.5C37.6382 136.703 39.3049 137.703 40.5 139.5C41.4287 140.689 41.762 142.022 41.5 143.5C39.5293 141.192 37.5293 138.858 35.5 136.5Z" fill="white"/>
<path fill-rule="evenodd" clip-rule="evenodd" d="M298.5 137.5C301.833 137.5 305.167 137.5 308.5 137.5C310.1 143.401 307.933 146.401 302 146.5C296.209 145.432 295.043 142.432 298.5 137.5Z" fill="black"/>
<path fill-rule="evenodd" clip-rule="evenodd" d="M571.5 141.5C576.114 140.856 579.114 142.689 580.5 147C580.358 151.546 578.025 154.046 573.5 154.5C566.475 151.102 565.808 146.769 571.5 141.5Z" fill="white"/>
<path fill-rule="evenodd" clip-rule="evenodd" d="M41.5 143.5C42.9778 143.238 44.3112 143.571 45.5 144.5C47.22 147.202 48.8866 149.868 50.5 152.5C47.1667 149.833 44.1667 146.833 41.5 143.5Z" fill="white"/>
<path fill-rule="evenodd" clip-rule="evenodd" d="M510.5 141.5C519.369 141.517 521.703 145.35 517.5 153C514.055 155.222 511.055 154.722 508.5 151.5C506.81 147.631 507.476 144.298 510.5 141.5Z" fill="white"/>
<path fill-rule="evenodd" clip-rule="evenodd" d="M193.5 120.5C193.649 121.552 193.483 122.552 193 123.5C184.88 133.768 176.38 143.435 167.5 152.5C163.215 157.452 158.548 162.119 153.5 166.5C149.557 170.154 145.557 173.82 141.5 177.5C137.664 179.584 133.997 181.917 130.5 184.5C129.272 182.99 129.272 181.49 130.5 180C132.715 178.956 135.048 178.29 137.5 178C141.317 175.022 145.15 172.189 149 169.5C149.541 166.791 151.041 164.791 153.5 163.5C152.624 162.749 151.624 162.249 150.5 162C152.5 161.667 154.5 161.333 156.5 161C159.636 159.609 160.803 157.442 160 154.5C161.156 155.993 161.99 155.826 162.5 154C162.423 151.003 162.09 148.003 161.5 145C163.471 144.986 165.471 145.319 167.5 146C166.552 146.483 165.552 146.649 164.5 146.5C164.351 147.552 164.517 148.552 165 149.5C169.384 148.243 173.051 145.91 176 142.5C177.828 138.683 178.994 134.683 179.5 130.5C181.613 129.744 183.613 129.577 185.5 130C185.043 129.586 184.709 129.086 184.5 128.5C187.684 127.797 189.184 125.797 189 122.5C189.414 122.957 189.914 123.291 190.5 123.5C191.141 122.007 192.141 121.007 193.5 120.5Z" fill="white"/>
<path fill-rule="evenodd" clip-rule="evenodd" d="M51.5 152.5C53.922 153.085 55.5887 154.585 56.5 157C59.9233 156.855 61.9233 158.355 62.5 161.5C64.5798 163.573 66.2464 165.907 67.5 168.5C64.6653 165.835 61.6653 163.335 58.5 161C55.6068 158.609 53.2734 155.775 51.5 152.5Z" fill="white"/>
<path fill-rule="evenodd" clip-rule="evenodd" d="M78.5 136.5C77.4292 146.652 79.5959 155.985 85 164.5C85.8912 168.372 85.3912 172.038 83.5 175.5C81.2351 176.647 78.9018 176.814 76.5 176C73.5089 173.502 70.5089 171.002 67.5 168.5C66.2464 165.907 64.5798 163.573 62.5 161.5C64.3111 162.822 66.3111 163.322 68.5 163C65.675 160.005 63.0083 156.838 60.5 153.5C61.8333 152.167 63.1667 152.167 64.5 153.5C65.4363 154.974 66.7697 155.974 68.5 156.5C69.3567 157.736 70.0234 159.069 70.5 160.5C74.6886 161.537 76.3553 164.204 75.5 168.5C76.552 168.351 77.552 168.517 78.5 169C76.0426 170.512 76.0426 171.846 78.5 173C78.1667 173.333 77.8333 173.667 77.5 174C79.2588 174.798 80.9255 174.631 82.5 173.5C83.5617 170.897 83.7284 168.23 83 165.5C82.2588 166.641 81.4255 166.641 80.5 165.5C79.6735 161.541 79.1735 157.541 79 153.5C77.8909 157.017 76.7242 157.184 75.5 154C77.0383 148.157 78.0383 142.324 78.5 136.5Z" fill="white"/>
</svg>
