<?xml version="1.0" encoding="UTF-8"?>
<!DOCTYPE svg PUBLIC "-//W3C//DTD SVG 1.1//EN" "http://www.w3.org/Graphics/SVG/1.1/DTD/svg11.dtd">
<svg xmlns="http://www.w3.org/2000/svg" version="1.1" width="625px" height="625px" style="shape-rendering:geometricPrecision; text-rendering:geometricPrecision; image-rendering:optimizeQuality; fill-rule:evenodd; clip-rule:evenodd" xmlns:xlink="http://www.w3.org/1999/xlink">
<g><path style="opacity:1" fill="#fefefe" d="M -0.5,-0.5 C 207.833,-0.5 416.167,-0.5 624.5,-0.5C 624.5,207.833 624.5,416.167 624.5,624.5C 416.167,624.5 207.833,624.5 -0.5,624.5C -0.5,416.167 -0.5,207.833 -0.5,-0.5 Z"/></g>
<g><path style="opacity:1" fill="#eb97ad" d="M 110.5,239.5 C 105.455,236.988 100.121,234.988 94.5,233.5C 88.3287,235.564 81.9954,236.897 75.5,237.5C 85.2135,230.597 95.5469,229.764 106.5,235C 108.041,236.371 109.375,237.871 110.5,239.5 Z"/></g>
<g><path style="opacity:1" fill="#fc83a0" d="M 110.5,239.5 C 113.879,260.338 105.545,274.505 85.5,282C 72.6288,286.909 63.1288,283.409 57,271.5C 54.7962,260.444 57.9629,251.277 66.5,244C 69.3968,241.59 72.3968,239.423 75.5,237.5C 81.9954,236.897 88.3287,235.564 94.5,233.5C 100.121,234.988 105.455,236.988 110.5,239.5 Z"/></g>
<g><path style="opacity:1" fill="#e698ab" d="M 41.5,242.5 C 45.0528,241.045 48.5528,241.378 52,243.5C 53.5779,248.157 52.0779,251.157 47.5,252.5C 52.8047,245.203 50.8047,241.87 41.5,242.5 Z"/></g>
<g><path style="opacity:1" fill="#f58ca5" d="M 47.5,253.5 C 38.2295,263.284 36.0628,274.617 41,287.5C 43.3722,289.703 45.5389,292.037 47.5,294.5C 44.975,292.429 41.975,291.095 38.5,290.5C 36.541,282.548 36.2077,274.548 37.5,266.5C 36.1779,266.67 35.0113,266.337 34,265.5C 33.3941,261.899 31.8941,258.732 29.5,256C 30.7932,255.51 32.1266,255.343 33.5,255.5C 34.1818,258.709 35.8484,261.375 38.5,263.5C 39.4317,260.827 39.5984,258.161 39,255.5C 41.4815,253.686 44.3148,253.02 47.5,253.5 Z"/></g>
<g><path style="opacity:1" fill="#effce5" d="M 216.5,264.5 C 215.167,263.5 213.833,262.5 212.5,261.5C 208.529,258.525 205.029,259.191 202,263.5C 200.921,266.063 200.421,268.729 200.5,271.5C 199.213,270.129 198.547,268.295 198.5,266C 198.536,263.906 198.869,261.906 199.5,260C 204.333,257.681 209.333,257.181 214.5,258.5C 215.747,260.323 216.414,262.323 216.5,264.5 Z"/></g>
<g><path style="opacity:1" fill="#e2fbcb" d="M 319.5,268.5 C 316.785,266.877 313.785,266.21 310.5,266.5C 312.542,263.097 315.209,262.764 318.5,265.5C 319.386,266.325 319.719,267.325 319.5,268.5 Z"/></g>
<g><path style="opacity:1" fill="#98cb6e" d="M 212.5,261.5 C 208.473,259.634 205.306,260.634 203,264.5C 202.829,272.344 202.329,280.011 201.5,287.5C 201.821,281.974 201.488,276.64 200.5,271.5C 200.421,268.729 200.921,266.063 202,263.5C 205.029,259.191 208.529,258.525 212.5,261.5 Z"/></g>
<g><path style="opacity:1" fill="#e3f6d6" d="M 297.5,276.5 C 295.661,275.492 294.328,273.992 293.5,272C 290.949,271.998 288.949,271.164 287.5,269.5C 287.082,268.778 286.416,268.278 285.5,268C 281.5,267.333 277.5,267.333 273.5,268C 271.121,268.716 269.121,269.883 267.5,271.5C 267.167,271.5 266.833,271.5 266.5,271.5C 266.5,270.167 266.5,268.833 266.5,267.5C 274.137,267.218 281.637,266.218 289,264.5C 290.567,265.856 292.4,266.523 294.5,266.5C 294.966,268.201 294.966,269.701 294.5,271C 295.758,272.741 296.758,274.574 297.5,276.5 Z"/></g>
<g><path style="opacity:1" fill="#69ac3c" d="M 501.5,268.5 C 500.833,268.833 500.167,269.167 499.5,269.5C 499.5,267.833 499.5,266.167 499.5,264.5C 494.377,265.109 490.377,267.609 487.5,272C 489.382,272.198 491.048,272.698 492.5,273.5C 491.833,273.5 491.167,273.5 490.5,273.5C 485.831,274.01 484.831,272.677 487.5,269.5C 490.149,263.94 494.482,262.107 500.5,264C 501.38,265.356 501.714,266.856 501.5,268.5 Z"/></g>
<g><path style="opacity:1" fill="#55bb17" d="M 499.5,269.5 C 497.708,271.569 495.374,272.903 492.5,273.5C 491.048,272.698 489.382,272.198 487.5,272C 490.377,267.609 494.377,265.109 499.5,264.5C 499.5,266.167 499.5,267.833 499.5,269.5 Z"/></g>
<g><path style="opacity:1" fill="#fa607f" d="M 89.5,351.5 C 87.765,356.93 86.0983,362.263 84.5,367.5C 84.0383,373.324 83.0383,379.157 81.5,385C 82.7242,388.184 83.8909,388.017 85,384.5C 85.1735,388.541 85.6735,392.541 86.5,396.5C 87.4255,397.641 88.2588,397.641 89,396.5C 89.7284,399.23 89.5617,401.897 88.5,404.5C 86.9255,405.631 85.2588,405.798 83.5,405C 83.8333,404.667 84.1667,404.333 84.5,404C 82.0426,402.846 82.0426,401.512 84.5,400C 83.552,399.517 82.552,399.351 81.5,399.5C 82.3553,395.204 80.6886,392.537 76.5,391.5C 76.0234,390.069 75.3567,388.736 74.5,387.5C 72.7697,386.974 71.4363,385.974 70.5,384.5C 69.1667,383.167 67.8333,383.167 66.5,384.5C 69.0083,387.838 71.675,391.005 74.5,394C 72.3111,394.322 70.3111,393.822 68.5,392.5C 67.9233,389.355 65.9233,387.855 62.5,388C 61.5887,385.585 59.922,384.085 57.5,383.5C 57.1667,383.5 56.8333,383.5 56.5,383.5C 54.8866,380.868 53.22,378.202 51.5,375.5C 50.3112,374.571 48.9778,374.238 47.5,374.5C 47.762,373.022 47.4287,371.689 46.5,370.5C 45.3049,368.703 43.6382,367.703 41.5,367.5C 27.7494,353.025 17.2494,336.359 10,317.5C 9.1785,314.883 8.6785,312.216 8.5,309.5C 8.33368,302.159 8.50034,294.826 9,287.5C 10.9698,283.101 11.8032,278.435 11.5,273.5C 12.3084,270.55 13.6418,267.883 15.5,265.5C 16.4959,265.586 17.3292,265.252 18,264.5C 20.832,271.822 23.6653,279.156 26.5,286.5C 31.1088,292.732 35.6088,299.065 40,305.5C 50.1835,316.015 61.0169,325.849 72.5,335C 77.6446,336.696 82.6446,338.863 87.5,341.5C 89.2892,344.556 89.9559,347.889 89.5,351.5 Z"/></g>
<g><path style="opacity:1" fill="#78d43f" d="M 219.5,303.5 C 219.675,305.621 219.341,307.621 218.5,309.5C 215.772,313.95 214.439,313.45 214.5,308C 215.482,295.725 214.648,283.558 212,271.5C 210.427,268.786 208.26,267.953 205.5,269C 203.618,265.024 204.952,262.858 209.5,262.5C 211.857,264.123 214.024,266.123 216,268.5C 218.991,279.962 220.158,291.628 219.5,303.5 Z"/></g>
<g><path style="opacity:1" fill="#70b745" d="M 287.5,269.5 C 283.818,269.335 280.152,269.501 276.5,270C 274.924,270.44 273.59,271.273 272.5,272.5C 270.929,271.691 269.262,271.357 267.5,271.5C 269.121,269.883 271.121,268.716 273.5,268C 277.5,267.333 281.5,267.333 285.5,268C 286.416,268.278 287.082,268.778 287.5,269.5 Z"/></g>
<g><path style="opacity:1" fill="#d2f7b8" d="M 487.5,269.5 C 484.831,272.677 485.831,274.01 490.5,273.5C 490.5,273.833 490.5,274.167 490.5,274.5C 488.473,274.662 486.473,274.495 484.5,274C 483.62,272.644 483.286,271.144 483.5,269.5C 484.833,269.5 486.167,269.5 487.5,269.5 Z"/></g>
<g><path style="opacity:1" fill="#66b235" d="M 266.5,271.5 C 266.833,271.5 267.167,271.5 267.5,271.5C 267.447,274.061 268.447,276.061 270.5,277.5C 276.009,275.211 281.676,274.878 287.5,276.5C 287.5,277.5 287.5,278.5 287.5,279.5C 283.019,277.618 278.353,277.118 273.5,278C 271.304,279.699 269.304,281.533 267.5,283.5C 269.055,279.037 267.388,276.704 262.5,276.5C 260.654,279.881 259.654,283.547 259.5,287.5C 258.5,287.5 257.5,287.5 256.5,287.5C 256.784,289.415 256.451,291.081 255.5,292.5C 255.301,283.393 258.967,276.393 266.5,271.5 Z"/></g>
<g><path style="opacity:1" fill="#fc82a0" d="M 41.5,242.5 C 50.8047,241.87 52.8047,245.203 47.5,252.5C 47.5,252.833 47.5,253.167 47.5,253.5C 44.3148,253.02 41.4815,253.686 39,255.5C 39.5984,258.161 39.4317,260.827 38.5,263.5C 35.8484,261.375 34.1818,258.709 33.5,255.5C 32.1266,255.343 30.7932,255.51 29.5,256C 31.8941,258.732 33.3941,261.899 34,265.5C 35.0113,266.337 36.1779,266.67 37.5,266.5C 36.2077,274.548 36.541,282.548 38.5,290.5C 41.975,291.095 44.975,292.429 47.5,294.5C 48.2297,296.045 49.563,296.878 51.5,297C 58.8333,297.667 66.1667,297.667 73.5,297C 77.9295,294.912 82.5962,293.579 87.5,293C 88.3805,292.292 89.0472,291.458 89.5,290.5C 101.743,285.884 113.743,280.384 125.5,274C 135.178,269.75 143.678,271.25 151,278.5C 151.969,283.307 150.969,287.64 148,291.5C 133.626,304.176 119.293,316.843 105,329.5C 99.6335,336.699 94.4668,344.032 89.5,351.5C 89.9559,347.889 89.2892,344.556 87.5,341.5C 82.6446,338.863 77.6446,336.696 72.5,335C 61.0169,325.849 50.1835,316.015 40,305.5C 35.6088,299.065 31.1088,292.732 26.5,286.5C 23.6653,279.156 20.832,271.822 18,264.5C 17.3292,265.252 16.4959,265.586 15.5,265.5C 22.3519,255.64 31.0185,247.974 41.5,242.5 Z"/></g>
<g><path style="opacity:1" fill="#eafcdd" d="M 465.5,285.5 C 458.847,278.655 450.847,276.655 441.5,279.5C 444.524,277.218 448.024,276.218 452,276.5C 456.428,277.748 460.928,278.748 465.5,279.5C 465.5,281.5 465.5,283.5 465.5,285.5 Z"/></g>
<g><path style="opacity:1" fill="#80cf4d" d="M 212.5,261.5 C 213.833,262.5 215.167,263.5 216.5,264.5C 217.015,266.894 217.681,269.228 218.5,271.5C 218.947,277.779 219.947,283.946 221.5,290C 221.269,294.706 220.603,299.206 219.5,303.5C 220.158,291.628 218.991,279.962 216,268.5C 214.024,266.123 211.857,264.123 209.5,262.5C 204.952,262.858 203.618,265.024 205.5,269C 208.26,267.953 210.427,268.786 212,271.5C 214.648,283.558 215.482,295.725 214.5,308C 214.439,313.45 215.772,313.95 218.5,309.5C 218.5,312.167 218.5,314.833 218.5,317.5C 216.463,323.676 214.13,329.676 211.5,335.5C 211.167,335.5 210.833,335.5 210.5,335.5C 210.992,330.044 211.992,324.711 213.5,319.5C 212.5,319.5 211.5,319.5 210.5,319.5C 210.086,309.125 209.419,298.792 208.5,288.5C 209.077,286.894 209.41,285.228 209.5,283.5C 208.773,279.485 207.94,275.485 207,271.5C 206.749,281.497 206.916,291.497 207.5,301.5C 207.333,306.167 207.167,310.833 207,315.5C 205.812,316.563 205.312,317.897 205.5,319.5C 203.833,319.5 202.167,319.5 200.5,319.5C 200.215,317.712 200.548,316.045 201.5,314.5C 202.814,313.687 203.981,312.687 205,311.5C 205.832,303.479 205.665,295.479 204.5,287.5C 203.865,291.068 202.865,294.401 201.5,297.5C 201.5,295.167 201.5,292.833 201.5,290.5C 201.5,289.5 201.5,288.5 201.5,287.5C 202.329,280.011 202.829,272.344 203,264.5C 205.306,260.634 208.473,259.634 212.5,261.5 Z"/></g>
<g><path style="opacity:1" fill="#d2e9be" d="M 319.5,271.5 C 320.317,273.969 320.817,276.635 321,279.5C 324.866,277.76 328.7,277.427 332.5,278.5C 328.158,278.278 324.491,279.611 321.5,282.5C 320.883,282.389 320.383,282.056 320,281.5C 319.502,278.183 319.335,274.85 319.5,271.5 Z"/></g>
<g><path style="opacity:1" fill="#71b445" d="M 332.5,278.5 C 334.564,278.687 336.564,279.187 338.5,280C 339.789,281.802 341.456,282.969 343.5,283.5C 344.551,284.222 345.218,285.222 345.5,286.5C 342.057,284.896 338.723,283.062 335.5,281C 330.682,280.221 326.015,280.721 321.5,282.5C 324.491,279.611 328.158,278.278 332.5,278.5 Z"/></g>
<g><path style="opacity:1" fill="#edfdde" d="M 428.5,285.5 C 429.62,287.958 428.953,289.958 426.5,291.5C 427.209,286.594 425.543,282.927 421.5,280.5C 415.187,279.068 408.854,279.401 402.5,281.5C 402.62,280.414 403.287,279.747 404.5,279.5C 411.873,276.956 419.207,277.122 426.5,280C 428.155,281.444 428.822,283.278 428.5,285.5 Z"/></g>
<g><path style="opacity:1" fill="#f5fbeb" d="M 501.5,268.5 C 501.48,270.143 502.147,271.476 503.5,272.5C 502.286,274.069 500.619,274.902 498.5,275C 500.69,277.626 503.523,279.126 507,279.5C 507.801,282.367 507.634,285.034 506.5,287.5C 506.802,284.941 506.468,282.607 505.5,280.5C 503.052,279.527 500.385,279.194 497.5,279.5C 496.833,283.5 496.167,287.5 495.5,291.5C 495.5,292.833 495.5,294.167 495.5,295.5C 493.018,297.503 492.018,300.169 492.5,303.5C 491.167,303.5 489.833,303.5 488.5,303.5C 488.416,300.673 487.75,298.006 486.5,295.5C 488.318,297.078 489.318,296.578 489.5,294C 489.77,292.486 490.103,290.986 490.5,289.5C 487.64,287.158 488.14,285.824 492,285.5C 493.107,285.585 494.107,285.919 495,286.5C 495.167,286 495.333,285.5 495.5,285C 492.631,283.451 489.965,281.618 487.5,279.5C 490.086,278.52 492.753,278.187 495.5,278.5C 495.5,277.167 495.5,275.833 495.5,274.5C 493.833,274.5 492.167,274.5 490.5,274.5C 490.5,274.167 490.5,273.833 490.5,273.5C 491.167,273.5 491.833,273.5 492.5,273.5C 495.374,272.903 497.708,271.569 499.5,269.5C 500.167,269.167 500.833,268.833 501.5,268.5 Z"/></g>
<g><path style="opacity:1" fill="#f9fdf8" d="M 287.5,279.5 C 288.412,281.595 289.579,283.595 291,285.5C 291.667,291.5 291.667,297.5 291,303.5C 288.772,304.892 287.606,306.892 287.5,309.5C 286.167,309.5 284.833,309.5 283.5,309.5C 279.481,309.354 275.481,309.021 271.5,308.5C 269.238,306.315 267.738,303.648 267,300.5C 266.313,294.796 266.479,289.13 267.5,283.5C 269.304,281.533 271.304,279.699 273.5,278C 278.353,277.118 283.019,277.618 287.5,279.5 Z"/></g>
<g><path style="opacity:1" fill="#5ab721" d="M 465.5,285.5 C 465.5,286.167 465.5,286.833 465.5,287.5C 467.342,298.029 468.009,308.695 467.5,319.5C 463.09,319.713 459.757,318.046 457.5,314.5C 457.666,306.493 457.5,298.493 457,290.5C 455.005,288.253 452.505,287.253 449.5,287.5C 448.508,287.328 447.842,287.662 447.5,288.5C 446.167,289.167 444.833,289.833 443.5,290.5C 442.506,299.652 442.173,308.985 442.5,318.5C 439.644,317.172 436.644,316.172 433.5,315.5C 432.662,315.158 432.328,314.492 432.5,313.5C 432.334,306.159 432.5,298.826 433,291.5C 433.667,289.5 434.333,287.5 435,285.5C 437.664,284.002 439.83,282.002 441.5,279.5C 450.847,276.655 458.847,278.655 465.5,285.5 Z"/></g>
<g><path style="opacity:1" fill="#61b12e" d="M 367.5,278.5 C 373.275,277.775 378.608,278.941 383.5,282C 385.464,283.451 386.797,285.284 387.5,287.5C 385.143,287.337 382.81,287.503 380.5,288C 382.111,291.605 381.111,294.105 377.5,295.5C 377.389,296.117 377.056,296.617 376.5,297C 372.805,297.318 369.138,297.818 365.5,298.5C 364.558,298.392 363.725,298.059 363,297.5C 361.701,294.853 360.368,292.186 359,289.5C 357.641,290.365 356.474,291.365 355.5,292.5C 356.982,285.684 360.982,281.017 367.5,278.5 Z"/></g>
<g><path style="opacity:1" fill="#51ba0d" d="M 367.5,287.5 C 367.167,287.5 366.833,287.5 366.5,287.5C 365,288.588 363.667,289.921 362.5,291.5C 361.756,290.009 361.09,288.509 360.5,287C 366.416,280.007 373.416,278.674 381.5,283C 378.833,284 378.833,285 381.5,286C 378.711,286.021 375.878,285.854 373,285.5C 370.705,285.547 368.871,286.213 367.5,287.5 Z"/></g>
<g><path style="opacity:1" fill="#e76f8b" d="M 11.5,273.5 C 11.8032,278.435 10.9698,283.101 9,287.5C 8.50034,294.826 8.33368,302.159 8.5,309.5C 5.18834,297.159 6.18834,285.159 11.5,273.5 Z"/></g>
<g><path style="opacity:1" fill="#77b847" d="M 310.5,266.5 C 313.785,266.21 316.785,266.877 319.5,268.5C 319.5,269.167 319.5,269.833 319.5,270.5C 317.15,268.615 314.65,268.282 312,269.5C 310.827,283.63 311.493,297.63 314,311.5C 316.264,312.851 318.098,314.517 319.5,316.5C 317.139,315.565 314.972,314.232 313,312.5C 312.152,309.44 311.152,306.44 310,303.5C 309.173,290.993 309.34,278.66 310.5,266.5 Z"/></g>
<g><path style="opacity:1" fill="#70b24d" d="M 421.5,280.5 C 425.543,282.927 427.209,286.594 426.5,291.5C 426.5,292.167 426.167,292.5 425.5,292.5C 421.143,288.659 416.143,287.659 410.5,289.5C 410.5,288.833 410.5,288.167 410.5,287.5C 415.099,287.2 419.599,287.533 424,288.5C 424.667,287.167 424.667,285.833 424,284.5C 422.905,283.307 422.072,281.973 421.5,280.5 Z"/></g>
<g><path style="opacity:1" fill="#ecfddf" d="M 486.5,295.5 C 486.167,295.5 485.833,295.5 485.5,295.5C 484.867,290.706 483.7,286.039 482,281.5C 478.696,279.4 475.196,279.067 471.5,280.5C 473.213,286.926 475.213,293.259 477.5,299.5C 471.55,293.545 469.55,286.378 471.5,278C 475.924,277.551 480.09,278.385 484,280.5C 484.836,285.513 485.669,290.513 486.5,295.5 Z"/></g>
<g><path style="opacity:1" fill="#f5fbf5" d="M 366.5,287.5 C 366.833,287.5 367.167,287.5 367.5,287.5C 370.5,287.5 373.5,287.5 376.5,287.5C 377.605,289.713 377.605,291.88 376.5,294C 373.262,295.368 369.928,295.701 366.5,295C 365.663,293.989 365.33,292.822 365.5,291.5C 365.833,290.167 366.167,288.833 366.5,287.5 Z"/></g>
<g><path style="opacity:1" fill="#f9fcf5" d="M 441.5,279.5 C 439.83,282.002 437.664,284.002 435,285.5C 434.333,287.5 433.667,289.5 433,291.5C 432.5,298.826 432.334,306.159 432.5,313.5C 431.852,311.502 431.019,309.502 430,307.5C 429.576,310.025 428.41,312.025 426.5,313.5C 426.5,311.5 426.5,309.5 426.5,307.5C 421.094,310.674 415.427,311.174 409.5,309C 408.364,307.855 407.364,306.688 406.5,305.5C 406.078,301.278 406.745,297.278 408.5,293.5C 410.454,292.149 412.621,291.482 415,291.5C 418.473,292.163 421.973,292.496 425.5,292.5C 426.167,292.5 426.5,292.167 426.5,291.5C 428.953,289.958 429.62,287.958 428.5,285.5C 429.75,285.577 430.583,286.244 431,287.5C 433.21,283.122 436.71,280.455 441.5,279.5 Z"/></g>
<g><path style="opacity:1" fill="#79b746" d="M 505.5,280.5 C 503.167,280.5 500.833,280.5 498.5,280.5C 498.665,283.85 498.498,287.183 498,290.5C 497.329,291.252 496.496,291.586 495.5,291.5C 496.167,287.5 496.833,283.5 497.5,279.5C 500.385,279.194 503.052,279.527 505.5,280.5 Z"/></g>
<g><path style="opacity:1" fill="#5eb128" d="M 410.5,287.5 C 410.5,288.167 410.5,288.833 410.5,289.5C 404.792,292.873 402.958,297.873 405,304.5C 405.383,305.056 405.883,305.389 406.5,305.5C 407.364,306.688 408.364,307.855 409.5,309C 415.427,311.174 421.094,310.674 426.5,307.5C 426.5,309.5 426.5,311.5 426.5,313.5C 425.135,315.86 423.135,317.527 420.5,318.5C 419.957,318.44 419.624,318.107 419.5,317.5C 422.824,316.841 424.157,314.841 423.5,311.5C 406.245,315.045 399.079,308.045 402,290.5C 404.195,287.963 407.028,286.963 410.5,287.5 Z"/></g>
<g><path style="opacity:1" fill="#eafcdd" d="M 367.5,278.5 C 360.982,281.017 356.982,285.684 355.5,292.5C 352.821,298.491 353.154,304.491 356.5,310.5C 356.957,311.298 357.624,311.631 358.5,311.5C 359.09,312.766 359.59,314.099 360,315.5C 362.167,316.488 364,317.821 365.5,319.5C 361.123,318.647 357.623,316.314 355,312.5C 351.599,303.11 351.766,293.777 355.5,284.5C 357.5,282.833 359.5,281.167 361.5,279.5C 363.396,278.534 365.396,278.201 367.5,278.5 Z"/></g>
<g><path style="opacity:1" fill="#53b818" d="M 421.5,280.5 C 422.072,281.973 422.905,283.307 424,284.5C 424.667,285.833 424.667,287.167 424,288.5C 419.599,287.533 415.099,287.2 410.5,287.5C 407.028,286.963 404.195,287.963 402,290.5C 399.079,308.045 406.245,315.045 423.5,311.5C 424.157,314.841 422.824,316.841 419.5,317.5C 419.624,318.107 419.957,318.44 420.5,318.5C 420.5,318.833 420.5,319.167 420.5,319.5C 416.154,319.666 411.821,319.499 407.5,319C 404.521,317.838 401.855,316.338 399.5,314.5C 398.011,311.522 396.511,308.522 395,305.5C 394.102,299.341 394.602,293.341 396.5,287.5C 397.5,287.5 398.5,287.5 399.5,287.5C 399.683,285.012 400.683,283.012 402.5,281.5C 408.854,279.401 415.187,279.068 421.5,280.5 Z"/></g>
<g><path style="opacity:1" fill="#9ad173" d="M 218.5,271.5 C 220.083,274.387 221.583,277.387 223,280.5C 223.5,288.159 223.666,295.826 223.5,303.5C 222.351,303.791 221.684,304.624 221.5,306C 221.076,310.113 220.076,313.946 218.5,317.5C 218.5,314.833 218.5,312.167 218.5,309.5C 219.341,307.621 219.675,305.621 219.5,303.5C 220.603,299.206 221.269,294.706 221.5,290C 219.947,283.946 218.947,277.779 218.5,271.5 Z"/></g>
<g><path style="opacity:1" fill="#ed9caf" d="M 89.5,290.5 C 89.0472,291.458 88.3805,292.292 87.5,293C 82.5962,293.579 77.9295,294.912 73.5,297C 66.1667,297.667 58.8333,297.667 51.5,297C 49.563,296.878 48.2297,296.045 47.5,294.5C 54.0228,296.435 60.6895,296.935 67.5,296C 74.8713,294.264 82.2046,292.431 89.5,290.5 Z"/></g>
<g><path style="opacity:1" fill="#51b912" d="M 319.5,270.5 C 319.5,270.833 319.5,271.167 319.5,271.5C 319.335,274.85 319.502,278.183 320,281.5C 320.383,282.056 320.883,282.389 321.5,282.5C 326.015,280.721 330.682,280.221 335.5,281C 338.723,283.062 342.057,284.896 345.5,286.5C 346.995,293.619 346.995,297.952 345.5,299.5C 344.178,299.33 343.011,299.663 342,300.5C 341.003,295.872 339.503,291.539 337.5,287.5C 335.5,287.5 333.5,287.5 331.5,287.5C 329.833,287.5 328.167,287.5 326.5,287.5C 323.137,287.513 320.97,289.179 320,292.5C 319.768,296.555 319.268,300.555 318.5,304.5C 321.416,311.538 326.582,313.871 334,311.5C 335.03,311.164 335.53,310.497 335.5,309.5C 335.5,309.167 335.5,308.833 335.5,308.5C 335.5,308.167 335.5,307.833 335.5,307.5C 336.745,308.602 338.078,309.602 339.5,310.5C 340.635,308.293 341.301,305.96 341.5,303.5C 343.59,303.45 344.923,304.45 345.5,306.5C 344.691,308.071 344.357,309.738 344.5,311.5C 343.167,311.5 341.833,311.5 340.5,311.5C 340.5,312.5 340.5,313.5 340.5,314.5C 338.799,314.966 337.299,314.966 336,314.5C 335.506,316.134 335.34,317.801 335.5,319.5C 330.821,319.666 326.155,319.499 321.5,319C 320.244,318.583 319.577,317.75 319.5,316.5C 318.098,314.517 316.264,312.851 314,311.5C 311.493,297.63 310.827,283.63 312,269.5C 314.65,268.282 317.15,268.615 319.5,270.5 Z"/></g>
<g><path style="opacity:1" fill="#e0fbc7" d="M 376.5,287.5 C 380.055,289.729 380.388,292.396 377.5,295.5C 373.232,296.373 368.898,296.706 364.5,296.5C 364.216,294.585 364.549,292.919 365.5,291.5C 365.33,292.822 365.663,293.989 366.5,295C 369.928,295.701 373.262,295.368 376.5,294C 377.605,291.88 377.605,289.713 376.5,287.5 Z"/></g>
<g><path style="opacity:1" fill="#e0f9cb" d="M 425.5,292.5 C 421.973,292.496 418.473,292.163 415,291.5C 412.621,291.482 410.454,292.149 408.5,293.5C 406.745,297.278 406.078,301.278 406.5,305.5C 405.883,305.389 405.383,305.056 405,304.5C 402.958,297.873 404.792,292.873 410.5,289.5C 416.143,287.659 421.143,288.659 425.5,292.5 Z"/></g>
<g><path style="opacity:1" fill="#eefdd4" d="M 447.5,288.5 C 447.539,290.359 446.706,291.692 445,292.5C 444.83,301.676 444.33,310.676 443.5,319.5C 443.5,309.833 443.5,300.167 443.5,290.5C 444.833,289.833 446.167,289.167 447.5,288.5 Z"/></g>
<g><path style="opacity:1" fill="#93cb6a" d="M 178.5,298.5 C 181.244,301.591 182.077,305.258 181,309.5C 178.88,312.896 177.046,316.23 175.5,319.5C 176.359,315.438 177.526,311.438 179,307.5C 180.248,303.517 178.914,301.183 175,300.5C 172.83,301.522 170.664,302.522 168.5,303.5C 170.721,299.723 174.054,298.056 178.5,298.5 Z"/></g>
<g><path style="opacity:1" fill="#a1d584" d="M 201.5,290.5 C 201.5,292.833 201.5,295.167 201.5,297.5C 201.975,300.082 201.308,302.082 199.5,303.5C 199.5,301.5 199.5,299.5 199.5,297.5C 200.167,295.167 200.833,292.833 201.5,290.5 Z"/></g>
<g><path style="opacity:1" fill="#51b910" d="M 267.5,283.5 C 266.25,283.577 265.417,284.244 265,285.5C 264.505,287.473 264.338,289.473 264.5,291.5C 263.5,291.5 262.5,291.5 261.5,291.5C 261.338,293.527 261.505,295.527 262,297.5C 262.333,297.167 262.667,296.833 263,296.5C 265.939,300.264 266.272,304.264 264,308.5C 262.98,307.109 262.147,305.609 261.5,304C 260.552,303.517 259.552,303.351 258.5,303.5C 258.975,300.687 257.975,298.687 255.5,297.5C 255.5,295.833 255.5,294.167 255.5,292.5C 256.451,291.081 256.784,289.415 256.5,287.5C 257.5,287.5 258.5,287.5 259.5,287.5C 259.654,283.547 260.654,279.881 262.5,276.5C 267.388,276.704 269.055,279.037 267.5,283.5 Z"/></g>
<g><path style="opacity:1" fill="#f9fcf7" d="M 326.5,287.5 C 328.167,287.5 329.833,287.5 331.5,287.5C 332.531,288.249 333.698,288.915 335,289.5C 338.057,295.48 338.224,301.48 335.5,307.5C 335.5,307.833 335.5,308.167 335.5,308.5C 331.406,310.173 327.573,309.84 324,307.5C 322.074,303.035 321.24,298.368 321.5,293.5C 322.45,290.885 324.117,288.885 326.5,287.5 Z"/></g>
<g><path style="opacity:1" fill="#e5f9d3" d="M 170.5,297.5 C 173.385,297.194 176.052,297.527 178.5,298.5C 174.054,298.056 170.721,299.723 168.5,303.5C 165.271,305.378 162.271,307.712 159.5,310.5C 159.351,309.448 159.517,308.448 160,307.5C 163.396,303.935 166.896,300.602 170.5,297.5 Z"/></g>
<g><path style="opacity:1" fill="#62b531" d="M 345.5,286.5 C 347.914,290.021 348.914,294.021 348.5,298.5C 349.059,303.538 347.726,307.871 344.5,311.5C 344.357,309.738 344.691,308.071 345.5,306.5C 344.923,304.45 343.59,303.45 341.5,303.5C 341.301,305.96 340.635,308.293 339.5,310.5C 338.078,309.602 336.745,308.602 335.5,307.5C 338.224,301.48 338.057,295.48 335,289.5C 333.698,288.915 332.531,288.249 331.5,287.5C 333.5,287.5 335.5,287.5 337.5,287.5C 339.503,291.539 341.003,295.872 342,300.5C 343.011,299.663 344.178,299.33 345.5,299.5C 346.995,297.952 346.995,293.619 345.5,286.5 Z"/></g>
<g><path style="opacity:1" fill="#53b818" d="M 387.5,287.5 C 388.338,287.842 388.672,288.508 388.5,289.5C 388.665,292.518 388.498,295.518 388,298.5C 385.574,300.452 383.074,302.119 380.5,303.5C 375.167,303.5 369.833,303.5 364.5,303.5C 365.783,306.01 366.783,308.677 367.5,311.5C 372.179,311.666 376.845,311.499 381.5,311C 383.217,309.441 385.217,308.608 387.5,308.5C 388.25,312.775 386.917,316.109 383.5,318.5C 377.69,319.49 371.69,319.823 365.5,319.5C 364,317.821 362.167,316.488 360,315.5C 359.59,314.099 359.09,312.766 358.5,311.5C 356.009,305.489 355.009,299.155 355.5,292.5C 356.474,291.365 357.641,290.365 359,289.5C 360.368,292.186 361.701,294.853 363,297.5C 363.725,298.059 364.558,298.392 365.5,298.5C 369.138,297.818 372.805,297.318 376.5,297C 377.056,296.617 377.389,296.117 377.5,295.5C 381.111,294.105 382.111,291.605 380.5,288C 382.81,287.503 385.143,287.337 387.5,287.5 Z"/></g>
<g><path style="opacity:1" fill="#c0eaa0" d="M 388.5,289.5 C 389.641,292.64 389.808,295.973 389,299.5C 387.333,300.733 385.833,302.067 384.5,303.5C 383.167,303.5 381.833,303.5 380.5,303.5C 383.074,302.119 385.574,300.452 388,298.5C 388.498,295.518 388.665,292.518 388.5,289.5 Z"/></g>
<g><path style="opacity:1" fill="#d5f6bd" d="M 321.5,293.5 C 321.24,298.368 322.074,303.035 324,307.5C 327.573,309.84 331.406,310.173 335.5,308.5C 335.5,308.833 335.5,309.167 335.5,309.5C 329.302,313.028 324.469,311.695 321,305.5C 320.188,301.311 320.355,297.311 321.5,293.5 Z"/></g>
<g><path style="opacity:1" fill="#86c060" d="M 465.5,287.5 C 466.793,288.842 467.626,290.509 468,292.5C 468.824,301.676 468.657,310.676 467.5,319.5C 468.009,308.695 467.342,298.029 465.5,287.5 Z"/></g>
<g><path style="opacity:1" fill="#71b13f" d="M 355.5,292.5 C 355.009,299.155 356.009,305.489 358.5,311.5C 357.624,311.631 356.957,311.298 356.5,310.5C 353.154,304.491 352.821,298.491 355.5,292.5 Z"/></g>
<g><path style="opacity:1" fill="#e2facb" d="M 302.5,287.5 C 303.652,292.985 303.818,298.651 303,304.5C 302.186,307.177 300.686,309.177 298.5,310.5C 301.959,303.242 303.293,295.575 302.5,287.5 Z"/></g>
<g><path style="opacity:1" fill="#ebfcd7" d="M 449.5,287.5 C 452.505,287.253 455.005,288.253 457,290.5C 457.5,298.493 457.666,306.493 457.5,314.5C 456.508,307.018 456.175,299.352 456.5,291.5C 454.473,291.662 452.473,291.495 450.5,291C 449.663,289.989 449.33,288.822 449.5,287.5 Z"/></g>
<g><path style="opacity:1" fill="#68ad3e" d="M 480.5,306.5 C 485.758,310.706 487.258,316.039 485,322.5C 482.096,324.227 478.93,324.893 475.5,324.5C 475.261,326.467 475.594,328.301 476.5,330C 479.146,330.497 481.813,330.664 484.5,330.5C 483.207,331.158 481.707,331.492 480,331.5C 474.743,331.911 472.743,329.578 474,324.5C 476.069,323.736 478.236,323.236 480.5,323C 481.056,322.617 481.389,322.117 481.5,321.5C 483.352,320.48 484.685,318.98 485.5,317C 483.956,313.413 482.289,309.913 480.5,306.5 Z"/></g>
<g><path style="opacity:1" fill="#f7fcf2" d="M 199.5,297.5 C 199.5,299.5 199.5,301.5 199.5,303.5C 197.315,309.034 194.649,314.367 191.5,319.5C 191.5,319.833 191.5,320.167 191.5,320.5C 186.796,325.53 181.463,329.864 175.5,333.5C 175.179,335.048 174.179,335.715 172.5,335.5C 167.144,337.905 161.644,340.238 156,342.5C 155.5,342.167 155,341.833 154.5,341.5C 155.524,340.148 156.524,338.815 157.5,337.5C 164.452,332.548 170.452,326.548 175.5,319.5C 177.046,316.23 178.88,312.896 181,309.5C 182.077,305.258 181.244,301.591 178.5,298.5C 176.052,297.527 173.385,297.194 170.5,297.5C 170.611,296.883 170.944,296.383 171.5,296C 178.972,293.386 182.972,295.886 183.5,303.5C 185.288,303.215 186.955,303.548 188.5,304.5C 190.581,314.912 193.248,315.078 196.5,305C 196.265,304.127 195.931,303.293 195.5,302.5C 196.247,302.264 197.08,301.93 198,301.5C 198.21,299.942 198.71,298.609 199.5,297.5 Z"/></g>
<g><path style="opacity:1" fill="#6aa93f" d="M 326.5,287.5 C 324.117,288.885 322.45,290.885 321.5,293.5C 320.355,297.311 320.188,301.311 321,305.5C 324.469,311.695 329.302,313.028 335.5,309.5C 335.53,310.497 335.03,311.164 334,311.5C 326.582,313.871 321.416,311.538 318.5,304.5C 319.268,300.555 319.768,296.555 320,292.5C 320.97,289.179 323.137,287.513 326.5,287.5 Z"/></g>
<g><path style="opacity:1" fill="#5fb32a" d="M 267.5,283.5 C 266.479,289.13 266.313,294.796 267,300.5C 267.738,303.648 269.238,306.315 271.5,308.5C 275.355,311.747 279.355,312.08 283.5,309.5C 284.833,309.5 286.167,309.5 287.5,309.5C 287.53,310.497 287.03,311.164 286,311.5C 284.042,312.051 282.042,312.385 280,312.5C 275.505,311.579 271.005,311.079 266.5,311C 266.167,311.333 265.833,311.667 265.5,312C 267.087,312.862 268.754,313.529 270.5,314C 271.641,314.741 271.641,315.575 270.5,316.5C 271.993,317.141 272.993,318.141 273.5,319.5C 262.893,316.203 256.893,308.869 255.5,297.5C 257.975,298.687 258.975,300.687 258.5,303.5C 259.552,303.351 260.552,303.517 261.5,304C 262.147,305.609 262.98,307.109 264,308.5C 266.272,304.264 265.939,300.264 263,296.5C 262.667,296.833 262.333,297.167 262,297.5C 261.505,295.527 261.338,293.527 261.5,291.5C 262.5,291.5 263.5,291.5 264.5,291.5C 264.338,289.473 264.505,287.473 265,285.5C 265.417,284.244 266.25,283.577 267.5,283.5 Z"/></g>
<g><path style="opacity:1" fill="#e2f8c9" d="M 271.5,308.5 C 275.481,309.021 279.481,309.354 283.5,309.5C 279.355,312.08 275.355,311.747 271.5,308.5 Z"/></g>
<g><path style="opacity:1" fill="#83c24c" d="M 443.5,290.5 C 443.5,300.167 443.5,309.833 443.5,319.5C 441.143,319.663 438.81,319.497 436.5,319C 434.574,318.578 433.574,317.411 433.5,315.5C 436.644,316.172 439.644,317.172 442.5,318.5C 442.173,308.985 442.506,299.652 443.5,290.5 Z"/></g>
<g><path style="opacity:1" fill="#55b717" d="M 485.5,295.5 C 484.903,300.836 486.57,305.17 490.5,308.5C 491.672,308.081 492.672,307.415 493.5,306.5C 494.539,302.895 495.205,299.228 495.5,295.5C 495.5,294.167 495.5,292.833 495.5,291.5C 496.496,291.586 497.329,291.252 498,290.5C 498.498,287.183 498.665,283.85 498.5,280.5C 500.833,280.5 503.167,280.5 505.5,280.5C 506.468,282.607 506.802,284.941 506.5,287.5C 504.167,296.852 500.667,305.852 496,314.5C 495.506,316.134 495.34,317.801 495.5,319.5C 493.777,321.253 492.277,323.253 491,325.5C 489.242,327.765 487.075,329.432 484.5,330.5C 481.813,330.664 479.146,330.497 476.5,330C 475.594,328.301 475.261,326.467 475.5,324.5C 478.93,324.893 482.096,324.227 485,322.5C 487.258,316.039 485.758,310.706 480.5,306.5C 479.486,304.426 478.486,302.426 477.5,300.5C 477.5,300.167 477.5,299.833 477.5,299.5C 475.213,293.259 473.213,286.926 471.5,280.5C 475.196,279.067 478.696,279.4 482,281.5C 483.7,286.039 484.867,290.706 485.5,295.5 Z"/></g>
<g><path style="opacity:1" fill="#65b431" d="M 485.5,295.5 C 485.833,295.5 486.167,295.5 486.5,295.5C 487.75,298.006 488.416,300.673 488.5,303.5C 489.833,303.5 491.167,303.5 492.5,303.5C 492.018,300.169 493.018,297.503 495.5,295.5C 495.205,299.228 494.539,302.895 493.5,306.5C 492.672,307.415 491.672,308.081 490.5,308.5C 486.57,305.17 484.903,300.836 485.5,295.5 Z"/></g>
<g><path style="opacity:1" fill="#87cc5b" d="M 168.5,303.5 C 168.533,307.102 167.199,310.102 164.5,312.5C 159.779,314.282 155.446,316.615 151.5,319.5C 154.077,316.515 156.744,313.515 159.5,310.5C 162.271,307.712 165.271,305.378 168.5,303.5 Z"/></g>
<g><path style="opacity:1" fill="#ebfade" d="M 506.5,287.5 C 506.921,292.633 505.921,297.466 503.5,302C 504.022,302.95 504.689,303.784 505.5,304.5C 502.625,307.614 500.791,311.281 500,315.5C 498.693,317.192 497.193,318.525 495.5,319.5C 495.34,317.801 495.506,316.134 496,314.5C 500.667,305.852 504.167,296.852 506.5,287.5 Z"/></g>
<g><path style="opacity:1" fill="#6ab43b" d="M 344.5,311.5 C 342.486,313.183 340.82,315.183 339.5,317.5C 338.713,319.104 337.38,319.771 335.5,319.5C 335.34,317.801 335.506,316.134 336,314.5C 337.299,314.966 338.799,314.966 340.5,314.5C 340.5,313.5 340.5,312.5 340.5,311.5C 341.833,311.5 343.167,311.5 344.5,311.5 Z"/></g>
<g><path style="opacity:1" fill="#edfdde" d="M 477.5,300.5 C 478.486,302.426 479.486,304.426 480.5,306.5C 482.289,309.913 483.956,313.413 485.5,317C 484.685,318.98 483.352,320.48 481.5,321.5C 482.62,317.965 482.12,314.631 480,311.5C 479.667,314.167 479.333,316.833 479,319.5C 478.654,313.143 478.154,306.81 477.5,300.5 Z"/></g>
<g><path style="opacity:1" fill="#e9fadc" d="M 343.5,283.5 C 346.86,282.79 348.693,284.124 349,287.5C 349.566,296.847 349.399,306.18 348.5,315.5C 346.94,315.481 345.44,315.148 344,314.5C 342.877,316.1 341.377,317.1 339.5,317.5C 340.82,315.183 342.486,313.183 344.5,311.5C 347.726,307.871 349.059,303.538 348.5,298.5C 348.914,294.021 347.914,290.021 345.5,286.5C 345.218,285.222 344.551,284.222 343.5,283.5 Z"/></g>
<g><path style="opacity:1" fill="#f2f9eb" d="M 380.5,303.5 C 381.833,303.5 383.167,303.5 384.5,303.5C 384.5,304.5 384.5,305.5 384.5,306.5C 386.467,306.739 388.301,306.406 390,305.5C 390.105,309.737 390.272,313.904 390.5,318C 390.167,318.5 389.833,319 389.5,319.5C 387.844,317.265 385.844,316.932 383.5,318.5C 386.917,316.109 388.25,312.775 387.5,308.5C 385.217,308.608 383.217,309.441 381.5,311C 376.845,311.499 372.179,311.666 367.5,311.5C 366.783,308.677 365.783,306.01 364.5,303.5C 369.833,303.5 375.167,303.5 380.5,303.5 Z"/></g>
<g><path style="opacity:1" fill="#55b81a" d="M 287.5,269.5 C 288.949,271.164 290.949,271.998 293.5,272C 294.328,273.992 295.661,275.492 297.5,276.5C 300.507,279.598 302.174,283.264 302.5,287.5C 303.293,295.575 301.959,303.242 298.5,310.5C 295.017,313.739 291.35,316.739 287.5,319.5C 282.833,319.5 278.167,319.5 273.5,319.5C 272.993,318.141 271.993,317.141 270.5,316.5C 271.641,315.575 271.641,314.741 270.5,314C 268.754,313.529 267.087,312.862 265.5,312C 265.833,311.667 266.167,311.333 266.5,311C 271.005,311.079 275.505,311.579 280,312.5C 282.042,312.385 284.042,312.051 286,311.5C 287.03,311.164 287.53,310.497 287.5,309.5C 287.606,306.892 288.772,304.892 291,303.5C 291.667,297.5 291.667,291.5 291,285.5C 289.579,283.595 288.412,281.595 287.5,279.5C 287.5,278.5 287.5,277.5 287.5,276.5C 281.676,274.878 276.009,275.211 270.5,277.5C 268.447,276.061 267.447,274.061 267.5,271.5C 269.262,271.357 270.929,271.691 272.5,272.5C 273.59,271.273 274.924,270.44 276.5,270C 280.152,269.501 283.818,269.335 287.5,269.5 Z"/></g>
<g><path style="opacity:1" fill="#e2f8cc" d="M 298.5,310.5 C 297.644,313.686 295.977,316.353 293.5,318.5C 291.604,319.466 289.604,319.799 287.5,319.5C 291.35,316.739 295.017,313.739 298.5,310.5 Z"/></g>
<g><path style="opacity:1" fill="#f0fae4" d="M 396.5,287.5 C 394.602,293.341 394.102,299.341 395,305.5C 396.511,308.522 398.011,311.522 399.5,314.5C 398.244,314.461 397.244,314.961 396.5,316C 397.731,317.183 397.731,318.349 396.5,319.5C 394.263,317.884 392.93,315.717 392.5,313C 393.203,305.85 393.703,298.684 394,291.5C 394.608,289.934 395.442,288.6 396.5,287.5 Z"/></g>
<g><path style="opacity:1" fill="#c9f2ad" d="M 426.5,313.5 C 426.205,317.129 424.205,319.129 420.5,319.5C 420.5,319.167 420.5,318.833 420.5,318.5C 423.135,317.527 425.135,315.86 426.5,313.5 Z"/></g>
<g><path style="opacity:1" fill="#effde4" d="M 223.5,303.5 C 223.317,307.9 222.651,312.234 221.5,316.5C 222.204,318.535 222.871,320.535 223.5,322.5C 222.178,322.67 221.011,322.337 220,321.5C 217.605,325.589 215.605,329.922 214,334.5C 213.329,335.252 212.496,335.586 211.5,335.5C 214.13,329.676 216.463,323.676 218.5,317.5C 220.076,313.946 221.076,310.113 221.5,306C 221.684,304.624 222.351,303.791 223.5,303.5 Z"/></g>
<g><path style="opacity:1" fill="#eafad7" d="M 495.5,319.5 C 492.845,333.412 485.011,337.412 472,331.5C 470.451,323.879 473.618,320.546 481.5,321.5C 481.389,322.117 481.056,322.617 480.5,323C 478.236,323.236 476.069,323.736 474,324.5C 472.743,329.578 474.743,331.911 480,331.5C 481.707,331.492 483.207,331.158 484.5,330.5C 487.075,329.432 489.242,327.765 491,325.5C 492.277,323.253 493.777,321.253 495.5,319.5 Z"/></g>
<g><path style="opacity:1" fill="#97d16f" d="M 150.5,319.5 C 151.053,324.618 148.719,327.284 143.5,327.5C 141.31,329.524 138.977,331.357 136.5,333C 133.851,334.631 132.184,336.965 131.5,340C 129.5,340.667 127.5,341.333 125.5,342C 123.578,345.794 120.911,348.961 117.5,351.5C 117.167,351.5 116.833,351.5 116.5,351.5C 118.874,346.784 122.207,342.784 126.5,339.5C 127.429,338.311 127.762,336.978 127.5,335.5C 132.902,333.266 137.569,329.766 141.5,325C 144.667,323.311 147.667,321.478 150.5,319.5 Z"/></g>
<g><path style="opacity:1" fill="#353535" d="M 551.5,329.5 C 554.167,329.5 556.833,329.5 559.5,329.5C 559.945,332.365 559.278,334.865 557.5,337C 553.042,339.141 548.375,339.807 543.5,339C 546.002,335.667 548.668,332.501 551.5,329.5 Z"/></g>
<g><path style="opacity:1" fill="#3a3a3a" d="M 336.5,330.5 C 343.009,331.207 345.176,334.54 343,340.5C 335.629,344.141 332.296,341.807 333,333.5C 334.518,332.837 335.685,331.837 336.5,330.5 Z"/></g>
<g><path style="opacity:1" fill="#373737" d="M 310.5,329.5 C 317.6,327.757 319.766,330.09 317,336.5C 312.489,339.086 307.656,339.919 302.5,339C 304.464,335.199 307.131,332.032 310.5,329.5 Z"/></g>
<g><path style="opacity:1" fill="#7dd146" d="M 210.5,335.5 C 208.707,337.426 207.707,339.759 207.5,342.5C 204.769,344.946 202.769,347.946 201.5,351.5C 201.167,351.5 200.833,351.5 200.5,351.5C 200.055,348.635 200.722,346.135 202.5,344C 202.167,343.833 201.833,343.667 201.5,343.5C 191.04,349.747 179.707,353.914 167.5,356C 152.41,357.06 137.41,356.393 122.5,354C 120.509,353.626 118.842,352.793 117.5,351.5C 120.911,348.961 123.578,345.794 125.5,342C 127.5,341.333 129.5,340.667 131.5,340C 132.184,336.965 133.851,334.631 136.5,333C 138.977,331.357 141.31,329.524 143.5,327.5C 148.719,327.284 151.053,324.618 150.5,319.5C 150.833,319.5 151.167,319.5 151.5,319.5C 155.446,316.615 159.779,314.282 164.5,312.5C 167.199,310.102 168.533,307.102 168.5,303.5C 170.664,302.522 172.83,301.522 175,300.5C 178.914,301.183 180.248,303.517 179,307.5C 177.526,311.438 176.359,315.438 175.5,319.5C 170.452,326.548 164.452,332.548 157.5,337.5C 154.081,338.042 152.414,340.042 152.5,343.5C 161.215,345.711 167.882,343.044 172.5,335.5C 174.179,335.715 175.179,335.048 175.5,333.5C 181.512,331.688 186.678,328.355 191,323.5C 191.483,322.552 191.649,321.552 191.5,320.5C 191.5,320.167 191.5,319.833 191.5,319.5C 192.5,319.5 193.5,319.5 194.5,319.5C 195.727,316.418 197.227,313.418 199,310.5C 199.497,308.19 199.663,305.857 199.5,303.5C 201.308,302.082 201.975,300.082 201.5,297.5C 202.865,294.401 203.865,291.068 204.5,287.5C 205.665,295.479 205.832,303.479 205,311.5C 203.981,312.687 202.814,313.687 201.5,314.5C 200.548,316.045 200.215,317.712 200.5,319.5C 202.167,319.5 203.833,319.5 205.5,319.5C 205.312,317.897 205.812,316.563 207,315.5C 207.167,310.833 207.333,306.167 207.5,301.5C 206.916,291.497 206.749,281.497 207,271.5C 207.94,275.485 208.773,279.485 209.5,283.5C 209.41,285.228 209.077,286.894 208.5,288.5C 209.419,298.792 210.086,309.125 210.5,319.5C 211.5,319.5 212.5,319.5 213.5,319.5C 211.992,324.711 210.992,330.044 210.5,335.5 Z"/></g>
<g><path style="opacity:1" fill="#95cb6a" d="M 191.5,320.5 C 191.649,321.552 191.483,322.552 191,323.5C 186.678,328.355 181.512,331.688 175.5,333.5C 181.463,329.864 186.796,325.53 191.5,320.5 Z"/></g>
<g><path style="opacity:1" fill="#9dd176" d="M 199.5,303.5 C 199.663,305.857 199.497,308.19 199,310.5C 197.227,313.418 195.727,316.418 194.5,319.5C 193.5,319.5 192.5,319.5 191.5,319.5C 194.649,314.367 197.315,309.034 199.5,303.5 Z"/></g>
<g><path style="opacity:1" fill="#8bcd63" d="M 172.5,335.5 C 167.882,343.044 161.215,345.711 152.5,343.5C 152.414,340.042 154.081,338.042 157.5,337.5C 156.524,338.815 155.524,340.148 154.5,341.5C 155,341.833 155.5,342.167 156,342.5C 161.644,340.238 167.144,337.905 172.5,335.5 Z"/></g>
<g><path style="opacity:1" fill="#e5fcd1" d="M 207.5,342.5 C 206.514,345.493 205.514,348.493 204.5,351.5C 203.5,351.5 202.5,351.5 201.5,351.5C 202.769,347.946 204.769,344.946 207.5,342.5 Z"/></g>
<g><path style="opacity:1" fill="#373737" d="M 477.5,345.5 C 486.173,345.334 494.84,345.5 503.5,346C 506.108,350.153 505.941,354.32 503,358.5C 497.833,364.333 492.667,370.167 487.5,376C 493.825,376.5 500.158,376.666 506.5,376.5C 507.125,379.97 506.125,382.804 503.5,385C 494.785,385.804 486.118,385.637 477.5,384.5C 474.882,380.48 475.049,376.48 478,372.5C 483.354,366.647 488.52,360.647 493.5,354.5C 487.537,353.504 481.537,353.171 475.5,353.5C 475.107,350.487 475.774,347.82 477.5,345.5 Z"/></g>
<g><path style="opacity:1" fill="#373737" d="M 258.5,345.5 C 266.507,345.334 274.507,345.5 282.5,346C 285.257,346.51 286.591,348.177 286.5,351C 286.091,353.321 285.257,355.487 284,357.5C 278.5,363.667 273,369.833 267.5,376C 273.825,376.5 280.158,376.666 286.5,376.5C 287.125,379.97 286.125,382.804 283.5,385C 274.73,385.94 266.064,385.607 257.5,384C 255.092,380.957 254.926,377.791 257,374.5C 263.02,367.981 268.853,361.315 274.5,354.5C 268.202,353.504 261.868,353.17 255.5,353.5C 255.018,350.169 256.018,347.503 258.5,345.5 Z"/></g>
<g><path style="opacity:1" fill="#383838" d="M 333.5,346.5 C 337.639,345.704 340.805,347.037 343,350.5C 343.667,362.5 343.667,374.5 343,386.5C 340.541,396.482 334.374,399.815 324.5,396.5C 323.626,394.253 323.292,391.92 323.5,389.5C 327.684,390.296 330.85,388.963 333,385.5C 333.5,372.504 333.667,359.504 333.5,346.5 Z"/></g>
<g><path style="opacity:1" fill="#373737" d="M 449.5,358.5 C 449.5,367.167 449.5,375.833 449.5,384.5C 447.5,384.5 445.5,384.5 443.5,384.5C 441.887,384.056 440.72,383.056 440,381.5C 439.911,372.758 439.244,364.091 438,355.5C 432.261,351.857 428.428,353.191 426.5,359.5C 425.507,367.65 425.174,375.983 425.5,384.5C 423.833,384.5 422.167,384.5 420.5,384.5C 418.376,383.969 416.876,382.635 416,380.5C 415.907,372.091 415.24,363.757 414,355.5C 408.261,351.857 404.428,353.191 402.5,359.5C 401.507,367.65 401.174,375.983 401.5,384.5C 399.833,384.5 398.167,384.5 396.5,384.5C 395.206,383.71 394.039,382.71 393,381.5C 392.333,372.833 392.333,364.167 393,355.5C 398.268,345.293 406.435,342.127 417.5,346C 419,347.5 420.5,349 422,350.5C 430.229,342.644 438.562,342.644 447,350.5C 448.341,353.022 449.174,355.689 449.5,358.5 Z"/></g>
<g><path style="opacity:1" fill="#393939" d="M 532.5,345.5 C 535.545,345.342 538.379,346.009 541,347.5C 542.033,356.485 543.033,365.485 544,374.5C 548.564,378.843 552.564,378.509 556,373.5C 556.5,364.173 556.666,354.839 556.5,345.5C 560.803,344.796 564.303,346.13 567,349.5C 567.667,357.167 567.667,364.833 567,372.5C 565.282,381.87 559.615,386.537 550,386.5C 540.998,385.828 535.332,381.161 533,372.5C 532.5,363.506 532.334,354.506 532.5,345.5 Z"/></g>
<g><path style="opacity:1" fill="#383838" d="M 303.5,344.5 C 310.651,343.606 316.818,345.606 322,350.5C 324.5,358.965 325.167,367.631 324,376.5C 322.402,381.099 319.235,383.932 314.5,385C 309.833,385.667 305.167,385.667 300.5,385C 290.322,379.59 288.988,372.59 296.5,364C 302.147,361.068 308.147,359.901 314.5,360.5C 314.915,357.632 313.915,355.465 311.5,354C 307.5,353.333 303.5,353.333 299.5,354C 297.483,354.674 295.817,355.841 294.5,357.5C 293.233,354.761 293.399,352.094 295,349.5C 297.682,347.415 300.516,345.748 303.5,344.5 Z"/></g>
<g><path style="opacity:1" fill="#373737" d="M 364.5,344.5 C 374.259,343.124 381.092,346.791 385,355.5C 386.916,363.152 384.083,367.652 376.5,369C 371.136,369.171 365.802,369.671 360.5,370.5C 364.446,377.397 370.279,379.397 378,376.5C 380.406,376.297 382.406,375.297 384,373.5C 385.168,380.34 382.334,384.506 375.5,386C 360.065,387.636 351.732,380.802 350.5,365.5C 350.464,355.228 355.13,348.228 364.5,344.5 Z"/></g>
<g><path style="opacity:1" fill="#f3f3f3" d="M 365.5,353.5 C 368.649,353.211 371.649,353.711 374.5,355C 375.769,357.139 375.769,359.305 374.5,361.5C 369.9,362.443 365.233,362.777 360.5,362.5C 360.372,358.415 362.039,355.415 365.5,353.5 Z"/></g>
<g><path style="opacity:1" fill="#bcbcbc" d="M 449.5,358.5 C 450.493,367.318 450.827,376.318 450.5,385.5C 447.941,385.802 445.607,385.468 443.5,384.5C 445.5,384.5 447.5,384.5 449.5,384.5C 449.5,375.833 449.5,367.167 449.5,358.5 Z"/></g>
<g><path style="opacity:1" fill="#53b613" d="M 200.5,351.5 C 200.167,351.5 199.833,351.5 199.5,351.5C 198.141,352.007 197.141,353.007 196.5,354.5C 195.914,354.291 195.414,353.957 195,353.5C 195.184,356.797 193.684,358.797 190.5,359.5C 190.709,360.086 191.043,360.586 191.5,361C 189.613,360.577 187.613,360.744 185.5,361.5C 184.994,365.683 183.828,369.683 182,373.5C 179.051,376.91 175.384,379.243 171,380.5C 170.517,379.552 170.351,378.552 170.5,377.5C 171.552,377.649 172.552,377.483 173.5,377C 171.471,376.319 169.471,375.986 167.5,376C 168.09,379.003 168.423,382.003 168.5,385C 167.99,386.826 167.156,386.993 166,385.5C 166.803,388.442 165.636,390.609 162.5,392C 160.5,392.333 158.5,392.667 156.5,393C 157.624,393.249 158.624,393.749 159.5,394.5C 157.041,395.791 155.541,397.791 155,400.5C 151.15,403.189 147.317,406.022 143.5,409C 141.048,409.29 138.715,409.956 136.5,411C 135.272,412.49 135.272,413.99 136.5,415.5C 135.5,416.833 134.5,418.167 133.5,419.5C 130.845,420.497 128.845,422.164 127.5,424.5C 124.91,425.128 122.577,426.295 120.5,428C 115.597,428.937 110.93,428.27 106.5,426C 105.418,424.67 104.751,423.17 104.5,421.5C 103.576,411.539 103.242,401.539 103.5,391.5C 103.5,388.833 103.5,386.167 103.5,383.5C 103.833,383.5 104.167,383.5 104.5,383.5C 105.217,381.047 106.384,378.713 108,376.5C 108.498,373.518 108.665,370.518 108.5,367.5C 108.572,364.447 109.572,361.781 111.5,359.5C 112.383,356.296 114.05,353.629 116.5,351.5C 116.833,351.5 117.167,351.5 117.5,351.5C 118.842,352.793 120.509,353.626 122.5,354C 137.41,356.393 152.41,357.06 167.5,356C 179.707,353.914 191.04,349.747 201.5,343.5C 201.833,343.667 202.167,343.833 202.5,344C 200.722,346.135 200.055,348.635 200.5,351.5 Z"/></g>
<g><path style="opacity:1" fill="#6e6e6e" d="M 402.5,359.5 C 402.5,368.167 402.5,376.833 402.5,385.5C 400.265,385.795 398.265,385.461 396.5,384.5C 398.167,384.5 399.833,384.5 401.5,384.5C 401.174,375.983 401.507,367.65 402.5,359.5 Z"/></g>
<g><path style="opacity:1" fill="#8f8f8f" d="M 426.5,359.5 C 426.5,368.167 426.5,376.833 426.5,385.5C 424.265,385.795 422.265,385.461 420.5,384.5C 422.167,384.5 423.833,384.5 425.5,384.5C 425.174,375.983 425.507,367.65 426.5,359.5 Z"/></g>
<g><path style="opacity:1" fill="#dd7c8f" d="M 41.5,367.5 C 43.6382,367.703 45.3049,368.703 46.5,370.5C 47.4287,371.689 47.762,373.022 47.5,374.5C 45.5293,372.192 43.5293,369.858 41.5,367.5 Z"/></g>
<g><path style="opacity:1" fill="#f6f6f6" d="M 304.5,368.5 C 307.833,368.5 311.167,368.5 314.5,368.5C 316.1,374.401 313.933,377.401 308,377.5C 302.209,376.432 301.043,373.432 304.5,368.5 Z"/></g>
<g><path style="opacity:1" fill="#e9fad2" d="M 111.5,359.5 C 109.572,361.781 108.572,364.447 108.5,367.5C 105.936,372.422 104.603,377.755 104.5,383.5C 104.167,383.5 103.833,383.5 103.5,383.5C 104.023,376.737 105.19,370.07 107,363.5C 108.209,361.816 109.709,360.483 111.5,359.5 Z"/></g>
<g><path style="opacity:1" fill="#3b3b3b" d="M 577.5,372.5 C 582.114,371.856 585.114,373.689 586.5,378C 586.358,382.546 584.025,385.046 579.5,385.5C 572.475,382.102 571.808,377.769 577.5,372.5 Z"/></g>
<g><path style="opacity:1" fill="#e68698" d="M 47.5,374.5 C 48.9778,374.238 50.3112,374.571 51.5,375.5C 53.22,378.202 54.8866,380.868 56.5,383.5C 53.1667,380.833 50.1667,377.833 47.5,374.5 Z"/></g>
<g><path style="opacity:1" fill="#73b441" d="M 108.5,367.5 C 108.665,370.518 108.498,373.518 108,376.5C 106.384,378.713 105.217,381.047 104.5,383.5C 104.603,377.755 105.936,372.422 108.5,367.5 Z"/></g>
<g><path style="opacity:1" fill="#393939" d="M 516.5,372.5 C 525.369,372.517 527.703,376.35 523.5,384C 520.055,386.222 517.055,385.722 514.5,382.5C 512.81,378.631 513.476,375.298 516.5,372.5 Z"/></g>
<g><path style="opacity:1" fill="#5fb525" d="M 199.5,351.5 C 199.649,352.552 199.483,353.552 199,354.5C 190.88,364.768 182.38,374.435 173.5,383.5C 169.215,388.452 164.548,393.119 159.5,397.5C 155.557,401.154 151.557,404.82 147.5,408.5C 143.664,410.584 139.997,412.917 136.5,415.5C 135.272,413.99 135.272,412.49 136.5,411C 138.715,409.956 141.048,409.29 143.5,409C 147.317,406.022 151.15,403.189 155,400.5C 155.541,397.791 157.041,395.791 159.5,394.5C 158.624,393.749 157.624,393.249 156.5,393C 158.5,392.667 160.5,392.333 162.5,392C 165.636,390.609 166.803,388.442 166,385.5C 167.156,386.993 167.99,386.826 168.5,385C 168.423,382.003 168.09,379.003 167.5,376C 169.471,375.986 171.471,376.319 173.5,377C 172.552,377.483 171.552,377.649 170.5,377.5C 170.351,378.552 170.517,379.552 171,380.5C 175.384,379.243 179.051,376.91 182,373.5C 183.828,369.683 184.994,365.683 185.5,361.5C 187.613,360.744 189.613,360.577 191.5,361C 191.043,360.586 190.709,360.086 190.5,359.5C 193.684,358.797 195.184,356.797 195,353.5C 195.414,353.957 195.914,354.291 196.5,354.5C 197.141,353.007 198.141,352.007 199.5,351.5 Z"/></g>
<g><path style="opacity:1" fill="#eb7c95" d="M 57.5,383.5 C 59.922,384.085 61.5887,385.585 62.5,388C 65.9233,387.855 67.9233,389.355 68.5,392.5C 70.5798,394.573 72.2464,396.907 73.5,399.5C 70.6653,396.835 67.6653,394.335 64.5,392C 61.6068,389.609 59.2734,386.775 57.5,383.5 Z"/></g>
<g><path style="opacity:1" fill="#f26683" d="M 84.5,367.5 C 83.4292,377.652 85.5959,386.985 91,395.5C 91.8912,399.372 91.3912,403.038 89.5,406.5C 87.2351,407.647 84.9018,407.814 82.5,407C 79.5089,404.502 76.5089,402.002 73.5,399.5C 72.2464,396.907 70.5798,394.573 68.5,392.5C 70.3111,393.822 72.3111,394.322 74.5,394C 71.675,391.005 69.0083,387.838 66.5,384.5C 67.8333,383.167 69.1667,383.167 70.5,384.5C 71.4363,385.974 72.7697,386.974 74.5,387.5C 75.3567,388.736 76.0234,390.069 76.5,391.5C 80.6886,392.537 82.3553,395.204 81.5,399.5C 82.552,399.351 83.552,399.517 84.5,400C 82.0426,401.512 82.0426,402.846 84.5,404C 84.1667,404.333 83.8333,404.667 83.5,405C 85.2588,405.798 86.9255,405.631 88.5,404.5C 89.5617,401.897 89.7284,399.23 89,396.5C 88.2588,397.641 87.4255,397.641 86.5,396.5C 85.6735,392.541 85.1735,388.541 85,384.5C 83.8909,388.017 82.7242,388.184 81.5,385C 83.0383,379.157 84.0383,373.324 84.5,367.5 Z"/></g>
<g><path style="opacity:1" fill="#edfae2" d="M 173.5,383.5 C 174.108,384.8 174.775,386.133 175.5,387.5C 175.167,388.167 174.833,388.833 174.5,389.5C 173.377,387.711 172.044,387.378 170.5,388.5C 171.833,389.62 172.333,390.953 172,392.5C 170.649,394.019 169.149,395.352 167.5,396.5C 163.5,393.833 162.833,394.5 165.5,398.5C 164.833,398.833 164.167,399.167 163.5,399.5C 162.133,398.775 160.8,398.108 159.5,397.5C 164.548,393.119 169.215,388.452 173.5,383.5 Z"/></g>
<g><path style="opacity:1" fill="#b5e1a1" d="M 103.5,391.5 C 103.242,401.539 103.576,411.539 104.5,421.5C 103.778,421.082 103.278,420.416 103,419.5C 102.5,412.842 102.334,406.175 102.5,399.5C 102.194,396.615 102.527,393.948 103.5,391.5 Z"/></g>
<g><path style="opacity:1" fill="#f0fce5" d="M 147.5,408.5 C 147.5,409.833 147.5,411.167 147.5,412.5C 148.833,412.5 150.167,412.5 151.5,412.5C 151.5,413.5 151.5,414.5 151.5,415.5C 148.843,415.838 146.51,415.171 144.5,413.5C 143.158,415.005 141.492,415.672 139.5,415.5C 139.5,416.833 139.5,418.167 139.5,419.5C 137.5,419.5 135.5,419.5 133.5,419.5C 134.5,418.167 135.5,416.833 136.5,415.5C 139.997,412.917 143.664,410.584 147.5,408.5 Z"/></g>
<g><path style="opacity:1" fill="#edfbde" d="M 102.5,399.5 C 102.334,406.175 102.5,412.842 103,419.5C 103.278,420.416 103.778,421.082 104.5,421.5C 104.751,423.17 105.418,424.67 106.5,426C 110.93,428.27 115.597,428.937 120.5,428C 122.577,426.295 124.91,425.128 127.5,424.5C 126.323,426.032 124.989,427.532 123.5,429C 124.741,430.487 124.241,431.32 122,431.5C 116.056,430.367 110.222,428.867 104.5,427C 103.475,424.929 102.642,422.762 102,420.5C 101.179,413.321 101.345,406.321 102.5,399.5 Z"/></g>
</svg>
