<?xml version="1.0" standalone="no"?>
<!DOCTYPE svg PUBLIC "-//W3C//DTD SVG 20010904//EN"
 "http://www.w3.org/TR/2001/REC-SVG-20010904/DTD/svg10.dtd">
<svg version="1.0" xmlns="http://www.w3.org/2000/svg"
 width="1024.000000pt" height="1024.000000pt" viewBox="0 0 1024.000000 1024.000000"
 preserveAspectRatio="xMidYMid meet">

<g transform="translate(0.000000,1024.000000) scale(0.100000,-0.100000)"
fill="#000000" stroke="none">
<path d="M4875 9673 c-33 -2 -132 -10 -219 -19 -1364 -135 -2603 -888 -3361
-2043 -397 -605 -638 -1279 -722 -2023 -24 -216 -24 -742 1 -953 68 -583 207
-1056 457 -1558 224 -451 501 -832 868 -1197 660 -656 1483 -1087 2396 -1255
297 -55 462 -69 820 -69 355 0 491 10 788 60 1407 237 2640 1146 3297 2429
497 972 627 2113 360 3176 -150 601 -436 1191 -810 1674 -189 244 -478 543
-711 736 -887 731 -2010 1102 -3164 1042z m450 -113 c433 -22 687 -65 1100
-186 360 -106 793 -308 1116 -522 332 -220 511 -363 750 -601 547 -547 950
-1250 1137 -1986 100 -393 137 -628 152 -975 26 -603 -82 -1237 -307 -1810
-228 -582 -655 -1210 -1099 -1616 -595 -545 -1233 -886 -2014 -1078 -676 -167
-1435 -165 -2110 4 -344 87 -807 270 -1085 430 -1020 586 -1743 1457 -2078
2505 -59 183 -155 587 -176 741 -45 320 -57 811 -27 1069 38 329 111 686 191
935 127 393 343 832 579 1174 425 617 979 1097 1656 1436 569 285 1096 432
1705 475 235 16 273 17 510 5z"/>
<path d="M4920 9448 c-399 -15 -901 -115 -1293 -260 -328 -120 -620 -268 -920
-465 -614 -404 -1152 -1016 -1473 -1678 -97 -200 -221 -496 -258 -618 -41
-135 -112 -438 -140 -597 -103 -592 -65 -1308 99 -1870 104 -356 174 -535 324
-826 297 -576 708 -1070 1209 -1452 262 -200 394 -283 697 -437 385 -196 836
-345 1225 -405 74 -12 152 -25 175 -30 159 -34 725 -43 981 -15 173 19 497 75
634 110 565 142 1112 403 1575 753 527 398 955 913 1254 1511 129 257 211 471
306 797 134 464 184 999 139 1519 -18 216 -25 262 -70 475 -95 445 -190 723
-379 1100 -398 794 -985 1405 -1781 1851 -694 389 -1462 568 -2304 537z m114
-214 c3 -26 6 -60 6 -75 0 -33 -5 -35 -130 -44 -47 -3 -104 -8 -127 -11 -42
-6 -43 -7 -43 -46 l0 -40 129 7 128 7 6 -23 c4 -13 7 -45 7 -71 l0 -46 -57 -6
c-32 -3 -88 -8 -125 -11 l-68 -7 0 -50 0 -51 38 6 c20 3 91 9 158 13 l121 7 6
-24 c9 -33 9 -129 0 -129 -5 0 -120 -9 -256 -21 -136 -12 -250 -19 -252 -17
-6 5 -59 628 -54 632 3 3 401 40 485 45 18 1 22 -6 28 -45z m591 21 c91 -25
162 -97 172 -175 l6 -43 -44 6 c-24 3 -67 9 -95 12 -41 5 -54 11 -62 30 -22
49 -142 55 -142 8 0 -31 12 -39 110 -78 175 -69 225 -116 223 -209 -3 -94 -54
-167 -140 -197 -56 -20 -197 -18 -259 4 -95 33 -173 124 -174 201 l0 29 78 -7
c106 -10 116 -13 136 -46 33 -58 146 -60 154 -3 4 27 -24 47 -103 73 -105 35
-176 81 -202 130 -42 78 -26 170 38 224 74 62 175 76 304 41z m-1353 -335 c15
-157 27 -303 25 -324 l-2 -39 -91 -33 -91 -32 -93 164 c-52 90 -95 162 -96
161 -2 -1 8 -77 21 -167 14 -91 25 -174 25 -185 0 -17 -16 -26 -97 -53 -53
-17 -98 -30 -99 -29 -10 14 -338 535 -341 543 -3 7 32 24 88 43 51 17 93 30
94 28 1 -1 44 -80 95 -175 51 -94 95 -171 96 -169 2 2 -8 88 -22 191 -14 104
-23 194 -21 201 3 6 38 22 77 35 87 28 66 46 187 -168 47 -84 87 -151 90 -149
2 3 -10 87 -27 187 -17 100 -29 187 -27 193 4 12 145 65 167 63 12 -1 20 -54
42 -286z m2028 183 c146 -42 267 -78 269 -80 2 -1 -6 -39 -19 -83 -15 -53 -27
-79 -35 -76 -33 12 -157 47 -160 44 -1 -2 -31 -100 -65 -218 -35 -118 -66
-218 -70 -222 -10 -13 -190 43 -190 59 0 8 27 108 60 223 33 115 60 211 60
214 0 3 -38 16 -85 31 -47 14 -85 30 -85 36 0 20 42 149 48 149 4 0 126 -34
272 -77z m962 -427 c82 -18 118 -36 175 -89 52 -48 91 -119 99 -181 7 -46 -11
-142 -28 -152 -5 -3 -45 16 -88 42 l-79 48 6 42 c6 50 -7 78 -50 104 -67 42
-133 16 -194 -75 -29 -45 -38 -68 -41 -116 -4 -56 -3 -60 31 -94 28 -28 43
-35 75 -35 24 0 49 8 65 20 14 11 28 20 32 20 11 0 155 -93 155 -100 0 -15
-69 -71 -110 -89 -178 -81 -429 70 -447 269 -15 160 116 354 262 389 55 13 61
12 137 -3z m-4432 -371 c73 -102 135 -185 138 -185 4 0 81 53 183 126 l46 34
48 -71 c47 -67 48 -70 29 -83 -10 -8 -97 -71 -193 -140 -96 -69 -177 -123
-182 -121 -7 5 -361 493 -367 507 -4 8 138 117 154 117 5 1 70 -82 144 -184z
m2645 154 c173 -16 334 -47 541 -105 235 -65 338 -103 538 -198 385 -184 662
-380 956 -675 177 -177 273 -294 405 -490 323 -481 513 -1016 560 -1576 26
-302 19 -524 -26 -825 -24 -165 -30 -190 -79 -360 -78 -267 -138 -426 -236
-623 -404 -807 -1087 -1390 -1976 -1688 -201 -67 -316 -93 -568 -129 -187 -27
-244 -31 -450 -32 -258 -1 -374 9 -615 52 -198 35 -283 57 -455 115 -538 184
-939 433 -1330 824 -311 312 -555 674 -729 1082 -43 103 -139 404 -170 539
-31 134 -69 409 -81 596 -23 340 41 811 166 1205 32 101 120 312 184 439 417
832 1105 1417 2015 1715 182 60 545 126 785 144 138 10 394 6 565 -10z m2502
-324 c124 -73 193 -173 201 -291 4 -65 1 -79 -26 -138 -55 -116 -157 -199
-277 -224 -134 -28 -292 67 -364 218 -54 113 -26 242 75 350 84 90 161 122
276 116 51 -2 78 -10 115 -31z m-5379 -332 l97 97 60 -60 59 -60 -174 -169
-175 -169 -203 201 c-112 111 -212 214 -223 229 l-20 28 73 69 73 70 167 -167
168 -167 98 98z m-571 -251 c95 -62 188 -131 207 -153 40 -47 60 -116 51 -173
-18 -106 -129 -262 -219 -305 -49 -24 -107 -27 -164 -7 -41 15 -402 251 -402
263 0 11 102 163 110 163 4 0 84 -52 179 -116 200 -134 225 -143 271 -94 35
38 46 73 34 108 -6 17 -65 63 -184 143 -96 65 -176 122 -178 128 -5 15 102
170 113 163 6 -3 88 -57 182 -120z m6578 -169 c66 -100 67 -93 -21 -198 -33
-39 -120 -150 -194 -247 -74 -98 -138 -177 -141 -178 -8 0 -109 153 -109 166
0 6 11 21 25 34 14 13 25 27 25 31 0 4 -24 44 -52 89 -56 87 -52 85 -123 65
-16 -5 -29 9 -72 77 -33 53 -48 85 -40 87 7 3 154 39 327 82 173 42 316 77
317 78 1 1 27 -38 58 -86z m-7088 -544 c24 -9 73 -58 73 -74 0 -5 4 -16 9 -24
8 -12 14 -10 35 7 62 49 147 35 213 -34 74 -76 69 -135 -28 -373 -32 -79 -59
-150 -59 -157 0 -7 -5 -16 -10 -19 -8 -5 -523 186 -582 217 -17 8 -16 12 3 61
11 28 38 98 59 155 44 114 84 193 111 218 43 39 110 48 176 23z m7343 -4 c35
-19 84 -73 108 -120 52 -105 65 -211 33 -280 -19 -42 -76 -98 -93 -93 -6 2
-25 42 -43 88 -26 69 -30 87 -19 93 19 11 18 71 -2 108 -12 24 -21 30 -42 27
l-27 -3 3 -150 c3 -140 2 -153 -20 -195 -18 -35 -35 -51 -77 -72 -65 -33 -110
-35 -167 -7 -115 55 -202 234 -175 360 6 27 18 63 25 78 19 36 86 95 96 84 5
-4 22 -45 40 -90 29 -78 30 -84 16 -112 -29 -56 -14 -115 35 -142 15 -8 24 -7
35 2 12 10 13 36 8 158 -6 136 -5 149 14 188 44 86 164 123 252 78z m288 -682
c35 -166 95 -504 90 -508 -6 -6 -151 -35 -156 -31 -1 2 -10 42 -19 89 -15 78
-19 86 -37 82 -62 -15 -440 -84 -443 -82 -10 11 -40 193 -32 198 5 3 110 25
234 49 213 41 224 44 220 64 -37 164 -38 161 33 173 101 18 99 19 110 -34z
m-7973 -365 c2 -2 -1 -41 -5 -88 -4 -47 -7 -86 -6 -87 0 0 104 -11 231 -23
126 -12 231 -23 233 -25 2 -2 0 -49 -3 -104 l-8 -101 -46 5 c-88 11 -366 35
-397 35 l-31 0 -9 -87 -9 -88 -75 3 c-41 2 -79 7 -83 11 -5 5 3 133 17 285 14
152 26 278 26 279 0 4 162 -12 165 -15z m7895 -560 c117 -59 115 -230 -4 -287
-55 -27 -101 -26 -151 2 -113 64 -111 226 5 285 24 12 58 22 75 22 17 0 51
-10 75 -22z m-7460 -258 l0 -99 -42 -5 c-45 -5 -484 -26 -554 -26 l-41 0 -6
98 c-3 53 -3 100 1 103 7 7 622 37 635 31 4 -2 7 -48 7 -102z m-272 -305 c77
-33 122 -105 144 -232 14 -83 7 -80 121 -58 43 8 80 15 82 15 9 0 36 -192 29
-199 -9 -8 -615 -124 -619 -119 -1 2 -17 76 -35 166 -53 267 -36 358 81 416
62 30 139 35 197 11z m7437 -197 c3 -3 -7 -57 -22 -121 -15 -64 -25 -118 -22
-120 2 -2 16 -7 32 -11 31 -7 29 -11 52 94 23 107 22 106 90 91 44 -10 55 -16
51 -29 -3 -9 -12 -48 -21 -87 -8 -38 -18 -77 -21 -86 -3 -12 6 -19 35 -27 34
-8 41 -7 45 7 2 9 16 66 31 127 l27 111 55 -13 c30 -7 57 -15 60 -18 5 -4 -84
-406 -92 -414 -2 -3 -506 115 -510 120 -2 2 64 286 88 380 l7 26 55 -13 c31
-7 58 -15 60 -17z m-19 -629 c132 -56 241 -103 243 -105 6 -5 -51 -134 -62
-141 -18 -11 -230 -43 -286 -43 -30 0 -52 -3 -48 -6 3 -4 61 -30 129 -59 67
-29 124 -58 126 -65 4 -11 -47 -140 -55 -140 -2 0 -59 24 -126 54 -67 30 -173
75 -235 101 -128 54 -123 45 -78 146 l24 55 114 17 c62 10 140 17 173 18 53 0
57 2 35 12 -169 75 -246 110 -249 113 -3 3 51 144 55 144 1 0 109 -45 240
-101z m-7092 -137 c52 -31 71 -66 71 -137 0 -49 -5 -70 -21 -91 -35 -47 -70
-67 -127 -72 -87 -7 -141 33 -166 123 -37 136 118 249 243 177z m6815 -484
c113 -68 206 -128 208 -134 2 -5 -15 -39 -37 -73 -29 -45 -45 -61 -56 -57 -24
9 -407 237 -423 251 -11 11 -6 25 29 84 35 58 45 69 59 61 9 -5 108 -65 220
-132z m-6342 -119 c86 -42 152 -145 153 -239 0 -54 -27 -120 -49 -120 -5 0
-28 25 -51 56 -32 43 -41 62 -37 82 9 49 -40 107 -74 86 -16 -10 -5 -71 27
-144 51 -117 35 -187 -52 -237 -101 -58 -227 7 -295 152 -33 69 -36 114 -10
170 32 72 42 72 94 2 41 -57 45 -67 40 -104 -5 -35 -2 -45 20 -67 30 -30 49
-33 67 -10 11 13 7 30 -23 105 -45 109 -48 169 -14 220 44 67 125 86 204 48z
m6185 -198 c87 -67 160 -127 164 -132 7 -11 -83 -129 -99 -129 -34 0 -318 39
-329 45 -14 7 -4 -1 134 -107 48 -38 88 -73 88 -79 0 -11 -78 -112 -90 -117
-4 -2 -32 17 -61 40 -30 24 -117 93 -194 152 -77 60 -144 113 -149 117 -8 7 6
28 79 127 8 10 253 -13 307 -28 17 -6 33 -8 34 -7 2 2 -46 41 -106 87 -60 47
-110 89 -110 93 0 5 21 35 46 68 l47 59 41 -33 c23 -18 112 -88 198 -156z
m-5813 -237 c28 -30 51 -59 51 -63 0 -5 -84 -89 -186 -186 l-186 -177 -59 58
c-33 32 -58 61 -57 65 5 11 372 359 379 359 4 0 30 -25 58 -56z m225 -221 c55
-44 58 -48 52 -82 -3 -20 -11 -78 -17 -129 -5 -51 -16 -114 -24 -140 l-14 -47
27 34 c71 91 164 201 170 201 4 0 33 -21 65 -47 50 -41 56 -49 45 -64 -35 -49
-314 -388 -320 -388 -3 -1 -33 22 -65 50 l-59 51 18 131 c9 73 20 145 22 160
8 39 -2 30 -95 -84 l-80 -99 -60 47 c-35 27 -58 52 -55 60 8 19 316 393 324
393 4 0 33 -21 66 -47z m4803 -197 l22 -184 56 -74 c30 -40 55 -76 55 -80 0
-9 -116 -98 -127 -98 -4 0 -32 34 -62 75 l-54 74 -174 72 c-95 40 -173 75
-173 78 0 4 31 30 70 59 l69 52 86 -42 c47 -22 88 -39 90 -36 3 2 -2 42 -10
89 -8 46 -15 87 -15 91 0 10 122 107 135 108 6 0 20 -82 32 -184z m-474 -215
c15 -27 27 -53 27 -58 0 -4 -27 -23 -60 -41 -33 -19 -60 -36 -60 -39 0 -3 41
-79 90 -170 50 -90 90 -166 90 -168 0 -8 -134 -76 -144 -72 -6 3 -46 70 -89
149 -109 203 -92 188 -169 146 l-65 -36 -32 58 c-24 45 -29 60 -19 67 40 26
385 213 393 213 6 0 22 -22 38 -49z m-3705 -16 c67 -20 144 -82 171 -137 23
-47 28 -119 11 -163 l-10 -25 -70 35 -70 35 0 45 c0 37 -4 47 -27 62 -14 10
-44 18 -66 18 -34 0 -45 -6 -73 -39 -47 -55 -70 -118 -58 -163 17 -69 100 -99
148 -54 l23 22 59 -31 c81 -43 82 -45 48 -81 -52 -55 -98 -72 -178 -67 -262
17 -355 298 -162 487 67 66 155 85 254 56z m3242 -450 c44 -131 77 -242 73
-245 -8 -8 -131 -50 -144 -50 -4 0 -21 42 -39 94 l-31 94 -75 -25 c-44 -15
-74 -30 -71 -37 22 -59 58 -178 56 -180 -2 -2 -37 -15 -76 -29 -68 -25 -73
-25 -82 -9 -25 47 -162 474 -155 481 11 10 144 54 148 50 2 -2 13 -33 25 -69
32 -99 28 -96 107 -70 38 13 70 24 71 25 2 1 -8 35 -22 75 -14 40 -25 78 -25
84 0 13 141 65 152 56 4 -3 44 -113 88 -245z m-2497 116 c15 -6 27 -14 27 -18
0 -23 -36 -103 -46 -103 -7 0 -57 16 -113 35 -55 19 -104 35 -110 35 -5 0 -14
-13 -19 -29 l-10 -30 84 -30 c47 -17 89 -31 94 -31 20 0 21 -24 5 -68 -10 -26
-19 -49 -21 -51 -1 -1 -46 11 -99 29 -103 34 -114 33 -118 -15 -2 -28 1 -30
110 -70 61 -22 114 -43 117 -46 5 -5 -2 -33 -29 -106 -2 -8 -55 6 -162 43
-225 77 -243 84 -243 96 0 9 128 381 159 460 l10 28 168 -59 c92 -33 180 -64
196 -70z m1695 -107 c48 -24 112 -97 112 -129 0 -7 -31 -16 -77 -23 -75 -10
-77 -10 -95 14 -28 34 -95 34 -128 -1 -28 -30 -39 -123 -20 -179 27 -83 115
-112 171 -56 36 36 31 51 -16 43 -30 -5 -35 -3 -35 13 0 11 -3 35 -6 55 l-6
35 113 17 c63 8 115 15 116 14 3 -4 33 -240 33 -263 0 -18 -8 -23 -47 -29 -37
-5 -49 -3 -59 9 -15 21 -21 20 -55 -9 -37 -30 -88 -45 -160 -45 -74 0 -140 42
-185 117 -59 99 -65 214 -17 303 65 119 240 175 361 114z m-1039 -14 c101 -11
185 -21 187 -23 2 -1 0 -29 -3 -61 l-6 -58 -96 8 c-160 13 -156 14 -159 -22
-3 -31 -3 -32 55 -38 169 -20 156 -15 149 -49 -3 -16 -6 -43 -6 -59 l0 -30
-57 6 c-32 4 -82 9 -110 12 l-53 6 0 -41 c0 -36 3 -41 23 -42 12 0 67 -6 122
-12 l100 -12 0 -60 0 -60 -60 1 c-33 1 -129 9 -212 19 l-153 18 0 36 c0 20 11
135 25 256 14 121 25 221 25 223 0 5 52 1 229 -18z m488 -24 c4 -3 9 -121 11
-261 l5 -255 -87 0 -86 0 0 123 c0 68 -3 185 -7 260 l-6 135 29 5 c39 7 132 2
141 -7z"/>
<path d="M4815 8336 c-740 -76 -1423 -387 -1935 -883 -432 -416 -753 -966
-889 -1518 -89 -365 -106 -498 -105 -815 2 -433 58 -745 205 -1138 212 -571
569 -1056 1045 -1419 461 -352 960 -565 1519 -651 166 -25 203 -27 465 -26
259 0 301 3 465 28 99 15 223 37 275 48 125 26 420 125 576 193 581 251 1093
693 1433 1237 110 175 262 488 314 643 94 286 143 525 176 860 37 375 -38 906
-185 1311 -340 938 -1076 1664 -1999 1969 -187 62 -468 130 -615 150 -168 22
-573 28 -745 11z m500 -101 c221 -15 548 -73 715 -126 250 -81 627 -256 805
-375 289 -193 578 -455 746 -680 108 -143 212 -295 206 -300 -3 -3 -207 -47
-454 -98 -446 -93 -448 -93 -444 -117 7 -54 302 -1463 306 -1468 3 -2 239 44
526 103 286 59 522 106 524 104 1 -2 5 -40 8 -84 l6 -81 -157 -33 c-633 -132
-943 -197 -946 -201 -4 -5 302 -1480 309 -1487 3 -3 71 9 152 26 81 17 149 29
151 27 8 -8 -165 -244 -270 -370 -171 -204 -475 -464 -723 -620 -345 -216
-838 -390 -1253 -440 -404 -50 -765 -28 -1168 70 -415 102 -868 328 -1214 608
-127 102 -333 312 -453 462 -156 194 -363 519 -339 534 6 3 237 53 514 110
277 58 504 105 505 106 2 1 -60 305 -137 675 -77 371 -140 675 -140 677 0 2
-8 3 -18 3 -14 0 -965 -193 -1060 -215 -23 -6 -23 -5 -20 82 l3 88 525 109
c289 59 526 110 528 111 3 3 -289 1427 -294 1434 -2 2 -57 -8 -124 -22 -66
-13 -120 -21 -120 -17 0 10 96 144 180 252 80 102 348 373 450 454 376 300
799 506 1280 624 196 47 636 96 770 84 19 -2 76 -6 125 -9z"/>
<path d="M5567 7450 c-411 -86 -749 -159 -751 -161 -4 -4 881 -4259 887 -4265
3 -4 1536 312 1542 318 4 4 -73 376 -550 2658 -119 569 -243 1163 -275 1320
-56 274 -59 285 -81 287 -13 0 -360 -70 -772 -157z"/>
<path d="M3753 7132 c-571 -119 -793 -170 -793 -179 0 -8 77 -381 171 -831 93
-449 285 -1366 425 -2037 140 -671 263 -1258 273 -1305 15 -73 20 -85 37 -82
54 8 1595 330 1599 334 4 4 -866 4202 -881 4251 -3 9 -13 17 -22 16 -9 -1
-374 -76 -809 -167z"/>
<path d="M7293 7163 l-63 -15 0 -116 -1 -117 -23 55 c-44 105 -77 162 -91 157
-7 -3 -40 -11 -74 -18 -34 -6 -61 -16 -61 -22 0 -11 72 -361 75 -365 4 -4 81
9 93 17 7 4 6 28 -4 76 -40 186 -38 189 26 38 44 -101 44 -102 74 -96 65 12
66 14 67 126 l1 102 26 -100 27 -101 48 9 c28 6 47 14 47 23 0 7 -13 75 -29
151 -16 76 -32 155 -35 176 -8 42 -9 42 -103 20z"/>
<path d="M6745 7046 l-150 -33 2 -38 c2 -21 7 -43 11 -47 5 -5 30 -4 56 3 27
7 51 8 55 3 5 -5 21 -69 36 -141 15 -73 29 -133 31 -133 29 0 104 25 104 34 0
7 -11 68 -25 136 -14 68 -25 126 -25 131 0 4 20 11 43 14 64 10 69 15 59 61
-6 28 -13 39 -27 41 -11 1 -87 -13 -170 -31z"/>
<path d="M7837 7976 c-79 -29 -152 -108 -163 -178 -8 -45 16 -92 59 -118 44
-27 75 -25 128 9 90 58 147 143 134 202 -6 26 -65 89 -85 89 -4 0 -14 2 -22 5
-7 2 -30 -2 -51 -9z"/>
<path d="M8325 7237 c-55 -16 -102 -31 -104 -33 -3 -3 58 -104 64 -104 6 0
147 161 144 164 -2 1 -49 -11 -104 -27z"/>
<path d="M1417 6642 c-24 -27 -60 -113 -50 -122 4 -4 27 -14 50 -23 l43 -17
15 30 c8 16 18 49 21 73 6 39 3 46 -17 61 -30 21 -42 20 -62 -2z"/>
<path d="M1632 6568 c-31 -35 -64 -124 -49 -136 19 -15 86 -34 96 -28 5 4 19
36 31 71 20 61 21 67 6 90 -21 31 -56 32 -84 3z"/>
<path d="M1230 4478 c-43 -16 -50 -50 -29 -134 l11 -44 42 7 c82 12 85 15 74
75 -15 87 -45 116 -98 96z"/>
</g>
</svg>
