<?xml version="1.0" encoding="UTF-8"?>
<!DOCTYPE svg PUBLIC "-//W3C//DTD SVG 1.1//EN" "http://www.w3.org/Graphics/SVG/1.1/DTD/svg11.dtd">
<svg xmlns="http://www.w3.org/2000/svg" version="1.1" width="198px" height="56px" style="shape-rendering:geometricPrecision; text-rendering:geometricPrecision; image-rendering:optimizeQuality; fill-rule:evenodd; clip-rule:evenodd" xmlns:xlink="http://www.w3.org/1999/xlink">
<g><path style="opacity:0.637" fill="#f6c06f" d="M 24.5,-0.5 C 25.8333,-0.5 27.1667,-0.5 28.5,-0.5C 28.3347,3.18174 28.5014,6.84841 29,10.5C 29.414,10.9574 29.914,11.2907 30.5,11.5C 31.7646,7.45392 31.7646,3.45392 30.5,-0.5C 31.8333,-0.5 33.1667,-0.5 34.5,-0.5C 34.203,3.76746 34.5363,7.93412 35.5,12C 31.6425,12.8099 27.9758,12.6433 24.5,11.5C 25.1174,11.3893 25.6174,11.056 26,10.5C 26.987,6.52521 26.487,2.85854 24.5,-0.5 Z"/></g>
<g><path style="opacity:0.617" fill="#f6c06f" d="M 130.5,-0.5 C 131.5,-0.5 132.5,-0.5 133.5,-0.5C 133.5,1.16667 133.5,2.83333 133.5,4.5C 138.213,4.46755 139.713,6.80089 138,11.5C 135.619,12.435 133.119,12.7683 130.5,12.5C 130.5,8.16667 130.5,3.83333 130.5,-0.5 Z M 134.5,5.5 C 136.924,7.2276 137.09,9.2276 135,11.5C 133.2,9.63486 133.034,7.63486 134.5,5.5 Z"/></g>
<g><path style="opacity:0.567" fill="#f6c06f" d="M 165.5,-0.5 C 166.5,-0.5 167.5,-0.5 168.5,-0.5C 167.5,2.16667 166.5,2.16667 165.5,-0.5 Z"/></g>
<g><path style="opacity:0.643" fill="#f6c06f" d="M -0.5,1.5 C -0.5,1.16667 -0.5,0.833333 -0.5,0.5C 1.5273,0.337876 3.5273,0.504543 5.5,1C 4.5243,3.14691 4.69096,5.31358 6,7.5C 7.74115,5.45882 7.90782,3.29215 6.5,1C 8.5,0.333333 10.5,0.333333 12.5,1C 10.5404,2.98516 10.707,5.15183 13,7.5C 14.309,5.31358 14.4757,3.14691 13.5,1C 15.1667,0.333333 16.8333,0.333333 18.5,1C 16.169,4.14713 14.5023,7.64713 13.5,11.5C 12.7261,12.7112 11.8928,12.7112 11,11.5C 9.24648,5.04887 8.07981,5.3822 7.5,12.5C 6.32496,12.719 5.32496,12.3857 4.5,11.5C 3.31444,7.79523 1.64778,4.4619 -0.5,1.5 Z"/></g>
<g><path style="opacity:0.63" fill="#f6c06f" d="M 76.5,0.5 C 78.1667,0.5 79.8333,0.5 81.5,0.5C 81.5,1.83333 81.5,3.16667 81.5,4.5C 83.5273,4.33788 85.5273,4.50454 87.5,5C 83.2177,7.12113 82.8843,9.45446 86.5,12C 82.9873,12.0598 79.3207,12.0598 75.5,12C 74.3389,9.27926 75.0056,6.94592 77.5,5C 76.6198,3.64387 76.2865,2.14387 76.5,0.5 Z M 81.5,5.5 C 83.0281,5.51731 83.5281,6.18398 83,7.5C 82.2828,6.9558 81.7828,6.28913 81.5,5.5 Z M 78.5,6.5 C 79.3636,7.68826 80.3636,8.85492 81.5,10C 77.7632,11.7533 76.7632,10.5866 78.5,6.5 Z"/></g>
<g><path style="opacity:0.645" fill="#f6c06f" d="M 94.5,0.5 C 96.604,0.201097 98.604,0.534431 100.5,1.5C 101.506,2.39567 101.506,3.06233 100.5,3.5C 99.2519,2.95978 98.0852,2.29311 97,1.5C 96.3076,2.02527 95.8076,2.69194 95.5,3.5C 96.9122,4.80638 98.5789,5.63971 100.5,6C 101.833,8 101.833,10 100.5,12C 97.854,12.4974 95.1873,12.6641 92.5,12.5C 92.238,11.0222 92.5713,9.68884 93.5,8.5C 94.8333,9.5 96.1667,10.5 97.5,11.5C 98.5,11.1667 99.1667,10.5 99.5,9.5C 97.678,7.98994 95.678,6.6566 93.5,5.5C 92.2878,3.57161 92.6211,1.90494 94.5,0.5 Z"/></g>
<g><path style="opacity:0.792" fill="#f6c06f" d="M 102.5,1.5 C 105.687,0.194376 109.02,0.194376 112.5,1.5C 113.859,3.30601 113.525,4.80601 111.5,6C 109.866,6.49351 108.199,6.66018 106.5,6.5C 106.178,8.72241 106.845,10.5557 108.5,12C 106.5,12.6667 104.5,12.6667 102.5,12C 104.504,9.15923 105.004,5.99257 104,2.5C 103.617,1.94404 103.117,1.61071 102.5,1.5 Z M 106.5,1.5 C 111.116,2.04071 111.449,3.37404 107.5,5.5C 106.571,4.31116 106.238,2.97782 106.5,1.5 Z"/></g>
<g><path style="opacity:0.625" fill="#f6c06f" d="M 116.5,0.5 C 117.675,0.28099 118.675,0.614324 119.5,1.5C 120.502,5.35287 122.169,8.85287 124.5,12C 122.5,12.6667 120.5,12.6667 118.5,12C 120.161,8.85012 119.161,7.35012 115.5,7.5C 115.286,9.14387 115.62,10.6439 116.5,12C 114.833,12.6667 113.167,12.6667 111.5,12C 114.035,8.56559 115.702,4.73226 116.5,0.5 Z M 116.5,4.5 C 118.337,4.63945 118.67,5.30612 117.5,6.5C 116.702,6.04311 116.369,5.37644 116.5,4.5 Z"/></g>
<g><path style="opacity:0.668" fill="#f6c06f" d="M 170.5,11.5 C 167.313,12.8056 163.98,12.8056 160.5,11.5C 159.167,9.83333 159.167,8.16667 160.5,6.5C 159.975,5.80762 159.308,5.30762 158.5,5C 159.618,3.92644 160.618,2.75978 161.5,1.5C 162.23,2.93371 163.23,4.10037 164.5,5C 162.75,6.75417 162.083,8.92083 162.5,11.5C 163.833,11.5 165.167,11.5 166.5,11.5C 166.756,9.2075 166.423,7.04083 165.5,5C 166.448,4.51722 167.448,4.35055 168.5,4.5C 168.338,6.5273 168.505,8.5273 169,10.5C 169.383,11.056 169.883,11.3893 170.5,11.5 Z"/></g>
<g><path style="opacity:0.684" fill="#f6c06f" d="M 24.5,11.5 C 18.1558,13.6528 15.9892,11.6528 18,5.5C 20.8652,3.91304 23.0319,4.57971 24.5,7.5C 22.8333,8.16667 21.1667,8.83333 19.5,9.5C 19.8333,10.5 20.5,11.1667 21.5,11.5C 22.6868,10.3473 23.6868,10.3473 24.5,11.5 Z M 20.5,5.5 C 21.7733,6.07683 21.7733,6.7435 20.5,7.5C 19.537,7.03017 19.537,6.3635 20.5,5.5 Z"/></g>
<g><path style="opacity:0.726" fill="#f6c06f" d="M 36.5,4.5 C 39.1667,4.5 41.8333,4.5 44.5,4.5C 44.2317,7.1194 44.565,9.6194 45.5,12C 41.8651,12.8718 40.8651,11.7051 42.5,8.5C 41.2265,4.56866 40.2265,4.73532 39.5,9C 41.1048,12.385 40.1048,13.2183 36.5,11.5C 37.6716,9.17721 37.6716,6.84388 36.5,4.5 Z"/></g>
<g><path style="opacity:0.715" fill="#f6c06f" d="M 47.5,4.5 C 51.2407,3.59853 53.2407,4.93186 53.5,8.5C 51.712,8.21478 50.0453,8.54811 48.5,9.5C 49.2421,10.2868 50.0754,10.9535 51,11.5C 52.8402,10.1669 53.3402,10.3335 52.5,12C 46.5933,12.7465 44.9267,10.2465 47.5,4.5 Z M 49.5,5.5 C 52.1368,7.15382 51.8034,7.65382 48.5,7C 49.056,6.61742 49.3893,6.11742 49.5,5.5 Z"/></g>
<g><path style="opacity:0.59" fill="#f6c06f" d="M 55.5,4.5 C 57.1667,4.5 58.8333,4.5 60.5,4.5C 62.8997,10.3519 60.8997,13.0185 54.5,12.5C 54.6556,8.86488 55.8223,8.53154 58,11.5C 58.2677,9.40976 57.2677,8.07643 55,7.5C 54.5304,6.42317 54.6971,5.42317 55.5,4.5 Z"/></g>
<g><path style="opacity:0.6" fill="#f6c06f" d="M 63.5,4.5 C 65.1667,4.5 66.8333,4.5 68.5,4.5C 67.3751,6.82051 67.2084,9.15384 68,11.5C 66.3005,12.4061 64.4672,12.7394 62.5,12.5C 62.281,11.325 62.6143,10.325 63.5,9.5C 64.451,10.3256 65.451,10.4922 66.5,10C 65.4366,8.81181 64.1033,8.31181 62.5,8.5C 62.4326,7.04125 62.7659,5.70792 63.5,4.5 Z"/></g>
<g><path style="opacity:0.626" fill="#f6c06f" d="M 141.5,4.5 C 148.004,4.13765 149.671,6.63765 146.5,12C 139.745,12.7558 138.078,10.2558 141.5,4.5 Z M 143.5,5.5 C 145.924,7.2276 146.09,9.2276 144,11.5C 142.2,9.63486 142.034,7.63486 143.5,5.5 Z"/></g>
<g><path style="opacity:0.646" fill="#f6c06f" d="M 148.5,5.5 C 149.568,4.56552 150.901,4.23219 152.5,4.5C 152.337,6.85684 152.503,9.19018 153,11.5C 154.741,9.45882 154.908,7.29215 153.5,5C 154.448,4.51722 155.448,4.35055 156.5,4.5C 156.292,6.92006 156.626,9.2534 157.5,11.5C 151.179,14.1576 148.179,12.1576 148.5,5.5 Z"/></g>
<g><path style="opacity:0.633" fill="#f6c06f" d="M 170.5,11.5 C 169.406,5.09512 172.073,2.76179 178.5,4.5C 178.203,8.76746 178.536,12.9341 179.5,17C 177.833,17.6667 176.167,17.6667 174.5,17C 176.037,15.8904 176.703,14.3904 176.5,12.5C 174.379,12.6747 172.379,12.3414 170.5,11.5 Z M 174.5,5.5 C 175.622,7.28841 175.789,9.28841 175,11.5C 171.898,9.66274 171.731,7.66274 174.5,5.5 Z"/></g>
<g><path style="opacity:0.579" fill="#f6c06f" d="M 180.5,4.5 C 181.5,4.5 182.5,4.5 183.5,4.5C 183.201,6.60395 183.534,8.60395 184.5,10.5C 185.76,8.64711 185.76,6.81377 184.5,5C 185.793,4.50999 187.127,4.34332 188.5,4.5C 188.232,7.1194 188.565,9.6194 189.5,12C 182.528,14.0374 179.528,11.5374 180.5,4.5 Z"/></g>
<g><path style="opacity:0.684" fill="#f6c06f" d="M 197.5,6.5 C 197.5,7.16667 197.5,7.83333 197.5,8.5C 195.712,8.21478 194.045,8.54811 192.5,9.5C 193.714,11.7542 195.381,12.0875 197.5,10.5C 197.5,10.8333 197.5,11.1667 197.5,11.5C 190.644,13.4824 188.644,11.3158 191.5,5C 193.874,4.25679 195.874,4.75679 197.5,6.5 Z M 193.5,5.5 C 194.773,6.07683 194.773,6.7435 193.5,7.5C 192.537,7.03017 192.537,6.3635 193.5,5.5 Z"/></g>
<g><path style="opacity:0.781" fill="#f6c06f" d="M 1.5,23.5 C 2.94639,22.3871 4.61305,22.2204 6.5,23C 5.61983,24.3561 5.28649,25.8561 5.5,27.5C 7.16667,27.5 8.83333,27.5 10.5,27.5C 10.7035,25.6096 10.0368,24.1096 8.5,23C 10.5,22.3333 12.5,22.3333 14.5,23C 11.9107,26.7357 11.9107,30.4024 14.5,34C 12.5,34.6667 10.5,34.6667 8.5,34C 10.1554,32.5557 10.822,30.7224 10.5,28.5C 8.83333,28.5 7.16667,28.5 5.5,28.5C 5.26057,30.4672 5.59391,32.3005 6.5,34C 4.5,34.6667 2.5,34.6667 0.5,34C 1.72012,32.4747 2.38678,30.6413 2.5,28.5C 2.49319,26.6307 2.15986,24.964 1.5,23.5 Z"/></g>
<g><path style="opacity:0.651" fill="#f6c06f" d="M 18.5,22.5 C 27.1536,21.6713 29.8203,25.1713 26.5,33C 18.5442,36.451 15.0442,33.951 16,25.5C 17.045,24.6266 17.8783,23.6266 18.5,22.5 Z M 21.5,23.5 C 26.5185,26.5533 26.6852,29.8866 22,33.5C 17.5348,30.3292 17.3682,26.9958 21.5,23.5 Z"/></g>
<g><path style="opacity:0.848" fill="#f6c06f" d="M 29.5,22.5 C 33.5,22.5 37.5,22.5 41.5,22.5C 41.6495,23.552 41.4828,24.552 41,25.5C 37.6849,22.3928 36.1849,23.2262 36.5,28C 36.0102,30.872 37.0102,32.872 39.5,34C 37.1667,34.6667 34.8333,34.6667 32.5,34C 33,33.5 33.5,33 34,32.5C 34.498,29.5184 34.6646,26.5184 34.5,23.5C 32.5165,23.3832 30.8498,24.0499 29.5,25.5C 28.913,24.7666 28.913,23.7666 29.5,22.5 Z"/></g>
<g><path style="opacity:0.753" fill="#f6c06f" d="M 42.5,23.5 C 45.9619,22.5184 49.6286,22.185 53.5,22.5C 53.719,23.675 53.3857,24.675 52.5,25.5C 50.8273,23.9137 48.8273,23.2471 46.5,23.5C 46.2808,27.5274 47.4475,28.1941 50,25.5C 51.2358,29.8029 50.4025,30.8029 47.5,28.5C 45.9979,30.8326 46.4979,32.4993 49,33.5C 50.7983,32.4962 52.6316,31.9962 54.5,32C 52.7678,33.6531 50.6011,34.4864 48,34.5C 46.1667,34.3333 44.3333,34.1667 42.5,34C 44.5037,31.1592 45.0037,27.9926 44,24.5C 43.6174,23.944 43.1174,23.6107 42.5,23.5 Z"/></g>
<g><path style="opacity:0.691" fill="#f6c06f" d="M 54.5,23.5 C 56.6282,22.3709 58.9615,22.2042 61.5,23C 61,23.5 60.5,24 60,24.5C 59.502,27.4816 59.3354,30.4816 59.5,33.5C 61.9288,33.415 63.9288,32.415 65.5,30.5C 65.9059,31.5575 65.9059,32.8908 65.5,34.5C 61.8183,34.6653 58.1516,34.4986 54.5,34C 56.5037,31.1592 57.0037,27.9926 56,24.5C 55.6174,23.944 55.1174,23.6107 54.5,23.5 Z"/></g>
<g><path style="opacity:0.792" fill="#f6c06f" d="M 71.5,23.5 C 74.6868,22.1944 78.0202,22.1944 81.5,23.5C 82.8587,25.306 82.5254,26.806 80.5,28C 78.8659,28.4935 77.1992,28.6602 75.5,28.5C 75.178,30.7224 75.8446,32.5557 77.5,34C 75.5,34.6667 73.5,34.6667 71.5,34C 73.5037,31.1592 74.0037,27.9926 73,24.5C 72.6174,23.944 72.1174,23.6107 71.5,23.5 Z M 75.5,23.5 C 80.1158,24.0407 80.4491,25.374 76.5,27.5C 75.5713,26.3112 75.238,24.9778 75.5,23.5 Z"/></g>
<g><path style="opacity:0.699" fill="#f6c06f" d="M 86.5,22.5 C 94.0001,21.1657 96.8334,24.1657 95,31.5C 91.6101,35.0324 87.9434,35.3658 84,32.5C 82.8613,28.5789 83.6946,25.2456 86.5,22.5 Z M 88.5,23.5 C 92.254,24.8276 93.4207,27.4942 92,31.5C 88.6613,34.0568 86.828,33.0568 86.5,28.5C 86.4365,26.4861 87.1032,24.8194 88.5,23.5 Z"/></g>
<g><path style="opacity:0.72" fill="#f6c06f" d="M 96.5,23.5 C 100.437,22.1198 104.437,22.2864 108.5,24C 110.053,27.5653 109.72,30.8986 107.5,34C 103.833,34.6667 100.167,34.6667 96.5,34C 98.5037,31.1592 99.0037,27.9926 98,24.5C 97.6174,23.944 97.1174,23.6107 96.5,23.5 Z M 101.5,23.5 C 106.151,24.2395 107.651,26.9062 106,31.5C 103.35,34.4639 101.516,34.1306 100.5,30.5C 101.223,28.2178 101.557,25.8845 101.5,23.5 Z"/></g>
<g><path style="opacity:0.691" fill="#f6c06f" d="M 115.5,23.5 C 117.628,22.3709 119.961,22.2042 122.5,23C 122,23.5 121.5,24 121,24.5C 120.502,27.4816 120.335,30.4816 120.5,33.5C 122.929,33.415 124.929,32.415 126.5,30.5C 126.906,31.5575 126.906,32.8908 126.5,34.5C 122.818,34.6653 119.152,34.4986 115.5,34C 117.504,31.1592 118.004,27.9926 117,24.5C 116.617,23.944 116.117,23.6107 115.5,23.5 Z"/></g>
<g><path style="opacity:0.684" fill="#f6c06f" d="M 127.5,23.5 C 129.288,22.3775 131.288,22.2109 133.5,23C 132.167,26.6667 132.167,30.3333 133.5,34C 128.219,35.5876 126.885,33.921 129.5,29C 129.333,27.5 129.167,26 129,24.5C 128.617,23.944 128.117,23.6107 127.5,23.5 Z"/></g>
<g><path style="opacity:0.695" fill="#f6c06f" d="M 134.5,23.5 C 137.64,22.3592 140.973,22.1925 144.5,23C 146.334,27.6748 144.667,29.5081 139.5,28.5C 139.261,30.4672 139.594,32.3005 140.5,34C 138.5,34.6667 136.5,34.6667 134.5,34C 135.72,32.4747 136.387,30.6413 136.5,28.5C 136.444,26.3603 135.777,24.6936 134.5,23.5 Z M 139.5,23.5 C 142.861,24.2032 143.194,25.5365 140.5,27.5C 139.571,26.3112 139.238,24.9778 139.5,23.5 Z"/></g>
<g><path style="opacity:0.663" fill="#f6c06f" d="M 146.5,23.5 C 150.311,22.3547 154.311,22.1881 158.5,23C 156.833,24 155.167,25 153.5,26C 155.523,28.2964 157.189,30.7964 158.5,33.5C 160.76,29.888 162.926,26.2214 165,22.5C 167.074,26.2214 169.24,29.888 171.5,33.5C 172.086,33.2907 172.586,32.9574 173,32.5C 173.167,31 173.333,29.5 173.5,28C 173.371,26.0194 172.704,24.3528 171.5,23C 173.473,22.5045 175.473,22.3379 177.5,22.5C 178.927,31.0008 180.927,31.3341 183.5,23.5C 185.074,22.3691 186.741,22.2025 188.5,23C 186.025,26.768 186.025,30.4346 188.5,34C 186.5,34.6667 184.5,34.6667 182.5,34C 184.396,32.1917 184.896,30.025 184,27.5C 181.333,36.8333 178.667,36.8333 176,27.5C 175.104,30.025 175.604,32.1917 177.5,34C 173.5,34.6667 169.5,34.6667 165.5,34C 167.161,30.8501 166.161,29.3501 162.5,29.5C 162.286,31.1439 162.62,32.6439 163.5,34C 160.5,34.6667 157.5,34.6667 154.5,34C 153.914,31.7202 153.08,29.5535 152,27.5C 149.949,29.8091 150.116,31.9757 152.5,34C 150.5,34.6667 148.5,34.6667 146.5,34C 147.82,30.3987 147.82,26.8987 146.5,23.5 Z M 150.5,23.5 C 154.133,23.443 154.3,24.443 151,26.5C 150.517,25.552 150.351,24.552 150.5,23.5 Z M 163.5,26.5 C 165.337,26.6395 165.67,27.3061 164.5,28.5C 163.702,28.0431 163.369,27.3764 163.5,26.5 Z"/></g>
<g><path style="opacity:0.802" fill="#f6c06f" d="M 189.5,23.5 C 191.288,22.3775 193.288,22.2109 195.5,23C 192.833,26.6667 192.833,30.3333 195.5,34C 193.5,34.6667 191.5,34.6667 189.5,34C 191.504,31.1592 192.004,27.9926 191,24.5C 190.617,23.944 190.117,23.6107 189.5,23.5 Z"/></g>
<g><path style="opacity:0.613" fill="#f6c06f" d="M 80.5,55.5 C 79.8333,55.5 79.1667,55.5 78.5,55.5C 77.5,54.1667 76.5,54.1667 75.5,55.5C 75.1667,55.5 74.8333,55.5 74.5,55.5C 74.822,53.2776 74.1554,51.4443 72.5,50C 74.5644,49.3468 76.2311,48.1801 77.5,46.5C 78.5,48.1667 79.8333,49.5 81.5,50.5C 81.0233,51.4776 80.3567,52.3109 79.5,53C 80.2524,53.6708 80.5858,54.5041 80.5,55.5 Z"/></g>
<g><path style="opacity:0.599" fill="#f6c06f" d="M 94.5,55.5 C 93.8333,55.5 93.1667,55.5 92.5,55.5C 91.8333,54.1667 91.1667,54.1667 90.5,55.5C 89.8333,55.5 89.1667,55.5 88.5,55.5C 88.822,53.2776 88.1554,51.4443 86.5,50C 88.8609,49.8032 90.5276,48.6365 91.5,46.5C 92.5,48.1667 93.8333,49.5 95.5,50.5C 94.6906,52.0709 94.3573,53.7376 94.5,55.5 Z"/></g>
<g><path style="opacity:0.599" fill="#f6c06f" d="M 108.5,55.5 C 107.833,55.5 107.167,55.5 106.5,55.5C 105.833,54.1667 105.167,54.1667 104.5,55.5C 103.833,55.5 103.167,55.5 102.5,55.5C 102.643,53.7376 102.309,52.0709 101.5,50.5C 103.167,49.5 104.5,48.1667 105.5,46.5C 106.472,48.6365 108.139,49.8032 110.5,50C 108.845,51.4443 108.178,53.2776 108.5,55.5 Z"/></g>
<g><path style="opacity:0.613" fill="#f6c06f" d="M 122.5,55.5 C 122.167,55.5 121.833,55.5 121.5,55.5C 120.5,54.1667 119.5,54.1667 118.5,55.5C 117.833,55.5 117.167,55.5 116.5,55.5C 116.414,54.5041 116.748,53.6708 117.5,53C 116.643,52.3109 115.977,51.4776 115.5,50.5C 117.167,49.5 118.5,48.1667 119.5,46.5C 120.769,48.1801 122.436,49.3468 124.5,50C 122.845,51.4443 122.178,53.2776 122.5,55.5 Z"/></g>
<g><path style="opacity:0.063" fill="#f6c06f" d="M 0.5,51.5 C 20.6625,50.3374 40.9958,50.1708 61.5,51C 41.1694,51.5 20.8361,51.6666 0.5,51.5 Z"/></g>
<g><path style="opacity:0.062" fill="#f6c06f" d="M 134.5,51.5 C 154.996,50.3374 175.663,50.1707 196.5,51C 175.836,51.5 155.169,51.6666 134.5,51.5 Z"/></g>
</svg>
