<svg width="462" height="138" viewBox="0 0 462 138" fill="none" xmlns="http://www.w3.org/2000/svg">
<path opacity="0.973" fill-rule="evenodd" clip-rule="evenodd" d="M277.5 0.499725C283.204 -0.564175 287.371 1.43583 290 6.49973C290.667 34.4997 290.667 62.4997 290 90.4997C286.252 96.5417 281.085 98.0417 274.5 94.9997C272.951 93.7857 271.785 92.2857 271 90.4997C270.333 62.4997 270.333 34.4997 271 6.49973C272.436 3.55783 274.603 1.55783 277.5 0.499725Z" fill="white"/>
<path opacity="0.956" fill-rule="evenodd" clip-rule="evenodd" d="M395.5 0.499725C401.204 -0.564175 405.371 1.43583 408 6.49973C408.333 15.833 408.667 25.1664 409 34.4997C420.585 23.1799 433.419 21.6799 447.5 29.9997C459.142 40.2564 463.642 53.0897 461 68.4997C455.723 91.7167 441.556 100.551 418.5 94.9997C415.059 93.2237 411.892 91.0567 409 88.4997C406.451 95.3577 401.617 97.8577 394.5 95.9997C392.714 95.2147 391.214 94.0487 390 92.4997C388.35 63.9194 388.017 35.2527 389 6.49973C390.436 3.55783 392.603 1.55783 395.5 0.499725ZM420.5 42.4997C436.501 43.1008 443.001 51.4341 440 67.4997C435.38 78.7047 427.547 81.8717 416.5 76.9997C407.799 69.0337 406.299 59.8667 412 49.4997C414.441 46.5461 417.275 44.2128 420.5 42.4997Z" fill="white"/>
<path opacity="0.964" fill-rule="evenodd" clip-rule="evenodd" d="M188.5 4.50015C194.59 3.13735 199.09 5.13735 202 10.5002C202.333 21.5002 202.667 32.5002 203 43.5002C215.5 31.0002 228 18.5002 240.5 6.00015C253.154 2.32325 257.987 6.82325 255 19.5002C246.47 28.3643 237.637 36.8643 228.5 45.0002C237.306 56.7737 246.473 68.2732 256 79.5002C260.476 88.9312 257.642 94.5972 247.5 96.5002C245.366 96.4852 243.366 95.9852 241.5 95.0002C232.327 82.9992 222.993 71.1652 213.5 59.5002C209.721 62.145 206.221 65.145 203 68.5002C202.937 76.6032 202.27 84.6032 201 92.5002C195.333 97.8332 189.667 97.8332 184 92.5002C182.351 65.2536 182.018 37.9202 183 10.5002C184.36 7.97755 186.193 5.97755 188.5 4.50015Z" fill="white"/>
<path opacity="0.976" fill-rule="evenodd" clip-rule="evenodd" d="M7.50002 5.49996C21.504 5.33336 35.504 5.50006 49.5 5.99996C69.787 12.0553 77.62 25.5553 73 46.5C68.803 58.692 60.3029 65.8587 47.5 68C39.1733 68.5 30.84 68.666 22.5 68.5C22.9352 76.611 22.4352 84.611 21 92.5C16.7998 96.714 11.9664 97.548 6.50002 95C4.95122 93.786 3.78453 92.286 3.00003 90.5C2.33333 63.8333 2.33333 37.1667 3.00003 10.5C4.70732 8.96246 6.20732 7.29586 7.50002 5.49996ZM22.5 23.5C29.8956 23.1997 37.229 23.6997 44.5 25C52.8907 29.3887 55.0574 35.8887 51 44.5C49.2691 46.6166 47.1024 48.1166 44.5 49C37.2542 50.3905 29.9209 50.8905 22.5 50.5C22.5 41.5 22.5 32.5 22.5 23.5Z" fill="white"/>
<path opacity="0.957" fill-rule="evenodd" clip-rule="evenodd" d="M93.5002 5.49973C110.223 5.05873 126.89 5.55873 143.5 6.99973C153.774 10.2727 160.274 17.106 163 27.4997C166.487 43.6852 160.987 55.5186 146.5 62.9997C151.667 69.4997 156.833 75.9997 162 82.4997C163.155 94.3377 157.988 98.5047 146.5 94.9997C138.978 86.3127 131.645 77.4787 124.5 68.4997C119.208 67.5047 113.875 67.1717 108.5 67.4997C108.666 75.1737 108.5 82.8407 108 90.4997C105.081 96.0247 100.581 97.8577 94.5002 95.9997C90.7952 94.3007 88.6283 91.4667 88.0002 87.4997C87.3332 63.1664 87.3332 38.833 88.0002 14.4997C88.3392 10.4701 90.1732 7.47013 93.5002 5.49973ZM108.5 23.4997C117.226 23.1611 125.893 23.6611 134.5 24.9997C142.94 29.4532 144.774 35.9532 140 44.4997C138.745 45.2103 137.579 46.0437 136.5 46.9997C127.248 48.4169 117.915 48.9169 108.5 48.4997C108.5 40.1664 108.5 31.833 108.5 23.4997Z" fill="white"/>
<path opacity="0.952" fill-rule="evenodd" clip-rule="evenodd" d="M313.5 25.5002C319.114 24.4139 323.614 26.0805 327 30.5002C328.278 43.7645 328.945 57.0978 329 70.5002C332.294 77.9362 337.794 80.1032 345.5 77.0002C347.378 75.4572 348.878 73.6242 350 71.5002C351.24 57.8799 351.907 44.2132 352 30.5002C357.708 24.2851 363.708 23.9517 370 29.5002C371.643 49.7441 371.976 70.0772 371 90.5002C368.081 96.0252 363.581 97.8582 357.5 96.0002C353.795 94.3012 351.628 91.4672 351 87.5002C338.932 99.9572 326.266 100.624 313 89.5002C310.158 85.6442 308.491 81.3102 308 76.5002C307.333 61.8335 307.333 47.1669 308 32.5002C308.967 29.3796 310.8 27.0462 313.5 25.5002Z" fill="white"/>
<path opacity="0.956" fill-rule="evenodd" clip-rule="evenodd" d="M6.50082 117.5C57.5019 117.333 108.502 117.5 159.501 118C166.236 121.322 168.07 126.489 165.001 133.5C163.787 135.049 162.287 136.215 160.501 137C109.168 137.667 57.8341 137.667 6.50082 137C0.458622 133.252 -1.04138 128.085 2.00082 121.5C3.39762 119.93 4.89762 118.596 6.50082 117.5Z" fill="white"/>
</svg>
