<?xml version="1.0" encoding="UTF-8"?>
<!DOCTYPE svg PUBLIC "-//W3C//DTD SVG 1.1//EN" "http://www.w3.org/Graphics/SVG/1.1/DTD/svg11.dtd">
<svg xmlns="http://www.w3.org/2000/svg" version="1.1" width="538px" height="211px" style="shape-rendering:geometricPrecision; text-rendering:geometricPrecision; image-rendering:optimizeQuality; fill-rule:evenodd; clip-rule:evenodd" xmlns:xlink="http://www.w3.org/1999/xlink">
<g><path style="opacity:0.973" fill="#fff" d="M 315.5,34.5 C 321.204,33.4361 325.371,35.4361 328,40.5C 328.667,68.5 328.667,96.5 328,124.5C 324.252,130.542 319.085,132.042 312.5,129C 310.951,127.786 309.785,126.286 309,124.5C 308.333,96.5 308.333,68.5 309,40.5C 310.436,37.5581 312.603,35.5581 315.5,34.5 Z"/></g>
<g><path style="opacity:0.956" fill="#fff" d="M 433.5,34.5 C 439.204,33.4361 443.371,35.4361 446,40.5C 446.333,49.8333 446.667,59.1667 447,68.5C 458.585,57.1802 471.419,55.6802 485.5,64C 497.142,74.2567 501.642,87.09 499,102.5C 493.723,125.717 479.556,134.551 456.5,129C 453.059,127.224 449.892,125.057 447,122.5C 444.451,129.358 439.617,131.858 432.5,130C 430.714,129.215 429.214,128.049 428,126.5C 426.35,97.9197 426.017,69.253 427,40.5C 428.436,37.5581 430.603,35.5581 433.5,34.5 Z M 458.5,76.5 C 474.501,77.1011 481.001,85.4344 478,101.5C 473.38,112.705 465.547,115.872 454.5,111C 445.799,103.034 444.299,93.867 450,83.5C 452.441,80.5464 455.275,78.2131 458.5,76.5 Z"/></g>
<g><path style="opacity:0.964" fill="#fff" d="M 226.5,38.5 C 232.59,37.1372 237.09,39.1372 240,44.5C 240.333,55.5 240.667,66.5 241,77.5C 253.5,65 266,52.5 278.5,40C 291.154,36.3231 295.987,40.8231 293,53.5C 284.47,62.3641 275.637,70.8641 266.5,79C 275.306,90.7735 284.473,102.273 294,113.5C 298.476,122.931 295.642,128.597 285.5,130.5C 283.366,130.485 281.366,129.985 279.5,129C 270.327,116.999 260.993,105.165 251.5,93.5C 247.721,96.1448 244.221,99.1448 241,102.5C 240.937,110.603 240.27,118.603 239,126.5C 233.333,131.833 227.667,131.833 222,126.5C 220.351,99.2534 220.018,71.92 221,44.5C 222.36,41.9774 224.193,39.9774 226.5,38.5 Z"/></g>
<g><path style="opacity:0.976" fill="#fff" d="M 45.5,39.5 C 59.504,39.3334 73.504,39.5001 87.5,40C 107.787,46.0553 115.62,59.5553 111,80.5C 106.803,92.692 98.3029,99.8587 85.5,102C 77.1733,102.5 68.84,102.666 60.5,102.5C 60.9352,110.611 60.4352,118.611 59,126.5C 54.7998,130.714 49.9664,131.548 44.5,129C 42.9512,127.786 41.7845,126.286 41,124.5C 40.3333,97.8333 40.3333,71.1667 41,44.5C 42.7073,42.9625 44.2073,41.2959 45.5,39.5 Z M 60.5,57.5 C 67.8956,57.1997 75.229,57.6997 82.5,59C 90.8907,63.3887 93.0574,69.8887 89,78.5C 87.2691,80.6166 85.1024,82.1166 82.5,83C 75.2542,84.3905 67.9209,84.8905 60.5,84.5C 60.5,75.5 60.5,66.5 60.5,57.5 Z"/></g>
<g><path style="opacity:0.957" fill="#fff" d="M 131.5,39.5 C 148.223,39.059 164.89,39.559 181.5,41C 191.774,44.273 198.274,51.1063 201,61.5C 204.487,77.6855 198.987,89.5189 184.5,97C 189.667,103.5 194.833,110 200,116.5C 201.155,128.338 195.988,132.505 184.5,129C 176.978,120.313 169.645,111.479 162.5,102.5C 157.208,101.505 151.875,101.172 146.5,101.5C 146.666,109.174 146.5,116.841 146,124.5C 143.081,130.025 138.581,131.858 132.5,130C 128.795,128.301 126.628,125.467 126,121.5C 125.333,97.1667 125.333,72.8333 126,48.5C 126.339,44.4704 128.173,41.4704 131.5,39.5 Z M 146.5,57.5 C 155.226,57.1614 163.893,57.6614 172.5,59C 180.94,63.4535 182.774,69.9535 178,78.5C 176.745,79.2106 175.579,80.044 174.5,81C 165.248,82.4172 155.915,82.9172 146.5,82.5C 146.5,74.1667 146.5,65.8333 146.5,57.5 Z"/></g>
<g><path style="opacity:0.952" fill="#fff" d="M 351.5,59.5 C 357.114,58.4137 361.614,60.0803 365,64.5C 366.278,77.7643 366.945,91.0976 367,104.5C 370.294,111.936 375.794,114.103 383.5,111C 385.378,109.457 386.878,107.624 388,105.5C 389.24,91.8797 389.907,78.213 390,64.5C 395.708,58.2849 401.708,57.9515 408,63.5C 409.643,83.7439 409.976,104.077 409,124.5C 406.081,130.025 401.581,131.858 395.5,130C 391.795,128.301 389.628,125.467 389,121.5C 376.932,133.957 364.266,134.624 351,123.5C 348.158,119.644 346.491,115.31 346,110.5C 345.333,95.8333 345.333,81.1667 346,66.5C 346.967,63.3794 348.8,61.046 351.5,59.5 Z"/></g>
<g><path style="opacity:0.956" fill="#fff" d="M 44.5,151.5 C 95.5011,151.333 146.501,151.5 197.5,152C 204.235,155.322 206.069,160.489 203,167.5C 201.786,169.049 200.286,170.215 198.5,171C 147.167,171.667 95.8333,171.667 44.5,171C 38.4578,167.252 36.9578,162.085 40,155.5C 41.3968,153.93 42.8968,152.596 44.5,151.5 Z"/></g>
</svg>
