<svg width="1548" height="256" viewBox="0 0 1548 256" fill="none" xmlns="http://www.w3.org/2000/svg">
<path d="M313.293 253.584C314 253.719 314.708 253.844 315.413 253.97L313.293 253.584ZM319.076 254.547C319.9 254.67 320.723 254.779 321.549 254.888L319.076 254.547ZM325.191 255.281C325.995 255.354 326.795 255.422 327.6 255.484L325.191 255.281ZM328.461 255.543C329.14 255.593 329.819 255.633 330.499 255.669L328.461 255.543ZM331.488 255.721C332.292 255.756 333.097 255.787 333.901 255.813L331.488 255.721ZM334.701 255.822C336.499 255.87 338.297 255.872 340.094 255.827L334.701 255.822ZM340.953 255.813C341.791 255.788 342.629 255.755 343.466 255.716L340.953 255.813ZM344.257 255.678C344.983 255.638 345.698 255.593 346.419 255.543L344.257 255.678ZM347.17 255.491C347.955 255.432 348.743 255.366 349.524 255.292L347.17 255.491ZM353.554 254.843C354.16 254.772 354.761 254.694 355.36 254.599L353.554 254.843ZM463.961 51.7665C463.31 51.4154 462.642 51.0964 461.959 50.8105L463.961 51.7665ZM457.402 49.4072C456.565 49.2358 455.72 49.1063 454.87 49.0191L457.402 49.4072ZM27.924 136.475C25.0115 133.802 22.7983 130.456 21.478 126.73C20.4037 123.619 19.0123 119.731 19.0123 116.43C19.0809 101.545 27.7678 90.4896 37.1197 85.3712C41.3696 83.0474 42.948 81.4525 43.5964 80.6337C43.2852 80.4962 42.9533 80.4114 42.6143 80.3829C29.8857 80.3829 23.3593 75.4372 20.1552 71.2511C17.1192 67.33 15.5692 62.2755 15.5692 56.7477C15.5692 54.0619 15.9478 51.2506 16.6932 48.3755C20.2806 42.4501 23.6882 44.0782 25.7753 47.1095C27.1052 49.0073 36.2181 55.4675 47.4465 56.4921C55.6175 57.2683 60.0213 61.2651 62.3119 64.4573C64.9528 68.1535 65.9656 72.607 65.9656 76.3956C65.9656 77.9455 65.7905 79.4008 65.4568 80.6952C64.2263 85.6883 58.9659 90.1891 51.6396 95.9228L47.4843 99.3682C41.4004 104.692 38.052 110.618 38.052 115.639C38.052 116.893 38.2721 118.117 38.6957 119.246C38.8708 119.709 39.0814 120.157 39.3298 120.58C42.0488 125.183 49.7324 128.07 60.8779 124.17C66.0295 122.383 75.9469 116.141 82.0024 110.137C89.1275 103.029 98.6379 101.323 107.796 100.599C115.737 100 120.626 98.0525 124.069 94.1811C134.245 82.7161 144.037 81.1046 153.201 80.4231C156.708 80.1533 156.898 79.9025 157.354 79.2849C162.407 72.5573 167.596 68.996 172.253 66.923C175.803 65.3447 179.044 64.6253 181.7 64.0432L184.922 63.2504L185.727 62.9665C190.829 61.3242 194.778 59.9636 205.157 52.9497L205.6 52.6704L205.602 52.6657L206.038 52.3936L206.042 52.3912L206.48 52.1333L206.487 52.1309L206.925 51.8801L206.932 51.8777L207.372 51.6458L207.386 51.6411L207.822 51.4139L207.836 51.4092L208.274 51.1962L208.293 51.1915L208.733 50.988L208.749 50.9785L209.192 50.7939L209.211 50.7868L209.651 50.6046L209.675 50.5999L210.117 50.4342L210.138 50.4224L210.576 50.2662L211.042 50.11L211.073 50.1029L211.509 49.9633L211.537 49.9562L211.979 49.8284L212.01 49.8213L212.448 49.7007L212.481 49.6912L212.921 49.5871L212.961 49.5776L213.395 49.4782L213.43 49.4688L213.873 49.3788L213.91 49.3694L214.348 49.2889L214.388 49.2818L214.826 49.2085L214.866 49.2037L215.299 49.1398L215.344 49.1304L215.78 49.0807L215.825 49.0712L216.253 49.0239L216.3 49.0215L216.733 48.9813L216.783 48.9765L217.214 48.9458L217.264 48.941L217.687 48.915L217.737 48.9127L218.165 48.8937L218.643 48.8795H218.693L219.119 48.8748H219.649L220.07 48.8795L220.12 48.8819H220.169C220.472 48.889 220.775 48.9079 221.078 48.9245L221.495 48.9505L221.554 48.9552L221.963 48.986L222.025 48.9907L222.434 49.031L222.498 49.0381L222.905 49.0783L222.971 49.083L223.376 49.1327L223.44 49.1422L223.842 49.1919L223.911 49.2037L224.308 49.2629L224.374 49.2747L224.774 49.3362L224.845 49.3504L225.236 49.4191L225.309 49.4309L225.697 49.5019L225.768 49.5184C226.388 49.6344 226.999 49.7716 227.597 49.9184L227.974 50.013L228.049 50.0343C228.653 50.1905 229.249 50.3561 229.836 50.5312L230.184 50.6401L230.269 50.6661C231.433 51.0329 232.562 51.447 233.655 51.8848L233.963 52.0126L234.365 52.1782C256.562 22.0237 291.655 1.95935 331.54 0.144348V0.134883C333.503 0.0465988 335.469 0.00162704 337.434 0C338.734 0.000855103 340.033 0.0205768 341.332 0.059159C341.978 0.0804562 342.624 0.106486 343.267 0.132516H343.275C343.913 0.163279 344.559 0.194041 345.201 0.23427C383.796 2.5533 417.786 21.9906 439.678 51.0518C442.804 49.9657 446.209 49.1777 449.685 48.941L449.777 48.9363L450.106 48.915L450.449 48.8985L450.532 48.8937L450.622 48.8914L450.958 48.8819L451.048 48.8772L451.384 48.8748L451.474 48.8724L451.817 48.8701H451.9L452.243 48.8724H452.328L452.752 48.8795L453.097 48.8937L453.173 48.8961L453.519 48.9127L453.599 48.9174L453.947 48.941L454.013 48.9458L454.366 48.9742L454.434 48.9789L454.789 49.0144L454.853 49.0215C455.703 49.1085 456.548 49.238 457.385 49.4096L457.757 49.4853L457.806 49.4971L458.173 49.5847L458.225 49.5942L458.594 49.6888L458.644 49.7007L459.018 49.8L459.058 49.8119L459.442 49.9184L459.477 49.9302L459.851 50.0461L459.894 50.058L460.274 50.1834L460.308 50.1929L460.719 50.3372L461.105 50.4745L461.129 50.4863L461.512 50.6354L461.536 50.6448L461.926 50.801L461.95 50.8128C462.624 51.0968 463.292 51.4115 463.952 51.7689L463.964 51.7759L464.354 51.9842L464.359 51.9889L464.749 52.2137L464.756 52.2161L465.147 52.4527L465.152 52.4551L465.537 52.6988L465.928 52.952C473.079 57.8125 477.211 59.9541 480.736 61.3526C482.322 61.9844 483.794 62.4601 485.356 62.9688L486.177 63.2528L489.433 64.0455C491.198 64.4336 493.214 64.8808 495.398 65.5955C500.862 67.375 507.391 70.8299 513.726 79.2872C514.185 79.9049 514.388 80.1557 517.912 80.4255C527.067 81.1093 536.843 82.7185 547.061 94.1835C550.478 98.0548 555.343 100 563.282 100.601C572.494 101.325 581.974 103.029 589.085 110.14C595.148 116.143 605.053 122.386 610.219 124.172C621.36 128.072 629.081 125.185 631.736 120.583C632.318 119.612 632.709 118.545 632.907 117.416C633.012 116.831 633.065 116.237 633.066 115.642C633.066 110.62 629.713 104.695 623.646 99.3705L622.891 98.7435L619.45 95.9251C612.152 90.1914 606.889 85.6906 605.621 80.6976C605.287 79.4032 605.143 77.9479 605.143 76.3979C605.143 72.607 606.179 68.1559 608.768 64.4596C611.075 61.2674 615.527 57.2706 623.646 56.4945C634.933 55.4698 643.996 49.0097 645.321 47.1119C647.444 44.0805 650.818 42.4525 654.392 48.3779C655.149 51.253 655.528 54.0642 655.528 56.75C655.528 62.3086 653.978 67.3324 650.944 71.2535C647.719 75.4395 641.213 80.3852 628.463 80.3852C628.194 80.3852 627.817 80.5107 627.503 80.6361C628.135 81.4572 629.713 83.0521 633.972 85.3735C643.324 90.4943 652.021 101.55 652.099 116.432C652.099 119.733 650.724 123.619 649.614 126.733C648.454 129.999 646.615 132.982 644.219 135.486C643.894 135.822 643.556 136.153 643.199 136.477C637.931 141.371 629.157 145.212 614.537 144.338C612.998 144.244 611.462 144.106 609.93 143.922C609.552 151.298 607.528 160.065 604.682 164.488C603.816 165.877 603.645 166.809 603.645 167.266C603.645 167.458 603.664 167.569 603.664 167.649C603.754 167.68 610.15 171.455 610.15 171.455L611.182 171.978C611.182 171.978 611.783 172.262 611.861 172.325C611.953 172.292 614.071 172.198 614.071 172.198L614.49 172.138L614.533 172.134C618.532 171.753 624.639 169.796 627.235 177.046C627.914 178.97 628.329 180.646 628.719 182.129C629.512 185.163 630.191 187.416 632.846 189.463C632.846 189.463 634.159 188.336 635.65 187.011C636.802 185.994 637.931 184.952 639.036 183.885C640.887 181.99 644.311 182.953 646.779 183.885C649.276 184.832 652.366 186.983 654.55 188.227C656.749 189.46 657.96 191.024 658.592 192.891C659.252 194.754 660.779 195.987 663.107 197.22C665.355 198.497 668.578 202.591 668.578 208.117C668.578 208.964 668.673 209.688 668.912 210.457C669.075 210.966 669.297 211.496 669.603 212.099C672.745 218.434 670.223 221.624 668.403 222.968C665.956 224.799 661.64 225.557 657.584 224.894L657.617 225.935L651.694 225.145C649.399 224.859 646.372 225.445 644.564 225.822L644.138 225.935C639.921 226.773 634.408 225.346 631.31 220.315C631.197 220.128 631.083 219.941 630.977 219.743C629.396 216.967 626.935 214.39 625.73 213.678C623.991 214.156 621.244 214.804 617.973 214.47C614.94 214.165 611.44 213.001 607.881 210.052C607.292 209.562 606.698 209.021 606.109 208.434C600.879 203.187 593.979 202.113 589.641 202.778L587.055 203.237C581.716 204.203 575.048 205.433 568.888 201.675C567.355 200.741 565.144 199.778 562.977 198.862C557.385 196.427 551.604 193.916 550.816 188.623C550.684 187.678 549.661 185.953 548.821 184.581C548.083 183.367 547.278 182.039 546.656 180.617C546.057 179.259 545.627 177.813 545.586 176.303C543.755 176.774 541.864 176.967 539.976 176.876C539.309 176.842 538.644 176.777 537.983 176.68L535.555 176.303C531.464 175.605 522.895 174.197 520.167 175.193C514.734 177.153 497.637 178.099 492.949 177.027C492.949 177.027 491.224 176.649 489.598 176.303C488.037 177.915 486.295 179.427 484.463 180.773C487.895 180.96 490.912 180.534 492.985 181.069L497.291 182.205C498.666 181.798 502.029 181.845 503.939 182.018L508.984 182.397L514.739 182.95C517.512 183.506 520.456 184.704 519.952 190.137C519.758 191.812 518.821 194.181 517.41 195.573C516.634 196.424 513.626 200.786 512.966 202.158L512.751 202.586C511.58 205.083 509.843 207.376 504.786 207.376C504.144 207.367 503.501 207.393 502.862 207.452C502.708 207.861 502.294 208.621 502.294 208.621C501.156 211.209 499.511 214.813 496.369 216.898L495.528 217.502C493.006 219.302 488.803 222.27 482.369 219.934L480.154 219.141C474.546 217.121 466.065 214.089 461.784 211.749L461.183 211.418C457.196 209.236 456.313 208.798 454.865 209.002L454.06 209.127C451.003 209.555 445.239 210.329 441.254 203.722L440.889 203.15C421.994 229.085 393.593 247.649 360.814 253.709L360.67 253.74C359.553 253.944 358.426 254.133 357.3 254.31L356.881 254.372L355.341 254.599C354.742 254.689 354.141 254.769 353.535 254.845L352.437 254.982L350.705 255.169L349.505 255.295C348.724 255.368 347.936 255.434 347.151 255.493L346.405 255.543C345.684 255.593 344.969 255.64 344.242 255.678L343.452 255.721C342.614 255.761 341.781 255.792 340.939 255.818L340.085 255.832C338.287 255.877 336.489 255.875 334.692 255.827L333.887 255.818C333.082 255.792 332.278 255.761 331.473 255.725L330.489 255.671C329.81 255.633 329.131 255.598 328.452 255.546L327.588 255.489C326.784 255.427 325.981 255.359 325.179 255.285L323.991 255.162L322.417 254.992L321.54 254.89C320.713 254.789 319.889 254.674 319.067 254.547L318.07 254.4L316.31 254.126L315.404 253.974C314.696 253.849 313.988 253.726 313.283 253.589L311.757 253.283L310.976 253.125C309.933 252.898 308.882 252.673 307.845 252.422L307.571 252.358L305.94 251.961L305.103 251.745C304.13 251.494 303.162 251.225 302.197 250.955L301.851 250.853C273.11 242.561 248.549 224.461 231.992 200.419L229.812 203.736C225.865 210.343 220.113 209.567 217.015 209.141L216.211 209.016C214.767 208.812 213.854 209.25 209.904 211.432L209.27 211.763C205.003 214.103 196.556 217.135 190.916 219.156L188.697 219.948C182.267 222.284 178.051 219.312 175.575 217.516L174.707 216.912C171.562 214.83 169.934 211.226 168.779 208.635C168.779 208.635 168.401 207.875 168.216 207.466C167.575 207.407 166.931 207.382 166.287 207.39C161.278 207.39 159.491 205.097 158.339 202.601L158.135 202.172C157.456 200.8 154.486 196.439 153.665 195.587C152.276 194.198 151.289 191.827 151.133 190.151C150.613 184.718 153.597 183.521 156.344 182.965L162.101 182.411L167.156 182.032C169.035 181.859 172.4 181.812 173.772 182.219L178.084 181.083C180.135 180.549 183.183 180.974 186.584 180.788C184.776 179.418 183.066 177.924 181.465 176.317C179.821 176.663 178.112 177.042 178.112 177.042C173.41 178.114 156.344 177.167 150.944 175.208C148.199 174.211 139.637 175.617 135.527 176.317L133.061 176.694C130.546 177.08 127.978 176.952 125.513 176.317C125.383 179.41 123.707 182.219 122.271 184.595C121.435 185.967 120.378 187.693 120.25 188.637C119.512 193.93 113.66 196.441 108.084 198.876C105.919 199.792 103.742 200.755 102.197 201.69C96.0822 205.447 89.3831 204.217 84.028 203.251L81.4345 202.792C77.1206 202.127 70.2156 203.202 64.9741 208.448C56.9592 216.444 48.9846 214.686 45.3522 213.692C44.1501 214.404 41.6725 216.981 40.1036 219.757C37.0747 225.256 31.289 226.818 26.9301 225.949L26.4923 225.836C24.7034 225.46 21.7147 224.873 19.4264 225.159L13.4679 225.949L13.5318 224.908C9.45454 225.571 5.12411 224.811 2.66783 222.982C0.862294 221.638 -1.66734 218.448 1.52724 212.113C2.26792 210.594 2.52111 209.539 2.52111 208.131C2.52111 202.603 5.71806 198.512 7.96137 197.234C10.3135 196.001 11.8611 194.768 12.4906 192.906C13.1082 191.039 14.3198 189.474 16.5205 188.242C18.6975 186.997 21.7951 184.846 24.2774 183.899C26.755 182.967 30.1791 182.004 32.0462 183.899C33.9274 185.731 38.2366 189.474 38.2366 189.474C42.1908 186.422 41.8122 182.903 43.8614 177.056C46.4242 169.805 52.5554 171.762 56.5356 172.143L56.9923 172.207C56.9923 172.207 59.1386 172.302 59.2025 172.335C59.3137 172.271 59.9148 171.987 59.9148 171.987L60.911 171.464C60.911 171.464 67.3381 167.69 67.402 167.659C67.4304 167.581 67.4304 167.467 67.4304 167.276C67.4304 166.819 67.2742 165.887 66.4057 164.497C63.5472 160.072 61.5263 151.307 61.1595 143.931C60.1278 144.055 59.1315 144.156 58.1519 144.234C42.5859 145.484 33.3358 141.546 27.924 136.475Z" fill="#F8EE3F"/>
<path d="M66.2452 138.544C66.2452 138.544 64.9485 151.098 70.6041 162.16C70.6041 162.16 74.7949 168.1 70.4431 171.914L61.7799 176.95C61.7799 176.95 60.6157 177.816 56.7514 177.523C56.7514 177.523 51.4105 176.2 49.6263 178.559C49.6263 178.559 48.0763 183.095 46.1359 186.834C46.1359 186.834 42.1912 195.897 35.6624 198.801C35.6624 198.801 30.4588 199.994 28.8804 204.506C28.8804 204.506 27.2027 207.672 23.8424 207.812C23.8424 207.812 21.3365 208.607 19.6776 214.189C19.6776 214.189 18.7737 217.8 18.821 220.569C18.821 220.569 23.0947 220.008 25.8799 221.016C25.8799 221.016 32.7281 223.316 35.7902 217.675C35.7902 217.675 41.7061 207.545 46.0933 209.069C46.0933 209.069 54.9056 212.017 61.1292 205.585C61.1292 205.585 69.6788 196.245 81.7544 198.167C81.7544 198.167 95.3562 200.921 99.5991 197.783C99.5991 197.783 108.177 193.299 111.395 192.187C111.395 192.187 115.333 191.03 115.74 186.718C115.74 186.718 118.135 180.653 119.876 178.632L113.388 178.559C113.388 178.559 107.512 188.441 97.5285 191.42C97.5285 191.42 92.0693 193.602 81.1107 191.83C81.1107 191.83 65.3768 188.266 51.5572 203.191C51.5572 203.191 49.6689 205.919 46.9736 204.828C46.9736 204.828 54.6098 191.806 71.3755 188.72C71.3755 188.72 76.8631 187.554 81.4396 188.297C81.4396 188.297 104.022 188.959 114.493 166.727C114.493 166.727 113.359 147.773 118.36 143.284C118.36 143.284 120.291 142.692 119.905 146.358C119.905 146.358 116.469 166.214 122.922 170.059C122.922 170.059 126.668 173.003 133.599 171.914C133.599 171.914 144.106 169.404 152.646 170.866C152.646 170.866 165.779 173.983 177.064 172.541C177.064 172.541 174.135 168.055 174.71 162.69C174.71 162.69 176.326 158.85 178.179 161.32C178.179 161.32 182.521 175.665 194.388 179.969C194.388 179.969 204.987 183.829 204.815 197.272C204.815 197.272 203.191 199.116 189.137 204.109C189.137 204.109 183.886 205.768 182.194 201.844C182.194 201.844 175.417 187.338 169.518 187.786L158.441 188.685C158.441 188.685 154.662 189.653 157.445 192.682C157.445 192.682 161.238 197.724 162.788 200.734C162.788 200.734 163.24 203.306 166.804 202.76C166.804 202.76 171.747 200.311 174.535 209.506C174.535 209.506 177.086 214.104 181.404 215.574C181.404 215.574 185.444 216.923 189.234 214.795C189.234 214.795 207.529 208.079 210.714 205.699C210.714 205.699 214.67 203.484 217.808 204.549C217.808 204.549 223.296 205.857 225.556 201.527L231.225 192.755C231.225 192.755 232.47 190.594 232.297 187.88C232.297 187.88 232.811 185.192 230.544 182.459C230.544 182.459 228.402 180.194 228.064 178.554L224.022 169.056C224.022 169.056 222.385 166.519 220.586 165.476L215.191 165.871C215.191 165.871 218.904 175.36 221.623 179.226C221.623 179.226 225.302 184.854 225.116 188.432C225.116 188.432 224.872 190.94 223.883 191.986C223.883 191.986 222.638 193.978 222.136 194.946C222.136 194.946 220.501 198.496 219.174 199.284C219.174 199.284 216.878 200.642 216.32 200.696C216.32 200.696 215.321 200.973 216.062 199.184C216.062 199.184 219.086 192.821 218.887 189.418C218.887 189.418 219.474 185.874 216.966 183.798C216.966 183.798 211.088 174.52 210.245 171.746C210.245 171.746 208.402 168.036 207.42 167.399C207.42 167.399 205.366 164.699 208.681 163.436C208.681 163.436 216.94 161.571 218.419 160.558C218.419 160.558 222.389 159.356 224.969 151.086C224.969 151.086 228.521 141.44 228.469 135.487C228.469 135.487 235.43 148.909 224.328 162.558C224.328 162.558 233.114 165.149 236.749 162.558C236.749 162.558 247.693 160.958 249.806 160.376C249.806 160.376 252.558 159.711 250.987 161.663C250.987 161.663 247.686 166.358 247.407 169.434C247.407 169.434 247.194 171.884 245.187 173.318C245.187 173.318 238.966 177.674 238.419 181.846C238.419 181.846 237.089 185.862 239.837 184.901C239.837 184.901 243.561 183.176 244.877 184.913C244.877 184.913 245.263 185.095 243.826 186.706C243.826 186.706 240.09 189.958 239.811 194.321C239.811 194.321 240.502 199.357 241.822 200.976C241.822 200.976 243.504 203.309 246.164 202.568C246.164 202.568 246.869 201.998 248.143 202.381C248.143 202.381 249.458 202.377 252.894 201.189C252.894 201.189 258.103 199.757 259.844 199.142C259.844 199.142 266.475 196.771 269.745 196.936C269.745 196.936 271.872 196.702 274.584 197.244C274.584 197.244 282.876 198.186 288.401 192.078C288.401 192.078 292.606 188.744 294.033 191.981C294.033 191.981 304.121 205.517 320.449 201.951C320.449 201.951 307.458 196.607 304.088 189.331C304.088 189.331 303.638 183.152 296.833 174.572C296.833 174.572 294.753 171.725 296.759 170.984C296.759 170.984 297.921 170.116 300.456 172.66C300.456 172.66 306.921 178.862 309.256 184.539C309.256 184.539 317.285 196.671 328.857 192.594C328.857 192.594 319.772 189.089 315.503 182.554C315.503 182.554 312.865 173.708 303.996 167.127C303.996 167.127 303.648 157.186 299.512 151.599C299.512 151.599 297.403 142.264 296.835 140.082C296.835 140.082 294.604 131.883 294.618 129.618C294.618 129.618 295.356 118.908 288.451 110.571C288.451 110.571 283.825 101.652 276.619 95.4384C276.619 95.4384 271.144 88.6729 267.071 84.5294C267.071 84.5294 261.714 78.2491 250.033 70.0544C250.033 70.0544 244.744 66.2091 240.871 62.075C240.871 62.075 220.267 47.2451 205.382 59.1408C205.382 59.1408 195.103 66.1334 186.518 68.2986C186.518 68.2986 168.874 70.3526 161.352 82.5985C161.352 82.5985 160.708 84.8607 153.597 85.7221C153.597 85.7221 137.977 83.8361 126.476 99.1985C126.476 99.1985 121.133 104.414 110.555 105.682C110.555 105.682 93.3046 103.917 82.0738 117.143C82.0738 117.143 53.7343 141.864 36.8361 125.832C36.8361 125.832 28.0806 117.543 38.0903 102.533C38.0903 102.533 44.4392 94.8704 55.2701 86.865C55.2701 86.865 64.0564 80.6746 60.0288 71.0506C60.0288 71.0506 57.9014 61.7509 44.7327 61.5048C44.7327 61.5048 28.2084 58.3125 21.5258 49.9688C21.5258 49.9688 14.0646 76.2472 43.3483 75.8094C43.3483 75.8094 50.9798 76.9382 48.3153 82.996C48.3153 82.996 44.5741 88.1784 39.5527 90.0644C39.5527 90.0644 30.7191 93.9286 26.727 106.792C26.727 106.792 17.8058 129.31 39.5716 138.002C47.9485 140.896 57.6246 140.044 66.2452 138.544ZM24.3394 191.607C25.5202 190.62 27.25 190.064 28.7858 190.424C32.2501 191.169 30.1535 194.17 30.1535 194.17C28.7503 196.794 24.1714 201.222 24.1714 201.222C20.0989 204.272 16.8735 200.64 16.8735 200.64C13.8564 197.665 17.7822 196.226 17.7822 196.226C20.0657 195.299 24.3394 191.607 24.3394 191.607ZM15.6075 205.682C15.6075 205.682 16.8735 206.617 16.1967 208.463C16.1967 208.463 12.9643 217.311 13.1157 220.28C13.1157 220.28 5.96221 221.558 4.97071 218.028C4.97071 218.028 4.77904 216.665 5.94565 214.689C5.94565 214.689 7.1596 212.845 7.47432 209.473C7.47432 209.473 7.36784 200.987 12.8649 203.236C13.9558 203.846 14.8171 204.733 15.6075 205.682ZM267.743 187.726C266.484 187.696 266.165 187.234 266.316 185.848C267.161 181.993 270.251 180.329 270.251 180.329C276.049 176.865 276.754 180.334 276.754 180.334C277.817 186.522 272.925 187.3 272.925 187.3C271.948 187.636 267.743 187.726 267.743 187.726ZM285.233 160.092C285.339 157.189 285.585 150.735 282.635 148.431C281.546 147.565 277.239 142.848 277.239 142.848C276.584 141.705 276.08 141.634 276.08 141.634C275.192 141.549 274.047 143.613 274.047 143.613C270.98 149.531 267.921 148.809 267.921 148.809C267.895 147.73 268.616 146.526 268.616 146.526C270.097 143.651 271.563 140.768 273.015 137.879C273.463 136.852 273.874 135.484 273.874 135.484C276.835 130.896 279.625 134.389 279.625 134.389C280.869 136.819 287.507 144.737 287.507 144.737C288.979 146.488 289.121 148.369 289.121 148.369C290.659 159.214 285.233 160.092 285.233 160.092ZM224.098 94.6243C223.192 92.9939 223.566 91.3304 224.477 89.7449C226.531 86.5976 228.45 90.0312 228.45 90.0312C235.542 99.9179 230.305 114.719 230.305 114.719C229.576 101.096 224.098 94.6243 224.098 94.6243ZM604.876 138.544C604.876 138.544 606.173 151.098 600.517 162.16C600.517 162.16 596.326 168.1 600.678 171.914L609.344 176.95C609.344 176.95 610.506 177.816 614.372 177.523C614.372 177.523 619.711 176.2 621.493 178.559C621.493 178.559 623.045 183.095 624.983 186.834C624.983 186.834 628.935 195.897 635.464 198.801C635.464 198.801 640.665 199.994 642.238 204.506C642.238 204.506 643.921 207.672 647.276 207.812C647.276 207.812 649.787 208.607 651.444 214.189C651.444 214.189 652.35 217.8 652.305 220.569C652.305 220.569 648.029 220.008 645.241 221.016C645.241 221.016 638.396 223.316 635.333 217.675C635.333 217.675 629.418 207.545 625.03 209.069C625.03 209.069 616.22 212.017 609.994 205.585C609.994 205.585 601.447 196.245 589.369 198.167C589.369 198.167 575.772 200.921 571.527 197.783C571.527 197.783 562.949 193.299 559.731 192.187C559.731 192.187 555.791 191.03 555.388 186.718C555.388 186.718 552.991 180.653 551.25 178.632L557.736 178.559C557.736 178.559 563.609 188.441 573.593 191.42C573.593 191.42 579.057 193.602 590.011 191.83C590.011 191.83 605.747 188.266 619.566 203.191C619.566 203.191 621.457 205.919 624.148 204.828C624.148 204.828 616.516 191.806 599.748 188.72C599.748 188.72 594.263 187.554 589.682 188.297C589.682 188.297 567.099 188.959 556.624 166.727C556.624 166.727 557.762 147.773 552.762 143.284C552.762 143.284 550.835 142.692 551.214 146.358C551.214 146.358 554.648 166.214 548.199 170.059C548.199 170.059 544.451 173.003 537.52 171.914C537.52 171.914 527.016 169.404 518.478 170.866C518.478 170.866 505.34 173.983 494.055 172.541C494.055 172.541 496.987 168.055 496.412 162.69C496.412 162.69 494.793 158.85 492.94 161.32C492.94 161.32 488.598 175.665 476.728 179.969C476.728 179.969 466.129 183.829 466.302 197.272C466.302 197.272 467.93 199.116 481.986 204.109C481.986 204.109 487.24 205.768 488.932 201.844C488.932 201.844 495.702 187.338 501.603 187.786L512.685 188.685C512.685 188.685 516.462 189.653 513.677 192.682C513.677 192.682 509.888 197.724 508.333 200.734C508.333 200.734 507.886 203.306 504.32 202.76C504.32 202.76 499.377 200.311 496.584 209.506C496.584 209.506 494.038 214.104 489.719 215.574C489.719 215.574 485.678 216.923 481.889 214.795C481.889 214.795 463.595 208.079 460.412 205.699C460.412 205.699 456.453 203.484 453.318 204.549C453.318 204.549 447.835 205.857 445.575 201.527L439.905 192.755C439.905 192.755 438.656 190.594 438.831 187.88C438.831 187.88 438.315 185.192 440.584 182.459C440.584 182.459 442.728 180.194 443.064 178.554L447.108 169.056C447.108 169.056 448.746 166.519 450.542 165.476L455.942 165.871C455.942 165.871 452.225 175.36 449.503 179.226C449.503 179.226 445.824 184.854 446.01 188.432C446.01 188.432 446.257 190.94 447.243 191.986C447.243 191.986 448.488 193.978 448.992 194.946C448.992 194.946 450.62 198.496 451.952 199.284C451.952 199.284 454.245 200.642 454.806 200.696C454.806 200.696 455.807 200.973 455.057 199.184C455.057 199.184 452.042 192.821 452.234 189.418C452.234 189.418 451.652 185.874 454.155 183.798C454.155 183.798 460.038 174.52 460.885 171.746C460.885 171.746 462.722 168.036 463.706 167.399C463.706 167.399 465.76 164.699 462.445 163.436C462.445 163.436 454.189 161.571 452.71 160.558C452.71 160.558 448.739 159.356 446.157 151.086C446.157 151.086 442.608 141.44 442.657 135.487C442.657 135.487 435.696 148.909 446.801 162.558C446.801 162.558 438.015 165.149 434.38 162.558C434.38 162.558 423.438 160.958 421.318 160.376C421.318 160.376 418.573 159.711 420.139 161.663C420.139 161.663 423.438 166.358 423.722 169.434C423.722 169.434 423.93 171.884 425.941 173.318C425.941 173.318 432.163 177.674 432.704 181.846C432.704 181.846 434.037 185.862 431.287 184.901C431.287 184.901 427.565 183.176 426.249 184.913C426.249 184.913 425.863 185.095 427.3 186.706C427.3 186.706 431.036 189.958 431.313 194.321C431.313 194.321 430.622 199.357 429.299 200.976C429.299 200.976 427.619 203.309 424.959 202.568C424.959 202.568 424.257 201.998 422.976 202.381C422.976 202.381 421.663 202.377 418.227 201.189C418.227 201.189 413.019 199.757 411.277 199.142C411.277 199.142 404.646 196.771 401.374 196.936C401.374 196.936 399.246 196.702 396.535 197.244C396.535 197.244 388.241 198.186 382.715 192.078C382.715 192.078 378.51 188.744 377.088 191.981C377.088 191.981 366.998 205.517 350.667 201.951C350.667 201.951 363.666 196.607 367.033 189.331C367.033 189.331 367.478 183.152 374.284 174.572C374.284 174.572 376.361 171.725 374.355 170.984C374.355 170.984 373.195 170.116 370.658 172.66C370.658 172.66 364.201 178.862 361.863 184.539C361.863 184.539 353.829 196.671 342.262 192.594C342.262 192.594 351.342 189.089 355.611 182.554C355.611 182.554 358.249 173.708 367.126 167.127C367.126 167.127 367.471 157.186 371.61 151.599C371.61 151.599 373.721 142.264 374.284 140.082C374.284 140.082 376.513 131.883 376.499 129.618C376.499 129.618 375.76 118.908 382.668 110.571C382.668 110.571 387.292 101.652 394.504 95.4384C394.504 95.4384 399.978 88.6729 404.048 84.5294C404.048 84.5294 409.408 78.2491 421.088 70.0544C421.088 70.0544 426.374 66.2091 430.246 62.075C430.246 62.075 450.847 47.2451 465.736 59.1408C465.736 59.1408 476.016 66.1334 484.606 68.2986C484.606 68.2986 502.245 70.3526 509.763 82.5985C509.763 82.5985 510.406 84.8607 517.517 85.7221C517.517 85.7221 533.137 83.8361 544.64 99.1985C544.64 99.1985 549.984 104.414 560.564 105.682C560.564 105.682 577.805 103.917 589.036 117.143C589.036 117.143 617.377 141.864 634.278 125.832C634.278 125.832 643.029 117.543 633.021 102.533C633.021 102.533 626.675 94.8704 615.846 86.865C615.846 86.865 607.053 80.6746 611.085 71.0506C611.085 71.0506 613.213 61.7509 626.381 61.5048C626.381 61.5048 642.906 58.3125 649.586 49.9688C649.586 49.9688 657.052 76.2472 627.763 75.8094C627.763 75.8094 620.13 76.9382 622.796 82.996C622.796 82.996 626.538 88.1784 631.559 90.0644C631.559 90.0644 640.393 93.9286 644.387 106.792C644.387 106.792 653.311 129.31 631.535 138.002C623.17 140.896 613.497 140.044 604.876 138.544ZM646.784 191.607C645.601 190.62 643.871 190.064 642.34 190.424C638.871 191.169 640.97 194.17 640.97 194.17C642.376 196.794 646.955 201.222 646.955 201.222C651.032 204.272 654.252 200.64 654.252 200.64C657.265 197.665 653.337 196.226 653.337 196.226C651.058 195.299 646.784 191.607 646.784 191.607ZM655.511 205.682C655.511 205.682 654.252 206.617 654.922 208.463C654.922 208.463 658.155 217.311 658.006 220.28C658.006 220.28 665.164 221.558 666.148 218.028C666.148 218.028 666.34 216.665 665.176 214.689C665.176 214.689 663.962 212.845 663.647 209.473C663.647 209.473 663.756 200.987 658.259 203.236C657.165 203.846 656.304 204.733 655.511 205.682ZM403.376 187.726C404.637 187.696 404.961 187.234 404.805 185.848C403.958 181.993 400.872 180.329 400.872 180.329C395.075 176.865 394.367 180.334 394.367 180.334C393.309 186.522 398.198 187.3 398.198 187.3C399.175 187.636 403.376 187.726 403.376 187.726ZM385.891 160.092C385.782 157.189 385.533 150.735 388.489 148.431C389.582 147.565 393.884 142.848 393.884 142.848C394.54 141.705 395.044 141.634 395.044 141.634C395.926 141.549 397.079 143.613 397.079 143.613C400.141 149.531 403.205 148.809 403.205 148.809C403.229 147.73 402.503 146.526 402.503 146.526C401.023 143.651 399.557 140.768 398.106 137.879C397.782 137.095 397.495 136.296 397.247 135.484C394.287 130.896 391.499 134.389 391.499 134.389C390.254 136.819 383.619 144.737 383.619 144.737C382.741 145.767 382.178 147.028 381.998 148.369C380.467 159.214 385.891 160.092 385.891 160.092ZM447.023 94.6243C447.93 92.9939 447.556 91.3304 446.645 89.7449C444.591 86.5976 442.676 90.0312 442.676 90.0312C435.582 99.9179 440.819 114.719 440.819 114.719C441.543 101.096 447.023 94.6243 447.023 94.6243Z" fill="#CC2729"/>
<path d="M748 36.2272V217.587H784.596V70.84H801.837C801.837 70.84 828.752 69.6284 828.752 94.1297C828.752 118.631 804.857 118.02 804.857 118.02H796.084V159.765L832.687 217.592H875.63L824.519 143.438C824.519 143.438 866.559 139.808 866.559 94.1344C866.559 48.4684 834.8 36.2343 792.462 36.2343L748 36.2272ZM1283.05 121.056C1283.05 121.056 1299.07 108.591 1299.07 84.9672C1299.07 61.332 1281.91 40.0252 1245.36 40.0252H1184.14V217.59H1259.54C1259.54 217.59 1313.58 216.977 1313.58 168.142C1313.58 139.793 1302.58 128.936 1283.05 121.056ZM1253.56 186.685H1220.74V70.9867H1238.28C1238.28 70.9867 1262.12 69.1977 1262.12 89.9909C1262.12 110.784 1243.16 108.95 1243.16 108.95H1232.24V140.12H1253.55C1259.14 140.12 1276.94 142.829 1276.94 163.313C1276.93 183.791 1253.56 186.685 1253.56 186.685ZM1513.82 32.6611H1548V217.59H1513.82V32.6611ZM1455 32.6611H1489.63V217.59H1455V32.6611ZM1323.88 109.258H1358.96V171.256C1358.96 171.256 1360.18 192.135 1379.83 192.135C1399.49 192.135 1399.2 171.256 1399.2 171.256V109.551H1434.58V173.381C1434.58 173.381 1439.12 223.286 1380.74 223.286C1322.37 223.286 1323.88 179.43 1323.88 171.566V109.258ZM1091.29 32.6611V116.52C1091.29 116.52 1074.36 103.517 1054.99 103.517C1035.64 103.517 1002.97 117.126 1002.97 160.071C1002.97 203.018 1030.8 219.36 1054.69 219.36C1078.59 219.36 1091.9 203.628 1091.9 203.628V217.595H1126.37V32.6635L1091.29 32.6611ZM1064.67 189.101C1062.86 189.101 1040.17 189.406 1040.17 161.583C1040.17 133.752 1064.97 132.846 1064.97 132.846C1064.97 132.846 1092.8 133.752 1092.8 160.975C1092.8 188.197 1066.49 189.101 1064.67 189.101ZM934.01 103.512C992.686 103.512 990.266 160.679 990.266 160.679V169.747H910.723C910.723 182.747 921.608 193.943 936.431 193.943C951.249 193.943 958.812 179.728 958.812 179.728L986.936 193.638C973.933 213.304 956.391 221.161 936.734 221.161C875.634 221.161 874.425 170.353 874.425 164.004C874.425 157.648 875.339 103.512 934.01 103.512ZM911.324 148.873H954.884C954.884 148.873 953.069 128.314 933.409 128.314C913.749 128.312 911.324 148.873 911.324 148.873Z" fill="#CC2729"/>
</svg>
