<svg width="3870" height="502" viewBox="0 0 3870 502" fill="none" xmlns="http://www.w3.org/2000/svg">
<path opacity="0.986" fill-rule="evenodd" clip-rule="evenodd" d="M752.5 1.49956C811.56 -2.12444 866.89 10.3756 918.5 38.9996C994.98 89.2756 1032.98 160.609 1032.5 253C1032.36 334.56 1000.69 400.56 937.5 451C899.28 478.41 856.61 494.41 809.5 499C748.5 505.86 690.84 495.19 636.5 467C567.32 425.9 527.82 365.06 518 284.5C509.43 213.426 526.43 149.426 569 92.4996C608.2 45.8016 658.03 16.9686 718.5 5.99956C729.96 4.31856 741.29 2.81856 752.5 1.49956ZM765.5 26.4996C812.19 25.7566 847.35 45.4226 871 85.4996C890.41 122.411 901.74 161.744 905 203.5C910.04 251.542 907.7 299.208 898 346.5C890.85 379.32 877.19 408.99 857 435.5C826.35 470.05 788.52 481.88 743.5 471C729.14 466.66 716.48 459.49 705.5 449.5C681.52 424.57 665.02 395.23 656 361.5C640.5 301.529 637.17 240.862 646 179.5C650.98 142.218 663.65 107.885 684 76.4996C704.22 48.4276 731.39 31.7616 765.5 26.4996Z" fill="#FEFFFE"/>
<path opacity="0.988" fill-rule="evenodd" clip-rule="evenodd" d="M0.500176 11.5C92.1852 11.028 183.851 11.528 275.5 13C314.821 15.543 349.82 28.876 380.5 53C407.72 77.458 421.05 108.124 420.5 145C417.63 196.54 392.63 232.873 345.5 254C336.05 257.929 326.38 261.262 316.5 264C352.37 323.59 388.87 382.75 426 441.5C434.55 454.38 445.38 464.88 458.5 473C463.89 475.56 469.56 477.06 475.5 477.5C475.5 481.83 475.5 486.17 475.5 490.5C427.83 490.83 380.16 490.5 332.5 489.5C288.5 417.5 244.5 345.5 200.5 273.5C193.532 272.503 186.532 272.17 179.5 272.5C179.333 325.5 179.5 378.5 180 431.5C180.845 460.35 195.678 475.18 224.5 476C232.844 476.43 241.177 476.93 249.5 477.5C249.5 481.83 249.5 486.17 249.5 490.5C166.5 490.5 83.5002 490.5 0.500176 490.5C0.500176 486.17 0.500176 481.83 0.500176 477.5C16.6072 477.53 32.2742 475.03 47.5002 470C54.9172 465.25 60.0832 458.75 63.0002 450.5C65.5262 441.68 66.8592 432.68 67.0002 423.5C67.6672 307.5 67.6672 191.5 67.0002 75.5C68.0772 47.588 54.9102 31.422 27.5002 27C18.8702 25.914 10.2032 25.247 1.50018 25C0.533176 20.599 0.200176 16.099 0.500176 11.5ZM179.5 38.5C274.126 30.707 315.959 74.04 305 168.5C301.227 208.24 280.06 233.074 241.5 243C233.611 244.849 225.611 245.849 217.5 246C204.838 246.5 192.171 246.667 179.5 246.5C179.5 177.167 179.5 107.833 179.5 38.5Z" fill="#FEFFFE"/>
<path opacity="0.98" fill-rule="evenodd" clip-rule="evenodd" d="M1070.5 11.5C1149.83 11.5 1229.17 11.5 1308.5 11.5C1308.83 15.884 1308.49 20.217 1307.5 24.5C1295.49 24.724 1283.82 26.891 1272.5 31C1259.85 37.669 1252.68 48.169 1251 62.5C1249.35 166.81 1249.02 271.144 1250 375.5C1256.17 426.34 1284.34 456.5 1334.5 466C1369.68 471.89 1403.35 467.23 1435.5 452C1468.91 430.87 1489.41 400.7 1497 361.5C1498.33 354.55 1499.33 347.55 1500 340.5C1500.98 248.807 1500.65 157.141 1499 65.5C1496.16 48.006 1486.66 35.839 1470.5 29C1460.97 26.464 1451.31 24.964 1441.5 24.5C1440.51 20.217 1440.17 15.884 1440.5 11.5C1489.83 11.5 1539.17 11.5 1588.5 11.5C1588.8 16.099 1588.47 20.599 1587.5 25C1572.37 24.754 1558.37 28.421 1545.5 36C1535.93 44.31 1530.43 54.81 1529 67.5C1527.69 156.479 1527.02 245.479 1527 334.5C1522.75 424.41 1476.59 478.24 1388.5 496C1342.05 503.55 1296.05 501.55 1250.5 490C1215.96 480 1187.46 461.17 1165 433.5C1149.28 411.01 1140.28 386.01 1138 358.5C1137.67 262.167 1137.33 165.833 1137 69.5C1136.99 52.279 1129.49 39.779 1114.5 32C1100.56 27.299 1086.23 24.966 1071.5 25C1070.53 20.599 1070.2 16.099 1070.5 11.5Z" fill="#FEFFFE"/>
<path opacity="0.981" fill-rule="evenodd" clip-rule="evenodd" d="M1607.5 11.5001C1660.83 11.3331 1714.17 11.5001 1767.5 12.0001C1858.33 114.833 1949.17 217.667 2040 320.5C2040.67 240.167 2040.67 159.833 2040 79.5001C2039.48 51.9911 2025.98 34.8241 1999.5 28.0001C1989.59 26.1161 1979.59 25.1161 1969.5 25.0001C1968.53 20.5991 1968.2 16.0991 1968.5 11.5001C2020.83 11.5001 2073.17 11.5001 2125.5 11.5001C2125.8 16.0991 2125.47 20.5991 2124.5 25.0001C2090.16 24.6751 2070.66 41.5091 2066 75.5001C2065.5 216.166 2065.33 356.83 2065.5 497.5C2057.96 499.15 2051.79 497.15 2047 491.5C1931.43 361.35 1816.1 231.021 1701 100.5C1700.02 212.52 1700.35 324.52 1702 436.5C1705.8 457.63 1718.3 470.13 1739.5 474C1751.72 476.32 1764.05 477.49 1776.5 477.5C1776.5 481.83 1776.5 486.17 1776.5 490.5C1720.17 490.5 1663.83 490.5 1607.5 490.5C1607.5 486.17 1607.5 481.83 1607.5 477.5C1622.47 477.81 1636.81 474.97 1650.5 469C1665.62 460.28 1673.79 447.12 1675 429.5C1675.67 310.17 1675.67 190.833 1675 71.5001C1664.5 58.3331 1652.67 46.5001 1639.5 36.0001C1630.17 29.5561 1619.84 25.8891 1608.5 25.0001C1607.53 20.5991 1607.2 16.0991 1607.5 11.5001Z" fill="#FEFFFE"/>
<path opacity="0.988" fill-rule="evenodd" clip-rule="evenodd" d="M2146.5 11.5001C2239.85 11.0351 2333.18 11.5351 2426.5 13.0001C2482.06 17.6141 2531.06 37.6141 2573.5 73.0001C2624.59 122.216 2649.25 182.549 2647.5 254C2649.3 324.67 2624.96 384.34 2574.5 433C2531.67 468.29 2482.33 487.29 2426.5 490C2333.17 490.5 2239.83 490.67 2146.5 490.5C2146.5 486.17 2146.5 481.83 2146.5 477.5C2161.92 477.91 2176.92 475.75 2191.5 471C2199.76 465.99 2205.26 458.82 2208 449.5C2209.64 443.61 2210.64 437.61 2211 431.5C2211.67 311.5 2211.67 191.5 2211 71.5001C2210.51 59.3751 2206.85 48.3751 2200 38.5001C2191.14 30.4301 2180.64 26.2641 2168.5 26.0001C2161.5 25.6671 2154.5 25.3331 2147.5 25.0001C2146.53 20.5991 2146.2 16.0991 2146.5 11.5001ZM2323.5 36.5001C2433.13 24.2051 2497.63 72.2051 2517 180.5C2524.62 232.892 2524.29 285.225 2516 337.5C2510.88 367.54 2499.55 394.88 2482 419.5C2462.47 442.86 2437.64 457.36 2407.5 463C2387.15 466.25 2366.82 466.25 2346.5 463C2333.12 459.28 2325.95 450.44 2325 436.5C2323.52 303.18 2323.02 169.849 2323.5 36.5001Z" fill="#FEFFFE"/>
<path opacity="0.988" fill-rule="evenodd" clip-rule="evenodd" d="M2831 1.03452C2909.33 0.942688 2987.66 1.03452 3065.99 1.30462C3066.52 5.66947 3066.7 10.0829 3066.53 14.5396C3054.13 14.5828 3041.88 15.9334 3029.8 18.5912C3024.01 20.417 3020.5 24.2849 3019.26 30.2055C3018.29 38.6543 3019.55 46.7574 3023.04 54.5147C3025.65 60.0896 3028.53 65.4917 3031.69 70.7209C3055.09 107.455 3078.51 144.189 3101.91 180.922C3123.42 152.302 3144.67 123.493 3165.66 94.4898C3170.43 86.7433 3174.93 78.8185 3179.16 70.7209C3190.87 38.5949 3179.8 20.1415 3145.94 15.3499C3141.27 14.8475 3136.59 14.5774 3131.89 14.5396C3131.89 10.0397 3131.89 5.53442 3131.89 1.03452C3189.33 1.03452 3246.78 1.03452 3304.22 1.03452C3304.22 5.53442 3304.22 10.0397 3304.22 14.5396C3286.66 15.096 3270.63 20.228 3256.14 29.9354C3244.15 39.5889 3233.43 50.4848 3224 62.6178C3188.3 109.929 3152.92 157.467 3117.85 205.232C3124.22 215.479 3130.71 225.651 3137.3 235.753C3093.18 236.115 3049.06 236.115 3004.95 235.753C2971.54 183.262 2938.14 130.775 2904.74 78.2837C2897.57 67.0151 2890.01 56.0327 2882.05 45.3313C2875.28 36.218 2867.26 28.3851 2858.01 21.8324C2849.65 17.0408 2840.64 14.6099 2831 14.5396C2831 10.0397 2831 5.53442 2831 1.03452Z" fill="#FEFFFE"/>
<path opacity="0.991" fill-rule="evenodd" clip-rule="evenodd" d="M3343.65 1.03516C3427.38 1.03516 3511.12 1.03516 3594.85 1.03516C3594.85 5.53506 3594.85 10.0404 3594.85 14.5403C3585.82 14.8212 3576.82 15.4532 3567.84 16.431C3561.78 17.1386 3555.83 18.3973 3550.01 20.2124C3539.09 25.1931 3532.34 33.5662 3529.75 45.3319C3528.32 51.3768 3527.43 57.4973 3527.05 63.6988C3526.78 121.139 3526.69 178.584 3526.78 236.024C3488.61 236.024 3450.44 236.024 3412.26 236.024C3412.35 181.825 3412.26 127.621 3411.99 73.4225C3412.2 61.5704 3410.4 50.0479 3406.59 38.8494C3400.44 24.9824 3389.73 17.6896 3374.44 16.9712C3364.22 15.5991 3353.96 14.7888 3343.65 14.5403C3343.65 10.0404 3343.65 5.53506 3343.65 1.03516Z" fill="#FEFFFE"/>
<path opacity="0.991" fill-rule="evenodd" clip-rule="evenodd" d="M3618.08 1.03516C3701.81 1.03516 3785.54 1.03516 3869.27 1.03516C3869.27 5.53506 3869.27 10.0404 3869.27 14.5403C3856 14.6969 3842.86 16.0474 3829.84 18.5918C3816.04 22.1247 3807.49 30.8598 3804.18 44.7917C3802 54.2074 3800.92 63.7475 3800.94 73.4225C3800.67 127.621 3800.58 181.825 3800.67 236.024C3762.49 236.024 3724.32 236.024 3686.14 236.024C3686.24 178.584 3686.14 121.139 3685.87 63.6988C3685.73 51.0202 3682.12 39.4977 3675.07 29.1258C3669.69 22.9728 3662.94 19.2778 3654.81 18.0516C3642.66 15.9286 3630.42 14.7563 3618.08 14.5403C3618.08 10.0404 3618.08 5.53506 3618.08 1.03516Z" fill="#FEFFFE"/>
<path opacity="0.988" fill-rule="evenodd" clip-rule="evenodd" d="M3020.61 287.343C3070.31 287.251 3120.01 287.343 3169.71 287.613C3194 325.833 3218.21 364.095 3242.37 402.407C3253.06 420.006 3264.94 436.753 3278.02 452.646C3285.62 460.619 3294.18 467.372 3303.68 472.903C3308.78 475.323 3314.09 477.03 3319.61 478.035C3319.88 482.351 3319.98 486.673 3319.88 491C3243.72 491 3167.55 491 3091.38 491C3091.38 486.678 3091.38 482.357 3091.38 478.035C3099.33 477.787 3107.25 477.16 3115.15 476.144C3131.66 474.232 3138.41 465.135 3135.41 448.864C3133.48 442.852 3130.96 437.088 3127.84 431.578C3101.06 387.189 3073.87 343.071 3046.27 299.228C3018.52 335.81 2990.97 372.544 2963.62 409.429C2959.78 415.474 2956.37 421.773 2953.36 428.336C2950.72 434.37 2949.19 440.675 2948.76 447.244C2948.98 456.357 2952.94 463.293 2960.65 468.041C2966.7 471.558 2973.19 473.903 2980.1 475.064C2990.3 476.679 3000.56 477.668 3010.89 478.035C3010.89 482.357 3010.89 486.678 3010.89 491C2950.93 491 2890.96 491 2831 491C2831 486.678 2831 482.357 2831 478.035C2851.88 477.23 2870.25 470.116 2886.1 456.697C2893.38 449.961 2900.49 443.03 2907.44 435.899C2918.11 423.788 2928.37 411.363 2938.23 398.625C2965.83 361.61 2993.29 324.52 3020.61 287.343Z" fill="#FEFFFE"/>
<path opacity="0.991" fill-rule="evenodd" clip-rule="evenodd" d="M3412.26 287.343C3450.44 287.343 3488.61 287.343 3526.78 287.343C3526.69 334.702 3526.78 382.057 3527.05 429.416C3527.42 437.952 3529.04 446.233 3531.91 454.266C3538.53 468.073 3549.6 475.188 3565.14 475.604C3575.03 476.592 3584.94 477.403 3594.85 478.035C3594.85 482.356 3594.85 486.678 3594.85 491C3511.12 491 3427.38 491 3343.65 491C3343.65 486.678 3343.65 482.356 3343.65 478.035C3353.58 477.722 3363.48 477.095 3373.36 476.144C3395.23 474.086 3407.57 462.11 3410.37 440.221C3411.34 433.414 3411.88 426.57 3411.99 419.693C3412.26 375.574 3412.35 331.461 3412.26 287.343Z" fill="#FEFFFE"/>
<path opacity="0.991" fill-rule="evenodd" clip-rule="evenodd" d="M3686.14 287.343C3724.32 287.343 3762.49 287.343 3800.67 287.343C3800.58 331.278 3800.67 375.218 3800.94 419.153C3800.75 430.767 3802.37 442.111 3805.8 453.185C3809.28 462.245 3815.49 468.635 3824.44 472.363C3829.38 473.859 3834.43 474.939 3839.56 475.604C3849.45 476.614 3859.35 477.424 3869.27 478.035C3869.27 482.356 3869.27 486.678 3869.27 491C3785.54 491 3701.81 491 3618.08 491C3618.08 486.678 3618.08 482.356 3618.08 478.035C3629.28 477.759 3640.44 476.949 3651.57 475.604C3670.59 472.611 3681.49 461.537 3684.25 442.381C3685.05 438.092 3685.59 433.77 3685.87 429.416C3686.14 382.057 3686.24 334.702 3686.14 287.343Z" fill="#FEFFFE"/>
</svg>
