<?xml version="1.0" encoding="UTF-8"?>
<!DOCTYPE svg PUBLIC "-//W3C//DTD SVG 1.1//EN" "http://www.w3.org/Graphics/SVG/1.1/DTD/svg11.dtd">
<svg xmlns="http://www.w3.org/2000/svg" version="1.1" width="4000px" height="3000px" style="shape-rendering:geometricPrecision; text-rendering:geometricPrecision; image-rendering:optimizeQuality; fill-rule:evenodd; clip-rule:evenodd" xmlns:xlink="http://www.w3.org/1999/xlink">
<g><path style="opacity:0.986" fill="#fefffe" d="M 1422.5,698.5 C 1481.56,694.876 1536.89,707.376 1588.5,736C 1664.98,786.276 1702.98,857.609 1702.5,950C 1702.36,1031.56 1670.69,1097.56 1607.5,1148C 1569.28,1175.41 1526.61,1191.41 1479.5,1196C 1418.5,1202.86 1360.84,1192.19 1306.5,1164C 1237.32,1122.9 1197.82,1062.06 1188,981.5C 1179.43,910.426 1196.43,846.426 1239,789.5C 1278.2,742.802 1328.03,713.969 1388.5,703C 1399.96,701.319 1411.29,699.819 1422.5,698.5 Z M 1435.5,723.5 C 1482.19,722.757 1517.35,742.423 1541,782.5C 1560.41,819.411 1571.74,858.744 1575,900.5C 1580.04,948.542 1577.7,996.208 1568,1043.5C 1560.85,1076.32 1547.19,1105.99 1527,1132.5C 1496.35,1167.05 1458.52,1178.88 1413.5,1168C 1399.14,1163.66 1386.48,1156.49 1375.5,1146.5C 1351.52,1121.57 1335.02,1092.23 1326,1058.5C 1310.5,998.529 1307.17,937.862 1316,876.5C 1320.98,839.218 1333.65,804.885 1354,773.5C 1374.22,745.428 1401.39,728.762 1435.5,723.5 Z"/></g>
<g><path style="opacity:0.988" fill="#fefffe" d="M 670.5,708.5 C 762.185,708.028 853.851,708.528 945.5,710C 984.821,712.543 1019.82,725.876 1050.5,750C 1077.72,774.458 1091.05,805.124 1090.5,842C 1087.63,893.54 1062.63,929.873 1015.5,951C 1006.05,954.929 996.38,958.262 986.5,961C 1022.37,1020.59 1058.87,1079.75 1096,1138.5C 1104.55,1151.38 1115.38,1161.88 1128.5,1170C 1133.89,1172.56 1139.56,1174.06 1145.5,1174.5C 1145.5,1178.83 1145.5,1183.17 1145.5,1187.5C 1097.83,1187.83 1050.16,1187.5 1002.5,1186.5C 958.5,1114.5 914.5,1042.5 870.5,970.5C 863.532,969.503 856.532,969.17 849.5,969.5C 849.333,1022.5 849.5,1075.5 850,1128.5C 850.845,1157.35 865.678,1172.18 894.5,1173C 902.844,1173.43 911.177,1173.93 919.5,1174.5C 919.5,1178.83 919.5,1183.17 919.5,1187.5C 836.5,1187.5 753.5,1187.5 670.5,1187.5C 670.5,1183.17 670.5,1178.83 670.5,1174.5C 686.607,1174.53 702.274,1172.03 717.5,1167C 724.917,1162.25 730.083,1155.75 733,1147.5C 735.526,1138.68 736.859,1129.68 737,1120.5C 737.667,1004.5 737.667,888.5 737,772.5C 738.077,744.588 724.91,728.422 697.5,724C 688.87,722.914 680.203,722.247 671.5,722C 670.533,717.599 670.2,713.099 670.5,708.5 Z M 849.5,735.5 C 944.126,727.707 985.959,771.04 975,865.5C 971.227,905.24 950.06,930.074 911.5,940C 903.611,941.849 895.611,942.849 887.5,943C 874.838,943.5 862.171,943.667 849.5,943.5C 849.5,874.167 849.5,804.833 849.5,735.5 Z"/></g>
<g><path style="opacity:0.98" fill="#fefffe" d="M 1740.5,708.5 C 1819.83,708.5 1899.17,708.5 1978.5,708.5C 1978.83,712.884 1978.49,717.217 1977.5,721.5C 1965.49,721.724 1953.82,723.891 1942.5,728C 1929.85,734.669 1922.68,745.169 1921,759.5C 1919.35,863.81 1919.02,968.144 1920,1072.5C 1926.17,1123.34 1954.34,1153.5 2004.5,1163C 2039.68,1168.89 2073.35,1164.23 2105.5,1149C 2138.91,1127.87 2159.41,1097.7 2167,1058.5C 2168.33,1051.55 2169.33,1044.55 2170,1037.5C 2170.98,945.807 2170.65,854.141 2169,762.5C 2166.16,745.006 2156.66,732.839 2140.5,726C 2130.97,723.464 2121.31,721.964 2111.5,721.5C 2110.51,717.217 2110.17,712.884 2110.5,708.5C 2159.83,708.5 2209.17,708.5 2258.5,708.5C 2258.8,713.099 2258.47,717.599 2257.5,722C 2242.37,721.754 2228.37,725.421 2215.5,733C 2205.93,741.31 2200.43,751.81 2199,764.5C 2197.69,853.479 2197.02,942.479 2197,1031.5C 2192.75,1121.41 2146.59,1175.24 2058.5,1193C 2012.05,1200.55 1966.05,1198.55 1920.5,1187C 1885.96,1177 1857.46,1158.17 1835,1130.5C 1819.28,1108.01 1810.28,1083.01 1808,1055.5C 1807.67,959.167 1807.33,862.833 1807,766.5C 1806.99,749.279 1799.49,736.779 1784.5,729C 1770.56,724.299 1756.23,721.966 1741.5,722C 1740.53,717.599 1740.2,713.099 1740.5,708.5 Z"/></g>
<g><path style="opacity:0.981" fill="#fefffe" d="M 2277.5,708.5 C 2330.83,708.333 2384.17,708.5 2437.5,709C 2528.33,811.833 2619.17,914.667 2710,1017.5C 2710.67,937.167 2710.67,856.833 2710,776.5C 2709.48,748.991 2695.98,731.824 2669.5,725C 2659.59,723.116 2649.59,722.116 2639.5,722C 2638.53,717.599 2638.2,713.099 2638.5,708.5C 2690.83,708.5 2743.17,708.5 2795.5,708.5C 2795.8,713.099 2795.47,717.599 2794.5,722C 2760.16,721.675 2740.66,738.509 2736,772.5C 2735.5,913.166 2735.33,1053.83 2735.5,1194.5C 2727.96,1196.15 2721.79,1194.15 2717,1188.5C 2601.43,1058.35 2486.1,928.021 2371,797.5C 2370.02,909.52 2370.35,1021.52 2372,1133.5C 2375.8,1154.63 2388.3,1167.13 2409.5,1171C 2421.72,1173.32 2434.05,1174.49 2446.5,1174.5C 2446.5,1178.83 2446.5,1183.17 2446.5,1187.5C 2390.17,1187.5 2333.83,1187.5 2277.5,1187.5C 2277.5,1183.17 2277.5,1178.83 2277.5,1174.5C 2292.47,1174.81 2306.81,1171.97 2320.5,1166C 2335.62,1157.28 2343.79,1144.12 2345,1126.5C 2345.67,1007.17 2345.67,887.833 2345,768.5C 2334.5,755.333 2322.67,743.5 2309.5,733C 2300.17,726.556 2289.84,722.889 2278.5,722C 2277.53,717.599 2277.2,713.099 2277.5,708.5 Z"/></g>
<g><path style="opacity:0.988" fill="#fefffe" d="M 2816.5,708.5 C 2909.85,708.035 3003.18,708.535 3096.5,710C 3152.06,714.614 3201.06,734.614 3243.5,770C 3294.59,819.216 3319.25,879.549 3317.5,951C 3319.3,1021.67 3294.96,1081.34 3244.5,1130C 3201.67,1165.29 3152.33,1184.29 3096.5,1187C 3003.17,1187.5 2909.83,1187.67 2816.5,1187.5C 2816.5,1183.17 2816.5,1178.83 2816.5,1174.5C 2831.92,1174.91 2846.92,1172.75 2861.5,1168C 2869.76,1162.99 2875.26,1155.82 2878,1146.5C 2879.64,1140.61 2880.64,1134.61 2881,1128.5C 2881.67,1008.5 2881.67,888.5 2881,768.5C 2880.51,756.375 2876.85,745.375 2870,735.5C 2861.14,727.43 2850.64,723.264 2838.5,723C 2831.5,722.667 2824.5,722.333 2817.5,722C 2816.53,717.599 2816.2,713.099 2816.5,708.5 Z M 2993.5,733.5 C 3103.13,721.205 3167.63,769.205 3187,877.5C 3194.62,929.892 3194.29,982.225 3186,1034.5C 3180.88,1064.54 3169.55,1091.88 3152,1116.5C 3132.47,1139.86 3107.64,1154.36 3077.5,1160C 3057.15,1163.25 3036.82,1163.25 3016.5,1160C 3003.12,1156.28 2995.95,1147.44 2995,1133.5C 2993.52,1000.18 2993.02,866.849 2993.5,733.5 Z"/></g>
<g><path style="opacity:0.988" fill="#fefffe" d="M 1038.5,1508.5 C 1183.5,1508.33 1328.5,1508.5 1473.5,1509C 1474.48,1517.08 1474.82,1525.25 1474.5,1533.5C 1451.55,1533.58 1428.88,1536.08 1406.5,1541C 1395.79,1544.38 1389.29,1551.54 1387,1562.5C 1385.2,1578.14 1387.53,1593.14 1394,1607.5C 1398.82,1617.82 1404.16,1627.82 1410,1637.5C 1453.33,1705.5 1496.67,1773.5 1540,1841.5C 1579.82,1788.52 1619.15,1735.19 1658,1681.5C 1666.84,1667.16 1675.17,1652.49 1683,1637.5C 1704.68,1578.03 1684.18,1543.87 1621.5,1535C 1612.86,1534.07 1604.19,1533.57 1595.5,1533.5C 1595.5,1525.17 1595.5,1516.83 1595.5,1508.5C 1701.83,1508.5 1808.17,1508.5 1914.5,1508.5C 1914.5,1516.83 1914.5,1525.17 1914.5,1533.5C 1882,1534.53 1852.33,1544.03 1825.5,1562C 1803.3,1579.87 1783.46,1600.04 1766,1622.5C 1699.92,1710.08 1634.42,1798.08 1569.5,1886.5C 1581.3,1905.47 1593.3,1924.3 1605.5,1943C 1523.83,1943.67 1442.17,1943.67 1360.5,1943C 1298.67,1845.83 1236.83,1748.67 1175,1651.5C 1161.74,1630.64 1147.74,1610.31 1133,1590.5C 1120.46,1573.63 1105.63,1559.13 1088.5,1547C 1073.02,1538.13 1056.35,1533.63 1038.5,1533.5C 1038.5,1525.17 1038.5,1516.83 1038.5,1508.5 Z"/></g>
<g><path style="opacity:0.991" fill="#fefffe" d="M 1987.5,1508.5 C 2142.5,1508.5 2297.5,1508.5 2452.5,1508.5C 2452.5,1516.83 2452.5,1525.17 2452.5,1533.5C 2435.79,1534.02 2419.12,1535.19 2402.5,1537C 2391.28,1538.31 2380.28,1540.64 2369.5,1544C 2349.29,1553.22 2336.79,1568.72 2332,1590.5C 2329.35,1601.69 2327.69,1613.02 2327,1624.5C 2326.5,1730.83 2326.33,1837.17 2326.5,1943.5C 2255.83,1943.5 2185.17,1943.5 2114.5,1943.5C 2114.67,1843.17 2114.5,1742.83 2114,1642.5C 2114.39,1620.56 2111.06,1599.23 2104,1578.5C 2092.63,1552.83 2072.79,1539.33 2044.5,1538C 2025.58,1535.46 2006.58,1533.96 1987.5,1533.5C 1987.5,1525.17 1987.5,1516.83 1987.5,1508.5 Z"/></g>
<g><path style="opacity:0.991" fill="#fefffe" d="M 2495.5,1508.5 C 2650.5,1508.5 2805.5,1508.5 2960.5,1508.5C 2960.5,1516.83 2960.5,1525.17 2960.5,1533.5C 2935.93,1533.79 2911.6,1536.29 2887.5,1541C 2861.96,1547.54 2846.13,1563.71 2840,1589.5C 2835.96,1606.93 2833.96,1624.59 2834,1642.5C 2833.5,1742.83 2833.33,1843.17 2833.5,1943.5C 2762.83,1943.5 2692.17,1943.5 2621.5,1943.5C 2621.67,1837.17 2621.5,1730.83 2621,1624.5C 2620.73,1601.03 2614.06,1579.7 2601,1560.5C 2591.05,1549.11 2578.55,1542.27 2563.5,1540C 2541,1536.07 2518.34,1533.9 2495.5,1533.5C 2495.5,1525.17 2495.5,1516.83 2495.5,1508.5 Z"/></g>
<g><path style="opacity:0.988" fill="#fefffe" d="M 1389.5,2038.5 C 1481.5,2038.33 1573.5,2038.5 1665.5,2039C 1710.46,2109.75 1755.29,2180.58 1800,2251.5C 1819.79,2284.08 1841.79,2315.08 1866,2344.5C 1880.08,2359.26 1895.92,2371.76 1913.5,2382C 1922.94,2386.48 1932.78,2389.64 1943,2391.5C 1943.5,2399.49 1943.67,2407.49 1943.5,2415.5C 1802.5,2415.5 1661.5,2415.5 1520.5,2415.5C 1520.5,2407.5 1520.5,2399.5 1520.5,2391.5C 1535.22,2391.04 1549.89,2389.88 1564.5,2388C 1595.06,2384.46 1607.56,2367.62 1602,2337.5C 1598.43,2326.37 1593.77,2315.7 1588,2305.5C 1538.42,2223.33 1488.09,2141.66 1437,2060.5C 1385.62,2128.22 1334.62,2196.22 1284,2264.5C 1276.9,2275.69 1270.57,2287.35 1265,2299.5C 1260.12,2310.67 1257.29,2322.34 1256.5,2334.5C 1256.89,2351.37 1264.23,2364.21 1278.5,2373C 1289.71,2379.51 1301.71,2383.85 1314.5,2386C 1333.39,2388.99 1352.39,2390.82 1371.5,2391.5C 1371.5,2399.5 1371.5,2407.5 1371.5,2415.5C 1260.5,2415.5 1149.5,2415.5 1038.5,2415.5C 1038.5,2407.5 1038.5,2399.5 1038.5,2391.5C 1077.16,2390.01 1111.16,2376.84 1140.5,2352C 1153.97,2339.53 1167.14,2326.7 1180,2313.5C 1199.75,2291.08 1218.75,2268.08 1237,2244.5C 1288.09,2175.98 1338.92,2107.32 1389.5,2038.5 Z"/></g>
<g><path style="opacity:0.991" fill="#fefffe" d="M 2114.5,2038.5 C 2185.17,2038.5 2255.83,2038.5 2326.5,2038.5C 2326.33,2126.17 2326.5,2213.83 2327,2301.5C 2327.68,2317.3 2330.68,2332.63 2336,2347.5C 2348.24,2373.06 2368.74,2386.23 2397.5,2387C 2415.81,2388.83 2434.15,2390.33 2452.5,2391.5C 2452.5,2399.5 2452.5,2407.5 2452.5,2415.5C 2297.5,2415.5 2142.5,2415.5 1987.5,2415.5C 1987.5,2407.5 1987.5,2399.5 1987.5,2391.5C 2005.87,2390.92 2024.2,2389.76 2042.5,2388C 2082.98,2384.19 2105.82,2362.02 2111,2321.5C 2112.79,2308.9 2113.79,2296.23 2114,2283.5C 2114.5,2201.83 2114.67,2120.17 2114.5,2038.5 Z"/></g>
<g><path style="opacity:0.991" fill="#fefffe" d="M 2621.5,2038.5 C 2692.17,2038.5 2762.83,2038.5 2833.5,2038.5C 2833.33,2119.83 2833.5,2201.17 2834,2282.5C 2833.65,2304 2836.65,2325 2843,2345.5C 2849.44,2362.27 2860.94,2374.1 2877.5,2381C 2886.66,2383.77 2896,2385.77 2905.5,2387C 2923.81,2388.87 2942.14,2390.37 2960.5,2391.5C 2960.5,2399.5 2960.5,2407.5 2960.5,2415.5C 2805.5,2415.5 2650.5,2415.5 2495.5,2415.5C 2495.5,2407.5 2495.5,2399.5 2495.5,2391.5C 2516.24,2390.99 2536.9,2389.49 2557.5,2387C 2592.71,2381.46 2612.88,2360.96 2618,2325.5C 2619.47,2317.56 2620.47,2309.56 2621,2301.5C 2621.5,2213.83 2621.67,2126.17 2621.5,2038.5 Z"/></g>
</svg>
