<svg xmlns="http://www.w3.org/2000/svg" width="800pt" height="437.108" viewBox="0 0 800 327.831"><g data-name="Vrstva 2"><path d="M0 327.831h800V0H0z" fill="#514d50"/><clipPath id="a"><path transform="matrix(1 0 0 -1 0 327.831)" d="M0 327.831h800V0H0z"/></clipPath><g clip-path="url(#a)"><path d="M323.051 83.143c0 5.3 2.311 9.735 6.254 9.735 2.927 0 5.3-2.865 5.3-8.533 0-6.13-2.466-9.797-6.07-9.797-3.08 0-5.484 3.265-5.484 8.595m16.297.34c0 6.653-4.775 10.69-10.597 10.69-6.162 0-10.444-4.53-10.444-10.414 0-5.299 3.79-10.505 10.844-10.505 5.607 0 10.197 4.16 10.197 10.228M353.549 84.16c.37.154 1.017.308 1.664.308 1.108 0 3.573-.8 3.573-4.96 0-3.48-1.941-4.62-3.82-4.62-.585 0-.955.153-1.14.307-.215.185-.277.493-.277.955zm2.002-10.475c2.434 0 4.159.34 5.392 1.202 1.448.986 2.279 2.526 2.279 4.528 0 4.13-3.05 6.008-6.315 6.41-.462.06-.924.06-1.263.06l-2.095-.523v4.251c0 2.62.277 2.834 2.896 3.05v1.047h-9.551v-1.047c2.31-.216 2.588-.43 2.588-3.05V77.814c0-2.619-.277-2.835-2.433-3.05v-1.079zM375.79 83.143c0 5.3 2.31 9.735 6.253 9.735 2.927 0 5.3-2.865 5.3-8.533 0-6.13-2.466-9.797-6.07-9.797-3.08 0-5.484 3.265-5.484 8.595m16.297.34c0 6.653-4.775 10.69-10.597 10.69-6.162 0-10.444-4.53-10.444-10.414 0-5.299 3.79-10.505 10.844-10.505 5.607 0 10.197 4.16 10.197 10.228M416.482 68.51c-1.355 1.047-2.865 2.526-4.066 3.759h-.925c-1.2-1.263-2.71-2.68-4.097-3.76l.524-.831a70.248 70.248 0 0 1 4.036 1.818 70.62 70.62 0 0 1 4.066-1.818zm3.296 19.933c-.4 1.509-1.2 3.85-1.725 4.929-.8.185-3.635.8-5.73.8-8.195 0-11.584-5.33-11.584-10.227 0-6.347 4.837-10.721 12.2-10.721 2.495 0 4.775.647 5.607.8.277 1.695.493 3.112.708 5.084l-1.139.215c-1.017-3.635-3.389-4.713-5.76-4.713-4.469 0-6.933 4.19-6.933 8.749 0 5.638 3.05 9.366 7.24 9.366 2.556 0 4.466-1.633 6.038-4.744zM448.12 74.733c-1.665.093-2.312.524-2.466 1.91-.092.955-.277 2.403-.277 5.145v12.23h-1.479l-12.815-15.342h-.093v6.9c0 2.713.154 4.099.246 5.023.154 1.356.678 1.94 2.958 2.033v1.079h-7.548v-1.08c1.725-.122 2.434-.615 2.557-1.94.123-1.016.31-2.402.31-5.114V79.17c0-2.034-.033-2.588-.618-3.328-.586-.74-1.263-.985-2.588-1.11v-1.046h5.7l11.8 13.524h.091v-5.422c0-2.742-.154-4.19-.246-5.083-.154-1.325-.77-1.848-3.05-1.972v-1.047h7.517zM459.884 83.143c0 5.3 2.31 9.735 6.254 9.735 2.927 0 5.299-2.865 5.299-8.533 0-6.13-2.464-9.797-6.07-9.797-3.08 0-5.483 3.265-5.483 8.595m16.297.34c0 6.653-4.775 10.69-10.598 10.69-6.161 0-10.443-4.53-10.443-10.414 0-5.299 3.789-10.505 10.844-10.505 5.607 0 10.197 4.16 10.197 10.228M294.815 87.448c-8.42.225-16.842.322-25.262.487l-25.261.277c-16.843.183-33.684.208-50.524.234-16.843-.023-33.683-.049-50.525-.23l-25.262-.278c-8.42-.167-16.842-.263-25.262-.49 8.42-.226 16.842-.323 25.262-.489l25.262-.278c16.842-.18 33.683-.207 50.525-.23 16.84.025 33.681.051 50.524.233l25.26.278c8.42.165 16.842.261 25.262.486M707.281 87.448c-8.42.225-16.842.322-25.262.487l-25.26.277c-16.843.183-33.683.208-50.525.234-16.842-.023-33.682-.049-50.523-.23l-25.264-.278c-8.418-.167-16.84-.263-25.26-.49 8.42-.226 16.842-.323 25.26-.489l25.264-.278c16.841-.18 33.681-.207 50.523-.23 16.842.025 33.682.051 50.524.233l25.261.278c8.42.165 16.842.261 25.262.486M333.652 236.257l1.348 5.14-4.985 1.371-1.345-5.138zM351.275 247.55c-.043-1.229-.307-2.152-1.11-2.475-.447-.18-1.025.026-1.247.573-.213.53.023 1.081.736 1.827 1.144 1.156 1.828 2.127 1.291 3.463-.684 1.692-2.647 1.877-4.084 1.3-.906-.368-1.666-1.05-1.922-1.45.008-.317.336-1.577.668-2.398l.516.15c-.057 1.23.271 2.733 1.316 3.155.547.218 1.088-.04 1.295-.553.201-.497.133-1.023-.71-1.939-.645-.716-1.765-1.942-1.17-3.413.536-1.336 2.048-1.979 3.851-1.27.79.315 1.195.637 1.52.967.011.463-.272 1.76-.376 2.116zM358.695 244.83a1.299 1.299 0 0 1 1.643-.827c.703.226 1.078.929.851 1.63-.215.668-.939 1.053-1.66.821-.65-.208-1.049-.957-.834-1.625m-4.197 10.024.18-.562c1.058.208 1.187.17 1.587-1.076l1.121-3.478c.373-1.16.268-1.25-.53-1.662l.163-.51c1.112.222 2.344.368 3.418.404l-1.924 5.97c-.39 1.21-.336 1.346.678 1.808l-.18.561zM368.67 258.827l.133-.576c.779.065.887.013 1.18-1.262l.703-3.058c.298-1.295-.203-1.83-.854-1.978-.467-.107-.908 0-1.457.252l-1.002 4.353c-.256 1.117-.183 1.209.549 1.49l-.133.576-4.336-.996.133-.575c1.152.094 1.229.092 1.506-1.114l.859-3.74c.248-1.08.172-1.155-.652-1.533l.117-.504a23.05 23.05 0 0 0 3.414.064l-.303 1.315c.413-.152.84-.358 1.293-.518.618-.217.996-.3 1.52-.18 1.457.334 2.107 1.62 1.693 3.419l-.781 3.4c-.26 1.133-.16 1.193.742 1.552l-.133.576zM385.049 259.798c-1 1.076-2.295 1.704-3.412 1.553-2.506-.335-3.713-2.433-3.447-4.428.179-1.335 1.048-2.542 2.316-3.246 1.326-.717 2.549-.813 3.244-.72l.016.002c.66.09 1.236.37 1.513.668.25.221.293.45.24.703-.07.53-.61.943-.921.902-.127-.018-.23-.087-.375-.256-.66-.759-1.207-1.13-1.72-1.199-.712-.096-1.63.491-1.892 2.447-.326 2.432 1.32 3.472 2.09 3.576.77.103 1.325-.01 2.059-.488zM392.016 256.764c.773.021 1.457.035 2.215.056.275.013.389-.037.404-.352.067-.938-.31-1.918-1.03-1.954-.718-.035-1.388.8-1.59 2.25m4.622 3.723c-1.19 1.623-2.646 1.92-3.42 1.881-2.471-.123-3.726-2.013-3.621-4.134a4.711 4.711 0 0 1 1.529-3.27c.852-.77 1.889-1.219 2.885-1.169l.02.001c1.715.085 2.93 1.605 2.857 3.117-.037.368-.158.603-.566.637-.336.04-2.612.093-4.422.077-.026 1.976 1.015 3.025 2.342 3.091.718.036 1.43-.169 2.105-.69zM417.072 258.301c-.193 1.112-.307 2.29-.438 3.082l-7.37.68-.046-.477c.885-1.046 1.877-2.157 2.68-3.307 1.145-1.644 1.735-3.089 1.604-4.486-.119-1.288-.846-2.129-2.114-2.013-1.12.105-1.804.948-2.312 1.847l-.572-.373 1.015-1.837a3.82 3.82 0 0 1 2.653-1.395c1.82-.168 3.46.924 3.648 2.963.133 1.433-.514 2.661-2.156 4.556l-2.012 2.3 2.98-.276c1.1-.102 1.245-.152 1.815-1.41zM423.752 254.432c.461 2.45 1.359 5.115 2.557 4.89 1.195-.227 1.007-2.913.529-5.453-.482-2.555-1.338-5.004-2.533-4.779-1.217.23-1.014 2.896-.553 5.342m5.578-.994c.498 2.646.147 6.056-2.918 6.633-3.047.575-4.637-2.487-5.131-5.097-.509-2.703-.074-6.07 2.955-6.64 3.028-.57 4.598 2.474 5.094 5.104M436.666 257.538l-.174-.603c1.377-.493 1.459-.803 1.096-2.064l-1.858-6.438c-.273-.94-.373-1.026-1.121-.888l-.92.208-.148-.514c1.119-.514 2.34-1.214 3.777-2.09l2.612 9.046c.353 1.224.564 1.49 2.007 1.17l.176.603zM448.283 247.671c.912 2.317 2.295 4.768 3.428 4.32 1.135-.446.445-3.05-.504-5.453-.953-2.42-2.254-4.665-3.387-4.218-1.15.453-.449 3.034.463 5.351m5.29-2.025c.987 2.505 1.282 5.92-1.618 7.062-2.883 1.138-5.022-1.57-5.996-4.042-1.008-2.558-1.215-5.946 1.652-7.076 2.867-1.132 4.981 1.565 5.961 4.056M466.316 236.278l5.12 1.42-1.323 4.997-5.119-1.42zM144.502 125.59c-1.58-.114-3.275-.228-4.969-.228-12.422.227-25.748 5.196-36.59 13.327-9.937 7.566-16.486 16.94-17.164 24.505v.34c-.226 0-.453.113-.677.225v-.565c.337-3.839 2.144-8.244 5.193-12.648 3.051-4.404 7.228-8.582 12.197-12.31 5.196-3.952 11.067-7.227 17.053-9.485 6.662-2.598 13.439-3.953 19.988-4.066 1.582 0 3.049 0 4.518.113zM95.49 177.311c-2.258 1.355-5.76 2.484-9.033 2.484v-.677c2.371 0 5.08-.678 7.453-1.807.451-.113.79-.339 1.13-.564zM127.111 170.987c-5.533 8.809-11.293 15.81-17.504 21.23-5.533 5.083-11.746 7.68-15.81 8.132.113-.113.226-.452.226-.677 3.838-.565 9.824-3.05 15.131-7.906 5.986-5.307 11.633-12.084 17.166-20.666zM133.322 158.904l1.807-3.39c4.968-9.258 9.26-17.503 14.455-21.23h.451l.226.34c-5.195 3.613-9.599 11.857-14.568 21.23l-1.58 3.162zM178.494 145.464c0 3.39-.79 6.663-2.37 9.825a27.158 27.158 0 0 1-6.776 8.583c-3.049 2.598-6.665 4.63-10.729 6.098-4.404 1.581-9.262 2.484-14.455 2.711H142.017v-.678a6.841 6.841 0 0 0 2.147 0c9.937-.339 18.52-3.388 24.73-8.695 5.76-4.857 8.922-11.18 8.922-17.844 0-1.354-.113-2.597-.338-3.839l.678.226c.225 1.13.338 2.371.338 3.613M180.414 208.705c-.678.678-1.469 1.355-2.484 1.92-3.276 2.033-7.454 3.162-11.858 3.162v-.678c4.178 0 8.358-1.129 11.52-3.049.902-.564 1.693-1.242 2.371-1.806a.878.878 0 0 0 .451.451M178.041 182.957a3.783 3.783 0 0 1-.564-1.355c.339-3.163 1.806-6.776 3.953-10.39a39.656 39.656 0 0 1 6.324-7.792l.338.678c-5.533 5.082-9.824 13.1-10.051 18.86M206.5 176.294c-2.822 4.97-6.549 9.712-10.502 13.326-5.646 5.195-11.519 8.018-17.053 8.131l.338-.678c5.196-.225 10.842-2.936 16.264-7.905 3.838-3.727 7.564-8.356 10.389-13.213zM193.4 169.631c.678.34 1.355.678 2.146.904l.225.226-.338.564a7.36 7.36 0 0 1-2.033-1.694M198.596 158.452c0 .226.113.452.113.678-.34.225-.566.564-.791 1.016l-.34-.677a2.215 2.215 0 0 1 1.018-1.017M210.34 159.355c.227.903.45 1.807.564 2.823-.226.114-.451.114-.564.226-.113-.226-.113-.565-.113-.79 0-.678.113-1.242.113-1.807zM219.373 183.07c-.227-.226-.34-.564-.564-1.016.791-3.84 3.386-9.373 7.115-14.341a40.879 40.879 0 0 1 6.662-7.116c2.484-1.806 4.631-2.823 6.662-2.935 0 .112.113.338.113.677-3.613.113-8.357 3.727-12.873 9.825-3.953 5.307-6.777 11.18-7.115 14.907M219.033 196.848c3.615 0 7.566-2.146 11.971-6.55l.226.678c-1.129 1.13-2.258 2.145-3.275 2.935-3.162 2.373-6.098 3.615-8.922 3.615zM239.361 196.848c4.631 0 10.164-4.856 14.795-9.938.111.226.225.452.225.677-4.629 5.196-10.276 9.94-15.02 9.94zM257.656 157.21l-12.422 25.747c-.34.34-.678.452-1.017.678.113-.226.226-.339.226-.565l12.422-25.86zM280.127 160.597c2.484-1.807 4.631-2.823 6.664-2.936 0 .113.113.338.113.677-3.615.113-8.357 3.728-12.875 9.825-3.953 5.308-6.775 11.181-7.115 14.908-.225-.227-.338-.566-.564-1.017.791-3.84 3.388-9.373 7.115-14.342a40.982 40.982 0 0 1 6.662-7.115M266.576 196.848c3.613 0 7.566-2.146 11.971-6.55l.224.678c-1.129 1.13-2.257 2.145-3.273 2.935-3.162 2.373-6.1 3.615-8.922 3.615zM287.129 196.848c4.63 0 10.164-4.856 14.795-9.938.11.226.225.452.225.677-4.63 5.196-10.276 9.94-15.02 9.94zM321.348 125.59l-28.008 57.367c-.451.34-.79.452-1.13.678.115-.226.228-.339.228-.565l28.006-57.48zM328.572 199.671c-.225 0-.45-.113-.678-.113.678-1.129 2.373-2.033 6.438-2.033 1.806 0 3.726.226 5.646.565l-1.242.451a29.03 29.03 0 0 0-4.404-.338c-3.5 0-5.082.79-5.76 1.468M426.258 179.118c-.113 3.5-1.242 7.115-3.502 10.616-2.258 3.5-5.533 6.889-9.486 9.712-4.405 2.936-9.373 5.308-15.02 7-5.984 1.809-12.535 2.712-19.537 2.712h-.451c-9.6 0-17.166-3.05-24.506-5.873-7.227 4.292-14.568 6.55-21.795 6.55H331.397v-.677h1.014c7.003-.113 14.118-2.26 21.232-6.55l.113-.113.227.113c7.226 2.823 14.793 5.872 24.279 5.872h.226c13.213 0 25.409-3.387 34.33-9.6 7.907-5.533 12.649-12.76 12.762-19.762zM398.025 125.137c-27.895 0-53.303 23.15-54.998 38.283-.113 2.033.113 3.727.564 4.97-.45-.452-.789-.904-1.015-1.469-.227-1.016-.227-2.145-.227-3.5.905-8.018 7.906-17.73 18.182-25.523a67.332 67.332 0 0 1 17.392-9.599c6.776-2.598 13.551-3.84 20.102-3.84zM347.772 174.488a.862.862 0 0 0 .225-.564c1.017.564 1.805 1.242 1.805 2.258-.11 2.146-3.161 3.839-6.548 3.839v-.677c3.048 0 5.76-1.468 5.873-3.162 0-.677-.454-1.016-1.356-1.694M389.103 162.743l-3.613 6.212c-6.325 10.276-13.326 18.972-20.442 25.635l-.79-.114c7.228-6.662 14.23-15.47 20.555-25.86l3.726-6.212zM409.432 134.171c-4.857 2.598-9.035 9.147-13.666 17.053l-1.016.225c4.856-8.243 9.147-15.019 14.342-17.842zM407.172 164.776c-2.936.45-6.098.79-9.26.79v-.677c3.162 0 6.324-.34 9.147-.791zM433.938 142.754c-.113 4.065-1.81 8.018-4.858 11.52-2.597 2.822-6.21 5.306-10.615 7.226-.113-.225-.338-.339-.451-.45 9.373-4.067 15.02-10.73 15.245-18.296zM440.144 183.07c-.225-.226-.338-.564-.564-1.016.791-3.84 3.389-9.373 7.115-14.341a41.031 41.031 0 0 1 6.663-7.116c2.483-1.806 4.63-2.823 6.663-2.935 0 .112.113.338.113.677-3.615.113-8.357 3.727-12.875 9.825-3.953 5.307-6.775 11.18-7.115 14.907M439.807 196.848c3.613 0 7.566-2.146 11.97-6.55l.227.678c-1.131 1.13-2.26 2.145-3.275 2.935-3.162 2.373-6.1 3.615-8.922 3.615zM460.473 197.074c8.357 0 22.473-18.295 33.314-38.961l.678.226c-11.066 20.892-25.41 39.413-33.992 39.413zM478.43 157.21l-12.424 25.747c-.338.34-.678.452-1.015.678.113-.226.226-.339.226-.565l12.422-25.86zM492.094 196.396c4.629 0 10.164-4.855 14.793-9.938.113.226.227.452.227.678-4.631 5.195-10.278 9.938-15.02 9.938zM494.691 147.272c.111-.227.225-.452.225-.678.677.339 1.017.904 1.017 1.807v.113c-.226 0-.453.112-.678.112v-.225c0-.452-.113-.903-.564-1.13M507.113 158.338c.113-.564.113-1.016.113-1.58.565.903.79 2.032.79 3.161 0 4.631-3.614 10.164-7.114 15.472-2.146 3.162-4.066 6.211-4.969 8.695-.34.113-.453.113-.453.113h-.338c.905-2.597 2.936-5.872 5.196-9.147 3.273-4.969 7.002-10.729 7.002-15.133 0-.564-.114-1.129-.227-1.58M552.059 131.913c-8.357 3.161-11.52 10.163-11.857 15.81a9.577 9.577 0 0 0 .564 4.065c-.453-.564-.791-1.129-1.13-1.806-.112-.678-.112-1.468-.112-2.258.224-3.727 1.467-7.228 3.84-10.165 2.03-2.71 4.968-4.856 8.355-6.21zM626.027 133.156c0 4.742-2.146 9.373-6.21 13.777-3.614 4.066-8.923 7.906-15.247 11.18-12.195 6.324-27.44 10.164-39.863 10.164-5.196 0-10.39-.678-14.909-1.92-2.595 5.647-4.064 11.18-4.404 16.487-.224 3.84.227 7.116 1.242 9.713-.564-.791-1.129-1.581-1.466-2.597-.454-2.146-.565-4.518-.454-7.116.34-5.533 1.81-11.292 4.631-16.94l.114-.338.226.113c4.516 1.243 9.824 1.92 15.02 1.92 12.308 0 27.441-3.84 39.525-10.05 6.324-3.276 11.518-7.115 15.02-11.068 4.064-4.291 6.097-8.808 6.097-13.325zM608.637 125.702c-.678-.112-1.47-.112-2.26-.112-17.842.676-40.09 14.906-52.174 32.975-.224 0-.451 0-.677-.113 5.646-8.47 13.666-16.375 22.812-22.586 10.164-6.663 20.893-10.615 30.039-10.954.79 0 1.582 0 2.373.112zM603.668 189.62c-3.727 3.953-7.68 7.34-11.857 10.165-9.713 6.662-20.215 10.05-31.284 10.05v-.677c15.586 0 30.266-7.002 42.577-19.99zM616.992 183.07c-.227-.226-.34-.564-.564-1.016.791-3.84 3.386-9.373 7.115-14.341a40.879 40.879 0 0 1 6.662-7.116c2.484-1.806 4.631-2.823 6.662-2.935 0 .112.113.338.113.677-3.613.113-8.357 3.727-12.873 9.825-3.953 5.307-6.777 11.18-7.115 14.907M616.652 196.848c3.615 0 7.566-2.146 11.971-6.55l.226.678c-1.129 1.13-2.258 2.145-3.275 2.935-3.162 2.373-6.098 3.615-8.922 3.615zM636.98 196.848c4.631 0 10.164-4.856 14.795-9.938.111.226.226.452.226.677-4.63 5.196-10.276 9.94-15.02 9.94zM655.275 157.21l-12.422 25.747c-.34.34-.678.452-1.017.678.113-.226.226-.339.226-.565l12.422-25.86zM682.828 159.13h-8.13l-20.216 42.687c-3.613 8.018-8.582 13.212-12.195 16.15-4.29 3.612-8.244 5.193-10.164 5.193-1.018 0-1.356-.45-1.469-.79-.113-.339-.113-.678.113-1.242.338 0 .565-.113.905-.113-.34.564-.453.903-.34 1.13 0 .338.564.338.791.338 1.693 0 5.533-1.582 9.824-5.083 3.39-2.823 8.358-7.904 11.858-15.922l20.441-43.027h8.47c.34 0 .676-.113 1.016-.225zM703.156 127.057c-3.389.903-6.775 2.71-10.164 5.308-5.082 4.065-9.938 10.05-13.777 17.165h-.678c3.84-7.34 8.808-13.55 14.004-17.73 3.613-2.823 7.113-4.517 10.502-5.42zM687.344 172.003l.678.34c-1.92 3.387-2.936 6.774-3.05 9.598-.226-.452-.45-.904-.564-1.468.338-2.485 1.356-5.42 2.936-8.47M686.893 196.848c7.227 0 15.246-4.969 21.23-10.503.114.227.227.452.227.678-6.1 5.534-14.117 10.503-21.457 10.503zM703.719 157.323c0 .112 0 .339-.113.677-3.274.339-7.34 3.275-11.18 7.793h-.902c4.177-5.082 8.695-8.244 12.195-8.47M714.898 160.597c-.11 2.823-2.258 6.211-5.307 8.81-2.824 2.371-8.017 5.42-15.697 5.533v-.678c7.566-.113 12.535-2.936 15.244-5.308 3.39-2.936 4.971-6.21 5.082-8.357z" fill="#c7b487"/><path d="M177.025 201.591c-1.918.451-3.727.678-5.533.678-18.633 0-33.539-19.876-35.799-33.54 1.807.451 3.84.676 6.1.564 21.23-.79 33.99-13.665 33.99-26.878 0-15.019-15.922-25.409-37.266-25.409-34.556 0-66.855 25.748-66.855 45.624 0 8.131 5.195 13.777 12.422 13.777 5.308 0 11.181-3.162 11.181-5.082 0-2.823-12.197-.225-12.197-11.179 1.242-15.698 26.652-37.607 54.094-38.17 19.65 0 29.474 8.47 29.474 19.197 0 15.923-22.134 25.297-36.363 22.135l-.34 3.05c.904 13.55 12.535 44.042 33.768 44.042 13.437 0 20.101-10.729 13.324-8.809" fill="#fff"/><path d="M149.584 130.106c.678-.451 1.018-.79 1.018-1.13 0-.563-.678-.79-1.809-.79-10.051 0-23.602 18.747-31.732 31.96-7.34 12.196-15.584 27.555-26.653 33.653-7.904 4.405 4.858 5.759 16.602-4.856 7.904-7.002 14.568-16.15 20.215-25.748 8.13-14.003 14.228-29.362 22.359-33.09M268.38 185.78c-2.48 0-4.06-2.148-4.06-5.08 0-8.02 12.19-25.98 20.55-25.98 3.05 0 3.95 2.492 3.95 5.202 0 10.609-14.11 25.859-20.44 25.859m-47.54 0c-2.48 0-4.06-2.15-4.06-5.08 0-8.02 12.19-25.98 20.55-25.98 3.05 0 3.95 2.49 3.95 5.2 0 10.61-14.11 25.86-20.44 25.86m-20.21-24.605c-.11 1.25-.23 2.363-.57 3.603-3.05-1.351-4.74-3.99-4.74-6.47 0-1.24.68-2.31 1.81-2.31h.11c2.6 0 3.5 2.697 3.39 5.177m-20.22 25.055c-3.05 0-4.734-2.14-4.734-5.76-.121-7.34 6.324-17.5 13.324-22.13v.79c0 5.76 3.615 9.6 9.485 10.73-3.5 8.35-10.955 16.37-18.075 16.37m126.37-15.81c-4.74 6.439-11.75 15.36-15.25 15.36-1.58 0-3.05-1.676-1.01-5.855l28.57-58.706c.68-1.47.34-2.22-1.24-2.22h-3.73c-1.58 0-2.6.75-3.28 2.22l-17.73 36.005c-.67-4.18-4.51-6.502-8.58-6.502-9.402 0-20.322 9.919-25.936 19.964-4.744 6.417-11.6 15.094-15.053 15.094-1.58 0-3.051-1.58-1.02-5.76l12.65-26.21c.68-1.46.34-1.811-1.24-1.811h-3.28c-1.581 0-2.59.35-3.27 1.81l-1.811 3.62c-.68-4.18-4.51-6.604-8.58-6.604-5.933 0-12.525 3.895-17.99 9.277v-.072c-3 2.6-6.87 4.52-11.5 5.2.56-1.92.965-3.62.965-4.97-.11-5.87-4.027-9.125-9.447-9.245-4.52 0-7.198 1.984-8.667 3.984h-.111c-1.7 0-3.84.426-6.55 2.005-10.17 5.98-17.17 17.154-17.05 26.084.11 5.98 1.8 11.336 9.71 11.336 12.31 0 23.81-13.357 29.12-24.197 2.317-.152 4.458-.6 6.48-1.357-2.866 4.593-4.66 9.349-4.66 13.328 0 6.55 3.27 11.726 9.49 11.726 5.87 0 11.63-5.317 17.05-11.977-2.6 4.74-1.7 11.967 3.5 11.967 5.637 0 12.713-7.301 17.663-13.431a15.274 15.274 0 0 0-.162 2.114c0 5.87 3.39 11.3 9.489 11.3 5.87 0 11.63-5.303 17.05-11.963-2.6 4.74-1.69 11.973 3.5 11.973 9.94 0 24.17-21.68 24.17-21.68 1.47-2.148-.79-4.068-2.26-1.807M330.94 200.461c-4.74 0-5.87-1.02-5.87-2.94.23-.9.79-2.93 6.66-2.93 4.07 0 8.021.9 11.86 2.14-3.95 2.38-8.129 3.73-12.65 3.73m100.061-61.43c0-11.86-12.53-22.02-34.1-22.02-34.56 0-68.21 25.97-68.21 45.96 0 7.9 4.85 13.44 11.97 13.44 3.16 0 6.21-1.58 6.21-3.5 0-2.83-6.78-1.92-6.78-12.77 0-16.03 27.9-38.62 55.34-38.62 19.53 0 26.88 8.13 26.88 16.94-.46 6.55-6.1 14.12-14.57 17.39-3.28-1.13-7.34-1.92-11.97-1.92-2.6 0-4.86 1.95-4.97 4.088 0 2.15 1.47 3.981 4.29 3.981h.45c3.5 0 6.89-.48 9.83-1.039 6.09 2.03 8.35 6.535 8.35 11.955 0 10.96-12.87 26.587-37.94 26.817-7-.23-13.22-1.95-19.2-3.87 9.94-7.57 18.75-18.648 25.97-30.398 9.15-14.899 16.15-31.287 24.96-35.237.68-.45 1.13-.913 1.13-1.244 0-.57-.68-.8-1.92-.8-10.73 0-25.75 19.988-34.9 34.108-6.88 10.62-14.34 23.26-23.48 30.94-5.65-1.69-11.3-3.162-17.51-3.162-11.07 0-14.57 4.63-14.57 8.13 0 6.55 8.25 7.8 12.54 7.8h1.13c7.45 0 14.57-2.49 21.23-6.55 7.23 2.82 15.02 6.036 24.73 6.036 29.7 0 47.43-16.453 47.43-30.233 0-6.21-3.27-12.416-9.71-16.476 10.95-4.07 17.39-11.276 17.39-19.747M441.61 185.78c-2.479 0-4.06-2.148-4.06-5.08 0-8.02 12.19-25.98 20.55-25.98 3.05 0 3.95 2.492 3.95 5.202 0 10.609-14.11 25.859-20.44 25.859m70.13-15.36c-4.739 6.44-12.529 15.92-16.029 15.92-1.81 0-2.71-1.01-2.71-2.82 0-6.1 12.64-18.29 12.64-26.65 0-3.61-2.71-6.32-7.56-6.32-1.81 0-2.6.33-3.61.33-1.36 0-1.92-.67-1.92-1.58 0-1.13 1.01-2.59 1.01-3.95 0-1.02-.45-1.81-2.26-1.81-4.18 0-6.55 4.18-6.55 6.89 0 2.15.68 4.18 3.5 5.08-1.24 2.38-5.64 10.28-8.81 15.14-4.4 6.66-11.74 15.13-15.13 15.13-1.58 0-3.05-1.58-1.01-5.76l12.64-26.21c.68-1.46.34-1.811-1.24-1.811h-3.27c-1.58 0-2.6.35-3.28 1.81l-1.8 3.62c-.68-4.18-4.52-6.604-8.59-6.604-13.21 0-29.7 19.283-29.7 31.373 0 6.55 3.28 11.726 9.49 11.726 5.87 0 11.63-5.317 17.05-11.977-2.6 4.74-1.69 11.967 3.5 11.967 9.71 0 23.72-21.683 23.72-21.683s6.21-9.04 10.16-16.38c.79 0 1.92-.111 2.71-.111 1.92 0 2.37.68 2.37 1.69 0 6.1-12.98 18.98-12.98 29.59 0 3.73 1.69 6.66 5.98 6.66 9.94 0 23.94-21.45 23.94-21.45 1.58-2.49-.68-3.84-2.26-1.81M618.46 185.78c-2.48 0-4.07-2.148-4.07-5.08 0-8.02 12.2-25.98 20.56-25.98 3.05 0 3.95 2.492 3.95 5.202 0 10.609-14.12 25.859-20.44 25.859m-14.45-63.47c7.56 0 9.93 2.94 9.71 7-.68 13.22-29.03 28.69-50.37 30.5-5.53.45-10.05 0-13.66-1.25 11.63-19.76 35.46-35.57 54.32-36.25M681.927 152h-7.906l.79-1.8c3.727-8.017 9.147-16.031 15.698-21.227 3.613-2.823 7.566-5.023 11.744-5.813 4.518-.904.34-3.988-7.904-1.617C679.553 125.609 671.197 139 665.21 152h-2.822c-2.938 0-4.744 4-1.696 4h2.71l-7.065 14.748c-4.74 6.434-11.692 15.154-15.178 15.154-1.58 0-3.05-1.641-1.02-5.82l12.65-26.236c.68-1.46.34-1.846-1.24-1.846h-3.28c-1.58 0-2.59.356-3.27 1.816l-1.81 3.612c-.68-4.18-4.52-6.603-8.58-6.603-9.344 0-20.324 9.65-25.953 19.578-.006.007-.011.01-.016.019-19.771 27.099-42.01 29.019-48 29.359-6.89.45-18.97-1.92-17.96-19.87.34-5.65 1.92-11.3 4.519-16.83 4.41 1.24 9.83 1.92 15.13 1.92 24.74 0 60.76-15.47 60.99-34.78.11-9.04-8.02-13.21-18.64-13.33-21.68 0-48.9 16.26-63.24 37.38-2.93-2.71-4.18-6.1-3.95-9.48.34-6.89 4.86-14.12 14.12-16.83 5.19-1.36-5.42-6.55-15.59 1.13-5.08 3.84-7.45 9.82-7.56 15.24-.12 6.1 3.04 11.52 9.71 15.25-3.73 6.89-5.99 14.12-6.44 21.34-1.02 18.75 11.63 25.64 26.43 25.64 15.716 0 34.268-11.174 46.914-26.5a15.403 15.403 0 0 0-.164 2.137c0 6.55 3.27 11.727 9.48 11.727 5.88 0 11.64-5.322 17.06-11.982-2.6 4.74-1.7 11.969 3.5 11.969 4.832 0 10.726-5.37 15.428-10.763l-6.511 13.812c-3.84 8.244-8.582 14.455-13.1 18.747-8.581 8.13 11.407 3.969 20.893-16.471L672.213 156h8.244c3.162 0 4.63-4 1.469-4M713.318 170.422c-8.582 11.18-18.408 15.358-24.055 15.358-4.177 0-6.888-2.258-6.888-6.775 0-9.26 11.744-24.619 19.65-24.619 1.467 0 3.5.564 3.5 3.05 0 2.596-4.969 10.388-14.342 10.388-1.355 0-2.597-.339-3.953-.339-.678 0-1.016.34-1.016.791 0 1.468 2.258 3.05 4.97 3.05 14.228 0 21.116-9.373 21.116-14.229 0-4.404-4.742-6.097-7.904-6.097h-1.242c-9.035 0-20.666 9.485-26.539 19.536-2.37 4.065-3.84 8.187-3.84 11.914 0 6.663 4.631 11.49 11.746 11.49 10.73 0 24.166-10.969 30.942-21.697 1.468-2.146-.676-3.854-2.145-1.82M721.9 126.266c-1.92 0-4.178 1.13-5.87 2.598L703.04 140.27c-1.807 1.581-.452 2.823.904 2.145l14.115-6.436c2.824-1.242 7.23-3.162 7.23-6.663 0-1.92-1.357-3.05-3.39-3.05" fill="#fff"/><path d="m706.88 144.449 14.118-6.438c2.37-1.016 5.647-2.371 6.662-4.743l.678.226c-1.242 2.598-4.744 4.179-7.115 5.195-4.518 2.146-9.598 4.29-14.115 6.437z" fill="#c7b487"/></g></g></svg>