<svg width="924" height="198" viewBox="0 0 924 198" fill="none" xmlns="http://www.w3.org/2000/svg">
<path fill-rule="evenodd" clip-rule="evenodd" d="M207.845 9.42801H247.25V187.532H207.845V9.42801Z" fill="white"/>
<path fill-rule="evenodd" clip-rule="evenodd" d="M612.022 108.266L583.783 9.42801H532.599L504.359 187.69H543.188L560.838 59.7295H561.721L596.137 187.69H628.789L663.206 59.7295L681.738 187.69H721.45L692.328 9.42801H640.261L612.905 108.266H612.022Z" fill="white"/>
<path fill-rule="evenodd" clip-rule="evenodd" d="M882.062 187.69H923.538L852.94 9.42801H798.226L727.627 187.69H766.456L780.576 151.508H867.942L882.062 187.69ZM824.7 41.1974L854.705 117.973H793.813L824.7 41.1974Z" fill="white"/>
<path fill-rule="evenodd" clip-rule="evenodd" d="M377.282 81.7916V117.973H439.938V120.621C439.938 144.448 418.758 161.215 385.224 161.215C351.69 161.215 325.215 142.683 325.215 99.4412C325.215 54.4346 353.455 37.6674 386.106 37.6674C411.698 37.6674 430.231 42.0799 451.41 52.6697L469.942 22.6652C447.88 9.428 415.228 1.48566 385.224 1.48566C331.393 1.48566 282.856 30.6076 282.856 100.324C282.856 161.215 325.215 195.632 383.459 195.632C448.763 195.632 479.65 164.745 480.532 109.149C480.532 101.206 480.532 93.2639 479.65 81.7916H377.282Z" fill="white"/>
<path fill-rule="evenodd" clip-rule="evenodd" d="M128.421 83.5566C103.712 78.2617 86.9447 80.9091 62.2352 75.6142C46.3505 72.9668 41.9381 66.7894 41.9381 59.7295C41.9381 44.7273 61.3527 36.785 86.9447 36.785C107.242 36.785 127.539 42.0799 146.954 50.9047L166.368 18.2528C145.189 7.66304 116.067 0.60318 82.5323 0.60318C50.7629 0.60318 1.34391 15.6054 1.34391 62.377C1.34391 88.8515 18.9936 105.619 42.8206 110.914C64.8827 116.208 79.0024 115.326 105.477 118.856C123.127 121.503 130.186 127.681 130.186 137.388C130.186 151.508 111.654 160.333 85.1798 160.333C62.2352 160.333 39.2907 155.92 16.3461 146.213L0.461426 179.747C28.7009 192.102 57.8228 197.397 82.5323 197.397C136.364 197.397 172.546 173.57 172.546 134.741C172.546 108.266 156.661 89.7339 128.421 83.5566Z" fill="white"/>
</svg>
