<svg width="2427" height="425" viewBox="0 0 2427 425" fill="none" xmlns="http://www.w3.org/2000/svg">
<path fill-rule="evenodd" clip-rule="evenodd" d="M2389.95 342.614C2385.04 342.522 2380.15 343.41 2375.58 345.228C2371.02 347.045 2366.86 349.755 2363.35 353.198C2359.84 356.642 2357.05 360.75 2355.15 365.283C2353.25 369.816 2352.27 374.683 2352.27 379.599C2352.27 384.515 2353.25 389.382 2355.15 393.915C2357.05 398.448 2359.84 402.557 2363.35 406C2366.86 409.444 2371.02 412.154 2375.58 413.971C2380.15 415.788 2385.04 416.677 2389.95 416.585C2394.81 416.58 2399.62 415.616 2404.1 413.749C2408.59 411.882 2412.66 409.149 2416.09 405.705C2419.51 402.261 2422.23 398.175 2424.07 393.681C2425.92 389.187 2426.86 384.373 2426.84 379.515C2426.84 374.67 2425.89 369.871 2424.03 365.394C2422.18 360.917 2419.47 356.849 2416.04 353.423C2412.61 349.996 2408.55 347.277 2404.07 345.423C2399.59 343.568 2394.8 342.614 2389.95 342.614ZM2389.95 412.136C2385.67 412.141 2381.43 411.3 2377.47 409.662C2373.52 408.023 2369.93 405.619 2366.9 402.587C2363.88 399.556 2361.49 395.957 2359.86 391.998C2358.23 388.038 2357.4 383.796 2357.42 379.515C2357.42 375.248 2358.27 371.023 2359.9 367.082C2361.54 363.141 2363.94 359.562 2366.96 356.548C2369.98 353.535 2373.57 351.148 2377.51 349.522C2381.46 347.897 2385.68 347.065 2389.95 347.076C2394.21 347.076 2398.43 347.915 2402.36 349.545C2406.3 351.175 2409.87 353.565 2412.88 356.578C2415.9 359.59 2418.28 363.166 2419.91 367.102C2421.54 371.038 2422.38 375.256 2422.38 379.515C2422.4 383.788 2421.57 388.023 2419.95 391.978C2418.33 395.932 2415.95 399.528 2412.94 402.558C2409.92 405.589 2406.34 407.995 2402.4 409.639C2398.45 411.282 2394.22 412.131 2389.95 412.136Z" fill="white"/>
<path fill-rule="evenodd" clip-rule="evenodd" d="M2408.93 369.826C2408.93 366.337 2407.38 362.666 2404.3 360.915C2401.18 359.073 2397.71 358.892 2394.22 358.892H2376.2V400.229H2381.25V381.162H2390.55L2402.35 400.229H2408.36L2395.87 381.162C2403.23 380.955 2408.93 377.959 2408.93 369.826ZM2388.99 377.18H2381.23V362.562H2393.04C2398.17 362.562 2403.8 363.341 2403.8 369.735C2403.82 378.153 2394.79 377.18 2388.99 377.18ZM2173.15 169.975L2248.77 89.2335C2253.15 83.306 2255.33 79.1555 2255.33 75.6015C2255.33 69.674 2250.23 67.3004 2234.2 67.3004H2215.12V16.326H2421.64V67.3004H2394.5C2363.17 67.3004 2357.34 72.0346 2313.62 127.16L2193.99 256.346V335.182C2193.99 355.351 2204.17 362.446 2233.33 362.446H2278.49V411.63H1989.24V362.446H2034.4C2063.53 362.446 2073.74 355.351 2073.74 335.182V256.346L1932.84 100.479C1909.56 73.2279 1912.78 67.3004 1847.95 67.3004V16.326H2109.54V67.3004H2090.91C2071.96 67.3004 2063.94 70.8543 2063.94 77.9622C2063.94 83.9027 2069.76 88.6369 2073.4 93.3712L2144.69 171.065C2153.16 179.872 2163.5 181.013 2173.15 169.975ZM418.009 16.3131H481.111V158.548H422.834C417.671 130.117 399.876 119.053 383.65 104.137C354.375 77.2358 290.975 54.8356 237.653 54.8356C168.831 54.8356 110.749 76.1852 110.749 107.574C110.749 194.71 504.341 125.37 504.341 290.122C504.341 376.052 420.032 424.056 268.627 424.056C216.213 424.056 136.897 407.791 90.0997 382.939C75.4299 374.469 69.2041 390.955 66.4543 411.617H1.75709V264.635H60.2803C73.186 301.977 90.9687 309.668 107.325 324.494C135.704 350.578 203.255 369.554 265.202 368.944C358.603 368.023 390.719 347.607 390.719 317.97C390.719 288.345 358.954 281.224 256.603 265.231L169.7 251.003C71.6296 236.177 0.226562 214.257 0.226562 136.031C0.226562 54.8356 90.5536 3.86123 233.373 3.86123C293.556 3.86123 343.908 11.9031 392.236 39.2191C405.622 47.9223 418.177 48.96 418.009 16.3131ZM1649.49 254.453L1650.73 96.3674C1650.73 75.6275 1639.94 68.5195 1609.11 68.5195H1572.88V19.3351H1803.37V68.5195H1773.33C1742.47 68.5195 1731.68 75.6404 1731.68 96.3674V414.626L1641.47 413.913L1349.32 137.264V338.178C1349.32 358.334 1360.11 366.026 1390.94 366.026H1431.05V414.626H1191.68V366.026H1231.34C1262.17 366.026 1272.96 358.321 1272.96 338.178V96.3674C1272.96 75.6275 1262.17 68.5195 1231.34 68.5195H1191.68V19.3351H1398.64L1649.49 254.453ZM877.439 0.878052C693.75 0.878052 578.766 82.0868 578.766 212.454C578.766 340.487 692.155 421.073 871.836 421.073C1062.69 421.073 1173.7 341.667 1173.7 205.943C1173.71 83.8637 1053.92 0.878052 877.439 0.878052ZM873.263 369.528C771.586 369.528 713.141 310.849 713.141 209.497C713.141 110.531 774.129 51.8524 878.347 51.8524C978.325 51.8524 1036.77 111.725 1036.77 213.66C1036.77 313.222 977.468 369.528 873.263 369.528Z" fill="white"/>
</svg>
