<svg width="855" height="198" viewBox="0 0 855 198" fill="none" xmlns="http://www.w3.org/2000/svg">
    <path
        d="M366.261 56.527C367.65 56.5091 369.038 56.4837 370.427 56.4501C383.586 56.1687 395.836 59.2485 406 67.9998C413.907 76.1744 417.468 85.0243 417.556 96.3621C417.538 97.4594 417.519 98.5567 417.5 99.6873C417.487 100.835 417.474 101.982 417.461 103.165C417.047 120.577 411.726 137.111 399.371 149.82C387.639 160.605 374.412 165.176 358.688 165.187C357.775 165.2 356.863 165.212 355.924 165.224C350.263 165.237 345.43 164.61 340 163C339.89 164.102 339.781 165.204 339.668 166.34C338.567 177.006 336.966 187.457 335 198C324.77 198 314.54 198 304 198C306.251 181.119 306.251 181.119 307.126 175.218C307.222 174.566 307.319 173.913 307.418 173.241C307.73 171.137 308.043 169.033 308.355 166.929C308.58 165.413 308.805 163.896 309.029 162.38C310.239 154.215 311.46 146.052 312.691 137.89C313.191 134.567 313.691 131.244 314.191 127.922C314.315 127.103 314.438 126.284 314.565 125.441C315.958 116.185 317.305 106.927 318.521 97.6461C319.076 93.4204 319.657 89.1986 320.243 84.9769C320.496 83.0893 320.734 81.1997 320.957 79.3083C322.603 65.3947 322.603 65.3947 325.93 62.0721C328.328 60.918 330.376 60.4023 333 59.9998C333.658 59.8214 334.317 59.6431 334.995 59.4593C345.109 56.7852 355.861 56.6561 366.261 56.527Z"
        fill="#187CE8" />
    <path
        d="M560.375 56.5625C562.245 56.5291 562.245 56.5291 564.153 56.4951C577.414 56.5268 589.853 59.889 599.996 68.7422C609.061 78.1385 611.388 90.3265 611.281 102.945C610.378 121.23 603.337 139.723 589.934 152.41C578.352 161.933 565.265 165.195 550.562 165.125C549.755 165.129 548.947 165.133 548.115 165.137C542.99 165.128 538.073 164.734 533 164C532.92 164.644 532.839 165.289 532.756 165.953C532.383 168.927 532.004 171.901 531.625 174.875C531.499 175.888 531.372 176.901 531.242 177.945C531.113 178.951 530.984 179.956 530.852 180.992C530.736 181.903 530.621 182.815 530.502 183.753C529.815 188.194 528.881 192.594 528 197C518.1 197 508.2 197 498 197C498 191.968 498.026 187.816 498.734 182.973C498.897 181.848 499.059 180.723 499.227 179.564C499.399 178.409 499.572 177.253 499.75 176.062C499.907 174.973 500.065 173.883 500.227 172.76C501.054 167.097 501.923 161.443 502.851 155.796C504.656 144.775 506.335 133.749 507.836 122.683C508.591 117.117 509.375 111.555 510.164 105.994C510.744 101.895 511.308 97.7953 511.841 93.6902C512.367 89.6422 512.934 85.6017 513.528 81.5632C513.744 80.0417 513.947 78.5182 514.134 76.9929C515.587 65.227 515.587 65.227 519.062 62.2086C521.4 61.1337 523.481 60.494 526 60C526.709 59.812 527.417 59.6241 528.147 59.4304C530.153 58.9082 532.138 58.5627 534.188 58.25C534.971 58.13 535.755 58.0101 536.563 57.8865C544.476 56.8335 552.4 56.6431 560.375 56.5625Z"
        fill="#177CE8" />
    <path
        d="M175 0C175 3.33156 174.616 3.89856 172.727 6.48438C172.237 7.16371 171.748 7.84305 171.243 8.54297C170.709 9.27129 170.175 9.99961 169.625 10.75C168.505 12.3062 167.386 13.8635 166.27 15.4219C165.432 16.5888 165.432 16.5888 164.577 17.7793C162.424 20.8114 160.358 23.8951 158.312 27C153.909 33.6624 149.432 40.2734 144.937 46.875C144.21 47.9443 143.482 49.0136 142.732 50.1152C141.234 52.3149 139.736 54.5144 138.238 56.7139C134.656 61.974 131.078 67.2371 127.5 72.5C126.083 74.5833 124.667 76.6667 123.25 78.75C122.198 80.2969 122.198 80.2969 121.125 81.875C114.75 91.25 114.75 91.25 112.625 94.3743C111.207 96.46 109.789 98.5458 108.371 100.632C104.854 105.803 101.338 110.974 97.8203 116.145C96.4218 118.201 95.0234 120.256 93.625 122.312C92.5852 123.841 92.5852 123.841 91.5244 125.401C87.3233 131.579 83.1264 137.76 78.9333 143.944C75.7356 148.66 72.5349 153.374 69.3332 158.087C66.8758 161.706 64.4266 165.33 61.9805 168.957C60.7996 170.701 59.6186 172.444 58.4375 174.188C57.6423 175.373 57.6423 175.373 56.831 176.582C56.3493 177.291 55.8675 178 55.3711 178.73C54.7512 179.649 54.7512 179.649 54.1189 180.587C53 182 53 182 51 183C50.6971 182.091 50.3941 181.182 50.082 180.246C49.8823 179.647 49.6826 179.048 49.4768 178.431C49.0262 177.079 48.5762 175.726 48.1267 174.374C47.0198 171.045 45.904 167.72 44.7656 164.402C42.3625 157.357 40.1968 150.291 38.1875 143.125C34.0427 128.358 29.315 113.768 24.375 99.25C22.4678 93.5855 20.8015 87.8777 19.1875 82.125C14.9835 67.1485 10.1612 52.3618 5.18749 37.625C-0.353155 21.0594 -0.353155 21.0594 0.999986 17C1.65443 17.4446 2.30887 17.8893 2.98314 18.3474C9.44886 22.7396 15.9166 27.1288 22.3862 31.5152C26.2225 34.1162 30.0582 36.7181 33.8931 39.3213C38.0979 42.1754 42.3046 45.0269 46.5123 47.8767C48.1687 48.9992 49.8244 50.1224 51.4796 51.2466C53.8182 52.8346 56.1588 54.4196 58.5 56.0039C59.1999 56.4802 59.8998 56.9565 60.6209 57.4472C61.2719 57.8869 61.923 58.3265 62.5937 58.7795C63.1577 59.1619 63.7217 59.5443 64.3027 59.9382C66.1692 61.1058 67.9675 62.1476 70 63C72.3624 62.1906 72.3624 62.1906 74.7344 60.582C75.6844 59.9968 76.6344 59.4116 77.6133 58.8086C78.6484 58.1499 79.6835 57.4912 80.75 56.8125C82.4264 55.7754 84.1029 54.7383 85.7809 53.7037C86.9741 52.9669 88.166 52.2281 89.3568 51.4875C95.8324 47.4615 102.393 43.5828 108.959 39.706C112.37 37.6905 115.777 35.6675 119.184 33.6445C119.848 33.25 120.513 32.8555 121.197 32.4491C139.205 21.7541 157.125 10.9161 175 0Z"
        fill="#FF8E14" />
    <path
        d="M676.875 56.6254C677.982 56.6009 679.089 56.5764 680.23 56.5512C692.649 56.5074 701.925 60.28 710.871 68.7777C721.397 79.8471 722.379 91.889 722.214 106.36C721.77 122.947 715.668 140.902 703.562 152.688C688.979 164.434 672.235 167.309 654 166C643.448 164.475 633.207 159.625 626.496 151.207C616.866 137.001 615.71 120.259 618.652 103.586C622.759 86.8396 631.112 72.9481 645.66 63.3988C655.58 57.4701 665.548 56.6385 676.875 56.6254Z"
        fill="#187CE8" />
    <path
        d="M463.699 56.7346C464.774 56.7317 464.774 56.7317 465.87 56.7288C467.378 56.7274 468.887 56.731 470.395 56.7394C472.664 56.7501 474.932 56.7396 477.201 56.7267C485.588 56.7189 493.807 56.9601 502 59.0002C503 60.0002 503 60.0002 503.188 63.5627C503.148 67.26 502.502 70.4875 501.512 74.0353C500.74 76.9974 500.379 79.9653 500 83.0002C499.245 82.928 498.489 82.8558 497.711 82.7814C489.948 82.127 482.226 81.8642 474.438 81.8127C473.486 81.7998 472.535 81.7869 471.554 81.7736C465.047 81.7477 465.047 81.7477 459 84.0002C457.689 85.1052 457.689 85.1052 457.652 87.8556C457.667 91.0665 457.667 91.0665 459.879 92.801C460.764 93.2998 461.65 93.7987 462.562 94.3127C463.562 94.8979 464.561 95.4831 465.59 96.0861C466.715 96.7178 467.841 97.3494 469 98.0002C493.989 112.327 493.989 112.327 499 127C500.509 135.617 497.79 143.354 493.375 150.688C486.226 160.721 474.68 163.949 463 166C449.081 166.86 435.552 166.286 422 163C420.335 162.66 418.669 162.323 417 162C418.2 153.973 419.497 145.976 421 138C424.698 138.444 428.377 138.896 432.051 139.512C438.715 140.596 445.256 141.23 452 141.313C452.706 141.33 453.411 141.348 454.138 141.366C458.829 141.361 461.979 140.381 466 138C466.754 134.757 466.754 134.757 466 131C463.406 128.393 460.194 126.783 457 125C431.065 110.196 431.065 110.196 426 95.0002C425.111 84.4766 426.552 77.1682 433 68.8127C440.748 60.4472 452.58 56.7537 463.699 56.7346Z"
        fill="#187CE8" />
    <path
        d="M187 26C215.05 26 243.1 26 272 26C272 37.2993 272 37.2993 271.062 42.5C270.888 43.5003 270.714 44.5006 270.535 45.5312C270 48 270 48 269 50C260.42 50 251.84 50 243 50C242.883 52.0303 242.765 54.0605 242.645 56.1523C242.125 63.4024 241.015 70.4231 239.688 77.5625C237.936 87.3326 236.367 97.0978 235.062 106.938C233.475 118.861 231.685 130.744 229.812 142.625C229.68 143.472 229.547 144.32 229.411 145.193C229.033 147.6 228.652 150.007 228.27 152.414C228.156 153.138 228.043 153.861 227.926 154.607C227.459 157.512 226.933 160.202 226 163C215.77 163 205.54 163 195 163C195 158.45 195.055 154.766 195.731 150.392C195.892 149.333 196.053 148.274 196.219 147.182C196.397 146.048 196.575 144.914 196.758 143.746C196.941 142.548 197.125 141.35 197.314 140.116C197.81 136.888 198.311 133.662 198.814 130.436C199.334 127.095 199.848 123.754 200.364 120.413C201.382 113.814 202.408 107.217 203.436 100.619C203.954 97.2972 204.469 93.9746 204.983 90.6519C205.674 86.1848 206.368 81.7182 207.066 77.2522C207.311 75.6857 207.555 74.119 207.798 72.5522C208.132 70.4067 208.47 68.2619 208.809 66.1172C208.992 64.9478 209.176 63.7785 209.365 62.5737C210.114 58.3575 211.071 54.1803 212 50C202.76 50 193.52 50 184 50C184 42 184 42 187 26Z"
        fill="#177BE8" />
    <path
        d="M836 27C837.273 30.6953 836.797 33.6904 836.223 37.5156C836.039 38.766 835.855 40.0164 835.666 41.3047C835.467 42.6066 835.268 43.9086 835.063 45.25C834.865 46.5806 834.667 47.9114 834.471 49.2422C833.988 52.4958 833.495 55.7481 833 59C840.26 59 847.52 59 855 59C854.536 62.7434 854.536 62.7434 854.063 66.5625C853.967 67.3341 853.872 68.1057 853.774 68.9006C853.656 69.8489 853.656 69.8489 853.535 70.8164C853.457 71.4501 853.378 72.0837 853.297 72.7366C852.891 75.828 852.441 78.9134 852 82C844.41 82 836.82 82 829 82C828.735 84.0148 828.469 86.0296 828.195 88.1055C827.931 90.1047 827.666 92.104 827.401 94.1033C827.22 95.4694 827.04 96.8356 826.86 98.2019C825.799 106.257 824.678 114.297 823.406 122.322C822.883 125.776 822.494 128.526 823 132C825.768 135.579 827.271 136.863 831.77 137.707C833.117 137.766 834.465 137.801 835.813 137.812C836.506 137.838 837.198 137.863 837.912 137.889C839.608 137.947 841.304 137.977 843 138C842.027 146.435 841.063 154.748 839 163C832.981 165.093 827.468 165.334 821.125 165.312C820.183 165.329 819.241 165.345 818.27 165.361C810.39 165.367 802.327 164.271 796.352 158.613C789.559 150.505 789.331 142.118 790 132C790.542 127.185 791.285 122.426 792.108 117.651C792.809 113.585 793.469 109.513 794.137 105.441C794.283 104.559 794.429 103.676 794.579 102.766C795.835 95.1339 797 87.4894 798.145 79.8398C798.325 78.6365 798.505 77.4332 798.69 76.1934C799.412 71.3659 800.131 66.5381 800.847 61.7099C801.35 58.3232 801.857 54.937 802.363 51.5508C802.59 50.0159 802.59 50.0159 802.82 48.4499C802.961 47.5104 803.102 46.5708 803.247 45.6028C803.43 44.3724 803.43 44.3724 803.617 43.1171C804 41 804 41 805 38C807.301 36.9499 809.491 36.0998 811.879 35.3008C812.566 35.0609 813.252 34.821 813.96 34.5738C816.157 33.8089 818.36 33.0606 820.563 32.3125C822.052 31.7973 823.541 31.281 825.029 30.7637C828.682 29.4967 832.34 28.2446 836 27Z"
        fill="#187CE8" />
    <path
        d="M784.062 56.9377C788.002 56.9583 791.941 56.9789 796 57.0002C795.01 64.9202 794.02 72.8402 793 81.0002C783.812 81.4377 783.812 81.4377 780.945 81.5683C780.186 81.6064 779.427 81.6445 778.645 81.6838C777.49 81.7388 777.49 81.7388 776.312 81.7949C773.822 82.016 771.441 82.4696 769 83.0002C767.53 90.0789 766.261 97.1732 765.125 104.313C764.954 105.379 764.784 106.445 764.608 107.543C763.073 117.265 761.751 127.013 760.439 136.768C759.237 145.584 757.762 154.279 756 163C745.77 163 735.54 163 725 163C728.164 140.532 731.403 118.076 734.775 95.6375C735.134 93.2537 735.491 90.8698 735.847 88.4857C736.35 85.1268 736.856 81.7685 737.363 78.4103C737.514 77.3997 737.665 76.3891 737.82 75.3478C737.961 74.4211 738.102 73.4943 738.247 72.5395C738.369 71.7313 738.491 70.9231 738.616 70.0904C739 68.0002 739 68.0002 740 65.0002C742.879 63.6838 742.879 63.6838 746.562 62.4377C747.201 62.2208 747.84 62.0039 748.499 61.7805C760.408 57.7951 771.566 56.8447 784.062 56.9377Z"
        fill="#187CE8" />
    <path
        d="M276 59C285.9 59 295.8 59 306 59C305.478 69.047 304.604 78.7579 302.938 88.6875C302.492 91.4346 302.047 94.1819 301.605 96.9297C301.484 97.6816 301.362 98.4336 301.237 99.2083C300.083 106.384 299.001 113.57 297.926 120.758C297.747 121.954 297.567 123.151 297.383 124.383C296.657 129.238 295.931 134.092 295.21 138.948C294.699 142.378 294.186 145.808 293.672 149.238C293.518 150.281 293.364 151.323 293.205 152.397C293.061 153.356 292.917 154.314 292.769 155.302C292.644 156.14 292.519 156.979 292.39 157.842C292 160 292 160 291 163C281.1 163 271.2 163 261 163C262.125 148.376 262.125 148.376 263.076 142.324C263.23 141.331 263.23 141.331 263.387 140.317C263.719 138.178 264.059 136.04 264.398 133.902C264.637 132.377 264.875 130.852 265.112 129.326C265.735 125.337 266.363 121.348 266.993 117.36C267.624 113.361 268.249 109.361 268.875 105.361C269.121 103.792 269.366 102.223 269.612 100.654C269.732 99.8872 269.852 99.1204 269.975 98.3303C270.333 96.0485 270.691 93.7667 271.049 91.485C272.747 80.6635 274.395 69.8357 276 59Z"
        fill="#177CE8" />
    <path
        d="M681.356 81.6878C686.072 83.8115 688.532 86.3598 691 91.0003C694.824 102.472 691.87 118.23 686.574 128.864C682.848 134.747 678.68 138.752 672 141C666.21 141.623 660.846 141.777 655.438 139.5C648.572 132.458 647.633 124.107 647.719 114.617C648.581 103.53 652.182 93.111 660.563 85.6253C666.797 80.4707 673.508 79.3972 681.356 81.6878Z"
        fill="#000" />
    <path
        d="M363.812 80.5628C364.879 80.573 364.879 80.573 365.968 80.5835C373.024 80.7995 377.264 82.2645 382.312 87.3128C387.742 95.9605 388.221 103.577 386.309 113.637C383.331 125.16 378.57 133.316 368.387 139.617C364.044 141.391 360.447 141.371 355.812 141.25C355.006 141.245 354.2 141.24 353.369 141.235C349.927 141.189 347.297 141.099 344 140C344.525 129.217 345.796 118.715 347.5 108.063C347.841 105.892 348.18 103.721 348.519 101.55C348.824 99.5997 349.133 97.6497 349.443 95.6997C349.737 93.7466 350.021 91.7907 350.221 89.8257C350.796 84.1943 350.796 84.1943 353.074 82.0276C356.695 80.7563 360.018 80.5073 363.812 80.5628Z"
        fill="#000" />
    <path
        d="M569.688 82.6245C575.282 86.1317 578.223 90.6552 580 96.9995C581.367 108.955 578.843 121.33 571.641 131.097C567.396 136.019 562.743 140.601 555.962 141.171C553.596 141.232 551.241 141.223 548.875 141.187C548.064 141.186 547.254 141.186 546.418 141.185C542.952 141.159 540.322 141.107 537 140C536.802 133.087 537.528 126.733 538.75 119.937C539.121 117.829 539.491 115.721 539.86 113.613C540.05 112.532 540.24 111.451 540.436 110.338C541.008 106.953 541.52 103.564 542.016 100.167C542.181 99.0712 542.347 97.9749 542.517 96.8455C542.834 94.7294 543.139 92.6114 543.429 90.4914C543.576 89.5376 543.724 88.5838 543.875 87.6011C543.996 86.7588 544.118 85.9166 544.242 85.0488C545 82.9995 545 82.9995 546.845 81.7329C553.324 79.5283 563.518 79.7822 569.688 82.6245Z"
        fill="#000" />
    <path
        d="M281 26C291.23 26 301.46 26 312 26C311.711 28.475 311.423 30.95 311.125 33.5C310.996 34.6437 310.996 34.6437 310.864 35.8105C310.788 36.4403 310.711 37.07 310.633 37.7188C310.559 38.3472 310.486 38.9756 310.411 39.623C309.806 43.1223 308.861 46.5549 308 50C298.1 50 288.2 50 278 50C278.73 41.9709 279.774 33.9685 281 26Z"
        fill="#177CE8" />
</svg>