<?xml version="1.0" encoding="UTF-8"?>
<svg version="1.1" xmlns="http://www.w3.org/2000/svg" width="1000" height="331">
<path d="M0 0 C330 0 660 0 1000 0 C1000 109.23 1000 218.46 1000 331 C670 331 340 331 0 331 C0 221.77 0 112.54 0 0 Z " fill="#FEFEFE" transform="translate(0,0)"/>
<path d="M0 0 C1.38856957 -0.01788211 2.77706657 -0.04328413 4.16534424 -0.0769043 C17.32469156 -0.3583024 29.57529738 2.72142573 39.73880005 11.47277832 C47.64612247 19.64734623 51.20680746 28.49725349 51.29519653 39.83508301 C51.27658569 40.93239746 51.25797485 42.02971191 51.23880005 43.16027832 C51.22598999 44.30786621 51.21317993 45.4554541 51.19998169 46.63781738 C50.78546202 64.05010376 45.46467908 80.58412114 33.1098938 93.29309082 C21.37762799 104.07827092 8.15040968 108.64930546 -7.57369995 108.66027832 C-8.48571167 108.67252441 -9.39772339 108.68477051 -10.33737183 108.6973877 C-15.99842962 108.70956201 -20.83074065 108.08345382 -26.26119995 106.47277832 C-26.37077026 107.57492676 -26.48034058 108.6770752 -26.5932312 109.81262207 C-27.69424543 120.47943731 -29.29551603 130.92956454 -31.26119995 141.47277832 C-41.49119995 141.47277832 -51.72119995 141.47277832 -62.26119995 141.47277832 C-60.01037137 124.59156399 -60.01037137 124.59156399 -59.13546753 118.69104004 C-59.0389773 118.03854719 -58.94248707 117.38605434 -58.84307289 116.71378899 C-58.53164646 114.60986184 -58.21867923 112.50616711 -57.9057312 110.40246582 C-57.68112177 108.88589741 -57.45660119 107.36931585 -57.23216248 105.85272217 C-56.022527 97.6877896 -54.8008306 89.52472054 -53.57028198 81.36291504 C-53.06982855 78.04020484 -52.56977296 74.7174349 -52.0697937 71.39465332 C-51.94643394 70.57593372 -51.82307419 69.75721413 -51.69597626 68.91368484 C-50.30317365 59.65764038 -48.95647915 50.40019414 -47.74006653 41.11911011 C-47.18544286 36.89333513 -46.60378858 32.67152863 -46.01861572 28.44989014 C-45.76552366 26.5622931 -45.52703005 24.67267595 -45.30383301 22.78131104 C-43.65808755 8.86772261 -43.65808755 8.86772261 -40.33078003 5.54504395 C-37.93297857 4.3910136 -35.88497167 3.87523365 -33.26119995 3.47277832 C-32.60281128 3.2944043 -31.94442261 3.11603027 -31.26608276 2.93225098 C-21.15249605 0.25815882 -10.39984056 0.12906312 0 0 Z " fill="#187CE8" transform="translate(419.2611999511719,115.5272216796875)"/>
<path d="M0 0 C1.87014771 -0.03335449 1.87014771 -0.03335449 3.77807617 -0.06738281 C17.03947245 -0.0357348 29.47764575 3.32650197 39.62109375 12.1796875 C48.6860302 21.57603023 51.01296291 33.76401094 50.90625 46.3828125 C50.00327979 64.66795918 42.96244186 83.16027218 29.55859375 95.84765625 C17.97707472 105.37023856 4.89049839 108.63256989 -9.8125 108.5625 C-10.62009766 108.56636719 -11.42769531 108.57023437 -12.25976562 108.57421875 C-17.38492963 108.56595902 -22.30231123 108.1713218 -27.375 107.4375 C-27.45540527 108.08187012 -27.53581055 108.72624023 -27.61865234 109.39013672 C-27.9920094 112.3647432 -28.37097489 115.33861064 -28.75 118.3125 C-28.87632812 119.32570313 -29.00265625 120.33890625 -29.1328125 121.3828125 C-29.26171875 122.38828125 -29.390625 123.39375 -29.5234375 124.4296875 C-29.63864746 125.34089355 -29.75385742 126.25209961 -29.87255859 127.19091797 C-30.55981142 131.63167992 -31.49372725 136.03113625 -32.375 140.4375 C-42.275 140.4375 -52.175 140.4375 -62.375 140.4375 C-62.375 135.4054156 -62.34879776 131.2537528 -61.640625 126.41015625 C-61.47820313 125.28544922 -61.31578125 124.16074219 -61.1484375 123.00195312 C-60.97570312 121.84630859 -60.80296875 120.69066406 -60.625 119.5 C-60.46773437 118.41009766 -60.31046875 117.32019531 -60.1484375 116.19726562 C-59.32079709 110.53429526 -58.45224367 104.88043353 -57.52416992 99.2331543 C-55.71873014 88.21284311 -54.04035262 77.18619896 -52.53939819 66.12071228 C-51.78416803 60.55459205 -50.99999431 54.99263497 -50.21056175 49.43127346 C-49.63065886 45.33258833 -49.06692111 41.23275518 -48.53393555 37.12768555 C-48.00752686 33.07973706 -47.44128246 29.03919229 -46.84714317 25.00065041 C-46.6305697 23.47924962 -46.42840819 21.95572018 -46.24146461 20.43039513 C-44.7875767 8.66449436 -44.7875767 8.66449436 -41.31263733 5.64608765 C-38.97537851 4.57120784 -36.89392315 3.93153765 -34.375 3.4375 C-33.66645874 3.2495285 -32.95791748 3.06155701 -32.22790527 2.8678894 C-30.22180456 2.34566074 -28.23661535 2.00020619 -26.1875 1.6875 C-25.40358887 1.56753662 -24.61967773 1.44757324 -23.81201172 1.32397461 C-15.89866258 0.27100674 -7.97497303 0.08056024 0 0 Z " fill="#177CE8" transform="translate(613.375,115.5625)"/>
<path d="M0 0 C0 3.33156374 -0.3843335 3.89855558 -2.2734375 6.484375 C-2.76287842 7.16371094 -3.25231934 7.84304687 -3.7565918 8.54296875 C-4.2906665 9.27128906 -4.82474121 9.99960938 -5.375 10.75 C-6.49505339 12.30616731 -7.61352034 13.86347757 -8.73046875 15.421875 C-9.56843994 16.58879883 -9.56843994 16.58879883 -10.42333984 17.77929688 C-12.57605355 20.81136313 -14.64182956 23.89509844 -16.6875 27 C-21.09129095 33.66240123 -25.56815111 40.27337169 -30.0625 46.875 C-30.79041748 47.94427734 -31.51833496 49.01355469 -32.26831055 50.11523438 C-33.76610279 52.31489694 -35.26405832 54.51444748 -36.76220703 56.71386719 C-40.34426436 61.97401247 -43.92197919 67.23710861 -47.5 72.5 C-48.91664439 74.58334848 -50.33331109 76.66668179 -51.75 78.75 C-52.801875 80.296875 -52.801875 80.296875 -53.875 81.875 C-60.25 91.25 -60.25 91.25 -62.37451172 94.37426758 C-63.79282379 96.46003021 -65.21111803 98.54580497 -66.62939453 100.6315918 C-70.14574116 105.80285586 -73.66238582 110.97391672 -77.1796875 116.14453125 C-78.5781521 118.2005024 -79.97658952 120.25649204 -81.375 122.3125 C-82.41479004 123.84124756 -82.41479004 123.84124756 -83.47558594 125.40087891 C-87.67673287 131.57909291 -91.87362974 137.76016799 -96.06663513 143.94390869 C-99.26442824 148.65983398 -102.46508771 153.37380705 -105.66676331 158.08709717 C-108.12418614 161.70604568 -110.57342548 165.33042687 -113.01953125 168.95703125 C-114.20039041 170.70060917 -115.3813709 172.44410493 -116.5625 174.1875 C-117.35769043 175.37255127 -117.35769043 175.37255127 -118.16894531 176.58154297 C-118.65073242 177.29068848 -119.13251953 177.99983398 -119.62890625 178.73046875 C-120.2487439 179.64928833 -120.2487439 179.64928833 -120.88110352 180.58666992 C-122 182 -122 182 -124 183 C-124.30292969 182.09121094 -124.60585937 181.18242187 -124.91796875 180.24609375 C-125.11769287 179.64716309 -125.31741699 179.04823242 -125.52319336 178.43115234 C-125.97380935 177.07880755 -126.42382227 175.72626168 -126.87329102 174.37353516 C-127.98015777 171.04488355 -129.09593547 167.7203906 -130.234375 164.40234375 C-132.63748251 157.35686946 -134.80317973 150.29099476 -136.8125 143.125 C-140.95724837 128.35848348 -145.68496821 113.76829278 -150.625 99.25 C-152.53216359 93.58553407 -154.19852476 87.87768795 -155.8125 82.125 C-160.01644705 67.14852482 -164.8387907 52.36177271 -169.8125 37.625 C-175.35314092 21.05942275 -175.35314092 21.05942275 -174 17 C-173.34555908 17.444646 -172.69111816 17.88929199 -172.0168457 18.34741211 C-165.55112226 22.73957021 -159.08342312 27.12880148 -152.61380005 31.51521301 C-148.77749614 34.11623531 -144.94176786 36.71810035 -141.10693359 39.32128906 C-136.90205984 42.17540757 -132.69538915 45.02686145 -128.48764038 47.8767395 C-126.83131819 48.99915355 -125.1755749 50.12242235 -123.52041626 51.24655151 C-121.181813 52.83461604 -118.84115315 54.4196041 -116.5 56.00390625 C-115.80009445 56.48018463 -115.1001889 56.95646301 -114.3790741 57.44717407 C-113.72804214 57.88685516 -113.07701019 58.32653625 -112.40625 58.77954102 C-111.84228516 59.16191422 -111.27832031 59.54428741 -110.69726562 59.93824768 C-108.83080829 61.10584064 -107.03252065 62.14762875 -105 63 C-102.63757271 62.19056817 -102.63757271 62.19056817 -100.265625 60.58203125 C-99.31558594 59.99679688 -98.36554688 59.4115625 -97.38671875 58.80859375 C-96.35160156 58.14988281 -95.31648438 57.49117187 -94.25 56.8125 C-92.57357266 55.7753714 -90.89710288 54.73830867 -89.21911621 53.70370483 C-88.02590692 52.96694944 -86.83396021 52.22814588 -85.64318848 51.48745728 C-79.16754098 47.46150861 -72.60674409 43.58279709 -66.04110718 39.70599365 C-62.62991944 37.69048423 -59.22316388 35.6675169 -55.81640625 33.64453125 C-55.15191971 33.25003784 -54.48743317 32.85554443 -53.80281067 32.44909668 C-35.79494512 21.75414946 -17.87454528 10.91612198 0 0 Z " fill="#FF8E14" transform="translate(228,59)"/>
<path d="M0 0 C1.10730469 -0.02449219 2.21460938 -0.04898438 3.35546875 -0.07421875 C15.77426823 -0.1179983 25.05018894 3.65466799 33.99609375 12.15234375 C44.52221861 23.22175248 45.50404234 35.26363552 45.33984375 49.734375 C44.89563341 66.32190637 38.79348592 84.27649608 26.6875 96.0625 C12.10423667 107.80855257 -4.63937139 110.68340527 -22.875 109.375 C-33.42688162 107.84927228 -43.66713047 102.9999179 -50.37890625 94.58203125 C-60.0088563 80.37596917 -61.16472787 63.63399305 -58.22265625 46.9609375 C-54.11529471 30.21418445 -45.76293572 16.32272437 -31.21484375 6.7734375 C-21.29495028 0.84468648 -11.32698036 0.01309477 0 0 Z " fill="#187CE8" transform="translate(729.875,115.625)"/>
<path d="M0 0 C1.07445122 -0.00287018 1.07445122 -0.00287018 2.17060852 -0.00579834 C3.67909092 -0.00715147 5.1875853 -0.00351636 6.69604492 0.00488281 C8.9649582 0.0155157 11.23306538 0.00499912 13.50195312 -0.0078125 C21.88918192 -0.01561404 30.10738529 0.22555551 38.30078125 2.265625 C39.30078125 3.265625 39.30078125 3.265625 39.48828125 6.828125 C39.44866745 10.52541337 38.80309077 13.75292068 37.8125 17.30078125 C37.04107799 20.2628062 36.68013879 23.23076472 36.30078125 26.265625 C35.54539062 26.1934375 34.79 26.12125 34.01171875 26.046875 C26.2489263 25.3924007 18.52667224 25.12962701 10.73828125 25.078125 C9.78679199 25.06523437 8.83530273 25.05234375 7.85498047 25.0390625 C1.34768136 25.01316728 1.34768136 25.01316728 -4.69921875 27.265625 C-6.00973733 28.37065572 -6.00973733 28.37065572 -6.046875 31.12109375 C-6.03222868 34.33190484 -6.03222868 34.33190484 -3.8203125 36.06640625 C-2.93472656 36.56527344 -2.04914062 37.06414062 -1.13671875 37.578125 C-0.13769531 38.16335937 0.86132812 38.74859375 1.890625 39.3515625 C3.01597656 39.98320312 4.14132812 40.61484375 5.30078125 41.265625 C30.2893338 55.59195499 30.2893338 55.59195499 35.30078125 70.265625 C36.81023931 78.88211475 34.09053018 86.6197365 29.67578125 93.953125 C22.52675379 103.98623445 10.98069244 107.21472346 -0.69921875 109.265625 C-14.61826718 110.1253884 -28.14698601 109.55153068 -41.69921875 106.265625 C-43.36441394 105.92501689 -45.03053276 105.58869766 -46.69921875 105.265625 C-45.49961172 97.23846732 -44.2017573 89.2418669 -42.69921875 81.265625 C-39.0012231 81.70938448 -35.32239372 82.16109757 -31.6484375 82.77734375 C-24.98424238 83.86114019 -18.44286595 84.49528642 -11.69921875 84.578125 C-10.9935376 84.59560791 -10.28785645 84.61309082 -9.56079102 84.63110352 C-4.86972239 84.62607318 -1.72022481 83.64681453 2.30078125 81.265625 C3.05491478 78.02205924 3.05491478 78.02205924 2.30078125 74.265625 C-0.29309803 71.65802149 -3.50526992 70.04800014 -6.69921875 68.265625 C-32.63396363 53.46139036 -32.63396363 53.46139036 -37.69921875 38.265625 C-38.58833162 27.74202676 -37.14718894 20.43368539 -30.69921875 12.078125 C-22.95153704 3.71263246 -11.11923729 0.01912752 0 0 Z " fill="#187CE8" transform="translate(516.69921875,115.734375)"/>
<path d="M0 0 C28.05 0 56.1 0 85 0 C85 11.29927007 85 11.29927007 84.0625 16.5 C83.88847656 17.5003125 83.71445312 18.500625 83.53515625 19.53125 C83 22 83 22 82 24 C73.42 24 64.84 24 56 24 C55.88269531 26.03027344 55.76539063 28.06054688 55.64453125 30.15234375 C55.12491561 37.4023924 54.01534095 44.42305049 52.6875 51.5625 C50.93620714 61.33263903 49.36710043 71.09777556 48.0625 80.9375 C46.47452784 92.86062147 44.68514062 104.74367389 42.8125 116.625 C42.67989777 117.47230682 42.54729553 118.31961365 42.41067505 119.19259644 C42.0332983 121.6002384 41.65214769 124.00724827 41.26953125 126.4140625 C41.15615417 127.13768478 41.0427771 127.86130707 40.92596436 128.6068573 C40.45941504 131.51188655 39.93258387 134.2022484 39 137 C28.77 137 18.54 137 8 137 C8 132.45032845 8.05541743 128.76597186 8.73095703 124.39233398 C8.8919841 123.33301163 9.05301117 122.27368927 9.21891785 121.18226624 C9.39675308 120.04832932 9.57458832 118.9143924 9.7578125 117.74609375 C9.9414888 116.54806625 10.1251651 115.35003876 10.31440735 114.1157074 C10.81037216 110.88835276 11.31098855 107.66176544 11.81403732 104.43550873 C12.33393191 101.09506308 12.8483305 97.75377072 13.36352539 94.41259766 C14.38210739 87.81398293 15.40824253 81.21656606 16.4364624 74.6194458 C16.95372854 71.29718879 17.46892083 67.97462079 17.98291016 64.65185547 C18.67395071 60.18478529 19.3680614 55.71820969 20.06610107 51.25222778 C20.31084736 49.68567057 20.55488313 48.11900216 20.79815674 46.55221558 C21.13197083 44.40672259 21.46965701 42.26187641 21.80859375 40.1171875 C21.99220459 38.94784668 22.17581543 37.77850586 22.36499023 36.57373047 C23.11416744 32.35748443 24.07104114 28.18031489 25 24 C15.76 24 6.52 24 -3 24 C-3 16 -3 16 0 0 Z " fill="#177BE8" transform="translate(240,85)"/>
<path d="M0 0 C1.27274493 3.69532172 0.79643909 6.69040606 0.22265625 10.515625 C0.03896484 11.76601562 -0.14472656 13.01640625 -0.33398438 14.3046875 C-0.53314453 15.60664062 -0.73230469 16.90859375 -0.9375 18.25 C-1.13547481 19.58062384 -1.33274828 20.91135224 -1.52929688 22.2421875 C-2.01262705 25.49582478 -2.50541559 28.74805445 -3 32 C4.26 32 11.52 32 19 32 C18.5359375 35.7434375 18.5359375 35.7434375 18.0625 39.5625 C17.96718994 40.33408447 17.87187988 41.10566895 17.77368164 41.90063477 C17.65561157 42.84894165 17.65561157 42.84894165 17.53515625 43.81640625 C17.456604 44.45006104 17.37805176 45.08371582 17.29711914 45.73657227 C16.8913108 48.82798488 16.44094245 51.91340282 16 55 C8.41 55 0.82 55 -7 55 C-7.26554688 57.01480469 -7.53109375 59.02960938 -7.8046875 61.10546875 C-8.06940061 63.10474932 -8.33412432 65.1040285 -8.59912109 67.10327148 C-8.77995101 68.46941747 -8.96030665 69.83562634 -9.14013672 71.2019043 C-10.20068513 79.25673988 -11.32177237 87.29704231 -12.59448242 95.3215332 C-13.11748376 98.77598698 -13.50657165 101.52636583 -13 105 C-10.23219653 108.57905621 -8.72915065 109.86323703 -4.23046875 110.70703125 C-2.88365134 110.76615982 -1.53556474 110.80088987 -0.1875 110.8125 C0.50537109 110.83763672 1.19824219 110.86277344 1.91210938 110.88867188 C3.60747122 110.94713263 5.30379287 110.97653047 7 111 C6.02716362 119.4346984 5.06297567 127.7480973 3 136 C-3.0191438 138.09252783 -8.5317662 138.33401708 -14.875 138.3125 C-15.81730469 138.32861328 -16.75960937 138.34472656 -17.73046875 138.36132812 C-25.61041229 138.3667776 -33.67327155 137.27132946 -39.6484375 131.61328125 C-46.44141736 123.50489777 -46.66935797 115.11834724 -46 105 C-45.45776391 100.18458403 -44.71491238 95.4257316 -43.8921814 90.65127563 C-43.19165995 86.58535126 -42.53115504 82.51279666 -41.86328125 78.44140625 C-41.71727982 77.55855453 -41.57127838 76.67570282 -41.42085266 75.76609802 C-40.16546072 68.13387948 -39.00020099 60.48937107 -37.85546875 52.83984375 C-37.67537262 51.63652405 -37.49527649 50.43320435 -37.3097229 49.19342041 C-36.58854484 44.36590811 -35.86939332 39.53809968 -35.15283203 34.7098999 C-34.64971605 31.32318618 -34.14342869 27.93695881 -33.63671875 24.55078125 C-33.41051094 23.01586281 -33.41051094 23.01586281 -33.17973328 21.44993591 C-33.03880753 20.51037552 -32.89788177 19.57081512 -32.75268555 18.6027832 C-32.5699836 17.37239067 -32.5699836 17.37239067 -32.3835907 16.11714172 C-32 14 -32 14 -31 11 C-28.6986978 9.94988017 -26.50944308 9.09980482 -24.12109375 8.30078125 C-23.4344313 8.0608696 -22.74776886 7.82095795 -22.04029846 7.57377625 C-19.8430279 6.80892384 -17.64052595 6.06059341 -15.4375 5.3125 C-13.9481947 4.79730098 -12.45925696 4.28103809 -10.97070312 3.76367188 C-7.31795509 2.49672365 -3.66043163 1.2445657 0 0 Z " fill="#187CE8" transform="translate(889,86)"/>
<path d="M0 0 C3.939375 0.020625 7.87875 0.04125 11.9375 0.0625 C10.9475 7.9825 9.9575 15.9025 8.9375 24.0625 C-0.25 24.5 -0.25 24.5 -3.11791992 24.63061523 C-3.87693604 24.66872314 -4.63595215 24.70683105 -5.41796875 24.74609375 C-6.57268677 24.80108032 -6.57268677 24.80108032 -7.75073242 24.85717773 C-10.24097623 25.07835157 -12.62105598 25.53191549 -15.0625 26.0625 C-16.5321268 33.1412346 -17.80121781 40.23554316 -18.9375 47.375 C-19.10822021 48.44097412 -19.27894043 49.50694824 -19.45483398 50.60522461 C-20.98966038 60.32766498 -22.31102553 70.07559914 -23.62353516 79.83007812 C-24.82566136 88.64646933 -26.30067978 97.34148989 -28.0625 106.0625 C-38.2925 106.0625 -48.5225 106.0625 -59.0625 106.0625 C-55.89894219 83.59404967 -52.65938792 61.1379676 -49.28710938 38.69979858 C-48.92894678 36.31600268 -48.57168807 33.93207079 -48.21533203 31.54800415 C-47.71279769 28.1891206 -47.20659924 24.83081075 -46.69921875 21.47265625 C-46.54841354 20.46201111 -46.39760834 19.45136597 -46.24223328 18.41009521 C-46.10130753 17.48335999 -45.96038177 16.55662476 -45.81518555 15.60180664 C-45.69338425 14.79360977 -45.57158295 13.9854129 -45.4460907 13.15272522 C-45.0625 11.0625 -45.0625 11.0625 -44.0625 8.0625 C-41.18359375 6.74609375 -41.18359375 6.74609375 -37.5 5.5 C-36.86102783 5.28311523 -36.22205566 5.06623047 -35.5637207 4.84277344 C-23.65447971 0.85740347 -12.49630012 -0.09300414 0 0 Z " fill="#187CE8" transform="translate(837.0625,115.9375)"/>
<path d="M0 0 C9.9 0 19.8 0 30 0 C29.47815022 10.04698162 28.60380432 19.7578656 26.9375 29.6875 C26.49157161 32.43460328 26.04743348 35.18194801 25.60546875 37.9296875 C25.48386383 38.6816188 25.36225891 39.43355011 25.23696899 40.20826721 C24.08305139 47.38395682 23.00109919 54.56997613 21.92578125 61.7578125 C21.74663681 62.95418839 21.56749237 64.15056427 21.38291931 65.38319397 C20.65665332 70.23772159 19.93135486 75.09238793 19.20968628 79.94760132 C18.69941496 83.37818107 18.18590553 86.80826307 17.671875 90.23828125 C17.51789749 91.2806192 17.36391998 92.32295715 17.20527649 93.3968811 C17.06115829 94.35557098 16.9170401 95.31426086 16.76855469 96.30200195 C16.64373718 97.14036087 16.51891968 97.97871979 16.39031982 98.84248352 C16 101 16 101 15 104 C5.1 104 -4.8 104 -15 104 C-13.87503864 89.3755023 -13.87503864 89.3755023 -12.92431641 83.32397461 C-12.77039177 82.33056061 -12.77039177 82.33056061 -12.61335754 81.31707764 C-12.28077627 79.17807025 -11.94123681 77.04023508 -11.6015625 74.90234375 C-11.36310065 73.37707001 -11.12510428 71.85172343 -10.88754272 70.3263092 C-10.26507848 66.33691989 -9.63676836 62.34847443 -9.00701904 58.36022949 C-8.37643192 54.3611042 -7.75076778 50.36120989 -7.125 46.36132812 C-6.879468 44.79220386 -6.63392366 43.22308154 -6.3883667 41.65396118 C-6.26837059 40.88716663 -6.14837448 40.12037209 -6.02474213 39.33034134 C-5.66736957 37.04845995 -5.30927444 34.76669302 -4.95098877 32.48495483 C-3.25277734 21.66353959 -1.60488198 10.83568275 0 0 Z " fill="#177CE8" transform="translate(329,118)"/>
<path d="M0 0 C4.71640919 2.12371145 7.17619361 4.67202523 9.64453125 9.3125 C13.46838645 20.78406559 10.51397647 36.54180589 5.21875 47.17578125 C1.49212332 53.05942182 -2.67569447 57.06376917 -9.35546875 59.3125 C-15.14547227 59.93570438 -20.50963253 60.0896942 -25.91796875 57.8125 C-32.78416609 50.77024632 -33.72279182 42.4192438 -33.63671875 32.9296875 C-32.77463316 21.84230897 -29.17404573 11.42316277 -20.79296875 3.9375 C-14.55851784 -1.21708066 -7.84782465 -2.29057568 0 0 Z " fill="#FCFDFE" transform="translate(734.35546875,140.6875)"/>
<path d="M0 0 C1.06686035 0.01027222 1.06686035 0.01027222 2.15527344 0.02075195 C9.21157564 0.23671168 13.45172232 1.70172232 18.5 6.75 C23.92999239 15.39776565 24.40859246 23.01469163 22.49609375 33.07421875 C19.51873834 44.59745622 14.75730572 52.75304624 4.57421875 59.0546875 C0.23124211 60.8279444 -3.36557895 60.80777695 -8 60.6875 C-8.80630859 60.68234375 -9.61261719 60.6771875 -10.44335938 60.671875 C-13.88556064 60.62609344 -16.51558575 60.53647142 -19.8125 59.4375 C-19.28713251 48.65472434 -18.01621361 38.15245116 -16.3125 27.5 C-15.97132768 25.32945493 -15.63201735 23.1586286 -15.2935791 20.98765564 C-14.98857202 19.03693132 -14.67901412 17.08692009 -14.36914062 15.13696289 C-14.07526351 13.18384009 -13.79117138 11.22788649 -13.5912323 9.26292419 C-13.01656592 3.631574 -13.01656592 3.631574 -10.73828125 1.46484375 C-7.1177483 0.19354847 -3.7944155 -0.05543501 0 0 Z " fill="#FCFDFE" transform="translate(416.8125,139.5625)"/>
<path d="M0 0 C5.59427126 3.50722525 8.53547086 8.03069423 10.3125 14.375 C11.67969964 26.33004804 9.15544249 38.70587723 1.953125 48.47265625 C-2.29150966 53.3944112 -6.94525687 57.97683107 -13.72583008 58.54614258 C-16.09149536 58.60764431 -18.44636305 58.59858074 -20.8125 58.5625 C-21.62332031 58.56185547 -22.43414063 58.56121094 -23.26953125 58.56054688 C-26.73606041 58.53476277 -29.36612716 58.48212428 -32.6875 57.375 C-32.88602475 50.46208461 -32.15985567 44.10848296 -30.9375 37.3125 C-30.56681909 35.20458327 -30.19705614 33.09650494 -29.828125 30.98828125 C-29.63798828 29.90756348 -29.44785156 28.8268457 -29.25195312 27.71337891 C-28.67967319 24.32870943 -28.16773642 20.93961947 -27.671875 17.54296875 C-27.50655273 16.44670166 -27.34123047 15.35043457 -27.17089844 14.22094727 C-26.85332788 12.10493294 -26.54887284 9.98690069 -26.25878906 7.86694336 C-26.11151367 6.91311768 -25.96423828 5.95929199 -25.8125 4.9765625 C-25.69132813 4.13432129 -25.57015625 3.29208008 -25.4453125 2.42431641 C-24.6875 0.375 -24.6875 0.375 -22.84277344 -0.89160156 C-16.36405146 -3.09618707 -6.17020068 -2.84231893 0 0 Z " fill="#FCFDFE" transform="translate(622.6875,141.625)"/>
<path d="M0 0 C10.23 0 20.46 0 31 0 C30.71125 2.475 30.4225 4.95 30.125 7.5 C29.99569092 8.6437207 29.99569092 8.6437207 29.86376953 9.81054688 C29.78755371 10.44025391 29.71133789 11.06996094 29.6328125 11.71875 C29.55949707 12.34716797 29.48618164 12.97558594 29.41064453 13.62304688 C28.80610977 17.12230398 27.8612666 20.55493361 27 24 C17.1 24 7.2 24 -3 24 C-2.27007748 15.97085228 -1.22592421 7.96850738 0 0 Z " fill="#177CE8" transform="translate(334,85)"/>
</svg>
