<?xml version="1.0" standalone="no"?>
<!DOCTYPE svg PUBLIC "-//W3C//DTD SVG 20010904//EN"
 "http://www.w3.org/TR/2001/REC-SVG-20010904/DTD/svg10.dtd">
<svg version="1.0" xmlns="http://www.w3.org/2000/svg"
 width="985.000000pt" height="200.000000pt" viewBox="0 0 985.000000 200.000000"
 preserveAspectRatio="xMidYMid meet">

<g transform="translate(0.000000,200.000000) scale(0.100000,-0.100000)"
fill="#fff" stroke="none">
<path d="M883 1619 c-120 -20 -241 -86 -329 -180 -64 -68 -96 -124 -128 -221
-56 -167 -20 -402 81 -527 l20 -24 71 101 c40 56 104 148 144 205 39 56 116
160 170 231 54 70 98 132 98 137 0 4 -25 24 -55 44 -55 35 -66 53 -42 73 18
15 196 32 336 32 l116 0 -25 21 c-44 36 -163 89 -235 104 -77 16 -142 17 -222
4z"/>
<path d="M3785 1536 c-207 -49 -346 -246 -354 -501 -6 -209 105 -418 266 -497
57 -28 79 -33 159 -36 95 -4 160 6 222 35 l32 15 0 90 0 90 -30 -26 c-38 -31
-88 -46 -161 -46 -180 0 -323 213 -289 432 29 186 142 302 295 299 70 -1 112
-17 158 -59 l27 -26 0 92 c0 90 -1 92 -27 106 -72 37 -213 52 -298 32z"/>
<path d="M6998 1530 c-26 -4 -70 -16 -98 -25 l-50 -17 0 -489 0 -489 206 0
c263 0 341 17 422 94 69 64 98 169 71 263 -17 61 -95 142 -162 168 l-47 18 47
22 c126 59 171 187 111 314 -24 50 -84 97 -161 125 -59 21 -259 31 -339 16z
m268 -124 c48 -29 66 -68 66 -144 -1 -69 -14 -97 -63 -135 -26 -19 -141 -35
-206 -29 l-33 3 0 155 c0 151 1 155 23 164 37 16 178 6 213 -14z m-30 -421
c84 -25 125 -82 125 -176 1 -141 -65 -184 -278 -180 l-53 1 0 185 0 185 78 0
c43 0 101 -7 128 -15z"/>
<path d="M1865 1507 c-22 -12 -50 -40 -62 -62 -22 -39 -23 -46 -23 -380 0
-337 0 -340 24 -390 50 -105 146 -165 279 -173 155 -9 274 49 332 163 l30 59
3 403 3 403 -26 0 c-43 0 -91 -26 -121 -66 l-29 -37 -5 -342 c-4 -307 -7 -344
-23 -368 -42 -65 -132 -85 -205 -48 -68 36 -66 24 -72 461 l-5 395 -30 3 c-17
1 -47 -8 -70 -21z"/>
<path d="M3218 1514 c-27 -14 -45 -53 -40 -84 13 -76 100 -105 161 -54 66 56
24 155 -66 154 -15 -1 -40 -7 -55 -16z"/>
<path d="M5735 1516 c-70 -32 -105 -101 -105 -208 l0 -73 -88 0 c-136 -1 -223
-50 -279 -159 -105 -205 -42 -470 130 -547 48 -22 65 -24 212 -24 88 0 172 3
188 8 l27 7 -2 503 -3 502 -25 2 c-14 2 -38 -3 -55 -11z m-121 -392 c14 -5 16
-37 16 -255 l0 -249 -55 0 c-125 0 -177 72 -177 245 0 136 33 213 105 245 43
20 83 25 111 14z"/>
<path d="M5919 1501 c-79 -79 18 -189 120 -136 42 21 56 63 37 109 -26 62
-107 76 -157 27z"/>
<path d="M6305 1511 c-67 -41 -95 -97 -95 -187 l0 -53 -37 -3 -38 -3 -3 -72
-3 -73 40 0 40 0 3 -252 c3 -240 4 -255 25 -288 12 -19 36 -43 53 -54 36 -20
130 -32 184 -22 l36 7 0 77 0 77 -43 -3 c-72 -6 -71 -9 -69 271 l2 187 55 0
55 0 0 75 0 75 -55 0 -55 0 0 130 0 130 -32 0 c-18 0 -46 -8 -63 -19z"/>
<path d="M9025 1517 c-50 -17 -82 -45 -104 -90 -20 -42 -21 -58 -21 -480 l0
-437 26 0 c40 0 92 29 122 68 25 33 27 43 32 166 l5 130 103 -160 c148 -228
121 -205 230 -202 l93 3 -131 193 c-73 107 -129 200 -126 207 5 13 124 190
188 279 15 21 28 43 28 48 0 5 -37 8 -82 6 l-82 -3 -73 -105 c-40 -58 -89
-130 -110 -160 l-38 -55 -5 300 c-3 189 -9 300 -15 301 -5 1 -23 -3 -40 -9z"/>
<path d="M1510 1416 c0 -18 -31 -54 -122 -139 -322 -302 -839 -717 -875 -703
-23 9 -14 -9 20 -42 39 -38 49 -39 93 -12 l33 21 58 -29 c120 -61 289 -79 417
-46 205 53 377 228 427 434 20 81 15 232 -10 309 -20 64 -20 64 0 89 24 32 24
68 -1 110 -23 38 -40 41 -40 8z"/>
<path d="M2705 1263 c-16 -2 -65 -13 -107 -25 l-78 -20 0 -354 0 -354 90 0 90
0 0 309 c0 355 -10 324 104 322 55 0 64 -3 89 -31 l27 -30 0 -213 c0 -185 3
-217 19 -252 30 -65 86 -105 147 -105 l25 0 -3 298 -3 297 -27 47 c-31 52 -76
84 -146 102 -47 13 -170 18 -227 9z"/>
<path d="M3187 1263 c-4 -3 -7 -175 -7 -380 l1 -373 30 0 c62 0 130 58 149
129 6 23 9 155 7 332 l-2 294 -85 3 c-47 1 -89 -1 -93 -5z"/>
<path d="M4320 1260 c-25 -5 -67 -16 -95 -27 l-50 -19 -3 -353 -2 -354 40 6
c48 6 103 45 127 90 15 27 18 68 21 280 l4 247 24 6 c25 6 96 1 129 -10 19 -7
20 -2 22 62 2 65 1 70 -20 76 -30 8 -141 6 -197 -4z"/>
<path d="M4752 1254 c-61 -19 -131 -77 -167 -139 -36 -61 -58 -174 -51 -265
13 -178 95 -296 234 -336 73 -22 236 -15 312 12 l55 20 3 77 3 77 -61 -29
c-68 -32 -157 -47 -220 -36 -71 12 -140 90 -140 158 0 28 -19 23 248 58 96 13
180 28 187 33 11 9 12 27 5 89 -16 134 -74 228 -168 269 -60 27 -173 32 -240
12z m168 -122 c43 -21 80 -75 80 -117 l0 -31 -132 -18 c-73 -10 -141 -20 -151
-22 -16 -3 -18 2 -12 39 10 67 24 102 48 125 46 44 110 53 167 24z"/>
<path d="M5900 890 l0 -380 27 0 c45 0 109 45 132 93 20 41 21 59 21 355 l0
312 -90 0 -90 0 0 -380z"/>
<path d="M7802 1258 c-34 -5 -87 -18 -117 -29 l-55 -20 0 -60 c0 -32 2 -59 4
-59 3 0 38 14 79 30 86 34 187 41 236 15 35 -17 53 -60 49 -111 -3 -35 -6 -39
-33 -42 -70 -6 -190 -35 -238 -56 -71 -31 -124 -91 -133 -151 -17 -118 19
-195 113 -242 57 -28 60 -28 243 -28 102 0 193 3 203 7 16 7 17 27 17 270 -1
226 -4 271 -19 316 -43 127 -169 185 -349 160z m198 -508 l0 -150 -32 -1
c-131 -6 -181 11 -205 69 -18 43 -13 110 12 148 25 38 115 74 213 83 9 1 12
-35 12 -149z"/>
<path d="M8440 1259 c-36 -5 -94 -17 -130 -27 l-65 -17 -3 -353 -2 -352 90 0
90 0 0 305 c0 350 -8 325 100 325 55 0 65 -3 91 -29 l29 -29 0 -209 c0 -114 5
-224 10 -245 18 -64 128 -139 169 -114 13 9 12 524 -1 584 -14 63 -77 126
-148 145 -75 21 -152 26 -230 16z"/>
</g>
</svg>
