<svg width="1216" height="158" viewBox="0 0 1216 158" fill="none" xmlns="http://www.w3.org/2000/svg">
<path d="M64.7342 1.80006C48.7342 4.46673 32.6009 13.2667 20.8675 25.8001C12.3342 34.8667 8.06753 42.3334 3.80086 55.2667C-3.6658 77.5334 1.1342 108.867 14.6009 125.533L17.2675 128.733L26.7342 115.267C32.0675 107.8 40.6009 95.5334 45.9342 87.9334C51.1342 80.4667 61.4009 66.6001 68.6009 57.1334C75.8009 47.8001 81.6675 39.5334 81.6675 38.8667C81.6675 38.3334 78.3342 35.6667 74.3342 33.0001C67.0009 28.3334 65.5342 25.9334 68.7342 23.2667C71.1342 21.2667 94.8675 19.0001 113.534 19.0001H129.001L125.668 16.2001C119.801 11.4001 103.934 4.33339 94.3342 2.33339C84.0675 0.200058 75.4009 0.0667251 64.7342 1.80006Z" fill="white"/>
<path d="M451.667 12.8666C424.067 19.3999 405.534 45.6666 404.467 79.6666C403.667 107.533 418.467 135.4 439.934 145.933C447.534 149.667 450.467 150.333 461.134 150.733C473.801 151.267 482.467 149.933 490.734 146.067L495.001 144.067V132.067V120.067L491.001 123.533C485.934 127.667 479.267 129.667 469.534 129.667C445.534 129.667 426.467 101.267 431.001 72.0666C434.867 47.2666 449.934 31.8 470.334 32.2C479.667 32.3333 485.267 34.4666 491.401 40.0666L495.001 43.5333V31.2666C495.001 19.2666 494.867 19 491.401 17.1333C481.801 12.2 463.001 10.1999 451.667 12.8666Z" fill="white"/>
<path d="M880.067 13.667C876.601 14.2003 870.734 15.8003 867.001 17.0003L860.334 19.267V84.467V149.667H887.801C922.867 149.667 933.267 147.4 944.067 137.134C953.267 128.6 957.134 114.6 953.534 102.067C951.267 93.9337 940.867 83.1337 931.934 79.667L925.667 77.267L931.934 74.3337C948.734 66.467 954.734 49.4003 946.734 32.467C943.534 25.8003 935.534 19.5337 925.267 15.8003C917.401 13.0003 890.734 11.667 880.067 13.667ZM915.801 30.2003C922.201 34.067 924.601 39.267 924.601 49.4003C924.467 58.6003 922.734 62.3337 916.201 67.4003C912.734 69.9337 897.401 72.067 888.734 71.267L884.334 70.867V50.2003C884.334 30.067 884.467 29.5337 887.401 28.3337C892.334 26.2003 911.134 27.5337 915.801 30.2003ZM911.801 86.3337C923.001 89.667 928.467 97.267 928.467 109.8C928.601 128.6 919.801 134.334 891.401 133.8L884.334 133.667V109V84.3337H894.734C900.467 84.3337 908.201 85.267 911.801 86.3337Z" fill="white"/>
<path d="M195.667 16.7331C192.734 18.3331 189.001 22.0665 187.401 24.9998C184.467 30.1998 184.334 31.1331 184.334 75.6665C184.334 120.6 184.334 121 187.534 127.666C194.201 141.666 207.001 149.666 224.734 150.733C245.401 151.933 261.267 144.2 269.001 129L273.001 121.133L273.401 67.3998L273.801 13.6665H270.334C264.601 13.6665 258.201 17.1331 254.201 22.4665L250.334 27.3998L249.667 72.9998C249.134 113.933 248.734 118.866 246.601 122.066C241.001 130.733 229.001 133.4 219.267 128.466C210.201 123.666 210.467 125.266 209.667 66.9998L209.001 14.3331L205.001 13.9331C202.734 13.7998 198.734 14.9998 195.667 16.7331Z" fill="white"/>
<path d="M376.068 15.7994C372.468 17.6661 370.068 22.8661 370.734 26.9994C372.468 37.1327 384.068 40.9994 392.201 34.1994C401.001 26.7327 395.401 13.5327 383.401 13.6661C381.401 13.7994 378.068 14.5994 376.068 15.7994Z" fill="white"/>
<path d="M711.667 15.533C702.334 19.7997 697.667 28.9997 697.667 43.2663V52.9997H685.934C667.801 53.133 656.201 59.6663 648.734 74.1997C634.734 101.533 643.134 136.866 666.067 147.133C672.467 150.066 674.734 150.333 694.334 150.333C706.067 150.333 717.267 149.933 719.401 149.266L723.001 148.333L722.734 81.2663L722.334 14.333L719.001 14.0663C717.134 13.7997 713.934 14.4663 711.667 15.533ZM695.534 67.7997C697.401 68.4663 697.667 72.733 697.667 101.8V135H690.334C673.667 135 666.734 125.4 666.734 102.333C666.734 84.1997 671.134 73.933 680.734 69.6663C686.467 66.9997 691.801 66.333 695.534 67.7997Z" fill="white"/>
<path d="M736.201 17.5335C725.668 28.0668 738.601 42.7335 752.201 35.6668C757.801 32.8668 759.668 27.2668 757.134 21.1335C753.668 12.8668 742.868 11.0002 736.201 17.5335Z" fill="white"/>
<path d="M787.668 16.1994C778.735 21.6661 775.001 29.1327 775.001 41.1327V48.1994L770.068 48.5994L765.001 48.9994L764.601 58.5994L764.201 68.3327H769.535H774.868L775.268 101.933C775.668 133.933 775.801 135.933 778.601 140.333C780.201 142.866 783.401 146.066 785.668 147.533C790.468 150.199 803.001 151.799 810.201 150.466L815.001 149.533V139.266V128.999L809.268 129.399C799.668 130.199 799.801 130.599 800.068 93.2661L800.335 68.3327H807.668H815.001V58.3327V48.3327H807.668H800.335V30.9994V13.6661H796.068C793.668 13.6661 789.935 14.7327 787.668 16.1994Z" fill="white"/>
<path d="M1150.33 15.3999C1143.67 17.6666 1139.4 21.3999 1136.47 27.3999C1133.8 32.9999 1133.67 35.1332 1133.67 91.3999V149.667H1137.13C1142.47 149.667 1149.4 145.8 1153.4 140.6C1156.73 136.2 1157 134.867 1157.67 118.467L1158.33 101.133L1172.07 122.467C1191.8 152.867 1188.2 149.8 1202.73 149.4L1215.13 149L1197.67 123.267C1187.93 109 1180.47 96.5999 1180.87 95.6666C1181.53 93.9332 1197.4 70.3332 1205.93 58.4666C1207.93 55.6666 1209.67 52.7332 1209.67 52.0666C1209.67 51.3999 1204.73 50.9999 1198.73 51.2666L1187.8 51.6666L1178.07 65.6666C1172.73 73.3999 1166.2 82.9999 1163.4 86.9999L1158.33 94.3332L1157.67 54.3332C1157.27 29.1332 1156.47 14.3332 1155.67 14.1999C1155 14.0666 1152.6 14.5999 1150.33 15.3999Z" fill="white"/>
<path d="M148.334 28.8665C148.334 31.2665 144.2 36.0665 132.067 47.3998C89.1337 87.6665 20.2004 143 15.4004 141.133C12.3337 139.933 13.5337 142.333 18.0671 146.733C23.2671 151.8 24.6004 151.933 30.4671 148.333L34.8671 145.533L42.6004 149.4C58.6004 157.533 81.1337 159.933 98.2004 155.533C125.534 148.467 148.467 125.133 155.134 97.6665C157.8 86.8665 157.134 66.7332 153.8 56.4665C151.134 47.9332 151.134 47.9332 153.8 44.5998C157 40.3332 157 35.5332 153.667 29.9332C150.6 24.8665 148.334 24.4665 148.334 28.8665Z" fill="white"/>
<path d="M307.667 49.267C305.533 49.5337 299 51.0003 293.4 52.6003L283 55.267V102.467V149.667H295H307V108.467C307 61.1337 305.667 65.267 320.867 65.5337C328.2 65.5337 329.4 65.9337 332.733 69.667L336.333 73.667V102.067C336.333 126.734 336.733 131 338.867 135.667C342.867 144.334 350.333 149.667 358.467 149.667H361.8L361.4 109.934L361 70.3337L357.4 64.067C353.267 57.1337 347.267 52.867 337.933 50.467C331.667 48.7337 315.267 48.067 307.667 49.267Z" fill="white"/>
<path d="M371.934 49.267C371.401 49.667 371.001 72.6003 371.001 99.9337L371.134 149.667H375.134C383.401 149.667 392.468 141.934 395.001 132.467C395.801 129.4 396.201 111.8 395.934 88.2003L395.668 49.0003L384.334 48.6003C378.068 48.467 372.468 48.7337 371.934 49.267Z" fill="white"/>
<path d="M523.001 49.6664C519.668 50.3331 514.068 51.7997 510.334 53.2664L503.668 55.7997L503.268 102.866L503.001 150.066L508.334 149.266C514.734 148.466 522.068 143.266 525.268 137.266C527.268 133.666 527.668 128.2 528.068 99.9331L528.601 66.9997L531.801 66.1997C535.134 65.3997 544.601 66.0664 549.001 67.5331C551.534 68.4664 551.668 67.7997 551.934 59.2664C552.201 50.5997 552.068 49.9331 549.268 49.1331C545.268 48.0664 530.468 48.3331 523.001 49.6664Z" fill="white"/>
<path d="M580.601 50.4663C572.467 52.9997 563.134 60.733 558.334 68.9997C553.534 77.133 550.601 92.1997 551.534 104.333C553.267 128.066 564.201 143.8 582.734 149.133C592.467 152.066 614.201 151.133 624.334 147.533L631.667 144.866L632.067 134.6L632.467 124.333L624.334 128.2C615.267 132.466 603.401 134.466 595.001 133C585.534 131.4 576.334 121 576.334 111.933C576.334 108.2 573.801 108.866 609.401 104.2C622.201 102.466 633.401 100.466 634.334 99.7997C635.801 98.5997 635.934 96.1997 635.001 87.933C632.867 70.0663 625.134 57.533 612.601 52.0663C604.601 48.4663 589.534 47.7997 580.601 50.4663ZM603.001 66.733C608.734 69.533 613.667 76.733 613.667 82.333V86.4663L596.067 88.8663C586.334 90.1997 577.267 91.533 575.934 91.7997C573.801 92.1997 573.534 91.533 574.334 86.5997C575.667 77.6663 577.534 72.9997 580.734 69.933C586.867 64.0663 595.401 62.8663 603.001 66.733Z" fill="white"/>
<path d="M733.668 99.0003V149.667H737.268C743.268 149.667 751.801 143.667 754.868 137.267C757.535 131.8 757.668 129.4 757.668 89.9337V48.3337H745.668H733.668V99.0003Z" fill="white"/>
<path d="M987.267 49.933C982.734 50.5997 975.667 52.333 971.667 53.7997L964.334 56.4663V64.4663C964.334 68.733 964.6 72.333 964.867 72.333C965.267 72.333 969.934 70.4663 975.4 68.333C986.867 63.7997 1000.33 62.8663 1006.87 66.333C1011.53 68.5997 1013.93 74.333 1013.4 81.133C1013 85.7997 1012.6 86.333 1009 86.733C999.667 87.533 983.667 91.3997 977.267 94.1997C967.8 98.333 960.734 106.333 959.534 114.333C957.267 130.066 962.067 140.333 974.6 146.6C982.2 150.333 982.6 150.333 1007 150.333C1020.6 150.333 1032.73 149.933 1034.07 149.4C1036.2 148.466 1036.33 145.8 1036.33 113.4C1036.2 83.2663 1035.8 77.2663 1033.8 71.2663C1028.07 54.333 1011.27 46.5997 987.267 49.933ZM1013.67 117.666V137.666L1009.4 137.8C991.934 138.6 985.267 136.333 982.067 128.6C979.667 122.866 980.334 113.933 983.667 108.866C987 103.8 999 98.9997 1012.07 97.7997C1013.27 97.6663 1013.67 102.466 1013.67 117.666Z" fill="white"/>
<path d="M1072.33 49.8003C1067.53 50.4669 1059.8 52.0669 1055 53.4003L1046.33 55.6669L1045.93 102.734L1045.67 149.667H1057.67H1069.67V109C1069.67 62.3336 1068.6 65.6669 1083 65.6669C1090.33 65.6669 1091.67 66.0669 1095.13 69.5336L1099 73.4003V101.267C1099 116.467 1099.67 131.134 1100.33 133.934C1102.73 142.467 1117.4 152.467 1122.87 149.134C1124.6 147.934 1124.47 79.2669 1122.73 71.2669C1120.87 62.8669 1112.47 54.4669 1103 51.9336C1093 49.1336 1082.73 48.4669 1072.33 49.8003Z" fill="white"/>
</svg>
