<?xml version="1.0" encoding="UTF-8"?>
<svg id="Vrstva_1" data-name="Vrstva 1" xmlns="http://www.w3.org/2000/svg" viewBox="0 0 1648 967.76" fill="#fff">
  <defs>
    <style>
      .cls-1 {
        fill: #fff;
        stroke-width: 0px;
      }
    </style>
  </defs>
  <g>
    <path class="cls-1" d="M146.51,904.36c0,8.93-1.55,17.14-4.65,24.64-3.1,7.5-7.38,13.96-12.83,19.38-5.45,5.42-11.94,9.66-19.43,12.73-7.5,3.07-15.64,4.6-24.44,4.6H13.39c-1.91,0-3.68-.34-5.32-1.02-1.63-.68-3.05-1.62-4.24-2.81-1.19-1.19-2.13-2.61-2.81-4.25-.68-1.64-1.02-3.41-1.02-5.32v-119.83c0-1.84.34-3.58,1.02-5.21s1.62-3.07,2.81-4.3c1.19-1.23,2.61-2.18,4.24-2.86,1.64-.68,3.41-1.02,5.32-1.02h71.77c8.8,0,16.94,1.53,24.44,4.6,7.49,3.07,13.97,7.31,19.43,12.73,5.45,5.42,9.73,11.89,12.83,19.43,3.1,7.53,4.65,15.73,4.65,24.59v23.93ZM119.93,880.43c0-5.18-.84-9.92-2.51-14.21-1.67-4.29-4.04-7.95-7.1-10.99-3.07-3.03-6.74-5.39-11-7.06-4.26-1.67-8.98-2.5-14.16-2.5H26.57v93.45h58.59c5.18,0,9.9-.84,14.16-2.51,4.26-1.67,7.93-4.02,11-7.05,3.07-3.03,5.43-6.68,7.1-10.94,1.67-4.26,2.51-9.01,2.51-14.26v-23.93Z"/>
    <path class="cls-1" d="M202.1,965.71h-26.58v-146.62h26.58v146.62Z"/>
    <path class="cls-1" d="M379.78,965.71h-26.59v-35.99h-93.46v35.99h-26.58v-73.32c0-10.7,1.84-20.55,5.52-29.54,3.68-9,8.8-16.74,15.34-23.21,6.54-6.48,14.28-11.52,23.21-15.14,8.93-3.61,18.68-5.42,29.24-5.42h59.92c1.84,0,3.59.34,5.22,1.02,1.64.68,3.07,1.64,4.29,2.86,1.23,1.23,2.18,2.66,2.86,4.3.68,1.64,1.03,3.37,1.03,5.21v133.23ZM259.73,903.13h93.46v-57.46h-46.73c-.82,0-2.54.12-5.16.36-2.63.24-5.67.84-9.1,1.79-3.44.95-7.07,2.42-10.9,4.4-3.81,1.98-7.33,4.7-10.53,8.18-3.2,3.48-5.85,7.82-7.93,13.03-2.08,5.22-3.12,11.54-3.12,18.97v10.74Z"/>
    <path class="cls-1" d="M558.06,952.31c0,1.91-.35,3.68-1.02,5.32-.68,1.64-1.62,3.05-2.81,4.25-1.19,1.19-2.61,2.13-4.25,2.81-1.63.68-3.4,1.02-5.31,1.02h-95.91c-2.46,0-5.1-.29-7.92-.87-2.83-.58-5.63-1.48-8.39-2.71-2.76-1.23-5.4-2.81-7.93-4.75-2.52-1.95-4.75-4.3-6.7-7.06-1.94-2.76-3.5-5.96-4.65-9.61-1.16-3.64-1.74-7.75-1.74-12.32v-71.98c0-2.45.3-5.09.88-7.92.57-2.83,1.48-5.62,2.7-8.38,1.23-2.76,2.83-5.4,4.81-7.92,1.98-2.52,4.34-4.75,7.1-6.7,2.76-1.95,5.95-3.5,9.56-4.65,3.62-1.16,7.71-1.74,12.27-1.74h108.08v26.59h-108.08c-3.48,0-6.14.92-7.97,2.76-1.84,1.84-2.76,4.57-2.76,8.18v71.77c0,3.41.94,6.05,2.81,7.92,1.88,1.88,4.52,2.81,7.92,2.81h82.72v-33.33h-70.75v-26.79h83.94c1.91,0,3.68.36,5.31,1.07,1.64.72,3.06,1.69,4.25,2.91,1.19,1.23,2.13,2.64,2.81,4.25.67,1.61,1.02,3.32,1.02,5.16v59.92Z"/>
    <path class="cls-1" d="M735.03,954.36c0,1.91-.37,3.68-1.08,5.32-.71,1.64-1.67,3.05-2.86,4.25-1.19,1.19-2.61,2.13-4.24,2.81-1.64.68-3.37,1.02-5.22,1.02-1.63,0-3.28-.31-4.95-.92-1.67-.62-3.16-1.6-4.45-2.97l-97.14-101.43v103.27h-26.58v-135.28c0-2.73.76-5.2,2.3-7.41,1.53-2.21,3.49-3.87,5.88-4.96,2.52-1.02,5.11-1.28,7.77-.76,2.66.51,4.94,1.75,6.85,3.73l97.14,101.33v-103.27h26.59v135.28Z"/>
    <path class="cls-1" d="M922.52,906.4c0,8.93-1.54,17.15-4.61,24.64-3.07,7.5-7.33,13.97-12.78,19.43-5.45,5.46-11.9,9.7-19.38,12.73-7.46,3.03-15.59,4.55-24.39,4.55h-35.99c-8.8,0-16.94-1.52-24.44-4.55-7.5-3.03-13.97-7.27-19.43-12.73-5.45-5.45-9.73-11.92-12.83-19.43-3.1-7.5-4.66-15.71-4.66-24.64v-28.02c0-8.86,1.56-17.05,4.66-24.58,3.1-7.53,7.38-14.01,12.83-19.43,5.45-5.42,11.92-9.66,19.43-12.73,7.5-3.07,15.64-4.6,24.44-4.6h35.99c8.8,0,16.93,1.53,24.39,4.6,7.47,3.07,13.92,7.31,19.38,12.73,5.45,5.42,9.71,11.9,12.78,19.43,3.07,7.53,4.61,15.73,4.61,24.58v28.02ZM895.93,878.39c0-5.24-.84-10-2.5-14.26-1.67-4.26-4.03-7.9-7.06-10.94-3.03-3.03-6.68-5.38-10.94-7.05s-8.95-2.51-14.07-2.51h-35.99c-5.18,0-9.91.84-14.17,2.51-4.26,1.67-7.92,4.02-10.99,7.05-3.07,3.04-5.43,6.68-7.1,10.94-1.67,4.26-2.51,9.01-2.51,14.26v28.02c0,5.25.84,10,2.51,14.26,1.67,4.26,4.04,7.91,7.1,10.94,3.07,3.04,6.73,5.39,10.99,7.06,4.26,1.67,8.99,2.5,14.17,2.5h35.78c5.19,0,9.91-.83,14.17-2.5,4.26-1.67,7.92-4.02,10.99-7.06,3.07-3.03,5.44-6.68,7.11-10.94,1.66-4.26,2.5-9.01,2.5-14.26v-28.02Z"/>
    <path class="cls-1" d="M1092.42,922.56c0,5.25-.66,9.97-2,14.16-1.32,4.19-3.09,7.89-5.27,11.09-2.18,3.21-4.73,5.93-7.66,8.18-2.94,2.25-5.96,4.09-9.1,5.52-3.14,1.43-6.32,2.49-9.56,3.17-3.24.68-6.29,1.02-9.15,1.02h-102.54v-26.59h102.54c5.12,0,9.08-1.5,11.91-4.5,2.82-3,4.24-7.02,4.24-12.06,0-2.46-.38-4.7-1.12-6.75-.75-2.04-1.82-3.82-3.22-5.32-1.4-1.5-3.11-2.66-5.12-3.48-2.01-.82-4.24-1.23-6.7-1.23h-61.14c-4.3,0-8.93-.77-13.9-2.3-4.97-1.53-9.59-4-13.85-7.41-4.26-3.41-7.81-7.87-10.64-13.4-2.82-5.52-4.24-12.27-4.24-20.24s1.42-14.71,4.24-20.2c2.83-5.48,6.38-9.95,10.64-13.39,4.26-3.44,8.88-5.93,13.85-7.47,4.97-1.53,9.6-2.3,13.9-2.3h90.49v26.59h-90.49c-5.05,0-8.98,1.53-11.8,4.6-2.83,3.06-4.24,7.12-4.24,12.16s1.41,9.15,4.24,12.11c2.82,2.97,6.76,4.45,11.8,4.45h61.35c2.86.07,5.9.46,9.1,1.18,3.2.71,6.39,1.82,9.56,3.32,3.17,1.5,6.19,3.39,9.05,5.67,2.86,2.29,5.4,5.03,7.61,8.24,2.22,3.2,3.97,6.88,5.27,11.04,1.29,4.16,1.95,8.86,1.95,14.11Z"/>
    <path class="cls-1" d="M1248.22,845.67h-58.59v120.04h-26.58v-120.04h-58.7v-26.59h143.87v26.59Z"/>
    <path class="cls-1" d="M1297.25,965.71h-26.58v-146.62h26.58v146.62Z"/>
    <path class="cls-1" d="M1357.85,965.71h-26.58v-146.62h26.58v146.62ZM1484.75,965.71h-37.72l-59.82-59.92h-18.71v-26.79h18.71l59.82-59.91h37.72l-75.35,73.31,75.35,73.32Z"/>
    <path class="cls-1" d="M1648,965.71h-26.59v-35.99h-93.46v35.99h-26.58v-73.32c0-10.7,1.84-20.55,5.52-29.54,3.68-9,8.8-16.74,15.34-23.21,6.54-6.48,14.28-11.52,23.21-15.14,8.93-3.61,18.68-5.42,29.24-5.42h59.92c1.84,0,3.59.34,5.22,1.02,1.64.68,3.07,1.64,4.29,2.86,1.23,1.23,2.18,2.66,2.86,4.3.68,1.64,1.03,3.37,1.03,5.21v133.23ZM1527.95,903.13h93.46v-57.46h-46.73c-.82,0-2.54.12-5.16.36-2.63.24-5.67.84-9.1,1.79-3.44.95-7.07,2.42-10.9,4.4-3.81,1.98-7.33,4.7-10.53,8.18-3.2,3.48-5.85,7.82-7.93,13.03-2.08,5.22-3.12,11.54-3.12,18.97v10.74Z"/>
  </g>
  <g>
    <path class="cls-1" d="M251.62,489.06l-107.39,218.73c-1.7,3.37-4.19,6.09-7.52,8.14-3.33,2.06-6.98,3.08-10.99,3.08s-7.52-1.02-10.85-3.08c-3.31-2.06-5.86-4.77-7.66-8.14L0,489.06h46.02l79.71,163.37,80.02-163.37h45.88Z"/>
    <path class="cls-1" d="M320.51,715.85h-41.11v-226.79h41.11v226.79Z"/>
    <path class="cls-1" d="M599.12,620.96c0,13.82-2.4,26.52-7.19,38.12-4.79,11.59-11.41,21.59-19.85,29.97-8.43,8.38-18.46,14.94-30.05,19.69-11.6,4.75-24.2,7.12-37.8,7.12h-111.03c-2.95,0-5.69-.53-8.23-1.58-2.52-1.05-4.71-2.5-6.56-4.34-1.84-1.84-3.29-4.04-4.35-6.57-1.06-2.53-1.58-5.27-1.58-8.23v-185.35c0-2.85.52-5.53,1.58-8.06,1.06-2.53,2.51-4.75,4.35-6.64,1.84-1.9,4.04-3.37,6.56-4.43,2.54-1.05,5.28-1.58,8.23-1.58h111.03c13.6,0,26.2,2.37,37.8,7.12,11.59,4.75,21.61,11.3,30.05,19.69,8.43,8.38,15.06,18.4,19.85,30.05,4.79,11.65,7.19,24.33,7.19,38.03v37.01ZM558.01,583.95c0-8.01-1.29-15.34-3.88-21.98-2.59-6.64-6.24-12.31-10.99-17-4.75-4.69-10.42-8.33-17.01-10.92-6.59-2.58-13.89-3.87-21.9-3.87h-90.63v144.55h90.63c8.01,0,15.31-1.29,21.9-3.88,6.59-2.58,12.26-6.22,17.01-10.91,4.75-4.69,8.4-10.33,10.99-16.92,2.59-6.59,3.88-13.94,3.88-22.06v-37.01Z"/>
    <path class="cls-1" d="M959.93,715.85h-41.13v-55.67h-144.55v55.67h-41.11v-113.4c0-16.55,2.85-31.78,8.54-45.69,5.69-13.92,13.6-25.89,23.73-35.9,10.12-10.02,22.09-17.82,35.9-23.41,13.79-5.59,28.88-8.38,45.21-8.38h92.68c2.85,0,5.55.53,8.07,1.58,2.54,1.06,4.75,2.53,6.64,4.43,1.91,1.9,3.37,4.11,4.43,6.64,1.06,2.53,1.59,5.22,1.59,8.06v206.08ZM774.25,619.06h144.55v-88.87h-72.28c-1.26,0-3.93.18-7.98.55-4.07.37-8.77,1.29-14.08,2.77-5.33,1.47-10.94,3.74-16.85,6.8-5.88,3.06-11.32,7.28-16.27,12.65-4.95,5.38-9.05,12.1-12.26,20.16-3.22,8.06-4.82,17.84-4.82,29.33v16.61Z"/>
    <path class="cls-1" d="M685.1,715.85h-41.11v-226.79h41.11v226.79Z"/>
  </g>
  <path class="cls-1" d="M1443.97,348.3l-167.51-300.61c-12.75-22.96-36.59-37.57-62.83-38.5L879.04.05c-26.59-.94-51.67,12.29-65.91,34.76l-182.7,288.31c-14.21,22.42-15.49,50.69-3.36,74.3l19.87,38.69c2.38,4.63,7.14,7.54,12.34,7.54,10.37,0,17.07-10.96,12.36-20.19l-26.45-51.77c-4.56-12.54,10.39-23.04,20.64-14.51l49.03,47.04,30.26,33.03c3.63,2.86,9.35,3.68,12.58.45,2.59-2.59,3.33-8.34-.33-12-3.56-3.56-85.3-87.68-85.3-87.68-3.09-5.88-1.41-13.55,4.77-17.26l262.59-147.11c9.43-5.66,21.21,2.15,19.66,13.04l-.44,2.69-40.52,232.11c-.75,4.51,2.3,8.77,6.81,9.52,4.51.75,8.77-2.3,9.52-6.81l44.75-257.56c3.57-6.91,12.82-9.53,19.53-4.36l259.96,200.58c10.76,6.15,7.25,20.31-1.87,24.15-13.28,5.59-234.43,114.77-234.43,114.77-4.19,1.82-6.12,6.69-4.3,10.89,1.82,4.19,6.69,6.12,10.89,4.3,0,0,227.2-111.01,236.52-114.78,7.97-3.22,17.88,5.01,15.21,15.01l-91.99,276.56c-2.71,8.15-12.42,11.52-19.59,6.79l-149.9-102.71c-3.81-2.53-8.94-1.49-11.47,2.31-2.53,3.81-1.49,8.94,2.31,11.47l82.11,59,29.28,19.46c9.54,7.84,3.69,23.91-9.22,22.95l-103.67.14c-5.58,0-10.09,4.53-10.09,10.11s4.56,10.14,10.17,10.11l204.55-1.22c27.38,1.03,53.14-12.98,67.15-36.52l162.48-272.67c13.64-22.91,14.08-51.36,1.13-74.68ZM940.87,151.49l-237.49,142.47c-12.05,7.23-25.46-7.06-17.48-18.63l156.35-226.59c4.69-6.8,14.43-7.59,20.16-1.65l81.14,84.12c5.84,6.05,4.53,15.96-2.68,20.28ZM992.76,131.77c-11.06,3.65-23.23.92-31.67-7.1l-87.17-82.76c-8.51-8.83-1.27-23.46,10.91-22.06l335.19,10.8c14.56,1.68,15.74,22.39,1.46,25.71l-228.72,75.41ZM1266.64,353.9l-255.16-196.88c-8.73-6.73-5.72-20.58,5.02-23.08l211.49-65.18c7.73-1.8,15.27,3.65,15.98,11.56l43.67,262.05c1.02,11.36-11.97,18.49-21,11.52ZM1401.37,439.88l-171.78,263.56c-8.97,11.72-27.44,1.93-22.78-12.07l95.29-295.4c2.4-7.21,10.41-10.86,17.42-7.94l76.49,31.84c7.92,3.3,10.57,13.19,5.36,20.01ZM1400.75,402.89l-81.83-31.29c-4.48-1.86-7.56-6.06-7.99-10.89l-57.26-282.8c-1.36-15.08,19.72-20.02,25.2-5.9l139.1,314.09c4.17,10.73-6.58,21.22-17.21,16.79Z"/>
</svg>