<?xml version="1.0" encoding="UTF-8"?>
<svg id="Vrstva_1" data-name="Vrstva 1" xmlns="http://www.w3.org/2000/svg" xmlns:xlink="http://www.w3.org/1999/xlink" viewBox="0 0 1645.42 966.24">
  <defs>
    <style>
      .cls-1 {
        fill: #203b8f;
      }

      .cls-1, .cls-2 {
        stroke-width: 0px;
      }

      .cls-2 {
        fill: url(#Nepojmenovaný_přechod_4);
      }
    </style>
    <linearGradient id="Nepojmenovaný_přechod_4" data-name="Nepojmenovaný přechod 4" x1="617.83" y1="366.12" x2="1451.1" y2="366.12" gradientUnits="userSpaceOnUse">
      <stop offset="0" stop-color="#203b8f"/>
      <stop offset=".25" stop-color="#2e568f"/>
      <stop offset=".79" stop-color="#529d92"/>
      <stop offset="1" stop-color="#62bb93"/>
    </linearGradient>
  </defs>
  <path class="cls-1" d="M146.28,902.94c0,8.92-1.55,17.12-4.64,24.61-3.09,7.48-7.37,13.94-12.81,19.34-5.44,5.41-11.92,9.65-19.4,12.71-7.49,3.06-15.62,4.59-24.4,4.59H13.37c-1.9,0-3.67-.34-5.31-1.02-1.63-.68-3.04-1.61-4.23-2.8-1.19-1.19-2.13-2.61-2.81-4.24-.68-1.63-1.02-3.4-1.02-5.31v-119.65c0-1.84.34-3.57,1.02-5.21.68-1.63,1.62-3.06,2.81-4.29,1.19-1.23,2.61-2.18,4.23-2.86,1.64-.68,3.41-1.02,5.31-1.02h71.66c8.78,0,16.91,1.53,24.4,4.59,7.48,3.06,13.95,7.3,19.4,12.71,5.44,5.41,9.72,11.88,12.81,19.4,3.09,7.52,4.64,15.7,4.64,24.55v23.89ZM119.74,879.05c0-5.17-.83-9.91-2.5-14.19-1.67-4.28-4.03-7.94-7.09-10.97-3.06-3.03-6.73-5.38-10.98-7.05-4.25-1.66-8.97-2.5-14.13-2.5H26.53v93.31h58.5c5.17,0,9.88-.83,14.13-2.5,4.25-1.66,7.92-4.01,10.98-7.04,3.06-3.03,5.42-6.67,7.09-10.92,1.67-4.25,2.5-9,2.5-14.24v-23.89Z"/>
  <path class="cls-1" d="M201.78,964.2h-26.54v-146.39h26.54v146.39Z"/>
  <path class="cls-1" d="M379.19,964.2h-26.55v-35.94h-93.32v35.94h-26.54v-73.2c0-10.69,1.84-20.52,5.52-29.5,3.67-8.99,8.78-16.71,15.32-23.18,6.53-6.47,14.26-11.5,23.17-15.11,8.91-3.61,18.65-5.41,29.2-5.41h59.83c1.84,0,3.58.34,5.21,1.02,1.64.68,3.06,1.63,4.28,2.86,1.23,1.23,2.18,2.66,2.86,4.29.68,1.63,1.03,3.37,1.03,5.21v133.02ZM259.32,901.72h93.32v-57.37h-46.66c-.81,0-2.53.12-5.15.36-2.63.24-5.66.83-9.09,1.79-3.44.95-7.06,2.42-10.88,4.39-3.81,1.97-7.32,4.7-10.51,8.17-3.2,3.47-5.84,7.81-7.92,13.01-2.08,5.21-3.11,11.52-3.11,18.94v10.72Z"/>
  <path class="cls-1" d="M557.19,950.82c0,1.91-.35,3.68-1.02,5.31-.68,1.63-1.62,3.05-2.81,4.24-1.19,1.19-2.61,2.13-4.24,2.8-1.63.68-3.4,1.02-5.3,1.02h-95.76c-2.45,0-5.09-.29-7.91-.87-2.83-.57-5.62-1.48-8.38-2.7-2.76-1.23-5.39-2.81-7.92-4.75-2.51-1.94-4.74-4.29-6.69-7.05-1.93-2.76-3.49-5.95-4.64-9.6-1.16-3.64-1.74-7.74-1.74-12.3v-71.87c0-2.45.3-5.08.88-7.91.57-2.82,1.48-5.61,2.7-8.37,1.23-2.76,2.83-5.39,4.8-7.91,1.97-2.52,4.34-4.75,7.09-6.69,2.76-1.94,5.94-3.49,9.55-4.65,3.61-1.16,7.69-1.74,12.25-1.74h107.91v26.54h-107.91c-3.47,0-6.13.92-7.96,2.75-1.84,1.84-2.76,4.56-2.76,8.17v71.66c0,3.4.94,6.04,2.81,7.91,1.87,1.87,4.51,2.81,7.91,2.81h82.59v-33.28h-70.64v-26.75h83.81c1.9,0,3.67.36,5.3,1.07,1.64.72,3.05,1.69,4.24,2.91,1.19,1.23,2.13,2.64,2.81,4.24.67,1.6,1.02,3.32,1.02,5.15v59.83Z"/>
  <path class="cls-1" d="M733.88,952.87c0,1.9-.37,3.67-1.08,5.31-.71,1.63-1.67,3.05-2.86,4.24-1.19,1.19-2.61,2.13-4.23,2.81-1.64.68-3.37,1.02-5.21,1.02-1.63,0-3.28-.31-4.95-.92-1.67-.62-3.15-1.6-4.45-2.96l-96.99-101.27v103.11h-26.54v-135.06c0-2.72.76-5.19,2.3-7.4,1.53-2.21,3.48-3.86,5.87-4.95,2.51-1.02,5.1-1.28,7.75-.76,2.66.51,4.94,1.75,6.84,3.72l96.99,101.17v-103.11h26.55v135.06Z"/>
  <path class="cls-1" d="M921.08,904.98c0,8.92-1.54,17.12-4.6,24.61-3.06,7.49-7.32,13.95-12.76,19.4-5.44,5.45-11.89,9.68-19.34,12.71-7.45,3.03-15.57,4.54-24.35,4.54h-35.93c-8.78,0-16.91-1.52-24.4-4.54-7.49-3.03-13.95-7.26-19.4-12.71-5.44-5.44-9.72-11.91-12.81-19.4-3.09-7.48-4.65-15.69-4.65-24.61v-27.97c0-8.84,1.56-17.02,4.65-24.54,3.09-7.52,7.37-13.99,12.81-19.4,5.44-5.41,11.91-9.65,19.4-12.71,7.49-3.06,15.62-4.59,24.4-4.59h35.93c8.78,0,16.9,1.53,24.35,4.59,7.46,3.06,13.9,7.3,19.34,12.71,5.44,5.41,9.7,11.88,12.76,19.4,3.06,7.52,4.6,15.7,4.6,24.54v27.97ZM894.53,877.01c0-5.24-.83-9.99-2.49-14.24-1.67-4.25-4.02-7.89-7.05-10.92-3.02-3.03-6.67-5.37-10.92-7.04-4.25-1.67-8.93-2.5-14.04-2.5h-35.93c-5.17,0-9.89.83-14.14,2.5-4.25,1.67-7.91,4.01-10.97,7.04-3.06,3.03-5.42,6.67-7.09,10.92-1.67,4.25-2.5,9-2.5,14.24v27.97c0,5.24.83,9.99,2.5,14.24,1.67,4.25,4.03,7.9,7.09,10.92,3.06,3.03,6.72,5.38,10.97,7.05,4.25,1.67,8.98,2.5,14.14,2.5h35.73c5.18,0,9.89-.83,14.14-2.5,4.25-1.67,7.91-4.01,10.97-7.05,3.06-3.03,5.43-6.67,7.1-10.92,1.66-4.25,2.49-9,2.49-14.24v-27.97Z"/>
  <path class="cls-1" d="M1090.7,921.12c0,5.24-.66,9.95-1.99,14.14-1.32,4.18-3.08,7.88-5.26,11.08-2.18,3.2-4.72,5.92-7.65,8.17-2.93,2.24-5.95,4.08-9.09,5.51-3.13,1.43-6.31,2.49-9.55,3.16-3.24.68-6.28,1.02-9.14,1.02h-102.38v-26.54h102.38c5.11,0,9.07-1.5,11.9-4.49,2.82-2.99,4.23-7.01,4.23-12.04,0-2.45-.38-4.7-1.12-6.74-.75-2.04-1.82-3.81-3.22-5.31-1.39-1.5-3.1-2.66-5.11-3.47-2-.82-4.23-1.23-6.69-1.23h-61.05c-4.29,0-8.91-.77-13.88-2.3-4.97-1.53-9.58-3.99-13.83-7.4-4.25-3.4-7.79-7.86-10.62-13.38-2.82-5.51-4.23-12.25-4.23-20.21s1.41-14.68,4.23-20.16c2.83-5.47,6.37-9.93,10.62-13.37,4.25-3.43,8.86-5.92,13.83-7.45,4.97-1.53,9.59-2.29,13.88-2.29h90.34v26.54h-90.34c-5.04,0-8.97,1.53-11.78,4.59-2.83,3.06-4.23,7.11-4.23,12.15s1.4,9.13,4.23,12.09c2.82,2.96,6.75,4.44,11.78,4.44h61.25c2.86.07,5.89.46,9.09,1.18,3.2.71,6.38,1.82,9.55,3.32,3.16,1.5,6.18,3.38,9.04,5.66,2.86,2.28,5.39,5.02,7.6,8.22,2.22,3.2,3.97,6.87,5.26,11.03,1.29,4.15,1.94,8.85,1.94,14.09Z"/>
  <path class="cls-1" d="M1246.26,844.35h-58.5v119.85h-26.54v-119.85h-58.6v-26.54h143.65v26.54Z"/>
  <path class="cls-1" d="M1295.22,964.2h-26.54v-146.39h26.54v146.39Z"/>
  <path class="cls-1" d="M1355.72,964.2h-26.54v-146.39h26.54v146.39ZM1482.42,964.2h-37.66l-59.72-59.83h-18.68v-26.75h18.68l59.72-59.82h37.66l-75.23,73.19,75.23,73.2Z"/>
  <path class="cls-1" d="M1645.42,964.2h-26.55v-35.94h-93.32v35.94h-26.54v-73.2c0-10.69,1.84-20.52,5.52-29.5,3.67-8.99,8.78-16.71,15.32-23.18,6.53-6.47,14.26-11.5,23.17-15.11,8.91-3.61,18.65-5.41,29.2-5.41h59.83c1.84,0,3.58.34,5.21,1.02,1.64.68,3.06,1.63,4.28,2.86,1.23,1.23,2.18,2.66,2.86,4.29.68,1.63,1.03,3.37,1.03,5.21v133.02ZM1525.55,901.72h93.32v-57.37h-46.66c-.81,0-2.53.12-5.15.36-2.63.24-5.66.83-9.09,1.79-3.44.95-7.06,2.42-10.88,4.39-3.81,1.97-7.32,4.7-10.51,8.17-3.2,3.47-5.84,7.81-7.92,13.01-2.08,5.21-3.11,11.52-3.11,18.94v10.72Z"/>
  <g>
    <path class="cls-1" d="M251.23,488.3l-107.22,218.38c-1.7,3.37-4.19,6.08-7.51,8.13-3.32,2.05-6.97,3.08-10.97,3.08s-7.51-1.02-10.83-3.08c-3.31-2.05-5.86-4.76-7.65-8.13L0,488.3h45.94l79.58,163.11,79.9-163.11h45.8Z"/>
    <path class="cls-1" d="M320.01,714.73h-41.05v-226.43h41.05v226.43Z"/>
    <path class="cls-1" d="M598.18,619.98c0,13.8-2.39,26.47-7.18,38.06-4.78,11.58-11.4,21.56-19.82,29.92-8.42,8.37-18.43,14.92-30,19.66-11.58,4.74-24.16,7.11-37.74,7.11h-110.86c-2.94,0-5.68-.53-8.22-1.58-2.52-1.05-4.71-2.49-6.55-4.34-1.84-1.84-3.29-4.03-4.34-6.56-1.05-2.53-1.57-5.27-1.57-8.22v-185.06c0-2.84.52-5.52,1.57-8.05,1.05-2.53,2.5-4.74,4.34-6.63,1.84-1.9,4.03-3.37,6.55-4.42,2.53-1.05,5.27-1.57,8.22-1.57h110.86c13.58,0,26.16,2.37,37.74,7.11,11.57,4.74,21.58,11.29,30,19.66,8.42,8.37,15.03,18.37,19.82,30,4.78,11.63,7.18,24.29,7.18,37.97v36.95ZM557.13,583.04c0-8-1.29-15.31-3.87-21.94-2.58-6.63-6.23-12.29-10.97-16.98-4.74-4.68-10.4-8.32-16.98-10.9-6.58-2.57-13.87-3.86-21.86-3.86h-90.49v144.32h90.49c8,0,15.28-1.29,21.86-3.87,6.58-2.57,12.25-6.21,16.98-10.89,4.74-4.68,8.39-10.32,10.97-16.9,2.58-6.58,3.87-13.92,3.87-22.03v-36.95Z"/>
    <path class="cls-1" d="M958.42,714.73h-41.07v-55.59h-144.32v55.59h-41.05v-113.23c0-16.53,2.85-31.73,8.53-45.62,5.68-13.9,13.58-25.84,23.69-35.85,10.11-10,22.05-17.79,35.84-23.37,13.77-5.58,28.84-8.37,45.14-8.37h92.54c2.85,0,5.54.53,8.06,1.57,2.53,1.05,4.74,2.53,6.63,4.42,1.9,1.9,3.37,4.11,4.42,6.63,1.05,2.53,1.59,5.21,1.59,8.05v205.75ZM773.04,618.09h144.32v-88.73h-72.17c-1.26,0-3.92.18-7.96.55-4.06.37-8.75,1.29-14.06,2.76-5.32,1.47-10.92,3.74-16.83,6.79-5.87,3.05-11.3,7.26-16.24,12.63-4.94,5.37-9.03,12.08-12.25,20.13-3.21,8.05-4.82,17.81-4.82,29.28v16.58Z"/>
    <path class="cls-1" d="M684.03,714.73h-41.05v-226.43h41.05v226.43Z"/>
  </g>
  <path class="cls-2" d="M1441.7,347.75l-167.25-300.14c-12.73-22.92-36.53-37.51-62.73-38.43L877.67.05c-26.54-.94-51.59,12.27-65.81,34.7l-182.41,287.86c-14.19,22.39-15.46,50.61-3.36,74.18l19.84,38.63c2.37,4.62,7.13,7.53,12.33,7.53,10.35,0,17.05-10.94,12.34-20.16l-26.41-51.69c-4.55-12.52,10.37-23.01,20.61-14.49l48.96,46.96,30.21,32.98c3.62,2.85,9.33,3.68,12.56.45,2.58-2.58,3.33-8.33-.33-11.98-3.55-3.55-85.17-87.54-85.17-87.54-3.09-5.87-1.41-13.53,4.76-17.23l262.18-146.88c9.42-5.65,21.18,2.15,19.63,13.02l-.44,2.69-40.46,231.74c-.75,4.5,2.3,8.76,6.8,9.51,4.5.75,8.76-2.3,9.5-6.8l44.68-257.16c3.57-6.9,12.8-9.51,19.5-4.35l259.56,200.27c10.75,6.14,7.24,20.28-1.87,24.11-13.26,5.58-234.06,114.59-234.06,114.59-4.19,1.82-6.11,6.68-4.29,10.87,1.82,4.19,6.68,6.11,10.87,4.29,0,0,226.84-110.84,236.15-114.6,7.96-3.22,17.85,5,15.19,14.98l-91.84,276.12c-2.71,8.14-12.4,11.5-19.56,6.78l-149.67-102.55c-3.8-2.53-8.93-1.49-11.45,2.31-2.53,3.8-1.49,8.93,2.31,11.46l81.98,58.9,29.24,19.43c9.53,7.83,3.69,23.87-9.21,22.92l-103.51.14c-5.57,0-10.08,4.52-10.08,10.09s4.56,10.12,10.15,10.09l204.23-1.22c27.34,1.03,53.05-12.96,67.05-36.46l162.22-272.25c13.62-22.88,14.05-51.28,1.13-74.56ZM939.4,151.25l-237.12,142.25c-12.03,7.22-25.42-7.05-17.45-18.6l156.11-226.24c4.68-6.79,14.41-7.58,20.13-1.65l81.01,83.99c5.83,6.04,4.52,15.93-2.68,20.25ZM991.2,131.57c-11.04,3.64-23.19.92-31.62-7.09l-87.03-82.63c-8.5-8.81-1.27-23.43,10.89-22.02l334.66,10.78c14.54,1.68,15.72,22.35,1.46,25.67l-228.36,75.29ZM1264.66,353.35l-254.76-196.57c-8.71-6.72-5.71-20.54,5.01-23.04l211.16-65.07c7.72-1.8,15.25,3.64,15.96,11.54l43.61,261.64c1.02,11.34-11.95,18.46-20.97,11.5ZM1399.18,439.19l-171.51,263.14c-8.95,11.7-27.4,1.93-22.75-12.05l95.14-294.94c2.39-7.2,10.39-10.84,17.39-7.93l76.37,31.79c7.9,3.29,10.55,13.17,5.35,19.97ZM1398.56,402.25l-81.7-31.24c-4.48-1.86-7.55-6.05-7.98-10.88l-57.17-282.36c-1.36-15.05,19.69-19.98,25.16-5.89l138.88,313.6c4.16,10.72-6.57,21.19-17.18,16.77Z"/>
</svg>