<?xml version="1.0" standalone="no"?>
<!DOCTYPE svg PUBLIC "-//W3C//DTD SVG 20010904//EN"
 "http://www.w3.org/TR/2001/REC-SVG-20010904/DTD/svg10.dtd">
<svg version="1.0" xmlns="http://www.w3.org/2000/svg"
 width="1600.000000pt" height="1067.000000pt" viewBox="0 0 1600.000000 1067.000000"
 preserveAspectRatio="xMidYMid meet">

<g transform="translate(0.000000,1067.000000) scale(0.100000,-0.100000)"
fill="#fff" stroke="none">
<path d="M7723 8394 c-607 -73 -1168 -446 -1471 -977 -142 -248 -220 -507
-243 -798 -91 -1144 870 -2118 2046 -2076 513 18 970 210 1334 562 374 361
583 850 584 1365 0 193 -11 284 -59 474 -57 231 -161 453 -306 655 -75 104
-304 336 -408 413 -140 104 -402 248 -450 248 -11 0 -58 -14 -103 -31 -287
-110 -487 -381 -499 -677 l-3 -73 115 -39 c155 -51 198 -71 297 -135 270 -176
423 -473 423 -819 0 -133 -13 -208 -59 -343 -48 -143 -121 -260 -231 -373 -98
-100 -175 -155 -304 -215 -142 -67 -251 -89 -426 -89 -124 1 -159 5 -245 28
-258 69 -483 235 -633 464 -242 371 -252 885 -27 1347 153 316 412 584 729
757 235 127 500 202 796 224 l95 7 -55 19 c-255 87 -596 119 -897 82z"/>
<path d="M8877 3929 c-107 -16 -198 -73 -237 -148 -26 -51 -40 -139 -40 -248
l0 -93 -70 0 -71 0 3 -132 3 -133 68 -3 67 -3 0 -444 0 -445 145 0 145 0 0
445 0 445 90 0 90 0 0 135 0 135 -91 0 -92 0 6 78 c8 125 38 162 132 162 l45
0 0 130 0 130 -67 -1 c-38 -1 -94 -5 -126 -10z"/>
<path d="M6550 3630 c0 -154 -4 -280 -8 -280 -5 0 -33 13 -63 30 -98 54 -174
74 -279 74 -108 0 -167 -15 -268 -68 -116 -62 -224 -185 -271 -311 -45 -119
-47 -299 -5 -417 56 -160 206 -314 352 -362 159 -53 351 -35 476 44 26 17 51
30 56 30 6 0 10 -20 10 -45 l0 -45 145 0 145 0 0 815 0 815 -145 0 -145 0 0
-280z m-184 -484 c72 -33 125 -84 160 -153 24 -49 29 -70 29 -133 0 -127 -62
-227 -178 -287 -45 -24 -64 -28 -137 -28 -73 0 -92 4 -135 27 -62 32 -130 104
-158 166 -31 70 -30 171 4 242 36 78 80 124 151 160 81 40 186 43 264 6z"/>
<path d="M4685 3455 c-38 -8 -107 -33 -154 -55 -113 -54 -224 -164 -275 -270
-74 -153 -84 -311 -30 -460 33 -92 62 -139 132 -213 166 -173 415 -235 657
-163 178 54 343 225 399 415 21 73 21 239 0 312 -26 89 -85 190 -149 255 -67
68 -176 137 -217 137 -15 0 -49 -13 -75 -29 -53 -33 -101 -111 -105 -172 -3
-31 0 -35 41 -49 99 -34 168 -98 197 -185 73 -217 -77 -430 -303 -430 -84 0
-148 25 -220 87 -135 115 -151 361 -35 541 49 75 136 154 216 193 33 16 103
38 155 49 l94 19 -48 12 c-77 19 -202 22 -280 6z"/>
<path d="M7511 3444 c-212 -45 -380 -206 -445 -424 -84 -284 76 -610 352 -719
142 -56 333 -44 469 29 39 21 74 36 77 32 3 -3 6 -23 6 -44 l0 -38 145 0 145
0 0 580 0 580 -145 0 -145 0 0 -45 c0 -25 -3 -45 -7 -45 -4 0 -42 18 -85 41
-126 65 -238 81 -367 53z m284 -302 c68 -33 127 -93 158 -161 30 -65 29 -188
0 -253 -27 -60 -94 -127 -158 -159 -41 -20 -65 -24 -135 -24 -76 0 -91 3 -138
30 -68 37 -136 112 -156 172 -22 64 -20 161 3 223 49 130 152 199 296 200 57
0 81 -5 130 -28z"/>
<path d="M9622 3445 c-30 -7 -93 -32 -140 -55 -158 -78 -278 -228 -318 -396
-21 -92 -15 -235 15 -324 46 -133 156 -262 285 -335 64 -36 65 -36 103 -20 59
25 121 92 138 149 22 74 20 83 -19 90 -19 4 -61 24 -93 46 -95 64 -132 136
-133 261 0 65 4 84 30 137 57 113 162 177 290 176 94 0 167 -33 233 -103 84
-89 110 -179 95 -325 -20 -198 -203 -389 -418 -436 -123 -27 -122 -25 -49 -38
209 -38 408 16 553 150 253 231 263 613 22 854 -78 78 -190 141 -301 169 -71
18 -219 18 -293 0z"/>
<path d="M11085 3441 c-59 -16 -169 -73 -180 -92 -14 -22 -25 -5 -25 41 l0 50
-145 0 -145 0 0 -580 0 -580 150 0 150 0 0 335 c0 351 6 411 43 467 70 104
253 131 348 51 64 -54 64 -50 69 -468 l5 -380 153 -3 152 -3 0 414 c0 341 -3
423 -16 472 -37 145 -135 240 -289 281 -68 19 -197 16 -270 -5z"/>
<path d="M12365 3450 c-232 -50 -423 -225 -480 -440 -19 -72 -19 -230 0 -304
53 -204 226 -374 431 -422 78 -18 223 -21 304 -5 141 28 308 155 378 287 18
34 32 65 32 68 0 3 -70 6 -155 6 l-154 0 -48 -48 c-57 -57 -115 -77 -213 -76
-115 1 -203 57 -251 159 -50 105 -92 95 412 95 l442 0 -6 113 c-6 131 -25 195
-92 303 -104 166 -269 262 -465 269 -52 2 -113 0 -135 -5z m221 -269 c22 -10
57 -33 76 -50 34 -30 78 -103 78 -129 0 -9 -70 -12 -275 -12 -196 0 -275 3
-275 11 0 6 12 33 27 60 29 54 69 89 135 119 58 26 177 27 234 1z"/>
<path d="M2940 3436 c0 -3 73 -202 190 -521 118 -319 154 -417 192 -523 l40
-112 190 2 190 3 35 95 c54 150 139 379 258 700 26 69 66 178 90 243 l43 117
-167 -2 -166 -3 -57 -165 c-31 -91 -92 -267 -135 -392 -42 -125 -81 -224 -86
-219 -4 4 -33 79 -64 167 -30 87 -80 229 -110 314 -30 85 -66 188 -80 228
l-25 72 -169 0 c-93 0 -169 -2 -169 -4z"/>
</g>
</svg>
