<svg width="1489" height="785" viewBox="0 0 1489 785" fill="none" xmlns="http://www.w3.org/2000/svg">
<path d="M443.933 4.26673C444.467 6.66673 445 13.4667 444.867 19.3334C444.867 32.9334 442.067 39.0667 423 68.6667C379.4 136.667 331.4 201.867 254.733 297.6C240.2 315.733 228.333 331.067 228.333 331.733C228.333 332.267 230.467 337.867 233.133 344C241.667 364.267 243 368 243 373.067C243 379.867 238.733 386.533 233.667 387.6C229 388.4 229.133 388.267 231.667 393.333C234.6 399.067 240.067 402.667 245.533 402.667C251.8 402.667 255.8 399.867 257.667 394C259.667 387.733 258.733 383.733 250.2 363.867L242.867 347.067L275.267 306.533C353.667 208.4 403 140.667 445.933 72.0001C451.8 62.8001 457.4 52.1334 458.6 48.1334C461.267 38.8001 460.467 21.3334 457.133 14.6667C454.333 9.33339 448.867 3.06673 445.267 1.06673C443 -0.133273 442.867 0.133394 443.933 4.26673Z" fill="white"/>
<path d="M749.667 30.6667C724.2 32.6667 705.533 36.8 691 43.7333C682.6 47.8667 678.733 48.8 666.733 49.8667C652.867 51.2 652.333 51.3333 652.333 54.2667C652.333 58.6667 657.8 63.6 663.667 64.8C666.333 65.2 674.467 65.3333 681.533 65.0667C693.133 64.5333 695.667 63.8667 706.467 58.9333C726.467 49.8667 753.933 45.3333 789.933 45.3333C851.667 45.3333 913.667 62.2667 956.333 90.6667C967.533 98.1333 968.333 98.1333 960.333 90.8C934.733 67.0667 891.267 46.8 845.667 37.4667C816.2 31.3333 776.867 28.5333 749.667 30.6667Z" fill="white"/>
<path d="M235.533 42.5333C221.267 46.1333 209.133 56.4 202.6 70.4C194.867 86.9333 197.533 106 209.667 121.333C218.333 132.4 235.533 139.467 250.333 138.4C267.267 136.933 284.333 125.067 291.4 109.733C295.667 100.533 295.667 79.4667 291.4 70.2667C287 60.8 276.333 50.2667 266.6 46C257.8 42 243.667 40.4 235.533 42.5333Z" fill="white"/>
<path d="M119 85.7333C119 90.4 139.533 137.733 186.467 240.933C209 290.8 210.467 293.2 213 285.467C213.4 284 207.933 270.4 199.533 251.867C169.267 185.2 140.067 118.933 137.533 111.333C133.8 100.4 129.4 93.0666 123.667 88.8C121.133 86.8 119 85.4666 119 85.7333Z" fill="white"/>
<path d="M946.333 105.733V115.333L931.533 142C910.6 179.467 857.533 280.133 858.2 280.933C858.867 281.733 881.667 275.6 883.4 274.267C884.6 273.333 892.867 258.533 901.8 241.333C910.733 224.133 925.267 196.8 934.067 180.667C964.2 125.6 962.333 129.6 962.333 120.667C962.333 111.2 958.2 102.667 951.533 98.6667C949.267 97.2 947.133 96 946.867 96C946.6 96 946.333 100.4 946.333 105.733Z" fill="white"/>
<path d="M1020.87 101.333C1034.73 122.933 1040.07 135.2 1043.8 153.333C1053 198.933 1024.6 258 978.6 288.533C966.2 296.8 941.933 307.867 922.733 314.133L911 317.867L923.267 324.267L935.533 330.533L948.2 325.867C990.2 310.4 1016.07 291.6 1035.4 262.533C1067.67 213.467 1069.13 166.533 1039.8 122.933C1034.07 114.533 1016.2 94.1333 1020.87 101.333Z" fill="white"/>
<path d="M1374.07 294.533C1363.27 301.2 1355 319.067 1326.33 399.333C1307.8 450.933 1300.47 470.667 1299.67 470.667C1299.4 470.667 1298.2 467.733 1297.13 464.267C1292.33 450.133 1281.27 440.133 1266.2 436.4C1238.2 429.467 1208.73 448.667 1189.13 486.667C1171 521.733 1169.4 558 1185.13 580.933C1193.8 593.6 1205.27 600.133 1220.6 601.067C1232.73 601.733 1243 599.6 1248.2 595.2L1251.93 592L1252.87 597.333C1253.8 603.6 1258.47 607.467 1263.67 606.133C1272.6 603.867 1285.4 577.467 1309.67 510.667C1320.87 479.733 1327.8 462.667 1361 383.333C1381.13 335.2 1389.67 312.267 1389.67 306.4C1389.67 301.333 1387 294.8 1384.33 293.333C1380.73 291.467 1378.87 291.733 1374.07 294.533ZM1276.2 459.333C1284.33 463.467 1287.27 478.4 1283.8 498.133C1280.73 516 1274.87 532.8 1263.67 555.333C1258.2 566.267 1253.4 577.867 1252.87 580.8L1252.07 586.4L1247.27 583.2C1241.8 579.467 1233 578.933 1224.33 582C1221.27 583.067 1216.2 584 1213.27 584C1208.87 584 1207.13 583.067 1202.33 578.267C1195.93 572 1193.67 565.733 1193.67 554.667C1193.67 538.133 1201.67 517.6 1217 494.667C1235.8 466.267 1260.87 451.333 1276.2 459.333Z" fill="white"/>
<path d="M739.4 321.6C736.333 323.067 735.4 325.867 737.4 327.2C738.6 327.867 745.4 325.067 749 322.133C751.533 320.133 751.533 320.133 747 320.133C744.467 320.133 741 320.8 739.4 321.6Z" fill="white"/>
<path d="M805.533 384.8C795.133 406 778.6 440.133 768.733 460.667C741.8 516.4 719.667 560 715.133 566.4C712.733 569.467 708.867 573.067 706.333 574.267C701.133 576.8 700.733 578.267 703.8 584.8C705.4 588.133 707.267 589.733 711 590.8C717.667 592.8 724.467 589.6 730.467 581.467C735.133 575.333 760.733 524.4 795.133 453.067C805.267 432 819.667 402.667 827 387.867L840.467 361.2L844.733 362C860.867 365.333 885.933 376.8 900.733 387.733L909 393.6L903.667 388C887.133 370.667 850.867 350.533 829.8 347.2L824.333 346.267L805.533 384.8Z" fill="white"/>
<path d="M761.8 360.133C751.533 363.733 739.933 364.533 729.4 362.4C721.133 360.667 720.6 360.667 721.667 362.667C722.333 363.867 725.267 367.067 728.2 369.733C734.467 375.467 744.333 378.667 755.267 378.667C762.067 378.667 763.267 378.267 764.2 375.6C764.867 374 767 369.2 768.867 364.933C772.733 356.4 772.6 356.267 761.8 360.133Z" fill="white"/>
<path d="M186.333 381.733C97.1332 491.333 61.3999 538.4 20.0665 600.667C13.7999 610.133 8.59986 616.533 5.39986 618.533C-1.13348 622.667 -1.40014 627.733 4.33319 633.6C7.79986 637.067 9.13319 637.6 13.1332 636.933C15.7999 636.533 19.9332 634.533 22.3332 632.667C24.8665 630.8 35.3999 616.4 46.1999 600.133C76.1999 554.933 119.533 498.133 189.667 412C203.133 395.467 214.6 381.333 215.267 380.4C216.6 378.8 208.067 358.533 206.067 358.8C205.533 358.8 196.6 369.2 186.333 381.733Z" fill="white"/>
<path d="M981.8 373.867C1005 406.533 1016.6 450.4 1012.33 489.2C1007.4 533.467 986.867 573.867 955.4 600.8C915 635.2 860.067 655.067 791 660C724.6 664.933 649 645.733 598.6 611.2C587 603.2 586.6 604.4 597.667 614C628.333 641.067 683.933 664.133 739.667 672.933C759.533 676.133 811.933 676.133 832.733 672.933C921 659.467 981.267 623.067 1009.53 566C1016.87 551.467 1023 533.867 1025.8 519.333C1028.6 505.333 1028.2 468.933 1025.27 454.667C1018.6 423.333 1005 396.533 985 375.333L976.2 366L981.8 373.867Z" fill="white"/>
<path d="M413.667 438C400.733 444.8 394.733 454 377.933 493.333C351.267 555.733 339.933 571.067 315.8 578C302.2 582 292.733 578.8 288.2 568.933C282.867 557.2 285.667 541.067 297 518C305 501.6 315.8 487.333 327.267 478C339.667 467.867 343.667 458.133 337.667 452.667C331.267 446.933 310.867 453.6 299.267 465.333C288.733 476 275 502.8 268.467 525.333C264.867 537.467 263.4 559.6 265.533 567.6C267.667 575.6 275 585.467 281.933 589.733C290.467 595.067 303.133 597.067 313.8 594.8C324.067 592.667 334.733 588 343 582C350.2 576.8 351 576.533 351 579.333C351 582.8 356.2 591.867 358.867 593.333C362.733 595.333 365.133 594.933 368.867 591.6C371.667 589.2 373.267 584.667 377.4 568C385.4 536.267 390.2 525.733 413.8 486.533C428.467 462.267 433.667 451.467 433.667 444.933C433.667 434.933 425.133 431.867 413.667 438Z" fill="white"/>
<path d="M506.733 436.533C499.533 438.4 491.933 443.2 483.4 450.933C480.2 454 477.4 456.133 477.267 455.867C477 455.6 475.8 452.533 474.467 449.067C471.8 441.733 466.867 437.333 461.533 437.333C455.133 437.333 452.2 442.533 450.333 456.667C447.8 477.2 430.867 534.667 415.8 573.733C410.2 588.533 411.533 600.8 419.133 604.8C426.733 608.667 434.6 605.6 441.533 596C446.733 588.8 449.4 580.133 457.8 544.667C468.333 499.867 474.6 483.6 486.2 470.933C495.933 460.267 505.533 457.733 519.533 462C528.867 464.8 532.067 464.533 536.467 460.133C541.267 455.333 541.533 450.133 537.267 443.867C531.533 435.333 520.867 432.667 506.733 436.533Z" fill="white"/>
<path d="M213.267 440.133C193.667 444.667 157.667 468.8 141.667 488C132.067 499.733 129.267 505.733 130.067 513.2C130.6 517.6 129.8 522 127.533 528.8C121.4 547.333 121.133 569.733 127 581.2C131.667 590.533 145.267 596.267 162.467 596.267C197.267 596.267 236.6 564.667 257.533 519.867C276.2 480.133 271.267 447.067 245.8 440C240.067 438.4 220.333 438.533 213.267 440.133ZM232.867 456.133C237.8 458.4 239.4 463.867 238.733 475.733C236.6 508.533 202.467 561.867 173.533 577.333C157.667 585.733 143 580.8 143 566.8C143 555.6 151.933 534 162.733 518.933C171.267 506.933 173.667 502.4 173.667 498.133C173.667 489.467 201.4 463.467 217.533 457.2C224.733 454.4 228.333 454.133 232.867 456.133Z" fill="white"/>
<path d="M1120.73 440.667C1103.27 445.467 1075.8 463.067 1058.33 480.667C1043.53 495.467 1038.33 504.267 1039.4 513.2C1039.93 517.6 1039.27 522 1037 528.667C1028.47 554.267 1030.6 580.133 1041.8 588.133C1053 596 1073.4 598.533 1089 594C1118.07 585.733 1147.8 558.133 1164.33 524.667C1173.8 505.333 1176.47 496.133 1177.27 480.533C1178.33 459.867 1173.67 448.933 1161.13 442.4C1154.07 438.667 1131.4 437.733 1120.73 440.667ZM1144.6 458.8C1148.73 462.8 1148.73 462.8 1147.93 474.4C1145.27 516.133 1097.4 581.333 1069.27 581.333C1053.4 581.333 1049 572.4 1055.13 552.533C1058.87 540.667 1065.13 528 1072.73 517.867C1080.33 507.6 1083 502.4 1083 498.133C1083 489.467 1110.73 463.467 1126.87 457.2C1135.93 453.6 1139.93 454 1144.6 458.8Z" fill="white"/>
<path d="M1468.73 445.333C1464.2 447.2 1462.33 451.067 1453.93 476.8C1445 503.6 1443.27 507.733 1432.6 524C1399.27 575.6 1358.47 595.733 1340.73 569.467C1334.6 560.267 1337.4 539.333 1346.87 524.667C1355.53 511.067 1366.47 498.267 1380.2 485.467C1395.8 471.067 1399 466.667 1399 460.267C1399 455.2 1395.93 452.667 1389.8 452.8C1377.93 453.2 1358.87 468.533 1346.47 487.733C1336.6 502.933 1324.6 528.933 1322.2 540.133C1317.27 563.067 1324.47 581.733 1341.8 591.333C1348.6 595.2 1349.8 595.333 1365 595.333C1378.33 595.333 1382.6 594.8 1390.87 592.133C1402.2 588.4 1416.07 579.733 1428.07 568.667C1432.6 564.533 1436.07 561.867 1435.67 562.933C1435.4 563.867 1431.67 576.933 1427.67 592C1410.73 654.267 1394.2 693.333 1372.47 722.267C1357.8 741.733 1347.4 750.8 1330.2 758.933C1315 766 1304.07 768.267 1285 768.4C1271.13 768.4 1267.93 768 1262.33 765.333C1245.13 757.733 1235 755.6 1230.73 758.933C1221.27 766.4 1234.33 779.6 1253.8 782.533C1294.73 788.667 1328.47 781.467 1359.4 760.133C1370.87 752.133 1390.73 732.267 1399.27 720C1420.2 690.133 1439.8 646.933 1454.73 597.333C1476.6 525.067 1484.73 494.667 1487.27 475.2C1488.6 464.4 1488.6 462.267 1486.6 457.067C1482.87 447.333 1475.53 442.533 1468.73 445.333Z" fill="white"/>
</svg>
