<?xml version="1.0" standalone="no"?>
<!DOCTYPE svg PUBLIC "-//W3C//DTD SVG 20010904//EN"
 "http://www.w3.org/TR/2001/REC-SVG-20010904/DTD/svg10.dtd">
<svg version="1.0" xmlns="http://www.w3.org/2000/svg"
 width="1418.000000pt" height="828.000000pt" viewBox="0 0 1418.000000 828.000000"
 preserveAspectRatio="xMidYMid meet">

<g transform="translate(0.000000,828.000000) scale(0.100000,-0.100000)"
fill="#fff" stroke="none">
<path d="M4897 6988 c4 -18 8 -69 7 -113 0 -102 -21 -148 -164 -370 -327 -510
-687 -999 -1262 -1717 -109 -136 -198 -251 -198 -256 0 -4 16 -46 36 -92 64
-152 74 -180 74 -218 0 -51 -32 -101 -70 -109 -35 -6 -34 -5 -15 -43 22 -43
63 -70 104 -70 47 0 77 21 91 65 15 47 8 77 -56 226 l-55 126 243 304 c588
736 958 1244 1280 1759 44 69 86 149 95 179 20 70 14 201 -11 251 -21 40 -62
87 -89 102 -17 9 -18 7 -10 -24z"/>
<path d="M7190 6790 c-191 -15 -331 -46 -440 -98 -63 -31 -92 -38 -182 -46
-104 -10 -108 -11 -108 -33 0 -33 41 -70 85 -79 20 -3 81 -4 134 -2 87 4 106
9 187 46 150 68 356 102 626 102 463 0 928 -127 1248 -340 84 -56 90 -56 30
-1 -192 178 -518 330 -860 400 -221 46 -516 67 -720 51z"/>
<path d="M3334 6701 c-107 -27 -198 -104 -247 -209 -58 -124 -38 -267 53 -382
65 -83 194 -136 305 -128 127 11 255 100 308 215 32 69 32 227 0 296 -33 71
-113 150 -186 182 -66 30 -172 42 -233 26z"/>
<path d="M2460 6377 c0 -35 154 -390 506 -1164 169 -374 180 -392 199 -334 3
11 -38 113 -101 252 -227 500 -446 997 -465 1054 -28 82 -61 137 -104 169 -19
15 -35 25 -35 23z"/>
<path d="M8665 6227 l0 -72 -111 -200 c-157 -281 -555 -1036 -550 -1042 5 -6
176 40 189 50 9 7 71 118 138 247 67 129 176 334 242 455 226 413 212 383 212
450 0 71 -31 135 -81 165 -17 11 -33 20 -35 20 -2 0 -4 -33 -4 -73z"/>
<path d="M9224 6260 c104 -162 144 -254 172 -390 69 -342 -144 -785 -489
-1014 -93 -62 -275 -145 -419 -192 l-88 -28 92 -48 92 -47 95 35 c315 116 509
257 654 475 242 368 253 720 33 1047 -43 63 -177 216 -142 162z"/>
<path d="M11873 4811 c-81 -50 -143 -184 -358 -786 -139 -387 -194 -535 -200
-535 -2 0 -11 22 -19 48 -36 106 -119 181 -232 209 -210 52 -431 -92 -578
-377 -136 -263 -148 -535 -30 -707 65 -95 151 -144 266 -151 91 -5 168 11 207
44 l28 24 7 -40 c7 -47 42 -76 81 -66 67 17 163 215 345 716 84 232 136 360
385 955 151 361 215 533 215 577 0 38 -20 87 -40 98 -27 14 -41 12 -77 -9z
m-734 -1236 c61 -31 83 -143 57 -291 -23 -134 -67 -260 -151 -429 -41 -82 -77
-169 -81 -191 l-6 -42 -36 24 c-41 28 -107 32 -172 9 -23 -8 -61 -15 -83 -15
-33 0 -46 7 -82 43 -48 47 -65 94 -65 177 0 124 60 278 175 450 141 213 329
325 444 265z"/>
<path d="M7113 4608 c-23 -11 -30 -32 -15 -42 9 -5 60 16 87 38 19 15 19 15
-15 15 -19 0 -45 -5 -57 -11z"/>
<path d="M7609 4134 c-78 -159 -202 -415 -276 -569 -202 -418 -368 -745 -402
-793 -18 -23 -47 -50 -66 -59 -39 -19 -42 -30 -19 -79 12 -25 26 -37 54 -45
50 -15 101 9 146 70 35 46 227 428 485 963 76 158 184 378 239 489 l101 200
32 -6 c121 -25 309 -111 420 -193 l62 -44 -40 42 c-124 130 -396 281 -554 306
l-41 7 -141 -289z"/>
<path d="M7281 4319 c-77 -27 -164 -33 -243 -17 -62 13 -66 13 -58 -2 5 -9 27
-33 49 -53 47 -43 121 -67 203 -67 51 0 60 3 67 23 5 12 21 48 35 80 29 64 28
65 -53 36z"/>
<path d="M2965 4157 c-669 -822 -937 -1175 -1247 -1642 -47 -71 -86 -119 -110
-134 -49 -31 -51 -69 -8 -113 26 -26 36 -30 66 -25 20 3 51 18 69 32 19 14 98
122 179 244 225 339 550 765 1076 1411 101 124 187 230 192 237 10 12 -54 164
-69 162 -4 0 -71 -78 -148 -172z"/>
<path d="M8931 4216 c174 -245 261 -574 229 -865 -37 -332 -191 -635 -427
-837 -303 -258 -715 -407 -1233 -444 -498 -37 -1065 107 -1443 366 -87 60 -90
51 -7 -21 230 -203 647 -376 1065 -442 149 -24 542 -24 698 0 662 101 1114
374 1326 802 55 109 101 241 122 350 21 105 18 378 -4 485 -50 235 -152 436
-302 595 l-66 70 42 -59z"/>
<path d="M4670 3735 c-97 -51 -142 -120 -268 -415 -200 -468 -285 -583 -466
-635 -102 -30 -173 -6 -207 68 -40 88 -19 209 66 382 60 123 141 230 227 300
93 76 123 149 78 190 -48 43 -201 -7 -288 -95 -79 -80 -182 -281 -231 -450
-27 -91 -38 -257 -22 -317 16 -60 71 -134 123 -166 64 -40 159 -55 239 -38 77
16 157 51 219 96 54 39 60 41 60 20 0 -26 39 -94 59 -105 29 -15 47 -12 75 13
21 18 33 52 64 177 60 238 96 317 273 611 110 182 149 263 149 312 0 75 -64
98 -150 52z"/>
<path d="M5368 3746 c-54 -14 -111 -50 -175 -108 -24 -23 -45 -39 -46 -37 -2
2 -11 25 -21 51 -20 55 -57 88 -97 88 -48 0 -70 -39 -84 -145 -19 -154 -146
-585 -259 -878 -42 -111 -32 -203 25 -233 57 -29 116 -6 168 66 39 54 59 119
122 385 79 336 126 458 213 553 73 80 145 99 250 67 70 -21 94 -19 127 14 36
36 38 75 6 122 -43 64 -123 84 -229 55z"/>
<path d="M3167 3719 c-147 -34 -417 -215 -537 -359 -72 -88 -93 -133 -87 -189
4 -33 -2 -66 -19 -117 -46 -139 -48 -307 -4 -393 35 -70 137 -113 266 -113
261 0 556 237 713 573 140 298 103 546 -88 599 -43 12 -191 11 -244 -1z m147
-120 c37 -17 49 -58 44 -147 -16 -246 -272 -646 -489 -762 -119 -63 -229 -26
-229 79 0 84 67 246 148 359 64 90 82 124 82 156 0 65 208 260 329 307 54 21
81 23 115 8z"/>
<path d="M9973 3715 c-131 -36 -337 -168 -468 -300 -111 -111 -150 -177 -142
-244 4 -33 -1 -66 -18 -116 -64 -192 -48 -386 36 -446 84 -59 237 -78 354 -44
218 62 441 269 565 520 71 145 91 214 97 331 8 155 -27 237 -121 286 -53 28
-223 35 -303 13z m179 -136 c31 -30 31 -30 25 -117 -20 -313 -379 -802 -590
-802 -119 0 -152 67 -106 216 28 89 75 184 132 260 57 77 77 116 77 148 0 65
208 260 329 307 68 27 98 24 133 -12z"/>
<path d="M12583 3680 c-34 -14 -48 -43 -111 -236 -67 -201 -80 -232 -160 -354
-250 -387 -556 -538 -689 -341 -46 69 -25 226 46 336 65 102 147 198 250 294
117 108 141 141 141 189 0 38 -23 57 -69 56 -89 -3 -232 -118 -325 -262 -74
-114 -164 -309 -182 -393 -37 -172 17 -312 147 -384 51 -29 60 -30 174 -30
100 0 132 4 194 24 85 28 189 93 279 176 34 31 60 51 57 43 -2 -7 -30 -105
-60 -218 -127 -467 -251 -760 -414 -977 -110 -146 -188 -214 -317 -275 -114
-53 -196 -70 -339 -71 -104 0 -128 3 -170 23 -129 57 -205 73 -237 48 -71 -56
27 -155 173 -177 307 -46 560 8 792 168 86 60 235 209 299 301 157 224 304
548 416 920 164 542 225 770 244 916 10 81 10 97 -5 136 -28 73 -83 109 -134
88z"/>
</g>
</svg>
