<?xml version="1.0" standalone="no"?>
<!DOCTYPE svg PUBLIC "-//W3C//DTD SVG 20010904//EN"
 "http://www.w3.org/TR/2001/REC-SVG-20010904/DTD/svg10.dtd">
<svg version="1.0" xmlns="http://www.w3.org/2000/svg"
 width="2000.000000pt" height="662.000000pt" viewBox="0 0 2000.000000 662.000000"
 preserveAspectRatio="xMidYMid meet">

<g transform="translate(0.000000,662.000000) scale(0.100000,-0.100000)"
fill="#fff" stroke="none">
<path d="M2219 5634 c-767 -358 -1186 -559 -1191 -571 -7 -16 -572 -2444 -580
-2491 -2 -13 264 -351 837 -1060 l840 -1041 1280 0 1280 0 840 1041 c604 747
839 1046 837 1061 -8 48 -573 2474 -580 2490 -5 12 -408 206 -1152 553 -630
294 -1163 543 -1186 553 l-41 18 -1184 -553z m1176 -44 l16 -31 -28 7 c-25 7
-27 6 -15 -9 8 -9 23 -17 34 -19 29 -4 34 -26 8 -36 l-21 -8 21 -19 c22 -19
22 -19 36 0 8 10 14 25 14 32 0 7 7 13 15 13 11 0 13 -7 9 -28 -6 -32 19 -102
36 -102 29 0 50 22 50 52 0 19 9 41 22 55 21 23 48 31 48 14 0 -5 3 -22 6 -39
5 -24 2 -32 -14 -41 -18 -9 -19 -8 -14 12 5 20 4 21 -12 8 -16 -13 -15 -16 10
-43 33 -33 44 -35 44 -8 0 14 11 22 43 30 23 6 49 14 57 19 14 7 80 -12 80
-24 0 -2 -9 -9 -21 -16 -18 -9 -23 -7 -36 11 -14 20 -17 21 -25 6 -5 -9 -18
-16 -28 -16 -22 0 -35 -16 -21 -25 6 -3 8 -12 4 -20 -8 -22 15 -18 27 5 13 24
30 26 30 3 0 -9 11 -31 25 -49 31 -40 31 -44 1 -44 -25 0 -51 -23 -42 -38 8
-13 113 4 141 22 13 9 27 16 30 16 13 0 3 -28 -15 -45 -28 -25 -25 -44 8 -50
67 -15 62 -18 62 46 0 59 0 59 29 59 39 0 49 -18 17 -30 l-25 -9 27 -53 27
-53 5 50 c3 28 10 59 16 69 11 18 13 19 29 3 20 -21 29 -21 45 -2 23 27 47 27
75 -1 23 -23 26 -31 18 -57 -12 -45 -31 -45 -35 -1 -4 46 -28 59 -28 15 0 -16
5 -33 10 -36 23 -14 8 -23 -17 -9 -16 7 -34 14 -41 14 -7 0 -16 8 -19 17 -5
12 -10 0 -17 -37 l-11 -55 -40 2 c-22 2 -57 10 -78 18 -20 8 -43 15 -49 15
-24 0 47 -60 90 -77 l45 -17 -23 -18 -22 -18 36 -42 c38 -44 47 -87 22 -107
-20 -16 -39 19 -30 54 8 32 -9 32 -30 1 -10 -17 -12 -27 -5 -31 15 -10 -21
-34 -51 -35 -27 -2 -22 -5 23 -14 15 -4 27 -13 27 -21 0 -20 -63 -20 -80 0
-16 19 -29 19 -51 -1 -17 -15 -20 -15 -44 0 -33 22 -59 72 -43 82 6 4 14 2 16
-4 2 -6 12 -22 22 -34 l19 -23 1 32 c0 25 -7 35 -36 52 -30 18 -35 26 -29 44
19 60 18 78 -8 105 -14 15 -28 45 -32 69 -4 24 -11 46 -17 49 -7 5 -9 -5 -4
-30 6 -29 4 -36 -9 -36 -11 0 -15 12 -15 52 0 34 -6 58 -17 70 -15 17 -15 20
6 48 27 38 16 39 -22 3 l-28 -28 -19 25 c-11 14 -20 31 -20 38 0 7 -14 12 -39
12 -30 0 -53 11 -114 54 -42 30 -92 58 -111 61 -19 4 -40 13 -47 21 -9 12 -4
14 35 14 43 0 59 11 36 25 -5 3 -10 26 -10 51 0 37 3 44 20 44 12 0 26 -12 35
-30z m-198 -87 c3 -8 1 -18 -5 -22 -14 -8 57 -68 92 -77 20 -5 26 -2 26 10 0
23 23 20 83 -11 l52 -26 -32 -11 c-17 -6 -41 -23 -52 -38 -12 -15 -38 -32 -59
-39 -20 -6 -41 -15 -47 -19 -5 -4 -18 -10 -27 -13 -14 -5 -16 -1 -12 21 4 24
0 29 -36 45 -45 21 -49 35 -20 62 26 23 25 31 -5 67 -27 32 -33 73 -12 81 16
6 47 -11 54 -30z m346 0 c3 -16 9 -40 13 -55 9 -39 -11 -36 -25 3 -13 38 -14
79 -2 79 5 0 11 -12 14 -27z m-738 -153 c18 -35 20 -111 3 -128 -8 -8 -9 -15
-2 -22 13 -13 44 -2 44 15 0 7 8 19 17 26 15 12 16 12 9 -6 -15 -39 -18 -73
-7 -79 14 -9 53 69 54 111 1 35 27 48 27 14 0 -25 18 -37 33 -22 17 17 31 13
42 -10 14 -29 80 -52 96 -33 6 8 30 14 54 14 58 0 126 22 169 55 37 28 53 28
43 1 -12 -31 -78 -69 -128 -74 -46 -4 -49 -6 -34 -22 23 -25 18 -31 -12 -14
-16 7 -35 14 -43 14 -26 0 17 -34 57 -45 51 -14 55 -35 6 -37 l-38 -1 36 -4
c22 -3 46 -14 59 -29 21 -22 31 -24 106 -24 46 0 85 -4 88 -9 11 -17 -53 -34
-104 -28 -47 6 -50 5 -40 -13 5 -10 22 -20 37 -22 42 -5 40 -26 -3 -30 -36 -3
-37 -4 -20 -20 12 -12 33 -18 64 -18 43 0 45 -1 30 -16 -9 -9 -35 -18 -58 -20
-51 -3 -55 -6 -38 -33 11 -18 10 -23 -4 -38 -20 -19 -25 -11 -30 42 -4 36 -57
75 -102 76 -87 1 -120 6 -124 17 -2 7 6 12 20 13 l23 0 -22 11 c-13 6 -23 17
-23 25 0 15 26 18 35 3 3 -5 12 -10 18 -10 7 0 3 8 -8 16 -20 15 -63 15 -114
-1 -21 -7 -22 -5 -16 14 8 25 -15 38 -42 23 -15 -9 -21 -5 -33 21 -15 30 -18
32 -65 29 -28 -1 -63 1 -80 6 -46 13 -65 5 -65 -28 0 -15 -7 -33 -15 -40 -23
-19 -18 -34 21 -55 42 -22 74 -60 74 -86 0 -16 -8 -19 -59 -19 -51 0 -61 3
-66 20 -10 31 -31 24 -62 -22 -25 -38 -34 -43 -68 -44 -22 -1 -52 -7 -67 -14
-53 -25 -125 17 -171 98 l-30 54 26 21 c47 38 80 187 42 187 -8 0 -15 -8 -15
-19 0 -10 -6 -33 -14 -51 -10 -25 -14 -29 -20 -15 -12 32 -6 53 26 89 30 34
33 35 50 19 10 -9 18 -22 18 -28 0 -7 7 -16 16 -19 25 -9 64 -7 64 4 0 6 7 10
15 10 20 0 20 -48 0 -86 -17 -33 -19 -54 -5 -54 5 0 13 -14 18 -32 l8 -32 22
45 c12 26 20 53 16 62 -7 20 22 84 43 91 24 10 43 -13 43 -50 0 -37 11 -48 40
-39 28 9 26 17 -25 79 -50 61 -55 81 -25 91 13 4 20 15 20 30 0 46 30 105 57
111 28 7 40 -5 50 -48 3 -16 12 -28 19 -28 16 0 19 36 4 45 -16 10 -12 45 5
45 8 0 21 -13 30 -30z m706 -74 c31 -7 121 -102 149 -155 25 -49 43 -152 34
-199 -11 -66 -56 -165 -105 -236 -27 -39 -49 -75 -49 -82 0 -7 20 -20 45 -30
43 -16 46 -16 65 1 11 10 20 29 20 41 0 27 25 46 88 68 24 9 55 25 69 36 36
28 85 26 123 -6 22 -19 28 -30 21 -37 -8 -8 -15 -7 -23 1 -21 21 -57 13 -94
-22 -20 -19 -50 -40 -66 -47 -18 -7 -30 -21 -34 -38 -10 -50 -29 -76 -74 -98
-55 -29 -118 -29 -170 -3 -80 41 -134 20 -174 -69 -15 -34 -32 -85 -38 -115
-16 -75 8 -181 66 -295 24 -47 49 -113 55 -145 6 -33 12 -61 14 -62 4 -5 282
111 354 147 73 36 96 65 145 179 50 116 50 119 33 188 -12 47 -14 70 -6 99 16
60 66 130 108 152 86 46 118 93 134 198 l12 81 -28 34 c-37 43 -55 88 -55 135
0 48 23 83 56 83 29 0 30 -7 4 -40 -28 -35 -25 -59 14 -104 l33 -40 39 19 c54
25 128 31 156 13 68 -45 184 -36 227 16 8 9 17 16 22 16 13 0 -31 -69 -54 -85
-26 -18 -147 -20 -211 -3 -38 10 -48 9 -70 -5 -45 -30 -59 -63 -64 -150 -6
-103 -24 -141 -112 -232 -80 -84 -95 -108 -76 -124 10 -8 28 -4 72 16 46 21
78 28 142 31 78 4 89 2 155 -29 96 -45 147 -45 247 0 76 34 203 60 236 47 16
-6 16 -8 4 -16 -8 -6 -28 -10 -45 -10 -33 0 -148 -51 -160 -70 -4 -7 -31 -23
-59 -36 -61 -28 -175 -32 -271 -9 -33 8 -76 14 -95 14 -76 1 -193 -81 -203
-142 -16 -98 -49 -182 -105 -270 -37 -58 -123 -127 -224 -178 -127 -64 -245
-137 -268 -166 -23 -29 -21 -62 8 -118 32 -63 102 -282 102 -321 0 -22 5 -45
11 -51 7 -7 7 -28 0 -72 -6 -33 -16 -88 -22 -121 -5 -34 -28 -105 -50 -159
-54 -135 -53 -167 11 -324 36 -90 53 -147 60 -208 6 -46 12 -89 15 -96 2 -6 0
-79 -5 -163 -9 -146 -9 -153 16 -230 27 -86 27 -86 136 -150 83 -50 134 -67
223 -75 77 -7 198 -39 229 -61 31 -21 61 -17 110 16 67 45 109 60 204 71 104
12 165 37 186 76 8 16 23 36 32 44 16 12 17 12 11 -4 -4 -10 -7 -29 -7 -42 0
-31 -52 -91 -99 -114 -20 -10 -57 -24 -83 -31 -51 -13 -56 -23 -33 -54 16 -21
20 -52 7 -60 -4 -2 -29 6 -55 19 l-47 24 -46 -40 c-26 -23 -58 -45 -71 -50
-36 -14 -133 -11 -178 6 -22 8 -77 14 -125 15 l-85 0 0 -87 c0 -49 -6 -112
-13 -142 -17 -76 -8 -85 83 -79 82 6 165 41 221 93 40 38 40 53 2 74 -34 20
-100 1 -140 -40 -31 -31 -43 -35 -53 -19 -10 16 23 64 62 90 53 37 155 41 203
8 91 -62 16 -196 -154 -278 -137 -64 -224 -74 -290 -31 -37 25 -66 70 -66 103
0 15 -5 39 -12 53 -9 19 -8 31 1 49 16 29 7 92 -20 156 -28 63 -40 74 -153
134 -56 30 -113 67 -128 83 -15 15 -45 68 -68 117 -50 107 -62 185 -65 396 -2
145 -4 161 -32 240 -17 47 -44 112 -60 145 -17 33 -38 94 -48 136 l-18 75 26
100 c15 54 40 137 57 182 57 157 51 247 -30 467 -59 158 -86 261 -98 375 -12
106 -44 193 -81 219 -15 11 -57 31 -93 44 -138 50 -208 108 -258 212 -17 36
-37 65 -44 65 -8 0 -31 -7 -52 -16 -58 -24 -114 -12 -163 37 -27 28 -43 54
-48 82 -8 40 -12 43 -93 84 -46 24 -91 43 -100 43 -9 0 -31 -11 -50 -25 -26
-19 -46 -25 -87 -25 -29 0 -53 3 -53 8 0 4 19 13 43 20 23 7 59 27 80 44 38
30 41 30 125 26 122 -6 191 -46 236 -135 19 -39 46 -43 91 -13 17 11 40 20 52
20 26 0 34 11 50 70 26 91 26 98 4 143 -27 57 -61 72 -139 63 -178 -19 -187
-19 -235 2 -66 29 -150 112 -177 174 -29 68 -24 132 15 165 43 38 77 26 35
-12 -28 -26 -33 -49 -16 -88 23 -56 81 -112 146 -141 l60 -27 77 26 c64 23 90
26 157 23 51 -2 94 -10 115 -21 47 -23 63 -22 93 11 56 57 56 105 3 162 -32
34 -75 109 -75 130 0 19 27 10 37 -13 7 -14 39 -38 76 -58 59 -30 67 -38 87
-86 35 -85 14 -174 -66 -272 -29 -36 -34 -50 -28 -70 11 -42 8 -113 -9 -160
-15 -42 -15 -46 10 -107 23 -60 29 -66 84 -94 74 -37 89 -32 89 30 0 70 16
142 50 224 37 88 98 153 217 233 157 104 256 245 256 363 0 73 -34 146 -97
210 -41 41 -63 76 -33 53 6 -6 24 -13 38 -17z m815 -21 c3 -14 4 -35 1 -48 -6
-21 -6 -21 8 -3 8 11 15 28 15 38 0 30 27 20 34 -12 5 -27 9 -30 46 -30 27 0
40 -4 40 -14 0 -9 8 -12 25 -9 31 6 56 -37 36 -61 -7 -8 -10 -20 -6 -26 10
-17 62 16 69 45 8 30 17 31 41 5 25 -27 39 -25 73 11 35 37 47 33 63 -22 8
-26 17 -38 26 -34 7 3 20 8 28 11 17 7 21 -21 5 -31 -18 -11 -10 -25 15 -25
20 0 25 5 25 24 0 14 5 28 10 31 6 3 10 15 10 26 0 10 6 19 14 19 20 0 30 -18
18 -33 -5 -7 -12 -29 -15 -51 -5 -34 -3 -41 23 -63 22 -18 30 -34 30 -58 0
-34 -22 -61 -40 -50 -6 4 -10 -7 -10 -29 0 -25 4 -36 15 -36 22 0 19 -22 -10
-76 -14 -26 -23 -49 -20 -52 11 -11 88 23 93 40 2 10 8 18 13 18 12 0 11 -27
-1 -35 -10 -6 30 -89 61 -121 17 -18 18 -25 8 -48 -7 -14 -15 -26 -19 -26 -4
0 -17 23 -29 52 l-22 52 -15 -29 c-20 -39 -54 -75 -71 -75 -19 0 -16 10 17 60
29 44 29 45 9 48 -29 5 -96 -62 -111 -110 -12 -40 -28 -42 -28 -2 0 37 -26 29
-57 -17 -33 -50 -75 -74 -103 -59 -16 8 -22 7 -32 -10 -17 -27 -71 -27 -98 0
-29 29 -26 42 6 29 15 -5 29 -7 33 -4 10 11 -23 24 -57 23 -19 -1 -44 7 -61
20 l-29 21 -23 -25 c-28 -29 -55 -31 -64 -3 -11 33 2 62 40 89 30 22 32 26 18
37 -13 10 -15 20 -7 50 9 38 34 58 34 28 0 -15 2 -15 16 -4 11 9 14 22 9 47
-11 57 40 71 93 27 17 -14 34 -25 40 -25 5 0 21 -9 36 -21 31 -24 48 -17 44
19 -3 25 0 27 42 32 39 4 45 8 43 26 -2 16 5 24 24 29 15 3 39 15 54 26 37 26
49 24 49 -9 0 -23 -8 -32 -37 -47 -35 -18 -36 -19 -14 -23 36 -6 91 7 98 23 3
8 -7 35 -21 60 -20 34 -33 45 -52 45 -38 0 -110 72 -133 133 l-19 52 -18 -37
c-10 -23 -30 -44 -51 -53 -32 -15 -35 -15 -63 5 -17 12 -30 26 -30 31 0 5 -11
9 -24 9 -18 0 -27 8 -35 30 -12 35 -36 42 -25 8 14 -44 9 -53 -38 -76 -37 -19
-51 -21 -67 -12 -31 16 -26 47 10 69 28 17 29 20 12 29 -17 10 -17 11 2 17 46
15 85 35 85 45 0 15 -21 12 -41 -6 -18 -16 -109 -27 -109 -12 0 4 -7 8 -16 8
-17 0 -12 28 11 65 7 11 10 35 7 54 -4 31 -3 32 17 22 11 -6 24 -23 27 -36z
m-2088 -84 c-1 -6 -19 -20 -38 -33 -38 -26 -55 -53 -70 -114 -6 -23 -20 -54
-33 -70 -14 -19 -22 -43 -22 -69 0 -22 -4 -50 -8 -62 -6 -17 -5 -23 6 -23 23
0 61 -35 53 -48 -5 -9 -14 -7 -31 4 -15 10 -32 13 -47 8 -22 -7 -21 -8 16 -40
42 -36 62 -43 52 -19 -9 24 2 18 36 -20 43 -49 114 -91 132 -76 15 13 26 5 26
-20 0 -12 -5 -16 -14 -13 -8 3 -19 -3 -26 -15 -11 -21 -40 -29 -40 -12 0 17
-64 19 -83 3 -24 -22 -49 -5 -58 37 l-7 33 29 -28 29 -28 0 40 c0 34 -4 41
-30 52 -16 8 -38 11 -47 8 -13 -4 -23 4 -38 32 -19 35 -23 37 -75 40 l-55 3
28 -28 28 -28 19 25 20 25 0 -28 c0 -46 26 -97 49 -97 17 0 21 -6 21 -30 0
-34 -22 -94 -39 -104 -17 -11 -47 11 -61 43 -7 17 -16 29 -20 26 -4 -2 -20 10
-36 27 -75 81 -105 107 -133 113 -21 4 -31 13 -31 25 0 10 -4 22 -10 25 -5 3
-10 15 -10 26 0 15 7 19 33 19 18 0 38 -5 44 -11 9 -9 18 -8 37 5 15 9 26 21
26 26 0 17 25 11 60 -15 30 -22 50 -25 50 -7 0 4 -15 16 -32 26 -18 11 -41 26
-51 35 -18 15 -18 16 5 21 18 5 24 13 26 42 4 45 27 56 57 28 28 -26 41 -25
48 2 5 16 -1 31 -20 50 -29 31 -46 29 -19 -1 33 -37 11 -42 -29 -7 -34 29 -38
37 -29 53 8 12 23 18 48 17 30 -1 36 2 31 15 -4 9 -9 31 -12 50 -10 60 53 83
97 36 23 -25 24 -25 44 -6 12 10 30 23 41 29 25 14 68 15 63 3z m1117 -4 c6 0
22 4 38 8 29 8 35 -3 15 -24 -11 -10 -6 -18 25 -43 20 -16 37 -35 37 -40 0 -7
-5 -7 -13 0 -7 6 -40 15 -73 18 -47 6 -64 13 -86 37 -41 43 -37 60 10 51 20
-4 42 -7 47 -7z m-1125 -50 c0 -17 -44 -59 -53 -51 -7 7 33 63 46 63 4 1 7 -5
7 -12z m835 -167 c-3 -5 -10 -10 -16 -10 -5 0 -9 5 -9 10 0 6 7 10 16 10 8 0
12 -4 9 -10z m1945 -50 c21 -21 27 -55 11 -65 -5 -3 -17 5 -25 17 -22 30 -20
7 1 -31 19 -33 11 -51 -15 -35 -25 16 -38 78 -24 109 14 30 26 31 52 5z
m-1750 -24 c0 -8 -4 -18 -10 -21 -5 -3 -10 3 -10 14 0 12 5 21 10 21 6 0 10
-6 10 -14z m-76 -62 c45 -51 47 -56 32 -73 -9 -10 -16 -23 -16 -30 0 -7 -7
-19 -15 -27 -8 -9 -15 -25 -15 -37 -1 -23 -70 -107 -89 -107 -6 0 -17 14 -26
30 -11 22 -12 29 -3 28 7 -2 20 12 29 31 10 18 27 43 39 56 18 19 19 23 6 28
-14 6 -24 37 -12 37 2 0 11 3 20 6 11 4 16 1 16 -10 0 -20 19 -21 26 -1 4 9
-7 30 -25 50 -29 33 -42 75 -23 75 5 0 30 -25 56 -56z m79 14 c24 -18 40 -68
20 -68 -15 0 -73 65 -73 83 0 19 4 18 53 -15z m809 -15 c20 -18 23 -50 7 -73
-8 -13 -12 -11 -27 9 -19 28 -25 81 -9 81 6 0 19 -7 29 -17z m-2461 -183 c12
-25 24 -47 26 -49 2 -3 23 15 48 39 44 43 45 43 83 32 21 -7 51 -26 66 -43 27
-30 27 -31 4 -24 -12 4 -36 14 -52 22 -17 9 -32 11 -37 6 -15 -15 37 -55 88
-68 29 -7 48 -18 48 -26 0 -24 -48 -21 -98 5 -26 14 -47 23 -47 21 0 -3 8 -24
17 -47 11 -27 13 -43 6 -45 -6 -2 2 -29 20 -65 l31 -60 -34 -28 c-21 -17 -29
-29 -22 -34 22 -13 12 -26 -18 -26 -19 0 -30 5 -30 14 0 7 -8 16 -18 18 -20 6
-21 27 -4 69 5 14 12 76 14 138 l3 113 -32 -38 c-31 -37 -31 -39 -17 -73 8
-20 20 -38 26 -42 14 -9 -8 -103 -28 -120 -12 -9 -14 -6 -14 20 0 28 -3 31
-20 26 -17 -5 -20 -2 -20 27 -1 30 -2 32 -15 14 -10 -13 -11 -25 -4 -43 17
-46 12 -55 -26 -47 -20 3 -48 1 -64 -6 -21 -8 -39 -9 -65 -2 -29 8 -36 8 -36
-4 0 -18 52 -44 92 -45 18 0 41 -4 51 -8 17 -6 16 -8 -7 -19 -26 -12 -38 -39
-12 -29 8 3 24 -5 36 -18 17 -18 19 -27 12 -42 -13 -23 -7 -33 36 -59 30 -19
65 -65 79 -107 3 -11 12 -16 23 -12 19 6 30 -20 26 -65 -4 -45 -76 -35 -76 11
0 23 -8 24 -32 2 -17 -15 -20 -15 -48 12 -30 29 -43 58 -16 36 10 -9 16 -9 21
-1 4 6 5 12 4 13 -2 1 -14 8 -26 15 -13 6 -39 12 -58 12 -39 0 -75 28 -75 58
0 27 8 31 35 18 26 -11 33 -26 14 -26 -8 0 -8 -4 0 -14 7 -8 20 -12 30 -9 9 2
23 -3 30 -11 18 -22 31 -20 31 4 0 15 7 20 26 20 43 0 22 25 -24 28 -37 3 -42
6 -42 28 0 21 -3 23 -19 14 -11 -5 -36 -10 -57 -10 -30 0 -44 7 -76 40 -42 45
-47 73 -22 121 8 17 13 37 10 45 -3 8 0 14 6 14 19 0 58 42 58 62 0 21 44 53
60 43 8 -5 2 -17 -16 -36 -37 -39 -10 -39 36 0 40 33 37 41 -18 51 -34 6 -46
3 -81 -22 -23 -15 -48 -28 -55 -28 -8 0 -19 -7 -26 -15 -19 -23 -40 -18 -40
10 0 13 -9 47 -20 75 -25 64 -25 120 -1 169 30 58 44 65 70 37 20 -21 23 -33
20 -82 l-4 -58 34 -7 c18 -4 51 -15 72 -24 37 -17 41 -17 79 0 29 13 42 27 51
52 12 37 5 79 -16 103 -7 8 -16 26 -20 39 l-7 24 26 -19 c14 -11 36 -39 47
-64z m3663 37 c9 -14 7 -21 -8 -32 -11 -8 -29 -12 -42 -9 -17 4 -24 0 -29 -15
-8 -26 -25 -18 -25 11 0 54 78 88 104 45z m-136 -69 c-5 -50 11 -70 38 -47 10
8 14 8 14 1 0 -6 -16 -23 -35 -38 -49 -37 -48 -60 3 -39 20 9 54 27 74 40 21
14 42 25 48 25 18 0 11 -38 -11 -53 -18 -13 -19 -18 -7 -36 7 -12 18 -21 24
-21 6 0 19 -9 29 -20 10 -11 14 -20 8 -20 -5 0 -26 -16 -46 -35 l-37 -36 -28
21 c-16 12 -49 24 -73 27 -42 5 -43 4 -24 -11 11 -8 25 -16 30 -16 6 0 26 -11
46 -24 24 -16 44 -22 62 -19 20 4 27 1 27 -10 0 -9 -7 -20 -16 -25 -15 -8 -15
-11 1 -35 16 -25 16 -27 1 -33 -17 -7 -60 -2 -88 11 -32 13 -23 -49 13 -90 35
-39 32 -56 -5 -36 -16 9 -29 10 -41 4 -15 -9 -9 -15 36 -41 l54 -31 37 42 c41
46 46 46 22 -2 -15 -30 -15 -51 -2 -126 2 -15 -3 -21 -22 -23 -63 -7 -110 -34
-130 -73 -21 -40 -47 -54 -91 -47 -31 4 -37 34 -9 43 28 9 15 25 -20 25 -34 0
-50 -19 -26 -32 26 -15 21 -90 -9 -126 -14 -17 -25 -37 -25 -45 0 -29 -12 -48
-42 -63 -22 -11 -27 -20 -23 -35 4 -13 2 -19 -8 -19 -21 0 -38 25 -31 43 7 20
-24 85 -47 98 -21 11 -26 49 -7 49 7 0 25 -12 40 -27 27 -26 28 -26 28 -5 0
12 5 22 10 22 6 0 10 -20 10 -44 0 -25 5 -48 10 -51 18 -11 29 41 21 97 -5 29
-7 55 -5 57 2 2 4 0 4 -6 0 -6 11 -18 25 -27 25 -16 25 -16 25 17 0 20 -9 44
-20 57 -23 27 -23 26 -10 50 7 13 6 19 -5 24 -9 3 -15 18 -15 36 0 45 -39 80
-89 80 -31 0 -39 -3 -35 -14 13 -34 -92 -50 -134 -20 -30 21 -24 35 19 49 29
10 34 17 37 48 2 20 7 37 11 37 12 0 24 -68 15 -83 -5 -7 -1 -7 10 2 12 10 16
26 14 55 -3 38 -5 41 -35 44 -22 2 -30 7 -27 17 5 11 -2 11 -38 3 -24 -6 -52
-17 -63 -25 -11 -7 -43 -13 -72 -13 -66 0 -91 -14 -85 -47 3 -18 -1 -26 -17
-30 -25 -6 -25 -6 -5 -45 15 -29 15 -32 -1 -44 -16 -12 -15 -16 19 -55 36 -42
46 -69 26 -69 -7 0 -7 -6 0 -19 13 -26 13 -94 -2 -125 -6 -14 -22 -33 -35 -41
-22 -15 -23 -14 -23 7 0 13 9 41 19 64 l19 41 -27 49 c-14 27 -31 48 -36 47
-6 -2 -11 -21 -13 -43 -3 -41 -19 -54 -28 -22 -14 48 -70 145 -96 167 -45 38
-69 33 -32 -7 47 -52 80 -100 95 -140 7 -21 19 -38 26 -38 7 0 13 -11 13 -25
0 -29 -4 -30 -60 -10 -23 8 -56 15 -72 15 -26 0 -29 -2 -18 -16 23 -27 98 -66
122 -62 16 2 27 15 38 47 23 67 38 63 35 -8 -4 -69 -12 -88 -28 -72 -6 6 -37
11 -70 11 -32 0 -68 5 -79 11 -17 9 -23 8 -30 -5 -14 -25 -28 -19 -28 12 0 15
-11 43 -24 61 -25 34 -66 68 -66 55 0 -10 41 -76 62 -100 17 -19 17 -23 3 -57
-8 -21 -20 -37 -25 -37 -6 0 -10 -8 -10 -19 0 -24 -25 -45 -46 -37 -10 4 -29
-5 -50 -24 -24 -21 -46 -30 -72 -31 -20 -1 -30 -3 -22 -5 16 -5 41 -50 32 -59
-8 -7 -47 -6 -55 2 -4 3 -2 12 4 19 8 9 5 11 -11 7 -33 -9 -33 -22 -1 -41 32
-18 38 -36 21 -62 -8 -13 -13 -11 -32 12 -25 29 -65 48 -104 48 -39 0 -28 -16
29 -40 56 -24 107 -65 107 -87 0 -7 -12 -18 -26 -24 -26 -9 -26 -10 -9 -29 21
-23 14 -46 -19 -62 -15 -6 -30 -25 -36 -43 -6 -18 -20 -35 -30 -38 -15 -4 -20
-14 -20 -39 l-1 -33 -14 25 -14 25 -1 -37 c0 -21 -4 -38 -9 -38 -15 0 -20 37
-10 77 5 21 9 65 9 98 0 33 4 66 9 74 6 10 4 25 -5 43 -8 16 -12 33 -9 39 4 5
1 16 -5 24 -7 8 -9 26 -6 39 5 19 0 29 -22 45 l-27 21 24 20 c31 26 54 26 46
0 -7 -23 12 -28 21 -6 7 18 -13 57 -38 74 -35 25 -22 42 32 42 49 0 50 0 71
45 25 53 38 64 51 41 5 -9 21 -16 36 -16 15 0 34 -5 42 -10 12 -8 11 -10 -7
-10 -12 0 -25 -4 -28 -10 -8 -13 11 -13 36 0 15 9 19 22 19 64 0 35 5 58 15
66 12 10 16 9 21 -5 4 -9 2 -21 -5 -28 -15 -15 -13 -38 4 -61 13 -17 14 -15
14 25 -1 145 -3 136 42 169 35 25 51 30 99 30 31 0 59 2 62 5 3 3 -10 35 -28
72 -19 37 -34 68 -34 70 0 2 12 3 26 3 28 0 90 45 75 54 -7 5 -8 32 -2 81 1 6
7 -1 14 -15 7 -14 21 -26 31 -28 17 -4 18 1 13 34 -4 20 -11 41 -18 44 -8 6
-8 9 0 14 6 4 11 3 11 -2 0 -18 44 -22 61 -6 14 12 34 15 90 12 63 -4 73 -7
80 -26 5 -12 13 -22 20 -22 25 0 79 33 85 53 5 17 8 18 18 6 6 -8 28 -14 51
-14 22 0 50 -4 63 -8 20 -8 22 -5 22 27 0 43 14 46 52 9 l28 -27 0 38 c0 20 5
46 10 57 11 20 79 59 103 59 8 0 20 7 27 15 7 8 20 15 29 15 10 0 27 13 39 29
l21 29 -24 16 c-31 21 -31 31 1 91 14 27 27 65 29 84 1 20 3 40 4 45 1 5 8 2
17 -5 12 -10 15 -25 12 -61z m-3590 5 c11 -65 7 -83 -14 -56 -15 20 -19 113
-5 113 5 0 13 -26 19 -57z m1488 26 c10 -17 -13 -36 -27 -22 -12 12 -4 33 11
33 5 0 12 -5 16 -11z m903 -30 c18 -33 8 -74 -24 -95 -32 -21 -37 -16 -32 32
3 33 5 36 12 17 4 -13 11 -20 16 -17 14 8 11 36 -7 55 -17 19 -10 43 9 36 7
-2 18 -15 26 -28z m-909 -44 c6 -20 23 -49 37 -65 39 -47 17 -58 -28 -14 -32
31 -39 45 -39 76 0 48 15 49 30 3z m-1575 13 c40 -18 29 -28 -30 -28 -48 0
-55 2 -55 20 0 15 7 20 30 20 16 0 41 -5 55 -12z m1082 4 c6 -4 11 -16 10 -27
-1 -14 5 -21 23 -23 13 -2 30 -11 37 -20 11 -15 12 -15 13 5 0 12 -4 25 -10
28 -5 3 -10 11 -10 16 0 5 11 2 25 -7 38 -25 35 -71 -7 -89 -31 -13 -32 -14
-7 -15 14 0 30 5 37 12 9 9 12 9 12 0 0 -7 -12 -18 -26 -24 -32 -15 -59 0 -59
32 0 17 -8 26 -32 34 -45 15 -57 30 -49 60 6 26 21 32 43 18z m-1367 -34 c11
-18 20 -44 20 -58 0 -28 -34 -90 -50 -90 -20 0 -41 49 -38 86 4 45 28 60 28
17 0 -15 4 -34 9 -42 7 -11 10 -9 16 8 7 24 -2 80 -17 99 -7 8 -7 12 1 12 6 0
20 -15 31 -32z m1512 -33 c-11 -21 -25 -4 -16 20 4 10 10 13 16 7 7 -7 7 -16
0 -27z m-1590 -117 c30 -34 34 -57 17 -107 -10 -28 -8 -38 15 -81 28 -52 32
-80 15 -111 -10 -19 -12 -19 -34 -5 -30 20 -35 20 -35 2 0 -8 14 -23 31 -33
17 -10 46 -39 65 -66 36 -49 43 -67 21 -48 -10 8 -18 7 -31 -2 -16 -12 -16
-14 3 -31 19 -18 22 -18 46 -2 28 19 47 14 38 -10 -3 -9 9 -27 34 -49 32 -27
43 -46 57 -98 22 -82 14 -101 -53 -121 -75 -22 -111 -44 -133 -82 -27 -45 -45
-32 -28 20 8 27 22 42 51 56 21 11 39 24 39 29 0 5 -16 15 -35 21 -32 11 -75
51 -75 72 0 5 13 17 30 26 16 9 30 20 30 25 0 14 -36 6 -75 -18 -48 -30 -65
-31 -65 -7 0 11 14 25 36 36 25 11 34 20 27 27 -7 7 -22 4 -46 -7 -45 -22 -56
-13 -33 26 17 29 17 30 -4 30 -18 0 -21 5 -18 33 3 27 7 32 33 35 52 5 57 9
44 33 -11 21 -10 22 21 15 33 -6 33 -6 15 14 -13 14 -27 19 -41 16 -30 -8 -50
17 -30 36 12 12 12 18 0 39 -7 13 -13 34 -14 45 0 12 -7 27 -15 34 -19 16 -20
60 -1 60 8 0 25 -19 38 -42 22 -41 63 -72 80 -62 4 3 -3 26 -17 52 -28 54 -65
151 -65 170 0 23 17 12 30 -18 7 -16 16 -30 20 -30 16 0 17 14 2 43 -30 61
-32 67 -25 67 3 0 19 -14 35 -32z m820 5 c25 -24 28 -34 28 -89 0 -44 -5 -68
-18 -85 -34 -44 -53 -106 -42 -135 30 -77 98 -125 178 -125 26 0 92 11 147 26
111 29 177 29 249 -4 90 -39 156 -146 177 -283 30 -195 35 -213 88 -288 27
-39 62 -103 76 -141 31 -80 60 -113 140 -153 l58 -30 18 23 c36 44 25 75 -50
146 -110 105 -155 230 -112 317 26 55 77 106 91 92 7 -7 1 -25 -20 -55 -35
-52 -39 -102 -11 -157 21 -42 98 -115 157 -150 79 -47 93 -101 70 -262 -7 -48
-4 -69 24 -155 31 -97 32 -104 28 -240 -5 -140 7 -238 43 -347 19 -58 0 -104
-77 -187 -36 -39 -70 -68 -75 -65 -13 7 -11 79 2 124 11 35 8 44 -36 136 -64
133 -75 167 -75 229 0 64 -34 202 -58 233 -9 13 -28 30 -42 37 -243 133 -291
185 -325 347 -9 40 -25 92 -36 115 -45 94 -187 180 -344 208 -38 7 -85 16
-103 20 -30 7 -37 3 -86 -46 -77 -77 -84 -142 -26 -236 19 -32 22 -33 89 -33
53 0 74 -4 94 -20 39 -31 92 -50 137 -50 50 0 51 -10 1 -34 -42 -19 -80 -18
-159 4 -35 10 -54 10 -97 0 -63 -15 -92 -9 -135 27 -40 33 -72 83 -105 164
-30 75 -30 86 -5 167 23 74 35 99 62 129 21 23 17 43 -9 43 -28 0 -211 78
-286 121 -90 53 -175 133 -232 219 -50 75 -67 115 -89 200 -16 62 -22 191 -9
203 13 13 33 -16 33 -48 0 -53 37 -157 78 -221 46 -70 127 -148 205 -198 62
-40 209 -93 284 -102 26 -4 56 -11 66 -16 24 -12 76 -22 275 -52 57 -9 135
-27 175 -42 117 -42 107 -42 107 8 0 54 -36 127 -72 147 -22 13 -38 13 -106 2
-45 -7 -115 -13 -157 -13 -68 0 -85 4 -151 36 -74 37 -115 77 -129 126 -11 40
-34 70 -53 70 -37 0 -119 48 -140 82 -19 30 -20 38 -9 61 16 35 27 34 27 -1 0
-35 21 -55 82 -75 53 -18 71 -10 82 36 4 15 23 50 42 77 21 29 38 67 41 89 5
34 2 41 -21 56 -14 10 -26 24 -26 31 0 23 42 16 72 -13z m1938 7 c13 -8 12
-14 -5 -47 -11 -21 -28 -39 -37 -41 -23 -4 -23 16 -1 40 15 17 15 18 -3 18
-31 0 -47 -39 -49 -117 -3 -85 5 -105 29 -72 19 28 20 51 4 67 -16 16 -1 29
20 16 11 -7 18 -27 20 -57 3 -42 0 -47 -33 -72 -28 -22 -33 -31 -24 -41 9 -11
8 -15 -5 -20 -9 -4 -30 6 -53 25 -45 38 -53 38 -53 6 0 -29 20 -50 83 -87 26
-15 47 -31 47 -36 0 -5 -52 -8 -115 -8 -92 1 -114 4 -110 14 3 8 0 12 -7 10
-7 -3 -14 -17 -16 -31 -4 -31 -18 -36 -25 -9 -3 9 -5 3 -6 -15 0 -17 -6 -35
-12 -39 -8 -5 -10 10 -7 54 4 56 2 61 -16 64 -41 6 -20 22 30 22 36 1 50 -3
47 -11 -3 -6 5 -16 16 -22 34 -18 101 -11 101 11 0 5 -5 6 -10 3 -6 -4 -25 5
-42 20 -26 22 -37 25 -67 19 -42 -8 -43 -8 -96 2 -22 4 -46 11 -52 17 -20 15
-15 37 7 37 24 0 100 37 100 48 0 29 -56 43 -66 17 -4 -8 -11 -15 -17 -15 -5
0 -2 9 8 20 20 22 21 15 -26 112 -10 20 12 46 44 52 45 10 167 13 212 6 42 -6
49 -5 75 21 30 30 79 39 110 19z m-1567 -47 c9 -8 -47 -33 -73 -33 -26 0 -50
-27 -50 -54 0 -31 -25 -53 -34 -30 -26 68 24 122 115 123 20 1 39 -2 42 -6z
m-173 -82 c0 -28 -4 -53 -10 -56 -17 -11 -11 -25 11 -25 11 0 44 22 72 49 45
42 104 81 122 81 15 0 1 -33 -25 -60 -16 -17 -30 -40 -30 -50 0 -21 -15 -27
-25 -10 -11 17 -25 0 -24 -28 0 -15 3 -21 6 -15 3 8 14 11 29 7 20 -5 24 -2
24 15 0 12 5 21 10 21 6 0 10 -4 10 -10 0 -5 6 -10 14 -10 9 0 16 12 18 31 4
44 30 59 57 35 25 -22 27 -46 6 -46 -8 0 -15 -7 -15 -15 0 -9 9 -15 24 -15 14
0 27 -4 30 -9 3 -5 26 -12 52 -16 33 -5 44 -10 40 -20 -4 -11 6 -13 42 -10 26
2 55 6 65 10 11 5 25 1 38 -11 12 -10 26 -19 32 -20 28 -3 33 -5 45 -25 9 -15
10 -24 2 -33 -7 -10 -6 -17 5 -26 25 -21 17 -30 -12 -15 -18 10 -31 11 -37 5
-19 -19 -25 -10 -31 45 -5 39 -12 55 -22 55 -22 0 -14 -122 10 -148 21 -23 22
-32 3 -32 -8 0 -26 14 -40 31 -20 23 -26 42 -27 77 0 42 -2 44 -11 24 -12 -24
-33 -25 -33 -1 0 18 -32 24 -50 9 -8 -6 -11 -18 -8 -26 3 -8 1 -14 -5 -14 -17
0 -31 25 -26 47 8 30 -6 34 -70 22 -47 -10 -63 -9 -100 5 -25 10 -55 14 -69
11 -14 -4 -28 -2 -31 4 -15 23 -27 9 -24 -26 3 -34 1 -38 -30 -47 -36 -10 -52
-2 -34 16 21 21 13 27 -40 30 -61 3 -67 20 -11 29 32 5 34 6 9 8 -26 1 -28 3
-21 29 l7 27 -24 -22 c-31 -29 -38 -29 -38 0 0 33 22 58 61 71 27 9 37 19 49
54 8 23 18 42 22 42 4 0 8 -22 8 -49z m2500 -66 c10 -12 7 -15 -13 -20 -33 -9
-70 -3 -74 12 -8 22 69 30 87 8z m854 -11 c11 -4 16 -19 16 -50 0 -24 3 -44 8
-44 10 0 59 46 64 61 2 7 11 10 21 6 14 -5 16 -15 10 -54 l-6 -48 47 53 c26
28 54 52 62 52 7 0 23 -13 36 -30 l22 -30 23 21 c18 18 25 20 38 9 8 -7 15
-21 15 -31 0 -21 -26 -26 -33 -6 -3 8 -7 6 -12 -6 -4 -10 -1 -27 9 -42 21 -32
20 -52 -1 -58 -11 -3 -6 -5 11 -6 16 0 44 4 62 11 26 9 36 9 48 -1 20 -16 21
-74 3 -90 -20 -16 -28 -2 -21 36 8 40 -7 43 -35 7 -43 -54 -21 -84 60 -84 68
0 92 -19 64 -49 -25 -28 -138 -71 -187 -71 -48 0 -43 -10 14 -27 27 -8 49 -8
65 -2 13 5 34 9 46 9 22 -1 22 -1 3 -15 -11 -8 -32 -15 -48 -15 -33 0 -35 -13
-8 -47 11 -14 20 -41 20 -59 0 -32 -2 -34 -32 -34 -33 0 -118 36 -118 50 0 5
-3 17 -6 27 -3 10 -2 14 3 8 11 -14 100 -55 118 -55 8 0 15 4 15 9 0 15 -69
70 -96 77 -38 10 -87 -8 -101 -36 -18 -36 -17 -109 2 -116 22 -9 18 -24 -5
-24 -12 0 -25 10 -32 25 -13 29 -53 43 -77 28 -9 -5 -23 -30 -31 -55 -20 -59
-33 -74 -86 -94 -36 -14 -46 -23 -51 -46 -4 -22 -11 -28 -32 -28 -15 0 -33 -6
-40 -12 -10 -11 -16 -8 -31 12 -11 14 -20 19 -20 13 0 -7 -7 -13 -15 -13 -10
0 -15 -10 -15 -29 0 -17 -5 -33 -11 -36 -5 -4 -14 -18 -19 -31 -13 -33 -37
-30 -60 9 -27 43 -25 87 4 130 14 20 26 46 28 59 4 31 30 29 40 -2 5 -17 7 -9
5 28 -2 41 1 52 14 52 8 0 20 -5 26 -11 7 -7 12 2 16 30 6 49 41 101 68 101
24 0 24 -6 0 -36 -10 -13 -22 -44 -25 -69 -5 -29 -12 -45 -22 -45 -17 0 -17
-1 0 -65 l13 -50 17 32 c9 18 16 51 16 74 0 39 1 41 25 35 18 -5 27 -1 35 15
7 11 9 27 6 35 -8 21 -37 17 -43 -6 -3 -11 -9 -20 -14 -20 -13 0 -11 13 7 48
9 19 13 41 9 53 -6 18 5 33 61 85 69 64 110 83 153 69 39 -12 25 -35 -21 -35
-41 -1 -42 -1 -23 -16 24 -18 81 -15 77 5 -2 10 5 12 30 7 37 -6 115 31 110
53 -1 6 10 23 24 36 15 14 22 25 15 25 -6 0 -11 7 -11 15 0 8 -6 15 -14 15
-19 0 -26 21 -14 43 5 11 5 25 -3 38 -8 15 -8 24 -1 28 20 12 -52 141 -79 141
-11 0 6 -59 35 -124 32 -73 32 -83 0 -98 -23 -11 -29 -10 -45 11 -27 33 -25
61 4 54 21 -6 20 -4 -6 25 l-29 30 -51 -24 c-29 -13 -60 -24 -69 -24 -9 0 -20
-4 -23 -10 -3 -5 -11 -10 -17 -10 -7 0 -6 6 2 15 7 8 9 15 5 15 -4 0 -2 7 5
15 19 23 6 28 -15 5 -10 -11 -18 -33 -19 -50 -2 -47 -19 -40 -39 17 -14 37
-25 53 -40 55 -13 2 -23 13 -28 31 -6 23 -5 28 9 25 11 -2 21 7 29 24 14 34
33 37 33 6 0 -46 16 -51 34 -13 19 39 9 69 -20 58 -8 -3 -14 -1 -14 5 0 17 29
26 54 16z m-878 -169 c-38 -39 -13 -111 56 -161 27 -19 54 -46 60 -59 14 -30
23 -31 84 -4 60 25 65 33 58 87 -4 25 -2 42 4 42 16 0 42 -47 42 -75 0 -30
-63 -103 -113 -130 -31 -16 -35 -24 -40 -70 -10 -103 -69 -174 -184 -227 -34
-15 -93 -33 -130 -38 -188 -29 -194 -33 -213 -155 -6 -38 -17 -94 -24 -123
l-14 -54 27 7 c15 3 70 51 136 119 107 110 113 115 180 134 39 12 96 24 128
27 100 11 181 61 283 172 306 333 540 458 710 379 56 -26 72 -42 56 -58 -7 -7
-25 -5 -58 6 -67 23 -97 20 -170 -15 -96 -45 -228 -180 -343 -351 -144 -214
-233 -290 -408 -350 -49 -17 -94 -35 -100 -40 -7 -6 -38 -48 -68 -93 -60 -90
-120 -148 -200 -192 -46 -25 -61 -28 -200 -33 -139 -5 -155 -8 -208 -34 -82
-40 -143 -106 -212 -229 -33 -59 -65 -107 -70 -107 -43 0 -48 253 -7 343 45
100 112 186 191 248 112 86 153 151 186 289 23 97 44 138 95 184 59 53 96 66
191 66 163 0 261 32 307 100 20 29 23 44 20 87 -4 48 -10 58 -60 111 -57 59
-75 102 -63 144 10 33 67 90 78 79 6 -6 4 -16 -7 -26z m777 -68 c-9 -16 -26
12 -18 30 7 17 8 17 15 -2 4 -11 5 -24 3 -28z m-3584 -9 c32 -43 42 -100 20
-114 -22 -13 -46 30 -53 94 -3 34 -4 62 -2 62 2 0 18 -19 35 -42z m1102 -19
c48 -67 64 -79 106 -79 15 0 37 -7 47 -15 11 -8 26 -15 34 -15 8 0 22 -10 32
-22 15 -20 16 -25 4 -44 -9 -13 -12 -32 -8 -52 4 -18 2 -32 -3 -32 -5 0 -15
-11 -21 -24 -10 -23 -10 -23 34 -18 24 2 44 1 44 -4 0 -5 -7 -30 -16 -55 -17
-45 -17 -48 5 -83 17 -26 21 -44 16 -66 -6 -25 -4 -30 13 -30 13 0 19 -6 18
-17 -3 -44 -56 -33 -56 11 0 25 -17 46 -38 46 -10 0 -8 -9 8 -36 12 -19 20
-37 17 -40 -8 -8 -76 40 -95 68 -14 18 -17 48 -17 143 0 70 -5 128 -11 139 -7
11 -26 24 -44 30 -18 6 -36 18 -40 26 -4 8 -14 27 -21 43 -7 15 -17 26 -23 24
-20 -7 -50 -71 -51 -107 0 -26 -4 -34 -15 -31 -8 2 -32 5 -52 8 -47 7 -62 25
-78 90 -13 58 -9 80 28 136 30 44 64 66 108 67 26 0 37 -9 75 -61z m-1454
-259 c18 -32 32 -38 93 -42 32 -3 35 -6 38 -36 2 -19 1 -41 -3 -50 -5 -14 -7
-14 -15 -2 -6 8 -10 26 -10 40 0 17 -3 21 -11 13 -8 -8 -8 -21 1 -50 17 -53
27 -61 39 -31 12 33 48 58 82 58 21 0 28 -6 32 -27 7 -32 -21 -63 -56 -63 -20
0 -20 -1 -4 -17 15 -15 21 -16 38 -5 22 14 39 8 39 -13 0 -8 -18 -19 -39 -26
l-39 -12 15 -43 c8 -25 12 -51 9 -59 -9 -25 -43 -17 -64 16 -13 21 -22 27 -27
19 -5 -8 -12 -7 -26 6 -18 16 -20 16 -43 -5 l-24 -22 -28 24 c-25 22 -27 28
-17 50 10 21 8 28 -12 47 -23 21 -25 21 -56 6 -18 -9 -40 -16 -50 -16 -15 0
-17 5 -12 33 7 35 17 64 33 87 5 8 14 26 20 40 5 14 15 34 22 45 7 11 18 30
26 43 17 30 27 28 49 -8z m1327 -24 c8 -18 22 -38 29 -45 17 -13 23 -146 8
-156 -6 -3 -22 5 -36 19 -21 21 -25 35 -25 83 -1 32 -7 69 -14 82 -8 14 -12
31 -9 38 9 23 30 14 47 -21z m2946 -52 c0 -24 -4 -44 -10 -44 -5 0 -10 23 -10
51 0 31 4 48 10 44 6 -3 10 -26 10 -51z m-857 -4 c3 -11 2 -18 -2 -16 -4 3
-15 -17 -24 -44 -18 -51 -66 -100 -98 -100 -39 0 -13 82 36 114 15 10 33 33
41 53 12 27 18 32 28 23 8 -6 16 -20 19 -30z m-3543 1 c0 -5 -14 -21 -31 -35
-31 -26 -69 -35 -69 -16 0 6 6 10 13 10 8 0 24 11 37 25 23 25 50 33 50 16z
m959 -201 c22 -17 58 -37 80 -46 40 -16 61 -47 61 -90 0 -13 7 -41 15 -60 l15
-36 -38 7 c-20 5 -46 9 -57 9 -11 1 -33 9 -50 17 -56 30 -163 59 -193 53 -27
-5 -30 -3 -46 40 -21 54 -16 78 16 75 13 -1 40 -1 61 -1 30 2 37 6 37 22 0 12
5 17 14 14 7 -3 16 2 19 10 9 22 18 20 66 -14z m2109 -82 c5 -26 -22 -48 -57
-48 -37 0 -39 15 -9 47 25 27 61 27 66 1z m742 -32 c0 -36 -32 -86 -56 -86
-20 0 -19 66 1 74 8 3 15 15 15 26 0 13 7 20 20 20 16 0 20 -7 20 -34z m-3455
-26 c6 -20 7 -20 24 1 18 23 41 19 41 -6 0 -9 -7 -11 -22 -7 -21 5 -22 4 -9
-11 7 -9 24 -17 36 -17 28 0 35 -17 35 -79 0 -39 -5 -52 -30 -76 -16 -16 -33
-26 -36 -22 -7 6 -4 13 21 57 18 32 14 35 -23 16 -34 -17 -72 -61 -72 -82 0
-8 -7 -14 -15 -14 -21 0 -19 39 4 75 18 30 18 30 -6 50 l-25 20 31 39 c20 25
29 46 25 58 -3 10 -1 18 5 18 5 0 13 -9 16 -20z m1273 -16 c16 -11 22 -25 22
-55 0 -45 -3 -46 -47 -19 -27 16 -33 26 -33 55 0 40 19 46 58 19z m2000 -86
c17 -17 15 -53 -4 -69 -14 -12 -14 -14 4 -20 23 -9 40 -65 24 -81 -5 -5 -35
-8 -65 -6 -67 4 -86 -14 -56 -51 20 -25 26 -81 8 -81 -20 0 -55 23 -101 68
-42 41 -49 44 -60 30 -7 -9 -32 -18 -55 -21 l-43 -5 0 34 c0 34 35 84 60 84
17 0 11 -26 -10 -45 -15 -14 -17 -20 -8 -26 20 -13 59 30 52 57 -9 35 27 64
80 64 38 0 49 5 82 40 40 40 70 50 92 28z m-1639 -32 c28 -29 31 -37 22 -55
-9 -16 -21 -21 -49 -21 -21 0 -47 -7 -58 -15 -28 -21 -34 -18 -24 14 16 56 29
72 50 61 34 -18 45 -10 18 15 -25 21 -24 30 3 34 3 1 20 -14 38 -33z m-809 5
c0 -5 9 -11 20 -14 17 -4 20 -10 14 -32 -5 -19 -1 -32 14 -48 24 -26 42 -69
42 -102 0 -34 -38 -67 -70 -60 -14 3 -38 -2 -54 -10 -15 -8 -37 -15 -47 -15
-11 0 -28 -5 -38 -12 -10 -6 -26 -8 -36 -4 -14 5 -16 13 -10 43 6 31 3 40 -17
56 l-23 19 43 -6 c25 -4 42 -2 42 4 0 17 -38 30 -88 30 -56 0 -69 8 -44 26 22
17 71 17 102 -1 14 -8 30 -14 37 -15 17 0 37 39 37 75 1 24 6 31 26 33 47 7
45 22 -3 22 -26 0 -47 5 -47 10 0 6 23 10 50 10 28 0 50 -4 50 -9z m1225 -21
c3 -5 -1 -10 -9 -10 -9 0 -16 5 -16 10 0 6 4 10 9 10 6 0 13 -4 16 -10z m-430
-86 c8 -3 15 -1 15 6 0 6 4 9 9 5 5 -3 -1 -16 -15 -30 -13 -13 -24 -34 -24
-46 0 -11 -11 -34 -25 -51 -14 -16 -25 -25 -25 -20 0 5 7 15 15 22 17 14 20
40 6 40 -6 0 -13 -5 -16 -10 -14 -22 -22 2 -15 41 8 43 25 63 48 54 6 -3 19
-8 27 -11z m-1180 -26 c27 -8 34 -13 22 -16 -16 -3 -13 -8 14 -28 43 -32 74
-32 38 -1 -20 19 -23 25 -13 35 20 19 29 15 51 -25 35 -63 38 -83 13 -83 -11
0 -36 7 -55 14 -34 14 -35 14 -35 -7 0 -12 -4 -28 -8 -35 -10 -14 -37 40 -47
96 -9 44 -27 28 -27 -23 0 -26 10 -51 31 -82 30 -42 40 -73 23 -73 -17 0 -64
59 -77 96 -10 30 -18 38 -34 37 -23 -3 -28 16 -9 35 21 21 2 22 -21 1 -16 -16
-19 -24 -11 -34 8 -9 6 -17 -5 -29 -22 -21 -32 -20 -40 4 -10 31 24 89 64 110
42 22 71 24 126 8z m1183 -850 c16 -16 15 -123 -2 -168 -7 -19 -40 -74 -75
-123 -81 -113 -88 -134 -101 -265 -6 -61 -17 -123 -25 -139 -8 -15 -15 -32
-15 -38 -1 -28 -68 -104 -126 -143 -73 -49 -90 -79 -74 -125 27 -79 1 -167
-68 -229 -41 -37 -44 -38 -117 -38 -85 0 -117 12 -230 88 -83 56 -115 104
-115 175 0 56 21 83 74 93 55 10 102 -3 141 -40 57 -54 42 -91 -17 -41 -53 45
-140 27 -123 -24 11 -36 86 -90 167 -121 87 -34 119 -32 145 7 14 21 14 31 4
71 -7 26 -16 75 -20 110 -5 35 -11 65 -13 68 -11 10 -150 44 -183 44 -34 0
-158 -21 -244 -40 -37 -9 -50 -7 -87 11 -49 23 -149 127 -170 176 -16 36 -19
143 -5 143 13 0 64 -67 90 -117 16 -32 34 -49 72 -68 56 -29 50 -30 184 22
l90 35 125 -7 c182 -10 204 -9 235 6 45 22 66 61 86 156 12 55 36 122 64 180
43 88 49 95 129 153 91 65 126 101 157 161 21 42 28 46 47 27z m46 -284 c4 -9
9 -64 13 -122 5 -89 13 -127 50 -232 46 -135 60 -153 126 -170 123 -31 186
-75 223 -154 33 -70 31 -117 -7 -182 -17 -30 -39 -59 -49 -64 -10 -6 -51 -10
-91 -10 -61 0 -83 5 -137 31 -53 26 -76 32 -132 31 -47 0 -76 -5 -94 -17 -15
-10 -30 -15 -33 -11 -14 14 30 75 66 92 52 25 189 31 241 10 72 -29 99 -18
100 41 0 20 -65 53 -105 53 -20 0 -65 7 -99 16 l-61 17 -120 -64 c-104 -56
-120 -68 -128 -96 -12 -42 -3 -76 32 -116 27 -29 34 -32 83 -30 260 8 283 7
359 -15 96 -28 111 -28 147 3 17 14 33 25 36 25 16 0 3 -44 -19 -66 -24 -24
-30 -25 -108 -20 -45 3 -93 6 -107 7 -48 3 -186 -20 -238 -41 -75 -29 -128
-26 -198 11 -112 58 -144 107 -144 220 0 116 37 176 160 259 98 66 105 79 90
160 -23 122 -8 214 55 340 52 104 76 129 89 94z"/>
<path d="M3784 5166 c-8 -21 -1 -49 14 -54 8 -2 12 7 12 27 0 33 -17 51 -26
27z"/>
<path d="M3836 5154 c-11 -28 -6 -39 9 -20 8 11 15 23 15 28 0 14 -18 9 -24
-8z"/>
<path d="M3843 5028 c-21 -28 -23 -37 -7 -52 8 -9 23 -16 32 -16 13 0 13 2 -4
14 -15 12 -17 17 -6 27 14 15 16 39 3 39 -5 0 -13 -6 -18 -12z"/>
<path d="M3950 4965 c-19 -20 -21 -28 -11 -38 10 -9 16 -7 32 12 20 24 25 51
11 51 -5 0 -19 -11 -32 -25z"/>
<path d="M3243 5371 c-28 -4 -55 -10 -60 -15 -4 -5 3 -6 16 -3 13 3 33 1 44
-5 14 -7 31 -7 59 3 79 26 55 34 -59 20z"/>
<path d="M2675 5277 c-4 -10 -5 -21 -1 -24 10 -10 18 4 13 24 -4 17 -4 17 -12
0z"/>
<path d="M2935 5169 c-44 -45 -47 -50 -26 -47 16 2 37 20 59 51 44 62 29 60
-33 -4z"/>
<path d="M3035 5180 c-3 -5 -2 -10 4 -10 5 0 13 5 16 10 3 6 2 10 -4 10 -5 0
-13 -4 -16 -10z"/>
<path d="M2759 5139 c29 -24 54 -25 49 -2 -2 12 -14 18 -38 19 l-35 2 24 -19z"/>
<path d="M3082 5117 c-23 -24 -28 -37 -14 -37 4 0 15 14 24 30 21 36 18 37
-10 7z"/>
<path d="M2432 5102 c-23 -18 -62 -71 -62 -84 0 -30 74 31 89 72 11 34 6 37
-27 12z"/>
<path d="M2996 5104 c-8 -22 -8 -24 8 -24 12 0 26 20 26 36 0 12 -29 2 -34
-12z"/>
<path d="M2593 5088 c-18 -23 -30 -73 -23 -92 5 -17 8 -15 18 10 13 35 25 94
19 94 -2 0 -9 -6 -14 -12z"/>
<path d="M3147 5074 c-12 -12 -8 -23 13 -34 23 -12 26 -2 7 24 -7 9 -16 14
-20 10z"/>
<path d="M3230 5048 c0 -20 13 -35 38 -42 26 -9 29 5 5 26 -30 25 -43 30 -43
16z"/>
<path d="M2660 5024 c0 -8 5 -12 10 -9 6 3 10 10 10 16 0 5 -4 9 -10 9 -5 0
-10 -7 -10 -16z"/>
<path d="M3190 5008 c0 -22 14 -35 43 -42 32 -8 35 6 7 34 -22 22 -50 27 -50
8z"/>
<path d="M2431 4992 l-24 -19 36 -40 c21 -22 37 -46 37 -52 0 -17 27 -13 34 5
9 23 7 56 -3 50 -10 -7 -37 22 -48 52 -9 23 -9 23 -32 4z"/>
<path d="M2680 4925 c-10 -12 -5 -17 25 -30 46 -19 55 -19 55 0 0 8 -13 21
-30 30 -36 18 -35 18 -50 0z"/>
<path d="M2550 4893 c0 -34 13 -44 23 -19 3 8 -1 22 -8 33 -13 17 -14 16 -15
-14z"/>
<path d="M2365 4870 c10 -11 20 -18 23 -15 7 6 -18 35 -31 35 -5 0 -2 -9 8
-20z"/>
<path d="M4730 5081 c0 -16 5 -33 10 -36 6 -4 10 6 10 24 0 16 -4 33 -10 36
-6 4 -10 -6 -10 -24z"/>
<path d="M4582 5071 c-16 -46 -15 -59 4 -39 9 9 14 27 12 44 l-3 29 -13 -34z"/>
<path d="M4350 5055 c-7 -8 -10 -18 -7 -21 9 -10 48 7 44 19 -6 18 -23 19 -37
2z"/>
<path d="M4775 5000 c-3 -5 1 -10 9 -10 8 0 18 5 21 10 3 6 -1 10 -9 10 -8 0
-18 -4 -21 -10z"/>
<path d="M4895 4970 c3 -5 8 -10 11 -10 2 0 4 5 4 10 0 6 -5 10 -11 10 -5 0
-7 -4 -4 -10z"/>
<path d="M4866 4944 c-5 -14 -4 -15 9 -4 17 14 19 20 6 20 -5 0 -12 -7 -15
-16z"/>
<path d="M4474 4747 c-9 -25 8 -81 27 -85 8 -1 23 4 33 11 18 13 17 16 -17 53
-31 34 -37 37 -43 21z"/>
<path d="M4685 4748 c43 -15 55 -27 55 -53 0 -27 -45 -85 -66 -85 -18 0 -18
15 2 46 23 34 13 38 -27 11 -31 -21 -34 -27 -31 -64 4 -47 -19 -64 -48 -38
-34 31 -29 -2 5 -35 38 -37 52 -34 61 15 6 36 34 57 34 27 0 -12 5 -9 18 11 9
15 25 30 34 33 10 3 22 20 27 37 5 18 12 40 16 49 8 21 -47 58 -85 57 -24 -1
-24 -1 5 -11z"/>
<path d="M4790 4659 c0 -5 5 -7 10 -4 6 3 10 8 10 11 0 2 -4 4 -10 4 -5 0 -10
-5 -10 -11z"/>
<path d="M4432 4648 c-14 -14 -16 -38 -4 -38 12 0 32 23 32 37 0 16 -12 17
-28 1z"/>
<path d="M4480 4575 c13 -14 26 -23 28 -20 7 7 -29 45 -41 45 -6 0 0 -11 13
-25z"/>
<path d="M4660 4510 c0 -19 5 -30 14 -30 19 0 29 30 15 46 -18 22 -29 16 -29
-16z"/>
<path d="M2030 5105 c0 -41 28 -105 47 -105 18 0 17 73 -2 110 -22 42 -45 39
-45 -5z"/>
<path d="M2024 4865 c-14 -35 -12 -55 6 -55 4 0 11 12 14 28 4 15 9 35 12 45
10 32 -17 17 -32 -18z"/>
<path d="M1786 4731 c-6 -10 71 -37 80 -28 4 4 1 13 -6 22 -13 16 -65 21 -74
6z"/>
<path d="M1880 4658 c0 -7 14 -33 30 -56 l29 -44 7 28 c9 35 -14 78 -44 82
-13 2 -22 -2 -22 -10z"/>
<path d="M2180 4590 c0 -5 5 -10 11 -10 5 0 7 5 4 10 -3 6 -8 10 -11 10 -2 0
-4 -4 -4 -10z"/>
<path d="M2005 4580 c3 -5 8 -10 11 -10 2 0 4 5 4 10 0 6 -5 10 -11 10 -5 0
-7 -4 -4 -10z"/>
<path d="M1300 4625 c-15 -16 -24 -41 -28 -73 -5 -53 6 -70 34 -54 13 7 17 26
18 81 1 39 1 71 0 71 0 0 -11 -11 -24 -25z"/>
<path d="M1575 4490 c3 -5 15 -10 26 -10 10 0 19 5 19 10 0 6 -12 10 -26 10
-14 0 -23 -4 -19 -10z"/>
<path d="M1340 4450 c-20 -20 -27 -50 -12 -50 10 0 62 53 62 63 0 14 -31 6
-50 -13z"/>
<path d="M1367 4221 c-4 -17 -3 -21 5 -13 5 5 8 16 6 23 -3 8 -7 3 -11 -10z"/>
<path d="M1416 4204 c-21 -19 -25 -25 -12 -23 10 2 25 14 34 27 19 28 14 27
-22 -4z"/>
<path d="M1468 4182 c-10 -2 -18 -11 -18 -21 0 -9 -6 -23 -12 -30 -14 -15 -10
-14 34 8 22 11 30 12 43 1 17 -14 19 -7 5 19 -11 22 -28 29 -52 23z"/>
<path d="M5173 4428 c-13 -6 -23 -14 -23 -17 0 -13 89 -31 120 -25 28 6 29 8
13 19 -10 6 -27 14 -38 17 -11 3 -27 8 -35 11 -8 3 -25 1 -37 -5z"/>
<path d="M5037 4333 c-4 -3 -7 -28 -7 -54 0 -26 -3 -55 -6 -64 -6 -15 -8 -15
-25 1 -10 9 -27 14 -39 11 -24 -6 -24 -4 -4 34 14 29 14 31 -2 27 -10 -2 -25
-15 -34 -30 -25 -46 -6 -62 83 -68 74 -5 118 -20 61 -20 -42 -1 -99 -32 -99
-53 0 -16 10 -19 67 -23 58 -4 70 -2 88 16 12 12 20 33 20 55 0 30 -3 35 -23
35 -13 0 -34 11 -47 25 -20 22 -21 27 -10 54 17 41 1 78 -23 54z"/>
<path d="M5090 4288 c0 -18 18 -34 28 -24 3 4 -2 14 -11 23 -16 16 -17 16 -17
1z"/>
<path d="M4814 4153 c1 -21 7 -38 15 -41 10 -3 11 0 3 13 -5 10 -7 26 -5 35 3
10 1 20 -5 24 -5 3 -9 -11 -8 -31z"/>
<path d="M4886 4165 c-3 -9 0 -28 8 -43 l14 -27 -3 39 c-4 44 -10 54 -19 31z"/>
<path d="M4350 4137 c0 -9 15 -17 38 -21 53 -8 74 -7 67 3 -9 16 13 23 36 10
17 -9 20 -8 17 3 -7 19 -158 24 -158 5z"/>
<path d="M4347 4073 c-9 -8 24 -32 46 -33 9 0 17 6 17 14 0 21 -47 35 -63 19z"/>
<path d="M4826 4054 c-25 -24 -19 -36 16 -32 37 4 47 22 19 37 -15 8 -23 7
-35 -5z"/>
<path d="M4910 4042 c0 -11 8 -26 18 -36 18 -15 20 -15 36 3 17 19 17 20 -13
35 -38 20 -41 20 -41 -2z"/>
<path d="M4988 4047 c16 -19 182 -114 207 -119 30 -5 28 19 -2 25 -36 8 -90
57 -73 67 18 11 -8 25 -50 26 -19 1 -48 5 -65 10 -27 6 -29 5 -17 -9z"/>
<path d="M4280 4005 c-23 -12 -23 -13 -3 -23 30 -16 102 -31 108 -22 6 10 -24
36 -55 48 -18 7 -33 6 -50 -3z"/>
<path d="M4713 3993 c9 -2 23 -2 30 0 6 3 -1 5 -18 5 -16 0 -22 -2 -12 -5z"/>
<path d="M4978 3965 c-20 -26 -23 -45 -9 -45 12 0 41 40 41 57 0 20 -13 15
-32 -12z"/>
<path d="M5099 3904 c37 -16 78 -11 51 6 -8 6 -31 9 -50 9 l-35 -1 34 -14z"/>
<path d="M4394 3883 c20 -24 46 -31 46 -13 0 6 -8 10 -18 10 -10 0 -24 6 -32
13 -8 6 -6 2 4 -10z"/>
<path d="M4115 3820 c-9 -14 -10 -14 49 -34 89 -29 156 -12 79 21 -51 21 -118
29 -128 13z"/>
<path d="M4030 3650 c0 -43 6 -48 35 -26 17 12 18 18 7 40 -18 41 -42 33 -42
-14z"/>
<path d="M4077 3594 c-4 -4 -7 -14 -7 -23 0 -11 3 -12 11 -4 6 6 10 16 7 23
-2 6 -7 8 -11 4z"/>
<path d="M3850 3560 c-25 -25 -25 -32 -1 -55 19 -16 21 -16 51 5 16 12 38 20
47 18 15 -3 15 -4 0 -20 -9 -9 -17 -19 -17 -23 0 -13 40 16 59 44 l21 29 -61
-3 c-39 -1 -64 -7 -70 -16 -4 -7 -11 -10 -16 -5 -4 4 0 12 10 17 18 11 23 29
7 29 -5 0 -19 -9 -30 -20z"/>
<path d="M3735 3520 c-7 -11 18 -24 35 -18 6 2 1 9 -9 15 -13 8 -22 9 -26 3z"/>
<path d="M3825 3280 c3 -5 11 -10 16 -10 6 0 7 5 4 10 -3 6 -11 10 -16 10 -6
0 -7 -4 -4 -10z"/>
<path d="M3800 3211 c0 -5 5 -13 10 -16 6 -3 10 -2 10 4 0 5 -4 13 -10 16 -5
3 -10 2 -10 -4z"/>
<path d="M1046 3921 c-47 -9 -45 -31 3 -31 29 0 41 4 41 14 0 20 -10 23 -44
17z"/>
<path d="M1176 3842 c-6 -11 61 -78 70 -70 9 9 -23 65 -41 72 -21 8 -23 8 -29
-2z"/>
<path d="M1140 3736 c0 -19 18 -30 66 -44 48 -14 74 -8 74 18 0 14 -12 21 -50
29 -68 15 -90 14 -90 -3z"/>
<path d="M3582 4329 c-13 -5 -34 -6 -47 -3 -12 3 -26 1 -29 -5 -4 -7 1 -11 13
-11 13 0 31 -15 47 -40 27 -40 38 -48 48 -31 3 5 -5 16 -19 25 -51 34 -11 58
43 26 40 -24 73 -20 51 6 -13 16 -63 44 -76 43 -4 0 -18 -4 -31 -10z"/>
<path d="M3452 4278 c7 -21 36 -34 48 -22 9 9 3 14 -20 22 -24 9 -31 9 -28 0z"/>
<path d="M3525 4219 c-4 -6 -5 -13 -2 -16 7 -7 27 6 27 18 0 12 -17 12 -25 -2z"/>
<path d="M3642 4199 c-19 -17 -32 -32 -30 -34 6 -6 78 47 78 57 0 15 -14 8
-48 -23z"/>
<path d="M3703 4184 c-3 -8 -1 -20 6 -27 8 -8 11 -4 11 16 0 30 -7 35 -17 11z"/>
<path d="M3530 4125 c-11 -13 -8 -15 15 -15 23 0 26 2 15 15 -7 8 -14 15 -15
15 -1 0 -8 -7 -15 -15z"/>
<path d="M3590 4111 c0 -5 10 -11 23 -15 35 -9 40 -7 27 9 -13 16 -50 21 -50
6z"/>
<path d="M2095 4139 c-11 -17 1 -21 15 -4 8 9 8 15 2 15 -6 0 -14 -5 -17 -11z"/>
<path d="M2318 4119 c15 -6 30 -5 40 1 13 7 8 9 -23 9 -35 0 -37 -1 -17 -10z"/>
<path d="M5540 4105 c0 -8 5 -15 10 -15 6 0 10 7 10 15 0 8 -4 15 -10 15 -5 0
-10 -7 -10 -15z"/>
<path d="M5813 3832 c-54 -20 -55 -32 -2 -32 55 0 131 20 126 34 -6 17 -78 17
-124 -2z"/>
<path d="M5497 3669 c21 -36 73 -79 96 -79 10 0 20 14 26 36 6 20 18 45 27 55
16 18 16 19 -8 19 -30 0 -51 -21 -46 -46 5 -30 -20 -26 -60 10 -49 44 -59 46
-35 5z"/>
<path d="M5410 3630 c0 -6 7 -27 15 -46 12 -30 18 -34 37 -28 22 6 23 6 5 -14
-14 -15 -15 -22 -6 -28 28 -17 52 61 29 96 -7 12 -12 12 -22 2 -18 -18 -28
-15 -28 8 0 11 -7 20 -15 20 -8 0 -15 -5 -15 -10z"/>
<path d="M5166 3333 c-13 -13 -6 -63 9 -63 10 0 15 10 15 29 0 30 -12 46 -24
34z"/>
<path d="M2792 3909 c-1 -17 3 -37 9 -45 8 -10 6 -21 -11 -44 -27 -37 -17 -55
10 -20 34 44 40 132 10 138 -11 2 -16 -7 -18 -29z"/>
<path d="M2710 3878 c-23 -37 -25 -54 -9 -64 17 -10 39 18 46 59 7 47 -10 49
-37 5z"/>
<path d="M2907 3816 c-3 -8 1 -17 9 -20 8 -3 14 1 14 9 0 20 -17 28 -23 11z"/>
<path d="M3000 3780 c0 -24 27 -37 43 -21 8 8 6 15 -9 26 -26 20 -34 19 -34
-5z"/>
<path d="M2730 3740 c0 -13 28 -25 38 -16 3 4 0 11 -8 16 -20 13 -30 12 -30 0z"/>
<path d="M3087 3603 c-32 -5 -56 -40 -33 -49 8 -3 28 5 45 17 29 21 41 41 24
38 -5 -1 -20 -4 -36 -6z"/>
<path d="M1390 3629 c0 -54 19 -99 41 -99 27 0 24 22 -11 83 l-30 52 0 -36z"/>
<path d="M1334 3556 c-12 -13 -26 -96 -16 -96 11 0 42 60 42 80 0 24 -12 31
-26 16z"/>
<path d="M1610 3520 c-8 -5 -12 -12 -9 -15 4 -3 12 1 19 10 14 17 11 19 -10 5z"/>
<path d="M1424 3507 c-5 -13 0 -26 16 -40 l22 -22 -7 25 c-4 14 -11 32 -16 40
-6 13 -9 12 -15 -3z"/>
<path d="M1548 3424 c-11 -10 23 -94 38 -94 19 0 18 14 -6 60 -21 42 -23 44
-32 34z"/>
<path d="M1445 3400 c-3 -5 1 -10 10 -10 9 0 13 5 10 10 -3 6 -8 10 -10 10 -2
0 -7 -4 -10 -10z"/>
<path d="M2757 3525 c-4 -9 -1 -18 9 -22 22 -8 30 5 12 23 -14 14 -16 14 -21
-1z"/>
<path d="M2235 3360 c3 -5 8 -10 11 -10 2 0 4 5 4 10 0 6 -5 10 -11 10 -5 0
-7 -4 -4 -10z"/>
<path d="M2345 3280 c3 -5 11 -10 16 -10 6 0 7 5 4 10 -3 6 -11 10 -16 10 -6
0 -7 -4 -4 -10z"/>
<path d="M2100 3270 c0 -5 5 -10 11 -10 5 0 7 5 4 10 -3 6 -8 10 -11 10 -2 0
-4 -4 -4 -10z"/>
<path d="M2225 3260 c-8 -13 15 -13 35 0 12 8 11 10 -7 10 -12 0 -25 -4 -28
-10z"/>
<path d="M2334 3221 c11 -11 23 -21 28 -21 14 0 -1 19 -25 31 -22 12 -22 12
-3 -10z"/>
<path d="M2265 3216 c17 -8 32 -12 34 -10 7 7 -3 12 -34 18 l-30 6 30 -14z"/>
<path d="M4320 3290 c-12 -8 -11 -10 8 -10 12 0 22 5 22 10 0 13 -11 13 -30 0z"/>
<path d="M5065 3259 c-4 -6 -5 -13 -2 -16 7 -7 27 6 27 18 0 12 -17 12 -25 -2z"/>
<path d="M1660 3170 c0 -11 6 -20 14 -20 20 0 28 27 10 34 -23 9 -24 8 -24
-14z"/>
<path d="M4858 3103 c7 -3 16 -2 19 1 4 3 -2 6 -13 5 -11 0 -14 -3 -6 -6z"/>
<path d="M4845 3050 c-9 -15 3 -29 38 -44 51 -21 62 -7 21 25 -40 31 -49 34
-59 19z"/>
<path d="M4720 3032 c0 -18 57 -78 66 -69 4 4 -9 24 -29 45 -20 20 -37 31 -37
24z"/>
<path d="M4767 2928 c49 -49 73 -58 60 -24 -7 17 -85 76 -101 76 -6 0 13 -23
41 -52z"/>
<path d="M2473 2968 c9 -53 25 -88 42 -88 20 0 20 68 -1 98 -24 35 -48 29 -41
-10z"/>
<path d="M2405 2969 c-11 -17 1 -21 15 -4 8 9 8 15 2 15 -6 0 -14 -5 -17 -11z"/>
<path d="M2403 2913 c-28 -5 -67 -53 -54 -66 16 -16 91 33 91 60 0 7 -3 12 -7
12 -5 -1 -18 -4 -30 -6z"/>
<path d="M8130 5809 l-155 -149 -148 148 -147 147 -107 -108 -108 -107 160
-160 160 -160 -225 0 c-214 0 -228 -1 -270 -22 -81 -42 -85 -55 -88 -349 l-3
-257 158 -37 c87 -21 164 -40 171 -42 9 -4 12 31 12 156 0 148 2 163 20 181
19 19 33 20 356 20 l336 0 -34 -37 c-58 -66 -114 -151 -582 -889 l-456 -721 0
-132 0 -131 711 0 c505 0 723 3 750 11 45 14 82 51 98 98 7 22 11 122 11 276
l0 243 -147 36 c-82 20 -156 39 -165 42 -15 4 -17 -11 -20 -156 -3 -156 -4
-162 -27 -181 -22 -18 -44 -19 -383 -19 -349 0 -360 1 -347 18 8 11 37 49 64
85 28 37 260 399 518 806 l467 740 0 130 0 131 -272 0 -273 0 168 163 169 162
-109 107 -108 106 -155 -149z"/>
<path d="M12501 5430 c-396 -55 -656 -348 -747 -843 -22 -114 -24 -415 -5
-532 72 -442 275 -724 601 -837 93 -32 99 -33 260 -33 161 0 167 1 260 33 319
111 518 379 598 807 26 141 23 446 -6 593 -100 499 -389 791 -808 815 -49 3
-118 2 -153 -3z m254 -341 c197 -75 326 -311 356 -656 13 -144 0 -328 -31
-463 -48 -200 -162 -365 -299 -433 -61 -30 -72 -32 -171 -32 -94 0 -111 3
-163 27 -81 38 -130 79 -183 154 -88 124 -136 274 -156 492 -22 239 14 477 97
649 117 241 332 343 550 262z"/>
<path d="M13716 5419 c-45 -11 -71 -31 -95 -74 -13 -25 -17 -71 -19 -287 l-3
-257 38 -10 c21 -5 90 -24 153 -40 63 -17 121 -31 128 -31 9 0 12 37 12 153 0
206 -7 197 161 197 l129 0 0 -775 0 -775 -95 0 -95 0 0 -180 0 -180 380 0 380
0 0 180 0 180 -95 0 -95 0 0 775 0 775 129 0 c168 0 161 9 161 -197 0 -84 4
-153 9 -153 7 0 60 13 284 71 l39 10 -4 252 c-4 284 -10 312 -78 352 -34 19
-52 20 -710 22 -396 1 -691 -3 -714 -8z"/>
<path d="M8920 5245 l0 -174 103 -3 102 -3 0 -775 0 -775 -102 -3 -103 -3 0
-174 0 -175 380 0 380 0 0 175 0 175 -100 0 -100 0 0 780 0 780 100 0 100 0 0
175 0 175 -380 0 -380 0 0 -175z"/>
<path d="M9820 5247 l0 -174 50 -5 c27 -3 56 -11 65 -18 8 -7 155 -435 326
-951 l311 -939 197 0 197 0 307 933 c338 1027 318 977 403 977 l44 0 0 175 0
175 -157 0 c-210 -1 -249 -15 -293 -104 -31 -64 -445 -1418 -469 -1536 -12
-58 -25 -112 -28 -120 -3 -8 -18 41 -33 110 -39 176 -445 1494 -479 1554 -45
81 -73 90 -273 94 l-168 3 0 -174z"/>
<path d="M11485 2749 c-279 -37 -495 -217 -559 -465 -20 -79 -21 -232 -1 -309
58 -228 188 -343 587 -519 214 -94 296 -150 346 -235 23 -39 27 -57 27 -121
-1 -169 -107 -267 -300 -277 -185 -10 -346 51 -502 191 l-51 46 -96 -147 -96
-147 42 -44 c201 -205 601 -299 923 -217 111 28 222 91 299 169 127 128 182
282 173 486 -7 178 -64 308 -182 419 -85 79 -154 122 -323 203 -284 134 -334
161 -387 210 -67 61 -90 116 -82 192 6 64 25 102 69 147 59 58 108 74 233 73
61 0 130 -6 155 -13 81 -23 187 -80 242 -130 l54 -49 92 145 c51 81 91 152 88
158 -8 22 -139 114 -212 150 -156 76 -362 108 -539 84z"/>
<path d="M9678 2740 c-374 -63 -630 -354 -725 -825 -28 -139 -25 -493 5 -631
30 -138 66 -243 120 -348 163 -317 444 -482 790 -463 125 7 197 25 307 76 317
149 512 511 532 992 14 318 -59 619 -200 832 -64 95 -187 216 -270 266 -154
91 -377 131 -559 101z m308 -375 c166 -81 277 -275 314 -552 20 -148 8 -413
-24 -538 -39 -153 -100 -268 -185 -347 -92 -87 -152 -112 -277 -112 -86 0 -96
2 -167 37 -93 46 -157 113 -215 225 -146 280 -146 783 -1 1064 123 236 345
325 555 223z"/>
<path d="M7170 2565 l0 -175 90 0 90 0 0 -780 0 -780 -100 0 -100 0 0 -175 0
-175 380 0 380 0 0 175 0 175 -90 0 -90 0 0 215 0 215 218 0 c251 0 319 11
432 67 54 26 95 57 150 112 87 88 135 171 176 306 25 82 28 104 28 255 0 189
-16 266 -81 399 -53 108 -172 227 -274 276 -132 62 -157 65 -711 65 l-498 0 0
-175z m991 -202 c139 -63 212 -217 195 -410 -13 -141 -71 -245 -167 -298 l-54
-30 -202 -3 -203 -3 0 386 0 387 193 -4 c169 -3 198 -6 238 -25z"/>
<path d="M12524 2729 c-37 -11 -68 -43 -83 -88 -7 -22 -11 -123 -11 -281 l0
-248 148 -36 c81 -20 155 -39 165 -42 16 -5 17 7 17 160 0 206 -8 196 167 196
l123 0 0 -780 0 -780 -100 0 -100 0 0 -175 0 -175 385 0 385 0 0 175 0 175
-100 0 -100 0 0 780 0 780 123 0 c175 0 167 10 167 -196 0 -153 1 -165 18
-160 9 3 84 22 165 42 l148 37 -3 261 c-3 284 -6 299 -61 340 -28 21 -35 21
-725 23 -390 1 -710 -3 -728 -8z"/>
<path d="M14316 1828 c-165 -502 -306 -926 -314 -943 -19 -39 -29 -45 -79 -45
l-43 0 0 -181 0 -181 158 4 c249 6 247 4 363 376 l63 202 346 0 345 0 59 -188
c78 -251 93 -288 128 -328 44 -49 104 -64 265 -64 l133 0 0 180 0 180 -45 0
c-33 0 -50 5 -63 20 -14 16 -389 1143 -583 1753 l-40 127 -197 0 -197 0 -299
-912z m527 344 c16 -70 73 -270 126 -444 l98 -318 -257 0 -257 0 98 318 c53
174 110 374 125 445 15 70 30 127 33 127 3 0 19 -57 34 -128z"/>
<path d="M15900 2565 l0 -175 95 0 95 0 0 -775 0 -775 -100 0 -100 0 0 -180 0
-180 380 0 380 0 0 180 0 180 -95 0 -95 0 2 243 3 242 85 3 c47 2 114 0 149
-3 102 -11 108 -19 281 -399 83 -181 161 -344 175 -362 13 -17 46 -42 72 -55
43 -21 66 -24 206 -27 l157 -4 -2 178 -3 179 -62 5 c-49 4 -68 10 -87 30 -14
14 -75 135 -136 270 -86 190 -120 254 -151 286 l-39 40 42 19 c24 10 73 48
109 84 119 119 180 287 180 497 1 319 -142 547 -401 642 l-75 27 -532 3 -533
3 0 -176z m966 -190 c69 -20 118 -65 155 -141 28 -57 33 -78 37 -169 4 -85 1
-115 -17 -172 -25 -84 -78 -150 -148 -184 -45 -22 -60 -23 -238 -24 l-190 0
-3 353 -2 352 178 0 c128 0 192 -4 228 -15z"/>
<path d="M17620 2566 l0 -176 73 0 c124 0 111 70 117 -657 6 -614 6 -630 28
-707 31 -105 72 -195 127 -271 193 -271 573 -380 919 -264 265 88 434 291 497
594 17 82 19 143 19 678 0 687 -11 627 115 627 l75 0 0 175 0 175 -214 0
c-128 0 -226 -4 -243 -11 -35 -13 -72 -46 -87 -79 -8 -18 -13 -236 -16 -745
-5 -699 -6 -722 -27 -782 -56 -167 -162 -259 -327 -285 -187 -29 -361 54 -439
209 -52 102 -51 82 -57 853 -5 702 -6 726 -25 759 -11 19 -33 43 -48 55 -27
20 -43 21 -258 24 l-229 3 0 -175z"/>
</g>
</svg>
